<?xml version="1.0" standalone="no"?>
<!DOCTYPE svg PUBLIC "-//W3C//DTD SVG 1.1//EN" "http://www.w3.org/Graphics/SVG/1.1/DTD/svg11.dtd" >
<svg xmlns="http://www.w3.org/2000/svg" xmlns:xlink="http://www.w3.org/1999/xlink" version="1.1">
<metadata>
Created by FontForge 20170731 at Sat Feb  4 16:23:06 2023
 By Aleksey,,,
Copyright (c) 2018 Monotype GmbH. All rights reserved.
</metadata>
<defs>
<font id="AvenirArabic-Light" horiz-adv-x="0" >
  <font-face 
    font-family="Avenir Arabic"
    font-weight="300"
    font-stretch="normal"
    units-per-em="2048"
    panose-1="2 11 4 3 2 2 3 2 2 4"
    ascent="1638"
    descent="-410"
    x-height="946"
    cap-height="1450"
    bbox="-342 -938 2843 2220"
    underline-thickness="102"
    underline-position="-409"
    unicode-range="U+000D-FEFF"
  />
<missing-glyph horiz-adv-x="1048" 
d="M0 1470h1049v-1470h-1049v1470zM102 102h844v1264h-844v-1264zM530 1247q113 0 183.5 -73.5t70.5 -194.5q0 -73 -29 -128.5t-100 -117.5q-69 -62 -84 -94q-16 -32 -16 -160h-94q-4 28 -4 47q0 92 24 148q21 52 94 125q4 4 24 22.5t24 22.5q23 23 34 45q23 53 23 82
q0 73 -46 123.5t-110 50.5q-144 0 -168 -195l-102 17q12 135 83.5 207.5t192.5 72.5zM455 240v137h114v-137h-114z" />
    <glyph glyph-name="uniFDF2" unicode="&#x627;&#xfedf;&#xfee0;&#xfeea;" horiz-adv-x="2824" arabic-form="isolated" 
d="M1415 1618h-10v297h68v-277zM1346 1307q-63 0 -99.5 36.5t-36.5 96.5q0 44 21 96l47 -14q-10 -45 -10 -62q0 -80 78 -80q65 0 65 78q0 27 -4 47l49 15q12 -43 12 -76v-12q26 -33 78 -33q68 0 68 69q0 36 -19 95l50 20q28 -58 28 -115q4 -46 -17.5 -80.5t-56 -48.5
t-75.5 -8t-72 35q-30 -59 -106 -59zM1124 0q-290 0 -342 119q-143 -70 -288 -70q-192 0 -302 95t-110 264q0 190 125 301.5t344 111.5h326v-512q0 -111 53 -151.5t194 -40.5q140 0 197 65t57 221v797h123v-823q0 -260 279 -260q140 0 197 65t57 221v1145h123v-1194
q0 -354 -377 -354q-243 0 -324 158q-87 -158 -332 -158zM2658 0h-123v1548h123v-1548zM504 170q140 0 246 59v476h-222q-150 0 -235.5 -74t-85.5 -211q0 -122 77 -186t220 -64z" />
    <glyph glyph-name="uniFEF5" unicode="&#xfedf;&#xfe82;" horiz-adv-x="1347" arabic-form="isolated" 
d="M1059 412v1136h123v-1167q0 -183 -105 -282t-301 -99h-715v117h447v1009h123v-1009h133q150 0 222.5 71t72.5 224zM403 1356q-49 0 -100 -39l-45 53q77 68 150 68q35 0 137 -27q110 -29 141 -29q55 0 115 54l51 -50q-59 -86 -160 -86q-45 0 -155 29q-102 27 -134 27z" />
    <glyph glyph-name="uniFEF6" unicode="&#xfee0;&#xfe82;" horiz-adv-x="1460" arabic-form="final" 
d="M1460 117q41 0 41 -58q0 -59 -41 -59q-252 0 -332 164q-99 -164 -352 -164h-715v117h447v1009h123v-1009h133q150 0 222.5 71t72.5 224v1136h123v-1167v-4q0 -260 278 -260zM403 1356q-49 0 -100 -39l-45 53q77 68 150 68q35 0 137 -27q110 -29 141 -29q55 0 115 54
l51 -50q-59 -86 -160 -86q-45 0 -155 29q-102 27 -134 27z" />
    <glyph glyph-name="uniFEF7" unicode="&#xfedf;&#xfe84;" horiz-adv-x="1347" arabic-form="isolated" 
d="M559 1348h178v-66h-327v66h79q-32 51 -32 108q0 69 47 111.5t121 42.5q37 0 94 -13l-12 -65q-38 10 -72 10q-76 0 -100.5 -56t24.5 -138zM1059 412v1136h123v-1167q0 -183 -105 -282t-301 -99h-715v117h447v1009h123v-1009h133q150 0 222.5 71t72.5 224z" />
    <glyph glyph-name="uniFEF8" unicode="&#xfee0;&#xfe84;" horiz-adv-x="1460" arabic-form="final" 
d="M559 1348h178v-66h-327v66h79q-32 51 -32 108q0 69 47 111.5t121 42.5q37 0 94 -13l-12 -65q-38 10 -72 10q-76 0 -100.5 -56t24.5 -138zM1460 117q41 0 41 -58q0 -59 -41 -59q-252 0 -332 164q-99 -164 -352 -164h-715v117h447v1009h123v-1009h133q150 0 222.5 71
t72.5 224v1136h123v-1167v-4q0 -260 278 -260z" />
    <glyph glyph-name="uniFEF9" unicode="&#xfedf;&#xfe88;" horiz-adv-x="1347" arabic-form="isolated" 
d="M1059 412v1136h123v-1167q0 -183 -105 -282t-301 -99h-715v117h447v1009h123v-1009h133q150 0 222.5 71t72.5 224zM522 -348q0 -54 33 -98h178v-66h-327v66h77q-30 50 -30 106q0 69 46 112.5t119 43.5q44 0 97 -15l-13 -63q-38 10 -71 10q-48 0 -78.5 -26t-30.5 -70z" />
    <glyph glyph-name="uniFEFA" unicode="&#xfee0;&#xfe88;" horiz-adv-x="1460" arabic-form="final" 
d="M1460 117q41 0 41 -58q0 -59 -41 -59q-252 0 -332 164q-99 -164 -352 -164h-715v117h447v1009h123v-1009h133q150 0 222.5 71t72.5 224v1136h123v-1167v-4q0 -260 278 -260zM522 -348q0 -54 33 -98h178v-66h-327v66h77q-30 50 -30 106q0 69 46 112.5t119 43.5
q44 0 97 -15l-13 -63q-38 10 -71 10q-48 0 -78.5 -26t-30.5 -70z" />
    <glyph glyph-name="uniFEFB" unicode="&#xfedf;&#xfe8e;" horiz-adv-x="1347" arabic-form="isolated" 
d="M1059 412v1136h123v-1167q0 -183 -105 -282t-301 -99h-715v117h447v1009h123v-1009h133q150 0 222.5 71t72.5 224z" />
    <glyph glyph-name="uniFEFC" unicode="&#xfee0;&#xfe8e;" horiz-adv-x="1460" arabic-form="final" 
d="M1460 117q41 0 41 -58q0 -59 -41 -59q-252 0 -332 164q-99 -164 -352 -164h-715v117h447v1009h123v-1009h133q150 0 222.5 71t72.5 224v1136h123v-1167v-4q0 -260 278 -260z" />
    <glyph glyph-name="uni06440671" unicode="&#xfedf;&#xfb51;" horiz-adv-x="1347" 
d="M788 1391q0 -59 -18 -109h-489v66h104v202h66v-94q70 107 182 107q72 0 113.5 -47t41.5 -125zM1059 412v1136h123v-1167q0 -183 -105 -282t-301 -99h-715v117h447v1009h123v-1009h133q150 0 222.5 71t72.5 224zM627 1495q-55 0 -104 -40t-79 -107h275q6 24 6 45
q0 49 -26.5 75.5t-71.5 26.5z" />
    <glyph glyph-name="uni06440671.fina" unicode="&#xfee0;&#xfb51;" horiz-adv-x="1460" 
d="M788 1391q0 -59 -18 -109h-489v66h104v202h66v-94q70 107 182 107q72 0 113.5 -47t41.5 -125zM1460 117q41 0 41 -58q0 -59 -41 -59q-252 0 -332 164q-99 -164 -352 -164h-715v117h447v1009h123v-1009h133q150 0 222.5 71t72.5 224v1136h123v-1167v-4q0 -260 278 -260z
M627 1495q-55 0 -104 -40t-79 -107h275q6 24 6 45q0 49 -26.5 75.5t-71.5 26.5z" />
    <glyph glyph-name="uni066E.fina" unicode="&#x66e;" horiz-adv-x="2043" 
d="M2044 117q41 0 41 -58q0 -59 -41 -59q-247 0 -330 160q-103 -160 -342 -160h-807q-222 0 -346.5 102t-124.5 283q0 137 66 320l114 -31q-55 -177 -55 -268q0 -289 363 -289h776q147 0 215.5 68.5t68.5 217.5v418h123v-444q0 -260 279 -260z" />
    <glyph glyph-name="uni066F.fina" unicode="&#x66f;" horiz-adv-x="1689" 
d="M1450 117h240q41 0 41 -58q0 -59 -41 -59h-246q-29 -182 -184 -259t-469 -77q-697 0 -697 475q0 121 47 267l115 -31q-37 -112 -37 -219q0 -187 139.5 -279t432.5 -92q495 0 530 215h-166q-477 0 -477 412q0 177 108 303q109 127 297 127q169 0 268 -107t99 -297v-321z
M1171 117h156v295q0 150 -65 230.5t-189 80.5q-122 0 -195 -83.5t-73 -225.5q0 -156 89.5 -226.5t276.5 -70.5z" />
    <glyph glyph-name="uni06A1.init" unicode="&#x6a1;" horiz-adv-x="1130" 
d="M612 842q185 0 284 -119.5t99 -319.5q0 -171 -90 -403h-905v117h297q-115 121 -115 299q0 186 121 307q119 119 309 119zM438 117h381q49 154 49 280q0 154 -69 240t-197 86q-133 0 -213 -85.5t-80 -223.5q0 -162 129 -297z" />
    <glyph glyph-name="uni06A1.medi" unicode="&#x6a1;" horiz-adv-x="1177" 
d="M938 117h240q41 0 41 -58q0 -59 -41 -59h-230q-213 0 -364 43q-151 -43 -375 -43h-209v117h215q127 0 182 14q-99 58 -157 150t-58 200q0 157 113 258q115 103 293 103t286.5 -100t108.5 -261q0 -226 -217 -352q76 -12 172 -12zM309 481q0 -109 77 -194t198 -123
q110 34 192 119q80 86 80 200q0 109 -74 174.5t-196 65.5q-121 0 -199 -68t-78 -174z" />
    <glyph glyph-name="uni06A1.fina" unicode="&#x6a1;" horiz-adv-x="2201" 
d="M1962 117h240q41 0 41 -58q0 -59 -41 -59h-230q-213 0 -364 43q-151 -43 -375 -43h-668q-222 0 -346.5 102t-124.5 283q0 137 66 320l114 -31q-55 -177 -55 -268q0 -289 363 -289h657q127 0 182 14q-99 58 -157 150t-58 200q0 157 113 258q115 103 293 103t286.5 -100
t108.5 -261q0 -226 -217 -352q76 -12 172 -12zM1333 481q0 -109 77 -194t198 -123q110 34 192 119q80 86 80 200q0 109 -74 174.5t-196 65.5q-121 0 -199 -68t-78 -174z" />
    <glyph glyph-name="uni06C2.fina" unicode="&#x6c2;" horiz-adv-x="1105" 
d="M522 1176h232v-82h-422v82h102q-43 67 -43 143q0 87 58 138.5t153 51.5q64 0 127 -14l-16 -80q-72 10 -95 10q-63 0 -102 -30t-39 -88q0 -63 45 -131zM1106 117q41 0 41 -58q0 -59 -41 -59h-76q-153 0 -233 75.5t-80 213.5v428h-158q-153 0 -247.5 -81t-94.5 -224
q0 -123 82 -224l-90 -73q-119 122 -119 299q0 180 127 301q125 119 342 119h287v-506q0 -121 56.5 -166t203.5 -45z" />
    <glyph glyph-name="uni06C3.fina" unicode="&#x6c3;" horiz-adv-x="1124" 
d="M412 1065q-36 0 -60 24t-24 60t24 60t60 24q51 5 72.5 -39.5t0 -89t-72.5 -39.5zM684 1065q-53 -5 -75.5 39.5t0 89t75.5 39.5q50 5 71 -39.5t0 -89t-71 -39.5zM1124 117q41 0 41 -58q0 -59 -41 -59q-288 0 -344 117q-145 -68 -286 -68q-192 0 -302 95t-110 264
q0 190 125 301.5t344 111.5h326v-512q0 -111 53 -151.5t194 -40.5zM750 229v476h-222q-150 0 -235.5 -74t-85.5 -211q0 -122 77 -186t220 -64q140 0 246 59z" />
    <glyph glyph-name="uni06D5.fina" unicode="&#x6d5;" horiz-adv-x="1124" 
d="M1124 117q41 0 41 -58q0 -59 -41 -59q-288 0 -344 117q-145 -68 -286 -68q-192 0 -302 95t-110 264q0 190 125 301.5t344 111.5h326v-512q0 -111 53 -151.5t194 -40.5zM750 229v476h-222q-150 0 -235.5 -74t-85.5 -211q0 -122 77 -186t220 -64q140 0 246 59z" />
    <glyph glyph-name="uniFB51" unicode="&#x671;" horiz-adv-x="571" arabic-form="final" 
d="M446 1769q0 -59 -18 -108h-489v65h104v203h66v-94q70 107 182 107q71 0 113 -47t42 -126zM285 1874q-55 0 -104 -40.5t-79 -107.5h275q6 24 6 46q0 47 -27.5 74.5t-70.5 27.5zM571 117q41 0 41 -58q0 -59 -41 -59q-209 0 -307 84.5t-98 261.5v1202h123v-1194
q0 -237 282 -237z" />
    <glyph glyph-name="uniFB57" unicode="&#x67e;" horiz-adv-x="2043" arabic-form="final" 
d="M2044 117q41 0 41 -58q0 -59 -41 -59q-247 0 -330 160q-103 -160 -342 -160h-807q-222 0 -346.5 102t-124.5 283q0 137 66 320l114 -31q-55 -177 -55 -268q0 -289 363 -289h776q147 0 215.5 68.5t68.5 217.5v418h123v-444q0 -260 279 -260zM844 -268q0 -38 -23.5 -62
t-60.5 -24q-36 0 -60 24t-24 62q0 35 24.5 58.5t59.5 23.5q37 0 60.5 -23.5t23.5 -58.5zM1032 -186q35 0 58.5 -23.5t23.5 -58.5q0 -38 -23 -62t-59 -24q-37 0 -61.5 24t-24.5 62q0 35 24.5 58.5t61.5 23.5zM840 -412q28 24 60 24.5t57.5 -23.5t25.5 -60t-24 -60t-60 -24
t-60 24t-24 60q0 37 25 59z" />
    <glyph glyph-name="uniFB58" unicode="&#x67e;" horiz-adv-x="638" arabic-form="initial" 
d="M8 0h-8v117h12q131 0 190.5 67.5t59.5 218.5v418h123v-436q0 -385 -377 -385zM164 -332q-29 -23 -61.5 -23.5t-58.5 24.5t-26 63q0 35 24.5 58.5t59.5 23.5q37 0 60.5 -23.5t23.5 -58.5q0 -39 -22 -64zM375 -354q-37 0 -61.5 24t-24.5 62q0 35 24.5 58.5t61.5 23.5
q35 0 58.5 -23.5t23.5 -58.5q0 -38 -23 -62t-59 -24zM303 -530q-30 -25 -62 -25t-57.5 24.5t-25.5 59.5q-5 51 39.5 72.5t89 0t39.5 -72.5q0 -33 -23 -59z" />
    <glyph glyph-name="uniFB59" unicode="&#x67e;" horiz-adv-x="663" arabic-form="medial" 
d="M664 117q41 0 41 -58q0 -59 -41 -59q-246 0 -328 156q-86 -156 -328 -156h-8v117h12q131 0 190.5 67.5t59.5 218.5v418h123v-436v-8q0 -260 279 -260zM246 -268q0 -38 -23.5 -62t-60.5 -24q-36 0 -60 24t-24 62q0 35 24.5 58.5t59.5 23.5q37 0 60.5 -23.5t23.5 -58.5z
M434 -186q35 0 58.5 -23.5t23.5 -58.5q0 -38 -23 -62t-59 -24q-37 0 -61.5 24t-24.5 62q0 35 24.5 58.5t61.5 23.5zM242 -412q28 24 60 24.5t57.5 -23.5t25.5 -60t-24 -60t-60 -24t-60 24t-24 60q0 37 25 59z" />
    <glyph glyph-name="uniFB67" unicode="&#x679;" horiz-adv-x="2043" arabic-form="final" 
d="M1167 999q0 -51 -18 -106h-506v68h105v344h67v-220q77 103 184 103q77 0 122.5 -52t45.5 -137zM995 1120q-56 0 -104.5 -42t-77.5 -117h285q4 36 4 38q0 56 -29 88.5t-78 32.5zM2044 117q41 0 41 -58q0 -59 -41 -59q-247 0 -330 160q-103 -160 -342 -160h-807
q-222 0 -346.5 102t-124.5 283q0 137 66 320l114 -31q-55 -177 -55 -268q0 -289 363 -289h776q147 0 215.5 68.5t68.5 217.5v418h123v-444q0 -260 279 -260z" />
    <glyph glyph-name="uniFB68" unicode="&#x679;" horiz-adv-x="509" arabic-form="initial" 
d="M403 1368q77 0 122.5 -51.5t45.5 -136.5q0 -52 -18 -107h-506v68h105v344h67v-219q77 102 184 102zM399 1300q-56 0 -104.5 -42t-77.5 -117h285q4 36 4 39q0 56 -29 88t-78 32zM262 403v418h123v-436q0 -199 -95.5 -292t-289.5 -93v117q140 0 201 66t61 220z" />
    <glyph glyph-name="uniFB69" unicode="&#x679;" horiz-adv-x="663" arabic-form="medial" 
d="M571 1180q0 -52 -18 -107h-506v68h105v344h67v-219q77 102 184 102q77 0 122.5 -51.5t45.5 -136.5zM399 1300q-56 0 -104.5 -42t-77.5 -117h285q4 36 4 39q0 56 -29 88t-78 32zM664 117q41 0 41 -58q0 -59 -41 -59q-246 0 -328 156q-86 -156 -336 -156v117q140 0 201 66
t61 220v418h123v-436v-8q0 -260 279 -260z" />
    <glyph glyph-name="uniFB6B" unicode="&#x6a4;" horiz-adv-x="2201" arabic-form="final" 
d="M1614 1294q-37 0 -60.5 24.5t-23.5 61.5q0 36 24 60t60 24q35 0 58.5 -24.5t23.5 -59.5q0 -37 -23.5 -61.5t-58.5 -24.5zM1473 1092q-36 0 -60 24t-24 60q0 35 24.5 59.5t59.5 24.5q36 0 59.5 -24t23.5 -60q0 -37 -23 -60.5t-60 -23.5zM1659 1176q0 35 24.5 59.5
t61.5 24.5q35 0 58.5 -24.5t23.5 -59.5q0 -37 -23.5 -60.5t-58.5 -23.5q-37 0 -61.5 23.5t-24.5 60.5zM1962 117h240q41 0 41 -58q0 -59 -41 -59h-230q-213 0 -364 43q-151 -43 -375 -43h-668q-222 0 -346.5 102t-124.5 283q0 137 66 320l114 -31q-55 -177 -55 -268
q0 -289 363 -289h657q127 0 182 14q-99 58 -157 150t-58 200q0 157 113 258q115 103 293 103t286.5 -100t108.5 -261q0 -226 -217 -352q76 -12 172 -12zM1333 481q0 -109 77 -194t198 -123q110 34 192 119q80 86 80 200q0 109 -74 174.5t-196 65.5q-121 0 -199 -68t-78 -174
z" />
    <glyph glyph-name="uniFB6C" unicode="&#x6a4;" horiz-adv-x="1130" arabic-form="initial" 
d="M614 1294q-37 0 -60.5 24.5t-23.5 61.5q0 36 24 60t60 24q35 0 58.5 -24.5t23.5 -59.5q0 -37 -23.5 -61.5t-58.5 -24.5zM473 1092q-36 0 -60 24t-24 60q0 35 24.5 59.5t59.5 24.5q36 0 60 -24t24 -60q0 -37 -23.5 -60.5t-60.5 -23.5zM659 1176q0 35 24.5 59.5t61.5 24.5
q35 0 58.5 -24.5t23.5 -59.5q0 -37 -23.5 -60.5t-58.5 -23.5q-37 0 -61.5 23.5t-24.5 60.5zM612 842q185 0 284 -119.5t99 -319.5q0 -171 -90 -403h-905v117h297q-115 121 -115 299q0 186 121 307q119 119 309 119zM438 117h381q49 154 49 280q0 154 -69 240t-197 86
q-133 0 -213 -85.5t-80 -223.5q0 -162 129 -297z" />
    <glyph glyph-name="uniFB6D" unicode="&#x6a4;" horiz-adv-x="1177" arabic-form="medial" 
d="M590 1294q-37 0 -60.5 24.5t-23.5 61.5q0 36 24 60t60 24q35 0 58.5 -24.5t23.5 -59.5q0 -37 -23.5 -61.5t-58.5 -24.5zM449 1092q-36 0 -60 24t-24 60q0 35 24.5 59.5t59.5 24.5q36 0 59.5 -24t23.5 -60q0 -37 -23 -60.5t-60 -23.5zM635 1176q0 35 24.5 59.5t61.5 24.5
q35 0 58.5 -24.5t23.5 -59.5q0 -37 -23.5 -60.5t-58.5 -23.5q-37 0 -61.5 23.5t-24.5 60.5zM938 117h240q41 0 41 -58q0 -59 -41 -59h-230q-213 0 -364 43q-151 -43 -375 -43h-209v117h215q127 0 182 14q-99 58 -157 150t-58 200q0 157 113 258q115 103 293 103t286.5 -100
t108.5 -261q0 -226 -217 -352q76 -12 172 -12zM309 481q0 -109 77 -194t198 -123q110 34 192 119q80 86 80 200q0 109 -74 174.5t-196 65.5q-121 0 -199 -68t-78 -174z" />
    <glyph glyph-name="uniFB7B" unicode="&#x686;" horiz-adv-x="1347" arabic-form="final" 
d="M1098 117h250q41 0 41 -58q0 -59 -41 -59h-910q-109 0 -170 -52.5t-61 -148.5q0 -102 71.5 -156.5t202.5 -54.5q61 0 129 15l25 -117q-70 -18 -168 -18q-174 0 -279.5 88.5t-105.5 240.5q0 148 93 234t251 86h545q24 91 24 180q0 198 -107.5 312t-305.5 114
q-100 0 -234 -41l-31 111q131 49 283 49q248 0 381 -143t133 -394q0 -76 -16 -188zM590 -123q26 0 42.5 -16t16.5 -41q0 -26 -16.5 -43t-42.5 -17q-25 0 -42.5 17t-17.5 43q0 24 17.5 40.5t42.5 16.5zM780 -123q25 0 41.5 -16t16.5 -41q0 -26 -16.5 -43t-41.5 -17
q-26 0 -42.5 17t-16.5 43q0 25 16.5 41t42.5 16zM686 -262q26 0 42.5 -17t16.5 -43q0 -25 -16.5 -42t-42.5 -17q-25 0 -41 17t-16 42q0 26 16 43t41 17z" />
    <glyph glyph-name="uniFB7C" unicode="&#x686;" horiz-adv-x="1003" arabic-form="initial" 
d="M821 0h-821v117h723q21 81 23.5 162.5t-18.5 162t-66 142.5t-129.5 100.5t-198.5 38.5q-103 0 -234 -41l-30 111q131 49 282 49q132 0 233.5 -40.5t164 -115.5t92.5 -179t24.5 -232.5t-45.5 -274.5zM264 -354q-36 0 -60 24t-24 62q0 35 24.5 58.5t59.5 23.5
q37 0 60.5 -23.5t23.5 -58.5q0 -38 -23.5 -62t-60.5 -24zM537 -354q-37 0 -61.5 24t-24.5 62q0 35 24.5 58.5t61.5 23.5q35 0 58 -23.5t23 -58.5q0 -38 -23 -62t-58 -24zM465 -530q-30 -25 -62.5 -25t-58 24.5t-25.5 59.5q-5 51 39.5 72.5t89 0t39.5 -72.5q0 -34 -22 -59z
" />
    <glyph glyph-name="uniFB7D" unicode="&#x686;" horiz-adv-x="1097" arabic-form="medial" 
d="M848 117h250q41 0 41 -58q0 -59 -41 -59h-1098v117h723q21 81 23.5 162.5t-18.5 162t-66 142.5t-129.5 100.5t-198.5 38.5q-103 0 -234 -41l-30 111q131 49 282 49q301 0 430 -197q127 -201 66 -528zM348 -268q0 -38 -23.5 -62t-60.5 -24q-36 0 -60 24t-24 62
q0 35 24.5 58.5t59.5 23.5q37 0 60.5 -23.5t23.5 -58.5zM537 -186q35 0 58 -23.5t23 -58.5q0 -38 -23 -62t-58 -24q-37 0 -61.5 24t-24.5 62q0 35 24.5 58.5t61.5 23.5zM344 -412q28 24 60 24.5t57.5 -23.5t25.5 -60t-24 -60t-60 -24t-60 24t-24 60q0 37 25 59z" />
    <glyph glyph-name="uniFB89" unicode="&#x688;" horiz-adv-x="1136" arabic-form="final" 
d="M639 1192q0 -52 -18 -107h-506v68h104v344h68v-219q77 102 184 102q77 0 122.5 -51.5t45.5 -136.5zM467 1313q-56 0 -104.5 -42.5t-77.5 -117.5h284q4 36 4 39q0 56 -28.5 88.5t-77.5 32.5zM905 117h232q41 0 41 -58q0 -59 -41 -59h-1055v117h700v45q0 347 -422 620
l74 99q262 -173 367 -349q104 -174 104 -407v-8z" />
    <glyph glyph-name="uniFB8B" unicode="&#x698;" horiz-adv-x="688" arabic-form="final" 
d="M362 1274q-36 0 -59.5 24.5t-23.5 61.5q0 36 23.5 60t59.5 24q35 0 58.5 -24.5t23.5 -59.5q0 -37 -23.5 -61.5t-58.5 -24.5zM221 1071q-36 0 -60 24t-24 60q0 35 24.5 59.5t59.5 24.5q36 0 60 -24t24 -60q0 -37 -23.5 -60.5t-60.5 -23.5zM408 1155q0 35 24.5 59.5
t61.5 24.5q35 0 58 -24t23 -60q0 -37 -23 -60.5t-58 -23.5q-37 0 -61.5 23.5t-24.5 60.5zM418 117h270q41 0 41 -58q0 -59 -41 -59h-280v12q-55 -317 -392 -364l-24 114q163 26 234 113.5t71 265.5v680h123v-655q0 -39 -2 -49z" />
    <glyph glyph-name="uniFB8D" unicode="&#x691;" horiz-adv-x="688" arabic-form="final" 
d="M606 1180q0 -52 -18 -107h-506v68h104v344h68v-219q76 102 184 102q77 0 122.5 -51.5t45.5 -136.5zM434 1300q-56 0 -104.5 -42t-77.5 -117h285q4 36 4 39q0 56 -29 88t-78 32zM418 117h270q41 0 41 -58q0 -59 -41 -59h-280v12q-55 -317 -392 -364l-24 114
q163 26 234 113.5t71 265.5v680h123v-655q0 -39 -2 -49z" />
    <glyph glyph-name="uniFB8F" unicode="&#x6a9;" horiz-adv-x="1871" arabic-form="final" 
d="M1602 117h270q41 0 41 -58q0 -59 -41 -59h-1307q-222 0 -346.5 102t-124.5 283q0 137 66 320l114 -31q-55 -177 -55 -268q0 -289 363 -289h901v94q0 231 -140 377q-139 139 -485 248v122l580 560l82 -84l-537 -519q349 -115 483 -286q136 -177 136 -439v-73z" />
    <glyph glyph-name="uniFB90" unicode="&#x6a9;" horiz-adv-x="954" arabic-form="initial" 
d="M737 1434l-536 -519q349 -115 483 -286q135 -176 135 -439v-190h-819v117h700v94q0 232 -139 377q-139 139 -485 248v122l579 560z" />
    <glyph glyph-name="uniFB91" unicode="&#x6a9;" horiz-adv-x="1081" arabic-form="medial" 
d="M819 117h262q41 0 41 -58q0 -59 -41 -59h-1081v117h700v94q0 232 -139 377q-139 139 -485 248v122l579 560l82 -84l-536 -519q349 -115 483 -286q135 -176 135 -439v-73z" />
    <glyph glyph-name="uniFB93" unicode="&#x6af;" horiz-adv-x="1871" arabic-form="final" 
d="M1282 1675l82 -82l-518 -495l-84 84zM1602 117h270q41 0 41 -58q0 -59 -41 -59h-1307q-222 0 -346.5 102t-124.5 283q0 137 66 320l114 -31q-55 -177 -55 -268q0 -289 363 -289h901v94q0 231 -140 377q-139 139 -485 248v122l580 560l82 -84l-537 -519q349 -115 483 -286
q136 -177 136 -439v-73z" />
    <glyph glyph-name="uniFB94" unicode="&#x6af;" horiz-adv-x="954" arabic-form="initial" 
d="M582 1593l-519 -495l-83 84l520 493zM737 1434l-536 -519q349 -115 483 -286q135 -176 135 -439v-190h-819v117h700v94q0 232 -139 377q-139 139 -485 248v122l579 560z" />
    <glyph glyph-name="uniFB95" unicode="&#x6af;" horiz-adv-x="1081" arabic-form="medial" 
d="M500 1675l82 -82l-519 -495l-83 84zM819 117h262q41 0 41 -58q0 -59 -41 -59h-1081v117h700v94q0 232 -139 377q-139 139 -485 248v122l579 560l82 -84l-536 -519q349 -115 483 -286q135 -176 135 -439v-73z" />
    <glyph glyph-name="uniFB9F" unicode="&#x6ba;" horiz-adv-x="1425" arabic-form="final" 
d="M1165 117h260q41 0 41 -58q0 -59 -41 -59h-278q-42 -164 -177.5 -250t-344.5 -86q-250 0 -390.5 125.5t-140.5 337.5q0 159 84 362l109 -38q-68 -171 -68 -310q0 -176 106 -266t304 -90q413 0 413 399v488h123v-518v-37z" />
    <glyph glyph-name="uniFBA7" unicode="&#x6c1;" horiz-adv-x="1177" arabic-form="final" 
d="M178 -16l-96 41q108 231 248.5 362t290.5 131q92 0 155.5 -47t132.5 -166q67 -119 119 -153q50 -35 150 -35q41 0 41 -62q0 -55 -41 -55q-143 0 -211 45q-75 47 -150 180q-61 104 -102.5 140t-102.5 36q-109 0 -224.5 -112.5t-209.5 -304.5z" />
    <glyph glyph-name="uniFBA8" unicode="&#x6c1;" horiz-adv-x="509" arabic-form="initial" 
d="M0 0v117q140 0 201 66t61 220v418h123v-436q0 -199 -95.5 -292t-289.5 -93zM289 -453l-99 -49q-61 88 -61 209q0 102 49 203l88 -25q-33 -73 -33 -153q0 -96 56 -185z" />
    <glyph glyph-name="uniFBA9" unicode="&#x6c1;" horiz-adv-x="782" arabic-form="medial" 
d="M754 117h28q41 0 41 -58q0 -59 -41 -59h-26q-125 0 -194.5 -83t-69.5 -239q0 -79 18 -170q-196 12 -314 122t-118 298q0 36 4 72h-84v117h221q-22 -93 -22 -170q0 -233 190 -309q-2 14 -2 59q0 195 102.5 307.5t266.5 112.5z" />
    <glyph glyph-name="uniFBAB" unicode="&#x6be;" horiz-adv-x="1304" arabic-form="final" 
d="M1036 117h269q41 0 41 -58q0 -59 -41 -59h-179q54 -105 54 -186q0 -139 -99.5 -222.5t-265.5 -83.5q-183 0 -274.5 95.5t-91.5 277.5v119h-48q-183 0 -319 59l37 111q127 -53 282 -53h48v270q0 211 94 330t274 119q166 0 258 -109q90 -113 90 -272q0 -215 -129 -338z
M571 401v-284h187q128 0 206 91.5t78 235.5q0 122 -63.5 196.5t-171.5 74.5q-113 0 -174.5 -80.5t-61.5 -233.5zM823 -371q113 0 171.5 51t58.5 144q0 85 -60 176h-422v-109q0 -262 252 -262z" />
    <glyph glyph-name="uniFBAC" unicode="&#x6be;" horiz-adv-x="1267" arabic-form="initial" 
d="M158 758l18 108q187 -15 334.5 -44t270 -79.5t203.5 -121t125 -170t44 -224.5q0 -101 -29 -227h-350q-167 0 -297 47q-121 -47 -299 -47h-178v117h178q78 0 156 16q-69 51 -110.5 132.5t-41.5 176.5q0 97 46.5 177.5t125.5 121.5q-51 7 -196 17zM295 446
q0 -95 48.5 -168.5t129.5 -113.5q92 37 148.5 111t56.5 174q0 103 -54 168t-137 65q-84 0 -138 -67.5t-54 -168.5zM750 117h276q12 59 12 123q0 289 -311 415q64 -88 64 -206q0 -97 -48.5 -183t-126.5 -137q70 -12 134 -12z" />
    <glyph glyph-name="uniFBAD" unicode="&#x6be;" horiz-adv-x="1036" arabic-form="medial" 
d="M768 117h268q41 0 41 -58q0 -59 -41 -59h-178q53 -103 53 -186q0 -139 -99 -222.5t-265 -83.5q-183 0 -275 95.5t-92 277.5v119h-180v117h180v270q0 211 94.5 330t274.5 119q166 0 258 -109q90 -113 90 -272q0 -215 -129 -338zM303 401v-284h186q128 0 206.5 91.5
t78.5 235.5q0 122 -64.5 196.5t-172.5 74.5q-111 0 -172.5 -81t-61.5 -233zM555 -371q113 0 171 51t58 144q0 87 -59 176h-422v-109q0 -134 61.5 -198t190.5 -64z" />
    <glyph glyph-name="uniFBAF" unicode="&#x6d2;" horiz-adv-x="847" arabic-form="final" 
d="M705 -532q-327 0 -482 80.5t-155 252.5q0 152 113 234t321 82h346q41 0 41 -58q0 -59 -41 -59h-359q-305 0 -305 -195q0 -117 126.5 -167t422.5 -50q335 0 752 74l6 -119q-449 -75 -786 -75z" />
    <glyph glyph-name="uniFBB1" unicode="&#x6d3;" horiz-adv-x="847" arabic-form="final" 
d="M418 459h231v-82h-422v82h103q-43 67 -43 143q0 87 58 139t153 52q60 0 127 -15l-17 -80q-83 11 -94 11q-63 0 -102 -30.5t-39 -88.5q0 -63 45 -131zM1485 -338l6 -119q-449 -75 -786 -75q-327 0 -482 80.5t-155 252.5q0 152 113 234t321 82h346q41 0 41 -58
q0 -59 -41 -59h-359q-305 0 -305 -195q0 -117 126.5 -167t422.5 -50q335 0 752 74z" />
    <glyph glyph-name="uniFBE8" unicode="&#x649;" horiz-adv-x="509" arabic-form="initial" 
d="M0 0v117q140 0 201 66t61 220v418h123v-436q0 -199 -95.5 -292t-289.5 -93z" />
    <glyph glyph-name="uniFBE9" unicode="&#x649;" horiz-adv-x="663" arabic-form="medial" 
d="M664 117q41 0 41 -58q0 -59 -41 -59q-246 0 -328 156q-86 -156 -336 -156v117q140 0 201 66t61 220v418h123v-436v-8q0 -260 279 -260z" />
    <glyph glyph-name="uniFBFD" unicode="&#x6cc;" horiz-adv-x="1564" arabic-form="final" 
d="M1337 117h228q41 0 41 -58q0 -59 -41 -59h-201q90 -59 90 -170q0 -150 -190 -258q-189 -104 -502 -104q-333 0 -500.5 119t-167.5 345q0 116 47 265l115 -31q-37 -133 -37 -219q0 -182 133 -270.5t418 -88.5q259 0 408 70q151 71 151 178q0 136 -262 201l-236 59l31 105
l277 -66q77 -18 198 -18z" />
    <glyph glyph-name="uniFBFE" unicode="&#x6cc;" horiz-adv-x="571" arabic-form="initial" 
d="M8 0h-8v117h12q131 0 190.5 67.5t59.5 218.5v418h123v-436q0 -385 -377 -385zM102 -352q-36 0 -60 24t-24 60t24 60t60 24q51 5 72.5 -39.5t0 -89t-72.5 -39.5zM375 -352q-53 -5 -75.5 39.5t0 89t75.5 39.5q50 5 71 -39.5t0 -89t-71 -39.5z" />
    <glyph glyph-name="uniFBFF" unicode="&#x6cc;" horiz-adv-x="663" arabic-form="medial" 
d="M664 117q41 0 41 -58q0 -59 -41 -59q-246 0 -328 156q-86 -156 -328 -156h-8v117h12q131 0 190.5 67.5t59.5 218.5v418h123v-436v-8q0 -260 279 -260zM162 -184q51 5 72.5 -39.5t0 -89t-72.5 -39.5q-36 0 -60 24t-24 60t24 60t60 24zM434 -184q50 5 71 -39.5t0 -89
t-71 -39.5q-53 -5 -75.5 39.5t0 89t75.5 39.5z" />
    <glyph glyph-name="uniFDFA" unicode="&#xfdfa;" horiz-adv-x="2293" arabic-form="isolated" 
d="M526 1386q-49 0 -49 54q0 23 8 39l33 -9q-6 -15 -6 -22q0 -15 10 -21t20.5 0t10.5 21v18l29 4q2 -10 2 -32q8 -8 20 -8q21 0 21 24q0 14 -9 29l35 12q11 -37 11 -49q0 -55 -52 -55q-20 0 -37 14q-19 -19 -47 -19zM221 956q-69 0 -110 36.5t-41 99.5q0 76 49.5 118.5
t140.5 42.5h129v-176q0 -29 16 -41t54 -12t54.5 18.5t16.5 61.5v254h84v-260q0 -74 74 -74q41 0 57.5 19.5t16.5 64.5v342h84v-360q0 -79 -37.5 -113.5t-120.5 -34.5q-80 0 -110 47q-35 -47 -123 -47q-90 0 -123 39q-52 -25 -111 -25zM1051 723q-101 0 -155 38.5t-54 106.5
q0 33 14 68l80 -16q-6 -18 -6 -37q0 -78 127 -78q86 0 136 26t50 68q0 24 -26 38.5t-103 35.5l21 71q73 -20 145 -20q41 0 57.5 19.5t16.5 68.5v338h84v-352q0 -74 78 -74q77 0 77 76v117h82v-130q0 -52 45 -61q127 244 291 244q79 0 124.5 -51.5t45.5 -139.5
q0 -63 -24 -137h-412q-77 0 -103 45q-33 -45 -124 -45q-77 0 -107 47q-27 -47 -111 -47q31 -22 31 -59q0 -69 -77 -114.5t-203 -45.5zM948 1450h86v-479h-86v479zM2005 1192q-108 0 -199 -168l281 -2q12 46 12 63q0 49 -25.5 78t-68.5 29zM305 1186h-55q-98 0 -98 -82
q0 -72 86 -72q36 0 67 17v137zM1989 539q0 -49 30 -84h160v-82h-530q-86 0 -113 47q-30 -47 -123 -47h-319v-416q0 -74 77 -74h35q68 0 68 72v111h84v-123q0 -60 63 -60q64 0 64 72v111h82v-123q0 -60 63 -60q64 0 64 74v162h84v-191q0 -127 -136 -127q-65 0 -102 49
q-34 -49 -104 -49t-105 47q-41 -47 -121 -47h-39q-78 0 -112 49q-34 -49 -125 -49h-383q-47 -47 -133 -47h-72q-24 19 -41 49l-43 -2q-57 -3 -57 -65v-125h-82v139q0 133 129 133h24q-4 32 -4 41q0 72 47 119t121 47q72 0 114 -45t42 -119q0 -7 -4 -43h340q41 0 58.5 19.5
t17.5 64.5v406h-287q-84 0 -111 49q-37 -49 -127 -49h-16q-87 0 -123 39q-52 -25 -111 -25q-69 0 -110 36t-41 99q0 76 49.5 119t140.5 43h129v-170q0 -32 17 -45.5t59 -13.5h4q43 0 61.5 19.5t18.5 66.5v143h82v-152q0 -77 82 -77h283v163h86v-163h317q42 0 60 19.5
t18 66.5v303h84v-318q0 -71 78 -71h276q-26 45 -26 92q0 70 44.5 110.5t125.5 40.5q31 0 90 -12l-15 -74q-40 9 -63 9q-94 0 -94 -82zM319 479v137h-57q-98 0 -98 -81q0 -74 86 -74q28 0 69 18zM571 270q0 -20 -12 -32.5t-31 -12.5q-45 0 -45 45t45 45q43 0 43 -45zM694 270
q0 -45 -41 -45q-45 0 -45 45q0 19 12.5 32t32.5 13q18 0 29.5 -13t11.5 -32zM2011 127q73 0 111.5 -44t38.5 -120v-119q0 -104 -66 -149t-203 -39l-4 78q186 -9 189 90q-27 -12 -74 -12q-70 0 -111 41t-41 112q0 70 44.5 116t115.5 46zM2083 -109v72q0 92 -74 92
q-35 0 -56.5 -25.5t-21.5 -66.5q0 -38 23 -61t61 -23q41 0 68 12zM385 -172h33q48 0 74 27t26 71q6 56 -44 78q-44 20 -86 -3q-43 -24 -38 -79q0 -53 35 -94z" />
    <glyph glyph-name="uniFE82" unicode="&#x622;" horiz-adv-x="571" arabic-form="final" 
d="M350 1679q-45 0 -155 29q-102 27 -134 27q-49 0 -100 -39l-45 53q77 68 150 68q35 0 137 -27q110 -29 141 -29q55 0 115 54l51 -50q-59 -86 -160 -86zM571 0q-209 0 -307 84.5t-98 261.5v1202h123v-1194q0 -237 282 -237q41 0 41 -58q0 -59 -41 -59z" />
    <glyph glyph-name="uniFE84" unicode="&#x623;" horiz-adv-x="571" arabic-form="final" 
d="M217 1726h178v-65h-327v65h79q-32 51 -32 109q0 69 47 111.5t121 42.5q37 0 94 -13l-12 -65q-38 10 -72 10q-76 0 -100.5 -56.5t24.5 -138.5zM571 117q41 0 41 -58q0 -59 -41 -59q-209 0 -307 84.5t-98 261.5v1202h123v-1194q0 -237 282 -237z" />
    <glyph glyph-name="uniFE86" unicode="&#x624;" horiz-adv-x="1091" arabic-form="final" 
d="M475 1186h232v-82h-422v82h102q-43 67 -43 143q0 87 58 139t153 52q59 0 127 -15l-16 -80q-83 11 -95 11q-63 0 -102 -30.5t-39 -88.5q0 -63 45 -131zM885 117h207q41 0 41 -58q0 -59 -41 -59h-211q-47 -354 -557 -354q-57 0 -84 2l-7 112q498 -27 525 240h-158
q-242 0 -364.5 106t-122.5 302q0 185 112 309q112 127 289 127q171 0 271 -104.5t100 -286.5v-336zM238 422q0 -156 91 -230.5t285 -74.5h148v295q0 149 -65.5 231t-186.5 82q-118 0 -195 -84.5t-77 -218.5z" />
    <glyph glyph-name="uniFE88" unicode="&#x625;" horiz-adv-x="571" arabic-form="final" 
d="M571 117q41 0 41 -58q0 -59 -41 -59q-209 0 -307 84.5t-98 261.5v1202h123v-1194q0 -237 282 -237zM240 -348q0 -55 32 -98h179v-66h-328v66h78q-31 51 -31 106q0 69 46.5 112.5t119.5 43.5q44 0 96 -15l-12 -63q-38 10 -72 10q-48 0 -78 -26t-30 -70z" />
    <glyph glyph-name="uniFE8A" unicode="&#x626;" horiz-adv-x="1564" arabic-form="final" 
d="M334 508h231v-82h-422v82h103q-43 67 -43 143q0 87 58 139t153 52q60 0 127 -15l-17 -79q-75 10 -94 10q-63 0 -102 -30.5t-39 -88.5q0 -63 45 -131zM1337 117h228q41 0 41 -58q0 -59 -41 -59h-201q90 -59 90 -170q0 -150 -190 -258q-189 -104 -502 -104
q-333 0 -500.5 119t-167.5 345q0 116 47 265l115 -31q-37 -133 -37 -219q0 -182 133 -270.5t418 -88.5q259 0 408 70q151 71 151 178q0 136 -262 201l-236 59l31 105l277 -66q77 -18 198 -18z" />
    <glyph glyph-name="uniFE8B" unicode="&#x626;" horiz-adv-x="571" arabic-form="initial" 
d="M287 1163h231v-82h-422v82h103q-43 67 -43 144q0 87 58 138.5t153 51.5q64 0 127 -14l-17 -80q-75 10 -94 10q-63 0 -102 -30.5t-39 -88.5q0 -63 45 -131zM262 403v418h123v-436q0 -385 -377 -385h-8v117h12q131 0 190.5 67.5t59.5 218.5z" />
    <glyph glyph-name="uniFE8C" unicode="&#x626;" horiz-adv-x="663" arabic-form="medial" 
d="M287 1163h231v-82h-422v82h103q-43 67 -43 144q0 87 58 138.5t153 51.5q64 0 127 -14l-17 -80q-75 10 -94 10q-63 0 -102 -30.5t-39 -88.5q0 -63 45 -131zM664 117q41 0 41 -58q0 -59 -41 -59q-246 0 -328 156q-86 -156 -328 -156h-8v117h12q131 0 190.5 67.5t59.5 218.5
v418h123v-436v-8q0 -260 279 -260z" />
    <glyph glyph-name="uniFE8E" unicode="&#x627;" horiz-adv-x="571" arabic-form="final" 
d="M571 0q-209 0 -307 84.5t-98 261.5v1202h123v-1194q0 -237 282 -237q41 0 41 -58q0 -59 -41 -59z" />
    <glyph glyph-name="uniFE90" unicode="&#x628;" horiz-adv-x="2043" arabic-form="final" 
d="M2044 117q41 0 41 -58q0 -59 -41 -59q-247 0 -330 160q-103 -160 -342 -160h-807q-222 0 -346.5 102t-124.5 283q0 137 66 320l114 -31q-55 -177 -55 -268q0 -289 363 -289h776q147 0 215.5 68.5t68.5 217.5v418h123v-444q0 -260 279 -260zM901 -184q50 0 70.5 -42t0 -84
t-70.5 -42q-53 0 -75 42t0 84t75 42z" />
    <glyph glyph-name="uniFE91" unicode="&#x628;" horiz-adv-x="509" arabic-form="initial" 
d="M0 0v117q140 0 201 66t61 220v418h123v-436q0 -199 -95.5 -292t-289.5 -93zM246 -352q-53 0 -75 42t0 84t75 42q50 0 70.5 -42t0 -84t-70.5 -42z" />
    <glyph glyph-name="uniFE92" unicode="&#x628;" horiz-adv-x="663" arabic-form="medial" 
d="M664 117q41 0 41 -58q0 -59 -41 -59q-246 0 -328 156q-86 -156 -336 -156v117q140 0 201 66t61 220v418h123v-436v-8q0 -260 279 -260zM303 -184q50 0 70.5 -42t0 -84t-70.5 -42q-53 0 -75 42t0 84t75 42z" />
    <glyph glyph-name="uniFE94" unicode="&#x629;" horiz-adv-x="1124" arabic-form="final" 
d="M412 1065q-36 0 -60 24t-24 60t24 60t60 24q51 5 72.5 -39.5t0 -89t-72.5 -39.5zM684 1065q-53 -5 -75.5 39.5t0 89t75.5 39.5q50 5 71 -39.5t0 -89t-71 -39.5zM1124 117q41 0 41 -58q0 -59 -41 -59q-288 0 -344 117q-145 -68 -286 -68q-192 0 -302 95t-110 264
q0 190 125 301.5t344 111.5h326v-512q0 -111 53 -151.5t194 -40.5zM750 229v476h-222q-150 0 -235.5 -74t-85.5 -211q0 -122 77 -186t220 -64q140 0 246 59z" />
    <glyph glyph-name="uniFE96" unicode="&#x62a;" horiz-adv-x="2043" arabic-form="final" 
d="M782 885q-36 0 -60 24t-24 60t24 60t60 24q51 5 72.5 -39.5t0 -89t-72.5 -39.5zM1055 885q-53 -5 -75.5 39.5t0 89t75.5 39.5q50 5 71 -39.5t0 -89t-71 -39.5zM2044 117q41 0 41 -58q0 -59 -41 -59q-247 0 -330 160q-103 -160 -342 -160h-807q-222 0 -346.5 102
t-124.5 283q0 137 66 320l114 -31q-55 -177 -55 -268q0 -289 363 -289h776q147 0 215.5 68.5t68.5 217.5v418h123v-444q0 -260 279 -260z" />
    <glyph glyph-name="uniFE97" unicode="&#x62a;" horiz-adv-x="571" arabic-form="initial" 
d="M184 1065q-36 0 -60 24t-24 60t24 60t60 24q51 5 72.5 -39.5t0 -89t-72.5 -39.5zM457 1065q-53 -5 -75.5 39.5t0 89t75.5 39.5q50 5 71 -39.5t0 -89t-71 -39.5zM8 0h-8v117h12q131 0 190.5 67.5t59.5 218.5v418h123v-436q0 -385 -377 -385z" />
    <glyph glyph-name="uniFE98" unicode="&#x62a;" horiz-adv-x="663" arabic-form="medial" 
d="M184 1065q-36 0 -60 24t-24 60t24 60t60 24q51 5 72.5 -39.5t0 -89t-72.5 -39.5zM457 1065q-53 -5 -75.5 39.5t0 89t75.5 39.5q50 5 71 -39.5t0 -89t-71 -39.5zM664 117q41 0 41 -58q0 -59 -41 -59q-246 0 -328 156q-86 -156 -328 -156h-8v117h12q131 0 190.5 67.5
t59.5 218.5v418h123v-436v-8q0 -260 279 -260z" />
    <glyph glyph-name="uniFE9A" unicode="&#x62b;" horiz-adv-x="2043" arabic-form="final" 
d="M924 1094q-37 0 -60.5 24.5t-23.5 61.5q0 36 24 60t60 24q35 0 58.5 -24.5t23.5 -59.5q0 -37 -23.5 -61.5t-58.5 -24.5zM782 891q-36 0 -60 24t-24 60q0 35 24.5 59.5t59.5 24.5q36 0 60 -24t24 -60q0 -37 -23.5 -60.5t-60.5 -23.5zM969 975q0 35 24.5 59.5t61.5 24.5
q35 0 58.5 -24.5t23.5 -59.5q0 -37 -23.5 -60.5t-58.5 -23.5q-37 0 -61.5 23.5t-24.5 60.5zM2044 117q41 0 41 -58q0 -59 -41 -59q-247 0 -330 160q-103 -160 -342 -160h-807q-222 0 -346.5 102t-124.5 283q0 137 66 320l114 -31q-55 -177 -55 -268q0 -289 363 -289h776
q147 0 215.5 68.5t68.5 217.5v418h123v-444q0 -260 279 -260z" />
    <glyph glyph-name="uniFE9B" unicode="&#x62b;" horiz-adv-x="571" arabic-form="initial" 
d="M326 1274q-37 0 -60.5 24.5t-23.5 61.5q0 36 24 60t60 24q35 0 58.5 -24.5t23.5 -59.5q0 -37 -23.5 -61.5t-58.5 -24.5zM184 1071q-36 0 -60 24t-24 60q0 35 24.5 59.5t59.5 24.5q36 0 60 -24t24 -60q0 -37 -23.5 -60.5t-60.5 -23.5zM457 1071q-37 0 -61.5 23.5
t-24.5 60.5q0 35 24.5 59.5t61.5 24.5q35 0 58.5 -24.5t23.5 -59.5q0 -37 -23.5 -60.5t-58.5 -23.5zM8 0h-8v117h12q131 0 190.5 67.5t59.5 218.5v418h123v-436q0 -385 -377 -385z" />
    <glyph glyph-name="uniFE9C" unicode="&#x62b;" horiz-adv-x="663" arabic-form="medial" 
d="M326 1274q-37 0 -60.5 24.5t-23.5 61.5q0 36 24 60t60 24q35 0 58.5 -24.5t23.5 -59.5q0 -37 -23.5 -61.5t-58.5 -24.5zM184 1071q-36 0 -60 24t-24 60q0 35 24.5 59.5t59.5 24.5q36 0 60 -24t24 -60q0 -37 -23.5 -60.5t-60.5 -23.5zM371 1155q0 35 24.5 59.5t61.5 24.5
q35 0 58.5 -24.5t23.5 -59.5q0 -37 -23.5 -60.5t-58.5 -23.5q-37 0 -61.5 23.5t-24.5 60.5zM664 117q41 0 41 -58q0 -59 -41 -59q-246 0 -328 156q-86 -156 -328 -156h-8v117h12q131 0 190.5 67.5t59.5 218.5v418h123v-436v-8q0 -260 279 -260z" />
    <glyph glyph-name="uniFE9E" unicode="&#x62c;" horiz-adv-x="1347" arabic-form="final" 
d="M1098 117h250q41 0 41 -58q0 -59 -41 -59h-910q-109 0 -170 -52.5t-61 -148.5q0 -102 71.5 -156.5t202.5 -54.5q61 0 129 15l25 -117q-70 -18 -168 -18q-174 0 -279.5 88.5t-105.5 240.5q0 148 93 234t251 86h545q24 91 24 180q0 198 -107.5 312t-305.5 114
q-100 0 -234 -41l-31 111q131 49 283 49q248 0 381 -143t133 -394q0 -76 -16 -188zM526 -139q40 37 86.5 16.5t46.5 -72.5q0 -35 -21 -56t-54 -21q-34 0 -57.5 23.5t-23.5 53t23 56.5z" />
    <glyph glyph-name="uniFE9F" unicode="&#x62c;" horiz-adv-x="1003" arabic-form="initial" 
d="M821 0h-821v117h723q21 81 23.5 162.5t-18.5 162t-66 142.5t-129.5 100.5t-198.5 38.5q-103 0 -234 -41l-30 111q131 49 282 49q132 0 233.5 -40.5t164 -115.5t92.5 -179t24.5 -232.5t-45.5 -274.5zM406 -352q-53 0 -75 42t0 84t75 42q50 0 70.5 -42t0 -84t-70.5 -42z
" />
    <glyph glyph-name="uniFEA0" unicode="&#x62c;" horiz-adv-x="1097" arabic-form="medial" 
d="M848 117h250q41 0 41 -58q0 -59 -41 -59h-1098v117h723q21 81 23.5 162.5t-18.5 162t-66 142.5t-129.5 100.5t-198.5 38.5q-103 0 -234 -41l-30 111q131 49 282 49q301 0 430 -197q127 -201 66 -528zM406 -184q50 0 70.5 -42t0 -84t-70.5 -42q-53 0 -75 42t0 84t75 42z
" />
    <glyph glyph-name="uniFEA2" unicode="&#x62d;" horiz-adv-x="1347" arabic-form="final" 
d="M1098 117h250q41 0 41 -58q0 -59 -41 -59h-910q-109 0 -170 -52.5t-61 -148.5q0 -102 71.5 -156.5t202.5 -54.5q75 0 191 29l22 -113q-112 -36 -227 -36q-174 0 -279.5 88.5t-105.5 240.5q0 148 93 234t251 86h545q24 91 24 180q0 198 -107.5 312t-305.5 114
q-100 0 -234 -41l-31 111q131 49 283 49q248 0 381 -143t133 -394q0 -76 -16 -188z" />
    <glyph glyph-name="uniFEA3" unicode="&#x62d;" horiz-adv-x="1003" arabic-form="initial" 
d="M821 0h-821v117h723q21 81 23.5 162.5t-18.5 162t-66 142.5t-129.5 100.5t-198.5 38.5q-103 0 -234 -41l-30 111q131 49 282 49q132 0 233.5 -40.5t164 -115.5t92.5 -179t24.5 -232.5t-45.5 -274.5z" />
    <glyph glyph-name="uniFEA4" unicode="&#x62d;" horiz-adv-x="1097" arabic-form="medial" 
d="M848 117h250q41 0 41 -58q0 -59 -41 -59h-1098v117h723q21 81 23.5 162.5t-18.5 162t-66 142.5t-129.5 100.5t-198.5 38.5q-103 0 -234 -41l-30 111q131 49 282 49q301 0 430 -197q127 -201 66 -528z" />
    <glyph glyph-name="uniFEA6" unicode="&#x62e;" horiz-adv-x="1347" arabic-form="final" 
d="M600 1085q-53 0 -75 42t0 84t75 42q50 0 70.5 -42t0 -84t-70.5 -42zM1098 117h250q41 0 41 -58q0 -59 -41 -59h-910q-109 0 -170 -52.5t-61 -148.5q0 -102 71.5 -156.5t202.5 -54.5q75 0 191 29l22 -113q-112 -36 -227 -36q-174 0 -279.5 88.5t-105.5 240.5q0 148 93 234
t251 86h545q24 91 24 180q0 198 -107.5 312t-305.5 114q-100 0 -234 -41l-31 111q131 49 283 49q248 0 381 -143t133 -394q0 -76 -16 -188z" />
    <glyph glyph-name="uniFEA7" unicode="&#x62e;" horiz-adv-x="1003" arabic-form="initial" 
d="M352 1085q-53 0 -75 42t0 84t75 42q50 0 70.5 -42t0 -84t-70.5 -42zM821 0h-821v117h723q21 81 23.5 162.5t-18.5 162t-66 142.5t-129.5 100.5t-198.5 38.5q-103 0 -234 -41l-30 111q131 49 282 49q132 0 233.5 -40.5t164 -115.5t92.5 -179t24.5 -232.5t-45.5 -274.5z
" />
    <glyph glyph-name="uniFEA8" unicode="&#x62e;" horiz-adv-x="1097" arabic-form="medial" 
d="M352 1085q-53 0 -75 42t0 84t75 42q50 0 70.5 -42t0 -84t-70.5 -42zM848 117h250q41 0 41 -58q0 -59 -41 -59h-1098v117h723q21 81 23.5 162.5t-18.5 162t-66 142.5t-129.5 100.5t-198.5 38.5q-103 0 -234 -41l-30 111q131 49 282 49q301 0 430 -197q127 -201 66 -528z
" />
    <glyph glyph-name="uniFEAA" unicode="&#x62f;" horiz-adv-x="1136" arabic-form="final" 
d="M905 117h232q41 0 41 -58q0 -59 -41 -59h-1055v117h700v45q0 347 -422 620l74 99q262 -173 367 -349q104 -174 104 -407v-8z" />
    <glyph glyph-name="uniFEAC" unicode="&#x630;" horiz-adv-x="1136" arabic-form="final" 
d="M393 1077q-53 0 -75 42t0 84t75 42q50 0 70.5 -42t0 -84t-70.5 -42zM905 117h232q41 0 41 -58q0 -59 -41 -59h-1055v117h700v45q0 347 -422 620l74 99q262 -173 367 -349q104 -174 104 -407v-8z" />
    <glyph glyph-name="uniFEAE" unicode="&#x631;" horiz-adv-x="688" arabic-form="final" 
d="M418 117h270q41 0 41 -58q0 -59 -41 -59h-280v12q-55 -317 -392 -364l-24 114q163 26 234 113.5t71 265.5v680h123v-655q0 -39 -2 -49z" />
    <glyph glyph-name="uniFEB0" unicode="&#x632;" horiz-adv-x="688" arabic-form="final" 
d="M360 1065q-53 0 -75 42t0 84t75 42q50 0 70.5 -42t0 -84t-70.5 -42zM418 117h270q41 0 41 -58q0 -59 -41 -59h-280v12q-55 -317 -392 -364l-24 114q163 26 234 113.5t71 265.5v680h123v-655q0 -39 -2 -49z" />
    <glyph glyph-name="uniFEB2" unicode="&#x633;" horiz-adv-x="2594" arabic-form="final" 
d="M2595 117q41 0 41 -58q0 -59 -41 -59q-242 0 -326 152q-87 -152 -301 -152q-213 0 -287 152q-83 -156 -297 -156q-151 0 -221 94q-20 -205 -161.5 -315.5t-376.5 -110.5q-250 0 -390.5 125.5t-140.5 337.5q0 159 84 362l109 -38q-68 -171 -68 -310q0 -176 106 -266
t304 -90q413 0 413 399v488h123v-350q0 -205 219 -205q116 0 173 64.5t57 209.5v281h123v-340q0 -215 229 -215q119 0 173 67.5t54 218.5v418h123v-444q0 -260 279 -260z" />
    <glyph glyph-name="uniFEB3" unicode="&#x633;" horiz-adv-x="1675" arabic-form="initial" 
d="M1427 403v418h123v-467q0 -167 -92 -260.5t-258 -93.5q-207 0 -285 152q-78 -152 -297 -152q-213 0 -274 143q-38 -65 -121.5 -104t-197.5 -39h-25v117h27q127 0 188 64t61 210v281h123v-342q0 -213 217 -213q118 0 175 64t57 210v281h123v-340q0 -215 229 -215
q118 0 172.5 68.5t54.5 217.5z" />
    <glyph glyph-name="uniFEB4" unicode="&#x633;" horiz-adv-x="1828" arabic-form="medial" 
d="M1829 117q41 0 41 -58q0 -59 -41 -59q-243 0 -326 154q-83 -154 -303 -154q-207 0 -285 152q-78 -152 -297 -152q-213 0 -274 143q-38 -65 -121.5 -104t-197.5 -39h-25v117h27q127 0 188 64t61 210v281h123v-342q0 -213 217 -213q118 0 175 64t57 210v281h123v-340
q0 -215 229 -215q118 0 172.5 68.5t54.5 217.5v418h123v-444q0 -260 279 -260z" />
    <glyph glyph-name="uniFEB6" unicode="&#x634;" horiz-adv-x="2594" arabic-form="final" 
d="M1679 1124q-37 0 -60.5 24.5t-23.5 61.5q0 36 24 60t60 24q35 0 58.5 -24.5t23.5 -59.5q0 -37 -23.5 -61.5t-58.5 -24.5zM1538 922q-36 0 -60 24t-24 60q0 35 24.5 59.5t59.5 24.5q36 0 60 -24t24 -60q0 -37 -23.5 -60.5t-60.5 -23.5zM1724 1006q0 35 24.5 59.5
t61.5 24.5q35 0 58.5 -24.5t23.5 -59.5q0 -37 -23.5 -60.5t-58.5 -23.5q-37 0 -61.5 23.5t-24.5 60.5zM2595 117q41 0 41 -58q0 -59 -41 -59q-242 0 -326 152q-87 -152 -301 -152q-213 0 -287 152q-83 -156 -297 -156q-151 0 -221 94q-20 -205 -161.5 -315.5t-376.5 -110.5
q-250 0 -390.5 125.5t-140.5 337.5q0 159 84 362l109 -38q-68 -171 -68 -310q0 -176 106 -266t304 -90q413 0 413 399v488h123v-350q0 -205 219 -205q116 0 173 64.5t57 209.5v281h123v-340q0 -215 229 -215q119 0 173 67.5t54 218.5v418h123v-444q0 -260 279 -260z" />
    <glyph glyph-name="uniFEB7" unicode="&#x634;" horiz-adv-x="1675" arabic-form="initial" 
d="M911 1124q-37 0 -60.5 24.5t-23.5 61.5q0 36 24 60t60 24q35 0 58.5 -24.5t23.5 -59.5q0 -37 -23.5 -61.5t-58.5 -24.5zM770 922q-36 0 -60 24t-24 60q0 35 24.5 59.5t59.5 24.5q36 0 60 -24t24 -60q0 -37 -23.5 -60.5t-60.5 -23.5zM956 1006q0 35 24.5 59.5t61.5 24.5
q35 0 58.5 -24.5t23.5 -59.5q0 -37 -23.5 -60.5t-58.5 -23.5q-37 0 -61.5 23.5t-24.5 60.5zM1427 403v418h123v-467q0 -167 -92 -260.5t-258 -93.5q-207 0 -285 152q-78 -152 -297 -152q-213 0 -274 143q-38 -65 -121.5 -104t-197.5 -39h-25v117h27q127 0 188 64t61 210v281
h123v-342q0 -213 217 -213q118 0 175 64t57 210v281h123v-340q0 -215 229 -215q118 0 172.5 68.5t54.5 217.5z" />
    <glyph glyph-name="uniFEB8" unicode="&#x634;" horiz-adv-x="1828" arabic-form="medial" 
d="M911 1124q-37 0 -60.5 24.5t-23.5 61.5q0 36 24 60t60 24q35 0 58.5 -24.5t23.5 -59.5q0 -37 -23.5 -61.5t-58.5 -24.5zM770 922q-36 0 -60 24t-24 60q0 35 24.5 59.5t59.5 24.5q36 0 60 -24t24 -60q0 -37 -23.5 -60.5t-60.5 -23.5zM956 1006q0 35 24.5 59.5t61.5 24.5
q35 0 58.5 -24.5t23.5 -59.5q0 -37 -23.5 -60.5t-58.5 -23.5q-37 0 -61.5 23.5t-24.5 60.5zM1829 117q41 0 41 -58q0 -59 -41 -59q-243 0 -326 154q-83 -154 -303 -154q-207 0 -285 152q-78 -152 -297 -152q-213 0 -274 143q-38 -65 -121.5 -104t-197.5 -39h-25v117h27
q127 0 188 64t61 210v281h123v-342q0 -213 217 -213q118 0 175 64t57 210v281h123v-340q0 -215 229 -215q118 0 172.5 68.5t54.5 217.5v418h123v-444q0 -260 279 -260z" />
    <glyph glyph-name="uniFEBA" unicode="&#x635;" horiz-adv-x="2801" arabic-form="final" 
d="M2556 117h246q41 0 41 -58q0 -59 -41 -59h-1411q-152 0 -230 72q-26 -197 -166.5 -302.5t-369.5 -105.5q-250 0 -390.5 125.5t-140.5 337.5q0 159 84 362l109 -38q-68 -171 -68 -310q0 -176 106 -266t304 -90q413 0 413 399v488h123v-379q0 -132 131 -166
q108 203 228 352t233 226q205 137 391 137q207 0 322 -133.5t115 -360.5q0 -96 -29 -231zM1425 117h998q37 118 37 225q0 173 -86 277t-238 104q-178 0 -361.5 -152t-349.5 -454z" />
    <glyph glyph-name="uniFEBB" unicode="&#x635;" horiz-adv-x="1900" arabic-form="initial" 
d="M1329 842q207 0 321.5 -133.5t114.5 -360.5q0 -171 -63 -348h-1131q-211 0 -276 139q-65 -139 -295 -139v117q117 0 171 66t54 208v293h123v-354q0 -158 131 -201q108 202 228 350.5t233 225.5q206 137 389 137zM606 117h998q36 107 36 225q0 173 -85.5 277t-237.5 104
q-178 0 -360.5 -152t-350.5 -454z" />
    <glyph glyph-name="uniFEBC" unicode="&#x635;" horiz-adv-x="1982" arabic-form="medial" 
d="M1737 117h245q41 0 41 -58q0 -59 -41 -59h-1411q-211 0 -276 139q-65 -139 -295 -139v117q117 0 171 66t54 208v293h123v-354q0 -158 131 -201q108 202 228 350.5t233 225.5q206 137 389 137q207 0 321.5 -133.5t114.5 -360.5q0 -100 -28 -231zM606 117h998
q36 107 36 225q0 173 -85.5 277t-237.5 104q-178 0 -360.5 -152t-350.5 -454z" />
    <glyph glyph-name="uniFEBE" unicode="&#x636;" horiz-adv-x="2801" arabic-form="final" 
d="M1968 1085q-53 0 -75 42t0 84t75 42q50 0 70.5 -42t0 -84t-70.5 -42zM2556 117h246q41 0 41 -58q0 -59 -41 -59h-1411q-152 0 -230 72q-26 -197 -166.5 -302.5t-369.5 -105.5q-250 0 -390.5 125.5t-140.5 337.5q0 159 84 362l109 -38q-68 -171 -68 -310q0 -176 106 -266
t304 -90q413 0 413 399v488h123v-379q0 -132 131 -166q108 203 228 352t233 226q205 137 391 137q207 0 322 -133.5t115 -360.5q0 -96 -29 -231zM1425 117h998q37 118 37 225q0 173 -86 277t-238 104q-178 0 -361.5 -152t-349.5 -454z" />
    <glyph glyph-name="uniFEBF" unicode="&#x636;" horiz-adv-x="1900" arabic-form="initial" 
d="M1149 1085q-53 0 -75 42t0 84t75 42q50 0 70.5 -42t0 -84t-70.5 -42zM1329 842q207 0 321.5 -133.5t114.5 -360.5q0 -171 -63 -348h-1131q-211 0 -276 139q-65 -139 -295 -139v117q117 0 171 66t54 208v293h123v-354q0 -158 131 -201q108 202 228 350.5t233 225.5
q206 137 389 137zM606 117h998q36 107 36 225q0 173 -85.5 277t-237.5 104q-178 0 -360.5 -152t-350.5 -454z" />
    <glyph glyph-name="uniFEC0" unicode="&#x636;" horiz-adv-x="1982" arabic-form="medial" 
d="M1149 1085q-53 0 -75 42t0 84t75 42q50 0 70.5 -42t0 -84t-70.5 -42zM1737 117h245q41 0 41 -58q0 -59 -41 -59h-1411q-211 0 -276 139q-65 -139 -295 -139v117q117 0 171 66t54 208v293h123v-354q0 -158 131 -201q108 202 228 350.5t233 225.5q206 137 389 137
q207 0 321.5 -133.5t114.5 -360.5q0 -100 -28 -231zM606 117h998q36 107 36 225q0 173 -85.5 277t-237.5 104q-178 0 -360.5 -152t-350.5 -454z" />
    <glyph glyph-name="uniFEC2" unicode="&#x637;" horiz-adv-x="1826" arabic-form="final" 
d="M1579 117h248q41 0 41 -58q0 -59 -41 -59h-1733v117h232v1431h123v-1220q153 249 343 381.5t382 132.5q207 0 320.5 -134.5t113.5 -359.5q0 -109 -29 -231zM451 117h997q37 118 37 231q0 172 -85 273.5t-237 101.5q-176 0 -372 -158q-198 -160 -340 -448z" />
    <glyph glyph-name="uniFEC3" unicode="&#x637;" horiz-adv-x="1634" arabic-form="initial" 
d="M1065 842q207 0 320.5 -134.5t113.5 -359.5q0 -171 -61 -348h-1438v117h217v1431h123v-1220q153 249 343 381.5t382 132.5zM342 117h997q37 118 37 231q0 173 -84.5 274t-236.5 101q-177 0 -373 -158q-198 -160 -340 -448z" />
    <glyph glyph-name="uniFEC4" unicode="&#x637;" horiz-adv-x="1710" arabic-form="medial" 
d="M1470 117h240q41 0 41 -58q0 -59 -41 -59h-1710v117h217v1431h123v-1220q153 249 343 381.5t382 132.5q207 0 320.5 -134.5t113.5 -359.5q0 -109 -29 -231zM342 117h997q37 118 37 231q0 173 -84.5 274t-236.5 101q-177 0 -373 -158q-198 -160 -340 -448z" />
    <glyph glyph-name="uniFEC6" unicode="&#x638;" horiz-adv-x="1826" arabic-form="final" 
d="M1579 117h248q41 0 41 -58q0 -59 -41 -59h-1733v117h232v1431h123v-1220q153 249 343 381.5t382 132.5q207 0 320.5 -134.5t113.5 -359.5q0 -109 -29 -231zM1030 1085q-53 0 -75 42t0 84t75 42q50 0 70.5 -42t0 -84t-70.5 -42zM451 117h997q37 118 37 231
q0 172 -85 273.5t-237 101.5q-176 0 -372 -158q-198 -160 -340 -448z" />
    <glyph glyph-name="uniFEC7" unicode="&#x638;" horiz-adv-x="1634" arabic-form="initial" 
d="M1065 842q207 0 320.5 -134.5t113.5 -359.5q0 -171 -61 -348h-1438v117h217v1431h123v-1220q153 249 343 381.5t382 132.5zM922 1085q-53 0 -75 42t0 84t75 42q50 0 70.5 -42t0 -84t-70.5 -42zM342 117h997q37 118 37 231q0 173 -84.5 274t-236.5 101q-177 0 -373 -158
q-198 -160 -340 -448z" />
    <glyph glyph-name="uniFEC8" unicode="&#x638;" horiz-adv-x="1710" arabic-form="medial" 
d="M1470 117h240q41 0 41 -58q0 -59 -41 -59h-1710v117h217v1431h123v-1220q153 249 343 381.5t382 132.5q207 0 320.5 -134.5t113.5 -359.5q0 -109 -29 -231zM922 1085q-53 0 -75 42t0 84t75 42q50 0 70.5 -42t0 -84t-70.5 -42zM342 117h997q37 118 37 231q0 173 -84.5 274
t-236.5 101q-177 0 -373 -158q-198 -160 -340 -448z" />
    <glyph glyph-name="uniFECA" unicode="&#x639;" horiz-adv-x="1177" arabic-form="final" 
d="M991 117h187q41 0 41 -58q0 -59 -41 -59h-179q-289 0 -452 88q-340 -117 -340 -301q0 -199 285 -199q91 0 186 25l22 -113q-100 -32 -211 -32q-193 0 -300 81.5t-107 235.5q0 254 381 395q-84 123 -313 381q10 88 26 133q207 148 440 148q171 0 274 -78.5t103 -212.5
q0 -230 -295 -399q116 -35 293 -35zM256 623l-2 -11q127 -112 332 -387q132 62 206 142.5t74 164.5q0 86 -70.5 138.5t-193.5 52.5q-177 0 -346 -100z" />
    <glyph glyph-name="uniFECB" unicode="&#x639;" horiz-adv-x="983" arabic-form="initial" 
d="M434 117h479v-117h-913v117h289q-105 156 -105 319q0 186 121.5 296t339.5 110q105 0 223 -31l-24 -115q-108 27 -197 27q-158 0 -248 -78.5t-90 -210.5q0 -162 125 -317z" />
    <glyph glyph-name="uniFECC" unicode="&#x639;" horiz-adv-x="1191" arabic-form="medial" 
d="M1036 117h156q41 0 41 -58q0 -59 -41 -59h-145q-295 0 -478 86q-207 -86 -506 -86h-63v117h74q240 0 399 57q-50 75 -186 232q-11 12 -69 73.5t-71 75.5q10 79 29 137q204 148 442 148q171 0 272 -79.5t101 -215.5q0 -221 -282 -387q143 -41 327 -41zM256 614l-2 -14
q159 -134 338 -373q274 132 274 301q0 84 -73 137.5t-199 53.5q-168 0 -338 -105z" />
    <glyph glyph-name="uniFECE" unicode="&#x63a;" horiz-adv-x="1177" arabic-form="final" 
d="M614 1085q-53 0 -75 42t0 84t75 42q50 0 70.5 -42t0 -84t-70.5 -42zM991 117h187q41 0 41 -58q0 -59 -41 -59h-179q-289 0 -452 88q-340 -117 -340 -301q0 -199 285 -199q91 0 186 25l22 -113q-100 -32 -211 -32q-193 0 -300 81.5t-107 235.5q0 254 381 395
q-84 123 -313 381q10 88 26 133q207 148 440 148q171 0 274 -78.5t103 -212.5q0 -230 -295 -399q116 -35 293 -35zM256 623l-2 -11q127 -112 332 -387q132 62 206 142.5t74 164.5q0 86 -70.5 138.5t-193.5 52.5q-177 0 -346 -100z" />
    <glyph glyph-name="uniFECF" unicode="&#x63a;" horiz-adv-x="983" arabic-form="initial" 
d="M645 1085q-53 0 -75 42t0 84t75 42q50 0 70.5 -42t0 -84t-70.5 -42zM434 117h479v-117h-913v117h289q-105 156 -105 319q0 186 121.5 296t339.5 110q105 0 223 -31l-24 -115q-108 27 -197 27q-158 0 -248 -78.5t-90 -210.5q0 -162 125 -317z" />
    <glyph glyph-name="uniFED0" unicode="&#x63a;" horiz-adv-x="1191" arabic-form="medial" 
d="M606 1083q-53 0 -75 42t0 84t75 42q50 0 70.5 -42t0 -84t-70.5 -42zM1036 117h156q41 0 41 -58q0 -59 -41 -59h-145q-295 0 -478 86q-207 -86 -506 -86h-63v117h74q240 0 399 57q-50 75 -186 232q-11 12 -69 73.5t-71 75.5q10 79 29 137q204 148 442 148q171 0 272 -79.5
t101 -215.5q0 -221 -282 -387q143 -41 327 -41zM256 614l-2 -14q159 -134 338 -373q274 132 274 301q0 84 -73 137.5t-199 53.5q-168 0 -338 -105z" />
    <glyph glyph-name="uniFED2" unicode="&#x641;" horiz-adv-x="2201" arabic-form="final" 
d="M1612 1085q-53 0 -75 42t0 84t75 42q50 0 70.5 -42t0 -84t-70.5 -42zM1962 117h240q41 0 41 -58q0 -59 -41 -59h-230q-213 0 -364 43q-151 -43 -375 -43h-668q-222 0 -346.5 102t-124.5 283q0 137 66 320l114 -31q-55 -177 -55 -268q0 -289 363 -289h657q127 0 182 14
q-99 58 -157 150t-58 200q0 157 113 258q115 103 293 103t286.5 -100t108.5 -261q0 -226 -217 -352q76 -12 172 -12zM1333 481q0 -109 77 -194t198 -123q110 34 192 119q80 86 80 200q0 109 -74 174.5t-196 65.5q-121 0 -199 -68t-78 -174z" />
    <glyph glyph-name="uniFED3" unicode="&#x641;" horiz-adv-x="1130" arabic-form="initial" 
d="M612 1085q-53 0 -75 42t0 84t75 42q50 0 70.5 -42t0 -84t-70.5 -42zM612 842q185 0 284 -119.5t99 -319.5q0 -171 -90 -403h-905v117h297q-115 121 -115 299q0 186 121 307q119 119 309 119zM438 117h381q49 154 49 280q0 154 -69 240t-197 86q-133 0 -213 -85.5
t-80 -223.5q0 -162 129 -297z" />
    <glyph glyph-name="uniFED4" unicode="&#x641;" horiz-adv-x="1177" arabic-form="medial" 
d="M588 1085q-53 0 -75 42t0 84t75 42q50 0 70.5 -42t0 -84t-70.5 -42zM938 117h240q41 0 41 -58q0 -59 -41 -59h-230q-213 0 -364 43q-151 -43 -375 -43h-209v117h215q127 0 182 14q-99 58 -157 150t-58 200q0 157 113 258q115 103 293 103t286.5 -100t108.5 -261
q0 -226 -217 -352q76 -12 172 -12zM309 481q0 -109 77 -194t198 -123q110 34 192 119q80 86 80 200q0 109 -74 174.5t-196 65.5q-121 0 -199 -68t-78 -174z" />
    <glyph glyph-name="uniFED6" unicode="&#x642;" horiz-adv-x="1689" arabic-form="final" 
d="M944 1085q-36 0 -60 24t-24 60t24 60t60 24q51 5 72.5 -39.5t0 -89t-72.5 -39.5zM1217 1085q-53 -5 -75.5 39.5t0 89t75.5 39.5q50 5 71 -39.5t0 -89t-71 -39.5zM1450 117h240q41 0 41 -58q0 -59 -41 -59h-246q-29 -182 -184 -259t-469 -77q-697 0 -697 475q0 121 47 267
l115 -31q-37 -112 -37 -219q0 -187 139.5 -279t432.5 -92q495 0 530 215h-166q-477 0 -477 412q0 177 108 303q109 127 297 127q169 0 268 -107t99 -297v-321zM1171 117h156v295q0 150 -65 230.5t-189 80.5q-122 0 -195 -83.5t-73 -225.5q0 -156 89.5 -226.5t276.5 -70.5z
" />
    <glyph glyph-name="uniFED7" unicode="&#x642;" horiz-adv-x="1130" arabic-form="initial" 
d="M473 1085q-36 0 -60 24t-24 60t24 60t60 24q51 5 72.5 -39.5t0 -89t-72.5 -39.5zM745 1085q-53 -5 -75.5 39.5t0 89t75.5 39.5q50 5 71 -39.5t0 -89t-71 -39.5zM612 842q185 0 284 -119.5t99 -319.5q0 -171 -90 -403h-905v117h297q-115 121 -115 299q0 186 121 307
q119 119 309 119zM438 117h381q49 154 49 280q0 154 -69 240t-197 86q-133 0 -213 -85.5t-80 -223.5q0 -162 129 -297z" />
    <glyph glyph-name="uniFED8" unicode="&#x642;" horiz-adv-x="1177" arabic-form="medial" 
d="M449 1085q-36 0 -60 24t-24 60t24 60t60 24q51 5 72.5 -39.5t0 -89t-72.5 -39.5zM721 1085q-53 -5 -75.5 39.5t0 89t75.5 39.5q50 5 71 -39.5t0 -89t-71 -39.5zM938 117h240q41 0 41 -58q0 -59 -41 -59h-230q-213 0 -364 43q-151 -43 -375 -43h-209v117h215q127 0 182 14
q-99 58 -157 150t-58 200q0 157 113 258q115 103 293 103t286.5 -100t108.5 -261q0 -226 -217 -352q76 -12 172 -12zM309 481q0 -109 77 -194t198 -123q110 34 192 119q80 86 80 200q0 109 -74 174.5t-196 65.5q-121 0 -199 -68t-78 -174z" />
    <glyph glyph-name="uniFEDA" unicode="&#x643;" horiz-adv-x="1804" arabic-form="final" 
d="M1804 117q41 0 41 -58q0 -59 -41 -59q-239 0 -323 152q-90 -152 -332 -152h-584q-222 0 -346.5 102t-124.5 283q0 137 66 320l114 -31q-55 -177 -55 -268q0 -289 363 -289h567q140 0 197 65t57 221v1145h123v-1171q0 -260 278 -260zM840 731h194v-80h-399v80h113
q-39 56 -39 125q0 81 56.5 134.5t147.5 53.5q43 0 99 -16l-17 -78q-43 15 -80 15q-57 0 -90.5 -30t-33.5 -85q0 -67 49 -119z" />
    <glyph glyph-name="uniFEDB" unicode="&#x643;" horiz-adv-x="954" arabic-form="initial" 
d="M737 1434l-536 -519q349 -115 483 -286q135 -176 135 -439v-190h-819v117h700v94q0 232 -139 377q-139 139 -485 248v122l579 560z" />
    <glyph glyph-name="uniFEDC" unicode="&#x643;" horiz-adv-x="1081" arabic-form="medial" 
d="M819 117h262q41 0 41 -58q0 -59 -41 -59h-1081v117h700v94q0 232 -139 377q-139 139 -485 248v122l579 560l82 -84l-536 -519q349 -115 483 -286q135 -176 135 -439v-73z" />
    <glyph glyph-name="uniFEDE" unicode="&#x644;" horiz-adv-x="1396" arabic-form="final" 
d="M1163 117h234q41 0 41 -58q0 -59 -41 -59h-252q-47 -160 -185 -248t-342 -88q-242 0 -383 124.5t-141 338.5q0 159 84 362l109 -38q-68 -195 -68 -312q0 -175 105 -264.5t303 -89.5q415 0 415 405v1358h123v-1388q0 -33 -2 -43z" />
    <glyph glyph-name="uniFEDF" unicode="&#x644;" horiz-adv-x="542" arabic-form="initial" 
d="M0 0v117q140 0 197 65t57 221v1145h123v-1194q0 -354 -377 -354z" />
    <glyph glyph-name="uniFEE0" unicode="&#x644;" horiz-adv-x="655" arabic-form="medial" 
d="M655 117q41 0 41 -58q0 -59 -41 -59q-239 0 -323 152q-90 -152 -332 -152v117q140 0 197 65t57 221v1145h123v-1171q0 -260 278 -260z" />
    <glyph glyph-name="uniFEE2" unicode="&#x645;" horiz-adv-x="1419" arabic-form="final" 
d="M1202 117h217q41 0 41 -58q0 -59 -41 -59h-309q-122 -98 -340 -98h-108q-60 46 -101 98h-164q-194 0 -194 -203v-329h-121v329q0 152 82 236t231 84h94q-49 107 -49 221q0 180 121 301q120 117 301 117q193 0 291 -119q96 -122 96 -295q0 -125 -47 -225zM696 18h101
q162 0 245.5 89.5t83.5 242.5q0 132 -73 210.5t-199 78.5q-130 0 -210.5 -83.5t-80.5 -221.5q0 -189 133 -316z" />
    <glyph glyph-name="uniFEE3" unicode="&#x645;" horiz-adv-x="1118" arabic-form="initial" 
d="M604 842q183 0 287 -119q102 -120 102 -307q0 -191 -115.5 -303.5t-336.5 -112.5h-541v117h287q-103 139 -103 299q0 188 119 307q116 119 301 119zM430 117h121q154 0 235.5 81t81.5 220t-75.5 222t-200.5 83q-126 0 -204.5 -83t-78.5 -222q0 -153 121 -301z" />
    <glyph glyph-name="uniFEE4" unicode="&#x645;" horiz-adv-x="1163" arabic-form="medial" 
d="M944 117h219q41 0 41 -58q0 -59 -41 -59h-315q-125 -98 -334 -98h-108q-60 46 -101 98h-305v117h233q-49 107 -49 221q0 180 121 301q120 117 301 117q193 0 291 -119q96 -122 96 -295q0 -127 -49 -225zM440 18h101q162 0 245.5 89.5t83.5 242.5q0 132 -73 210.5
t-199 78.5q-130 0 -210.5 -83.5t-80.5 -221.5q0 -189 133 -316z" />
    <glyph glyph-name="uniFEE6" unicode="&#x646;" horiz-adv-x="1425" arabic-form="final" 
d="M649 844q-53 0 -75 42t0 84t75 42q50 0 70.5 -42t0 -84t-70.5 -42zM1165 117h260q41 0 41 -58q0 -59 -41 -59h-278q-42 -164 -177.5 -250t-344.5 -86q-250 0 -390.5 125.5t-140.5 337.5q0 159 84 362l109 -38q-68 -171 -68 -310q0 -176 106 -266t304 -90q413 0 413 399
v488h123v-518v-37z" />
    <glyph glyph-name="uniFEE7" unicode="&#x646;" horiz-adv-x="509" arabic-form="initial" 
d="M326 1065q-53 0 -75 42t0 84t75 42q50 0 70.5 -42t0 -84t-70.5 -42zM0 0v117q140 0 201 66t61 220v418h123v-436q0 -199 -95.5 -292t-289.5 -93z" />
    <glyph glyph-name="uniFEE8" unicode="&#x646;" horiz-adv-x="663" arabic-form="medial" 
d="M326 1065q-53 0 -75 42t0 84t75 42q50 0 70.5 -42t0 -84t-70.5 -42zM664 117q41 0 41 -58q0 -59 -41 -59q-246 0 -328 156q-86 -156 -336 -156v117q140 0 201 66t61 220v418h123v-436v-8q0 -260 279 -260z" />
    <glyph glyph-name="uniFEE9" unicode="&#x647;" horiz-adv-x="1034" arabic-form="isolated" 
d="M496 -10q-195 0 -304.5 111t-109.5 294q0 189 111 318q108 129 303 129q194 0 305 -129q108 -132 108 -318q0 -184 -111 -294.5t-302 -110.5zM500 111q136 0 210 73.5t74 214.5q0 149 -75.5 236.5t-212.5 87.5q-138 0 -213.5 -87.5t-75.5 -236.5q0 -143 76.5 -215.5
t216.5 -72.5z" />
    <glyph glyph-name="uniFEEA" unicode="&#x647;" horiz-adv-x="1124" arabic-form="final" 
d="M1124 117q41 0 41 -58q0 -59 -41 -59q-288 0 -344 117q-145 -68 -286 -68q-192 0 -302 95t-110 264q0 190 125 301.5t344 111.5h326v-512q0 -111 53 -151.5t194 -40.5zM750 229v476h-222q-150 0 -235.5 -74t-85.5 -211q0 -122 77 -186t220 -64q140 0 246 59z" />
    <glyph glyph-name="uniFEEB" unicode="&#x647;" horiz-adv-x="1267" arabic-form="initial" 
d="M158 758l18 108q187 -15 334.5 -44t270 -79.5t203.5 -121t125 -170t44 -224.5q0 -101 -29 -227h-350q-167 0 -297 47q-121 -47 -299 -47h-178v117h178q78 0 156 16q-69 51 -110.5 132.5t-41.5 176.5q0 97 46.5 177.5t125.5 121.5q-51 7 -196 17zM295 446
q0 -95 48.5 -168.5t129.5 -113.5q92 37 148.5 111t56.5 174q0 103 -54 168t-137 65q-84 0 -138 -67.5t-54 -168.5zM750 117h276q12 59 12 123q0 289 -311 415q64 -88 64 -206q0 -97 -48.5 -183t-126.5 -137q70 -12 134 -12z" />
    <glyph glyph-name="uniFEEC" unicode="&#x647;" horiz-adv-x="1036" arabic-form="medial" 
d="M768 117h268q41 0 41 -58q0 -59 -41 -59h-178q53 -103 53 -186q0 -139 -99 -222.5t-265 -83.5q-183 0 -275 95.5t-92 277.5v119h-180v117h180v270q0 211 94.5 330t274.5 119q166 0 258 -109q90 -113 90 -272q0 -215 -129 -338zM303 401v-284h186q128 0 206.5 91.5
t78.5 235.5q0 122 -64.5 196.5t-172.5 74.5q-111 0 -172.5 -81t-61.5 -233zM555 -371q113 0 171 51t58 144q0 87 -59 176h-422v-109q0 -134 61.5 -198t190.5 -64z" />
    <glyph glyph-name="uniFEEE" unicode="&#x648;" horiz-adv-x="1091" arabic-form="final" 
d="M885 117h207q41 0 41 -58q0 -59 -41 -59h-211q-47 -354 -557 -354q-57 0 -84 2l-7 112q498 -27 525 240h-158q-242 0 -364.5 106t-122.5 302q0 185 112 309q112 127 289 127q171 0 271 -104.5t100 -286.5v-336zM238 422q0 -156 91 -230.5t285 -74.5h148v295
q0 149 -65.5 231t-186.5 82q-118 0 -195 -84.5t-77 -218.5z" />
    <glyph glyph-name="uniFEF0" unicode="&#x649;" horiz-adv-x="1564" arabic-form="final" 
d="M1337 117h228q41 0 41 -58q0 -59 -41 -59h-201q90 -59 90 -170q0 -150 -190 -258q-189 -104 -502 -104q-333 0 -500.5 119t-167.5 345q0 116 47 265l115 -31q-37 -133 -37 -219q0 -182 133 -270.5t418 -88.5q259 0 408 70q151 71 151 178q0 136 -262 201l-236 59l31 105
l277 -66q77 -18 198 -18z" />
    <glyph glyph-name="uniFEF2" unicode="&#x64a;" horiz-adv-x="1564" arabic-form="final" 
d="M1337 117h228q41 0 41 -58q0 -59 -41 -59h-201q90 -59 90 -170q0 -150 -190 -258q-189 -104 -502 -104q-333 0 -500.5 119t-167.5 345q0 116 47 265l115 -31q-37 -133 -37 -219q0 -182 133 -270.5t418 -88.5q259 0 408 70q151 71 151 178q0 136 -262 201l-236 59l31 105
l277 -66q77 -18 198 -18zM618 -717q51 5 72.5 -39.5t0 -89t-72.5 -39.5q-36 0 -59.5 23.5t-23.5 60.5t23.5 60.5t59.5 23.5zM891 -717q50 5 71 -39.5t0 -89t-71 -39.5q-53 -5 -75.5 39.5t0 89t75.5 39.5z" />
    <glyph glyph-name="uniFEF3" unicode="&#x64a;" horiz-adv-x="571" arabic-form="initial" 
d="M8 0h-8v117h12q131 0 190.5 67.5t59.5 218.5v418h123v-436q0 -385 -377 -385zM102 -352q-36 0 -60 24t-24 60t24 60t60 24q51 5 72.5 -39.5t0 -89t-72.5 -39.5zM375 -352q-53 -5 -75.5 39.5t0 89t75.5 39.5q50 5 71 -39.5t0 -89t-71 -39.5z" />
    <glyph glyph-name="uniFEF4" unicode="&#x64a;" horiz-adv-x="663" arabic-form="medial" 
d="M664 117q41 0 41 -58q0 -59 -41 -59q-246 0 -328 156q-86 -156 -328 -156h-8v117h12q131 0 190.5 67.5t59.5 218.5v418h123v-436v-8q0 -260 279 -260zM162 -184q51 5 72.5 -39.5t0 -89t-72.5 -39.5q-36 0 -60 24t-24 60t24 60t60 24zM434 -184q50 5 71 -39.5t0 -89
t-71 -39.5q-53 -5 -75.5 39.5t0 89t75.5 39.5z" />
    <glyph glyph-name=".notdef" horiz-adv-x="1048" 
d="M0 1470h1049v-1470h-1049v1470zM102 102h844v1264h-844v-1264zM530 1247q113 0 183.5 -73.5t70.5 -194.5q0 -73 -29 -128.5t-100 -117.5q-69 -62 -84 -94q-16 -32 -16 -160h-94q-4 28 -4 47q0 92 24 148q21 52 94 125q4 4 24 22.5t24 22.5q23 23 34 45q23 53 23 82
q0 73 -46 123.5t-110 50.5q-144 0 -168 -195l-102 17q12 135 83.5 207.5t192.5 72.5zM455 240v137h114v-137h-114z" />
    <glyph glyph-name=".null" 
 />
    <glyph glyph-name="nonmarkingreturn" horiz-adv-x="681" 
 />
    <glyph glyph-name="NULL" 
 />
    <glyph glyph-name="NULL" 
 />
    <glyph glyph-name="CR" unicode="&#xd;" horiz-adv-x="532" 
 />
    <glyph glyph-name="space" unicode=" " horiz-adv-x="532" 
 />
    <glyph glyph-name="exclam" unicode="!" horiz-adv-x="757" 
d="M317 381v1069h123v-1069h-123zM309 156q29 29 70 29t70 -29t29 -70t-29 -70t-70 -29t-70 29t-29 70t29 70z" />
    <glyph glyph-name="quotedbl" unicode="&#x22;" horiz-adv-x="1064" 
d="M330 983v467h123v-467h-123zM612 983v467h123v-467h-123z" />
    <glyph glyph-name="numbersign" unicode="#" horiz-adv-x="1064" 
d="M322 985l61 465h106l-63 -465h285l63 465h107l-64 -465h221v-98h-233l-45 -320h221v-98h-236l-61 -469h-106l61 469h-285l-61 -469h-107l62 469h-221v98h235l45 320h-221v98h236zM414 887l-43 -320h282l43 320h-282z" />
    <glyph glyph-name="dollar" unicode="$" horiz-adv-x="1064" 
d="M477 1475v137h98v-137q249 0 379 -183l-112 -82q-100 151 -267 154v-578l115 -38q291 -98 291 -377q0 -159 -113 -269q-112 -112 -293 -127v-137h-98v137q-122 0 -231.5 58t-177.5 157l116 80q108 -175 293 -184v594l-145 53q-112 43 -174 134t-62 210q0 152 111 266
t270 132zM299 1266q-68 -77 -68 -181q0 -102 58 -163q57 -63 188 -103v545q-113 -21 -178 -98zM575 643v-557q118 6 194.5 88.5t76.5 204.5q0 162 -189 233z" />
    <glyph glyph-name="percent" unicode="%" horiz-adv-x="1669" 
d="M324 -12l933 1532l95 -58l-936 -1532zM430 1475q144 0 250 -103q102 -102 102 -250t-102 -250q-105 -102 -250 -102q-147 0 -248 104q-104 101 -104 248q0 144 104 248q105 105 248 105zM260 1294q-72 -72 -72 -172q0 -98 72 -170q71 -71 170 -71q101 0 171.5 69.5
t70.5 171.5q0 100 -71 171t-173 71q-98 0 -168 -70zM991 575q102 105 248 105q145 0 250 -102q102 -102 102 -250t-102 -250q-106 -103 -250 -103q-146 0 -248 105q-104 101 -104 248q0 143 104 247zM1069 500q-72 -72 -72 -172q0 -98 72 -170t170 -72q100 0 171 70t71 172
q0 100 -71 170.5t-173 70.5q-99 0 -168 -69z" />
    <glyph glyph-name="ampersand" unicode="&#x26;" horiz-adv-x="1441" 
d="M969 1180q0 -129 -76 -211q-74 -80 -248 -174l352 -373l209 377h140l-263 -463l330 -346h-182l-217 233q-103 -136 -210 -198t-241 -62q-190 0 -315 119q-127 118 -127 303q0 127 69 219q67 93 263 209q-78 95 -93 117q-31 44 -53 100q-31 67 -31 127q0 147 105 238
q103 92 260 92q137 0 231 -88q97 -91 97 -219zM567 879q138 67 202.5 132.5t64.5 157.5q0 85 -57.5 140t-147.5 55q-89 0 -153 -59t-64 -146q0 -106 155 -280zM584 86q199 0 348 223l-402 418q-142 -79 -208 -159.5t-66 -178.5q0 -135 94 -217q92 -86 234 -86z" />
    <glyph glyph-name="quotesingle" unicode="'" horiz-adv-x="532" 
d="M205 983v467h123v-467h-123z" />
    <glyph glyph-name="parenleft" unicode="(" horiz-adv-x="532" 
d="M403 1499l105 -65q-125 -155 -197 -390q-69 -226 -69 -454q0 -227 64 -426.5t202 -421.5l-96 -61q-140 190 -215 432q-78 248 -78 477q0 240 76 481q73 240 208 428z" />
    <glyph glyph-name="parenright" unicode=")" horiz-adv-x="532" 
d="M25 1438l96 61q139 -190 216 -430t77 -479q0 -234 -74 -479q-75 -241 -211 -430l-104 65q125 154 196 391q70 229 70 453q0 225 -64.5 426t-201.5 422z" />
    <glyph glyph-name="asterisk" unicode="*" horiz-adv-x="909" 
d="M408 1139v311h98v-311l295 98l30 -98l-294 -97l186 -249l-76 -60l-192 256l-183 -256l-82 60l187 249l-299 103l28 92z" />
    <glyph glyph-name="plus" unicode="+" horiz-adv-x="1363" 
d="M633 670v473h98v-473h473v-99h-473v-473h-98v473h-473v99h473z" />
    <glyph glyph-name="comma" unicode="," horiz-adv-x="532" 
d="M238 184h143l-158 -467h-121z" />
    <glyph glyph-name="hyphen" unicode="-" horiz-adv-x="681" 
d="M88 541h506v-111h-506v111z" />
    <glyph glyph-name="period" unicode="." horiz-adv-x="532" 
d="M197 156q29 29 69.5 29t69.5 -29t29 -70t-29 -70t-69.5 -29t-69.5 29t-29 70t29 70z" />
    <glyph glyph-name="slash" unicode="/" horiz-adv-x="757" 
d="M18 -37l623 1561l107 -37l-621 -1561z" />
    <glyph glyph-name="zero" unicode="0" horiz-adv-x="1064" 
d="M176 1282q120 193 356 193t359 -191q121 -195 121 -559q0 -365 -121 -557q-123 -193 -359 -193t-356 193q-123 194 -123 557t123 557zM276 1200q-88 -166 -88 -475q0 -310 88 -473q88 -166 256 -166q170 0 257.5 163t87.5 476q0 311 -88 475t-259 164q-165 0 -254 -164z
" />
    <glyph glyph-name="one" unicode="1" horiz-adv-x="1064" 
d="M195 1157l358 293h104v-1450h-122v1280l-265 -217z" />
    <glyph glyph-name="two" unicode="2" horiz-adv-x="1064" 
d="M553 1475q178 0 299 -103q119 -104 119 -268q0 -162 -90 -289q-50 -69 -72 -94q-26 -29 -74 -80l-516 -530h762v-111h-897v143l608 643q144 150 144 308q0 121 -80.5 195.5t-208.5 74.5q-109 0 -187 -63t-104 -175l-143 15q35 160 150.5 247t289.5 87z" />
    <glyph glyph-name="three" unicode="3" horiz-adv-x="1064" 
d="M526 1475q183 0 293.5 -102t110.5 -269q0 -125 -70 -217t-188 -121v-4q137 -24 223 -129q86 -106 86 -242q0 -190 -121.5 -303t-327.5 -113q-337 0 -448 285l133 43q82 -217 305 -217q150 0 237 86.5t87 228.5q0 138 -106.5 218.5t-293.5 80.5h-36v123h43q164 0 253 73
t89 202q0 116 -76 191t-193 75q-88 0 -160.5 -45t-113.5 -125l-117 66q114 215 391 215z" />
    <glyph glyph-name="four" unicode="4" horiz-adv-x="1064" 
d="M627 1450h170v-983h221v-111h-221v-356h-123v356h-627v146zM670 1315l-512 -848h516v848h-4z" />
    <glyph glyph-name="five" unicode="5" horiz-adv-x="1064" 
d="M207 1450h717v-111h-598l-7 -460q84 41 211 41q198 0 326 -140q125 -137 125 -340q0 -200 -131 -331q-134 -134 -334 -134q-303 0 -432 246l127 64q38 -86 125 -142.5t178 -56.5q137 0 236 102q96 104 96 244q0 155 -105 266t-260 111q-149 0 -286 -98z" />
    <glyph glyph-name="six" unicode="6" horiz-adv-x="1064" 
d="M584 1450h155l-395 -639h4q30 26 93.5 43.5t121.5 17.5q189 0 318 -129q127 -130 127 -317q0 -194 -134 -322q-135 -129 -342 -129q-203 0 -339 127t-136 324q0 67 21 139.5t49 122.5q28 52 76 129zM193 426q0 -150 94 -245t245 -95q152 0 246 95t94 245q0 141 -98 242
q-101 98 -244 98q-136 0 -237 -98q-100 -100 -100 -242z" />
    <glyph glyph-name="seven" unicode="7" horiz-adv-x="1064" 
d="M84 1450h823v-111l-577 -1339h-137l587 1339h-696v111z" />
    <glyph glyph-name="eight" unicode="8" horiz-adv-x="1064" 
d="M248 1368q113 107 284 107q172 0 285 -107t113 -268q0 -107 -64 -201q-66 -96 -172 -123q130 -26 208.5 -128t78.5 -245q0 -191 -127 -309q-125 -119 -322 -119q-196 0 -321 119q-127 121 -127 309q0 142 77.5 244.5t207.5 128.5q-103 29 -168 125q-66 97 -66 199
q0 161 113 268zM270 1098q0 -113 75 -190t187 -77t187.5 77t75.5 190q0 117 -74.5 191.5t-190.5 74.5q-113 0 -186.5 -75.5t-73.5 -190.5zM309 631q-90 -90 -90 -228q0 -139 88 -227q90 -90 225 -90q136 0 226 90q88 88 88 227q0 140 -88 228q-90 90 -228 90
q-131 0 -221 -90z" />
    <glyph glyph-name="nine" unicode="9" horiz-adv-x="1064" 
d="M193 1348q136 127 339 127q204 0 340 -127q136 -130 136 -324q0 -66 -20.5 -136.5t-47.5 -117.5q-19 -40 -74 -129l-385 -641h-155l395 639h-4q-70 -61 -215 -61q-192 0 -318 129q-127 127 -127 317q0 197 136 324zM193 1024q0 -140 100 -240q97 -100 239 -100t242 100
q98 98 98 240q0 150 -95 245t-247 95q-147 0 -243 -96q-94 -94 -94 -244z" />
    <glyph glyph-name="colon" unicode=":" horiz-adv-x="532" 
d="M197 930q29 29 69.5 29t69.5 -29t29 -69.5t-29 -69.5t-69.5 -29t-69.5 29t-29 69.5t29 69.5zM197 156q29 29 69.5 29t69.5 -29t29 -70t-29 -70t-69.5 -29t-69.5 29t-29 70t29 70z" />
    <glyph glyph-name="semicolon" unicode=";" horiz-adv-x="532" 
d="M197 930q29 29 69.5 29t69.5 -29t29 -69.5t-29 -69.5t-69.5 -29t-69.5 29t-29 69.5t29 69.5zM238 184h143l-158 -467h-121z" />
    <glyph glyph-name="less" unicode="&#x3c;" horiz-adv-x="1363" 
d="M168 670l1028 479v-102l-917 -426l917 -426v-103l-1028 479v99z" />
    <glyph glyph-name="equal" unicode="=" horiz-adv-x="1363" 
d="M160 817h1044v-98h-1044v98zM160 522h1044v-98h-1044v98z" />
    <glyph glyph-name="greater" unicode="&#x3e;" horiz-adv-x="1363" 
d="M168 1047v102l1028 -479v-99l-1028 -479v103l917 426z" />
    <glyph glyph-name="question" unicode="?" horiz-adv-x="948" 
d="M496 1487q170 0 273 -96t103 -256q0 -104 -41.5 -183.5t-130.5 -154.5q-159 -138 -159 -279v-137h-123v176q0 140 160 285q159 144 159 286q0 111 -65.5 179.5t-173.5 68.5q-103 0 -174.5 -62.5t-94.5 -174.5l-133 16q29 154 137 243t263 89zM412 156q29 29 69.5 29
t69.5 -29t29 -70t-29 -70t-69.5 -29t-69.5 29t-29 70t29 70z" />
    <glyph glyph-name="at" unicode="@" horiz-adv-x="1638" 
d="M848 1487q287 0 493 -170q207 -174 207 -445q0 -249 -151 -426q-150 -178 -328 -178q-58 0 -92.5 36.5t-34.5 101.5h-4q-114 -138 -264 -138q-128 0 -202.5 83t-74.5 218q-4 106 31.5 213t98.5 192t156.5 137.5t197.5 51.5q164 0 217 -170h4l49 131h123l-203 -604
q-18 -71 -18 -88q0 -53 53 -53q115 0 223 170q109 171 109 323q0 225 -174 371q-178 146 -412 146q-273 0 -461 -197q-190 -196 -190 -465q0 -271 190 -467q190 -199 465 -199q148 0 293 74q144 74 227 197h119q-91 -169 -268 -269q-175 -100 -371 -100q-329 0 -547 221
q-219 219 -219 543q0 313 221 539q218 221 537 221zM520 573q0 -87 47 -140.5t125 -53.5q135 0 242 162q104 162 104 305q0 207 -168 207q-72 1 -140 -47t-114 -120.5t-72.5 -157t-23.5 -155.5z" />
    <glyph glyph-name="A" unicode="A" horiz-adv-x="1402" 
d="M643 1450h139l611 -1450h-152l-158 385h-768l-163 -385h-142zM707 1303l-338 -795h665z" />
    <glyph glyph-name="B" unicode="B" horiz-adv-x="1290" 
d="M199 1450h428q456 0 456 -383q0 -116 -69 -196t-191 -105v-4q146 -7 235 -107t89 -249q0 -193 -128.5 -299.5t-352.5 -106.5h-467v1450zM334 823h289q150 0 237.5 64.5t87.5 179.5q0 260 -307 260h-307v-504zM334 123h319q170 0 264.5 73.5t94.5 204.5q0 140 -94.5 219.5
t-249.5 79.5h-334v-577z" />
    <glyph glyph-name="C" unicode="C" horiz-adv-x="1441" 
d="M854 1487q322 0 500 -227l-111 -93q-62 93 -164.5 145t-224.5 52q-276 0 -444 -180q-170 -182 -170 -459q0 -275 170 -457t444 -182q129 0 247.5 61.5t180.5 163.5l111 -84q-193 -264 -539 -264q-333 0 -541 217q-209 215 -209 545q0 335 211 549q210 213 539 213z" />
    <glyph glyph-name="D" unicode="D" horiz-adv-x="1517" 
d="M180 1450h453q368 0 573 -199q207 -201 207 -536q0 -148 -59 -293t-183 -254q-88 -77 -226 -122.5t-304 -45.5h-461v1450zM315 123h289q308 0 492 156q182 156 182 436q0 293 -181 452.5t-499 159.5h-283v-1204z" />
    <glyph glyph-name="E" unicode="E" horiz-adv-x="1214" 
d="M199 1450h886v-123h-751v-516h704v-123h-704v-565h784v-123h-919v1450z" />
    <glyph glyph-name="F" unicode="F" horiz-adv-x="1138" 
d="M199 1450h868v-123h-733v-516h682v-123h-682v-688h-135v1450z" />
    <glyph glyph-name="G" unicode="G" horiz-adv-x="1593" 
d="M854 1487q321 0 522 -201l-98 -102q-66 81 -188 131q-119 49 -236 49q-276 0 -444 -180q-170 -182 -170 -459t170 -459q168 -180 446 -180q259 0 404 86v487h-349v123h484v-688q-229 -131 -541 -131q-333 0 -541 217q-209 215 -209 545t211 547q209 215 539 215z" />
    <glyph glyph-name="H" unicode="H" horiz-adv-x="1478" 
d="M199 1450h135v-639h811v639h135v-1450h-135v688h-811v-688h-135v1450z" />
    <glyph glyph-name="I" unicode="I" horiz-adv-x="532" 
d="M199 1450h135v-1450h-135v1450z" />
    <glyph glyph-name="J" unicode="J" horiz-adv-x="987" 
d="M653 1450h135v-1038q0 -230 -98.5 -339.5t-298.5 -109.5q-149 0 -247 77.5t-130 219.5l136 25q49 -199 241 -199q129 0 195.5 78.5t66.5 220.5v1065z" />
    <glyph glyph-name="K" unicode="K" horiz-adv-x="1251" 
d="M199 1450h135v-639h12l703 639h186l-733 -664l774 -786h-195l-735 750h-12v-750h-135v1450z" />
    <glyph glyph-name="L" unicode="L" horiz-adv-x="1024" 
d="M199 1450h135v-1327h676v-123h-811v1450z" />
    <glyph glyph-name="M" unicode="M" horiz-adv-x="1820" 
d="M184 1450h203l528 -1217l529 1217h192v-1450h-135v1278h-4l-553 -1278h-59l-561 1278h-5v-1278h-135v1450z" />
    <glyph glyph-name="N" unicode="N" horiz-adv-x="1593" 
d="M199 1450h174l882 -1270h5v1270h135v-1450h-174l-883 1270h-4v-1270h-135v1450z" />
    <glyph glyph-name="O" unicode="O" horiz-adv-x="1708" 
d="M854 1487q337 0 543 -215q207 -219 207 -547q0 -330 -209 -545q-211 -217 -541 -217q-331 0 -539 217q-211 214 -211 545q0 332 209 547t541 215zM240 725q0 -275 170 -457t444 -182t444 182t170 457q0 279 -168 459t-448 180q-276 0 -444 -180t-168 -459z" />
    <glyph glyph-name="P" unicode="P" horiz-adv-x="1175" 
d="M199 1450h413q222 0 346.5 -100.5t124.5 -282.5q0 -174 -120 -276q-121 -103 -308 -103h-321v-688h-135v1450zM334 811h313q137 0 219 67.5t82 188.5q0 120 -86.5 190t-220.5 70h-307v-516z" />
    <glyph glyph-name="Q" unicode="Q" horiz-adv-x="1708" 
d="M309 1278q206 209 531 209q324 0 530 -209q205 -211 205 -535q2 -120 -41.5 -246t-129 -229.5t-192.5 -140.5v-4h453v-123h-803q-320 0 -538 215q-220 214 -220 528q0 324 205 535zM240 743q0 -265 180 -442q178 -178 442 -178q259 0 418 178q160 180 160 442
q0 273 -164 449q-163 172 -438 172q-273 0 -435 -174q-163 -175 -163 -447z" />
    <glyph glyph-name="R" unicode="R" horiz-adv-x="1214" 
d="M199 1450h391q250 0 378 -97t128 -284q0 -324 -371 -373l422 -696h-154l-407 688h-252v-688h-135v1450zM334 811h297q154 0 242 69.5t88 188.5q0 120 -88 189t-246 69h-293v-516z" />
    <glyph glyph-name="S" unicode="S" horiz-adv-x="1138" 
d="M612 1487q252 0 396 -182l-117 -84q-104 143 -283 143q-147 0 -236 -75t-89 -199q0 -113 68.5 -180.5t234.5 -116.5q82 -24 123 -39t102 -39q60 -26 94 -53q135 -110 125 -291q0 -176 -127 -291q-126 -117 -323 -117q-314 0 -471 219l129 86q108 -182 331 -182
q141 0 233.5 80.5t92.5 204.5q0 126 -80 182q-80 54 -313 131q-7 2 -18 5.5t-15 4.5q-167 56 -244.5 150.5t-77.5 245.5q0 177 132 288q133 109 333 109z" />
    <glyph glyph-name="T" unicode="T" horiz-adv-x="1175" 
d="M25 1450h1126v-123h-496v-1327h-135v1327h-495v123z" />
    <glyph glyph-name="U" unicode="U" horiz-adv-x="1400" 
d="M172 1450h135v-870q0 -240 99.5 -367t293.5 -127q195 0 294.5 131t99.5 383v850h135v-885q0 -287 -136.5 -444.5t-392.5 -157.5t-392 155.5t-136 436.5v895z" />
    <glyph glyph-name="V" unicode="V" horiz-adv-x="1214" 
d="M-6 1450h145l467 -1272l471 1272h144l-551 -1450h-135z" />
    <glyph glyph-name="W" unicode="W" horiz-adv-x="1933" 
d="M10 1450h140l360 -1284h4l367 1284h172l366 -1284h4l361 1284h139l-422 -1448l-2 -2h-164l-366 1290h-4l-367 -1290h-166z" />
    <glyph glyph-name="X" unicode="X" horiz-adv-x="1251" 
d="M51 1450h160l418 -590l411 590h162l-491 -688l538 -762h-168l-458 655l-459 -655h-162l545 762z" />
    <glyph glyph-name="Y" unicode="Y" horiz-adv-x="1175" 
d="M-12 1450h162l438 -688l448 688h152l-533 -825v-625h-135v625z" />
    <glyph glyph-name="Z" unicode="Z" horiz-adv-x="1138" 
d="M59 1450h1010v-111l-854 -1216h877v-123h-1045v106l848 1221h-836v123z" />
    <glyph glyph-name="bracketleft" unicode="[" horiz-adv-x="532" 
d="M152 1499h307v-98h-185v-1622h185v-98h-307v1818z" />
    <glyph glyph-name="backslash" unicode="\" horiz-adv-x="757" 
d="M10 1487l107 37l622 -1561l-108 -37z" />
    <glyph glyph-name="bracketright" unicode="]" horiz-adv-x="532" 
d="M74 1499h307v-1818h-307v98h184v1622h-184v98z" />
    <glyph glyph-name="asciicircum" unicode="^" horiz-adv-x="1363" 
d="M168 524l467 926h94l467 -926h-115l-399 815l-397 -815h-117z" />
    <glyph glyph-name="underscore" unicode="_" horiz-adv-x="1024" 
d="M0 -154h1024v-102h-1024v102z" />
    <glyph glyph-name="grave" unicode="`" horiz-adv-x="491" 
d="M-12 1450h164l213 -295h-103z" />
    <glyph glyph-name="a" unicode="a" horiz-adv-x="1062" 
d="M522 971q183 0 280 -86.5t97 -247.5v-281q0 -223 19 -356h-115q-12 64 -12 154h-5q-105 -179 -329 -179q-154 0 -245 76t-91 205q0 157 133 237t383 80h151v56q0 114 -69.5 172.5t-196.5 58.5q-165 0 -289 -106l-71 84q65 62 163 97.5t197 35.5zM244 262q0 -78 61.5 -127
t155.5 -49q159 0 243 85t84 239v65h-147q-180 0 -288.5 -54t-108.5 -159z" />
    <glyph glyph-name="b" unicode="b" horiz-adv-x="1251" 
d="M137 0v1548h123v-768h4q51 87 155 139t224 52q213 0 356 -140q142 -142 142 -358q0 -213 -140 -356q-139 -142 -358 -142q-120 0 -225 52t-154 139h-4v-166h-123zM365 748q-117 -114 -117 -275q0 -158 117 -272q115 -115 278 -115q165 0 270 111t105 276q0 168 -105 279
q-108 108 -272 108t-276 -112z" />
    <glyph glyph-name="c" unicode="c" horiz-adv-x="985" 
d="M608 971q209 0 353 -164l-99 -74q-121 127 -256 127q-162 0 -266 -110q-107 -110 -107 -277q0 -168 105 -276q105 -111 268 -111q152 0 256 131l94 -78q-138 -164 -348 -164q-217 0 -356 142q-141 141 -141 356q0 217 141 358q143 140 356 140z" />
    <glyph glyph-name="d" unicode="d" horiz-adv-x="1251" 
d="M991 780v768h123v-1548h-123v166h-4q-53 -90 -156 -140.5t-223 -50.5q-217 0 -356 142q-141 141 -141 356q0 217 141 358q143 140 356 140q120 0 224 -52t155 -139h4zM233 473q0 -168 105 -276q105 -111 270 -111t281 113q115 115 115 274q0 160 -115 275
q-115 112 -283 112q-162 0 -266 -110q-107 -110 -107 -277z" />
    <glyph glyph-name="e" unicode="e" horiz-adv-x="1138" 
d="M584 971q193 0 319 -123q125 -125 125 -332v-74h-795q8 -158 105 -257t254 -99q97 0 185 46.5t132 121.5l90 -76q-135 -203 -409 -203q-212 0 -346 140q-133 139 -133 360q0 207 133 352q132 144 340 144zM233 553h672q-3 132 -96 219q-94 88 -234 88q-133 0 -229 -90
q-98 -92 -113 -217z" />
    <glyph glyph-name="f" unicode="f" horiz-adv-x="606" 
d="M516 1573q83 0 141 -25l-24 -106q-39 20 -111 20q-166 0 -166 -243v-273h222v-110h-222v-836h-123v836h-196v110h196v318q0 141 79 225t204 84z" />
    <glyph glyph-name="g" unicode="g" horiz-adv-x="1251" 
d="M629 971q241 0 358 -185h4v160h123v-880q0 -270 -131.5 -414t-374.5 -144q-141 0 -268 52.5t-199 146.5l97 90q126 -178 372 -178q187 0 284 107.5t97 316.5v141h-4q-117 -184 -358 -184q-208 0 -357 143q-149 140 -149 342q0 199 151 344q151 142 355 142zM356 750
q-110 -110 -110 -265q0 -153 108 -264q107 -110 267 -110q159 0 266 110q108 111 108 264q0 154 -108 265q-110 110 -269 110q-155 0 -262 -110z" />
    <glyph glyph-name="h" unicode="h" horiz-adv-x="1138" 
d="M164 0v1548h123v-768h4q41 86 130 138.5t193 52.5q361 0 361 -400v-571h-123v559q0 301 -238 301q-151 0 -239 -104.5t-88 -278.5v-477h-123z" />
    <glyph glyph-name="i" unicode="i" horiz-adv-x="491" 
d="M180 1386q26 26 65.5 26t65.5 -26t26 -65.5t-26 -65.5t-65.5 -26t-65.5 26t-26 65.5t26 65.5zM184 0v946h123v-946h-123z" />
    <glyph glyph-name="j" unicode="j" horiz-adv-x="491" 
d="M180 1386q26 26 65.5 26t65.5 -26t26 -65.5t-26 -65.5t-65.5 -26t-65.5 26t-26 65.5t26 65.5zM184 -184v1130h123v-1122q0 -163 -65.5 -239.5t-202.5 -76.5q-48 0 -100 19l18 108q43 -16 80 -16q76 0 111.5 47t35.5 150z" />
    <glyph glyph-name="k" unicode="k" horiz-adv-x="985" 
d="M164 0v1548h123v-1032l469 430h180l-490 -434l545 -512h-186l-518 500v-500h-123z" />
    <glyph glyph-name="l" unicode="l" horiz-adv-x="491" 
d="M184 0v1548h123v-1548h-123z" />
    <glyph glyph-name="m" unicode="m" horiz-adv-x="1744" 
d="M422 920q66 39 143.5 48t144.5 -10t119 -69.5t70 -122.5q38 96 125.5 150.5t198.5 54.5q358 0 358 -402v-569h-123v563q0 297 -237 297q-137 0 -212 -91t-75 -247v-522h-123v575q0 132 -51.5 208.5t-147.5 76.5q-150 0 -237.5 -104.5t-87.5 -286.5v-469h-123v690
q0 2 -0.5 17t-1.5 46t-2 66q-6 120 -6 127h122q6 -157 9 -166h6q41 87 131 140z" />
    <glyph glyph-name="n" unicode="n" horiz-adv-x="1138" 
d="M614 971q361 0 361 -412v-559h-123v553q0 307 -238 307q-150 0 -238.5 -104.5t-88.5 -286.5v-469h-123v690q0 2 -0.5 17t-1.5 46t-2 66q-6 120 -6 127h122q6 -157 9 -166h6q41 86 130 138.5t193 52.5z" />
    <glyph glyph-name="o" unicode="o" horiz-adv-x="1216" 
d="M608 971q216 0 359 -140q139 -142 139 -358q0 -214 -139 -356t-359 -142q-217 0 -356 142q-141 138 -141 356q0 216 139 358q140 140 358 140zM340 752q-107 -110 -107 -279q0 -168 105 -276q105 -111 270 -111q166 0 271 111q104 107 104 276t-104 279
q-108 108 -273 108q-161 0 -266 -108z" />
    <glyph glyph-name="p" unicode="p" horiz-adv-x="1251" 
d="M643 971q215 0 358 -140q140 -143 140 -358q0 -216 -137 -356q-139 -142 -361 -142q-122 0 -226 52t-153 139h-4v-633h-123v1413h123v-166h4q50 89 154.5 140t224.5 51zM248 473q0 -158 114 -272q115 -115 281 -115q167 0 272 111q103 112 103 276q0 168 -105 279
q-105 108 -272 108t-279 -112q-114 -114 -114 -275z" />
    <glyph glyph-name="q" unicode="q" horiz-adv-x="1251" 
d="M608 971q120 0 224.5 -51t154.5 -140h4v166h123v-1413h-123v633h-4q-49 -87 -153 -139t-226 -52q-219 0 -358 142t-139 356q0 217 141 358q140 140 356 140zM1004 473q0 160 -115 275q-112 112 -279 112t-272 -108q-105 -111 -105 -279q0 -165 105 -276t270 -111
q166 0 281 115t115 272z" />
    <glyph glyph-name="r" unicode="r" horiz-adv-x="681" 
d="M586 971q33 0 71 -10l-14 -121q-19 8 -49 8q-145 0 -226 -89t-81 -243v-516h-123v690q0 2 -0.5 17t-1.5 46t-2 66q-6 120 -6 127h122q3 -121 9 -166q108 191 301 191z" />
    <glyph glyph-name="s" unicode="s" horiz-adv-x="872" 
d="M422 971q241 0 332 -178l-111 -66q-71 133 -221 133q-81 0 -142 -43.5t-61 -107.5q0 -70 55.5 -105t174.5 -57q182 -33 256.5 -94.5t74.5 -184.5q0 -133 -95.5 -213t-248.5 -80q-268 0 -379 193l109 74q35 -69 111 -112.5t163 -43.5q89 0 153 50t64 124q0 88 -84 125
q-44 20 -78.5 29.5t-105.5 23.5q-164 34 -228.5 95.5t-64.5 164.5q0 122 92.5 197.5t233.5 75.5z" />
    <glyph glyph-name="t" unicode="t" horiz-adv-x="681" 
d="M233 946v273h123v-273h271v-110h-271v-619q0 -61 35 -96t96 -35q73 0 140 33l10 -111q-85 -33 -162 -33q-116 0 -179 64t-63 178v619h-204v110h204z" />
    <glyph glyph-name="u" unicode="u" horiz-adv-x="1138" 
d="M514 -25q-360 0 -360 412v559h122v-553q0 -307 238 -307q150 0 239 104.5t89 286.5v469h123v-690q0 -9 6 -129q1 -35 2 -65.5t1.5 -45t0.5 -16.5h-123q-6 161 -8 166h-6q-41 -86 -130.5 -138.5t-193.5 -52.5z" />
    <glyph glyph-name="v" unicode="v" horiz-adv-x="948" 
d="M31 946h139l315 -813l308 813h125l-373 -946h-127z" />
    <glyph glyph-name="w" unicode="w" horiz-adv-x="1441" 
d="M31 946h135l229 -792h4l265 792h116l281 -792h4l223 792h123l-278 -946h-127l-283 774h-4l-264 -774h-127z" />
    <glyph glyph-name="x" unicode="x" horiz-adv-x="985" 
d="M68 946h157l262 -358l261 358h153l-334 -434l406 -512h-160l-330 428l-323 -428h-148l394 512z" />
    <glyph glyph-name="y" unicode="y" horiz-adv-x="948" 
d="M31 946h137l313 -796l305 796h132l-486 -1235q-80 -203 -262 -203q-53 0 -121 19l12 115q77 -23 111 -23q97 0 156 152l88 225z" />
    <glyph glyph-name="z" unicode="z" horiz-adv-x="872" 
d="M84 946h709v-74l-566 -761h590v-111h-762v74l568 762h-539v110z" />
    <glyph glyph-name="braceleft" unicode="{" horiz-adv-x="681" 
d="M561 1499v-98h-45q-115 0 -115 -199v-295q0 -112 -41.5 -196t-101.5 -119v-4q65 -42 104 -125t39 -176v-318q0 -88 29 -139t82 -51h49v-98h-104q-82 0 -130 65t-48 180v318q0 142 -37.5 219.5t-106.5 77.5v98q144 0 144 305v303q0 128 50 190t134 62h98z" />
    <glyph glyph-name="bar" unicode="|" horiz-adv-x="454" 
d="M178 -512v2048h98v-2048h-98z" />
    <glyph glyph-name="braceright" unicode="}" horiz-adv-x="681" 
d="M123 1401l-2 98h100q81 0 131.5 -62.5t50.5 -189.5v-303q0 -305 144 -305v-98q-72 0 -108 -81t-36 -210v-324q0 -115 -48 -180t-130 -65h-104v98h49q53 0 82 52t29 140v316q0 95 39 179t104 122v4q-60 35 -101.5 119t-41.5 196v295q0 199 -115 199h-43z" />
    <glyph glyph-name="asciitilde" unicode="~" horiz-adv-x="1363" 
d="M467 745q74 0 227 -69q152 -70 209 -70q91 0 180 139l70 -65q-88 -184 -256 -184q-69 0 -225 69q-162 70 -211 70q-91 0 -180 -139l-70 65q94 184 256 184z" />
    <glyph glyph-name="uni00A0" unicode="&#xa0;" horiz-adv-x="532" 
 />
    <glyph glyph-name="exclamdown" unicode="&#xa1;" horiz-adv-x="757" 
d="M309 979q29 29 70 29t70 -29t29 -69.5t-29 -69.5t-70 -29t-70 29t-29 69.5t29 69.5zM317 -455v1069h123v-1069h-123z" />
    <glyph glyph-name="cent" unicode="&#xa2;" horiz-adv-x="1064" 
d="M524 965v147h99v-145q193 -3 335 -160l-98 -74q-102 114 -237 123v-770q139 6 237 131l94 -78q-131 -158 -331 -164v-141h-99v148q-189 27 -303 165q-115 139 -115 330q0 188 117 326q114 135 301 162zM229 477q0 -137 82 -244q78 -109 213 -137v758
q-134 -23 -214.5 -128t-80.5 -249z" />
    <glyph glyph-name="sterling" unicode="&#xa3;" horiz-adv-x="1064" 
d="M764 1475q160 0 293 -115l-82 -98q-102 102 -217 102q-128 0 -208.5 -88t-80.5 -219v-246h338v-111h-338v-589h502v-111h-852v111h215v589h-195v111h195v227q0 192 115 316q115 121 315 121z" />
    <glyph glyph-name="currency" unicode="&#xa4;" horiz-adv-x="1064" 
d="M98 1235l117 -115q139 109 317 109q179 0 318 -109l117 115l69 -76l-116 -112q122 -131 122 -322t-122 -322l116 -112l-69 -76l-117 115q-142 -109 -318 -109q-178 0 -317 109l-117 -115l-69 76l116 112q-122 131 -122 322t122 322l-116 112zM258 1001
q-113 -116 -113 -276q0 -158 115 -276q114 -117 272 -117q161 0 275 117q113 116 113 276q0 163 -113 279q-114 114 -277 114q-158 0 -272 -117z" />
    <glyph glyph-name="yen" unicode="&#xa5;" horiz-adv-x="1064" 
d="M0 1450h139l393 -705l400 705h133l-391 -694h274v-99h-330l-18 -32v-158h348v-98h-348v-369h-135v369h-348v98h348v158l-19 32h-329v99h274z" />
    <glyph glyph-name="brokenbar" unicode="&#xa6;" horiz-adv-x="454" 
d="M178 666v716h98v-716h-98zM178 -358v716h98v-716h-98z" />
    <glyph glyph-name="section" unicode="&#xa7;" horiz-adv-x="1064" 
d="M590 1487q119 0 206 -50.5t122 -142.5l-119 -69q-59 139 -215 139q-105 0 -172.5 -54t-67.5 -145q0 -74 57.5 -124t196.5 -115q18 -9 61 -29.5t58 -28.5q36 -19 100 -67q117 -86 117 -232q0 -171 -182 -270q153 -92 153 -254q0 -151 -108 -246q-110 -94 -273 -94
q-140 0 -243 64t-150 182l125 61q67 -184 266 -184q109 0 178.5 55.5t69.5 143.5q0 56 -40 106t-93 80q-16 8 -61 29.5t-70 33.5q-75 34 -117 56q-115 62 -172 132.5t-57 176.5q0 173 217 264q-168 101 -168 260q0 146 110 234t271 88zM295 643q0 -105 123 -170l225 -115
q156 86 156 197q0 115 -142 195l-163 90q-199 -64 -199 -197z" />
    <glyph glyph-name="dieresis" unicode="&#xa8;" horiz-adv-x="491" 
d="M-18 1405q29 29 69.5 29t69.5 -29t29 -69.5t-29 -69.5t-69.5 -29t-69.5 29t-29 69.5t29 69.5zM371 1405q29 29 69.5 29t69.5 -29t29 -69.5t-29 -69.5t-69.5 -29t-69.5 29t-29 69.5t29 69.5z" />
    <glyph glyph-name="copyright" unicode="&#xa9;" horiz-adv-x="1638" 
d="M819 1487q316 0 539 -223t223 -539q0 -311 -221 -537q-225 -225 -541 -225q-317 0 -538 225q-224 224 -224 537t224 537q221 225 538 225zM358 1186q-190 -193 -190 -461q0 -269 190 -459q189 -192 461 -192q274 0 463 192q188 191 188 459q0 267 -188 461
q-190 190 -465 190q-272 0 -459 -190zM838 1194q153 0 256.5 -84.5t122.5 -226.5h-111q-23 97 -96.5 155t-171.5 58q-148 0 -236 -105q-92 -109 -92 -266q0 -160 92 -266q91 -105 238 -105q100 0 173 58t93 155h111q-19 -142 -122.5 -226.5t-256.5 -84.5q-200 0 -320 129
q-119 128 -119 340t121 342q121 127 318 127z" />
    <glyph glyph-name="ordfeminine" unicode="&#xaa;" horiz-adv-x="690" 
d="M365 1475q128 0 186.5 -53.5t58.5 -164.5v-196q0 -79 11 -180h-101q-2 4 -8 94h-4q-64 -107 -213 -107q-105 0 -165 43.5t-60 122.5q0 199 315 199h127v8q0 80 -39 114t-131 34q-102 0 -192 -72l-54 78q103 80 269 80zM168 1038q0 -35 43.5 -59.5t103.5 -24.5
q85 0 141 52.5t56 128.5v12h-80q-264 0 -264 -109z" />
    <glyph glyph-name="guillemotleft" unicode="&#xab;" horiz-adv-x="985" 
d="M129 485l281 416l86 -59l-238 -357l242 -360l-90 -55zM469 485l281 416l86 -59l-238 -357l242 -360l-90 -55z" />
    <glyph glyph-name="logicalnot" unicode="&#xac;" horiz-adv-x="1363" 
d="M160 817h1044v-543h-98v445h-946v98z" />
    <glyph glyph-name="uni00AD" unicode="&#xad;" horiz-adv-x="681" 
d="M88 541h506v-111h-506v111z" />
    <glyph glyph-name="registered" unicode="&#xae;" horiz-adv-x="1638" 
d="M819 1487q316 0 539 -223t223 -539q0 -311 -221 -537q-225 -225 -541 -225q-317 0 -538 225q-224 224 -224 537t224 537q221 225 538 225zM358 1186q-190 -193 -190 -461q0 -269 190 -459q189 -192 461 -192q274 0 463 192q188 191 188 459q0 267 -188 461
q-190 190 -465 190q-272 0 -459 -190zM543 1167h344q270 0 270 -243q0 -215 -221 -250l262 -385h-125l-262 385h-158v-385h-110v878zM653 772h162q126 0 179 36t53 116q0 145 -207 145h-187v-297z" />
    <glyph glyph-name="overscore" unicode="&#xaf;" horiz-adv-x="491" 
d="M-25 1339h541v-98h-541v98z" />
    <glyph glyph-name="degree" unicode="&#xb0;" horiz-adv-x="819" 
d="M201 1389q83 86 209 86q125 0 211 -86q84 -87 84 -207q0 -122 -84 -209q-85 -88 -211 -88q-127 0 -209 88q-86 86 -86 209q0 121 86 207zM270 1319q-45 -41 -54 -101t12.5 -112.5t71 -89t110.5 -33.5q82 0 139 57.5t57 139.5q0 81 -56 138.5t-140 57.5q-83 0 -140 -57z
" />
    <glyph glyph-name="plusminus" unicode="&#xb1;" horiz-adv-x="1363" 
d="M627 768v375h98v-375h479v-98h-479v-375h-98v375h-467v98h467zM168 197h1028v-99h-1028v99z" />
    <glyph glyph-name="two.sups" unicode="&#xb2;" horiz-adv-x="692" 
d="M367 1475q123 0 199.5 -62t76.5 -162q0 -82 -40.5 -147t-147.5 -166l-260 -248h450v-98h-598v88l371 362q63 62 88.5 106.5t25.5 98.5q0 58 -46.5 93.5t-125.5 35.5q-135 0 -176 -121l-104 9q23 98 102 154.5t185 56.5z" />
    <glyph glyph-name="three.sups" unicode="&#xb3;" horiz-adv-x="692" 
d="M344 1475q117 0 192.5 -62.5t75.5 -159.5q0 -67 -46.5 -122t-121.5 -80v-4q86 -10 139.5 -72.5t53.5 -147.5q0 -110 -82 -178.5t-215 -68.5q-214 0 -285 182l97 37q47 -121 188 -121q72 0 129 48.5t57 109.5q0 163 -239 163h-27v99h47q88 0 141.5 42t53.5 111
q0 54 -44.5 89.5t-113.5 35.5q-118 0 -180 -102l-80 51q94 150 260 150z" />
    <glyph glyph-name="acute" unicode="&#xb4;" horiz-adv-x="491" 
d="M340 1450h164l-275 -295h-102z" />
    <glyph glyph-name="uni00B5" unicode="&#xb5;" horiz-adv-x="1138" 
d="M154 -467v1413h122v-565q0 -295 238 -295q150 0 239 105t89 274v481h123v-690q0 -9 6 -129q1 -35 2 -65.5t1.5 -45t0.5 -16.5h-123q-2 100 -8 166h-6q-44 -90 -131.5 -140.5t-194.5 -50.5q-148 0 -238 78v-520h-120z" />
    <glyph glyph-name="paragraph" unicode="&#xb6;" horiz-adv-x="1228" 
d="M571 1450h473v-1708h-122v1610h-252v-1610h-123v920q-181 0 -301 114q-123 114 -123 275q0 189 119.5 294t328.5 105z" />
    <glyph glyph-name="middot" unicode="&#xb7;" horiz-adv-x="532" 
d="M197 721q29 29 69.5 29t69.5 -29t29 -69.5t-29 -69.5t-69.5 -29t-69.5 29t-29 69.5t29 69.5z" />
    <glyph glyph-name="cedilla" unicode="&#xb8;" horiz-adv-x="491" 
d="M143 -180l129 180h78l-96 -131l4 -4q25 14 64 14q75 0 122.5 -40t47.5 -107q0 -77 -65.5 -125.5t-166.5 -48.5q-105 0 -192 43l28 65q62 -35 156 -35q56 0 92.5 25t36.5 63q0 39 -31.5 62.5t-85.5 23.5q-38 0 -88 -16z" />
    <glyph glyph-name="one.sups" unicode="&#xb9;" horiz-adv-x="692" 
d="M137 1286l225 176h111v-870h-111v760l-174 -135z" />
    <glyph glyph-name="ordmasculine" unicode="&#xba;" horiz-adv-x="790" 
d="M160 1391q90 84 233 84q145 0 238 -84q90 -84 90 -220q0 -133 -92.5 -218t-235.5 -85q-146 0 -234.5 84t-88.5 219q0 133 90 220zM233 1325q-41 -36 -56.5 -87t-4.5 -100.5t39 -93t76.5 -68.5t105.5 -22q97 0 163.5 63t66.5 154q0 94 -65 156t-167 62q-94 0 -158 -64z
" />
    <glyph glyph-name="guillemotright" unicode="&#xbb;" horiz-adv-x="985" 
d="M145 846l91 55l280 -416l-280 -415l-86 59l237 356zM485 846l90 55l281 -416l-281 -415l-86 59l238 356z" />
    <glyph glyph-name="onequarter" unicode="&#xbc;" horiz-adv-x="1593" 
d="M236 -12l933 1532l95 -58l-936 -1532zM74 1286l225 176h111v-870h-111v760l-174 -135zM889 301l379 567h121v-561h131v-98h-131v-209h-111v209h-389v92zM1274 721l-275 -414h279v414h-4z" />
    <glyph glyph-name="onehalf" unicode="&#xbd;" horiz-adv-x="1593" 
d="M217 -12l934 1532l94 -58l-938 -1532zM57 1286l226 176h110v-870h-110v760l-174 -135zM1257 883q123 0 200 -62t77 -162q0 -82 -40.5 -147t-147.5 -166l-261 -248h451v-98h-598v88l371 363q63 62 88.5 106t25.5 98q0 58 -46.5 93.5t-125.5 35.5q-135 0 -176 -120l-104 8
q23 98 101.5 154.5t184.5 56.5z" />
    <glyph glyph-name="threequarters" unicode="&#xbe;" horiz-adv-x="1593" 
d="M1368 1462l-936 -1532l-92 58l934 1532zM332 1475q117 0 192.5 -62.5t75.5 -159.5q0 -67 -46.5 -122t-121.5 -80v-4q86 -10 139.5 -72.5t53.5 -147.5q0 -110 -82 -178.5t-215 -68.5q-216 0 -287 182l98 37q47 -121 189 -121q72 0 129 48.5t57 109.5q0 163 -240 163h-26
v99h47q88 0 141 42t53 111q0 54 -44 89.5t-113 35.5q-118 0 -180 -102l-80 51q94 150 260 150zM922 301l378 567h121v-561h131v-98h-131v-209h-110v209h-389v92zM1307 721l-275 -414h279v414h-4z" />
    <glyph glyph-name="questiondown" unicode="&#xbf;" horiz-adv-x="948" 
d="M397 979q29 29 70 29t70 -29t29 -69.5t-29 -69.5t-70 -29t-70 29t-29 69.5t29 69.5zM453 -492q-170 0 -273.5 96.5t-103.5 256.5q0 104 41.5 183.5t130.5 154.5q160 139 160 278v137h122v-176q0 -140 -159 -284q-160 -145 -160 -287q0 -111 66 -179.5t174 -68.5
q103 0 174 63t94 175l133 -17q-29 -154 -136.5 -243t-262.5 -89z" />
    <glyph glyph-name="Agrave" unicode="&#xc0;" horiz-adv-x="1402" 
d="M444 1835h164l213 -295h-102zM643 1450h139l611 -1450h-152l-158 385h-768l-163 -385h-142zM707 1303l-338 -795h665z" />
    <glyph glyph-name="Aacute" unicode="&#xc1;" horiz-adv-x="1402" 
d="M797 1835h164l-275 -295h-102zM643 1450h139l611 -1450h-152l-158 385h-768l-163 -385h-142zM707 1303l-338 -795h665z" />
    <glyph glyph-name="Acircumflex" unicode="&#xc2;" horiz-adv-x="1402" 
d="M631 1835h143l221 -295h-133l-166 221l-166 -221h-120zM643 1450h139l611 -1450h-152l-158 385h-768l-163 -385h-142zM707 1303l-338 -795h665z" />
    <glyph glyph-name="Atilde" unicode="&#xc3;" horiz-adv-x="1402" 
d="M567 1784q54 0 152 -49q94 -49 131 -49q74 0 98 98h74q-10 -96 -57 -152.5t-115 -56.5q-56 0 -154 49t-135 49q-77 0 -104 -98h-74q14 93 64.5 151t119.5 58zM643 1450h139l611 -1450h-152l-158 385h-768l-163 -385h-142zM707 1303l-338 -795h665z" />
    <glyph glyph-name="Adieresis" unicode="&#xc4;" horiz-adv-x="1402" 
d="M438 1790q33 28 70.5 28t67.5 -28t30 -70t-28 -70t-70 -28q-43 0 -70.5 27.5t-27.5 70.5q0 42 28 70zM827 1790q33 28 70.5 28t67.5 -28t30 -70q0 -41 -28.5 -69.5t-69.5 -28.5q-43 0 -70.5 27.5t-27.5 70.5q0 42 28 70zM643 1450h139l611 -1450h-152l-158 385h-768
l-163 -385h-142zM707 1303l-338 -795h665z" />
    <glyph glyph-name="Aring" unicode="&#xc5;" horiz-adv-x="1402" 
d="M705 1909q75 0 131.5 -59t56.5 -138q0 -78 -56.5 -135t-131.5 -57q-78 0 -135.5 57.5t-57.5 136.5t57.5 137t135.5 58zM586 1712q0 -50 33.5 -84.5t82.5 -34.5t83 35t34 86q0 53 -33.5 87t-83.5 34q-49 0 -82.5 -36t-33.5 -87zM643 1450h139l611 -1450h-152l-158 385
h-768l-163 -385h-142zM707 1303l-338 -795h665z" />
    <glyph glyph-name="AE" unicode="&#xc6;" horiz-adv-x="1896" 
d="M934 1450h825v-123h-600v-516h565v-123h-565v-565h617v-123h-752v385h-639l-252 -385h-143zM1024 1327h-25l-534 -819h559v819z" />
    <glyph glyph-name="Ccedilla" unicode="&#xc7;" horiz-adv-x="1441" 
d="M854 1487q322 0 500 -227l-111 -93q-62 93 -164.5 145t-224.5 52q-276 0 -444 -180q-170 -182 -170 -459t168 -457q170 -182 444 -182q128 0 245.5 61.5t184.5 163.5l111 -84q-193 -264 -541 -264q-8 0 -28 1t-25 1l-70 -94l4 -6q25 14 64 14q75 0 122.5 -40t47.5 -107
q0 -77 -65.5 -125.5t-166.5 -48.5q-105 0 -192 43l28 65q62 -35 156 -35q56 0 92.5 25t36.5 63q0 39 -31.5 62.5t-85.5 23.5q-38 0 -88 -16l-33 31l109 153q-282 40 -453 248q-170 206 -170 504q0 335 211 549q210 213 539 213z" />
    <glyph glyph-name="Egrave" unicode="&#xc8;" horiz-adv-x="1214" 
d="M350 1835h164l213 -295h-102zM199 1450h886v-123h-751v-516h704v-123h-704v-565h784v-123h-919v1450z" />
    <glyph glyph-name="Eacute" unicode="&#xc9;" horiz-adv-x="1214" 
d="M711 1835h163l-274 -295h-102zM199 1450h886v-123h-751v-516h704v-123h-704v-565h784v-123h-919v1450z" />
    <glyph glyph-name="Ecircumflex" unicode="&#xca;" horiz-adv-x="1214" 
d="M569 1835h144l221 -295h-133l-166 221l-166 -221h-121zM199 1450h886v-123h-751v-516h704v-123h-704v-565h784v-123h-919v1450z" />
    <glyph glyph-name="Edieresis" unicode="&#xcb;" horiz-adv-x="1214" 
d="M387 1790q33 28 70.5 28t67.5 -28t30 -70t-28 -70t-70 -28q-43 0 -71 27.5t-28 70.5q0 41 29 70zM776 1790q33 28 70.5 28t67.5 -28t30 -70q0 -41 -28.5 -69.5t-69.5 -28.5q-43 0 -70.5 27.5t-27.5 70.5q0 42 28 70zM199 1450h886v-123h-751v-516h704v-123h-704v-565h784
v-123h-919v1450z" />
    <glyph glyph-name="Igrave" unicode="&#xcc;" horiz-adv-x="532" 
d="M8 1835h164l213 -295h-102zM199 1450h135v-1450h-135v1450z" />
    <glyph glyph-name="Iacute" unicode="&#xcd;" horiz-adv-x="532" 
d="M360 1835h164l-274 -295h-103zM199 1450h135v-1450h-135v1450z" />
    <glyph glyph-name="Icircumflex" unicode="&#xce;" horiz-adv-x="532" 
d="M195 1835h143l221 -295h-133l-166 221l-166 -221h-121zM199 1450h135v-1450h-135v1450z" />
    <glyph glyph-name="Idieresis" unicode="&#xcf;" horiz-adv-x="532" 
d="M2 1790q33 28 70.5 28t67.5 -28t30 -70t-28 -70t-70 -28q-43 0 -71 27.5t-28 70.5q0 41 29 70zM391 1790q33 28 70.5 28t67.5 -28t30 -70q0 -41 -28.5 -69.5t-69.5 -28.5q-43 0 -71 27.5t-28 70.5q0 41 29 70zM199 1450h135v-1450h-135v1450z" />
    <glyph glyph-name="Eth" unicode="&#xd0;" horiz-adv-x="1517" 
d="M20 811h160v639h453q197 0 351.5 -60t248.5 -167q180 -207 180 -504q0 -148 -58 -294.5t-181 -254.5q-90 -78 -228.5 -124t-304.5 -46h-461v700h-160v111zM315 123h289q308 0 492 156q182 156 182 436q0 293 -181 452.5t-499 159.5h-283v-516h529v-111h-529v-577z" />
    <glyph glyph-name="Ntilde" unicode="&#xd1;" horiz-adv-x="1593" 
d="M684 1784q54 0 152 -49q94 -49 131 -49q74 0 98 98h74q-10 -96 -57 -152.5t-115 -56.5q-53 0 -154 49t-135 49q-78 0 -105 -98h-73q14 93 64.5 151t119.5 58zM199 1450h174l882 -1270h5v1270h135v-1450h-174l-883 1270h-4v-1270h-135v1450z" />
    <glyph glyph-name="Ograve" unicode="&#xd2;" horiz-adv-x="1708" 
d="M596 1835h164l213 -295h-103zM854 1487q337 0 543 -215q207 -219 207 -547q0 -330 -209 -545q-211 -217 -541 -217q-331 0 -539 217q-211 214 -211 545q0 332 209 547t541 215zM240 725q0 -275 170 -457t444 -182t444 182t170 457q0 279 -168 459t-448 180
q-276 0 -444 -180t-168 -459z" />
    <glyph glyph-name="Oacute" unicode="&#xd3;" horiz-adv-x="1708" 
d="M948 1835h164l-274 -295h-103zM854 1487q337 0 543 -215q207 -219 207 -547q0 -330 -209 -545q-211 -217 -541 -217q-331 0 -539 217q-211 214 -211 545q0 332 209 547t541 215zM240 725q0 -275 170 -457t444 -182t444 182t170 457q0 279 -168 459t-448 180
q-276 0 -444 -180t-168 -459z" />
    <glyph glyph-name="Ocircumflex" unicode="&#xd4;" horiz-adv-x="1708" 
d="M782 1835h144l221 -295h-133l-166 221l-166 -221h-121zM854 1487q337 0 543 -215q207 -219 207 -547q0 -330 -209 -545q-211 -217 -541 -217q-331 0 -539 217q-211 214 -211 545q0 332 209 547t541 215zM240 725q0 -275 170 -457t444 -182t444 182t170 457
q0 279 -168 459t-448 180q-276 0 -444 -180t-168 -459z" />
    <glyph glyph-name="Otilde" unicode="&#xd5;" horiz-adv-x="1708" 
d="M719 1784q53 0 151 -49q94 -49 131 -49q75 0 99 98h74q-10 -96 -57.5 -152.5t-115.5 -56.5q-55 0 -153 49t-135 49q-78 0 -105 -98h-73q14 93 64.5 151t119.5 58zM854 1487q337 0 543 -215q207 -219 207 -547q0 -330 -209 -545q-211 -217 -541 -217q-331 0 -539 217
q-211 214 -211 545q0 332 209 547t541 215zM240 725q0 -275 170 -457t444 -182t444 182t170 457q0 279 -168 459t-448 180q-276 0 -444 -180t-168 -459z" />
    <glyph glyph-name="Odieresis" unicode="&#xd6;" horiz-adv-x="1708" 
d="M590 1790q33 28 70.5 28t67.5 -28t30 -70t-28.5 -70t-70.5 -28q-43 0 -70.5 27.5t-27.5 70.5q0 41 29 70zM979 1790q33 28 70.5 28t67.5 -28t30 -70q0 -41 -28.5 -69.5t-69.5 -28.5q-43 0 -71 27.5t-28 70.5q0 41 29 70zM854 1487q337 0 543 -215q207 -219 207 -547
q0 -330 -209 -545q-211 -217 -541 -217q-331 0 -539 217q-211 214 -211 545q0 332 209 547t541 215zM240 725q0 -275 170 -457t444 -182t444 182t170 457q0 279 -168 459t-448 180q-276 0 -444 -180t-168 -459z" />
    <glyph glyph-name="multiply" unicode="&#xd7;" horiz-adv-x="1363" 
d="M209 1026l70 70l405 -406l406 406l67 -70l-405 -405l405 -406l-70 -70l-405 408l-408 -410l-69 72l407 408z" />
    <glyph glyph-name="Oslash" unicode="&#xd8;" horiz-adv-x="1708" 
d="M139 31l156 168q-191 212 -191 526q0 332 209 547t541 215q280 0 481 -160l152 164l69 -64l-151 -165q199 -211 199 -537q0 -330 -209 -545q-211 -217 -541 -217q-292 0 -492 170l-151 -166zM240 725q0 -256 143 -430l864 936q-165 133 -395 133q-276 0 -444 -180
t-168 -459zM1468 725q0 265 -153 440l-864 -938q159 -141 403 -141q274 0 444 182t170 457z" />
    <glyph glyph-name="Ugrave" unicode="&#xd9;" horiz-adv-x="1400" 
d="M442 1835h164l213 -295h-102zM172 1450h135v-870q0 -240 99.5 -367t293.5 -127q195 0 294.5 131t99.5 383v850h135v-885q0 -287 -136.5 -444.5t-392.5 -157.5t-392 155.5t-136 436.5v895z" />
    <glyph glyph-name="Uacute" unicode="&#xda;" horiz-adv-x="1400" 
d="M795 1835h163l-274 -295h-102zM172 1450h135v-870q0 -240 99.5 -367t293.5 -127q195 0 294.5 131t99.5 383v850h135v-885q0 -287 -136.5 -444.5t-392.5 -157.5t-392 155.5t-136 436.5v895z" />
    <glyph glyph-name="Ucircumflex" unicode="&#xdb;" horiz-adv-x="1400" 
d="M633 1835h143l221 -295h-133l-166 221l-166 -221h-120zM172 1450h135v-870q0 -240 99.5 -367t293.5 -127q195 0 294.5 131t99.5 383v850h135v-885q0 -287 -136.5 -444.5t-392.5 -157.5t-392 155.5t-136 436.5v895z" />
    <glyph glyph-name="Udieresis" unicode="&#xdc;" horiz-adv-x="1400" 
d="M444 1790q33 28 70.5 28t67.5 -28t30 -70t-28 -70t-70 -28q-43 0 -70.5 27.5t-27.5 70.5q0 42 28 70zM834 1790q33 28 70.5 28t67 -28t29.5 -70q0 -41 -28.5 -69.5t-69.5 -28.5q-43 0 -70.5 27.5t-27.5 70.5q0 41 29 70zM172 1450h135v-870q0 -240 99.5 -367t293.5 -127
q195 0 294.5 131t99.5 383v850h135v-885q0 -287 -136.5 -444.5t-392.5 -157.5t-392 155.5t-136 436.5v895z" />
    <glyph glyph-name="Yacute" unicode="&#xdd;" horiz-adv-x="1175" 
d="M682 1835h164l-275 -295h-102zM-12 1450h162l438 -688l448 688h152l-533 -825v-625h-135v625z" />
    <glyph glyph-name="Thorn" unicode="&#xde;" horiz-adv-x="1175" 
d="M199 1450h135v-320h291q208 0 333 -101t125 -281q0 -176 -119 -277.5t-319 -101.5h-311v-369h-135v1450zM334 492h313q137 0 219 68t82 188q0 119 -86.5 189.5t-220.5 70.5h-307v-516z" />
    <glyph glyph-name="germandbls" unicode="&#xdf;" horiz-adv-x="1214" 
d="M596 1573q170 0 274.5 -100.5t104.5 -266.5q0 -116 -53.5 -200t-149.5 -115v-4q326 -65 326 -432q0 -215 -137 -340q-139 -127 -369 -127q-44 0 -96 10v119q49 -19 108 -19q166 0 268.5 97.5t102.5 255.5q0 174 -106 275t-291 101h-33v111h22q133 0 209 71t76 193
q0 119 -72.5 189.5t-193.5 70.5q-145 0 -222 -100.5t-77 -280.5v-1081h-123v1098q0 216 115.5 345.5t316.5 129.5z" />
    <glyph glyph-name="agrave" unicode="&#xe0;" horiz-adv-x="1062" 
d="M313 1450h164l213 -295h-102zM522 971q183 0 280 -86.5t97 -247.5v-281q0 -223 19 -356h-115q-12 64 -12 154h-5q-105 -179 -329 -179q-154 0 -245 76t-91 205q0 157 133 237t383 80h151v56q0 114 -69.5 172.5t-196.5 58.5q-165 0 -289 -106l-71 84q65 62 163 97.5
t197 35.5zM244 262q0 -78 61.5 -127t155.5 -49q159 0 243 85t84 239v65h-147q-180 0 -288.5 -54t-108.5 -159z" />
    <glyph glyph-name="aacute" unicode="&#xe1;" horiz-adv-x="1062" 
d="M633 1450h164l-275 -295h-102zM522 971q183 0 280 -86.5t97 -247.5v-281q0 -223 19 -356h-115q-12 64 -12 154h-5q-105 -179 -329 -179q-154 0 -245 76t-91 205q0 157 133 237t383 80h151v56q0 114 -69.5 172.5t-196.5 58.5q-165 0 -289 -106l-71 84q65 62 163 97.5
t197 35.5zM244 262q0 -78 61.5 -127t155.5 -49q159 0 243 85t84 239v65h-147q-180 0 -288.5 -54t-108.5 -159z" />
    <glyph glyph-name="acircumflex" unicode="&#xe2;" horiz-adv-x="1062" 
d="M481 1450h144l221 -295h-133l-166 221l-166 -221h-121zM522 971q183 0 280 -86.5t97 -247.5v-281q0 -223 19 -356h-115q-12 64 -12 154h-5q-105 -179 -329 -179q-154 0 -245 76t-91 205q0 157 133 237t383 80h151v56q0 114 -69.5 172.5t-196.5 58.5q-165 0 -289 -106
l-71 84q65 62 163 97.5t197 35.5zM244 262q0 -78 61.5 -127t155.5 -49q159 0 243 85t84 239v65h-147q-180 0 -288.5 -54t-108.5 -159z" />
    <glyph glyph-name="atilde" unicode="&#xe3;" horiz-adv-x="1062" 
d="M397 1399q58 0 152 -49q95 -50 131 -50q74 0 98 99h74q-13 -99 -58.5 -154t-113.5 -55q-56 0 -154 49t-135 49q-80 0 -104 -98h-74q11 88 63.5 148.5t120.5 60.5zM522 971q183 0 280 -86.5t97 -247.5v-281q0 -223 19 -356h-115q-12 64 -12 154h-5q-105 -179 -329 -179
q-154 0 -245 76t-91 205q0 157 133 237t383 80h151v56q0 114 -69.5 172.5t-196.5 58.5q-165 0 -289 -106l-71 84q65 62 163 97.5t197 35.5zM244 262q0 -78 61.5 -127t155.5 -49q159 0 243 85t84 239v65h-147q-180 0 -288.5 -54t-108.5 -159z" />
    <glyph glyph-name="adieresis" unicode="&#xe4;" horiz-adv-x="1062" 
d="M268 1405q29 29 70 29t70 -29t29 -69.5t-29 -69.5t-70 -29t-70 29t-29 69.5t29 69.5zM657 1405q29 29 70 29t70 -29t29 -69.5t-29 -69.5t-70 -29t-70 29t-29 69.5t29 69.5zM522 971q183 0 280 -86.5t97 -247.5v-281q0 -223 19 -356h-115q-12 64 -12 154h-5
q-105 -179 -329 -179q-154 0 -245 76t-91 205q0 157 133 237t383 80h151v56q0 114 -69.5 172.5t-196.5 58.5q-165 0 -289 -106l-71 84q65 62 163 97.5t197 35.5zM244 262q0 -78 61.5 -127t155.5 -49q159 0 243 85t84 239v65h-147q-180 0 -288.5 -54t-108.5 -159z" />
    <glyph glyph-name="aring" unicode="&#xe5;" horiz-adv-x="1062" 
d="M535 1524q75 0 131.5 -59t56.5 -138q0 -78 -56.5 -135t-131.5 -57q-78 0 -135.5 57.5t-57.5 136.5t57.5 137t135.5 58zM416 1327q0 -50 33.5 -84.5t82.5 -34.5t83 35t34 86q0 53 -33.5 87t-83.5 34q-49 0 -82.5 -36t-33.5 -87zM522 971q183 0 280 -86.5t97 -247.5v-281
q0 -223 19 -356h-115q-12 64 -12 154h-5q-105 -179 -329 -179q-154 0 -245 76t-91 205q0 157 133 237t383 80h151v56q0 114 -69.5 172.5t-196.5 58.5q-165 0 -289 -106l-71 84q65 62 163 97.5t197 35.5zM244 262q0 -78 61.5 -127t155.5 -49q159 0 243 85t84 239v65h-147
q-180 0 -288.5 -54t-108.5 -159z" />
    <glyph glyph-name="ae" unicode="&#xe6;" horiz-adv-x="1744" 
d="M512 971q146 0 233.5 -48t135.5 -149q49 90 145 143.5t203 53.5q200 0 313 -122.5t113 -338.5v-68h-729v-18q0 -154 89.5 -246t237.5 -92q177 0 273 152l96 -70q-82 -105 -169.5 -149t-217.5 -44q-281 0 -375 234q-111 -234 -416 -234q-152 0 -242.5 76.5t-90.5 204.5
q0 141 116.5 219t329.5 78h246v16q0 291 -291 291q-165 0 -289 -106l-71 84q62 61 162 97t198 36zM926 553h606q-1 147 -81 227t-222 80q-131 0 -216.5 -84.5t-86.5 -222.5zM233 260q0 -75 62.5 -124.5t155.5 -49.5q165 0 258.5 93.5t93.5 262.5h-248q-155 0 -238.5 -50
t-83.5 -132z" />
    <glyph glyph-name="ccedilla" unicode="&#xe7;" horiz-adv-x="985" 
d="M391 -180l117 166q-177 30 -287 164q-110 131 -110 323q0 217 141 358q140 140 356 140q209 0 353 -164l-99 -74q-121 127 -256 127q-163 0 -268 -108q-105 -111 -105 -279t105 -276q105 -111 268 -111q149 0 256 131l94 -78q-135 -164 -340 -164q-28 0 -36 2l-78 -106
l4 -6q25 14 63 14q75 0 122.5 -40t47.5 -107q0 -77 -65 -125.5t-166 -48.5q-106 0 -193 43l29 65q62 -35 156 -35q56 0 92.5 25t36.5 63q0 39 -31.5 62.5t-85.5 23.5q-38 0 -88 -16z" />
    <glyph glyph-name="egrave" unicode="&#xe8;" horiz-adv-x="1138" 
d="M311 1450h164l213 -295h-102zM584 971q193 0 319 -123q125 -125 125 -332v-74h-795q8 -158 105 -257t254 -99q97 0 185 46.5t132 121.5l90 -76q-135 -203 -409 -203q-212 0 -346 140q-133 139 -133 360q0 207 133 352q132 144 340 144zM233 553h672q-3 132 -96 219
q-94 88 -234 88q-133 0 -229 -90q-98 -92 -113 -217z" />
    <glyph glyph-name="eacute" unicode="&#xe9;" horiz-adv-x="1138" 
d="M664 1450h163l-274 -295h-102zM584 971q193 0 319 -123q125 -125 125 -332v-74h-795q8 -158 105 -257t254 -99q97 0 185 46.5t132 121.5l90 -76q-135 -203 -409 -203q-212 0 -346 140q-133 139 -133 360q0 207 133 352q132 144 340 144zM233 553h672q-3 132 -96 219
q-94 88 -234 88q-133 0 -229 -90q-98 -92 -113 -217z" />
    <glyph glyph-name="ecircumflex" unicode="&#xea;" horiz-adv-x="1138" 
d="M498 1450h143l221 -295h-133l-166 221l-166 -221h-121zM584 971q193 0 319 -123q125 -125 125 -332v-74h-795q8 -158 105 -257t254 -99q97 0 185 46.5t132 121.5l90 -76q-135 -203 -409 -203q-212 0 -346 140q-133 139 -133 360q0 207 133 352q132 144 340 144zM233 553
h672q-3 132 -96 219q-94 88 -234 88q-133 0 -229 -90q-98 -92 -113 -217z" />
    <glyph glyph-name="edieresis" unicode="&#xeb;" horiz-adv-x="1138" 
d="M305 1405q29 29 69.5 29t69.5 -29t29 -69.5t-29 -69.5t-69.5 -29t-69.5 29t-29 69.5t29 69.5zM694 1405q29 29 70 29t70 -29t29 -69.5t-29 -69.5t-70 -29t-70 29t-29 69.5t29 69.5zM584 971q193 0 319 -123q125 -125 125 -332v-74h-795q8 -158 105 -257t254 -99
q97 0 185 46.5t132 121.5l90 -76q-135 -203 -409 -203q-212 0 -346 140q-133 139 -133 360q0 207 133 352q132 144 340 144zM233 553h672q-3 132 -96 219q-94 88 -234 88q-133 0 -229 -90q-98 -92 -113 -217z" />
    <glyph glyph-name="igrave" unicode="&#xec;" horiz-adv-x="491" 
d="M-12 1450h164l213 -295h-103zM184 0v946h123v-946h-123z" />
    <glyph glyph-name="iacute" unicode="&#xed;" horiz-adv-x="491" 
d="M340 1450h164l-275 -295h-102zM184 0v946h123v-946h-123z" />
    <glyph glyph-name="icircumflex" unicode="&#xee;" horiz-adv-x="491" 
d="M174 1450h143l222 -295h-133l-166 221l-166 -221h-121zM184 0v946h123v-946h-123z" />
    <glyph glyph-name="idieresis" unicode="&#xef;" horiz-adv-x="491" 
d="M-18 1405q29 29 69.5 29t69.5 -29t29 -69.5t-29 -69.5t-69.5 -29t-69.5 29t-29 69.5t29 69.5zM371 1405q29 29 69.5 29t69.5 -29t29 -69.5t-29 -69.5t-69.5 -29t-69.5 29t-29 69.5t29 69.5zM184 0v946h123v-946h-123z" />
    <glyph glyph-name="eth" unicode="&#xf0;" horiz-adv-x="1216" 
d="M326 1511l106 62q112 -75 195 -164l213 115l73 -62l-217 -116q410 -374 410 -822q0 -248 -137 -397q-140 -152 -361 -152q-217 0 -356 142q-141 141 -141 356q0 217 141 358q140 140 356 140q180 0 305 -113l5 4q-151 263 -330 424l-219 -117l-64 68l213 115
q-95 83 -192 159zM338 752q-105 -111 -105 -279t105 -276q105 -111 270 -111q166 0 271 111q104 107 104 276t-104 279q-108 108 -273 108q-163 0 -268 -108z" />
    <glyph glyph-name="ntilde" unicode="&#xf1;" horiz-adv-x="1138" 
d="M434 1399q58 0 152 -49q95 -50 131 -50q74 0 98 99h74q-13 -99 -58.5 -154t-113.5 -55q-56 0 -154 49t-135 49q-80 0 -104 -98h-74q11 88 63.5 148.5t120.5 60.5zM614 971q361 0 361 -412v-559h-123v553q0 307 -238 307q-150 0 -238.5 -104.5t-88.5 -286.5v-469h-123v690
q0 2 -0.5 17t-1.5 46t-2 66q-6 120 -6 127h122q6 -157 9 -166h6q41 86 130 138.5t193 52.5z" />
    <glyph glyph-name="ograve" unicode="&#xf2;" horiz-adv-x="1216" 
d="M350 1450h164l213 -295h-102zM608 971q216 0 359 -140q139 -142 139 -358q0 -214 -139 -356t-359 -142q-217 0 -356 142q-141 138 -141 356q0 216 139 358q140 140 358 140zM340 752q-107 -110 -107 -279q0 -168 105 -276q105 -111 270 -111q166 0 271 111
q104 107 104 276t-104 279q-108 108 -273 108q-161 0 -266 -108z" />
    <glyph glyph-name="oacute" unicode="&#xf3;" horiz-adv-x="1216" 
d="M702 1450h164l-274 -295h-103zM608 971q216 0 359 -140q139 -142 139 -358q0 -214 -139 -356t-359 -142q-217 0 -356 142q-141 138 -141 356q0 216 139 358q140 140 358 140zM340 752q-107 -110 -107 -279q0 -168 105 -276q105 -111 270 -111q166 0 271 111
q104 107 104 276t-104 279q-108 108 -273 108q-161 0 -266 -108z" />
    <glyph glyph-name="ocircumflex" unicode="&#xf4;" horiz-adv-x="1216" 
d="M537 1450h143l221 -295h-133l-166 221l-166 -221h-121zM608 971q216 0 359 -140q139 -142 139 -358q0 -214 -139 -356t-359 -142q-217 0 -356 142q-141 138 -141 356q0 216 139 358q140 140 358 140zM340 752q-107 -110 -107 -279q0 -168 105 -276q105 -111 270 -111
q166 0 271 111q104 107 104 276t-104 279q-108 108 -273 108q-161 0 -266 -108z" />
    <glyph glyph-name="otilde" unicode="&#xf5;" horiz-adv-x="1216" 
d="M473 1399q56 0 150 -49q95 -50 133 -50q74 0 98 99h74q-13 -99 -58.5 -154t-113.5 -55q-56 0 -154 49t-135 49q-81 0 -105 -98h-73q11 88 63.5 148.5t120.5 60.5zM608 971q216 0 359 -140q139 -142 139 -358q0 -214 -139 -356t-359 -142q-217 0 -356 142
q-141 138 -141 356q0 216 139 358q140 140 358 140zM340 752q-107 -110 -107 -279q0 -168 105 -276q105 -111 270 -111q166 0 271 111q104 107 104 276t-104 279q-108 108 -273 108q-161 0 -266 -108z" />
    <glyph glyph-name="odieresis" unicode="&#xf6;" horiz-adv-x="1216" 
d="M344 1405q29 29 69.5 29t69.5 -29t29 -69.5t-29 -69.5t-69.5 -29t-69.5 29t-29 69.5t29 69.5zM733 1405q29 29 69.5 29t69.5 -29t29 -69.5t-29 -69.5t-69.5 -29t-69.5 29t-29 69.5t29 69.5zM608 971q216 0 359 -140q139 -142 139 -358q0 -214 -139 -356t-359 -142
q-217 0 -356 142q-141 138 -141 356q0 216 139 358q140 140 358 140zM340 752q-107 -110 -107 -279q0 -168 105 -276q105 -111 270 -111q166 0 271 111q104 107 104 276t-104 279q-108 108 -273 108q-161 0 -266 -108z" />
    <glyph glyph-name="divide" unicode="&#xf7;" horiz-adv-x="1363" 
d="M608 1010q31 31 74 31t74 -31t31 -74t-31 -74q-32 -31 -73.5 -31t-72.5 31q-32 31 -32.5 74t30.5 74zM160 670h1044v-99h-1044v99zM682 410q33 0 58.5 -19t37 -45.5t7 -58.5t-28.5 -56t-55.5 -29t-58.5 6.5t-45.5 37.5t-18.5 59q0 43 32 74t72 31z" />
    <glyph glyph-name="oslash" unicode="&#xf8;" horiz-adv-x="1216" 
d="M930 862l141 144l66 -60l-146 -145q115 -127 115 -328q0 -214 -139 -356t-359 -142q-197 0 -323 111l-140 -141l-65 59l143 146q-112 133 -112 323q0 216 139 358q140 140 358 140q186 0 322 -109zM233 473q0 -142 74 -237l539 542q-94 82 -240 82q-163 0 -268 -108
q-105 -111 -105 -279zM907 715l-538 -545q96 -84 239 -84q166 0 271 111q104 107 104 276q0 148 -76 242z" />
    <glyph glyph-name="ugrave" unicode="&#xf9;" horiz-adv-x="1138" 
d="M311 1450h164l213 -295h-102zM514 -25q-360 0 -360 412v559h122v-553q0 -307 238 -307q150 0 239 104.5t89 286.5v469h123v-690q0 -9 6 -129q1 -35 2 -65.5t1.5 -45t0.5 -16.5h-123q-6 161 -8 166h-6q-41 -86 -130.5 -138.5t-193.5 -52.5z" />
    <glyph glyph-name="uacute" unicode="&#xfa;" horiz-adv-x="1138" 
d="M664 1450h163l-274 -295h-102zM514 -25q-360 0 -360 412v559h122v-553q0 -307 238 -307q150 0 239 104.5t89 286.5v469h123v-690q0 -9 6 -129q1 -35 2 -65.5t1.5 -45t0.5 -16.5h-123q-6 161 -8 166h-6q-41 -86 -130.5 -138.5t-193.5 -52.5z" />
    <glyph glyph-name="ucircumflex" unicode="&#xfb;" horiz-adv-x="1138" 
d="M498 1450h143l221 -295h-133l-166 221l-166 -221h-121zM514 -25q-360 0 -360 412v559h122v-553q0 -307 238 -307q150 0 239 104.5t89 286.5v469h123v-690q0 -9 6 -129q1 -35 2 -65.5t1.5 -45t0.5 -16.5h-123q-6 161 -8 166h-6q-41 -86 -130.5 -138.5t-193.5 -52.5z" />
    <glyph glyph-name="udieresis" unicode="&#xfc;" horiz-adv-x="1138" 
d="M305 1405q29 29 69.5 29t69.5 -29t29 -69.5t-29 -69.5t-69.5 -29t-69.5 29t-29 69.5t29 69.5zM694 1405q29 29 70 29t70 -29t29 -69.5t-29 -69.5t-70 -29t-70 29t-29 69.5t29 69.5zM514 -25q-360 0 -360 412v559h122v-553q0 -307 238 -307q150 0 239 104.5t89 286.5v469
h123v-690q0 -9 6 -129q1 -35 2 -65.5t1.5 -45t0.5 -16.5h-123q-6 161 -8 166h-6q-41 -86 -130.5 -138.5t-193.5 -52.5z" />
    <glyph glyph-name="yacute" unicode="&#xfd;" horiz-adv-x="948" 
d="M573 1450h164l-274 -295h-103zM31 946h137l313 -796l305 796h132l-486 -1235q-80 -203 -262 -203q-53 0 -121 19l12 115q77 -23 111 -23q97 0 156 152l88 225z" />
    <glyph glyph-name="thorn" unicode="&#xfe;" horiz-adv-x="1251" 
d="M137 -467v2015h123v-768h4q49 87 154 139t225 52q213 0 356 -140q142 -142 142 -358t-137 -356q-139 -142 -361 -142q-120 0 -224 52t-155 139h-4v-633h-123zM248 473q0 -158 114 -272q115 -115 281 -115q165 0 270 111t105 276q0 171 -105 279q-108 108 -272 108
t-276 -112q-117 -114 -117 -275z" />
    <glyph glyph-name="ydieresis" unicode="&#xff;" horiz-adv-x="948" 
d="M211 1405q29 29 69.5 29t69.5 -29t29 -69.5t-29 -69.5t-69.5 -29t-69.5 29t-29 69.5t29 69.5zM600 1405q29 29 69.5 29t69.5 -29t29 -69.5t-29 -69.5t-69.5 -29t-69.5 29t-29 69.5t29 69.5zM31 946h137l313 -796l305 796h132l-486 -1235q-80 -203 -262 -203
q-53 0 -121 19l12 115q77 -23 111 -23q97 0 156 152l88 225z" />
    <glyph glyph-name="dotlessi" unicode="&#x131;" horiz-adv-x="491" 
d="M184 0v946h123v-946h-123z" />
    <glyph glyph-name="Lslash" unicode="&#x141;" horiz-adv-x="1024" 
d="M199 1450h135v-733l442 387v-127l-442 -387v-467h676v-123h-811v473l-148 -131v133l148 129v846z" />
    <glyph glyph-name="lslash" unicode="&#x142;" horiz-adv-x="491" 
d="M184 801v747h123v-624l172 176v-137l-172 -175v-788h-123v664l-172 -175v138z" />
    <glyph glyph-name="OE" unicode="&#x152;" horiz-adv-x="1933" 
d="M909 1450h887v-123h-606v-516h571v-123h-571v-565h622v-123h-964q-311 0 -518 207q-209 206 -209 518q0 332 227 528q229 197 561 197zM256 725q0 -276 188 -440q186 -162 455 -162h156v1204h-158q-265 0 -453 -164t-188 -438z" />
    <glyph glyph-name="oe" unicode="&#x153;" horiz-adv-x="1857" 
d="M561 971q283 0 408 -236q50 113 146.5 174.5t223.5 61.5q198 0 313 -120t115 -339v-70h-729v-18q0 -153 90 -245.5t238 -92.5q176 0 272 152l97 -70q-80 -104 -169 -148.5t-218 -44.5q-284 0 -375 234h-4q-120 -234 -408 -234q-208 0 -340 144q-131 143 -131 354t131 354
q132 144 340 144zM313 750q-100 -112 -100 -277t100 -274q101 -113 252 -113q155 0 254 111q96 110 96 276q0 172 -98 279q-99 108 -254 108q-149 0 -250 -110zM1038 553h607q-1 147 -81.5 227t-222.5 80q-129 0 -215.5 -86t-87.5 -221z" />
    <glyph glyph-name="Scaron" unicode="&#x160;" horiz-adv-x="1138" 
d="M494 1540l-224 295h127l170 -233l176 233h111l-217 -295h-143zM612 1487q252 0 396 -182l-117 -84q-104 143 -283 143q-147 0 -236 -75t-89 -199q0 -113 68.5 -180.5t234.5 -116.5q82 -24 123 -39t102 -39q60 -26 94 -53q135 -110 125 -291q0 -176 -127 -291
q-126 -117 -323 -117q-314 0 -471 219l129 86q108 -182 331 -182q141 0 233.5 80.5t92.5 204.5q0 126 -80 182q-80 54 -313 131q-7 2 -18 5.5t-15 4.5q-167 56 -244.5 150.5t-77.5 245.5q0 177 132 288q133 109 333 109z" />
    <glyph glyph-name="scaron" unicode="&#x161;" horiz-adv-x="872" 
d="M360 1155l-223 295h127l170 -233l176 233h111l-217 -295h-144zM422 971q241 0 332 -178l-111 -66q-71 133 -221 133q-81 0 -142 -43.5t-61 -107.5q0 -70 55.5 -105t174.5 -57q182 -33 256.5 -94.5t74.5 -184.5q0 -133 -95.5 -213t-248.5 -80q-268 0 -379 193l109 74
q35 -69 111 -112.5t163 -43.5q89 0 153 50t64 124q0 88 -84 125q-44 20 -78.5 29.5t-105.5 23.5q-164 34 -228.5 95.5t-64.5 164.5q0 122 92.5 197.5t233.5 75.5z" />
    <glyph glyph-name="Ydieresis" unicode="&#x178;" horiz-adv-x="1175" 
d="M324 1790q33 28 70.5 28t67.5 -28t30 -70t-28.5 -70t-70.5 -28q-43 0 -70.5 27.5t-27.5 70.5q0 41 29 70zM713 1790q33 28 70.5 28t67.5 -28t30 -70q0 -41 -29 -69.5t-70 -28.5q-43 0 -70.5 27.5t-27.5 70.5q0 41 29 70zM-12 1450h162l438 -688l448 688h152l-533 -825
v-625h-135v625z" />
    <glyph glyph-name="Zcaron" unicode="&#x17d;" horiz-adv-x="1138" 
d="M494 1540l-224 295h127l170 -233l176 233h111l-217 -295h-143zM59 1450h1010v-111l-854 -1216h877v-123h-1045v106l848 1221h-836v123z" />
    <glyph glyph-name="zcaron" unicode="&#x17e;" horiz-adv-x="872" 
d="M360 1155l-223 295h127l170 -233l176 233h111l-217 -295h-144zM84 946h709v-74l-566 -761h590v-111h-762v74l568 762h-539v110z" />
    <glyph glyph-name="florin" unicode="&#x192;" horiz-adv-x="1064" 
d="M817 1475q95 0 184 -62l-65 -92q-64 43 -119 43q-135 0 -172 -193l-57 -313h221v-98h-240l-147 -799q-47 -256 -293 -256q-104 0 -162 49l62 96q43 -34 108 -34q75 0 116 53t64 182l129 709h-221v98h240l59 318q26 147 101.5 223t191.5 76z" />
    <glyph glyph-name="circumflex" unicode="&#x2c6;" horiz-adv-x="491" 
d="M174 1450h143l222 -295h-133l-166 221l-166 -221h-121z" />
    <glyph glyph-name="caron" unicode="&#x2c7;" horiz-adv-x="491" 
d="M170 1155l-223 295h127l170 -233l176 233h110l-217 -295h-143z" />
    <glyph glyph-name="uni02C9" unicode="&#x2c9;" horiz-adv-x="491" 
d="M-25 1339h541v-98h-541v98z" />
    <glyph glyph-name="breve" unicode="&#x2d8;" horiz-adv-x="491" 
d="M-49 1450h86q11 -75 65.5 -117.5t141.5 -42.5q97 0 144.5 36.5t66.5 123.5h86q-13 -122 -93 -190t-206 -68q-128 0 -206.5 68.5t-84.5 189.5z" />
    <glyph glyph-name="dotaccent" unicode="&#x2d9;" horiz-adv-x="491" 
d="M182 1405q33 28 70.5 28t67.5 -28t30 -70q0 -43 -27.5 -70.5t-70.5 -27.5q-42 0 -70 28t-28 70t28 70z" />
    <glyph glyph-name="ring" unicode="&#x2da;" horiz-adv-x="491" 
d="M248 1524q75 0 131.5 -59t56.5 -138q0 -78 -56.5 -135t-131.5 -57q-78 0 -135.5 57.5t-57.5 136.5t57.5 137t135.5 58zM129 1327q0 -50 34 -84.5t83 -34.5t82.5 35t33.5 86q0 53 -33 87t-83 34q-49 0 -83 -36t-34 -87z" />
    <glyph glyph-name="ogonek" unicode="&#x2db;" horiz-adv-x="491" 
d="M201 0h92q-63 -45 -106.5 -116t-43.5 -132q0 -96 88 -96q69 0 113 47l39 -78q-76 -67 -174 -67q-86 0 -137.5 46.5t-51.5 121.5q0 130 181 274z" />
    <glyph glyph-name="tilde" unicode="&#x2dc;" horiz-adv-x="491" 
d="M111 1399q57 0 151 -49q95 -50 131 -50q75 0 99 99h73q-13 -99 -58.5 -154t-113.5 -55q-55 0 -153 49t-136 49q-80 0 -104 -98h-74q11 88 63.5 148.5t121.5 60.5z" />
    <glyph glyph-name="hungarumlaut" unicode="&#x2dd;" horiz-adv-x="491" 
d="M190 1450h164l-274 -295h-103zM489 1450h164l-274 -295h-103z" />
    <glyph glyph-name="uni0394" unicode="&#x394;" horiz-adv-x="1372" 
d="M606 1458h152l588 -1458h-1315zM680 1321l-463 -1194h932z" />
    <glyph glyph-name="uni0394" unicode="&#x3b4;" horiz-adv-x="1372" 
d="M606 1458h152l588 -1458h-1315zM680 1321l-463 -1194h932z" />
    <glyph glyph-name="uni03A9" unicode="&#x3a9;" horiz-adv-x="1523" 
d="M752 1477q271 0 462 -179q189 -183 189 -444q0 -205 -107 -360t-297 -207v-168h404v-119h-514v371q178 32 277.5 159t99.5 320q0 213 -148 358q-147 144 -368 144q-217 0 -367 -144t-150 -358q0 -192 100.5 -321t276.5 -158v-371h-514v119h404v168q-185 52 -295 211
q-109 157 -109 354q0 264 191 446q191 179 465 179z" />
    <glyph glyph-name="uni03A9" unicode="&#x3c9;" horiz-adv-x="1523" 
d="M752 1477q271 0 462 -179q189 -183 189 -444q0 -205 -107 -360t-297 -207v-168h404v-119h-514v371q178 32 277.5 159t99.5 320q0 213 -148 358q-147 144 -368 144q-217 0 -367 -144t-150 -358q0 -192 100.5 -321t276.5 -158v-371h-514v119h404v168q-185 52 -295 211
q-109 157 -109 354q0 264 191 446q191 179 465 179z" />
    <glyph glyph-name="uni03BC" unicode="&#x3bc;" horiz-adv-x="1138" 
d="M154 -467v1413h122v-565q0 -295 238 -295q150 0 239 105t89 274v481h123v-690q0 -9 6 -129q1 -35 2 -65.5t1.5 -45t0.5 -16.5h-123q-2 100 -8 166h-6q-44 -90 -131.5 -140.5t-194.5 -50.5q-148 0 -238 78v-520h-120z" />
    <glyph glyph-name="pi" unicode="&#x3c0;" horiz-adv-x="1153" 
d="M78 946h987v-96h-156v-657q0 -65 20 -90t70 -25q33 0 74 14v-74q-71 -30 -119 -30q-83 0 -117 46.5t-34 168.5v647h-475v-850h-107v850h-143v96z" />
    <glyph glyph-name="uni060C" unicode="&#x60c;" horiz-adv-x="532" 
d="M281 0h-144l158 467h121z" />
    <glyph glyph-name="uni0615" unicode="&#x615;" 
d="M94 1427q77 0 122.5 -51.5t45.5 -136.5q0 -51 -18 -106h-506v67h104v344h68v-219q76 102 184 102zM90 1360q-56 0 -104.5 -42.5t-77.5 -117.5h285q4 36 4 39q0 56 -29 88.5t-78 32.5z" />
    <glyph glyph-name="uni061B" unicode="&#x61b;" horiz-adv-x="532" 
d="M287 381h-144l158 467h121zM287 16q-29 -29 -70 -29t-70 29t-29 70t29 70t70 29t70 -29t29 -70t-29 -70z" />
    <glyph glyph-name="uni061F" unicode="&#x61f;" horiz-adv-x="948" 
d="M551 381h-123v131q0 86 -39 149.5t-127 141.5q-166 144 -166 332q0 160 105 256t272 96q156 0 263 -88.5t136 -243.5l-133 -16q-25 111 -94.5 174t-173.5 63q-110 0 -175 -67.5t-65 -180.5q0 -141 160 -286t160 -289v-172zM557 16q-29 -29 -69.5 -29t-69.5 29t-29 70
t29 70t69.5 29t69.5 -29t29 -70t-29 -70z" />
    <glyph glyph-name="uni0621" unicode="&#x621;" horiz-adv-x="966" 
d="M449 109h415v-109h-749v109h202q-98 113 -98 268t113 262q112 106 286 106q111 0 203 -32l-24 -107q-89 25 -162 25q-137 0 -219 -71t-82 -193q0 -128 115 -258z" />
    <glyph glyph-name="uni0622" unicode="&#x622;" horiz-adv-x="454" 
d="M350 1679q-45 0 -155 29q-102 27 -134 27q-49 0 -100 -39l-45 53q77 68 150 68q35 0 137 -27q110 -29 141 -29q55 0 115 54l51 -50q-59 -86 -160 -86zM289 0h-123v1548h123v-1548z" />
    <glyph glyph-name="uni0623" unicode="&#x623;" horiz-adv-x="454" 
d="M217 1726h178v-65h-327v65h79q-32 51 -32 109q0 69 47 111.5t121 42.5q37 0 94 -13l-12 -65q-38 10 -72 10q-76 0 -100.5 -56.5t24.5 -138.5zM289 0h-123v1548h123v-1548z" />
    <glyph glyph-name="uni0624" unicode="&#x624;" horiz-adv-x="1009" 
d="M477 1186h232v-82h-422v82h102q-43 67 -43 143q0 87 58 139t153 52q59 0 127 -15l-16 -80q-79 11 -95 11q-63 0 -102 -30.5t-39 -88.5q0 -63 45 -131zM514 844q176 0 273.5 -105.5t97.5 -285.5v-361q0 -215 -138 -330.5t-425 -115.5q-57 0 -82 2l-7 112q516 -27 525 283
q-104 -43 -234 -43q-191 0 -301 106.5t-110 294.5q0 191 110 316q109 127 291 127zM762 158v254q0 153 -66 233t-188 80q-120 0 -195 -85t-75 -226t80 -217t223 -76q123 0 221 37z" />
    <glyph glyph-name="uni0625" unicode="&#x625;" horiz-adv-x="454" 
d="M166 1548h123v-1548h-123v1548zM213 -446h178v-66h-328v66h78q-30 50 -30 106q0 69 46 112.5t119 43.5q48 0 97 -15l-13 -63q-38 10 -71 10q-48 0 -78.5 -26t-30.5 -70q0 -54 33 -98z" />
    <glyph glyph-name="uni0626" unicode="&#x626;" horiz-adv-x="1544" 
d="M334 631h231v-82h-422v82h103q-43 67 -43 143q0 87 58 139t153 52q60 0 127 -15l-17 -80q-82 11 -94 11q-63 0 -102 -30.5t-39 -88.5q0 -63 45 -131zM899 537q0 -28 9.5 -53.5t31.5 -48.5t41.5 -40t57 -38t60 -33t67 -33.5t63.5 -30.5q79 -41 128.5 -104.5t49.5 -139.5
q0 -161 -176 -256q-181 -96 -475 -96q-662 0 -662 424q0 115 47 264l115 -30q-37 -136 -37 -220q0 -164 132.5 -240.5t404.5 -76.5q245 0 385.5 59t140.5 158q0 33 -18.5 62.5t-57.5 57t-72.5 47t-92.5 50t-89 47.5q-80 46 -130 114t-50 150q0 138 107 226t288 88
q89 0 219 -31l-22 -117q-119 29 -201 29q-122 0 -193 -51.5t-71 -136.5z" />
    <glyph glyph-name="uni0627" unicode="&#x627;" horiz-adv-x="454" 
d="M289 0h-123v1548h123v-1548z" />
    <glyph glyph-name="uni0628" unicode="&#x628;" horiz-adv-x="1890" 
d="M1642 403v418h123v-467q0 -162 -103.5 -258t-289.5 -96h-807q-222 0 -346.5 102t-124.5 283q0 137 66 320l114 -31q-55 -177 -55 -268q0 -289 363 -289h776q147 0 215.5 68.5t68.5 217.5zM901 -184q50 0 70.5 -42t0 -84t-70.5 -42q-53 0 -75 42t0 84t75 42z" />
    <glyph glyph-name="uni0629" unicode="&#x629;" horiz-adv-x="1034" 
d="M356 1085q-36 0 -60 24t-24 60t24 60t60 24q51 5 72.5 -39.5t0 -89t-72.5 -39.5zM629 1085q-53 -5 -75.5 39.5t0 89t75.5 39.5q50 5 71 -39.5t0 -89t-71 -39.5zM496 -10q-195 0 -304.5 111t-109.5 294q0 189 111 318q108 129 303 129q194 0 305 -129q108 -132 108 -318
q0 -184 -111 -294.5t-302 -110.5zM500 111q136 0 210 73.5t74 214.5q0 149 -75.5 236.5t-212.5 87.5q-138 0 -213.5 -87.5t-75.5 -236.5q0 -143 76.5 -215.5t216.5 -72.5z" />
    <glyph glyph-name="uni062A" unicode="&#x62a;" horiz-adv-x="1890" 
d="M782 885q-36 0 -60 24t-24 60t24 60t60 24q51 5 72.5 -39.5t0 -89t-72.5 -39.5zM1055 885q-53 -5 -75.5 39.5t0 89t75.5 39.5q50 5 71 -39.5t0 -89t-71 -39.5zM1642 403v418h123v-467q0 -162 -103.5 -258t-289.5 -96h-807q-222 0 -346.5 102t-124.5 283q0 137 66 320
l114 -31q-55 -177 -55 -268q0 -289 363 -289h776q147 0 215.5 68.5t68.5 217.5z" />
    <glyph glyph-name="uni062B" unicode="&#x62b;" horiz-adv-x="1890" 
d="M924 1094q-37 0 -60.5 24.5t-23.5 61.5q0 36 24 60t60 24q35 0 58.5 -24.5t23.5 -59.5q0 -37 -23.5 -61.5t-58.5 -24.5zM782 891q-36 0 -60 24t-24 60q0 35 24.5 59.5t59.5 24.5q36 0 60 -24t24 -60q0 -37 -23.5 -60.5t-60.5 -23.5zM969 975q0 35 24.5 59.5t61.5 24.5
q35 0 58.5 -24.5t23.5 -59.5q0 -37 -23.5 -60.5t-58.5 -23.5q-37 0 -61.5 23.5t-24.5 60.5zM1642 403v418h123v-467q0 -162 -103.5 -258t-289.5 -96h-807q-222 0 -346.5 102t-124.5 283q0 137 66 320l114 -31q-55 -177 -55 -268q0 -289 363 -289h776q147 0 215.5 68.5
t68.5 217.5z" />
    <glyph glyph-name="uni062C" unicode="&#x62c;" horiz-adv-x="1249" 
d="M600 842q248 0 381 -143t133 -394q0 -143 -43 -305h-633q-109 0 -170 -52.5t-61 -148.5q0 -102 71.5 -156.5t202.5 -54.5q61 0 129 15l25 -117q-70 -18 -168 -18q-174 0 -279.5 88.5t-105.5 240.5q0 148 93 234t251 86h545q24 91 24 180q0 198 -107.5 312t-305.5 114
q-100 0 -234 -41l-31 111q131 49 283 49zM526 -139q40 37 86.5 16.5t46.5 -72.5q0 -35 -21 -56t-54 -21q-34 0 -57.5 23.5t-23.5 53t23 56.5z" />
    <glyph glyph-name="uni062D" unicode="&#x62d;" horiz-adv-x="1249" 
d="M1071 0h-633q-109 0 -170 -52.5t-61 -148.5q0 -102 71.5 -156.5t202.5 -54.5q75 0 191 29l22 -113q-112 -36 -227 -36q-174 0 -279.5 88.5t-105.5 240.5q0 148 93 234t251 86h545q24 91 24 180q0 198 -107.5 312t-305.5 114q-100 0 -234 -41l-31 111q131 49 283 49
q248 0 381 -143t133 -394q0 -143 -43 -305z" />
    <glyph glyph-name="uni062E" unicode="&#x62e;" horiz-adv-x="1249" 
d="M600 1085q-53 0 -75 42t0 84t75 42q50 0 70.5 -42t0 -84t-70.5 -42zM1071 0h-633q-109 0 -170 -52.5t-61 -148.5q0 -102 71.5 -156.5t202.5 -54.5q75 0 191 29l22 -113q-112 -36 -227 -36q-174 0 -279.5 88.5t-105.5 240.5q0 148 93 234t251 86h545q24 91 24 180
q0 198 -107.5 312t-305.5 114q-100 0 -234 -41l-31 111q131 49 283 49q248 0 381 -143t133 -394q0 -143 -43 -305z" />
    <glyph glyph-name="uni062F" unicode="&#x62f;" horiz-adv-x="1040" 
d="M905 0h-823v117h700v45q0 347 -422 620l74 99q262 -173 367 -349q104 -174 104 -407v-125z" />
    <glyph glyph-name="uni0630" unicode="&#x630;" horiz-adv-x="1040" 
d="M393 1077q-53 0 -75 42t0 84t75 42q50 0 70.5 -42t0 -84t-70.5 -42zM905 0h-823v117h700v45q0 347 -422 620l74 99q262 -173 367 -349q104 -174 104 -407v-125z" />
    <glyph glyph-name="uni0631" unicode="&#x631;" horiz-adv-x="585" 
d="M16 -352l-24 114q163 26 234 113.5t71 265.5v680h123v-655q0 -465 -404 -518z" />
    <glyph glyph-name="uni0632" unicode="&#x632;" horiz-adv-x="585" 
d="M360 1065q-53 0 -75 42t0 84t75 42q50 0 70.5 -42t0 -84t-70.5 -42zM16 -352l-24 114q163 26 234 113.5t71 265.5v680h123v-655q0 -465 -404 -518z" />
    <glyph glyph-name="uni0633" unicode="&#x633;" horiz-adv-x="2441" 
d="M2193 403v418h123v-467q0 -168 -91.5 -261t-256.5 -93q-213 0 -287 152q-83 -156 -297 -156q-151 0 -221 94q-20 -205 -161.5 -315.5t-376.5 -110.5q-250 0 -390.5 125.5t-140.5 337.5q0 159 84 362l109 -38q-68 -171 -68 -310q0 -176 106 -266t304 -90q413 0 413 399
v488h123v-350q0 -205 219 -205q116 0 173 64.5t57 209.5v281h123v-340q0 -215 229 -215q119 0 173 67.5t54 218.5z" />
    <glyph glyph-name="uni0634" unicode="&#x634;" horiz-adv-x="2441" 
d="M1679 1124q-37 0 -60.5 24.5t-23.5 61.5q0 36 24 60t60 24q35 0 58.5 -24.5t23.5 -59.5q0 -37 -23.5 -61.5t-58.5 -24.5zM1538 922q-36 0 -60 24t-24 60q0 35 24.5 59.5t59.5 24.5q36 0 60 -24t24 -60q0 -37 -23.5 -60.5t-60.5 -23.5zM1724 1006q0 35 24.5 59.5
t61.5 24.5q35 0 58.5 -24.5t23.5 -59.5q0 -37 -23.5 -60.5t-58.5 -23.5q-37 0 -61.5 23.5t-24.5 60.5zM2193 403v418h123v-467q0 -168 -91.5 -261t-256.5 -93q-213 0 -287 152q-83 -156 -297 -156q-151 0 -221 94q-20 -205 -161.5 -315.5t-376.5 -110.5q-250 0 -390.5 125.5
t-140.5 337.5q0 159 84 362l109 -38q-68 -171 -68 -310q0 -176 106 -266t304 -90q413 0 413 399v488h123v-350q0 -205 219 -205q116 0 173 64.5t57 209.5v281h123v-340q0 -215 229 -215q119 0 173 67.5t54 218.5z" />
    <glyph glyph-name="uni0635" unicode="&#x635;" horiz-adv-x="2719" 
d="M2148 842q207 0 322 -133.5t115 -360.5q0 -168 -64 -348h-1130q-152 0 -230 72q-26 -197 -166.5 -302.5t-369.5 -105.5q-250 0 -390.5 125.5t-140.5 337.5q0 159 84 362l109 -38q-68 -171 -68 -310q0 -176 106 -266t304 -90q413 0 413 399v488h123v-379q0 -132 131 -166
q108 203 228 352t233 226q205 137 391 137zM1425 117h998q37 118 37 225q0 173 -86 277t-238 104q-178 0 -361.5 -152t-349.5 -454z" />
    <glyph glyph-name="uni0636" unicode="&#x636;" horiz-adv-x="2719" 
d="M1968 1085q-53 0 -75 42t0 84t75 42q50 0 70.5 -42t0 -84t-70.5 -42zM2148 842q207 0 322 -133.5t115 -360.5q0 -168 -64 -348h-1130q-152 0 -230 72q-26 -197 -166.5 -302.5t-369.5 -105.5q-250 0 -390.5 125.5t-140.5 337.5q0 159 84 362l109 -38q-68 -171 -68 -310
q0 -176 106 -266t304 -90q413 0 413 399v488h123v-379q0 -132 131 -166q108 203 228 352t233 226q205 137 391 137zM1425 117h998q37 118 37 225q0 173 -86 277t-238 104q-178 0 -361.5 -152t-349.5 -454z" />
    <glyph glyph-name="uni0637" unicode="&#x637;" horiz-adv-x="1742" 
d="M1174 842q207 0 320.5 -134.5t113.5 -359.5q0 -168 -62 -348h-1452v117h232v1431h123v-1220q153 249 343 381.5t382 132.5zM451 117h997q37 118 37 231q0 172 -85 273.5t-237 101.5q-176 0 -372 -158q-198 -160 -340 -448z" />
    <glyph glyph-name="uni0638" unicode="&#x638;" horiz-adv-x="1742" 
d="M1174 842q207 0 320.5 -134.5t113.5 -359.5q0 -168 -62 -348h-1452v117h232v1431h123v-1220q153 249 343 381.5t382 132.5zM1030 1085q-53 0 -75 42t0 84t75 42q50 0 70.5 -42t0 -84t-70.5 -42zM451 117h997q37 118 37 231q0 172 -85 273.5t-237 101.5q-176 0 -372 -158
q-198 -160 -340 -448z" />
    <glyph glyph-name="uni0639" unicode="&#x639;" horiz-adv-x="1044" 
d="M975 0h-514q-119 0 -186.5 -52.5t-67.5 -146.5q0 -104 74.5 -158.5t207.5 -54.5q91 0 183 25l22 -113q-97 -32 -209 -32q-190 0 -296.5 86.5t-106.5 244.5q0 127 79.5 210.5t215.5 103.5q-127 157 -127 333t123 287q121 109 334 109q103 0 221 -31l-25 -117
q-122 29 -198 29q-151 0 -238.5 -77.5t-87.5 -207.5q0 -171 141 -321h455v-117z" />
    <glyph glyph-name="uni063A" unicode="&#x63a;" horiz-adv-x="1044" 
d="M707 1085q-53 0 -75 42t0 84t75 42q50 0 70.5 -42t0 -84t-70.5 -42zM975 0h-514q-119 0 -186.5 -52.5t-67.5 -146.5q0 -104 74.5 -158.5t207.5 -54.5q91 0 183 25l22 -113q-97 -32 -209 -32q-190 0 -296.5 86.5t-106.5 244.5q0 127 79.5 210.5t215.5 103.5
q-127 157 -127 333t123 287q121 109 334 109q103 0 221 -31l-25 -117q-122 29 -198 29q-151 0 -238.5 -77.5t-87.5 -207.5q0 -171 141 -321h455v-117z" />
    <glyph glyph-name="uni0640" unicode="&#x640;" horiz-adv-x="106" 
d="M106 0h-106v117h106q41 0 41 -58q0 -59 -41 -59z" />
    <glyph glyph-name="uni0641" unicode="&#x641;" horiz-adv-x="2117" 
d="M1610 1085q-53 0 -75 42t0 84t75 42q50 0 70.5 -42t0 -84t-70.5 -42zM1610 842q185 0 284 -119.5t99 -319.5q0 -171 -90 -403h-1338q-222 0 -346.5 102t-124.5 283q0 137 66 320l114 -31q-55 -177 -55 -268q0 -289 363 -289h712q-114 120 -114 299q0 187 120 307
q119 119 310 119zM1436 117h381q49 154 49 280q0 154 -69.5 240t-197.5 86q-132 0 -212 -85.5t-80 -223.5q0 -162 129 -297z" />
    <glyph glyph-name="uni0642" unicode="&#x642;" horiz-adv-x="1574" 
d="M942 1085q-36 0 -60 24t-24 60t24 60t60 24q51 5 72.5 -39.5t0 -89t-72.5 -39.5zM1214 1085q-53 -5 -75.5 39.5t0 89t75.5 39.5q50 5 71 -39.5t0 -89t-71 -39.5zM791 -336q-697 0 -697 475q0 121 47 267l115 -31q-37 -112 -37 -219q0 -187 139.5 -279t432.5 -92
q519 0 534 258q-107 -43 -235 -43q-191 0 -301.5 106.5t-110.5 294.5q0 191 110 316q107 125 293 125q174 0 271.5 -112.5t97.5 -301.5v-313q0 -229 -161 -340t-498 -111zM1106 121q128 0 221 37v239q0 157 -63.5 241.5t-188.5 84.5q-120 0 -195 -84t-75 -225t79.5 -217
t221.5 -76z" />
    <glyph glyph-name="uni0643" unicode="&#x643;" horiz-adv-x="1691" 
d="M1403 403v1145h123v-1194q0 -354 -377 -354h-584q-222 0 -346.5 102t-124.5 283q0 137 66 320l114 -31q-55 -177 -55 -268q0 -289 363 -289h567q140 0 197 65t57 221zM840 731h194v-80h-399v80h113q-39 56 -39 125q0 81 56.5 134.5t147.5 53.5q43 0 99 -16l-17 -78
q-43 15 -80 15q-57 0 -90.5 -30t-33.5 -85q0 -67 49 -119z" />
    <glyph glyph-name="uni0644" unicode="&#x644;" horiz-adv-x="1331" 
d="M618 -336q-242 0 -383 124.5t-141 338.5q0 159 84 362l109 -38q-68 -195 -68 -312q0 -175 105 -264.5t303 -89.5q415 0 415 405v1358h123v-1388q0 -231 -146.5 -363.5t-400.5 -132.5z" />
    <glyph glyph-name="uni0645" unicode="&#x645;" horiz-adv-x="1296" 
d="M782 842q183 0 287 -119q102 -120 102 -307q0 -191 -115.5 -303.5t-336.5 -112.5h-322q-194 0 -194 -203v-329h-121v329q0 152 82 236t231 84h62q-95 151 -95 299q0 188 119 307q116 119 301 119zM596 117h133q155 0 236.5 81t81.5 220t-76 222t-201 83
q-126 0 -204.5 -83t-78.5 -222q0 -136 109 -301z" />
    <glyph glyph-name="uni0646" unicode="&#x646;" horiz-adv-x="1331" 
d="M649 844q-53 0 -75 42t0 84t75 42q50 0 70.5 -42t0 -84t-70.5 -42zM625 -336q-250 0 -390.5 125.5t-140.5 337.5q0 159 84 362l109 -38q-68 -171 -68 -310q0 -176 106 -266t304 -90q413 0 413 399v488h123v-518q0 -235 -143.5 -362.5t-396.5 -127.5z" />
    <glyph glyph-name="uni0647" unicode="&#x647;" horiz-adv-x="1034" 
d="M496 -10q-195 0 -304.5 111t-109.5 294q0 189 111 318q108 129 303 129q194 0 305 -129q108 -132 108 -318q0 -184 -111 -294.5t-302 -110.5zM500 111q136 0 210 73.5t74 214.5q0 149 -75.5 236.5t-212.5 87.5q-138 0 -213.5 -87.5t-75.5 -236.5q0 -143 76.5 -215.5
t216.5 -72.5z" />
    <glyph glyph-name="uni0648" unicode="&#x648;" horiz-adv-x="1009" 
d="M240 -352l-7 112q516 -27 525 283q-104 -43 -234 -43q-191 0 -301 106.5t-110 294.5q0 191 110 316q109 127 291 127q176 0 273.5 -105.5t97.5 -285.5v-361q0 -215 -138 -330.5t-425 -115.5q-57 0 -82 2zM541 121q123 0 221 37v254q0 153 -66 233t-188 80
q-120 0 -195 -85t-75 -226t80 -217t223 -76z" />
    <glyph glyph-name="uni0649" unicode="&#x649;" horiz-adv-x="1544" 
d="M756 -336q-662 0 -662 424q0 115 47 264l115 -30q-37 -136 -37 -220q0 -164 132.5 -240.5t404.5 -76.5q245 0 385.5 59t140.5 158q0 33 -18.5 62.5t-57.5 57t-72.5 47t-92.5 50t-89 47.5q-80 46 -130 114t-50 150q0 138 107 226t288 88q89 0 219 -31l-22 -117
q-119 29 -201 29q-122 0 -193 -51.5t-71 -136.5q0 -28 9.5 -53.5t31.5 -48.5t41.5 -40t57 -38t60 -33t67 -33.5t63.5 -30.5q79 -41 128.5 -104.5t49.5 -139.5q0 -161 -176 -256q-181 -96 -475 -96z" />
    <glyph glyph-name="uni064A" unicode="&#x64a;" horiz-adv-x="1544" 
d="M756 -336q-662 0 -662 424q0 115 47 264l115 -30q-37 -136 -37 -220q0 -164 132.5 -240.5t404.5 -76.5q245 0 385.5 59t140.5 158q0 33 -18.5 62.5t-57.5 57t-72.5 47t-92.5 50t-89 47.5q-80 46 -130 114t-50 150q0 138 107 226t288 88q89 0 219 -31l-22 -117
q-119 29 -201 29q-122 0 -193 -51.5t-71 -136.5q0 -28 9.5 -53.5t31.5 -48.5t41.5 -40t57 -38t60 -33t67 -33.5t63.5 -30.5q79 -41 128.5 -104.5t49.5 -139.5q0 -161 -176 -256q-181 -96 -475 -96zM610 -688q-36 0 -60 24t-24 60t24 60t60 24q51 5 72.5 -39.5t0 -89
t-72.5 -39.5zM883 -688q-53 -5 -75.5 39.5t0 89t75.5 39.5q50 5 71 -39.5t0 -89t-71 -39.5z" />
    <glyph glyph-name="uni064B" unicode="&#x64b;" 
d="M227 1370l-458 -70l-7 3l11 65l458 70l7 -2zM227 1184l-458 -70l-7 2l11 66l458 69l7 -2z" />
    <glyph glyph-name="uni064C" unicode="&#x64c;" 
d="M57 1520q29 36 69 42.5t74.5 -12t57 -63t18.5 -103.5q0 -110 -62 -184t-146 -74q-35 0 -70 23t-58 51t-47 51t-38 23q-36 0 -88 -70l-43 39q64 94 135 94q46 0 108 -71q65 -74 105 -74q87 0 127 104q-32 -4 -41 -4q-64 0 -103 31.5t-39 89.5q0 60 41 107zM170 1356
q7 0 43 4q2 6 2 24q0 115 -68 115q-30 0 -50.5 -23.5t-20.5 -56.5q0 -63 94 -63z" />
    <glyph glyph-name="uni064D" unicode="&#x64d;" 
d="M225 -256l-458 -70l-7 2l11 66l458 70l7 -2zM225 -420l-458 -69l-7 2l11 65l458 70l7 -2z" />
    <glyph glyph-name="uni064E" unicode="&#x64e;" 
d="M227 1184l-458 -70l-7 2l11 66l458 69l7 -2z" />
    <glyph glyph-name="uni064F" unicode="&#x64f;" 
d="M-57 1520q30 36 70.5 42.5t74.5 -12t57 -63t19 -103.5q0 -118 -61 -188t-152 -70q-61 0 -115 31l29 57q42 -22 86 -22q95 0 135 104q-32 -4 -41 -4q-64 0 -102.5 31.5t-38.5 89.5q0 62 39 107zM57 1356q7 0 43 4q2 6 2 24q0 51 -18.5 83t-50.5 32q-30 0 -50 -23.5
t-20 -56.5q0 -63 94 -63z" />
    <glyph glyph-name="uni0650" unicode="&#x650;" 
d="M227 -256l-458 -70l-7 2l11 66l458 70l7 -2z" />
    <glyph glyph-name="uni0651" unicode="&#x651;" 
d="M154 1382l49 21q28 -61 29 -117.5t-32 -96.5t-89 -40q-64 0 -99 35q-34 -58 -108 -58q-63 0 -99 35.5t-36 95.5q0 50 20 97l49 -15q-10 -30 -10 -61q0 -80 76 -80q67 0 67 80q0 23 -6 47l51 12q13 -47 13 -77v-11q25 -32 77 -32q66 0 66 71q0 44 -18 94z" />
    <glyph glyph-name="uni0652" unicode="&#x652;" 
d="M100 1157q-37 -35 -100 -35t-100 35q-35 35 -35 98.5t37 112.5q38 50 98 50t98 -50q37 -49 37 -112.5t-35 -98.5zM0 1188q68 0 68 72q0 38 -19 64t-49 26q-31 0 -50.5 -25.5t-19.5 -64.5q0 -72 70 -72z" />
    <glyph glyph-name="uni0653" unicode="&#x653;" 
d="M137 1133q-48 0 -157 28q-102 27 -132 27q-49 0 -100 -39l-45 53q77 68 150 68q35 0 137 -27q110 -29 141 -29q55 0 115 54l51 -49q-59 -86 -160 -86z" />
    <glyph glyph-name="uni0654" unicode="&#x654;" 
d="M-14 1180h178v-66h-328v66h80q-33 53 -33 108q0 69 47 111.5t121 42.5q41 0 94 -12l-12 -66q-38 10 -72 10q-76 0 -100 -56t25 -138z" />
    <glyph glyph-name="uni0655" unicode="&#x655;" 
d="M-14 -446h178v-66h-328v66h78q-31 51 -31 106q0 69 46.5 112.5t119.5 43.5q43 0 96 -15l-12 -63q-38 10 -72 10q-48 0 -78 -26t-30 -70q0 -54 33 -98z" />
    <glyph glyph-name="uni0656" unicode="&#x656;" 
d="M-23 -567h-10v358h66v-338z" />
    <glyph glyph-name="uni0658" unicode="&#x658;" 
d="M-125 1362l59 -21q-22 -61 -22 -98q0 -82 92 -82q84 0 84 99v104h68v-104q0 -78 -40 -122t-112 -44q-74 0 -117 38t-43 105q0 58 31 125z" />
    <glyph glyph-name="uni0660" unicode="&#x660;" horiz-adv-x="1105" 
d="M682 602l-129 -129l-131 131l131 125z" />
    <glyph glyph-name="uni0661" unicode="&#x661;" horiz-adv-x="1105" 
d="M614 0h-122v1337h122v-1337z" />
    <glyph glyph-name="uni0662" unicode="&#x662;" horiz-adv-x="1105" 
d="M809 1329l123 8q17 -246 -63.5 -360.5t-274.5 -114.5q-126 0 -275 64v-926h-122v1337h122v-295q149 -67 277 -67q130 0 180 84t33 270z" />
    <glyph glyph-name="uni0663" unicode="&#x663;" horiz-adv-x="1105" 
d="M926 1329l123 8q37 -444 -254 -444q-108 0 -238 53q-65 -53 -158 -53q-97 0 -182 33v-926h-123v1337h123v-305q86 -28 158 -28q97 0 134.5 77.5t20.5 247.5l123 8q15 -202 -32 -305q89 -28 151 -28q95 0 133 78.5t21 246.5z" />
    <glyph glyph-name="uni0664" unicode="&#x664;" horiz-adv-x="1105" 
d="M932 117l6 -113q-170 -16 -252 -16q-242 0 -370 78.5t-128 234.5q0 124 85 224.5t239 160.5q-116 37 -186 109.5t-70 173.5q0 176 152 274t413 98q31 0 47 -2v-114q-226 11 -356.5 -56t-130.5 -202q0 -117 120.5 -173.5t334.5 -33.5v-117q-251 -23 -387 -109.5
t-136 -211.5q0 -218 389 -218q71 0 230 13z" />
    <glyph glyph-name="uni0665" unicode="&#x665;" horiz-adv-x="1105" 
d="M989 545q0 -561 -436 -561t-436 561q0 391 131 592q129 202 305 202q178 0 307 -202q129 -203 129 -592zM244 549q0 -447 309 -447t309 447q0 309 -92 491q-94 181 -217 181q-124 0 -215 -181q-94 -181 -94 -491z" />
    <glyph glyph-name="uni0666" unicode="&#x666;" horiz-adv-x="1105" 
d="M866 0h-123v1223h-645v114h768v-1337z" />
    <glyph glyph-name="uni0667" unicode="&#x667;" horiz-adv-x="1105" 
d="M553 176l387 1174l131 -41l-448 -1309h-138l-450 1313l129 37z" />
    <glyph glyph-name="uni0668" unicode="&#x668;" horiz-adv-x="1105" 
d="M618 1335l453 -1312l-131 -37l-387 1167l-389 -1167l-129 39l448 1310h135z" />
    <glyph glyph-name="uni0669" unicode="&#x669;" horiz-adv-x="1105" 
d="M578 1337h307v-1337h-123v578q-279 -24 -449 65t-170 293q0 186 117 293.5t318 107.5zM268 936q0 -150 144 -209q142 -62 350 -35v531h-158q-158 0 -247 -76t-89 -211z" />
    <glyph glyph-name="uni066A" unicode="&#x66a;" horiz-adv-x="1165" 
d="M444 1212l-137 -135l-137 137l137 136zM913 1315l-596 -1352l-92 35l596 1352zM999 135l-137 -135l-135 137l135 133z" />
    <glyph glyph-name="uni066B" unicode="&#x66b;" horiz-adv-x="471" 
d="M207 152h143l-157 -467h-121z" />
    <glyph glyph-name="uni066C" unicode="&#x66c;" horiz-adv-x="403" 
d="M166 264h117l-109 -325h-102z" />
    <glyph glyph-name="uni066D" unicode="&#x66d;" horiz-adv-x="1724" 
d="M872 205l-456 -406l-49 41l231 545l-514 307l16 76l613 -76l129 590h61l121 -590l612 76l23 -76l-535 -305l250 -547l-55 -41z" />
    <glyph glyph-name="uni066E" unicode="&#x66e;" horiz-adv-x="1890" 
d="M1642 403v418h123v-467q0 -162 -103.5 -258t-289.5 -96h-807q-222 0 -346.5 102t-124.5 283q0 137 66 320l114 -31q-55 -177 -55 -268q0 -289 363 -289h776q147 0 215.5 68.5t68.5 217.5z" />
    <glyph glyph-name="uni066F" unicode="&#x66f;" horiz-adv-x="1574" 
d="M791 -336q-697 0 -697 475q0 121 47 267l115 -31q-37 -112 -37 -219q0 -187 139.5 -279t432.5 -92q519 0 534 258q-107 -43 -235 -43q-191 0 -301.5 106.5t-110.5 294.5q0 191 110 316q107 125 293 125q174 0 271.5 -112.5t97.5 -301.5v-313q0 -229 -161 -340t-498 -111z
M1106 121q128 0 221 37v239q0 157 -63.5 241.5t-188.5 84.5q-120 0 -195 -84t-75 -225t79.5 -217t221.5 -76z" />
    <glyph glyph-name="uni0670" unicode="&#x670;" 
d="M-23 1139h-10v358h66v-338z" />
    <glyph glyph-name="uni0671" unicode="&#x671;" horiz-adv-x="454" 
d="M291 1942q71 0 113 -47t42 -126q0 -59 -18 -108h-489v65h104v203h66v-94q70 107 182 107zM285 1874q-55 0 -104 -40.5t-79 -107.5h275q6 24 6 46q0 47 -27.5 74.5t-70.5 27.5zM289 0h-123v1548h123v-1548z" />
    <glyph glyph-name="uni0679" unicode="&#x679;" horiz-adv-x="1890" 
d="M1167 999q0 -51 -18 -106h-506v68h105v344h67v-220q77 103 184 103q77 0 122.5 -52t45.5 -137zM995 1120q-56 0 -104.5 -42t-77.5 -117h285q4 36 4 38q0 56 -29 88.5t-78 32.5zM1642 403v418h123v-467q0 -162 -103.5 -258t-289.5 -96h-807q-222 0 -346.5 102t-124.5 283
q0 137 66 320l114 -31q-55 -177 -55 -268q0 -289 363 -289h776q147 0 215.5 68.5t68.5 217.5z" />
    <glyph glyph-name="uni067E" unicode="&#x67e;" horiz-adv-x="1890" 
d="M1642 403v418h123v-467q0 -162 -103.5 -258t-289.5 -96h-807q-222 0 -346.5 102t-124.5 283q0 137 66 320l114 -31q-55 -177 -55 -268q0 -289 363 -289h776q147 0 215.5 68.5t68.5 217.5zM844 -268q0 -38 -23.5 -62t-60.5 -24q-36 0 -60 24t-24 62q0 35 24.5 58.5
t59.5 23.5q37 0 60.5 -23.5t23.5 -58.5zM1032 -186q35 0 58.5 -23.5t23.5 -58.5q0 -38 -23 -62t-59 -24q-37 0 -61.5 24t-24.5 62q0 35 24.5 58.5t61.5 23.5zM840 -412q28 24 60 24.5t57.5 -23.5t25.5 -60t-24 -60t-60 -24t-60 24t-24 60q0 37 25 59z" />
    <glyph glyph-name="uni0686" unicode="&#x686;" horiz-adv-x="1249" 
d="M600 842q248 0 381 -143t133 -394q0 -143 -43 -305h-633q-109 0 -170 -52.5t-61 -148.5q0 -102 71.5 -156.5t202.5 -54.5q61 0 129 15l25 -117q-70 -18 -168 -18q-174 0 -279.5 88.5t-105.5 240.5q0 148 93 234t251 86h545q24 91 24 180q0 198 -107.5 312t-305.5 114
q-100 0 -234 -41l-31 111q131 49 283 49zM590 -123q26 0 42.5 -16t16.5 -41q0 -26 -16.5 -43t-42.5 -17q-25 0 -42.5 17t-17.5 43q0 24 17.5 40.5t42.5 16.5zM780 -123q25 0 41.5 -16t16.5 -41q0 -26 -16.5 -43t-41.5 -17q-26 0 -42.5 17t-16.5 43q0 25 16.5 41t42.5 16z
M686 -262q26 0 42.5 -17t16.5 -43q0 -25 -16.5 -42t-42.5 -17q-25 0 -41 17t-16 42q0 26 16 43t41 17z" />
    <glyph glyph-name="uni0688" unicode="&#x688;" horiz-adv-x="1040" 
d="M639 1192q0 -52 -18 -107h-506v68h104v344h68v-219q77 102 184 102q77 0 122.5 -51.5t45.5 -136.5zM467 1313q-56 0 -104.5 -42.5t-77.5 -117.5h284q4 36 4 39q0 56 -28.5 88.5t-77.5 32.5zM360 782l74 99q262 -173 367 -349q104 -174 104 -407v-125h-823v117h700v45
q0 347 -422 620z" />
    <glyph glyph-name="uni0691" unicode="&#x691;" horiz-adv-x="585" 
d="M438 1368q77 0 122.5 -51.5t45.5 -136.5q0 -52 -18 -107h-506v68h104v344h68v-219q76 102 184 102zM434 1300q-56 0 -104.5 -42t-77.5 -117h285q4 36 4 39q0 56 -29 88t-78 32zM297 141v680h123v-655q0 -465 -404 -518l-24 114q163 26 234 113.5t71 265.5z" />
    <glyph glyph-name="uni0698" unicode="&#x698;" horiz-adv-x="585" 
d="M362 1274q-36 0 -59.5 24.5t-23.5 61.5q0 36 23.5 60t59.5 24q35 0 58.5 -24.5t23.5 -59.5q0 -37 -23.5 -61.5t-58.5 -24.5zM221 1071q-36 0 -60 24t-24 60q0 35 24.5 59.5t59.5 24.5q36 0 60 -24t24 -60q0 -37 -23.5 -60.5t-60.5 -23.5zM494 1071q-37 0 -61.5 23.5
t-24.5 60.5q0 35 24.5 59.5t61.5 24.5q35 0 58 -24t23 -60q0 -37 -23 -60.5t-58 -23.5zM16 -352l-24 114q163 26 234 113.5t71 265.5v680h123v-655q0 -465 -404 -518z" />
    <glyph glyph-name="uni06A1" unicode="&#x6a1;" horiz-adv-x="2117" 
d="M1610 842q185 0 284 -119.5t99 -319.5q0 -171 -90 -403h-1338q-222 0 -346.5 102t-124.5 283q0 137 66 320l114 -31q-55 -177 -55 -268q0 -289 363 -289h712q-114 120 -114 299q0 187 120 307q119 119 310 119zM1436 117h381q49 154 49 280q0 154 -69.5 240t-197.5 86
q-132 0 -212 -85.5t-80 -223.5q0 -162 129 -297z" />
    <glyph glyph-name="uni06A4" unicode="&#x6a4;" horiz-adv-x="2117" 
d="M1612 1294q-37 0 -60.5 24.5t-23.5 61.5q0 36 24 60t60 24q35 0 58.5 -24.5t23.5 -59.5q0 -37 -23.5 -61.5t-58.5 -24.5zM1470 1092q-36 0 -60 24t-24 60q0 35 24.5 59.5t59.5 24.5q36 0 60 -24t24 -60q0 -37 -23.5 -60.5t-60.5 -23.5zM1657 1176q0 35 24.5 59.5
t61.5 24.5q35 0 58.5 -24.5t23.5 -59.5q0 -37 -23.5 -60.5t-58.5 -23.5q-37 0 -61.5 23.5t-24.5 60.5zM1610 842q185 0 284 -119.5t99 -319.5q0 -171 -90 -403h-1338q-222 0 -346.5 102t-124.5 283q0 137 66 320l114 -31q-55 -177 -55 -268q0 -289 363 -289h712
q-114 120 -114 299q0 187 120 307q119 119 310 119zM1436 117h381q49 154 49 280q0 154 -69.5 240t-197.5 86q-132 0 -212 -85.5t-80 -223.5q0 -162 129 -297z" />
    <glyph glyph-name="uni06A9" unicode="&#x6a9;" horiz-adv-x="1736" 
d="M1520 1434l-537 -519q349 -115 483 -286q136 -177 136 -439v-190h-1037q-222 0 -346.5 102t-124.5 283q0 137 66 320l114 -31q-55 -177 -55 -268q0 -289 363 -289h901v94q0 231 -140 377q-139 139 -485 248v122l580 560z" />
    <glyph glyph-name="uni06AF" unicode="&#x6af;" horiz-adv-x="1736" 
d="M1282 1675l82 -82l-518 -495l-84 84zM1520 1434l-537 -519q349 -115 483 -286q136 -177 136 -439v-190h-1037q-222 0 -346.5 102t-124.5 283q0 137 66 320l114 -31q-55 -177 -55 -268q0 -289 363 -289h901v94q0 231 -140 377q-139 139 -485 248v122l580 560z" />
    <glyph glyph-name="uni06BA" unicode="&#x6ba;" horiz-adv-x="1331" 
d="M625 -336q-250 0 -390.5 125.5t-140.5 337.5q0 159 84 362l109 -38q-68 -171 -68 -310q0 -176 106 -266t304 -90q413 0 413 399v488h123v-518q0 -235 -143.5 -362.5t-396.5 -127.5z" />
    <glyph glyph-name="uni06BE" unicode="&#x6be;" horiz-adv-x="1478" 
d="M369 758l18 108q187 -15 334.5 -44t270 -79.5t203.5 -121t125 -170t44 -224.5q0 -101 -29 -227h-350q-167 0 -297 47q-121 -47 -287 -47q-183 0 -319 59l37 111q127 -53 282 -53q78 0 144 14q-68 53 -110 135t-42 176q0 97 46.5 177.5t125.5 121.5q-51 7 -196 17z
M506 446q0 -194 180 -282q91 33 147 108.5t56 176.5q0 103 -54 168t-137 65q-84 0 -138 -67.5t-54 -168.5zM961 117h276q12 59 12 123q0 289 -311 415q63 -86 63 -206q0 -97 -48.5 -183t-125.5 -137q71 -12 134 -12z" />
    <glyph glyph-name="uni06C1" unicode="&#x6c1;" horiz-adv-x="1034" 
d="M496 -10q-195 0 -304.5 111t-109.5 294q0 189 111 318q108 129 303 129q194 0 305 -129q108 -132 108 -318q0 -184 -111 -294.5t-302 -110.5zM500 111q136 0 210 73.5t74 214.5q0 149 -75.5 236.5t-212.5 87.5q-138 0 -213.5 -87.5t-75.5 -236.5q0 -143 76.5 -215.5
t216.5 -72.5z" />
    <glyph glyph-name="uni06C2" unicode="&#x6c2;" horiz-adv-x="1034" 
d="M459 1184h231v-82h-422v82h103q-43 67 -43 143q0 87 58 139t153 52q59 0 127 -15l-17 -80q-83 11 -94 11q-63 0 -102 -30.5t-39 -88.5q0 -63 45 -131zM193 713q108 129 303 129q194 0 305 -129q108 -132 108 -318q0 -184 -111 -294.5t-302 -110.5q-195 0 -304.5 111
t-109.5 294q0 189 111 318zM500 111q136 0 210 73.5t74 214.5q0 149 -75.5 236.5t-212.5 87.5q-138 0 -213.5 -87.5t-75.5 -236.5q0 -143 76.5 -215.5t216.5 -72.5z" />
    <glyph glyph-name="uni06C3" unicode="&#x6c3;" horiz-adv-x="1034" 
d="M356 1085q-36 0 -60 24t-24 60t24 60t60 24q51 5 72.5 -39.5t0 -89t-72.5 -39.5zM629 1085q-53 -5 -75.5 39.5t0 89t75.5 39.5q50 5 71 -39.5t0 -89t-71 -39.5zM496 -10q-195 0 -304.5 111t-109.5 294q0 189 111 318q108 129 303 129q194 0 305 -129q108 -132 108 -318
q0 -184 -111 -294.5t-302 -110.5zM500 111q136 0 210 73.5t74 214.5q0 149 -75.5 236.5t-212.5 87.5q-138 0 -213.5 -87.5t-75.5 -236.5q0 -143 76.5 -215.5t216.5 -72.5z" />
    <glyph glyph-name="uni06CC" unicode="&#x6cc;" horiz-adv-x="1544" 
d="M756 -336q-662 0 -662 424q0 115 47 264l115 -30q-37 -136 -37 -220q0 -164 132.5 -240.5t404.5 -76.5q245 0 385.5 59t140.5 158q0 33 -18.5 62.5t-57.5 57t-72.5 47t-92.5 50t-89 47.5q-80 46 -130 114t-50 150q0 138 107 226t288 88q89 0 219 -31l-22 -117
q-119 29 -201 29q-122 0 -193 -51.5t-71 -136.5q0 -28 9.5 -53.5t31.5 -48.5t41.5 -40t57 -38t60 -33t67 -33.5t63.5 -30.5q79 -41 128.5 -104.5t49.5 -139.5q0 -161 -176 -256q-181 -96 -475 -96z" />
    <glyph glyph-name="uni06D2" unicode="&#x6d2;" horiz-adv-x="1503" 
d="M713 -18q-347 0 -492 65t-145 207q0 59 22.5 108.5t58 84t78.5 64.5t86.5 57.5t79 55.5t58 65.5t22.5 80.5v64h117v-68q0 -57 -22.5 -105t-58 -81.5t-78.5 -63t-86.5 -56t-79 -53.5t-58 -63t-22.5 -78q0 -91 126 -128.5t422 -37.5q316 0 752 74l8 -117q-451 -75 -788 -75
z" />
    <glyph glyph-name="uni06D3" unicode="&#x6d3;" horiz-adv-x="1503" 
d="M504 1174h231v-82h-422v82h103q-43 67 -43 143q0 87 58 138.5t153 51.5q64 0 127 -14l-17 -80q-72 10 -94 10q-63 0 -102 -30t-39 -88q0 -63 45 -131zM1493 174l8 -117q-451 -75 -788 -75q-347 0 -492 65t-145 207q0 59 22.5 108.5t58 84t78.5 64.5t86.5 57.5t79 55.5
t58 65.5t22.5 80.5v64h117v-68q0 -57 -22.5 -105t-58 -81.5t-78.5 -63t-86.5 -56t-79 -53.5t-58 -63t-22.5 -78q0 -91 126 -128.5t422 -37.5q316 0 752 74z" />
    <glyph glyph-name="uni06D4" unicode="&#x6d4;" horiz-adv-x="706" 
d="M61 90l48 96q75 -69 219 -69h317v-117h-317q-171 0 -267 90z" />
    <glyph glyph-name="uni06D5" unicode="&#x6d5;" horiz-adv-x="1034" 
d="M496 -10q-195 0 -304.5 111t-109.5 294q0 189 111 318q108 129 303 129q194 0 305 -129q108 -132 108 -318q0 -184 -111 -294.5t-302 -110.5zM500 111q136 0 210 73.5t74 214.5q0 149 -75.5 236.5t-212.5 87.5q-138 0 -213.5 -87.5t-75.5 -236.5q0 -143 76.5 -215.5
t216.5 -72.5z" />
    <glyph glyph-name="uni06F0" unicode="&#x6f0;" horiz-adv-x="1105" 
d="M682 602l-129 -129l-131 131l131 125z" />
    <glyph glyph-name="uni06F1" unicode="&#x6f1;" horiz-adv-x="1105" 
d="M614 0h-122v1337h122v-1337z" />
    <glyph glyph-name="uni06F2" unicode="&#x6f2;" horiz-adv-x="1105" 
d="M809 1329l123 8q17 -246 -63.5 -360.5t-274.5 -114.5q-126 0 -275 64v-926h-122v1337h122v-295q149 -67 277 -67q130 0 180 84t33 270z" />
    <glyph glyph-name="uni06F3" unicode="&#x6f3;" horiz-adv-x="1105" 
d="M926 1329l123 8q37 -444 -254 -444q-108 0 -238 53q-65 -53 -158 -53q-97 0 -182 33v-926h-123v1337h123v-305q86 -28 158 -28q97 0 134.5 77.5t20.5 247.5l123 8q15 -202 -32 -305q89 -28 151 -28q95 0 133 78.5t21 246.5z" />
    <glyph glyph-name="uni06F4" unicode="&#x6f4;" horiz-adv-x="1105" 
d="M1024 971l16 -111q-182 -37 -378 -37q-228 0 -420 70v-893h-123v1337h123v-329q121 -43 293 -64q-31 88 -31 160q0 248 268 248q84 0 182 -25l-28 -113q-74 23 -144 23q-168 0 -168 -160q0 -60 31 -139h19q198 0 360 33z" />
    <glyph glyph-name="uni06F5" unicode="&#x6f5;" horiz-adv-x="1105" 
d="M395 -12q-139 0 -214 130.5t-75 399.5q0 193 43.5 358t114.5 265q67 96 144 147t151 51q172 0 307 -211q133 -213 133 -610q0 -251 -72 -390.5t-192 -139.5q-89 0 -178 80q-80 -80 -162 -80zM412 104q16 0 39 9t39 18.5t38.5 24t26.5 16.5q1 -1 16 -11.5t29.5 -19
t34 -18.5t39 -15.5t35.5 -3.5q73 0 118 112t45 304q0 320 -96 514q-95 189 -217 189q-119 0 -221 -197q-105 -196 -105 -502q0 -202 50 -311t129 -109z" />
    <glyph glyph-name="uni06F6" unicode="&#x6f6;" horiz-adv-x="1105" 
d="M754 737l131 152l96 -82l-721 -844l-98 80l497 582q-201 20 -314.5 111t-113.5 233q0 172 148.5 271t417.5 99h49v-114q-235 10 -361.5 -58.5t-126.5 -199.5q0 -103 103.5 -162.5t292.5 -67.5z" />
    <glyph glyph-name="uni06F7" unicode="&#x6f7;" horiz-adv-x="1105" 
d="M553 176l387 1174l131 -41l-448 -1309h-138l-450 1313l129 37z" />
    <glyph glyph-name="uni06F8" unicode="&#x6f8;" horiz-adv-x="1105" 
d="M618 1335l453 -1312l-131 -37l-387 1167l-389 -1167l-129 39l448 1310h135z" />
    <glyph glyph-name="uni06F9" unicode="&#x6f9;" horiz-adv-x="1105" 
d="M578 1337h307v-1337h-123v578q-279 -24 -449 65t-170 293q0 186 117 293.5t318 107.5zM268 936q0 -150 144 -209q142 -62 350 -35v531h-158q-158 0 -247 -76t-89 -211z" />
    <glyph glyph-name="uni1E9E" unicode="&#x1e9e;" horiz-adv-x="1368" 
d="M1120 1466v-120q-184 0 -291.5 -73t-107.5 -200q0 -102 80 -176q71 -66 180 -135q145 -90 213 -188t68 -230q0 -170 -113 -274q-113 -107 -287 -107q-263 0 -395 191l119 88q43 -74 120 -115t164 -41q114 0 182.5 69.5t73.5 186.5q1 101 -50.5 170t-186.5 152
q-159 98 -231 189t-72 218q0 197 200 299h-38q-214 0 -314 -74q-100 -75 -100 -284v-1012h-135v1038q0 244 123.5 346.5t396.5 102.5q158 0 401 -21z" />
    <glyph glyph-name="uni2002" unicode="&#x2002;" horiz-adv-x="1171" 
 />
    <glyph glyph-name="uni2003" unicode="&#x2003;" horiz-adv-x="2340" 
 />
    <glyph glyph-name="thinspace" unicode="&#x2009;" horiz-adv-x="233" 
 />
    <glyph glyph-name="uni200A" unicode="&#x200a;" horiz-adv-x="47" 
 />
    <glyph glyph-name="uni200C" unicode="&#x200c;" 
d="M-160 1962l-123 -123l-36 41l120 121l-120 121l36 41l123 -125l121 123l37 -39l-119 -121l119 -121l-37 -39z" />
    <glyph glyph-name="uni200D" unicode="&#x200d;" 
d="M-178 1868h-53v162h464v-162h-53v108h-358v-108z" />
    <glyph glyph-name="uni200E" unicode="&#x200e;" 
d="M223 2001l-162 -162l-38 41l96 96h-295v54h295l-96 92l38 41z" />
    <glyph glyph-name="uni200F" unicode="&#x200f;" 
d="M-23 1880l-38 -39l-162 160l162 162l38 -37l-96 -96h297v-54h-295z" />
    <glyph glyph-name="uni2011" unicode="&#x2011;" horiz-adv-x="681" 
d="M88 541h506v-111h-506v111z" />
    <glyph glyph-name="endash" unicode="&#x2013;" horiz-adv-x="1024" 
d="M0 541h1024v-111h-1024v111z" />
    <glyph glyph-name="emdash" unicode="&#x2014;" horiz-adv-x="2048" 
d="M0 541h2048v-111h-2048v111z" />
    <glyph glyph-name="quoteleft" unicode="&#x2018;" horiz-adv-x="532" 
d="M127 983l156 467h123l-132 -467h-147z" />
    <glyph glyph-name="quoteright" unicode="&#x2019;" horiz-adv-x="532" 
d="M256 1450h150l-158 -467h-121z" />
    <glyph glyph-name="quotesinglbase" unicode="&#x201a;" horiz-adv-x="532" 
d="M256 184h150l-158 -467h-121z" />
    <glyph glyph-name="quotedblleft" unicode="&#x201c;" horiz-adv-x="1064" 
d="M215 983l158 467h121l-129 -467h-150zM571 983l158 467h121l-129 -467h-150z" />
    <glyph glyph-name="quotedblright" unicode="&#x201d;" horiz-adv-x="1064" 
d="M344 1450h150l-158 -467h-121zM700 1450h150l-158 -467h-121z" />
    <glyph glyph-name="quotedblbase" unicode="&#x201e;" horiz-adv-x="1064" 
d="M344 184h150l-158 -467h-121zM700 184h150l-158 -467h-121z" />
    <glyph glyph-name="dagger" unicode="&#x2020;" horiz-adv-x="1064" 
d="M471 1042v408h123v-408h393v-98h-393v-1202h-123v1202h-393v98h393z" />
    <glyph glyph-name="daggerdbl" unicode="&#x2021;" horiz-adv-x="1064" 
d="M471 1042v408h123v-408h393v-98h-393v-696h393v-98h-393v-408h-123v408h-393v98h393v696h-393v98h393z" />
    <glyph glyph-name="bullet" unicode="&#x2022;" horiz-adv-x="1024" 
d="M258 981q106 106 254 106q150 0 256 -106t106 -256t-106 -256q-107 -107 -256 -107t-256 107q-106 103 -106 256q0 148 108 256z" />
    <glyph glyph-name="ellipsis" unicode="&#x2026;" horiz-adv-x="2048" 
d="M272 156q29 29 70 29t70 -29t29 -70t-29 -70t-70 -29t-70 29t-29 70t29 70zM954 156q29 29 70 29t70 -29t29 -70t-29 -70t-70 -29t-70 29t-29 70t29 70zM1636 156q29 29 70 29t70 -29t29 -70t-29 -70t-70 -29t-70 29t-29 70t29 70z" />
    <glyph glyph-name="uni202A" unicode="&#x202a;" 
d="M223 2001l-162 -162l-38 41l96 96h-117v54h117l-96 92l38 41zM-66 1976h-133v54h133v-54z" />
    <glyph glyph-name="uni202B" unicode="&#x202b;" 
d="M-23 1880l-38 -39l-162 160l162 162l38 -37l-96 -96h117v-54h-115zM199 1976h-133v54h133v-54z" />
    <glyph glyph-name="uni202C" unicode="&#x202c;" 
d="M27 1837h-56v238l-92 -95l-39 39l160 160l160 -160l-39 -39l-94 95v-238z" />
    <glyph glyph-name="uni202D" unicode="&#x202d;" 
d="M113 2001l-162 -162l-37 41l96 96h-252v54h250l-94 92l37 41zM264 2001l-162 -162l-36 41l124 121l-124 121l36 41z" />
    <glyph glyph-name="uni202E" unicode="&#x202e;" 
d="M-66 1935l-36 -39l-162 162l162 162l36 -39l-122 -123zM88 1935l-39 -39l-160 162l160 162l39 -39l-96 -98h252v-51h-252z" />
    <glyph glyph-name="perthousand" unicode="&#x2030;" horiz-adv-x="2009" 
d="M135 -12l934 1532l94 -58l-938 -1532zM145 1382q90 93 222 93q130 0 223 -93q90 -93 90 -221q0 -126 -90 -219q-91 -94 -223 -94q-136 0 -224 94q-90 93 -90 219t92 221zM217 1313q-51 -44 -61.5 -110t13 -123.5t77.5 -97.5t121 -36q91 0 153 63t62 152q0 88 -63.5 151.5
t-151.5 63.5q-87 0 -150 -63zM719 510q89 92 221 92q131 0 223 -92q90 -93 90 -221q0 -126 -90 -219q-92 -95 -223 -95q-134 0 -223 95q-90 93 -90 219t92 221zM1421 510q89 92 221 92t224 -92q90 -93 90 -221q0 -126 -90 -219q-92 -95 -224 -95q-134 0 -223 95
q-90 93 -90 219t92 221zM791 440q-51 -44 -61.5 -110t12.5 -123t77 -97t121 -36q91 0 153 63t62 152q0 88 -63.5 151.5t-151.5 63.5q-85 0 -149 -64zM1493 440q-51 -44 -61.5 -110t12.5 -123t77 -97t121 -36q91 0 153.5 63t62.5 152q0 88 -64 151.5t-152 63.5
q-85 0 -149 -64z" />
    <glyph glyph-name="guilsinglleft" unicode="&#x2039;" horiz-adv-x="645" 
d="M129 485l281 416l86 -59l-238 -357l242 -360l-90 -55z" />
    <glyph glyph-name="guilsinglright" unicode="&#x203a;" horiz-adv-x="645" 
d="M145 846l91 55l280 -416l-280 -415l-86 59l237 356z" />
    <glyph glyph-name="fraction" unicode="&#x2044;" horiz-adv-x="344" 
d="M-342 -12l934 1532l94 -58l-938 -1532z" />
    <glyph glyph-name="Euro" unicode="&#x20ac;" horiz-adv-x="962" 
d="M690 1483q123 0 213 -41l-33 -113q-75 37 -176 37q-143 0 -237 -108t-129 -314h456l-26 -98h-447q-8 -47 -8 -127q0 -65 4 -111h410l-23 -98h-375q25 -197 121.5 -309.5t239.5 -112.5q111 0 199 55l24 -116q-91 -60 -237 -60q-208 0 -330 152q-121 148 -156 391h-129
l25 98h98q-6 27 -6 99q0 87 8 139h-121l23 98h106q95 539 506 539z" />
    <glyph glyph-name="uni20B9" unicode="&#x20b9;" horiz-adv-x="1064" 
d="M147 1450h881v-98h-360q114 -82 123 -228h237v-98h-237q-44 -332 -474 -332l480 -694h-164l-486 711v88h156q318 0 352 227h-508v98h508q-27 228 -344 228h-164v98z" />
    <glyph glyph-name="uni20BA" unicode="&#x20ba;" horiz-adv-x="1064" 
d="M358 1450v-293l430 189v-117l-430 -189v-219l430 189v-117l-430 -188v-607q50 -4 66 -4q249 0 361 168.5t112 499.5h133q0 -778 -581 -778q-160 0 -213 16v643l-197 -82v117l197 82v219l-197 -82v117l197 82v354h122z" />
    <glyph glyph-name="uni2113" unicode="&#x2113;" horiz-adv-x="1024" 
d="M588 1464q98 0 155.5 -68.5t57.5 -181.5q0 -286 -350 -647v-317q0 -87 43 -135.5t122 -48.5q92 0 179 69l39 -49q-114 -102 -250 -102q-120 0 -184 64.5t-64 178.5v271l-129 -140l-43 58l172 168v538q0 153 69.5 247.5t182.5 94.5zM451 1145v-494q258 305 258 553
q0 86 -33.5 136.5t-87.5 50.5q-61 0 -99 -68t-38 -178z" />
    <glyph glyph-name="trademark" unicode="&#x2122;" horiz-adv-x="2027" 
d="M172 1450h655v-98h-272v-746h-111v746h-272v98zM979 1450h176l266 -672l265 672h169v-844h-110v740h-4l-291 -740h-66l-290 740h-4v-740h-111v844z" />
    <glyph glyph-name="uni2126" unicode="&#x2126;" horiz-adv-x="1523" 
d="M752 1477q271 0 462 -179q189 -183 189 -444q0 -205 -107 -360t-297 -207v-168h404v-119h-514v371q178 32 277.5 159t99.5 320q0 213 -148 358q-147 144 -368 144q-217 0 -367 -144t-150 -358q0 -192 100.5 -321t276.5 -158v-371h-514v119h404v168q-185 52 -295 211
q-109 157 -109 354q0 264 191 446q191 179 465 179z" />
    <glyph glyph-name="estimated" unicode="&#x212e;" horiz-adv-x="1998" 
d="M1843 698h-1366q-12 0 -12 -12v-389q0 -42 16 -61q177 -222 514 -222q161 0 292 60t259 182h148q-126 -153 -283 -225q-155 -70 -410 -70q-386 0 -618 215q-229 213 -229 526q0 148 59 288.5t166 250.5q106 111 268.5 175.5t349.5 64.5q135 0 251 -24.5t201 -67.5
t153 -103t112.5 -128.5t74 -147t42 -155.5t12.5 -157zM1534 754v397q0 29 -25 57q-91 112 -230 165.5t-290 53.5q-295 0 -504 -215q-20 -23 -20 -59v-399q0 -13 12 -13h1045q12 0 12 13z" />
    <glyph glyph-name="partialdiff" unicode="&#x2202;" horiz-adv-x="1015" 
d="M430 1477q240 0 373 -201q129 -200 129 -535q0 -368 -119.5 -567t-341.5 -199q-177 0 -293 134q-115 133 -115 325t109 316q108 120 289 120q202 0 340 -172q2 23 2 109q0 226 -92 393q-95 164 -275 164q-107 0 -229 -94l-74 88q56 56 152 92q70 27 145 27zM193 430
q0 -143 77 -246q75 -100 203 -100q135 0 218 126t100 359q-138 187 -320 187q-124 0 -201 -91.5t-77 -234.5z" />
    <glyph glyph-name="uni2206" unicode="&#x2206;" horiz-adv-x="1372" 
d="M606 1458h152l588 -1458h-1315zM680 1321l-463 -1194h932z" />
    <glyph glyph-name="product" unicode="&#x220f;" horiz-adv-x="1456" 
d="M145 1610h1168v-2048h-135v1921h-897v-1921h-136v2048z" />
    <glyph glyph-name="summation" unicode="&#x2211;" horiz-adv-x="1236" 
d="M80 1610h1079v-127h-905l633 -891l-672 -905h969v-125h-1133v112l674 918l-645 903v115z" />
    <glyph glyph-name="minus" unicode="&#x2212;" horiz-adv-x="1363" 
d="M160 670h1044v-99h-1044v99z" />
    <glyph glyph-name="uni2215" unicode="&#x2215;" horiz-adv-x="344" 
d="M-342 -12l934 1532l94 -58l-938 -1532z" />
    <glyph glyph-name="uni2219" unicode="&#x2219;" horiz-adv-x="532" 
d="M197 721q29 29 69.5 29t69.5 -29t29 -69.5t-29 -69.5t-69.5 -29t-69.5 29t-29 69.5t29 69.5z" />
    <glyph glyph-name="radical" unicode="&#x221a;" horiz-adv-x="1009" 
d="M899 1610h129l-430 -2048h-135l-336 696l-94 -45l-49 102l204 99l324 -680z" />
    <glyph glyph-name="infinity" unicode="&#x221e;" horiz-adv-x="1517" 
d="M1434 516q0 -131 -81.5 -217t-205.5 -86q-90 0 -180 51t-207 168q-143 -125 -223 -174q-74 -45 -160 -45q-131 0 -212 82t-81 215q0 131 80 217t203 86q82 0 168 -47q88 -48 225 -182q136 142 217 186q80 45 166 45q128 0 209.5 -84.5t81.5 -214.5zM838 508
q191 -176 315 -176q75 0 119.5 49t44.5 129q0 87 -45.5 137.5t-124.5 50.5q-107 0 -309 -190zM373 332q128 0 309 178q-207 186 -317 186q-72 0 -118 -52t-46 -132q0 -82 47 -131t125 -49z" />
    <glyph glyph-name="integral" unicode="&#x222b;" horiz-adv-x="1112" 
d="M686 1610q64 0 104.5 -28t40.5 -75q0 -69 -75 -69q-39 0 -66 41t-41 41q-74 0 -74 -238q0 -12 3 -68q2 -37 2 -81v-1063q0 -233 -39 -340q-58 -166 -209 -166q-56 0 -90.5 26t-34.5 70q0 29 19 47.5t48 18.5q38 0 64 -39t39 -39q65 0 65 313q0 8 1 56t1 63v964
q0 15 -1 79t-1 87q0 400 244 400z" />
    <glyph glyph-name="approxequal" unicode="&#x2248;" horiz-adv-x="1363" 
d="M1141 813h65q-17 -123 -79 -190.5t-160 -67.5q-86 0 -287 76q-207 74 -281 74q-63 0 -109 -44.5t-63 -119.5h-67q47 262 237 262q85 0 289 -74q201 -76 285 -76q126 0 170 160zM1141 463h65q-17 -123 -79 -190.5t-160 -67.5q-84 0 -285 76q-204 73 -283 73
q-65 0 -109.5 -44t-62.5 -120h-67q41 263 237 263q86 0 293 -74q201 -76 281 -76q126 0 170 160z" />
    <glyph glyph-name="notequal" unicode="&#x2260;" horiz-adv-x="1363" 
d="M752 745l157 297l84 -45l-133 -252h324v-98h-375l-156 -291h531v-98h-582l-153 -291l-87 43l132 248h-314v98h365l153 291h-518v98h572z" />
    <glyph glyph-name="lessequal" unicode="&#x2264;" horiz-adv-x="1363" 
d="M180 731l1004 377v-107l-883 -329l883 -328v-104l-1004 376v115zM180 121h1004v-96h-1004v96z" />
    <glyph glyph-name="greaterequal" unicode="&#x2265;" horiz-adv-x="1363" 
d="M180 1001v107l1004 -377v-115l-1004 -376v104l885 328zM180 121h1004v-96h-1004v96z" />
    <glyph glyph-name="lozenge" unicode="&#x25ca;" horiz-adv-x="1214" 
d="M541 1530h129l350 -801l-350 -801h-129l-346 801zM606 1395l-278 -666l278 -666l281 666z" />
    <glyph glyph-name="uni25CC" unicode="&#x25cc;" horiz-adv-x="942" 
d="M526 758q0 -58 -55 -58t-55 58q0 55 55 55t55 -55zM293 655q-53 0 -53 60q0 53 53 53q59 0 59 -53q0 -60 -59 -60zM647 655q-59 0 -59 60q0 53 59 53q53 0 53 -53q0 -60 -53 -60zM164 526q-53 0 -53 58q0 55 53 55q57 0 57 -55q0 -58 -57 -58zM831 584q0 -58 -55 -58
t-55 58q0 55 55 55t55 -55zM119 352q-53 0 -53 56q0 55 53 55q57 0 57 -55q0 -56 -57 -56zM877 408q0 -56 -56 -56q-55 0 -55 56q0 55 55 55q56 0 56 -55zM164 176q-53 0 -53 55q0 56 53 56q57 0 57 -56q0 -55 -57 -55zM831 231q0 -55 -55 -55t-55 55q0 56 55 56t55 -56z
M293 47q-53 0 -53 55q0 56 53 56q59 0 59 -56q0 -55 -59 -55zM647 47q-59 0 -59 55q0 56 59 56q53 0 53 -56q0 -55 -53 -55zM526 57q0 -55 -55 -55t-55 55q0 58 55 58t55 -58z" />
    <glyph glyph-name="uni274A" unicode="&#x274a;" horiz-adv-x="1298" 
d="M651 426l-192 -410l-97 47l203 402l-432 -98l-22 100l434 88l-357 279l72 84l342 -289l-4 450h109l-9 -450l349 284l65 -84l-356 -276l432 -92l-23 -101l-430 107l197 -406l-94 -47z" />
    <glyph glyph-name="fi" unicode="&#xfb01;" horiz-adv-x="1062" 
d="M516 1573q83 0 141 -25l-24 -106q-39 20 -111 20q-166 0 -166 -243v-273h222v-110h-222v-836h-123v836h-196v110h196v318q0 141 79 225t204 84zM752 1386q26 26 65.5 26t65.5 -26t26 -65.5t-26 -65.5t-65.5 -26t-65.5 26t-26 65.5t26 65.5zM756 0v946h123v-946h-123z" />
    <glyph glyph-name="fl" unicode="&#xfb02;" horiz-adv-x="1062" 
d="M516 1573q83 0 141 -25l-24 -106q-39 20 -111 20q-166 0 -166 -243v-273h222v-110h-222v-836h-123v836h-196v110h196v318q0 141 79 225t204 84zM756 0v1548h123v-1548h-123z" />
    <glyph glyph-name="uniFBB2" unicode="&#xfbb2;" 
d="M2 1124q-53 0 -75 42t0 84t75 42q50 0 70.5 -42t0 -84t-70.5 -42z" />
    <glyph glyph-name="uniFBB3" unicode="&#xfbb3;" 
d="M2 -352q-53 0 -75 42t0 84t75 42q50 0 70.5 -42t0 -84t-70.5 -42z" />
    <glyph glyph-name="uniFBB4" unicode="&#xfbb4;" 
d="M-135 1124q-36 0 -60 24t-24 60t24 60t60 24q51 5 72.5 -39.5t0 -89t-72.5 -39.5zM137 1124q-53 -5 -75.5 39.5t0 89t75.5 39.5q50 5 71 -39.5t0 -89t-71 -39.5z" />
    <glyph glyph-name="uniFBB5" unicode="&#xfbb5;" 
d="M-135 -352q-36 0 -60 24t-24 60t24 60t60 24q51 5 72.5 -39.5t0 -89t-72.5 -39.5zM137 -352q-53 -5 -75.5 39.5t0 89t75.5 39.5q50 5 71 -39.5t0 -89t-71 -39.5z" />
    <glyph glyph-name="uniFBB6" unicode="&#xfbb6;" 
d="M6 1333q-37 0 -60.5 24.5t-23.5 61.5q0 36 24 60t60 24q35 0 58.5 -24.5t23.5 -59.5q0 -37 -23.5 -61.5t-58.5 -24.5zM-135 1130q-36 0 -60 24t-24 60q0 35 24.5 59.5t59.5 24.5q36 0 60 -24t24 -60q0 -37 -23.5 -60.5t-60.5 -23.5zM137 1130q-37 0 -61.5 23.5
t-24.5 60.5q0 35 24.5 59.5t61.5 24.5q35 0 58.5 -24.5t23.5 -59.5q0 -37 -23.5 -60.5t-58.5 -23.5z" />
    <glyph glyph-name="uniFBB9" unicode="&#xfbb9;" 
d="M-76 -332q-28 -23 -60 -23.5t-57.5 25t-25.5 62.5q0 35 24.5 58.5t59.5 23.5q37 0 60.5 -23.5t23.5 -58.5q0 -39 -25 -64zM137 -354q-37 0 -61.5 24t-24.5 62q0 35 24.5 58.5t61.5 23.5q35 0 58.5 -23.5t23.5 -58.5q0 -38 -23 -62t-59 -24zM66 -530q-30 -25 -62.5 -25
t-58 24.5t-25.5 59.5q-5 51 39.5 72.5t89 0t39.5 -72.5q0 -34 -22 -59z" />
    <glyph glyph-name="uniFD3E" unicode="&#xfd3e;" horiz-adv-x="1048" 
d="M950 -199q-39 0 -143 93t-205 233q-106 139 -133 248l-139 -23q-20 -5 -28 11.5t5 35.5l117 162q16 16 16 35q0 16 -24 16q-15 0 -29 -14l-147 -131q-16 -16 -29 -16q-29 0 -29 38v115q-121 59 -121 101q0 39 121 98v112q0 41 29 41q5 0 29 -18l147 -131q20 -14 29 -14
q24 0 24 18q0 19 -16 35l-117 162q-12 19 -4.5 34t27.5 13l139 -23q27 107 133 250q103 140 205 231q104 93 143 93q38 0 4 -37q-151 -183 -225.5 -307t-85.5 -234l98 12q29 4 38 -7.5t-9 -28.5l-129 -152q-23 -30 -23 -35q0 -14 21 -14q17 0 29 6l151 111q15 11 26.5 14.5
t18 -1.5t6.5 -18v-112q123 -47 123 -98q0 -55 -123 -101v-115q0 -20 -14 -21t-37 17l-151 113q-12 6 -29 6q-21 0 -21 -16q0 -1 2.5 -5t8.5 -13.5t12 -18.5l129 -148q18 -17 9 -28.5t-38 -7.5l-98 12q27 -254 311 -541q11 -9 14 -17.5t-2 -14t-16 -5.5zM373 1006l96 -140v56
h45l41 65v-65h37v-54l129 131l-137 -26q9 79 67 215v86q-49 -49 -91 -134t-62 -165zM229 641v-109l148 115h-90v35q-41 9 -58 23q19 11 58 20v33h90l-148 116v-108q-116 -40 -116 -61q0 -24 116 -64zM684 643l143 -108v106q50 11 83.5 29t33.5 35q0 13 -35 32t-82 29v106
l-143 -108h82v-37q33 -4 63 -22q-32 -22 -63 -25v-37h-82zM530 604q43 0 71 29t28 72q0 41 -28.5 69.5t-70.5 28.5q-38 0 -67 -30.5t-29 -67.5q0 -39 29 -70t67 -31zM651 131v88q-58 130 -67 213l137 -26l-129 133v-58h-37v-63l-41 63h-45v58l-96 -138l125 29
q50 -193 153 -299z" />
    <glyph glyph-name="uniFD3F" unicode="&#xfd3f;" horiz-adv-x="1048" 
d="M104 -199q-16 0 -18 11.5t14 25.5q285 288 312 541l-99 -12q-29 -4 -37.5 7.5t9.5 28.5l129 148q22 36 22 37q0 16 -20 16q-17 0 -29 -6l-151 -113q-16 -12 -27.5 -15.5t-18 1.5t-6.5 18v115q-123 46 -123 101q0 51 123 98v112q0 13 6.5 18t18.5 1.5t27 -14.5l151 -111
q12 -6 29 -6q20 0 20 14q0 7 -22 35l-129 152q-18 17 -9.5 28.5t37.5 7.5l99 -12q-11 109 -85.5 233.5t-226.5 307.5q-34 37 4 37q40 0 144 -93q98 -88 207 -231q105 -145 131 -250l139 23q20 2 27.5 -13t-4.5 -34l-117 -162q-17 -17 -17 -35t25 -18q9 0 29 14l147 131
q24 18 29 18q28 0 28 -41v-112q121 -59 121 -98q0 -42 -121 -101v-115q0 -38 -28 -38q-13 0 -29 16l-147 131q-14 14 -29 14q-25 0 -25 -16q0 -18 17 -35l117 -162q13 -19 5 -35.5t-28 -11.5l-139 23q-27 -107 -131 -248q-106 -143 -207 -233q-104 -93 -144 -93zM586 922
v-56l96 140l-125 -31q-20 79 -62.5 164.5t-91.5 134.5v-86q59 -139 68 -215l-137 26l129 -131v54h37v65l41 -65h45zM678 647l147 -115v109q117 41 117 64q0 20 -117 61v108l-147 -116h90v-33q38 -8 57 -20q-18 -14 -57 -23v-35h-90zM227 641v-106l144 108h-82v37
q-32 3 -64 25q30 18 64 22v37h82l-144 108v-106q-47 -10 -81.5 -29t-34.5 -32q0 -17 33 -35t83 -29zM524 604q38 0 67.5 31t29.5 70q0 37 -30 67.5t-67 30.5q-42 0 -70 -28t-28 -70q0 -43 28 -72t70 -29zM403 219v-88q104 107 154 299l125 -29l-96 138v-58h-45l-41 -63v63
h-37v58l-129 -133l137 26q-9 -80 -68 -213z" />
    <glyph glyph-name="uniFEFF" unicode="&#xfeff;" 
 />
    <glyph glyph-name="null" 
 />
    <glyph glyph-name="uniFBE9.wide" horiz-adv-x="663" 
d="M664 117q41 0 41 -58q0 -59 -41 -59q-246 0 -328 156q-86 -156 -328 -156h-8v117h12q131 0 190.5 67.5t59.5 218.5v418h123v-436v-8q0 -260 279 -260z" />
    <glyph glyph-name="uniFBE8.wide" horiz-adv-x="571" 
d="M8 0h-8v117h12q131 0 190.5 67.5t59.5 218.5v418h123v-436q0 -385 -377 -385z" />
    <glyph glyph-name="uniFBAF.wide" horiz-adv-x="1570" 
d="M705 -532q-327 0 -482 80.5t-155 252.5q0 152 113 234t321 82h1069q41 0 41 -58q0 -59 -41 -59h-1082q-305 0 -305 -195q0 -117 126.5 -167t422.5 -50q335 0 752 74l6 -119q-449 -75 -786 -75z" />
    <glyph glyph-name="uniFBB1.wide" horiz-adv-x="1570" 
d="M444 416h179v-66h-328v66h80q-33 53 -33 108q0 69 47 111.5t121 42.5q42 0 94 -12l-12 -66q-38 10 -72 10q-76 0 -100.5 -56t24.5 -138zM502 117h1069q41 0 41 -58q0 -59 -41 -59h-1082q-305 0 -305 -195q0 -117 126.5 -167t422.5 -50q335 0 752 74l6 -119
q-449 -75 -786 -75q-327 0 -482 80.5t-155 252.5q0 152 113 234t321 82z" />
    <glyph glyph-name="uni0660.lf" horiz-adv-x="464" 
d="M362 602l-129 -129l-131 131l131 125z" />
    <glyph glyph-name="uni0661.lf" horiz-adv-x="573" 
d="M348 0h-123v1337h123v-1337z" />
    <glyph glyph-name="uni0662.lf" horiz-adv-x="1054" 
d="M838 1329l123 8q17 -246 -63.5 -360.5t-274.5 -114.5q-126 0 -275 64v-926h-123v1337h123v-295q149 -67 277 -67q130 0 180 84t33 270z" />
    <glyph glyph-name="uni0663.lf" horiz-adv-x="1275" 
d="M1057 1329l123 8q37 -444 -254 -444q-108 0 -238 53q-65 -53 -158 -53q-97 0 -182 33v-926h-123v1337h123v-305q86 -28 158 -28q97 0 135 78t21 247l122 8q15 -202 -32 -305q89 -28 151 -28q95 0 133 78.5t21 246.5z" />
    <glyph glyph-name="uni0664.lf" horiz-adv-x="1026" 
d="M897 117l6 -113q-170 -16 -252 -16q-242 0 -369.5 78.5t-127.5 234.5q0 124 84.5 224.5t238.5 160.5q-116 37 -186 109.5t-70 173.5q0 176 152 274t413 98q32 0 48 -2v-114q-226 11 -357 -56t-131 -202q0 -117 120.5 -173.5t334.5 -33.5v-117q-251 -23 -386.5 -109.5
t-135.5 -211.5q0 -218 389 -218q70 0 229 13z" />
    <glyph glyph-name="uni0665.lf" horiz-adv-x="1198" 
d="M1036 545q0 -561 -436 -561t-436 561q0 391 131 592q129 202 305 202q178 0 307 -202q129 -203 129 -592zM291 549q0 -447 309 -447t309 447q0 309 -92 491q-94 181 -217 181q-124 0 -215 -181q-94 -181 -94 -491z" />
    <glyph glyph-name="uni0666.lf" horiz-adv-x="1064" 
d="M840 0h-123v1223h-645v114h768v-1337z" />
    <glyph glyph-name="uni0667.lf" horiz-adv-x="1220" 
d="M610 176l387 1174l131 -41l-448 -1309h-137l-451 1313l129 37z" />
    <glyph glyph-name="uni0668.lf" horiz-adv-x="1220" 
d="M676 1335l452 -1312l-131 -37l-387 1167l-389 -1167l-129 39l449 1310h135z" />
    <glyph glyph-name="uni0669.lf" horiz-adv-x="1099" 
d="M567 1337h307v-1337h-122v578q-279 -24 -449 65t-170 293q0 186 116.5 293.5t317.5 107.5zM258 936q0 -151 143 -209q142 -62 351 -35v531h-158q-158 0 -247 -76t-89 -211z" />
    <glyph glyph-name="uni06F0.lf" horiz-adv-x="464" 
d="M362 602l-129 -129l-131 131l131 125z" />
    <glyph glyph-name="uni06F1.lf" horiz-adv-x="573" 
d="M348 0h-123v1337h123v-1337z" />
    <glyph glyph-name="uni06F2.lf" horiz-adv-x="1054" 
d="M838 1329l123 8q17 -246 -63.5 -360.5t-274.5 -114.5q-126 0 -275 64v-926h-123v1337h123v-295q149 -67 277 -67q130 0 180 84t33 270z" />
    <glyph glyph-name="uni06F3.lf" horiz-adv-x="1275" 
d="M1057 1329l123 8q37 -444 -254 -444q-108 0 -238 53q-65 -53 -158 -53q-97 0 -182 33v-926h-123v1337h123v-305q86 -28 158 -28q97 0 135 78t21 247l122 8q15 -202 -32 -305q89 -28 151 -28q95 0 133 78.5t21 246.5z" />
    <glyph glyph-name="uni06F4.lf" horiz-adv-x="1239" 
d="M1130 971l17 -111q-182 -37 -379 -37q-228 0 -420 70v-893h-123v1337h123v-329q121 -43 293 -64q-31 88 -31 160q0 248 269 248q84 0 182 -25l-29 -113q-74 23 -143 23q-168 0 -168 -160q0 -60 31 -139h18q198 0 360 33z" />
    <glyph glyph-name="uni06F5.lf" horiz-adv-x="1218" 
d="M453 -12q-139 0 -214 130.5t-75 399.5q0 193 43.5 358t114.5 265q67 96 143.5 147t150.5 51q173 0 308 -211q133 -213 133 -610q0 -251 -72 -390.5t-192 -139.5q-90 0 -179 80q-80 -80 -161 -80zM469 104q16 0 39 9t39 18.5t38.5 24t26.5 16.5q1 -1 16 -11.5t29.5 -19
t34 -18.5t39 -15.5t35.5 -3.5q73 0 118.5 112t45.5 304q0 320 -96 514q-95 189 -218 189q-119 0 -221 -197q-104 -195 -104 -502q0 -202 50 -311t128 -109z" />
    <glyph glyph-name="uni06F6.lf" horiz-adv-x="1026" 
d="M698 737l131 152l97 -82l-721 -844l-99 80l498 582q-201 20 -314.5 111t-113.5 233q0 172 148 271t417 99h50v-114q-235 10 -361.5 -58.5t-126.5 -199.5q0 -103 103 -162.5t292 -67.5z" />
    <glyph glyph-name="uni06F7.lf" horiz-adv-x="1220" 
d="M610 176l387 1174l131 -41l-448 -1309h-137l-451 1313l129 37z" />
    <glyph glyph-name="uni06F8.lf" horiz-adv-x="1220" 
d="M676 1335l452 -1312l-131 -37l-387 1167l-389 -1167l-129 39l449 1310h135z" />
    <glyph glyph-name="uni06F9.lf" horiz-adv-x="1099" 
d="M567 1337h307v-1337h-122v578q-279 -24 -449 65t-170 293q0 186 116.5 293.5t317.5 107.5zM258 936q0 -151 143 -209q142 -62 351 -35v531h-158q-158 0 -247 -76t-89 -211z" />
    <glyph glyph-name="uni06F4.urdu" horiz-adv-x="1105" 
d="M817 969h-100q-83 250 -221 250q-64 0 -102 -54t-38 -151v-1014h-123v1014q0 162 67 248t185 86q177 0 291 -246q65 92 205 225l82 -84q-142 -133 -246 -274z" />
    <glyph glyph-name="uni06F7.urdu" horiz-adv-x="1105" 
d="M971 0h-756l-76 117l580 1216l121 -53l-559 -1163h690v-117z" />
    <glyph glyph-name="uni06F4.urdu.lf" horiz-adv-x="1013" 
d="M768 969h-100q-83 250 -222 250q-64 0 -101.5 -54t-37.5 -151v-1014h-123v1014q0 162 67 248t185 86q177 0 291 -246q65 92 205 225l82 -84q-142 -133 -246 -274z" />
    <glyph glyph-name="uni06F7.urdu.lf" horiz-adv-x="974" 
d="M913 0h-755l-76 117l580 1216l120 -53l-559 -1163h690v-117z" />
    <glyph glyph-name="acute.case" horiz-adv-x="491" 
d="M340 1835h164l-275 -295h-102z" />
    <glyph glyph-name="breve.case" horiz-adv-x="491" 
d="M-49 1804h86q11 -75 65 -117t142 -42q98 0 145 36.5t66 122.5h86q-13 -122 -93 -190t-206 -68q-129 0 -207 69.5t-84 188.5z" />
    <glyph glyph-name="caron.case" horiz-adv-x="491" 
d="M170 1540l-223 295h127l170 -233l176 233h110l-217 -295h-143z" />
    <glyph glyph-name="circumflex.case" horiz-adv-x="491" 
d="M174 1835h143l222 -295h-133l-166 221l-166 -221h-121z" />
    <glyph glyph-name="dieresis.case" horiz-adv-x="491" 
d="M-18 1790q33 28 70.5 28t67.5 -28t30 -70t-28.5 -70t-70.5 -28q-43 0 -70.5 27.5t-27.5 70.5q0 41 29 70zM371 1790q33 28 70.5 28t67.5 -28t30 -70q0 -41 -29 -69.5t-70 -28.5q-43 0 -70.5 27.5t-27.5 70.5q0 41 29 70z" />
    <glyph glyph-name="dotaccent.case" horiz-adv-x="491" 
d="M182 1790q33 28 70.5 28t67.5 -28t30 -70q0 -43 -27.5 -70.5t-70.5 -27.5q-42 0 -70 28t-28 70t28 70z" />
    <glyph glyph-name="grave.case" horiz-adv-x="491" 
d="M-12 1835h164l213 -295h-103z" />
    <glyph glyph-name="hungarumlaut.case" horiz-adv-x="491" 
d="M190 1835h164l-274 -295h-103zM489 1835h164l-274 -295h-103z" />
    <glyph glyph-name="macron.case" horiz-adv-x="491" 
d="M-25 1735h541v-99h-541v99z" />
    <glyph glyph-name="ring.case" horiz-adv-x="491" 
d="M248 1909q75 0 131.5 -59t56.5 -138q0 -78 -56.5 -135t-131.5 -57q-78 0 -135.5 57.5t-57.5 136.5t57.5 137t135.5 58zM129 1712q0 -50 34 -84.5t83 -34.5t82.5 35t33.5 86q0 53 -33 87t-83 34q-49 0 -83 -36t-34 -87z" />
    <glyph glyph-name="tilde.case" horiz-adv-x="491" 
d="M111 1784q53 0 151 -49q94 -49 131 -49q75 0 99 98h73q-10 -96 -57 -152.5t-115 -56.5q-55 0 -153 49q-101 49 -136 49q-77 0 -104 -98h-74q14 93 65 151t120 58z" />
    <glyph glyph-name="waslaar" 
d="M98 1395q72 0 114 -47t42 -125q0 -59 -18 -109h-490v66h104v202h66v-94q70 107 182 107zM92 1327q-55 0 -103.5 -40t-78.5 -107h274q6 24 6 45q0 48 -27 75t-71 27z" />
    <glyph glyph-name="gafsarkashabovear" 
d="M301 1300l-518 -495l-84 84l520 493z" />
    <glyph glyph-name="uni0654.big" 
d="M-20 1223h231v-82h-422v82h102q-43 67 -43 143q0 87 58 138.5t153 51.5q64 0 127 -14l-16 -80q-82 11 -94 11q-63 0 -102.5 -30.5t-39.5 -88.5q0 -61 46 -131z" />
    <glyph glyph-name="uni0654064F" 
d="M170 1810q0 -118 -61 -188t-152 -70q-61 0 -115 31l29 57q42 -22 86 -22q95 0 135 104q-32 -4 -41 -4q-64 0 -102.5 31.5t-38.5 89.5q0 62 40 107t95 45t90 -50.5t35 -130.5zM63 1782q7 0 43 4q3 9 3 24q0 50 -19 82.5t-51 32.5q-30 0 -50 -23.5t-20 -56.5q0 -63 94 -63z
M-16 1350q-31 -26 -30.5 -71t32.5 -99h178v-66h-328v66h80q-33 53 -33 108q0 69 47 111.5t121 42.5q41 0 94 -12l-12 -66q-38 10 -72 10q-47 0 -77 -24z" />
    <glyph glyph-name="uni0654064C" 
d="M23 1552q-35 0 -70 23t-58 51t-47 51t-38 23q-37 0 -89 -70l-43 39q64 94 136 94q46 0 108 -71q65 -74 105 -74q87 0 127 104q-32 -4 -41 -4q-64 0 -103 31.5t-39 89.5q0 62 40 107t95 45t90 -50.5t35 -130.5q0 -110 -62 -184t-146 -74zM125 1782q7 0 43 4q2 6 2 24
q0 115 -68 115q-30 0 -50.5 -23.5t-20.5 -56.5q0 -63 94 -63zM-16 1350q-31 -26 -30.5 -71t32.5 -99h178v-66h-328v66h80q-33 53 -33 108q0 69 47 111.5t121 42.5q41 0 94 -12l-12 -66q-38 10 -72 10q-47 0 -77 -24z" />
    <glyph glyph-name="uni0654064E" 
d="M-217 1608l459 69l6 -2l-10 -65l-459 -70l-6 2zM-16 1350q-31 -26 -30.5 -71t32.5 -99h178v-66h-328v66h80q-33 53 -33 108q0 69 47 111.5t121 42.5q41 0 94 -12l-12 -66q-38 10 -72 10q-47 0 -77 -24z" />
    <glyph glyph-name="uni0654064B" 
d="M248 1862l-10 -66l-459 -70l-6 3l10 65l459 70zM-227 1542l10 66l459 69l6 -2l-10 -65l-459 -70zM-16 1350q-31 -26 -30.5 -71t32.5 -99h178v-66h-328v66h80q-33 53 -33 108q0 69 47 111.5t121 42.5q41 0 94 -12l-12 -66q-38 10 -72 10q-47 0 -77 -24z" />
    <glyph glyph-name="uni06540652" 
d="M125 1583q-37 -35 -100.5 -35t-100.5 35q-35 35 -35 98.5t37 112.5q38 50 98.5 50t98.5 -50q37 -49 37 -112.5t-35 -98.5zM74 1749q-31 44 -75 20t-44 -83q0 -72 70 -72q67 0 67 72q0 36 -18 63zM-14 1180h178v-66h-328v66h80q-33 53 -33 108q0 69 47 111.5t121 42.5
q41 0 94 -12l-12 -66q-38 10 -72 10q-76 0 -100 -56t25 -138z" />
    <glyph glyph-name="uni06550650" 
d="M-14 -446h178v-66h-328v66h78q-31 51 -31 106q0 69 46.5 112.5t119.5 43.5q43 0 96 -15l-12 -63q-38 10 -72 10q-48 0 -78 -26t-30 -70q0 -54 33 -98zM-219 -707l459 70l6 -2l-10 -66l-459 -69l-6 2z" />
    <glyph glyph-name="uni0655064D" 
d="M-14 -446h178v-66h-328v66h78q-31 51 -31 106q0 69 46.5 112.5t119.5 43.5q43 0 96 -15l-12 -63q-38 10 -72 10q-48 0 -78 -26t-30 -70q0 -54 33 -98zM246 -639l-10 -66l-459 -69l-6 2l10 65l459 70zM-229 -936l10 66l459 69l6 -2l-10 -65l-459 -70z" />
    <glyph glyph-name="uni06510670" 
d="M20 1806v-338l-55 -20h-10v358h65zM154 1382l49 21q28 -61 29 -117.5t-32 -96.5t-89 -40q-64 0 -99 35q-34 -58 -108 -58q-63 0 -99 35.5t-36 95.5q0 50 20 97l49 -15q-10 -30 -10 -61q0 -80 76 -80q67 0 67 80q0 23 -6 47l51 12q13 -47 13 -77v-11q25 -32 77 -32
q66 0 66 71q0 44 -18 94z" />
    <glyph glyph-name="uni0651064F" 
d="M150 1694q0 -118 -61 -188t-152 -70q-63 0 -115 30l28 58q44 -23 87 -23q95 0 135 105q-32 -4 -41 -4q-64 0 -103 31t-39 89q0 62 40.5 107t95.5 45t90 -50t35 -130zM43 1665q7 0 43 4q2 6 2 25q0 50 -19 82t-51 32q-30 0 -49.5 -23t-19.5 -56q0 -64 94 -64zM154 1382
l49 21q28 -61 29 -117.5t-32 -96.5t-89 -40q-64 0 -99 35q-34 -58 -108 -58q-63 0 -99 35.5t-36 95.5q0 50 20 97l49 -15q-10 -30 -10 -61q0 -80 76 -80q67 0 67 80q0 23 -6 47l51 12q13 -47 13 -77v-11q25 -32 77 -32q66 0 66 71q0 44 -18 94z" />
    <glyph glyph-name="uni0651064C" 
d="M2 1436q-35 0 -70 23t-58 50.5t-47 50.5t-38 23q-36 0 -88 -70l-43 39q65 95 135 95q46 0 109 -72q65 -74 104 -74q87 0 127 105q-32 -4 -41 -4q-64 0 -102.5 31t-38.5 89q0 62 40 107t95 45t90 -50t35 -130q0 -110 -62.5 -184t-146.5 -74zM104 1665q7 0 43 4q3 9 3 25
q0 114 -68 114q-30 0 -51 -23t-21 -56q0 -64 94 -64zM154 1382l49 21q28 -61 29 -117.5t-32 -96.5t-89 -40q-64 0 -99 35q-34 -58 -108 -58q-63 0 -99 35.5t-36 95.5q0 50 20 97l49 -15q-10 -30 -10 -61q0 -80 76 -80q67 0 67 80q0 23 -6 47l51 12q13 -47 13 -77v-11
q25 -32 77 -32q66 0 66 71q0 44 -18 94z" />
    <glyph glyph-name="uni0651064E" 
d="M221 1561l6 -2l-10 -66l-459 -70l-6 2l10 66zM154 1382l49 21q28 -61 29 -117.5t-32 -96.5t-89 -40q-64 0 -99 35q-34 -58 -108 -58q-63 0 -99 35.5t-36 95.5q0 50 20 97l49 -15q-10 -30 -10 -61q0 -80 76 -80q67 0 67 80q0 23 -6 47l51 12q13 -47 13 -77v-11
q25 -32 77 -32q66 0 66 71q0 44 -18 94z" />
    <glyph glyph-name="uni0651064B.1" 
d="M227 1745l-10 -66l-459 -69l-6 2l10 65l459 70zM221 1561l6 -2l-10 -66l-459 -70l-6 2l10 66zM154 1382l49 21q28 -61 29 -117.5t-32 -96.5t-89 -40q-64 0 -99 35q-34 -58 -108 -58q-63 0 -99 35.5t-36 95.5q0 50 20 97l49 -15q-10 -30 -10 -61q0 -80 76 -80q67 0 67 80
q0 23 -6 47l51 12q13 -47 13 -77v-11q25 -32 77 -32q66 0 66 71q0 44 -18 94z" />
    <glyph glyph-name="uni06510650" 
d="M-86 1313q-63 0 -99 35.5t-36 95.5q0 49 20 96l49 -14q-10 -30 -10 -62q0 -80 76 -80q68 0 68 80q0 19 -7 47l52 13q12 -44 12 -78v-10q26 -33 78 -33q65 0 65 72q0 45 -18 94l49 20q28 -61 29 -117.5t-32 -96.5t-89 -40q-63 0 -98 35q-34 -57 -109 -57zM-238 1116l11 66
l458 69l7 -2l-11 -65l-458 -70z" />
    <glyph glyph-name="uni0651064D" 
d="M-86 1499q-63 0 -99 35.5t-36 95.5q0 49 20 96l49 -14q-10 -30 -10 -61q0 -80 76 -80q68 0 68 80q0 19 -7 47l52 12q12 -44 12 -78v-10q26 -33 78 -33q65 0 65 72q0 45 -18 94l49 21q28 -61 29 -117.5t-32 -96.5t-89 -40q-64 0 -98 34q-34 -57 -109 -57zM-238 1303l11 65
l458 70l7 -2l-11 -66l-458 -70zM-238 1116l11 66l458 69l7 -2l-11 -65l-458 -70z" />
    </font>
</defs>
</svg>
