<?xml version="1.0" standalone="no"?>
<!DOCTYPE svg PUBLIC "-//W3C//DTD SVG 1.1//EN" "http://www.w3.org/Graphics/SVG/1.1/DTD/svg11.dtd" >
<svg xmlns="http://www.w3.org/2000/svg" xmlns:xlink="http://www.w3.org/1999/xlink" version="1.1">
<metadata>
Created by FontForge 20170731 at Sat Feb  4 16:23:07 2023
 By Aleksey,,,
Copyright (c) 2018 Monotype GmbH. All rights reserved.
</metadata>
<defs>
<font id="AvenirArabic-Book" horiz-adv-x="0" >
  <font-face 
    font-family="Avenir Arabic Book"
    font-weight="300"
    font-stretch="normal"
    units-per-em="2048"
    panose-1="2 11 5 3 2 2 3 2 2 4"
    ascent="1638"
    descent="-410"
    x-height="958"
    cap-height="1450"
    bbox="-688 -940 2855 2220"
    underline-thickness="102"
    underline-position="-409"
    unicode-range="U+000D-FEFF"
  />
<missing-glyph horiz-adv-x="1048" 
d="M0 1470h1049v-1470h-1049v1470zM102 102h844v1264h-844v-1264zM530 1247q111 0 182.5 -74t71.5 -194q0 -73 -28.5 -126.5t-102.5 -121.5q-60 -58 -76.5 -82.5t-17.5 -66.5q-4 -66 -4 -103h-94q-4 46 -4 60q0 44 18 118q2 9 15 32.5t14 25.5q2 5 19 25t18 22q2 4 47 49
q43 43 71 82q21 30 21 78q0 72 -46.5 123t-109.5 51q-144 0 -168 -195l-102 17q12 136 83 208t193 72zM455 240v137h114v-137h-114z" />
    <glyph glyph-name="uniFDF2" unicode="&#x627;&#xfedf;&#xfee0;&#xfeea;" horiz-adv-x="2840" arabic-form="isolated" 
d="M1417 1618h-10v299h70v-277zM1350 1305q-65 0 -101.5 36t-36.5 97q0 46 21 96l51 -12q-10 -33 -10 -62q0 -78 76 -78q63 0 63 78q0 25 -4 45l53 13q13 -44 13 -76v-8q23 -33 75 -33q64 0 64 67q0 37 -17 93l52 22q30 -61 30 -117q0 -63 -33 -101t-92 -38q-58 0 -98 37
q-30 -59 -106 -59zM1128 0q-286 0 -342 115q-142 -68 -286 -68q-193 0 -305.5 96t-112.5 265q0 191 127.5 304t347.5 113h334v-499q0 -115 50.5 -156t186.5 -41q140 0 194 62.5t54 218.5v790h135v-821q0 -250 273 -250q142 0 195 61t53 220v1138h135v-1194q0 -354 -383 -354
q-242 0 -324 150q-86 -150 -332 -150zM2679 0h-135v1548h135v-1548zM510 180q135 0 238 56v460h-216q-145 0 -228 -70.5t-83 -203.5q0 -118 74.5 -180t214.5 -62z" />
    <glyph glyph-name="uniFEF5" unicode="&#xfedf;&#xfe82;" horiz-adv-x="1349" arabic-form="isolated" 
d="M1053 416v1132h135v-1169q0 -181 -105 -280t-299 -99h-723v129h441v997h135v-997h133q144 0 213.5 68.5t69.5 218.5zM399 1350q-50 0 -96 -37l-49 57q76 70 152 70q37 0 139 -27q110 -29 141 -29q54 0 115 52l55 -52q-58 -88 -162 -88q-54 0 -159 27t-136 27z" />
    <glyph glyph-name="uniFEF6" unicode="&#xfee0;&#xfe82;" horiz-adv-x="1462" arabic-form="final" 
d="M1462 129q41 0 41 -66q0 -63 -41 -63q-248 0 -329 158q-103 -158 -349 -158h-723v129h441v997h135v-997h133q144 0 213.5 68.5t69.5 218.5v1132h135v-1169q0 -250 274 -250zM399 1350q-50 0 -96 -37l-49 57q76 70 152 70q37 0 139 -27q110 -29 141 -29q54 0 115 52
l55 -52q-58 -88 -162 -88q-54 0 -159 27t-136 27z" />
    <glyph glyph-name="uniFEF7" unicode="&#xfedf;&#xfe84;" horiz-adv-x="1349" arabic-form="isolated" 
d="M561 1352h180v-72h-331v72h75q-30 50 -30 104q0 69 48.5 111.5t123.5 42.5q33 0 96 -13l-14 -69q-33 10 -70 10q-76 0 -100.5 -54t22.5 -132zM1053 416v1132h135v-1169q0 -181 -105 -280t-299 -99h-723v129h441v997h135v-997h133q144 0 213.5 68.5t69.5 218.5z" />
    <glyph glyph-name="uniFEF8" unicode="&#xfee0;&#xfe84;" horiz-adv-x="1462" arabic-form="final" 
d="M561 1352h180v-72h-331v72h75q-30 50 -30 104q0 69 48.5 111.5t123.5 42.5q33 0 96 -13l-14 -69q-33 10 -70 10q-76 0 -100.5 -54t22.5 -132zM1462 129q41 0 41 -66q0 -63 -41 -63q-248 0 -329 158q-103 -158 -349 -158h-723v129h441v997h135v-997h133q144 0 213.5 68.5
t69.5 218.5v1132h135v-1169q0 -250 274 -250z" />
    <glyph glyph-name="uniFEF9" unicode="&#xfedf;&#xfe88;" horiz-adv-x="1349" arabic-form="isolated" 
d="M1053 416v1132h135v-1169q0 -181 -105 -280t-299 -99h-723v129h441v997h135v-997h133q144 0 213.5 68.5t69.5 218.5zM553 -279q-31 -23 -31 -67t31 -94h180v-72h-332v72h78q-30 50 -30 104q0 69 47 111.5t122 42.5q34 0 97 -13l-13 -69q-38 10 -71 10q-50 0 -78 -25z" />
    <glyph glyph-name="uniFEFA" unicode="&#xfee0;&#xfe88;" horiz-adv-x="1462" arabic-form="final" 
d="M1462 129q41 0 41 -66q0 -63 -41 -63q-248 0 -329 158q-103 -158 -349 -158h-723v129h441v997h135v-997h133q144 0 213.5 68.5t69.5 218.5v1132h135v-1169q0 -250 274 -250zM553 -279q-31 -23 -31 -67t31 -94h180v-72h-332v72h78q-30 50 -30 104q0 69 47 111.5t122 42.5
q34 0 97 -13l-13 -69q-38 10 -71 10q-50 0 -78 -25z" />
    <glyph glyph-name="uniFEFB" unicode="&#xfedf;&#xfe8e;" horiz-adv-x="1349" arabic-form="isolated" 
d="M1053 416v1132h135v-1169q0 -181 -105 -280t-299 -99h-723v129h441v997h135v-997h133q144 0 213.5 68.5t69.5 218.5z" />
    <glyph glyph-name="uniFEFC" unicode="&#xfee0;&#xfe8e;" horiz-adv-x="1462" arabic-form="final" 
d="M1462 129q41 0 41 -66q0 -63 -41 -63q-248 0 -329 158q-103 -158 -349 -158h-723v129h441v997h135v-997h133q144 0 213.5 68.5t69.5 218.5v1132h135v-1169q0 -250 274 -250z" />
    <glyph glyph-name="uni06440671" unicode="&#xfedf;&#xfb51;" horiz-adv-x="1349" 
d="M793 1393q0 -58 -19 -113h-493v72h102v202h72v-92q73 105 180 105q73 0 115.5 -47t42.5 -127zM1053 416v1132h135v-1169q0 -181 -105 -280t-299 -99h-723v129h441v997h135v-997h133q144 0 213.5 68.5t69.5 218.5zM629 1495q-54 0 -102 -39t-78 -104h270q6 24 6 43
q0 47 -26.5 73.5t-69.5 26.5z" />
    <glyph glyph-name="uni06440671.fina" unicode="&#xfee0;&#xfb51;" horiz-adv-x="1462" 
d="M793 1393q0 -58 -19 -113h-493v72h102v202h72v-92q73 105 180 105q73 0 115.5 -47t42.5 -127zM1462 129q41 0 41 -66q0 -63 -41 -63q-248 0 -329 158q-103 -158 -349 -158h-723v129h441v997h135v-997h133q144 0 213.5 68.5t69.5 218.5v1132h135v-1169q0 -250 274 -250z
M629 1495q-54 0 -102 -39t-78 -104h270q6 24 6 43q0 47 -26.5 73.5t-69.5 26.5z" />
    <glyph glyph-name="uni066E.fina" unicode="&#x66e;" horiz-adv-x="2048" 
d="M2048 129q41 0 41 -66q0 -63 -41 -63q-248 0 -330 156q-102 -156 -340 -156h-819q-220 0 -344.5 103t-124.5 282q0 139 66 322l125 -35q-54 -187 -54 -262q0 -281 351 -281h786q142 0 208 67t66 214v415h136v-446q0 -250 274 -250z" />
    <glyph glyph-name="uni066F.fina" unicode="&#x66f;" horiz-adv-x="1693" 
d="M1458 129h236q41 0 41 -66q0 -63 -41 -63h-244q-30 -182 -185 -259t-472 -77q-703 0 -703 475q0 124 47 267l125 -33q-35 -116 -35 -215q0 -186 136.5 -274.5t429.5 -88.5q252 0 378 49.5t146 155.5h-162q-479 0 -479 414q0 177 110 305q108 129 299 129
q172 0 272.5 -107.5t100.5 -300.5v-311zM1171 129h152v281q0 149 -63 227t-185 78q-118 0 -189 -80.5t-71 -218.5q0 -150 87.5 -218.5t268.5 -68.5z" />
    <glyph glyph-name="uni06A1.init" unicode="&#x6a1;" horiz-adv-x="1132" 
d="M612 848q189 0 289 -120t100 -322q0 -185 -90 -406h-911v129h285q-107 116 -107 289q0 188 121 309t313 121zM438 129h379q45 139 45 268q0 150 -66.5 234t-193.5 84q-130 0 -207.5 -82.5t-77.5 -218.5q0 -152 121 -285z" />
    <glyph glyph-name="uni06A1.medi" unicode="&#x6a1;" horiz-adv-x="1179" 
d="M940 129h240q41 0 41 -66q0 -63 -41 -63h-230q-192 0 -364 41q-158 -41 -373 -41h-213v129h221q95 0 160 10q-203 132 -203 342q0 158 115 264q115 103 297 103q181 0 291 -102t110 -265q0 -218 -200 -344q79 -8 149 -8zM317 481q0 -106 76.5 -190t192.5 -117
q100 26 186 115q80 83 80 194q0 104 -73.5 168t-190.5 64q-121 0 -196 -65t-75 -169z" />
    <glyph glyph-name="uni06A1.fina" unicode="&#x6a1;" horiz-adv-x="2201" 
d="M1962 129h240q41 0 41 -66q0 -63 -41 -63h-230q-192 0 -364 41q-158 -41 -373 -41h-676q-220 0 -344.5 103t-124.5 282q0 139 66 322l125 -35q-54 -187 -54 -262q0 -281 351 -281h665q95 0 160 10q-203 132 -203 342q0 158 115 264q115 103 297 103q181 0 291 -102
t110 -265q0 -217 -201 -344q79 -8 150 -8zM1339 481q0 -106 76.5 -190t192.5 -117q100 26 186 115q80 83 80 194q0 104 -73.5 168t-190.5 64q-121 0 -196 -65t-75 -169z" />
    <glyph glyph-name="uni06C2.fina" unicode="&#x6c2;" horiz-adv-x="1105" 
d="M526 1182h230v-88h-422v88h100q-41 71 -41 139q0 87 58 138.5t153 51.5q64 0 127 -14l-16 -86q-72 10 -92 10q-61 0 -99.5 -29.5t-38.5 -86.5q0 -52 41 -123zM1106 129q41 0 41 -66q0 -63 -41 -63h-82q-154 0 -233.5 76t-79.5 217v412h-152q-151 0 -243.5 -78t-92.5 -217
q0 -119 82 -217l-102 -82q-119 122 -119 301q0 180 127 301t348 121h293v-496q0 -121 53.5 -165t200.5 -44z" />
    <glyph glyph-name="uni06C3.fina" unicode="&#x6c3;" horiz-adv-x="1128" 
d="M479 1094q-25 -26 -63.5 -26t-63.5 26q-26 25 -26 64t26 65q25 25 63.5 25t63.5 -25q25 -26 25 -65t-25 -64zM756 1094q-25 -26 -63.5 -26t-63.5 26q-26 25 -26 64t26 65q25 25 63.5 25t63.5 -25q25 -26 25 -65t-25 -64zM1128 129q41 0 41 -66q0 -63 -41 -63
q-285 0 -344 115q-139 -68 -284 -68q-193 0 -305.5 96t-112.5 265q0 191 127.5 304t347.5 113h334v-499q0 -115 50.5 -156t186.5 -41zM748 236v460h-216q-145 0 -228 -70.5t-83 -203.5q0 -118 74.5 -180t214.5 -62q135 0 238 56z" />
    <glyph glyph-name="uni06D5.fina" unicode="&#x6d5;" horiz-adv-x="1128" 
d="M1128 129q41 0 41 -66q0 -63 -41 -63q-285 0 -344 115q-139 -68 -284 -68q-193 0 -305.5 96t-112.5 265q0 191 127.5 304t347.5 113h334v-499q0 -115 50.5 -156t186.5 -41zM748 236v460h-216q-145 0 -228 -70.5t-83 -203.5q0 -118 74.5 -180t214.5 -62q135 0 238 56z" />
    <glyph glyph-name="uniFB51" unicode="&#x671;" horiz-adv-x="573" arabic-form="final" 
d="M453 1772q0 -58 -19 -113h-493v72h102v202h72v-92q73 105 180 105q73 0 115.5 -47t42.5 -127zM289 1874q-54 0 -102 -39t-78 -104h270q6 24 6 43q0 47 -26.5 73.5t-69.5 26.5zM573 129q41 0 41 -66q0 -63 -41 -63q-212 0 -311.5 86t-99.5 264v1198h135v-1190
q0 -229 276 -229z" />
    <glyph glyph-name="uniFB57" unicode="&#x67e;" horiz-adv-x="2048" arabic-form="final" 
d="M2048 129q41 0 41 -66q0 -63 -41 -63q-248 0 -330 156q-102 -156 -340 -156h-819q-220 0 -344.5 103t-124.5 282q0 139 66 322l125 -35q-54 -187 -54 -262q0 -281 351 -281h786q142 0 208 67t66 214v415h136v-446q0 -250 274 -250zM846 -272q5 -57 -41.5 -80.5t-93.5 0.5
t-43 80q-4 54 43 76.5t93.5 0t41.5 -76.5zM971 -209q31 25 64.5 25.5t60 -25t26.5 -63.5q0 -60 -55 -85t-96 19q-26 26 -26 65t26 64zM836 -420q41 44 96 19.5t55 -84.5q0 -37 -25 -62.5t-63 -25.5t-64 25.5t-26 62.5q0 38 27 65z" />
    <glyph glyph-name="uniFB58" unicode="&#x67e;" horiz-adv-x="638" arabic-form="initial" 
d="M10 0h-10v129h12q129 0 186.5 66t57.5 215v415h135v-436q0 -389 -381 -389zM164 -340q-25 -25 -63.5 -24.5t-63.5 26.5q-26 26 -26 65t26 64q31 25 64.5 25.5t60 -25t26.5 -63.5q0 -41 -24 -68zM440 -340q-25 -25 -63.5 -24.5t-63.5 26.5q-26 26 -26 65t26 64
q31 25 65 25.5t60.5 -25t26.5 -63.5q0 -40 -25 -68zM305 -549q-41 -41 -97 -17t-56 81q-4 56 43 80t93.5 0.5t41.5 -80.5q0 -36 -25 -64z" />
    <glyph glyph-name="uniFB59" unicode="&#x67e;" horiz-adv-x="665" arabic-form="medial" 
d="M666 129q41 0 41 -66q0 -63 -41 -63q-244 0 -328 152q-90 -152 -328 -152h-10v129h12q129 0 186.5 66t57.5 215v415h135v-436v-10q0 -250 275 -250zM248 -272q5 -57 -41.5 -80.5t-93.5 0.5t-43 80q-4 54 43 76.5t93.5 0t41.5 -76.5zM373 -209q31 25 64.5 25.5t60 -25
t26.5 -63.5q0 -60 -55 -85t-96 19q-26 26 -26 65t26 64zM238 -420q41 44 96 19.5t55 -84.5q0 -37 -25 -62.5t-63 -25.5t-64 25.5t-26 62.5q0 38 27 65z" />
    <glyph glyph-name="uniFB67" unicode="&#x679;" horiz-adv-x="2048" arabic-form="final" 
d="M1169 1001q0 -61 -18 -110h-510v74h102v344h72v-215q75 100 182 100q79 0 125.5 -53t46.5 -140zM993 1122q-54 0 -101.5 -41.5t-76.5 -115.5h281q4 36 4 39q0 54 -29.5 86t-77.5 32zM2048 129q41 0 41 -66q0 -63 -41 -63q-248 0 -330 156q-102 -156 -340 -156h-819
q-220 0 -344.5 103t-124.5 282q0 139 66 322l125 -35q-54 -187 -54 -262q0 -281 351 -281h786q142 0 208 67t66 214v415h136v-446q0 -250 274 -250z" />
    <glyph glyph-name="uniFB68" unicode="&#x679;" horiz-adv-x="514" arabic-form="initial" 
d="M401 1378q79 0 125.5 -52.5t46.5 -139.5q0 -62 -18 -111h-510v74h102v344h72v-215q75 100 182 100zM397 1307q-54 0 -101.5 -41.5t-76.5 -116.5h281q4 36 4 39q0 54 -29.5 86.5t-77.5 32.5zM258 410v415h135v-436q0 -200 -97 -294.5t-296 -94.5v129q137 0 197.5 65
t60.5 216z" />
    <glyph glyph-name="uniFB69" unicode="&#x679;" horiz-adv-x="667" arabic-form="medial" 
d="M573 1186q0 -62 -18 -111h-510v74h102v344h72v-215q75 100 182 100q79 0 125.5 -52.5t46.5 -139.5zM397 1307q-54 0 -101.5 -41.5t-76.5 -116.5h281q4 36 4 39q0 54 -29.5 86.5t-77.5 32.5zM668 129q41 0 41 -66q0 -63 -41 -63q-244 0 -328 152q-90 -152 -340 -152v129
q137 0 197.5 65t60.5 216v415h135v-436v-10q0 -250 275 -250z" />
    <glyph glyph-name="uniFB6B" unicode="&#x6a4;" horiz-adv-x="2201" arabic-form="final" 
d="M1677 1333q-30 -26 -64 -26t-61.5 26t-27.5 64q0 37 26 63.5t64 26.5q37 0 62.5 -26.5t25.5 -63.5q0 -39 -25 -64zM1534 1120q-25 -26 -63.5 -26t-63.5 26q-26 25 -26 64t26 65q25 25 63.5 25t63.5 -25q25 -26 25 -65t-25 -64zM1683 1120q-26 25 -26 64t26 65
q25 25 63.5 25t63.5 -25q25 -26 25 -65t-25 -64q-25 -26 -63.5 -26t-63.5 26zM1962 129h240q41 0 41 -66q0 -63 -41 -63h-230q-192 0 -364 41q-158 -41 -373 -41h-676q-220 0 -344.5 103t-124.5 282q0 139 66 322l125 -35q-54 -187 -54 -262q0 -281 351 -281h665
q95 0 160 10q-203 132 -203 342q0 158 115 264q115 103 297 103q181 0 291 -102t110 -265q0 -217 -201 -344q79 -8 150 -8zM1339 481q0 -106 76.5 -190t192.5 -117q100 26 186 115q80 83 80 194q0 104 -73.5 168t-190.5 64q-121 0 -196 -65t-75 -169z" />
    <glyph glyph-name="uniFB6C" unicode="&#x6a4;" horiz-adv-x="1132" arabic-form="initial" 
d="M678 1333q-30 -26 -64.5 -26t-62 26t-27.5 64q0 37 26 63.5t64 26.5q37 0 62.5 -26.5t25.5 -63.5q0 -40 -24 -64zM535 1120q-25 -26 -63.5 -26t-63.5 26q-26 25 -26 64t26 65q25 25 63.5 25t63.5 -25q25 -26 25 -65t-25 -64zM684 1120q-26 25 -26 64t26 65q25 25 63.5 25
t63.5 -25q25 -26 25 -65t-25 -64q-25 -26 -63.5 -26t-63.5 26zM612 848q189 0 289 -120t100 -322q0 -185 -90 -406h-911v129h285q-107 116 -107 289q0 188 121 309t313 121zM438 129h379q45 139 45 268q0 150 -66.5 234t-193.5 84q-130 0 -207.5 -82.5t-77.5 -218.5
q0 -152 121 -285z" />
    <glyph glyph-name="uniFB6D" unicode="&#x6a4;" horiz-adv-x="1179" arabic-form="medial" 
d="M655 1333q-30 -26 -64 -26t-61.5 26t-27.5 64q0 37 26 63.5t64 26.5q37 0 62.5 -26.5t25.5 -63.5q0 -39 -25 -64zM512 1120q-25 -26 -63.5 -26t-63.5 26q-26 25 -26 64t26 65q25 25 63.5 25t63.5 -25q25 -26 25 -65t-25 -64zM662 1120q-26 25 -26 64t26 65q25 25 63 25
t63 -25q25 -26 25 -65t-25 -64q-25 -26 -63 -26t-63 26zM940 129h240q41 0 41 -66q0 -63 -41 -63h-230q-192 0 -364 41q-158 -41 -373 -41h-213v129h221q95 0 160 10q-203 132 -203 342q0 158 115 264q115 103 297 103q181 0 291 -102t110 -265q0 -218 -200 -344
q79 -8 149 -8zM317 481q0 -106 76.5 -190t192.5 -117q100 26 186 115q80 83 80 194q0 104 -73.5 168t-190.5 64q-121 0 -196 -65t-75 -169z" />
    <glyph glyph-name="uniFB7B" unicode="&#x686;" horiz-adv-x="1359" arabic-form="final" 
d="M1112 129h248q41 0 41 -66q0 -63 -41 -63h-914q-108 0 -166.5 -51.5t-58.5 -145.5q0 -99 69 -151.5t199 -52.5q65 0 121 12l27 -125q-70 -18 -164 -18q-176 0 -283.5 89.5t-107.5 245.5q0 149 95 237.5t255 88.5h543q20 79 20 166q0 196 -105.5 308t-303.5 112
q-112 0 -230 -39l-30 123q140 49 280 49q253 0 386.5 -144t133.5 -399q0 -96 -14 -176zM559 -133q31 29 69 13t38 -56q0 -43 -38 -60t-69 13q-19 20 -19 46.5t19 43.5zM754 -133q31 29 68.5 13t37.5 -56q0 -30 -19.5 -47.5t-43 -17.5t-43 17.5t-19.5 47.5q0 27 19 43z
M702 -260q29 0 46.5 -18.5t17.5 -47.5q0 -27 -17.5 -44t-46.5 -17q-26 0 -43.5 17.5t-17.5 43.5q0 29 17.5 47.5t43.5 18.5z" />
    <glyph glyph-name="uniFB7C" unicode="&#x686;" horiz-adv-x="1005" arabic-form="initial" 
d="M829 0h-829v129h719q13 50 18 104t0 111.5t-20.5 110.5t-47 100.5t-76.5 83t-112 56t-149 20.5q-112 0 -230 -39l-32 123q140 49 282 49q135 0 237.5 -41t165.5 -116t93 -180t25 -234t-44 -277zM326 -340q-25 -25 -63.5 -24.5t-63.5 26.5q-26 26 -26 65t26 64
q31 25 64.5 25.5t60 -25t26.5 -63.5q0 -41 -24 -68zM602 -340q-25 -25 -63.5 -24.5t-63.5 26.5q-26 26 -26 65t26 64q31 25 65 25.5t60.5 -25t26.5 -63.5q0 -40 -25 -68zM467 -549q-41 -41 -97.5 -17t-56.5 81q-4 56 43 80t94 0.5t42 -80.5q0 -36 -25 -64z" />
    <glyph glyph-name="uniFB7D" unicode="&#x686;" horiz-adv-x="1105" arabic-form="medial" 
d="M858 129h248q41 0 41 -66q0 -63 -41 -63h-1106v129h719q13 50 18 104t0 111.5t-20.5 110.5t-47 100.5t-76.5 83t-112 56t-149 20.5q-112 0 -230 -39l-32 123q140 49 282 49q303 0 432 -197t74 -522zM350 -272q5 -57 -41.5 -80.5t-93.5 0.5t-43 80q-4 54 43 76.5t93.5 0
t41.5 -76.5zM475 -209q31 25 65 25.5t60.5 -25t26.5 -63.5q0 -60 -55.5 -85t-96.5 19q-26 26 -26 65t26 64zM340 -420q41 44 96.5 19.5t55.5 -84.5q0 -37 -25.5 -62.5t-63.5 -25.5t-64 25.5t-26 62.5q0 38 27 65z" />
    <glyph glyph-name="uniFB89" unicode="&#x688;" horiz-adv-x="1138" arabic-form="final" 
d="M641 1194q0 -62 -18 -111h-510v74h102v344h72v-215q75 100 182 100q79 0 125.5 -52.5t46.5 -139.5zM465 1315q-54 0 -101.5 -41.5t-76.5 -116.5h280q4 36 4 39q0 54 -29.5 86.5t-76.5 32.5zM911 129h228q41 0 41 -66q0 -63 -41 -63h-1057v129h694v41q0 335 -416 606
l80 111q265 -176 369 -350q102 -175 102 -408z" />
    <glyph glyph-name="uniFB8B" unicode="&#x698;" horiz-adv-x="698" arabic-form="final" 
d="M428 1311q-30 -26 -64.5 -26.5t-62 25.5t-27.5 64q0 37 26.5 63.5t64.5 26.5q37 0 62.5 -26.5t25.5 -63.5q0 -38 -25 -63zM285 1098q-25 -26 -63.5 -26t-63.5 26q-26 25 -26 64t26 65q25 25 63.5 25t63.5 -25q25 -26 25 -65t-25 -64zM434 1098q-26 25 -26 64t26 65
q25 25 63.5 25t63.5 -25q25 -26 25 -65t-25 -64q-25 -26 -63.5 -26t-63.5 26zM430 129h268q41 0 41 -66q0 -63 -41 -63h-282v4q-61 -309 -398 -356l-26 125q161 27 232 110.5t71 253.5v688h135v-659v-37z" />
    <glyph glyph-name="uniFB8D" unicode="&#x691;" horiz-adv-x="698" arabic-form="final" 
d="M610 1186q0 -62 -18 -111h-510v74h102v344h72v-215q75 100 182 100q79 0 125.5 -52.5t46.5 -139.5zM434 1307q-54 0 -101.5 -41.5t-76.5 -116.5h281q4 36 4 39q0 54 -29.5 86.5t-77.5 32.5zM430 129h268q41 0 41 -66q0 -63 -41 -63h-282v4q-61 -309 -398 -356l-26 125
q161 27 232 110.5t71 253.5v688h135v-659v-37z" />
    <glyph glyph-name="uniFB8F" unicode="&#x6a9;" horiz-adv-x="1880" arabic-form="final" 
d="M1608 129h272q41 0 41 -66q0 -63 -41 -63h-1321q-220 0 -344.5 103t-124.5 282q0 139 66 322l125 -35q-54 -187 -54 -262q0 -281 351 -281h899v84q0 229 -140 369q-138 138 -479 243v133l580 560l88 -91l-531 -514q349 -115 480 -286q133 -177 133 -437v-61z" />
    <glyph glyph-name="uniFB90" unicode="&#x6a9;" horiz-adv-x="958" arabic-form="initial" 
d="M745 1427l-530 -514q348 -114 479 -286q133 -177 133 -437v-190h-827v129h696v84q0 230 -139 369q-138 138 -479 243v133l579 560z" />
    <glyph glyph-name="uniFB91" unicode="&#x6a9;" horiz-adv-x="1087" arabic-form="medial" 
d="M827 129h260q41 0 41 -66q0 -63 -41 -63h-1087v129h696v84q0 230 -139 369q-138 138 -479 243v133l579 560l88 -91l-530 -514q348 -114 479 -286q133 -177 133 -437v-61z" />
    <glyph glyph-name="uniFB93" unicode="&#x6af;" horiz-adv-x="1880" arabic-form="final" 
d="M1278 1681l90 -90l-516 -495l-94 92zM1608 129h272q41 0 41 -66q0 -63 -41 -63h-1321q-220 0 -344.5 103t-124.5 282q0 139 66 322l125 -35q-54 -187 -54 -262q0 -281 351 -281h899v84q0 229 -140 369q-138 138 -479 243v133l580 560l88 -91l-531 -514q349 -115 480 -286
q133 -177 133 -437v-61z" />
    <glyph glyph-name="uniFB94" unicode="&#x6af;" horiz-adv-x="958" arabic-form="initial" 
d="M588 1591l-516 -495l-95 92l521 493zM745 1427l-530 -514q348 -114 479 -286q133 -177 133 -437v-190h-827v129h696v84q0 230 -139 369q-138 138 -479 243v133l579 560z" />
    <glyph glyph-name="uniFB95" unicode="&#x6af;" horiz-adv-x="1087" arabic-form="medial" 
d="M498 1681l90 -90l-516 -495l-95 92zM827 129h260q41 0 41 -66q0 -63 -41 -63h-1087v129h696v84q0 230 -139 369q-138 138 -479 243v133l579 560l88 -91l-530 -514q348 -114 479 -286q133 -177 133 -437v-61z" />
    <glyph glyph-name="uniFB9F" unicode="&#x6ba;" horiz-adv-x="1435" arabic-form="final" 
d="M1174 129h262q41 0 41 -66q0 -63 -41 -63h-283q-42 -163 -179.5 -249.5t-346.5 -86.5q-254 0 -395.5 127t-141.5 340q0 160 84 363l121 -41q-68 -171 -68 -306q0 -174 105 -263t299 -89q407 0 407 395v486h136v-520v-27z" />
    <glyph glyph-name="uniFBA7" unicode="&#x6c1;" horiz-adv-x="1179" arabic-form="final" 
d="M188 -18l-106 45q107 235 248 367t293 132q94 0 158.5 -47.5t131.5 -165.5q65 -113 117 -149q50 -35 150 -35q41 0 41 -68q0 -61 -41 -61q-144 0 -215 45q-75 46 -152 178q-57 101 -99 137.5t-102 36.5q-107 0 -219.5 -111.5t-204.5 -303.5z" />
    <glyph glyph-name="uniFBA8" unicode="&#x6c1;" horiz-adv-x="514" arabic-form="initial" 
d="M0 0v129q137 0 197.5 65t60.5 216v415h135v-436q0 -200 -97 -294.5t-296 -94.5zM295 -457l-107 -53q-63 89 -63 217q0 102 49 203l96 -27q-30 -76 -30 -151q0 -91 55 -189z" />
    <glyph glyph-name="uniFBA9" unicode="&#x6c1;" horiz-adv-x="792" arabic-form="medial" 
d="M766 129h27q41 0 41 -66q0 -63 -41 -63h-27q-127 0 -197.5 -83.5t-70.5 -242.5q0 -78 16 -166q-191 12 -313 119q-125 107 -125 303q0 32 6 70h-82v129h231q-22 -99 -22 -176q0 -228 174 -301q-2 10 -2 43q0 203 105.5 318.5t279.5 115.5z" />
    <glyph glyph-name="uniFBAB" unicode="&#x6be;" horiz-adv-x="1312" arabic-form="final" 
d="M1059 129h254q41 0 41 -66q0 -63 -41 -63h-174q53 -95 53 -186q0 -140 -99.5 -223t-269.5 -83q-370 0 -370 377v115h-45q-187 0 -326 59l41 121q122 -51 285 -51h45v258q0 211 95.5 332t276.5 121q171 0 262 -111q91 -114 91 -272q0 -203 -119 -328zM588 403v-274h176
q126 0 202 88.5t76 226.5q0 118 -62 190.5t-167 72.5q-107 0 -166 -78t-59 -226zM831 -360q224 0 224 186q0 88 -62 174h-405v-104q0 -131 59.5 -193.5t183.5 -62.5z" />
    <glyph glyph-name="uniFBAC" unicode="&#x6be;" horiz-adv-x="1271" arabic-form="initial" 
d="M154 754l22 118q465 -37 717 -176q268 -151 268 -471q0 -109 -26 -225h-365q-175 0 -291 45q-113 -45 -293 -45h-186v129h186q68 0 136 10q-144 111 -144 301q0 93 45 174t123 125q-119 12 -192 15zM301 444q0 -185 176 -274q91 34 146 105.5t55 170.5q0 101 -53 166
q-52 64 -136 64q-81 0 -135 -66q-53 -68 -53 -166zM741 129h285q10 65 10 111q0 283 -299 409q62 -89 62 -203q0 -96 -44 -178t-118 -133q55 -6 104 -6z" />
    <glyph glyph-name="uniFBAD" unicode="&#x6be;" horiz-adv-x="1036" arabic-form="medial" 
d="M782 129h254q41 0 41 -66q0 -63 -41 -63h-174q53 -95 53 -186q0 -140 -99 -223t-269 -83q-371 0 -371 377v115h-176v129h176v258q0 211 96 332t277 121q171 0 262 -111q90 -113 90 -272q0 -203 -119 -328zM311 403v-274h176q126 0 202.5 88.5t76.5 226.5q0 118 -62 190.5
t-167 72.5q-107 0 -166.5 -78t-59.5 -226zM555 -360q223 0 223 186q0 89 -61 174h-406v-104q0 -131 60 -193.5t184 -62.5z" />
    <glyph glyph-name="uniFBAF" unicode="&#x6d2;" horiz-adv-x="851" arabic-form="final" 
d="M709 -532q-332 0 -487.5 81t-155.5 258q0 154 115.5 238t326.5 84h344q41 0 41 -66q0 -63 -41 -63h-358q-299 0 -299 -188q0 -113 126 -163t420 -50q323 0 748 73l8 -129q-449 -75 -788 -75z" />
    <glyph glyph-name="uniFBB1" unicode="&#x6d3;" horiz-adv-x="851" arabic-form="final" 
d="M430 477h229v-88h-421v88h100q-41 71 -41 139q0 87 58 139t153 52q64 0 127 -14l-17 -86q-75 10 -92 10q-60 0 -98.5 -30t-38.5 -87q0 -52 41 -123zM1489 -328l8 -129q-449 -75 -788 -75q-332 0 -487.5 81t-155.5 258q0 154 115.5 238t326.5 84h344q41 0 41 -66
q0 -63 -41 -63h-358q-299 0 -299 -188q0 -113 126 -163t420 -50q323 0 748 73z" />
    <glyph glyph-name="uniFBE8" unicode="&#x649;" horiz-adv-x="514" arabic-form="initial" 
d="M0 0v129q137 0 197.5 65t60.5 216v415h135v-436q0 -200 -97 -294.5t-296 -94.5z" />
    <glyph glyph-name="uniFBE9" unicode="&#x649;" horiz-adv-x="667" arabic-form="medial" 
d="M668 129q41 0 41 -66q0 -63 -41 -63q-244 0 -328 152q-90 -152 -340 -152v129q137 0 197.5 65t60.5 216v415h135v-436v-10q0 -250 275 -250z" />
    <glyph glyph-name="uniFBFD" unicode="&#x6cc;" horiz-adv-x="1566" arabic-form="final" 
d="M1339 129h228q41 0 41 -66q0 -63 -41 -63h-193q88 -61 88 -170q0 -150 -190 -258q-192 -104 -506 -104q-338 0 -507 120t-169 349q0 115 47 264l125 -33q-35 -137 -35 -215q0 -182 130.5 -268t416.5 -86q250 0 400.5 66.5t150.5 170.5q0 65 -64.5 118t-189.5 85l-240 59
l33 115l277 -66q77 -18 198 -18z" />
    <glyph glyph-name="uniFBFE" unicode="&#x6cc;" horiz-adv-x="573" arabic-form="initial" 
d="M10 0h-10v129h12q129 0 186.5 66t57.5 215v415h135v-436q0 -389 -381 -389zM164 -338q-25 -25 -63.5 -25t-63.5 25q-26 26 -26 65t26 64q25 26 63.5 26t63.5 -26q25 -25 25 -64t-25 -65zM440 -338q-25 -25 -63.5 -25t-63.5 25q-26 26 -26 65t26 64q25 26 63.5 26
t63.5 -26q25 -25 25 -64t-25 -65z" />
    <glyph glyph-name="uniFBFF" unicode="&#x6cc;" horiz-adv-x="665" arabic-form="medial" 
d="M666 129q41 0 41 -66q0 -63 -41 -63q-244 0 -328 152q-90 -152 -328 -152h-10v129h12q129 0 186.5 66t57.5 215v415h135v-436v-10q0 -250 275 -250zM96 -209q25 26 63.5 26t63.5 -26q25 -25 25 -64t-25 -65q-25 -25 -63.5 -25t-63.5 25q-26 26 -26 65t26 64zM373 -209
q25 26 63.5 26t63.5 -26q25 -25 25 -64t-25 -65q-25 -25 -63.5 -25t-63.5 25q-26 26 -26 65t26 64z" />
    <glyph glyph-name="uniFDFA" unicode="&#xfdfa;" horiz-adv-x="2299" arabic-form="isolated" 
d="M528 1391q-49 0 -49 53q0 26 8 39l33 -6q-6 -15 -6 -23q0 -22 18 -22q21 0 21 22v19l31 4q2 -12 2 -33q8 -8 18 -8q21 0 21 24q0 15 -7 29l37 12q11 -37 11 -49q0 -57 -54 -57q-20 0 -37 14q-18 -18 -47 -18zM221 956q-70 0 -110.5 36.5t-40.5 101.5q0 79 49 121t145 42
h131v-174q0 -29 14 -40t52 -11t52.5 17t14.5 59v254h90v-260q0 -70 72 -70q38 0 54 19t16 63v342h90v-362q0 -81 -37.5 -116.5t-122.5 -35.5q-80 0 -110 47q-35 -47 -123 -47q-90 0 -123 39q-52 -25 -113 -25zM1061 723q-213 0 -213 147q0 42 14 70l84 -16q-6 -18 -6 -37
q0 -76 127 -76q85 0 133.5 25t48.5 67q0 23 -25 36t-104 34l23 80q79 -21 145 -21q39 0 55.5 18.5t16.5 65.5v340h90v-354q0 -70 76 -70q38 0 55.5 17t17.5 55v117h91v-127q0 -54 43 -60q123 240 288 240q82 0 127 -51t45 -142q0 -65 -24 -139h-414q-76 0 -102 45
q-33 -45 -125 -45q-78 0 -105 47q-35 -47 -110 -47q30 -21 30 -59q0 -69 -77.5 -114.5t-204.5 -45.5zM950 1456h92v-481h-92v481zM2015 1190q-100 0 -190 -158l268 -2q10 38 10 60q0 47 -23.5 73.5t-64.5 26.5zM305 1186h-53q-96 0 -96 -80q0 -70 84 -70q26 0 65 17v133z
M2005 541q0 -40 29 -80h157v-88h-530q-82 0 -111 45q-33 -45 -123 -45h-323v-412q0 -72 74 -72h34q64 0 64 68v113h90v-123q0 -58 59 -58q62 0 62 68v113h90v-123q0 -58 59 -58q60 0 60 70v164h92v-195q0 -127 -139 -127q-63 0 -101 47q-41 -47 -106 -47q-75 0 -105 47
q-44 -47 -120 -47h-39q-83 0 -113 47q-35 -47 -125 -47h-381q-47 -47 -135 -47h-78q-20 14 -41 49l-39 -2q-55 -3 -55 -63v-127h-88v143q0 135 131 135h22q-2 8 -2 35q0 74 47.5 122t124.5 48q73 0 115.5 -46t42.5 -122q0 -29 -2 -37h336q41 0 57.5 18.5t16.5 63.5v402h-287
q-84 0 -111 47q-38 -47 -127 -47h-18q-90 0 -123 39q-52 -27 -113 -27q-70 0 -110.5 37t-40.5 102q0 78 50.5 121t143.5 43h132v-168q0 -33 15 -46t56 -13h4q41 0 59.5 20t18.5 64v143h90v-151q0 -76 78 -76h283v160h92v-160h319q41 0 58.5 19.5t17.5 64.5v303h90v-318
q0 -69 74 -69h272q-24 47 -24 90q0 70 45.5 112t126.5 42q37 0 90 -15l-16 -80q-33 8 -62 8q-42 0 -66 -20.5t-24 -56.5zM319 483v131h-55q-94 0 -94 -77q0 -70 82 -70q27 0 67 16zM575 270q0 -31 -23 -43t-46 1t-23 42q0 28 23 39.5t46 0t23 -39.5zM702 270q0 -21 -12 -35
t-31 -14q-20 0 -33.5 14.5t-13.5 34.5q0 19 13.5 33t33.5 14q18 0 30.5 -14t12.5 -33zM1905 86q42 45 118 45q77 0 113 -45q37 -46 37 -123v-119q0 -105 -65.5 -150.5t-206.5 -39.5l-5 84q187 -9 187 86q-30 -10 -72 -10q-70 0 -110.5 41t-40.5 114q0 72 45 117zM2091 -102
v67q0 88 -70 88q-35 0 -56 -23.5t-21 -64.5q-5 -37 21 -58.5t60.5 -21t65.5 12.5zM391 -168h31q48 0 73 25.5t25 68.5q0 39 -22 62.5t-58 23.5q-38 0 -60 -24.5t-22 -65.5q0 -51 33 -90z" />
    <glyph glyph-name="uniFE82" unicode="&#x622;" horiz-adv-x="573" arabic-form="final" 
d="M354 1675q-54 0 -159 27t-136 27q-50 0 -96 -37l-49 57q76 70 152 70q37 0 139 -27q110 -29 141 -29q54 0 115 52l55 -52q-58 -88 -162 -88zM573 0q-212 0 -311.5 86t-99.5 264v1198h135v-1190q0 -229 276 -229q41 0 41 -66q0 -63 -41 -63z" />
    <glyph glyph-name="uniFE84" unicode="&#x623;" horiz-adv-x="573" arabic-form="final" 
d="M221 1731h180v-72h-331v72h75q-30 49 -30 104q0 69 48.5 111.5t123.5 42.5q33 0 96 -13l-14 -69q-33 10 -70 10q-76 0 -100.5 -54t22.5 -132zM573 129q41 0 41 -66q0 -63 -41 -63q-212 0 -311.5 86t-99.5 264v1198h135v-1190q0 -229 276 -229z" />
    <glyph glyph-name="uniFE86" unicode="&#x624;" horiz-adv-x="1099" arabic-form="final" 
d="M485 1196h230v-88h-422v88h100q-41 71 -41 139q0 87 58 139t153 52q59 0 127 -15l-16 -86q-79 11 -92 11q-60 0 -99 -30t-39 -87q0 -52 41 -123zM895 129h205q41 0 41 -66q0 -63 -41 -63h-209q-52 -356 -557 -356q-28 0 -90 4l-6 123q483 -27 518 229h-154
q-243 0 -366 106.5t-123 301.5q0 186 112 313q115 127 293 127q173 0 275 -104t102 -287v-328zM252 424q0 -150 88.5 -222.5t277.5 -72.5h142v281q0 146 -64.5 226.5t-181.5 80.5q-113 0 -187.5 -82t-74.5 -211z" />
    <glyph glyph-name="uniFE88" unicode="&#x625;" horiz-adv-x="573" arabic-form="final" 
d="M573 129q41 0 41 -66q0 -63 -41 -63q-212 0 -311.5 86t-99.5 264v1198h135v-1190q0 -229 276 -229zM272 -279q-31 -23 -31 -67t31 -94h181v-72h-332v72h78q-31 51 -31 104q0 69 47.5 111.5t122.5 42.5q33 0 96 -13l-12 -69q-38 10 -72 10q-47 0 -78 -25z" />
    <glyph glyph-name="uniFE8A" unicode="&#x626;" horiz-adv-x="1566" arabic-form="final" 
d="M342 516h229v-88h-421v88h100q-41 71 -41 139q0 87 58 139t153 52q59 0 127 -15l-17 -86q-79 11 -92 11q-60 0 -98.5 -30t-38.5 -87q0 -52 41 -123zM1339 129h228q41 0 41 -66q0 -63 -41 -63h-193q88 -61 88 -170q0 -150 -190 -258q-192 -104 -506 -104q-338 0 -507 120
t-169 349q0 115 47 264l125 -33q-35 -137 -35 -215q0 -182 130.5 -268t416.5 -86q250 0 400.5 66.5t150.5 170.5q0 65 -64.5 118t-189.5 85l-240 59l33 115l277 -66q77 -18 198 -18z" />
    <glyph glyph-name="uniFE8B" unicode="&#x626;" horiz-adv-x="573" arabic-form="initial" 
d="M291 1174h229v-89h-422v89h101q-41 71 -41 139q0 87 58 138.5t153 51.5q64 0 127 -14l-17 -86q-72 10 -92 10q-60 0 -98.5 -30t-38.5 -87q0 -51 41 -122zM256 410v415h135v-436q0 -389 -381 -389h-10v129h12q129 0 186.5 66t57.5 215z" />
    <glyph glyph-name="uniFE8C" unicode="&#x626;" horiz-adv-x="665" arabic-form="medial" 
d="M291 1174h229v-89h-422v89h101q-41 71 -41 139q0 87 58 138.5t153 51.5q64 0 127 -14l-17 -86q-72 10 -92 10q-60 0 -98.5 -30t-38.5 -87q0 -51 41 -122zM666 129q41 0 41 -66q0 -63 -41 -63q-244 0 -328 152q-90 -152 -328 -152h-10v129h12q129 0 186.5 66t57.5 215v415
h135v-436v-10q0 -250 275 -250z" />
    <glyph glyph-name="uniFE8E" unicode="&#x627;" horiz-adv-x="573" arabic-form="final" 
d="M573 0q-212 0 -311.5 86t-99.5 264v1198h135v-1190q0 -229 276 -229q41 0 41 -66q0 -63 -41 -63z" />
    <glyph glyph-name="uniFE90" unicode="&#x628;" horiz-adv-x="2048" arabic-form="final" 
d="M2048 129q41 0 41 -66q0 -63 -41 -63q-248 0 -330 156q-102 -156 -340 -156h-819q-220 0 -344.5 103t-124.5 282q0 139 66 322l125 -35q-54 -187 -54 -262q0 -281 351 -281h786q142 0 208 67t66 214v415h136v-446q0 -250 274 -250zM901 -182q39 0 63.5 -24.5t24.5 -65.5
q0 -38 -25 -64t-63 -26q-41 0 -66.5 25.5t-25.5 64.5q0 41 25.5 65.5t66.5 24.5z" />
    <glyph glyph-name="uniFE91" unicode="&#x628;" horiz-adv-x="514" arabic-form="initial" 
d="M0 0v129q137 0 197.5 65t60.5 216v415h135v-436q0 -200 -97 -294.5t-296 -94.5zM246 -362q-41 0 -66.5 25.5t-25.5 64.5q0 41 25.5 65.5t66.5 24.5q39 0 63.5 -24.5t24.5 -65.5q0 -38 -25 -64t-63 -26z" />
    <glyph glyph-name="uniFE92" unicode="&#x628;" horiz-adv-x="667" arabic-form="medial" 
d="M668 129q41 0 41 -66q0 -63 -41 -63q-244 0 -328 152q-90 -152 -340 -152v129q137 0 197.5 65t60.5 216v415h135v-436v-10q0 -250 275 -250zM303 -182q39 0 63.5 -24.5t24.5 -65.5q0 -38 -25 -64t-63 -26q-41 0 -66.5 25.5t-25.5 64.5q0 41 25.5 65.5t66.5 24.5z" />
    <glyph glyph-name="uniFE94" unicode="&#x629;" horiz-adv-x="1128" arabic-form="final" 
d="M479 1094q-25 -26 -63.5 -26t-63.5 26q-26 25 -26 64t26 65q25 25 63.5 25t63.5 -25q25 -26 25 -65t-25 -64zM756 1094q-25 -26 -63.5 -26t-63.5 26q-26 25 -26 64t26 65q25 25 63.5 25t63.5 -25q25 -26 25 -65t-25 -64zM1128 129q41 0 41 -66q0 -63 -41 -63
q-285 0 -344 115q-139 -68 -284 -68q-193 0 -305.5 96t-112.5 265q0 191 127.5 304t347.5 113h334v-499q0 -115 50.5 -156t186.5 -41zM748 236v460h-216q-145 0 -228 -70.5t-83 -203.5q0 -118 74.5 -180t214.5 -62q135 0 238 56z" />
    <glyph glyph-name="uniFE96" unicode="&#x62a;" horiz-adv-x="2048" arabic-form="final" 
d="M844 909q-25 -26 -63.5 -26t-63.5 26q-26 25 -26 64t26 65q25 25 63.5 25t63.5 -25q25 -26 25 -65t-25 -64zM1120 909q-25 -26 -63.5 -26t-63.5 26q-26 25 -26 64t26 65q25 25 63.5 25t63.5 -25q25 -26 25 -65t-25 -64zM2048 129q41 0 41 -66q0 -63 -41 -63
q-248 0 -330 156q-102 -156 -340 -156h-819q-220 0 -344.5 103t-124.5 282q0 139 66 322l125 -35q-54 -187 -54 -262q0 -281 351 -281h786q142 0 208 67t66 214v415h136v-446q0 -250 274 -250z" />
    <glyph glyph-name="uniFE97" unicode="&#x62a;" horiz-adv-x="573" arabic-form="initial" 
d="M246 1094q-25 -26 -63.5 -26t-63.5 26q-26 25 -26 64t26 65q25 25 63.5 25t63.5 -25q25 -26 25 -65t-25 -64zM522 1094q-25 -26 -63.5 -26t-63.5 26q-26 25 -26 64t26 65q25 25 63.5 25t63.5 -25q25 -26 25 -65t-25 -64zM10 0h-10v129h12q129 0 186.5 66t57.5 215v415
h135v-436q0 -389 -381 -389z" />
    <glyph glyph-name="uniFE98" unicode="&#x62a;" horiz-adv-x="665" arabic-form="medial" 
d="M246 1094q-25 -26 -63.5 -26t-63.5 26q-26 25 -26 64t26 65q25 25 63.5 25t63.5 -25q25 -26 25 -65t-25 -64zM522 1094q-25 -26 -63.5 -26t-63.5 26q-26 25 -26 64t26 65q25 25 63.5 25t63.5 -25q25 -26 25 -65t-25 -64zM666 129q41 0 41 -66q0 -63 -41 -63
q-244 0 -328 152q-90 -152 -328 -152h-10v129h12q129 0 186.5 66t57.5 215v415h135v-436v-10q0 -250 275 -250z" />
    <glyph glyph-name="uniFE9A" unicode="&#x62b;" horiz-adv-x="2048" arabic-form="final" 
d="M987 1126q-30 -26 -64 -26t-61.5 26t-27.5 64q0 37 26 63.5t64 26.5q37 0 62.5 -26.5t25.5 -63.5q0 -39 -25 -64zM844 913q-25 -26 -63.5 -26t-63.5 26q-26 25 -26 64t26 65q25 25 63.5 25t63.5 -25q25 -26 25 -65t-25 -64zM993 913q-26 25 -26 64t26 65q25 25 63.5 25
t63.5 -25q25 -26 25 -65t-25 -64q-25 -26 -63.5 -26t-63.5 26zM2048 129q41 0 41 -66q0 -63 -41 -63q-248 0 -330 156q-102 -156 -340 -156h-819q-220 0 -344.5 103t-124.5 282q0 139 66 322l125 -35q-54 -187 -54 -262q0 -281 351 -281h786q142 0 208 67t66 214v415h136
v-446q0 -250 274 -250z" />
    <glyph glyph-name="uniFE9B" unicode="&#x62b;" horiz-adv-x="573" arabic-form="initial" 
d="M389 1311q-30 -26 -64 -26.5t-61.5 25.5t-27.5 64q0 37 26 63.5t64 26.5q37 0 62.5 -26.5t25.5 -63.5q0 -38 -25 -63zM246 1098q-25 -26 -63.5 -26t-63.5 26q-26 25 -26 64t26 65q25 25 63.5 25t63.5 -25q25 -26 25 -65t-25 -64zM522 1098q-25 -26 -63.5 -26t-63.5 26
q-26 25 -26 64t26 65q25 25 63.5 25t63.5 -25q25 -26 25 -65t-25 -64zM10 0h-10v129h12q129 0 186.5 66t57.5 215v415h135v-436q0 -389 -381 -389z" />
    <glyph glyph-name="uniFE9C" unicode="&#x62b;" horiz-adv-x="665" arabic-form="medial" 
d="M389 1311q-30 -26 -64 -26.5t-61.5 25.5t-27.5 64q0 37 26 63.5t64 26.5q37 0 62.5 -26.5t25.5 -63.5q0 -38 -25 -63zM246 1098q-25 -26 -63.5 -26t-63.5 26q-26 25 -26 64t26 65q25 25 63.5 25t63.5 -25q25 -26 25 -65t-25 -64zM395 1098q-26 25 -26 64t26 65
q25 25 63.5 25t63.5 -25q25 -26 25 -65t-25 -64q-25 -26 -63.5 -26t-63.5 26zM666 129q41 0 41 -66q0 -63 -41 -63q-244 0 -328 152q-90 -152 -328 -152h-10v129h12q129 0 186.5 66t57.5 215v415h135v-436v-10q0 -250 275 -250z" />
    <glyph glyph-name="uniFE9E" unicode="&#x62c;" horiz-adv-x="1359" arabic-form="final" 
d="M1112 129h248q41 0 41 -66q0 -63 -41 -63h-914q-108 0 -166.5 -51.5t-58.5 -145.5q0 -99 69 -151.5t199 -52.5q65 0 121 12l27 -125q-70 -18 -164 -18q-176 0 -283.5 89.5t-107.5 245.5q0 149 95 237.5t255 88.5h543q20 79 20 166q0 196 -105.5 308t-303.5 112
q-112 0 -230 -39l-30 123q140 49 280 49q253 0 386.5 -144t133.5 -399q0 -96 -14 -176zM596 -102q49 6 69.5 -37.5t0 -88t-69.5 -40.5q-51 -4 -73.5 40.5t-1 88t74.5 37.5z" />
    <glyph glyph-name="uniFE9F" unicode="&#x62c;" horiz-adv-x="1005" arabic-form="initial" 
d="M829 0h-829v129h719q13 50 18 104t0 111.5t-20.5 110.5t-47 100.5t-76.5 83t-112 56t-149 20.5q-112 0 -230 -39l-32 123q140 49 282 49q135 0 237.5 -41t165.5 -116t93 -180t25 -234t-44 -277zM406 -362q-41 0 -67 25.5t-26 64.5q0 41 25.5 65.5t67.5 24.5
q39 0 63.5 -24.5t24.5 -65.5q0 -38 -25 -64t-63 -26z" />
    <glyph glyph-name="uniFEA0" unicode="&#x62c;" horiz-adv-x="1105" arabic-form="medial" 
d="M858 129h248q41 0 41 -66q0 -63 -41 -63h-1106v129h719q13 50 18 104t0 111.5t-20.5 110.5t-47 100.5t-76.5 83t-112 56t-149 20.5q-112 0 -230 -39l-32 123q140 49 282 49q303 0 432 -197t74 -522zM406 -182q39 0 63.5 -24.5t24.5 -65.5q0 -38 -25 -64t-63 -26
q-41 0 -67 25.5t-26 64.5q0 41 25.5 65.5t67.5 24.5z" />
    <glyph glyph-name="uniFEA2" unicode="&#x62d;" horiz-adv-x="1359" arabic-form="final" 
d="M1112 129h248q41 0 41 -66q0 -63 -41 -63h-914q-108 0 -166.5 -51.5t-58.5 -145.5q0 -99 69 -151.5t199 -52.5q63 0 187 28l24 -123q-112 -36 -227 -36q-176 0 -283.5 89.5t-107.5 245.5q0 149 95 237.5t255 88.5h543q20 79 20 166q0 196 -105.5 308t-303.5 112
q-112 0 -230 -39l-30 123q140 49 280 49q253 0 386.5 -144t133.5 -399q0 -96 -14 -176z" />
    <glyph glyph-name="uniFEA3" unicode="&#x62d;" horiz-adv-x="1005" arabic-form="initial" 
d="M829 0h-829v129h719q13 50 18 104t0 111.5t-20.5 110.5t-47 100.5t-76.5 83t-112 56t-149 20.5q-112 0 -230 -39l-32 123q140 49 282 49q135 0 237.5 -41t165.5 -116t93 -180t25 -234t-44 -277z" />
    <glyph glyph-name="uniFEA4" unicode="&#x62d;" horiz-adv-x="1105" arabic-form="medial" 
d="M858 129h248q41 0 41 -66q0 -63 -41 -63h-1106v129h719q13 50 18 104t0 111.5t-20.5 110.5t-47 100.5t-76.5 83t-112 56t-149 20.5q-112 0 -230 -39l-32 123q140 49 282 49q303 0 432 -197t74 -522z" />
    <glyph glyph-name="uniFEA6" unicode="&#x62e;" horiz-adv-x="1359" arabic-form="final" 
d="M606 1090q-41 0 -66.5 24.5t-25.5 65.5q0 39 25.5 64.5t66.5 25.5q38 0 63 -26t25 -64q0 -41 -24.5 -65.5t-63.5 -24.5zM1112 129h248q41 0 41 -66q0 -63 -41 -63h-914q-108 0 -166.5 -51.5t-58.5 -145.5q0 -99 69 -151.5t199 -52.5q63 0 187 28l24 -123
q-112 -36 -227 -36q-176 0 -283.5 89.5t-107.5 245.5q0 149 95 237.5t255 88.5h543q20 79 20 166q0 196 -105.5 308t-303.5 112q-112 0 -230 -39l-30 123q140 49 280 49q253 0 386.5 -144t133.5 -399q0 -96 -14 -176z" />
    <glyph glyph-name="uniFEA7" unicode="&#x62e;" horiz-adv-x="1005" arabic-form="initial" 
d="M352 1090q-41 0 -66.5 24.5t-25.5 65.5q0 39 25.5 64.5t66.5 25.5q38 0 63 -26t25 -64q0 -41 -24.5 -65.5t-63.5 -24.5zM829 0h-829v129h719q13 50 18 104t0 111.5t-20.5 110.5t-47 100.5t-76.5 83t-112 56t-149 20.5q-112 0 -230 -39l-32 123q140 49 282 49
q135 0 237.5 -41t165.5 -116t93 -180t25 -234t-44 -277z" />
    <glyph glyph-name="uniFEA8" unicode="&#x62e;" horiz-adv-x="1105" arabic-form="medial" 
d="M352 1090q-41 0 -66.5 24.5t-25.5 65.5q0 39 25.5 64.5t66.5 25.5q38 0 63 -26t25 -64q0 -41 -24.5 -65.5t-63.5 -24.5zM858 129h248q41 0 41 -66q0 -63 -41 -63h-1106v129h719q13 50 18 104t0 111.5t-20.5 110.5t-47 100.5t-76.5 83t-112 56t-149 20.5q-112 0 -230 -39
l-32 123q140 49 282 49q303 0 432 -197t74 -522z" />
    <glyph glyph-name="uniFEAA" unicode="&#x62f;" horiz-adv-x="1138" arabic-form="final" 
d="M911 129h228q41 0 41 -66q0 -63 -41 -63h-1057v129h694v41q0 335 -416 606l80 111q265 -176 369 -350q102 -175 102 -408z" />
    <glyph glyph-name="uniFEAC" unicode="&#x630;" horiz-adv-x="1138" arabic-form="final" 
d="M393 1075q-41 0 -66.5 24.5t-25.5 65.5q0 39 25.5 64.5t66.5 25.5q38 0 63 -26t25 -64q0 -41 -24.5 -65.5t-63.5 -24.5zM911 129h228q41 0 41 -66q0 -63 -41 -63h-1057v129h694v41q0 335 -416 606l80 111q265 -176 369 -350q102 -175 102 -408z" />
    <glyph glyph-name="uniFEAE" unicode="&#x631;" horiz-adv-x="698" arabic-form="final" 
d="M430 129h268q41 0 41 -66q0 -63 -41 -63h-282v4q-61 -309 -398 -356l-26 125q161 27 232 110.5t71 253.5v688h135v-659v-37z" />
    <glyph glyph-name="uniFEB0" unicode="&#x632;" horiz-adv-x="698" arabic-form="final" 
d="M362 1067q-41 0 -66.5 24.5t-25.5 65.5q0 39 25.5 64.5t66.5 25.5q38 0 63.5 -26t25.5 -64q0 -41 -25 -65.5t-64 -24.5zM430 129h268q41 0 41 -66q0 -63 -41 -63h-282v4q-61 -309 -398 -356l-26 125q161 27 232 110.5t71 253.5v688h135v-659v-37z" />
    <glyph glyph-name="uniFEB2" unicode="&#x633;" horiz-adv-x="2598" arabic-form="final" 
d="M2599 129q41 0 41 -66q0 -63 -41 -63q-241 0 -326 147q-89 -147 -303 -147q-208 0 -284 141q-83 -145 -300 -145q-151 0 -217 84q-24 -200 -167.5 -308t-374.5 -108q-254 0 -395.5 127t-141.5 340q0 160 84 363l121 -41q-68 -171 -68 -306q0 -174 105 -263t299 -89
q407 0 407 395v486h136v-354q0 -193 212 -193q114 0 169 62t55 206v279h135v-348q0 -199 223 -199q117 0 169 66t52 215v415h135v-446q0 -250 275 -250z" />
    <glyph glyph-name="uniFEB3" unicode="&#x633;" horiz-adv-x="1675" arabic-form="initial" 
d="M1419 410v415h135v-471q0 -167 -93.5 -260.5t-260.5 -93.5q-206 0 -282 143q-82 -143 -300 -143q-209 0 -274 133q-39 -61 -122.5 -97t-194.5 -36h-27v129h29q127 0 184 60t57 208v279h136v-350q0 -197 210 -197q116 0 171 62t55 206v279h135v-348q0 -199 221 -199
q118 0 169.5 65.5t51.5 215.5z" />
    <glyph glyph-name="uniFEB4" unicode="&#x633;" horiz-adv-x="1828" arabic-form="medial" 
d="M1829 129q41 0 41 -66q0 -63 -41 -63q-241 0 -326 147q-89 -147 -303 -147q-206 0 -282 143q-82 -143 -300 -143q-209 0 -274 133q-39 -61 -122.5 -97t-194.5 -36h-27v129h29q127 0 184 60t57 208v279h136v-350q0 -197 210 -197q116 0 171 62t55 206v279h135v-348
q0 -199 221 -199q118 0 169.5 65.5t51.5 215.5v415h135v-446q0 -250 275 -250z" />
    <glyph glyph-name="uniFEB6" unicode="&#x634;" horiz-adv-x="2598" arabic-form="final" 
d="M1745 1161q-30 -26 -64.5 -26t-62 26t-27.5 64q0 37 26 63.5t64 26.5q37 0 62.5 -26.5t25.5 -63.5q0 -40 -24 -64zM1602 948q-25 -26 -63.5 -26t-63.5 26q-26 25 -26 64t26 65q25 25 63.5 25t63.5 -25q25 -26 25 -65t-25 -64zM1751 948q-26 25 -26 64t26 65
q25 25 63.5 25t63.5 -25q25 -26 25 -65t-25 -64q-25 -26 -63.5 -26t-63.5 26zM2599 129q41 0 41 -66q0 -63 -41 -63q-241 0 -326 147q-89 -147 -303 -147q-208 0 -284 141q-83 -145 -300 -145q-151 0 -217 84q-24 -200 -167.5 -308t-374.5 -108q-254 0 -395.5 127
t-141.5 340q0 160 84 363l121 -41q-68 -171 -68 -306q0 -174 105 -263t299 -89q407 0 407 395v486h136v-354q0 -193 212 -193q114 0 169 62t55 206v279h135v-348q0 -199 223 -199q117 0 169 66t52 215v415h135v-446q0 -250 275 -250z" />
    <glyph glyph-name="uniFEB7" unicode="&#x634;" horiz-adv-x="1675" arabic-form="initial" 
d="M975 1161q-30 -26 -64.5 -26t-62 26t-27.5 64q0 37 26 63.5t64 26.5q37 0 62.5 -26.5t25.5 -63.5q0 -40 -24 -64zM831 948q-25 -26 -63 -26t-63 26q-26 25 -26 64t26 65q25 25 63 25t63 -25q25 -26 25 -65t-25 -64zM981 948q-26 25 -26 64t26 65q25 25 63.5 25t63.5 -25
q25 -26 25 -65t-25 -64q-25 -26 -63.5 -26t-63.5 26zM1419 410v415h135v-471q0 -167 -93.5 -260.5t-260.5 -93.5q-206 0 -282 143q-82 -143 -300 -143q-209 0 -274 133q-39 -61 -122.5 -97t-194.5 -36h-27v129h29q127 0 184 60t57 208v279h136v-350q0 -197 210 -197
q116 0 171 62t55 206v279h135v-348q0 -199 221 -199q118 0 169.5 65.5t51.5 215.5z" />
    <glyph glyph-name="uniFEB8" unicode="&#x634;" horiz-adv-x="1828" arabic-form="medial" 
d="M975 1161q-30 -26 -64.5 -26t-62 26t-27.5 64q0 37 26 63.5t64 26.5q37 0 62.5 -26.5t25.5 -63.5q0 -40 -24 -64zM831 948q-25 -26 -63 -26t-63 26q-26 25 -26 64t26 65q25 25 63 25t63 -25q25 -26 25 -65t-25 -64zM981 948q-26 25 -26 64t26 65q25 25 63.5 25t63.5 -25
q25 -26 25 -65t-25 -64q-25 -26 -63.5 -26t-63.5 26zM1829 129q41 0 41 -66q0 -63 -41 -63q-241 0 -326 147q-89 -147 -303 -147q-206 0 -282 143q-82 -143 -300 -143q-209 0 -274 133q-39 -61 -122.5 -97t-194.5 -36h-27v129h29q127 0 184 60t57 208v279h136v-350
q0 -197 210 -197q116 0 171 62t55 206v279h135v-348q0 -199 221 -199q118 0 169.5 65.5t51.5 215.5v415h135v-446q0 -250 275 -250z" />
    <glyph glyph-name="uniFEBA" unicode="&#x635;" horiz-adv-x="2813" arabic-form="final" 
d="M2568 129h246q41 0 41 -66q0 -63 -41 -63h-1421q-145 0 -226 66q-26 -193 -169 -297.5t-371 -104.5q-254 0 -395.5 127t-141.5 340q0 160 84 363l121 -41q-68 -171 -68 -306q0 -174 105 -263t299 -89q407 0 407 395v486h136v-383q0 -120 124 -154q387 709 852 709
q212 0 327.5 -135.5t115.5 -366.5q0 -98 -25 -217zM1442 129h981q33 103 33 211q0 170 -84.5 272.5t-235.5 102.5q-363 0 -694 -586z" />
    <glyph glyph-name="uniFEBB" unicode="&#x635;" horiz-adv-x="1902" arabic-form="initial" 
d="M1329 848q212 0 327.5 -135.5t115.5 -366.5q0 -160 -62 -346h-1139q-209 0 -274 129q-67 -129 -297 -129v129q117 0 168 62.5t51 205.5v287h135v-358q0 -148 125 -185q114 207 234.5 354.5t234.5 221.5q108 70 198 100.5t183 30.5zM621 129h981q32 100 32 211
q0 171 -84 273t-235 102q-363 0 -694 -586z" />
    <glyph glyph-name="uniFEBC" unicode="&#x635;" horiz-adv-x="1992" arabic-form="medial" 
d="M1747 129h246q41 0 41 -66q0 -63 -41 -63h-1422q-209 0 -274 129q-67 -129 -297 -129v129q117 0 168 62.5t51 205.5v287h135v-358q0 -148 125 -185q114 207 234.5 354.5t234.5 221.5q108 70 198 100.5t183 30.5q212 0 327.5 -135.5t115.5 -366.5q0 -98 -25 -217zM621 129
h981q32 100 32 211q0 171 -84 273t-235 102q-363 0 -694 -586z" />
    <glyph glyph-name="uniFEBE" unicode="&#x636;" horiz-adv-x="2813" arabic-form="final" 
d="M1970 1090q-41 0 -66.5 24.5t-25.5 65.5q0 39 25.5 64.5t66.5 25.5q38 0 63 -26t25 -64q0 -41 -24.5 -65.5t-63.5 -24.5zM2568 129h246q41 0 41 -66q0 -63 -41 -63h-1421q-145 0 -226 66q-26 -193 -169 -297.5t-371 -104.5q-254 0 -395.5 127t-141.5 340q0 160 84 363
l121 -41q-68 -171 -68 -306q0 -174 105 -263t299 -89q407 0 407 395v486h136v-383q0 -120 124 -154q387 709 852 709q212 0 327.5 -135.5t115.5 -366.5q0 -98 -25 -217zM1442 129h981q33 103 33 211q0 170 -84.5 272.5t-235.5 102.5q-363 0 -694 -586z" />
    <glyph glyph-name="uniFEBF" unicode="&#x636;" horiz-adv-x="1902" arabic-form="initial" 
d="M1149 1090q-41 0 -66.5 24.5t-25.5 65.5q0 39 25.5 64.5t66.5 25.5q38 0 63 -26t25 -64q0 -41 -24.5 -65.5t-63.5 -24.5zM1329 848q212 0 327.5 -135.5t115.5 -366.5q0 -160 -62 -346h-1139q-209 0 -274 129q-67 -129 -297 -129v129q117 0 168 62.5t51 205.5v287h135
v-358q0 -148 125 -185q114 207 234.5 354.5t234.5 221.5q108 70 198 100.5t183 30.5zM621 129h981q32 100 32 211q0 171 -84 273t-235 102q-363 0 -694 -586z" />
    <glyph glyph-name="uniFEC0" unicode="&#x636;" horiz-adv-x="1992" arabic-form="medial" 
d="M1149 1090q-41 0 -66.5 24.5t-25.5 65.5q0 39 25.5 64.5t66.5 25.5q38 0 63 -26t25 -64q0 -41 -24.5 -65.5t-63.5 -24.5zM1747 129h246q41 0 41 -66q0 -63 -41 -63h-1422q-209 0 -274 129q-67 -129 -297 -129v129q117 0 168 62.5t51 205.5v287h135v-358q0 -148 125 -185
q114 207 234.5 354.5t234.5 221.5q108 70 198 100.5t183 30.5q212 0 327.5 -135.5t115.5 -366.5q0 -98 -25 -217zM621 129h981q32 100 32 211q0 171 -84 273t-235 102q-363 0 -694 -586z" />
    <glyph glyph-name="uniFEC2" unicode="&#x637;" horiz-adv-x="1832" arabic-form="final" 
d="M1585 129h248q41 0 41 -66q0 -63 -41 -63h-1743v129h225v1419h136v-1196q156 242 343 369t375 127q214 0 328 -141q113 -140 113 -361q0 -95 -25 -217zM455 129h987q31 115 31 217q0 169 -82.5 269t-233.5 100q-171 0 -364 -152t-338 -434z" />
    <glyph glyph-name="uniFEC3" unicode="&#x637;" horiz-adv-x="1638" arabic-form="initial" 
d="M1067 848q214 0 328 -141q112 -139 112 -361q0 -163 -59 -346h-1448v129h213v1419h135v-1196q156 241 343 368.5t376 127.5zM352 129h987q31 115 31 217q0 169 -82 269t-233 100q-172 0 -365 -152t-338 -434z" />
    <glyph glyph-name="uniFEC4" unicode="&#x637;" horiz-adv-x="1720" arabic-form="medial" 
d="M1483 129h237q41 0 41 -66q0 -63 -41 -63h-1720v129h213v1419h135v-1196q156 241 343 368.5t376 127.5q214 0 328 -141q112 -139 112 -361q0 -100 -24 -217zM352 129h987q31 115 31 217q0 169 -82 269t-233 100q-172 0 -365 -152t-338 -434z" />
    <glyph glyph-name="uniFEC6" unicode="&#x638;" horiz-adv-x="1832" arabic-form="final" 
d="M1585 129h248q41 0 41 -66q0 -63 -41 -63h-1743v129h225v1419h136v-1196q156 242 343 369t375 127q214 0 328 -141q113 -140 113 -361q0 -95 -25 -217zM1026 1090q-41 0 -66.5 24.5t-25.5 65.5q0 39 25.5 64.5t66.5 25.5q38 0 63 -26t25 -64q0 -41 -24.5 -65.5
t-63.5 -24.5zM455 129h987q31 115 31 217q0 169 -82.5 269t-233.5 100q-171 0 -364 -152t-338 -434z" />
    <glyph glyph-name="uniFEC7" unicode="&#x638;" horiz-adv-x="1638" arabic-form="initial" 
d="M1067 848q214 0 328 -141q112 -139 112 -361q0 -163 -59 -346h-1448v129h213v1419h135v-1196q156 241 343 368.5t376 127.5zM924 1090q-42 0 -67.5 24.5t-25.5 65.5q0 39 26 64.5t67 25.5q38 0 63 -26t25 -64q0 -41 -24.5 -65.5t-63.5 -24.5zM352 129h987q31 115 31 217
q0 169 -82 269t-233 100q-172 0 -365 -152t-338 -434z" />
    <glyph glyph-name="uniFEC8" unicode="&#x638;" horiz-adv-x="1720" arabic-form="medial" 
d="M1483 129h237q41 0 41 -66q0 -63 -41 -63h-1720v129h213v1419h135v-1196q156 241 343 368.5t376 127.5q214 0 328 -141q112 -139 112 -361q0 -100 -24 -217zM924 1090q-42 0 -67.5 24.5t-25.5 65.5q0 39 26 64.5t67 25.5q38 0 63 -26t25 -64q0 -41 -24.5 -65.5
t-63.5 -24.5zM352 129h987q31 115 31 217q0 169 -82 269t-233 100q-172 0 -365 -152t-338 -434z" />
    <glyph glyph-name="uniFECA" unicode="&#x639;" horiz-adv-x="1181" arabic-form="final" 
d="M995 129h187q41 0 41 -66q0 -63 -41 -63h-176q-278 0 -453 88q-332 -111 -332 -295q0 -194 275 -194q96 0 184 24l25 -123q-97 -32 -209 -32q-197 0 -305.5 82.5t-108.5 240.5q0 259 377 397q-73 106 -211 261q-22 25 -45 50t-35.5 38.5t-17.5 19.5q10 95 28 145
q217 146 440 146q173 0 279.5 -80t106.5 -215q0 -222 -281 -393q118 -31 272 -31zM266 625l-2 -13q129 -110 328 -374q125 57 198.5 136t73.5 158q0 80 -70 131.5t-192 51.5q-170 0 -336 -90z" />
    <glyph glyph-name="uniFECB" unicode="&#x639;" horiz-adv-x="983" arabic-form="initial" 
d="M442 129h471v-129h-913v129h283q-103 148 -103 311q0 186 123.5 297t341.5 111q105 0 223 -31l-26 -127q-103 25 -195 25q-154 0 -242 -74.5t-88 -202.5q0 -151 125 -309z" />
    <glyph glyph-name="uniFECC" unicode="&#x639;" horiz-adv-x="1196" arabic-form="medial" 
d="M1042 129h154q41 0 41 -66q0 -63 -41 -63h-143q-290 0 -482 82q-198 -82 -501 -82h-70v129h82q236 0 385 51q-66 88 -152 187q-17 19 -86 96q-18 19 -45.5 49t-36.5 39q11 98 31 149q208 144 440 144q175 0 279 -80.5t104 -218.5q0 -215 -272 -381q140 -35 313 -35z
M264 614l-2 -12q157 -133 336 -366q264 132 264 290q0 82 -72 134.5t-198 52.5q-165 0 -328 -99z" />
    <glyph glyph-name="uniFECE" unicode="&#x63a;" horiz-adv-x="1181" arabic-form="final" 
d="M614 1090q-41 0 -66.5 24.5t-25.5 65.5q0 39 25.5 64.5t66.5 25.5q38 0 63 -26t25 -64q0 -41 -24.5 -65.5t-63.5 -24.5zM995 129h187q41 0 41 -66q0 -63 -41 -63h-176q-278 0 -453 88q-332 -111 -332 -295q0 -194 275 -194q96 0 184 24l25 -123q-97 -32 -209 -32
q-197 0 -305.5 82.5t-108.5 240.5q0 259 377 397q-73 106 -211 261q-22 25 -45 50t-35.5 38.5t-17.5 19.5q10 95 28 145q217 146 440 146q173 0 279.5 -80t106.5 -215q0 -222 -281 -393q118 -31 272 -31zM266 625l-2 -13q129 -110 328 -374q125 57 198.5 136t73.5 158
q0 80 -70 131.5t-192 51.5q-170 0 -336 -90z" />
    <glyph glyph-name="uniFECF" unicode="&#x63a;" horiz-adv-x="983" arabic-form="initial" 
d="M645 1090q-41 0 -66.5 24.5t-25.5 65.5q0 39 25.5 64.5t66.5 25.5q38 0 63 -26t25 -64q0 -41 -24.5 -65.5t-63.5 -24.5zM442 129h471v-129h-913v129h283q-103 148 -103 311q0 186 123.5 297t341.5 111q105 0 223 -31l-26 -127q-103 25 -195 25q-154 0 -242 -74.5
t-88 -202.5q0 -151 125 -309z" />
    <glyph glyph-name="uniFED0" unicode="&#x63a;" horiz-adv-x="1196" arabic-form="medial" 
d="M606 1085q-41 0 -66.5 25t-25.5 66q0 39 25.5 64.5t66.5 25.5q38 0 63 -26t25 -64q0 -41 -24.5 -66t-63.5 -25zM1042 129h154q41 0 41 -66q0 -63 -41 -63h-143q-290 0 -482 82q-198 -82 -501 -82h-70v129h82q236 0 385 51q-66 88 -152 187q-17 19 -86 96q-18 19 -45.5 49
t-36.5 39q11 98 31 149q208 144 440 144q175 0 279 -80.5t104 -218.5q0 -215 -272 -381q140 -35 313 -35zM264 614l-2 -12q157 -133 336 -366q264 132 264 290q0 82 -72 134.5t-198 52.5q-165 0 -328 -99z" />
    <glyph glyph-name="uniFED2" unicode="&#x641;" horiz-adv-x="2201" arabic-form="final" 
d="M1612 1090q-41 0 -66.5 24.5t-25.5 65.5q0 39 25.5 64.5t66.5 25.5q38 0 63 -26t25 -64q0 -41 -24.5 -65.5t-63.5 -24.5zM1962 129h240q41 0 41 -66q0 -63 -41 -63h-230q-192 0 -364 41q-158 -41 -373 -41h-676q-220 0 -344.5 103t-124.5 282q0 139 66 322l125 -35
q-54 -187 -54 -262q0 -281 351 -281h665q95 0 160 10q-203 132 -203 342q0 158 115 264q115 103 297 103q181 0 291 -102t110 -265q0 -217 -201 -344q79 -8 150 -8zM1339 481q0 -106 76.5 -190t192.5 -117q100 26 186 115q80 83 80 194q0 104 -73.5 168t-190.5 64
q-121 0 -196 -65t-75 -169z" />
    <glyph glyph-name="uniFED3" unicode="&#x641;" horiz-adv-x="1132" arabic-form="initial" 
d="M612 1090q-41 0 -66.5 24.5t-25.5 65.5q0 39 25.5 64.5t66.5 25.5q38 0 63 -26t25 -64q0 -41 -24.5 -65.5t-63.5 -24.5zM612 848q189 0 289 -120t100 -322q0 -185 -90 -406h-911v129h285q-107 116 -107 289q0 188 121 309t313 121zM438 129h379q45 139 45 268
q0 150 -66.5 234t-193.5 84q-130 0 -207.5 -82.5t-77.5 -218.5q0 -152 121 -285z" />
    <glyph glyph-name="uniFED4" unicode="&#x641;" horiz-adv-x="1179" arabic-form="medial" 
d="M590 1090q-41 0 -66.5 24.5t-25.5 65.5q0 39 25.5 64.5t66.5 25.5q38 0 63 -26t25 -64q0 -41 -24.5 -65.5t-63.5 -24.5zM940 129h240q41 0 41 -66q0 -63 -41 -63h-230q-192 0 -364 41q-158 -41 -373 -41h-213v129h221q95 0 160 10q-203 132 -203 342q0 158 115 264
q115 103 297 103q181 0 291 -102t110 -265q0 -218 -200 -344q79 -8 149 -8zM317 481q0 -106 76.5 -190t192.5 -117q100 26 186 115q80 83 80 194q0 104 -73.5 168t-190.5 64q-121 0 -196 -65t-75 -169z" />
    <glyph glyph-name="uniFED6" unicode="&#x642;" horiz-adv-x="1693" arabic-form="final" 
d="M1008 1116q-25 -26 -63.5 -26t-63.5 26q-26 25 -26 64t26 65q25 25 63.5 25t63.5 -25q25 -26 25 -65t-25 -64zM1284 1116q-25 -26 -63.5 -26t-63.5 26q-26 25 -26 64t26 65q25 25 63.5 25t63.5 -25q25 -26 25 -65t-25 -64zM1458 129h236q41 0 41 -66q0 -63 -41 -63h-244
q-30 -182 -185 -259t-472 -77q-703 0 -703 475q0 124 47 267l125 -33q-35 -116 -35 -215q0 -186 136.5 -274.5t429.5 -88.5q252 0 378 49.5t146 155.5h-162q-479 0 -479 414q0 177 110 305q108 129 299 129q172 0 272.5 -107.5t100.5 -300.5v-311zM1171 129h152v281
q0 149 -63 227t-185 78q-118 0 -189 -80.5t-71 -218.5q0 -150 87.5 -218.5t268.5 -68.5z" />
    <glyph glyph-name="uniFED7" unicode="&#x642;" horiz-adv-x="1132" arabic-form="initial" 
d="M535 1116q-25 -26 -63.5 -26t-63.5 26q-26 25 -26 64t26 65q25 25 63.5 25t63.5 -25q25 -26 25 -65t-25 -64zM811 1116q-25 -26 -63.5 -26t-63.5 26q-26 25 -26 64t26 65q25 25 63.5 25t63.5 -25q25 -26 25 -65t-25 -64zM612 848q189 0 289 -120t100 -322
q0 -185 -90 -406h-911v129h285q-107 116 -107 289q0 188 121 309t313 121zM438 129h379q45 139 45 268q0 150 -66.5 234t-193.5 84q-130 0 -207.5 -82.5t-77.5 -218.5q0 -152 121 -285z" />
    <glyph glyph-name="uniFED8" unicode="&#x642;" horiz-adv-x="1179" arabic-form="medial" 
d="M512 1116q-25 -26 -63.5 -26t-63.5 26q-26 25 -26 64t26 65q25 25 63.5 25t63.5 -25q25 -26 25 -65t-25 -64zM788 1116q-25 -26 -63 -26t-63 26q-26 25 -26 64t26 65q25 25 63 25t63 -25q25 -26 25 -65t-25 -64zM940 129h240q41 0 41 -66q0 -63 -41 -63h-230
q-192 0 -364 41q-158 -41 -373 -41h-213v129h221q95 0 160 10q-203 132 -203 342q0 158 115 264q115 103 297 103q181 0 291 -102t110 -265q0 -218 -200 -344q79 -8 149 -8zM317 481q0 -106 76.5 -190t192.5 -117q100 26 186 115q80 83 80 194q0 104 -73.5 168t-190.5 64
q-121 0 -196 -65t-75 -169z" />
    <glyph glyph-name="uniFEDA" unicode="&#x643;" horiz-adv-x="1806" arabic-form="final" 
d="M1806 129q41 0 41 -66q0 -63 -41 -63q-234 0 -323 145q-86 -145 -334 -145h-590q-220 0 -344.5 103t-124.5 282q0 139 66 322l125 -35q-54 -187 -54 -262q0 -281 351 -281h571q140 0 194 62.5t54 218.5v1138h135v-1169q0 -250 274 -250zM844 737h194v-86h-403v86h110
q-36 53 -36 121q0 81 57.5 136t148.5 55q31 0 101 -17l-17 -84q-54 13 -81 13q-55 0 -88 -28t-33 -81q0 -62 47 -115z" />
    <glyph glyph-name="uniFEDB" unicode="&#x643;" horiz-adv-x="958" arabic-form="initial" 
d="M745 1427l-530 -514q348 -114 479 -286q133 -177 133 -437v-190h-827v129h696v84q0 230 -139 369q-138 138 -479 243v133l579 560z" />
    <glyph glyph-name="uniFEDC" unicode="&#x643;" horiz-adv-x="1087" arabic-form="medial" 
d="M827 129h260q41 0 41 -66q0 -63 -41 -63h-1087v129h696v84q0 230 -139 369q-138 138 -479 243v133l579 560l88 -91l-530 -514q348 -114 479 -286q133 -177 133 -437v-61z" />
    <glyph glyph-name="uniFEDE" unicode="&#x644;" horiz-adv-x="1402" arabic-form="final" 
d="M1174 129h229q41 0 41 -66q0 -63 -41 -63h-250q-47 -160 -186 -248t-346 -88q-243 0 -388 127q-143 125 -143 340q0 160 84 363l119 -41q-66 -201 -66 -308q0 -172 103 -261t299 -89q409 0 409 398v1355h136v-1388v-31z" />
    <glyph glyph-name="uniFEDF" unicode="&#x644;" horiz-adv-x="544" arabic-form="initial" 
d="M0 0v129q140 0 194 62.5t54 218.5v1138h135v-1194q0 -354 -383 -354z" />
    <glyph glyph-name="uniFEE0" unicode="&#x644;" horiz-adv-x="657" arabic-form="medial" 
d="M657 129q41 0 41 -66q0 -63 -41 -63q-234 0 -323 145q-86 -145 -334 -145v129q140 0 194 62.5t54 218.5v1138h135v-1169q0 -250 274 -250z" />
    <glyph glyph-name="uniFEE2" unicode="&#x645;" horiz-adv-x="1429" arabic-form="final" 
d="M1225 129h205q40 0 40 -66q0 -63 -40 -63h-302q-126 -102 -350 -102h-112q-62 46 -105 102h-158q-91 0 -140.5 -50.5t-49.5 -146.5v-335h-131v335q0 155 83 240.5t236 85.5h84q-45 99 -45 209q0 184 125 303q122 119 305 119q195 0 295 -121q99 -123 99 -299
q0 -129 -39 -211zM702 27h107q156 0 237.5 87.5t81.5 235.5q0 130 -71 205.5t-197 75.5q-128 0 -206.5 -80.5t-78.5 -216.5q0 -180 127 -307z" />
    <glyph glyph-name="uniFEE3" unicode="&#x645;" horiz-adv-x="1122" arabic-form="initial" 
d="M608 848q182 0 291 -121q105 -120 105 -309q0 -192 -117 -305t-344 -113h-543v129h279q-99 132 -99 289q0 190 121 311q119 119 307 119zM436 129h121q151 0 229 78.5t78 212.5q0 135 -73 215t-197 80q-125 0 -200 -78.5t-75 -216.5q0 -153 117 -291z" />
    <glyph glyph-name="uniFEE4" unicode="&#x645;" horiz-adv-x="1169" arabic-form="medial" 
d="M961 129h208q41 0 41 -66q0 -63 -41 -63h-309q-126 -102 -340 -102h-112q-64 50 -107 102h-301v129h225q-45 99 -45 209q0 184 125 303q122 119 305 119q195 0 295 -121q99 -123 99 -299q0 -118 -43 -211zM444 27h105q156 0 237.5 87.5t81.5 235.5q0 130 -71 205.5
t-195 75.5q-130 0 -208.5 -80.5t-78.5 -216.5q0 -181 129 -307z" />
    <glyph glyph-name="uniFEE6" unicode="&#x646;" horiz-adv-x="1435" arabic-form="final" 
d="M651 842q-41 0 -66.5 24.5t-25.5 65.5q0 39 25.5 64.5t66.5 25.5q38 0 63 -26t25 -64q0 -41 -24.5 -65.5t-63.5 -24.5zM1174 129h262q41 0 41 -66q0 -63 -41 -63h-283q-42 -163 -179.5 -249.5t-346.5 -86.5q-254 0 -395.5 127t-141.5 340q0 160 84 363l121 -41
q-68 -171 -68 -306q0 -174 105 -263t299 -89q407 0 407 395v486h136v-520v-27z" />
    <glyph glyph-name="uniFEE7" unicode="&#x646;" horiz-adv-x="514" arabic-form="initial" 
d="M326 1067q-42 0 -67.5 24.5t-25.5 65.5q0 39 26 64.5t67 25.5q38 0 63 -26t25 -64q0 -41 -24.5 -65.5t-63.5 -24.5zM0 0v129q137 0 197.5 65t60.5 216v415h135v-436q0 -200 -97 -294.5t-296 -94.5z" />
    <glyph glyph-name="uniFEE8" unicode="&#x646;" horiz-adv-x="667" arabic-form="medial" 
d="M326 1067q-42 0 -67.5 24.5t-25.5 65.5q0 39 26 64.5t67 25.5q38 0 63 -26t25 -64q0 -41 -24.5 -65.5t-63.5 -24.5zM668 129q41 0 41 -66q0 -63 -41 -63q-244 0 -328 152q-90 -152 -340 -152v129q137 0 197.5 65t60.5 216v415h135v-436v-10q0 -250 275 -250z" />
    <glyph glyph-name="uniFEE9" unicode="&#x647;" horiz-adv-x="1042" arabic-form="isolated" 
d="M502 -10q-198 0 -309 112t-111 295q0 189 113 320q110 131 307 131q196 0 309 -131t113 -320q0 -185 -114 -296t-308 -111zM506 121q133 0 205.5 70.5t72.5 209.5q0 142 -71 228q-74 86 -211 86q-138 0 -209 -86q-72 -90 -72 -226q0 -140 74.5 -211t210.5 -71z" />
    <glyph glyph-name="uniFEEA" unicode="&#x647;" horiz-adv-x="1128" arabic-form="final" 
d="M1128 129q41 0 41 -66q0 -63 -41 -63q-285 0 -344 115q-139 -68 -284 -68q-193 0 -305.5 96t-112.5 265q0 191 127.5 304t347.5 113h334v-499q0 -115 50.5 -156t186.5 -41zM748 236v460h-216q-145 0 -228 -70.5t-83 -203.5q0 -118 74.5 -180t214.5 -62q135 0 238 56z" />
    <glyph glyph-name="uniFEEB" unicode="&#x647;" horiz-adv-x="1271" arabic-form="initial" 
d="M154 754l22 118q465 -37 717 -176q268 -151 268 -471q0 -109 -26 -225h-365q-175 0 -291 45q-113 -45 -293 -45h-186v129h186q68 0 136 10q-144 111 -144 301q0 93 45 174t123 125q-119 12 -192 15zM301 444q0 -185 176 -274q91 34 146 105.5t55 170.5q0 101 -53 166
q-52 64 -136 64q-81 0 -135 -66q-53 -68 -53 -166zM741 129h285q10 65 10 111q0 283 -299 409q62 -89 62 -203q0 -96 -44 -178t-118 -133q55 -6 104 -6z" />
    <glyph glyph-name="uniFEEC" unicode="&#x647;" horiz-adv-x="1036" arabic-form="medial" 
d="M782 129h254q41 0 41 -66q0 -63 -41 -63h-174q53 -95 53 -186q0 -140 -99 -223t-269 -83q-371 0 -371 377v115h-176v129h176v258q0 211 96 332t277 121q171 0 262 -111q90 -113 90 -272q0 -203 -119 -328zM311 403v-274h176q126 0 202.5 88.5t76.5 226.5q0 118 -62 190.5
t-167 72.5q-107 0 -166.5 -78t-59.5 -226zM555 -360q223 0 223 186q0 89 -61 174h-406v-104q0 -131 60 -193.5t184 -62.5z" />
    <glyph glyph-name="uniFEEE" unicode="&#x648;" horiz-adv-x="1099" arabic-form="final" 
d="M895 129h205q41 0 41 -66q0 -63 -41 -63h-209q-52 -356 -557 -356q-28 0 -90 4l-6 123q483 -27 518 229h-154q-243 0 -366 106.5t-123 301.5q0 186 112 313q115 127 293 127q173 0 275 -104t102 -287v-328zM252 424q0 -150 88.5 -222.5t277.5 -72.5h142v281
q0 146 -64.5 226.5t-181.5 80.5q-113 0 -187.5 -82t-74.5 -211z" />
    <glyph glyph-name="uniFEF0" unicode="&#x649;" horiz-adv-x="1566" arabic-form="final" 
d="M1339 129h228q41 0 41 -66q0 -63 -41 -63h-193q88 -61 88 -170q0 -150 -190 -258q-192 -104 -506 -104q-338 0 -507 120t-169 349q0 115 47 264l125 -33q-35 -137 -35 -215q0 -182 130.5 -268t416.5 -86q250 0 400.5 66.5t150.5 170.5q0 65 -64.5 118t-189.5 85l-240 59
l33 115l277 -66q77 -18 198 -18z" />
    <glyph glyph-name="uniFEF2" unicode="&#x64a;" horiz-adv-x="1566" arabic-form="final" 
d="M1339 129h228q41 0 41 -66q0 -63 -41 -63h-193q88 -61 88 -170q0 -150 -190 -258q-192 -104 -506 -104q-338 0 -507 120t-169 349q0 115 47 264l125 -33q-35 -137 -35 -215q0 -182 130.5 -268t416.5 -86q250 0 400.5 66.5t150.5 170.5q0 65 -64.5 118t-189.5 85l-240 59
l33 115l277 -66q77 -18 198 -18zM557 -741q25 26 63.5 26t63.5 -26q25 -25 25 -64t-25 -65q-25 -25 -63.5 -25t-63.5 25q-26 26 -26 65t26 64zM834 -741q25 26 63.5 26t63.5 -26q25 -25 25 -64t-25 -65q-25 -25 -63.5 -25t-63.5 25q-26 26 -26 65t26 64z" />
    <glyph glyph-name="uniFEF3" unicode="&#x64a;" horiz-adv-x="573" arabic-form="initial" 
d="M10 0h-10v129h12q129 0 186.5 66t57.5 215v415h135v-436q0 -389 -381 -389zM164 -338q-25 -25 -63.5 -25t-63.5 25q-26 26 -26 65t26 64q25 26 63.5 26t63.5 -26q25 -25 25 -64t-25 -65zM440 -338q-25 -25 -63.5 -25t-63.5 25q-26 26 -26 65t26 64q25 26 63.5 26
t63.5 -26q25 -25 25 -64t-25 -65z" />
    <glyph glyph-name="uniFEF4" unicode="&#x64a;" horiz-adv-x="665" arabic-form="medial" 
d="M666 129q41 0 41 -66q0 -63 -41 -63q-244 0 -328 152q-90 -152 -328 -152h-10v129h12q129 0 186.5 66t57.5 215v415h135v-436v-10q0 -250 275 -250zM96 -209q25 26 63.5 26t63.5 -26q25 -25 25 -64t-25 -65q-25 -25 -63.5 -25t-63.5 25q-26 26 -26 65t26 64zM373 -209
q25 26 63.5 26t63.5 -26q25 -25 25 -64t-25 -65q-25 -25 -63.5 -25t-63.5 25q-26 26 -26 65t26 64z" />
    <glyph glyph-name=".notdef" horiz-adv-x="1048" 
d="M0 1470h1049v-1470h-1049v1470zM102 102h844v1264h-844v-1264zM530 1247q111 0 182.5 -74t71.5 -194q0 -73 -28.5 -126.5t-102.5 -121.5q-60 -58 -76.5 -82.5t-17.5 -66.5q-4 -66 -4 -103h-94q-4 46 -4 60q0 44 18 118q2 9 15 32.5t14 25.5q2 5 19 25t18 22q2 4 47 49
q43 43 71 82q21 30 21 78q0 72 -46.5 123t-109.5 51q-144 0 -168 -195l-102 17q12 136 83 208t193 72zM455 240v137h114v-137h-114z" />
    <glyph glyph-name=".null" 
 />
    <glyph glyph-name="nonmarkingreturn" horiz-adv-x="681" 
 />
    <glyph glyph-name="NULL" 
 />
    <glyph glyph-name="NULL" 
 />
    <glyph glyph-name="CR" unicode="&#xd;" horiz-adv-x="569" 
 />
    <glyph glyph-name="space" unicode=" " horiz-adv-x="569" 
 />
    <glyph glyph-name="exclam" unicode="!" horiz-adv-x="569" 
d="M211 1450h147v-1057h-147v1057zM207 176q31 32 78.5 32t79.5 -32q31 -32 31 -78t-31 -78q-32 -32 -79.5 -32t-78.5 32q-32 32 -32 78t32 78z" />
    <glyph glyph-name="quotedbl" unicode="&#x22;" horiz-adv-x="1062" 
d="M322 969v481h122v-481h-122zM618 969v481h123v-481h-123z" />
    <glyph glyph-name="numbersign" unicode="#" horiz-adv-x="1138" 
d="M360 1016l60 434h125l-60 -434h273l59 434h125l-59 -434h184v-123h-203l-45 -332h195v-123h-211l-62 -438h-125l62 438h-272l-62 -438h-125l62 438h-209v123h225l45 332h-221v123h239zM739 893h-272l-45 -332h272z" />
    <glyph glyph-name="dollar" unicode="$" horiz-adv-x="1138" 
d="M520 1479v143h98v-139q233 0 379 -174l-114 -99q-85 138 -265 138v-547q237 -83 326 -185q90 -104 90 -251q0 -159 -112 -271t-304 -127v-139h-98v135q-134 8 -248.5 67.5t-183.5 157.5l123 88q63 -78 149 -127t160 -49v572q-208 66 -301.5 163t-93.5 244q0 157 111 271
q111 111 284 129zM272 1083q0 -86 57.5 -145.5t190.5 -110.5v519q-110 -10 -179 -84t-69 -179zM618 643v-541q123 2 197 74t74 193q0 185 -271 274z" />
    <glyph glyph-name="percent" unicode="%" horiz-adv-x="1705" 
d="M338 -8l924 1521l104 -57l-922 -1519zM438 1475q148 0 256 -105q105 -105 105 -254q0 -143 -103 -252q-103 -106 -258 -106q-153 0 -256 106q-104 104 -104 252q0 151 106 254q108 105 254 105zM201 1116q-3 -59 24.5 -110t74.5 -80t101.5 -41.5t110 4.5t94.5 61
q70 67 70 166q0 98 -70 168q-71 68 -170 68q-94 0 -164 -70q-71 -71 -71 -166zM1268 692q147 0 254 -104q106 -106 106 -254t-104 -252q-107 -107 -256 -107t-254 105q-107 104 -107 254t107 254q104 104 254 104zM1030 334q0 -99 72 -168q71 -68 166 -68q98 0 167.5 69
t69.5 167t-68.5 166.5t-168.5 68.5q-99 0 -168.5 -68.5t-69.5 -166.5z" />
    <glyph glyph-name="ampersand" unicode="&#x26;" horiz-adv-x="1441" 
d="M621 1487q155 0 252.5 -89.5t97.5 -236.5q0 -110 -77 -200.5t-243 -176.5l334 -344l199 344h166l-267 -448l326 -336h-209l-205 213q-99 -130 -204 -190t-238 -60q-195 0 -324 117q-131 113 -131 297q0 274 330 428q-170 182 -170 342q0 153 101 246.5t262 93.5z
M406 1141q0 -58 43.5 -131t107.5 -131q159 80 215 149q51 63 51 133q0 83 -56 137t-146 54q-93 0 -154 -59.5t-61 -151.5zM258 377q0 -120 88 -199q86 -80 209 -80q98 0 178 48.5t170 164.5l-383 402q-70 -40 -105.5 -64.5t-76.5 -64.5q-80 -77 -80 -207z" />
    <glyph glyph-name="quotesingle" unicode="'" horiz-adv-x="532" 
d="M205 969v481h123v-481h-123z" />
    <glyph glyph-name="parenleft" unicode="(" horiz-adv-x="532" 
d="M408 1507l108 -69q-151 -248 -209 -424q-61 -180 -61 -424q0 -239 59 -416q57 -170 203 -420l-109 -82q-137 193 -212.5 433t-75.5 485q0 242 77.5 481.5t219.5 435.5z" />
    <glyph glyph-name="parenright" unicode=")" horiz-adv-x="532" 
d="M25 1425l108 82q139 -196 214 -434t75 -483q0 -512 -297 -918l-109 70q147 243 209 426t62 422q0 240 -58 414q-56 165 -204 421z" />
    <glyph glyph-name="asterisk" unicode="*" horiz-adv-x="909" 
d="M393 1157v293h123v-293l287 92l43 -114l-289 -93l184 -247l-98 -74l-188 254l-189 -254l-98 74l184 247l-289 93l43 114z" />
    <glyph glyph-name="plus" unicode="+" horiz-adv-x="1363" 
d="M621 682v461h122v-461h461v-123h-461v-461h-122v461h-461v123h461z" />
    <glyph glyph-name="comma" unicode="," horiz-adv-x="569" 
d="M270 195h166l-166 -482h-137z" />
    <glyph glyph-name="hyphen" unicode="-" horiz-adv-x="681" 
d="M78 559h526v-135h-526v135z" />
    <glyph glyph-name="period" unicode="." horiz-adv-x="569" 
d="M207 176q31 32 78.5 32t79.5 -32q31 -32 31 -78t-31 -78q-32 -32 -79.5 -32t-78.5 32q-32 32 -32 78t32 78z" />
    <glyph glyph-name="slash" unicode="/" horiz-adv-x="757" 
d="M10 2l621 1485l117 -41l-619 -1483z" />
    <glyph glyph-name="zero" unicode="0" horiz-adv-x="1138" 
d="M205 1282q126 193 364 193q241 0 367 -193q125 -192 125 -557q0 -368 -124 -559t-368 -191q-239 0 -365 193t-126 557q0 362 127 557zM567 1339q-342 0 -342 -614t344 -614t344 614t-346 614z" />
    <glyph glyph-name="one" unicode="1" horiz-adv-x="1138" 
d="M582 1450h131v-1450h-148v1266l-262 -230l-90 111z" />
    <glyph glyph-name="two" unicode="2" horiz-adv-x="1138" 
d="M569 1475q188 0 314 -99q125 -98 125 -291q0 -124 -66 -231q-65 -104 -209 -248l-475 -471h762v-135h-922v170l578 588q102 103 143 177t41 150q0 112 -78.5 183t-201.5 71q-106 0 -184.5 -61.5t-104.5 -165.5l-156 16q31 159 148.5 253t285.5 94z" />
    <glyph glyph-name="three" unicode="3" horiz-adv-x="1138" 
d="M539 1475q181 0 301 -105q118 -103 118 -270q0 -111 -67.5 -203.5t-179.5 -130.5q132 -32 209 -133.5t77 -239.5q0 -188 -131 -301q-132 -117 -331 -117q-343 0 -457 293l155 47q73 -204 314 -204q125 0 215 84q88 82 88 202q0 295 -397 295h-35v135h57q336 0 336 267
q0 118 -70 181.5t-198 63.5q-189 0 -277 -159l-129 65q128 230 402 230z" />
    <glyph glyph-name="four" unicode="4" horiz-adv-x="1138" 
d="M664 1450h188v-971h209v-135h-209v-344h-147v344h-627v168zM705 1303h-5l-499 -824h504v824z" />
    <glyph glyph-name="five" unicode="5" horiz-adv-x="1138" 
d="M213 1450h739v-135h-594l-8 -436q87 34 195 34q201 0 329 -131q130 -133 130 -333q0 -208 -138 -340q-140 -134 -350 -134q-138 0 -250.5 68.5t-167.5 189.5l146 64q94 -186 284 -186q136 0 232 96t96 227q0 155 -100 248q-104 96 -256 96q-150 0 -301 -80z" />
    <glyph glyph-name="six" unicode="6" horiz-adv-x="1138" 
d="M614 1450h174l-395 -623l4 -4q73 49 201 49q185 0 315 -127q127 -130 127 -321q0 -195 -133 -322t-338 -127t-338 127t-133 324q0 123 41 223q44 103 148 269zM246 424q0 -139 92 -225q91 -88 231 -88q142 0 233 88t91 225t-90.5 225t-235.5 88q-141 0 -229 -88
q-92 -89 -92 -225z" />
    <glyph glyph-name="seven" unicode="7" horiz-adv-x="1138" 
d="M111 1450h860v-135l-584 -1315h-166l596 1315h-706v135z" />
    <glyph glyph-name="eight" unicode="8" horiz-adv-x="1138" 
d="M569 1475q173 0 289 -107q117 -108 117 -272q0 -110 -61.5 -201t-155.5 -123v-4q123 -35 196.5 -138.5t73.5 -242.5q0 -175 -133 -293q-131 -119 -326 -119q-189 0 -323 119q-135 117 -135 293q0 140 73.5 244.5t196.5 136.5v4q-94 32 -155.5 123t-61.5 201
q0 163 119 270q118 109 286 109zM385 1266q-74 -74 -74 -183q0 -108 74 -182t184 -74q111 0 185 74q73 73 73 182q0 110 -73 183t-187 73q-109 0 -182 -73zM346 623q-88 -82 -88 -215q0 -131 88 -213q87 -84 223 -84q135 0 223.5 83.5t88.5 213.5q0 131 -87.5 214t-226.5 83
q-136 0 -221 -82z" />
    <glyph glyph-name="nine" unicode="9" horiz-adv-x="1138" 
d="M569 1475q205 0 338 -127t133 -324q0 -184 -127 -391l-389 -633h-174l395 623l-4 4q-76 -49 -200 -49q-190 0 -316 129q-127 130 -127 319q0 196 135 322q133 127 336 127zM246 1026q0 -139 92 -225q91 -88 231 -88q142 0 233 88t91 225t-90.5 225t-235.5 88
q-141 0 -229 -88q-92 -89 -92 -225z" />
    <glyph glyph-name="colon" unicode=":" horiz-adv-x="569" 
d="M207 936q31 32 78.5 32t79.5 -32q31 -32 31 -78t-31 -78q-32 -32 -79.5 -32t-78.5 32q-32 32 -32 78t32 78zM207 176q31 32 78.5 32t79.5 -32q31 -32 31 -78t-31 -78q-32 -32 -79.5 -32t-78.5 32q-32 32 -32 78t32 78z" />
    <glyph glyph-name="semicolon" unicode=";" horiz-adv-x="569" 
d="M225 936q31 32 78.5 32t79.5 -32q31 -32 31 -78t-31 -78q-32 -32 -79.5 -32t-78.5 32q-32 32 -32 78t32 78zM270 195h166l-166 -482h-137z" />
    <glyph glyph-name="less" unicode="&#x3c;" horiz-adv-x="1363" 
d="M160 668l1044 487v-123l-878 -411l878 -412v-123l-1044 487v95z" />
    <glyph glyph-name="equal" unicode="=" horiz-adv-x="1363" 
d="M160 836h1044v-123h-1044v123zM160 528h1044v-122h-1044v122z" />
    <glyph glyph-name="greater" unicode="&#x3e;" horiz-adv-x="1363" 
d="M160 1155l1044 -487v-95l-1044 -487v123l878 412l-878 411v123z" />
    <glyph glyph-name="question" unicode="?" horiz-adv-x="987" 
d="M508 1475q172 0 280 -99q109 -100 109 -260q0 -104 -40 -178.5t-144 -165.5q-98 -86 -121 -141q-27 -61 -27 -178v-60h-147v172q0 112 160 254q172 153 172 285q0 104 -67 169.5t-173 65.5q-100 0 -170 -59.5t-90 -163.5l-154 19q25 157 137 248.5t275 91.5zM426 176
q31 32 78.5 32t79.5 -32q31 -32 31 -78t-31 -78q-32 -32 -79.5 -32t-78.5 32q-32 32 -32 78t32 78z" />
    <glyph glyph-name="at" unicode="@" horiz-adv-x="1638" 
d="M854 1487q293 0 494 -180q202 -181 202 -449q0 -238 -153 -407q-156 -170 -318 -170q-128 0 -143 120h-4q-120 -120 -256 -120q-129 0 -210 86t-81 223q0 224 139 401q137 174 340 174q179 0 234 -168h4l45 129h115l-168 -565q-23 -87 -23 -117q0 -17 13.5 -29t33.5 -12
q107 0 209 144q100 138 100 303q0 223 -174 375q-177 151 -399 151q-261 0 -451 -196q-192 -198 -192 -455t190 -453q189 -198 453 -198q154 0 294.5 67t221.5 181h131q-98 -167 -271.5 -263t-375.5 -96q-320 0 -543 223t-223 539q0 314 225 539q223 223 541 223zM520 600
q0 -85 54.5 -141t138.5 -56q116 0 219 146q98 143 98 289q0 84 -49 144t-117 60q-129 0 -237 -141q-107 -140 -107 -301z" />
    <glyph glyph-name="A" unicode="A" horiz-adv-x="1404" 
d="M631 1450h143l631 -1450h-172l-160 381h-741l-160 -381h-172zM702 1278l-315 -762h629z" />
    <glyph glyph-name="B" unicode="B" horiz-adv-x="1290" 
d="M197 1450h442q213 0 335 -95t122 -270q0 -119 -67.5 -203.5t-188.5 -113.5v-4q153 -13 240 -110t87 -251q0 -162 -135 -282q-136 -121 -383 -121h-452v1450zM344 815h303q129 0 209 69t80 183q0 110 -81.5 179t-219.5 69h-291v-500zM344 135h293q169 0 270 73.5
t101 201.5q0 282 -353 282h-311v-557z" />
    <glyph glyph-name="C" unicode="C" horiz-adv-x="1441" 
d="M854 1487q321 0 502 -230l-129 -96q-50 80 -160 135q-112 56 -213 56q-259 0 -428 -181q-168 -180 -168 -446q0 -269 168 -446q169 -181 428 -181q272 0 416 217l121 -86q-79 -121 -225 -193.5t-312 -72.5q-323 0 -539 219q-217 217 -217 543t217 543q216 219 539 219z
" />
    <glyph glyph-name="D" unicode="D" horiz-adv-x="1517" 
d="M176 1450h479q330 0 547 -205t217 -520t-217 -520t-536 -205h-490v1450zM324 135h288q297 0 471 168q177 168 177 422q0 253 -177 424q-178 166 -462 166h-297v-1180z" />
    <glyph glyph-name="E" unicode="E" horiz-adv-x="1214" 
d="M197 1450h899v-135h-752v-494h703v-135h-703v-551h776v-135h-923v1450z" />
    <glyph glyph-name="F" unicode="F" horiz-adv-x="1138" 
d="M197 1450h874v-135h-727v-494h676v-135h-676v-686h-147v1450z" />
    <glyph glyph-name="G" unicode="G" horiz-adv-x="1593" 
d="M854 1487q329 0 524 -195l-110 -108q-155 168 -414 168t-428 -178q-168 -180 -168 -449t168 -446q169 -181 428 -181q224 0 401 103v485h-346v135h494v-710q-251 -148 -549 -148q-325 0 -541 219q-215 218 -215 543q0 327 215 545q214 217 541 217z" />
    <glyph glyph-name="H" unicode="H" horiz-adv-x="1478" 
d="M197 1450h147v-629h791v629h147v-1450h-147v686h-791v-686h-147v1450z" />
    <glyph glyph-name="I" unicode="I" horiz-adv-x="540" 
d="M197 1450h147v-1450h-147v1450z" />
    <glyph glyph-name="J" unicode="J" horiz-adv-x="987" 
d="M664 1450h147v-1061q0 -185 -106 -303q-108 -123 -302 -123q-154 0 -251.5 78.5t-122.5 224.5l149 31q43 -199 230 -199q256 0 256 351v1001z" />
    <glyph glyph-name="K" unicode="K" horiz-adv-x="1290" 
d="M197 1450h147v-629h21l682 629h210l-731 -657l772 -793h-217l-712 748h-25v-748h-147v1450z" />
    <glyph glyph-name="L" unicode="L" horiz-adv-x="1024" 
d="M197 1450h147v-1315h676v-135h-823v1450z" />
    <glyph glyph-name="M" unicode="M" horiz-adv-x="1822" 
d="M197 1450h225l489 -1180l490 1180h225v-1450h-147v1253h-4l-525 -1253h-78l-524 1253h-4v-1253h-147v1450z" />
    <glyph glyph-name="N" unicode="N" horiz-adv-x="1593" 
d="M197 1450h184l864 -1229h4v1229h148v-1450h-185l-864 1241h-4v-1241h-147v1450z" />
    <glyph glyph-name="O" unicode="O" horiz-adv-x="1708" 
d="M313 1270q214 217 541 217t541 -217q215 -218 215 -545q0 -325 -215 -543q-219 -219 -541 -219q-323 0 -539 219q-217 217 -217 543q0 327 215 545zM426 1174q-168 -180 -168 -449t168 -446q169 -181 428 -181q264 0 430 181t166 446q0 266 -168 446q-169 181 -430 181
q-257 0 -426 -178z" />
    <glyph glyph-name="P" unicode="P" horiz-adv-x="1175" 
d="M197 1450h432q222 0 344.5 -100t122.5 -287q0 -188 -122.5 -288.5t-344.5 -100.5h-285v-674h-147v1450zM344 809h248q163 0 253.5 66t90.5 188q0 123 -90.5 187.5t-253.5 64.5h-248v-506z" />
    <glyph glyph-name="Q" unicode="Q" horiz-adv-x="1708" 
d="M831 1487q315 0 525 -213q207 -213 207 -531q0 -423 -340 -604v-4h438v-135h-840q-290 0 -506 207q-217 205 -217 516q0 338 207 551t526 213zM258 743q0 -258 162 -432q159 -176 411 -176q248 0 412 176q160 177 160 432q0 258 -160 435q-162 174 -414 174
q-245 0 -407 -174q-164 -176 -164 -435z" />
    <glyph glyph-name="R" unicode="R" horiz-adv-x="1214" 
d="M197 1450h456q222 0 344.5 -100t122.5 -287q0 -157 -96.5 -257.5t-271.5 -117.5l415 -688h-180l-397 674h-246v-674h-147v1450zM344 809h272q166 0 255.5 65.5t89.5 188.5q0 122 -91 187t-254 65h-272v-506z" />
    <glyph glyph-name="S" unicode="S" horiz-adv-x="1138" 
d="M602 1487q260 0 410 -176l-129 -101q-95 142 -281 142q-135 0 -222 -72.5t-87 -189.5q0 -98 64 -162t202 -107q37 -13 89 -29.5t67 -21.5q71 -28 127 -57q77 -45 106 -78q88 -99 88 -250q3 -178 -139 -299q-144 -123 -340 -123q-296 0 -455 215l134 96q102 -176 327 -176
q127 0 221 76q93 75 93 188q0 106 -67 171t-232 116q-82 24 -144 49q-50 17 -117 56q-64 33 -100 75q-84 99 -84 246q0 186 133 301q132 111 336 111z" />
    <glyph glyph-name="T" unicode="T" horiz-adv-x="1175" 
d="M29 1450h1118v-135h-485v-1315h-148v1315h-485v135z" />
    <glyph glyph-name="U" unicode="U" horiz-adv-x="1404" 
d="M172 1450h147v-903q0 -213 102 -331t281 -118t281 118t102 331v903h148v-918q0 -262 -139 -415.5t-392 -153.5t-391.5 153t-138.5 416v918z" />
    <glyph glyph-name="V" unicode="V" horiz-adv-x="1251" 
d="M-6 1450h164l460 -1229h5l475 1229h159l-565 -1450h-147z" />
    <glyph glyph-name="W" unicode="W" horiz-adv-x="1933" 
d="M0 1450h164l348 -1241h4l365 1241h176l364 -1241h4l344 1241h164l-428 -1450h-172l-364 1241h-4l-365 -1241h-172z" />
    <glyph glyph-name="X" unicode="X" horiz-adv-x="1290" 
d="M53 1450h199l395 -580l408 580h182l-492 -688l533 -762h-195l-442 657l-444 -657h-185l531 762z" />
    <glyph glyph-name="Y" unicode="Y" horiz-adv-x="1175" 
d="M-29 1450h185l432 -684l432 684h184l-542 -825v-625h-148v625z" />
    <glyph glyph-name="Z" unicode="Z" horiz-adv-x="1138" 
d="M59 1450h1020v-123l-846 -1192h859v-135h-1045v123l848 1192h-836v135z" />
    <glyph glyph-name="bracketleft" unicode="[" horiz-adv-x="532" 
d="M133 1499h332v-110h-197v-1598h197v-110h-332v1818z" />
    <glyph glyph-name="backslash" unicode="\" horiz-adv-x="757" 
d="M10 1446l117 41l621 -1485l-119 -39z" />
    <glyph glyph-name="bracketright" unicode="]" horiz-adv-x="532" 
d="M68 1499h331v-1818h-331v110h196v1598h-196v110z" />
    <glyph glyph-name="asciicircum" unicode="^" horiz-adv-x="1363" 
d="M164 563l469 887h98l469 -887h-127l-391 740l-391 -740h-127z" />
    <glyph glyph-name="underscore" unicode="_" horiz-adv-x="1024" 
d="M0 -154h1024v-102h-1024v102z" />
    <glyph glyph-name="grave" unicode="`" horiz-adv-x="491" 
d="M-20 1450h186l205 -295h-121z" />
    <glyph glyph-name="a" unicode="a" horiz-adv-x="1062" 
d="M545 983q161 0 256.5 -91t95.5 -243v-444q0 -77 16 -205h-131q-12 64 -12 156h-4q-114 -181 -338 -181q-147 0 -238.5 77t-91.5 204q0 172 142.5 252t459.5 80h62v20q0 129 -60.5 190.5t-185.5 61.5q-169 0 -293 -112l-82 96q136 139 404 139zM246 274q0 -79 62.5 -127.5
t162.5 -48.5q137 0 214 84.5t77 243.5v51h-94q-199 0 -310.5 -52.5t-111.5 -150.5z" />
    <glyph glyph-name="b" unicode="b" horiz-adv-x="1251" 
d="M147 1548h136v-749h4q59 86 160 135t212 49q223 0 367 -141q143 -143 143 -363q0 -217 -143 -360q-144 -144 -367 -144q-111 0 -211.5 49.5t-160.5 135.5h-4v-160h-136v1548zM387 752q-111 -111 -111 -273t111 -270q108 -111 272 -111q162 0 263 107q100 106 100 274
q0 167 -102 275q-100 106 -263 106q-162 0 -270 -108z" />
    <glyph glyph-name="c" unicode="c" horiz-adv-x="987" 
d="M598 983q217 0 358 -166l-110 -84q-89 127 -244 127q-161 0 -258 -106q-98 -107 -98 -275q0 -164 96 -274q94 -107 254 -107q164 0 250 127l110 -84q-141 -166 -362 -166q-217 0 -356 142q-140 143 -140 362q0 220 140 363q138 141 360 141z" />
    <glyph glyph-name="d" unicode="d" horiz-adv-x="1251" 
d="M969 1548h135v-1548h-135v160h-4q-59 -85 -161 -135t-212 -50q-221 0 -365 144q-145 145 -145 360q0 216 145 361q143 143 365 143q111 0 212.5 -49.5t160.5 -134.5h4v749zM332 754q-103 -109 -103 -275q0 -165 101 -272q103 -109 262 -109q163 0 274 111
q109 112 109 270q0 162 -111 273q-111 108 -274 108q-158 0 -258 -106z" />
    <glyph glyph-name="e" unicode="e" horiz-adv-x="1138" 
d="M238 840q137 143 342 143q203 0 331 -131q129 -132 129 -369v-41h-798q15 -154 114 -245q102 -99 238 -99q93 0 175.5 44t131.5 122l105 -86q-164 -203 -412 -203q-214 0 -354 146q-142 145 -142 358q0 215 140 361zM246 553h647q0 139 -85 223t-226 84q-126 0 -230 -90
q-103 -90 -106 -217z" />
    <glyph glyph-name="f" unicode="f" horiz-adv-x="606" 
d="M553 1573q62 0 117 -14l-25 -123q-52 14 -104 14q-91 0 -132.5 -55.5t-41.5 -182.5v-254h227v-122h-227v-836h-136v836h-202v122h202v273q0 166 82 254t240 88z" />
    <glyph glyph-name="g" unicode="g" horiz-adv-x="1251" 
d="M586 983q242 0 368 -182h7v157h135v-958q0 -231 -133 -361.5t-381 -130.5q-280 0 -461 193l100 106q132 -176 369 -176q177 0 274 98t97 271v180h-5q-119 -180 -358 -180q-211 0 -354 143q-146 143 -146 344q0 209 140 355q138 141 348 141zM350 752q-104 -107 -104 -260
q0 -154 104 -261q102 -108 252 -108q153 0 258 102t105 254q0 171 -103 277q-101 104 -262 104q-145 0 -250 -108z" />
    <glyph glyph-name="h" unicode="h" horiz-adv-x="1138" 
d="M147 1548h136v-743h4q44 78 134 128t187 50q176 0 268.5 -94.5t92.5 -272.5v-616h-135v541q0 168 -59.5 243.5t-194.5 75.5q-127 0 -212 -98.5t-85 -272.5v-489h-136v1548z" />
    <glyph glyph-name="i" unicode="i" horiz-adv-x="491" 
d="M178 1397q32 26 69 26.5t67 -27.5t30 -69q0 -42 -30 -70t-67 -27t-69 27q-31 29 -31 70t31 70zM178 958h135v-958h-135v958z" />
    <glyph glyph-name="j" unicode="j" horiz-adv-x="491" 
d="M178 1397q32 26 69 26.5t67 -27.5t30 -69q0 -42 -30 -70t-67 -27t-69 27q-31 29 -31 70t31 70zM178 958h135v-1177q0 -273 -270 -273q-56 0 -106 21l18 117q43 -15 80 -15q143 0 143 193v1134z" />
    <glyph glyph-name="k" unicode="k" horiz-adv-x="987" 
d="M147 1548h136v-1022l452 432h203l-477 -438l528 -520h-209l-497 504v-504h-136v1548z" />
    <glyph glyph-name="l" unicode="l" horiz-adv-x="491" 
d="M178 1548h135v-1548h-135v1548z" />
    <glyph glyph-name="m" unicode="m" horiz-adv-x="1744" 
d="M596 983q229 0 305 -199q42 91 129.5 145t188.5 54q173 0 265.5 -95t92.5 -272v-616h-135v569q0 153 -57.5 222t-184.5 69q-129 0 -199.5 -92t-70.5 -250v-518h-135v569q0 151 -57 221t-183 70q-120 0 -196 -100t-76 -273v-487h-136v758q0 98 -10 200h146v-145h4
q44 75 130.5 122.5t178.5 47.5z" />
    <glyph glyph-name="n" unicode="n" horiz-adv-x="1138" 
d="M608 983q176 0 268.5 -94.5t92.5 -272.5v-616h-135v541q0 164 -61 241.5t-191 77.5q-120 0 -209 -92q-90 -93 -90 -285v-483h-136v756l-10 202h139q7 -61 7 -153h4q44 78 134 128t187 50z" />
    <glyph glyph-name="o" unicode="o" horiz-adv-x="1214" 
d="M606 983q217 0 365 -139q145 -142 145 -365q0 -217 -143 -360q-144 -144 -367 -144q-218 0 -362 144q-146 146 -146 360q0 215 146 361q143 143 362 143zM346 754q-100 -106 -100 -275q0 -166 102 -274q101 -107 258 -107q159 0 262 109q101 107 101 272q0 168 -101 275
q-100 106 -264 106q-158 0 -258 -106z" />
    <glyph glyph-name="p" unicode="p" horiz-adv-x="1251" 
d="M659 983q224 0 367 -143t143 -361q0 -217 -143 -360q-144 -144 -367 -144q-111 0 -211.5 49.5t-160.5 135.5h-4v-750h-136v1548h136v-159h4q59 86 160 135t212 49zM387 752q-111 -111 -111 -273t111 -270q108 -111 272 -111q162 0 263 107q100 106 100 274
q0 167 -102 275q-100 106 -263 106q-159 0 -270 -108z" />
    <glyph glyph-name="q" unicode="q" horiz-adv-x="1251" 
d="M592 983q111 0 212.5 -49.5t160.5 -134.5h4v159h135v-1548h-135v750h-4q-59 -85 -161 -135t-212 -50q-221 0 -365 144q-145 145 -145 360q0 217 147 361q143 143 363 143zM332 754q-103 -109 -103 -275q0 -165 101 -272q103 -109 262 -109q163 0 274 111q109 112 109 270
q0 162 -111 273q-111 108 -274 108q-158 0 -258 -106z" />
    <glyph glyph-name="r" unicode="r" horiz-adv-x="679" 
d="M598 983q54 0 100 -12l-26 -133q-23 10 -76 10q-132 0 -215 -92q-84 -93 -84 -224v-532h-135v666q0 57 -4 160.5t-4 131.5h133v-178h4q38 97 118 150t189 53z" />
    <glyph glyph-name="s" unicode="s" horiz-adv-x="872" 
d="M457 983q237 0 319 -172l-121 -80q-65 129 -206 129q-89 0 -144 -39t-55 -104q0 -63 48 -98.5t173 -61.5q168 -37 227 -78q111 -83 111 -209q0 -134 -102.5 -214.5t-270.5 -80.5q-242 0 -368 187l116 80q94 -144 252 -144q99 0 162 43.5t64 116.5q2 66 -54.5 103.5
t-204.5 68.5q-301 58 -301 264q0 130 98 209.5t257 79.5z" />
    <glyph glyph-name="t" unicode="t" horiz-adv-x="679" 
d="M231 1229h136v-271h276v-122h-276v-574q0 -84 32.5 -124t106.5 -40q72 0 139 37l6 -125q-81 -35 -182 -35q-112 0 -175 65.5t-63 182.5v613h-202v122h202v271z" />
    <glyph glyph-name="u" unicode="u" horiz-adv-x="1138" 
d="M147 958h136v-540q0 -166 61.5 -243t196.5 -77q121 0 207 99q86 95 86 262v499h135v-755q0 -90 10 -203h-139q-6 40 -6 78v76h-5q-47 -79 -137 -129t-184 -50q-177 0 -269 96t-92 271v616z" />
    <glyph glyph-name="v" unicode="v" horiz-adv-x="987" 
d="M29 958h161l308 -811l307 811h153l-389 -958h-151z" />
    <glyph glyph-name="w" unicode="w" horiz-adv-x="1478" 
d="M29 958h159l222 -778h4l256 778h139l256 -778h4l221 778h160l-303 -958h-152l-254 786h-4l-254 -786h-151z" />
    <glyph glyph-name="x" unicode="x" horiz-adv-x="987" 
d="M47 958h184l267 -358l254 358h168l-334 -446l401 -512h-184l-322 420l-309 -420h-172l395 512z" />
    <glyph glyph-name="y" unicode="y" horiz-adv-x="987" 
d="M33 958h170l301 -792l293 792h164l-467 -1179q-59 -155 -131 -213t-185 -58q-64 0 -123 15l15 131q51 -23 102 -23q118 0 174 148l80 209z" />
    <glyph glyph-name="z" unicode="z" horiz-adv-x="872" 
d="M76 958h729v-98l-561 -737h581v-123h-778v98l561 738h-532v122z" />
    <glyph glyph-name="braceleft" unicode="{" horiz-adv-x="532" 
d="M424 1499h135v-123h-117q-55 0 -77.5 -36t-22.5 -126v-366q0 -98 -51 -170t-129 -86v-4q79 -13 129.5 -85t50.5 -169v-371q0 -86 24 -123t76 -37h117v-122h-135q-100 0 -158.5 66t-58.5 181v379q0 91 -51.5 154t-130.5 67v123q79 1 130.5 65t51.5 156v379
q0 115 58.5 181.5t158.5 66.5z" />
    <glyph glyph-name="bar" unicode="|" horiz-adv-x="454" 
d="M166 -512v2048h123v-2048h-123z" />
    <glyph glyph-name="braceright" unicode="}" horiz-adv-x="532" 
d="M-27 1499h136q100 0 158.5 -66t58.5 -182v-379q0 -92 51.5 -156t130.5 -65v-123q-79 -4 -130.5 -67t-51.5 -154v-379q0 -116 -58.5 -181.5t-158.5 -65.5h-136v122h117q53 0 76.5 36t23.5 124v371q0 96 51.5 166.5t131.5 87.5v4q-80 14 -131.5 85.5t-51.5 170.5v366
q0 89 -24 125.5t-76 36.5h-117v123z" />
    <glyph glyph-name="asciitilde" unicode="~" horiz-adv-x="1363" 
d="M319 715q66 43 151.5 44t162.5 -38q31 -15 92.5 -50t99 -51t68.5 -16q109 0 203 150l86 -82q-75 -104 -139.5 -147.5t-149.5 -43.5q-49 -2 -101 14t-94 40t-81.5 48t-77.5 40t-68 14q-109 0 -203 -150l-86 82q68 99 137 146z" />
    <glyph glyph-name="uni00A0" unicode="&#xa0;" horiz-adv-x="569" 
 />
    <glyph glyph-name="exclamdown" unicode="&#xa1;" horiz-adv-x="569" 
d="M207 963q31 32 78.5 32t79.5 -32q31 -32 31 -78t-31 -78q-32 -32 -79.5 -32t-78.5 32q-32 32 -32 78t32 78zM211 590h147v-1057h-147v1057z" />
    <glyph glyph-name="cent" unicode="&#xa2;" horiz-adv-x="1138" 
d="M590 977v129h98v-125q202 -9 330 -164l-111 -84q-33 53 -91 87t-128 38v-758q143 9 219 125l111 -84q-131 -155 -330 -164v-124h-98v129q-199 21 -314 157q-116 137 -116 340t116 340t314 158zM307 479q0 -143 77.5 -246.5t205.5 -128.5v750q-133 -26 -208 -127t-75 -248
z" />
    <glyph glyph-name="sterling" unicode="&#xa3;" horiz-adv-x="1138" 
d="M813 1475q203 0 320 -123l-97 -105q-94 105 -227 105q-139 0 -210 -94.5t-71 -274.5v-174h344v-123h-344v-563h519v-123h-875v123h209v563h-197v123h197v180q0 237 109 361.5t323 124.5z" />
    <glyph glyph-name="currency" unicode="&#xa4;" horiz-adv-x="1138" 
d="M63 1145l91 90l108 -109q141 109 307.5 109t307.5 -109l108 109l90 -90l-108 -109q108 -138 108 -307q0 -180 -108 -315l108 -109l-90 -90l-108 109q-142 -109 -308 -109q-168 0 -307 109l-108 -109l-91 90l109 109q-109 139 -109 303q0 180 109 319zM199 725
q0 -158 108 -272q109 -115 264 -115q153 0 260 113q109 115 109 274t-109 274q-107 113 -262 113t-262 -113q-108 -114 -108 -274z" />
    <glyph glyph-name="yen" unicode="&#xa5;" horiz-adv-x="1138" 
d="M-4 1450h174l399 -696l400 696h174l-418 -700h252v-111h-320l-14 -25v-157h334v-111h-334v-346h-147v346h-334v111h334v157l-15 25h-319v111h254z" />
    <glyph glyph-name="brokenbar" unicode="&#xa6;" horiz-adv-x="454" 
d="M166 666v716h123v-716h-123zM166 -358v716h123v-716h-123z" />
    <glyph glyph-name="section" unicode="&#xa7;" horiz-adv-x="1138" 
d="M575 1475q128 0 224.5 -53t128.5 -140l-121 -61q-73 131 -221 131q-101 0 -161 -53.5t-60 -133.5q0 -63 49 -116q18 -25 67 -50q70 -40 86 -47q10 -4 26.5 -12t43 -21t49.5 -24q152 -72 210 -144t58 -178q0 -174 -178 -268q77 -56 109.5 -112t32.5 -144
q0 -151 -106.5 -242.5t-279.5 -91.5q-144 0 -250 61t-155 175l135 65q31 -86 101 -132t169 -46q109 0 173.5 55.5t64.5 151.5q0 109 -121 168q-3 1 -18.5 9t-53 27.5t-75.5 39.5l-156 78q-184 91 -184 264q0 174 213 274q-158 100 -158 246t99 235t259 89zM309 641
q0 -105 144 -172l204 -98q64 25 107 77t43 105q0 133 -180 215l-131 59q-187 -67 -187 -186z" />
    <glyph glyph-name="dieresis" unicode="&#xa8;" horiz-adv-x="491" 
d="M-25 1399q31 31 74 31t74 -31t31 -74t-31 -74t-74 -31t-74 31t-31 74t31 74zM369 1399q31 31 73.5 31t73.5 -31t31 -74t-31 -74t-73.5 -31t-73.5 31t-31 74t31 74z" />
    <glyph glyph-name="copyright" unicode="&#xa9;" horiz-adv-x="1638" 
d="M279 1266q226 221 540 221t543 -221q225 -220 225 -537q0 -323 -225 -543q-223 -223 -543 -223q-314 0 -540 221q-228 218 -228 537q0 320 228 545zM174 721q0 -271 191 -459q188 -188 454 -188q272 0 459 190q186 186 186 465q0 273 -188 461q-186 186 -459 186
q-267 0 -455 -188q-188 -191 -188 -467zM844 1190q157 0 262 -83t125 -228h-115q-19 91 -93 145.5t-177 54.5q-147 0 -238.5 -98t-91.5 -252q0 -150 98 -254q93 -106 236 -106q102 0 174.5 58t91.5 151h117q-35 -147 -139 -233.5t-244 -86.5q-203 0 -328 131
q-129 132 -129 336q0 207 123 336t328 129z" />
    <glyph glyph-name="ordfeminine" unicode="&#xaa;" horiz-adv-x="690" 
d="M332 1475q120 0 189 -52.5t69 -138.5v-311q0 -2 1 -12t4 -33t5 -47h-111l-6 75q-64 -88 -204 -88q-95 0 -155.5 46.5t-60.5 123.5q0 108 89 156.5t282 48.5h33v14q0 119 -131 119q-106 0 -182 -61l-66 76q90 84 244 84zM186 1044q0 -36 33 -56.5t88 -20.5q160 0 160 178
h-59q-222 0 -222 -101z" />
    <glyph glyph-name="guillemotleft" unicode="&#xab;" horiz-adv-x="987" 
d="M106 492l287 428l96 -68l-235 -360l235 -361l-96 -68zM479 492l287 428l96 -68l-235 -360l235 -361l-96 -68z" />
    <glyph glyph-name="logicalnot" unicode="&#xac;" horiz-adv-x="1363" 
d="M160 836h1044v-570h-123v447h-921v123z" />
    <glyph glyph-name="uni00AD" unicode="&#xad;" horiz-adv-x="681" 
d="M78 559h526v-135h-526v135z" />
    <glyph glyph-name="registered" unicode="&#xae;" horiz-adv-x="1638" 
d="M279 1266q226 221 540 221q313 0 543 -219q225 -220 225 -539q0 -323 -225 -543q-223 -223 -543 -223q-314 0 -540 221q-228 218 -228 537q0 325 228 545zM174 721q0 -271 191 -459q188 -188 454 -188q272 0 459 190q186 186 186 465q0 273 -188 461q-186 186 -459 186
q-267 0 -455 -188q-188 -191 -188 -467zM535 1161h331q303 0 303 -254q0 -104 -59.5 -165.5t-171.5 -73.5l252 -389h-133l-242 378h-158v-378h-122v882zM657 768h164q127 0 176.5 33t49.5 112q0 138 -191 138h-199v-283z" />
    <glyph glyph-name="overscore" unicode="&#xaf;" horiz-adv-x="491" 
d="M-31 1339h553v-110h-553v110z" />
    <glyph glyph-name="degree" unicode="&#xb0;" horiz-adv-x="819" 
d="M410 1475q130 0 219 -89q86 -89 86 -217t-86 -217q-85 -88 -219 -88q-131 0 -217 86q-89 86 -89 219q0 134 89 220t217 86zM264 1317q-62 -61 -62 -147t62 -146q60 -62 146 -62t147 62q60 60 60 146t-60 147q-61 60 -147 60t-146 -60z" />
    <glyph glyph-name="plusminus" unicode="&#xb1;" horiz-adv-x="1363" 
d="M621 834v319h122v-319h461v-123h-461v-310h-122v310h-461v123h461zM160 221h1044v-123h-1044v123z" />
    <glyph glyph-name="two.sups" unicode="&#xb2;" horiz-adv-x="739" 
d="M377 1475q128 0 206.5 -63t78.5 -163q0 -65 -37 -135q-40 -70 -160 -178l-260 -234h465v-110h-600v117l379 362q90 84 90 170q0 47 -48 85t-108 38q-63 0 -113 -32t-67 -83l-115 19q19 97 96 152t193 55z" />
    <glyph glyph-name="three.sups" unicode="&#xb3;" horiz-adv-x="739" 
d="M371 1475q119 0 195.5 -63.5t76.5 -162.5q0 -68 -45.5 -123.5t-122.5 -78.5v-5q92 -19 143.5 -75t51.5 -138q0 -110 -85 -179.5t-216 -69.5q-219 0 -299 176l106 61q50 -127 201 -127q61 0 117 47q53 47 53 94q0 74 -58 116t-172 42h-51v111h39q103 0 159 36.5t56 100.5
q0 55 -42.5 91t-104.5 36t-98.5 -19.5t-77.5 -74.5l-97 67q99 138 271 138z" />
    <glyph glyph-name="acute" unicode="&#xb4;" horiz-adv-x="491" 
d="M326 1450h186l-270 -295h-121z" />
    <glyph glyph-name="uni00B5" unicode="&#xb5;" horiz-adv-x="1138" 
d="M147 958h136v-540q0 -173 59 -246.5t201 -73.5q130 0 210.5 101t80.5 260v499h135v-759q0 -104 10 -199h-145v156h-5q-51 -79 -141 -130t-180 -51q-134 0 -225 60v-502h-136v1425z" />
    <glyph glyph-name="paragraph" unicode="&#xb6;" horiz-adv-x="1228" 
d="M567 1450h484v-1708h-136v1597h-253v-1597h-136v905q-188 3 -307 113q-121 109 -121 268q0 198 124.5 310t344.5 112z" />
    <glyph glyph-name="middot" unicode="&#xb7;" horiz-adv-x="569" 
d="M207 721q31 32 78.5 32t79.5 -32q31 -32 31 -78t-31 -78q-32 -32 -79.5 -32t-78.5 32q-32 32 -32 78t32 78z" />
    <glyph glyph-name="cedilla" unicode="&#xb8;" horiz-adv-x="491" 
d="M109 -172l127 172h83l-92 -123l4 -2q49 14 74 14q68 0 113 -43t45 -110q0 -79 -67.5 -129.5t-168.5 -50.5q-104 0 -198 49l32 73q65 -36 152 -36q56 0 91.5 25t35.5 67q0 36 -27 59t-73 23q-41 0 -95 -23z" />
    <glyph glyph-name="one.sups" unicode="&#xb9;" horiz-adv-x="739" 
d="M111 1280l239 182h111v-870h-123v747l-168 -137z" />
    <glyph glyph-name="ordmasculine" unicode="&#xba;" horiz-adv-x="788" 
d="M393 1475q143 0 238 -86q94 -88 94 -220q0 -133 -94 -215q-95 -86 -238 -86q-140 0 -235 86t-95 215q0 134 95 220t235 86zM186 1169q0 -85 59.5 -143.5t147.5 -58.5q90 0 149.5 57.5t59.5 144.5q0 88 -59.5 147.5t-151.5 59.5q-86 0 -145.5 -60.5t-59.5 -146.5z" />
    <glyph glyph-name="guillemotright" unicode="&#xbb;" horiz-adv-x="987" 
d="M125 852l96 68l287 -428l-287 -429l-96 68l235 361zM498 852l96 68l287 -428l-287 -429l-96 68l235 361z" />
    <glyph glyph-name="onequarter" unicode="&#xbc;" horiz-adv-x="1708" 
d="M313 0l924 1516l104 -64l-921 -1518zM131 1280l240 182h110v-870h-123v747l-168 -137zM1305 870h149v-567h123v-110h-123v-193h-123v193h-393v126zM1331 748h-4l-278 -445h282v445z" />
    <glyph glyph-name="onehalf" unicode="&#xbd;" horiz-adv-x="1708" 
d="M262 0l924 1516l104 -64l-921 -1518zM80 1280l239 182h111v-870h-123v747l-168 -137zM1335 883q128 0 206.5 -63t78.5 -163q0 -65 -37 -135q-40 -70 -160 -178l-260 -233h465v-111h-600v117l379 362q90 84 90 170q0 47 -48 85t-108 38q-63 0 -113 -32t-67 -83l-114 19
q19 97 95.5 152t192.5 55z" />
    <glyph glyph-name="threequarters" unicode="&#xbe;" horiz-adv-x="1708" 
d="M395 0l924 1516l104 -64l-921 -1518zM389 1475q121 0 197 -63t76 -163q0 -68 -45.5 -123.5t-122.5 -78.5v-5q93 -19 143.5 -75t50.5 -138q0 -110 -85 -179.5t-216 -69.5q-220 0 -297 176l105 61q50 -127 200 -127q64 0 117 47t53 94q0 74 -57.5 116t-171.5 42h-51v111h39
q103 0 159 36.5t56 100.5q0 55 -42.5 91t-105.5 36q-62 0 -98.5 -19.5t-77.5 -74.5l-96 67q95 138 270 138zM1346 870h149v-567h123v-110h-123v-193h-123v193h-393v126zM1372 748h-4l-278 -445h282v445z" />
    <glyph glyph-name="questiondown" unicode="&#xbf;" horiz-adv-x="987" 
d="M406 963q31 32 78 32t79 -32q31 -32 31 -78t-31 -78q-32 -32 -79 -32t-78 32q-32 32 -32 78t32 78zM422 590h147v-172q0 -111 -161 -256q-90 -82 -130 -146.5t-40 -136.5q0 -103 67 -169t172 -66q100 0 170 59.5t90 163.5l154 -19q-25 -157 -137 -248.5t-275 -91.5
q-174 0 -281.5 98t-107.5 261q0 104 40 178.5t144 165.5q89 75 118.5 133.5t29.5 144.5v101z" />
    <glyph glyph-name="Agrave" unicode="&#xc0;" horiz-adv-x="1404" 
d="M436 1808h187l204 -295h-118zM631 1450h143l631 -1450h-172l-160 381h-741l-160 -381h-172zM702 1278l-315 -762h629z" />
    <glyph glyph-name="Aacute" unicode="&#xc1;" horiz-adv-x="1404" 
d="M782 1808h187l-271 -295h-120zM631 1450h143l631 -1450h-172l-160 381h-741l-160 -381h-172zM702 1278l-315 -762h629z" />
    <glyph glyph-name="Acircumflex" unicode="&#xc2;" horiz-adv-x="1404" 
d="M621 1808h163l224 -295h-136l-170 222l-170 -222h-135zM631 1450h143l631 -1450h-172l-160 381h-741l-160 -381h-172zM702 1278l-315 -762h629z" />
    <glyph glyph-name="Atilde" unicode="&#xc3;" horiz-adv-x="1404" 
d="M946 1759h88q-35 -213 -188 -213q-48 0 -148 47t-139 47q-73 0 -100 -102h-88q35 213 188 213q50 0 150 -47t137 -47q73 0 100 102zM631 1450h143l631 -1450h-172l-160 381h-741l-160 -381h-172zM702 1278l-315 -762h629z" />
    <glyph glyph-name="Adieresis" unicode="&#xc4;" horiz-adv-x="1404" 
d="M506 1788q34 0 60 -19t36.5 -46t6 -58.5t-26.5 -54.5q-22 -24 -55 -29.5t-61.5 6t-48 38t-16.5 58.5q0 45 29 75t76 30zM899 1788q34 0 60 -19t36.5 -46t6 -58.5t-26.5 -54.5q-22 -24 -55 -29.5t-61 6t-47.5 38t-16.5 58.5q0 45 29 75t75 30zM631 1450h143l631 -1450
h-172l-160 381h-741l-160 -381h-172zM702 1278l-315 -762h629z" />
    <glyph glyph-name="Aring" unicode="&#xc5;" horiz-adv-x="1404" 
d="M565 1827q40 46 100 55t112 -13t88.5 -70.5t33.5 -108.5q0 -82 -57.5 -138.5t-139.5 -56.5t-139 56.5t-57 138.5q0 78 59 137zM616 1776q-29 -25 -35 -62.5t8.5 -69.5t45 -54.5t67.5 -20.5q51 0 87 35.5t36 85.5t-36 85t-87 35q-49 0 -86 -34zM631 1450h143l631 -1450
h-172l-160 381h-741l-160 -381h-172zM702 1278l-315 -762h629z" />
    <glyph glyph-name="AE" unicode="&#xc6;" horiz-adv-x="1933" 
d="M944 1450h852v-135h-602v-494h565v-135h-565v-551h627v-135h-774v406h-611l-262 -406h-174zM1047 1315h-23l-502 -774h525v774z" />
    <glyph glyph-name="Ccedilla" unicode="&#xc7;" horiz-adv-x="1441" 
d="M317 1274q219 213 537 213q321 0 502 -230l-129 -96q-50 80 -160 135q-112 56 -213 56q-267 0 -432 -183q-164 -185 -164 -460q0 -251 170 -430q169 -181 426 -181q272 0 416 217l121 -86q-79 -123 -224 -194.5t-313 -71.5q-35 0 -43 2l-68 -88l5 -2q43 14 73 14
q68 0 113 -43t45 -110q0 -79 -67.5 -129.5t-168.5 -50.5q-108 0 -196 49l31 73q65 -36 149 -36q58 0 93.5 25t35.5 67q0 36 -27 59t-73 23q-48 0 -92 -23l-39 35l104 145q-289 47 -459 258q-172 208 -172 506q0 321 219 537z" />
    <glyph glyph-name="Egrave" unicode="&#xc8;" horiz-adv-x="1214" 
d="M342 1808h186l205 -295h-119zM197 1450h899v-135h-752v-494h703v-135h-703v-551h776v-135h-923v1450z" />
    <glyph glyph-name="Eacute" unicode="&#xc9;" horiz-adv-x="1214" 
d="M688 1808h186l-270 -295h-121zM197 1450h899v-135h-752v-494h703v-135h-703v-551h776v-135h-923v1450z" />
    <glyph glyph-name="Ecircumflex" unicode="&#xca;" horiz-adv-x="1214" 
d="M526 1808h164l223 -295h-135l-170 222l-170 -222h-135zM197 1450h899v-135h-752v-494h703v-135h-703v-551h776v-135h-923v1450z" />
    <glyph glyph-name="Edieresis" unicode="&#xcb;" horiz-adv-x="1214" 
d="M412 1788q34 0 59.5 -19t36.5 -46t6 -58.5t-27 -54.5q-22 -24 -55 -29.5t-61 6t-47.5 38t-16.5 58.5q0 45 29 75t76 30zM805 1788q34 0 60 -19t36.5 -46t6 -58.5t-26.5 -54.5q-22 -24 -55 -29.5t-61.5 6t-48 38t-16.5 58.5q0 45 29 75t76 30zM197 1450h899v-135h-752
v-494h703v-135h-703v-551h776v-135h-923v1450z" />
    <glyph glyph-name="Igrave" unicode="&#xcc;" horiz-adv-x="540" 
d="M4 1808h186l205 -295h-119zM197 1450h147v-1450h-147v1450z" />
    <glyph glyph-name="Iacute" unicode="&#xcd;" horiz-adv-x="540" 
d="M350 1808h187l-271 -295h-121zM197 1450h147v-1450h-147v1450z" />
    <glyph glyph-name="Icircumflex" unicode="&#xce;" horiz-adv-x="540" 
d="M188 1808h164l223 -295h-135l-170 222l-170 -222h-135zM197 1450h147v-1450h-147v1450z" />
    <glyph glyph-name="Idieresis" unicode="&#xcf;" horiz-adv-x="540" 
d="M74 1788q34 0 60 -19t36.5 -46t6 -58.5t-26.5 -54.5q-22 -24 -55 -29.5t-61.5 6t-48 38t-16.5 58.5q0 45 29 75t76 30zM467 1788q34 0 60 -19t36.5 -46t6 -58.5t-26.5 -54.5q-22 -24 -55 -29.5t-61.5 6t-48 38t-16.5 58.5q0 45 29 75t76 30zM197 1450h147v-1450h-147
v1450z" />
    <glyph glyph-name="Eth" unicode="&#xd0;" horiz-adv-x="1517" 
d="M176 1450h479q316 0 543 -201q221 -200 221 -524q1 -159 -61 -297.5t-166.5 -232.5t-244.5 -146.5t-292 -48.5h-479v711h-149v110h149v629zM324 821h528v-110h-528v-576h297q285 0 462 168t177 422q0 257 -179 424q-178 166 -460 166h-297v-494z" />
    <glyph glyph-name="Ntilde" unicode="&#xd1;" horiz-adv-x="1593" 
d="M1040 1759h88q-35 -213 -188 -213q-47 0 -147 47t-140 47q-73 0 -100 -102h-88q35 213 188 213q50 0 150 -47t137 -47q73 0 100 102zM197 1450h184l864 -1229h4v1229h148v-1450h-185l-864 1241h-4v-1241h-147v1450z" />
    <glyph glyph-name="Ograve" unicode="&#xd2;" horiz-adv-x="1708" 
d="M588 1808h186l205 -295h-119zM313 1270q214 217 541 217t541 -217q215 -218 215 -545q0 -325 -215 -543q-219 -219 -541 -219q-323 0 -539 219q-217 217 -217 543q0 327 215 545zM426 1174q-168 -180 -168 -449t168 -446q169 -181 428 -181q264 0 430 181t166 446
q0 266 -168 446q-169 181 -430 181q-257 0 -426 -178z" />
    <glyph glyph-name="Oacute" unicode="&#xd3;" horiz-adv-x="1708" 
d="M934 1808h186l-270 -295h-121zM313 1270q214 217 541 217t541 -217q215 -218 215 -545q0 -325 -215 -543q-219 -219 -541 -219q-323 0 -539 219q-217 217 -217 543q0 327 215 545zM426 1174q-168 -180 -168 -449t168 -446q169 -181 428 -181q264 0 430 181t166 446
q0 266 -168 446q-169 181 -430 181q-257 0 -426 -178z" />
    <glyph glyph-name="Ocircumflex" unicode="&#xd4;" horiz-adv-x="1708" 
d="M772 1808h164l223 -295h-135l-170 222l-170 -222h-135zM313 1270q214 217 541 217t541 -217q215 -218 215 -545q0 -325 -215 -543q-219 -219 -541 -219q-323 0 -539 219q-217 217 -217 543q0 327 215 545zM426 1174q-168 -180 -168 -449t168 -446q169 -181 428 -181
q264 0 430 181t166 446q0 266 -168 446q-169 181 -430 181q-257 0 -426 -178z" />
    <glyph glyph-name="Otilde" unicode="&#xd5;" horiz-adv-x="1708" 
d="M1098 1759h88q-35 -213 -189 -213q-47 0 -147 47t-139 47q-74 0 -101 -102h-88q35 213 189 213q49 0 149 -47t137 -47q74 0 101 102zM313 1270q214 217 541 217t541 -217q215 -218 215 -545q0 -325 -215 -543q-219 -219 -541 -219q-323 0 -539 219q-217 217 -217 543
q0 327 215 545zM426 1174q-168 -180 -168 -449t168 -446q169 -181 428 -181q264 0 430 181t166 446q0 266 -168 446q-169 181 -430 181q-257 0 -426 -178z" />
    <glyph glyph-name="Odieresis" unicode="&#xd6;" horiz-adv-x="1708" 
d="M657 1788q34 0 60 -19t36.5 -46t6 -58.5t-26.5 -54.5q-22 -24 -55 -29.5t-61 6t-47.5 38t-16.5 58.5q0 45 29 75t75 30zM1051 1788q34 0 59.5 -19t36.5 -46t6 -58.5t-27 -54.5q-22 -24 -55 -29.5t-61 6t-47.5 38t-16.5 58.5q0 45 29 75t76 30zM313 1270q214 217 541 217
t541 -217q215 -218 215 -545q0 -325 -215 -543q-219 -219 -541 -219q-323 0 -539 219q-217 217 -217 543q0 327 215 545zM426 1174q-168 -180 -168 -449t168 -446q169 -181 428 -181q264 0 430 181t166 446q0 266 -168 446q-169 181 -430 181q-257 0 -426 -178z" />
    <glyph glyph-name="multiply" unicode="&#xd7;" horiz-adv-x="1363" 
d="M682 709l324 325l88 -86l-326 -327l326 -326l-88 -88l-324 325l-326 -325l-86 88l326 326l-326 327l86 86z" />
    <glyph glyph-name="Oslash" unicode="&#xd8;" horiz-adv-x="1708" 
d="M854 1487q278 0 483 -166l156 166l76 -70l-156 -168q197 -209 197 -524q0 -324 -213 -543q-216 -219 -543 -219q-278 0 -483 166l-156 -166l-76 70l156 168q-197 209 -197 524q0 327 215 545q211 217 541 217zM258 725q0 -237 139 -414l842 903q-153 138 -387 138
q-257 0 -426 -178q-168 -180 -168 -449zM1311 1139l-842 -903q156 -138 385 -138q257 0 428 183q168 180 168 444q0 237 -139 414z" />
    <glyph glyph-name="Ugrave" unicode="&#xd9;" horiz-adv-x="1404" 
d="M436 1808h187l204 -295h-118zM172 1450h147v-903q0 -213 102 -331t281 -118t281 118t102 331v903h148v-918q0 -262 -139 -415.5t-392 -153.5t-391.5 153t-138.5 416v918z" />
    <glyph glyph-name="Uacute" unicode="&#xda;" horiz-adv-x="1404" 
d="M782 1808h187l-271 -295h-120zM172 1450h147v-903q0 -213 102 -331t281 -118t281 118t102 331v903h148v-918q0 -262 -139 -415.5t-392 -153.5t-391.5 153t-138.5 416v918z" />
    <glyph glyph-name="Ucircumflex" unicode="&#xdb;" horiz-adv-x="1404" 
d="M621 1808h163l224 -295h-136l-170 222l-170 -222h-135zM172 1450h147v-903q0 -213 102 -331t281 -118t281 118t102 331v903h148v-918q0 -262 -139 -415.5t-392 -153.5t-391.5 153t-138.5 416v918z" />
    <glyph glyph-name="Udieresis" unicode="&#xdc;" horiz-adv-x="1404" 
d="M506 1788q34 0 60 -19t36.5 -46t6 -58.5t-26.5 -54.5q-22 -24 -55 -29.5t-61.5 6t-48 38t-16.5 58.5q0 45 29 75t76 30zM899 1788q34 0 60 -19t36.5 -46t6 -58.5t-26.5 -54.5q-22 -24 -55 -29.5t-61 6t-47.5 38t-16.5 58.5q0 45 29 75t75 30zM172 1450h147v-903
q0 -213 102 -331t281 -118t281 118t102 331v903h148v-918q0 -262 -139 -415.5t-392 -153.5t-391.5 153t-138.5 416v918z" />
    <glyph glyph-name="Yacute" unicode="&#xdd;" horiz-adv-x="1175" 
d="M668 1808h186l-270 -295h-121zM-29 1450h185l432 -684l432 684h184l-542 -825v-625h-148v625z" />
    <glyph glyph-name="Thorn" unicode="&#xde;" horiz-adv-x="1175" 
d="M197 1450h147v-320h336q189 0 302.5 -103t113.5 -284t-114 -285t-306 -104h-332v-354h-147v1450zM344 489h248q183 0 263.5 61t80.5 193q0 131 -82 191.5t-262 60.5h-248v-506z" />
    <glyph glyph-name="germandbls" unicode="&#xdf;" horiz-adv-x="1214" 
d="M602 1573q176 0 285 -100q108 -102 108 -263q0 -243 -237 -325v-4q160 -12 255 -128t95 -296q0 -212 -131 -346q-133 -136 -352 -136q-51 0 -121 17v117q50 -11 98 -11q167 0 263 96t96 265q0 358 -412 358v123q145 0 222 66t77 186q0 115 -70.5 186.5t-181.5 71.5
q-131 0 -210 -89.5t-79 -227.5v-1133h-135v1122q0 216 110.5 333.5t319.5 117.5z" />
    <glyph glyph-name="agrave" unicode="&#xe0;" horiz-adv-x="1062" 
d="M266 1450h187l204 -295h-120zM545 983q161 0 256.5 -91t95.5 -243v-444q0 -77 16 -205h-131q-12 64 -12 156h-4q-114 -181 -338 -181q-147 0 -238.5 77t-91.5 204q0 172 142.5 252t459.5 80h62v20q0 129 -60.5 190.5t-185.5 61.5q-169 0 -293 -112l-82 96
q136 139 404 139zM246 274q0 -79 62.5 -127.5t162.5 -48.5q137 0 214 84.5t77 243.5v51h-94q-199 0 -310.5 -52.5t-111.5 -150.5z" />
    <glyph glyph-name="aacute" unicode="&#xe1;" horiz-adv-x="1062" 
d="M612 1450h187l-271 -295h-120zM545 983q161 0 256.5 -91t95.5 -243v-444q0 -77 16 -205h-131q-12 64 -12 156h-4q-114 -181 -338 -181q-147 0 -238.5 77t-91.5 204q0 172 142.5 252t459.5 80h62v20q0 129 -60.5 190.5t-185.5 61.5q-169 0 -293 -112l-82 96
q136 139 404 139zM246 274q0 -79 62.5 -127.5t162.5 -48.5q137 0 214 84.5t77 243.5v51h-94q-199 0 -310.5 -52.5t-111.5 -150.5z" />
    <glyph glyph-name="acircumflex" unicode="&#xe2;" horiz-adv-x="1062" 
d="M451 1450h163l224 -295h-136l-170 221l-167 -221h-138zM545 983q161 0 256.5 -91t95.5 -243v-444q0 -77 16 -205h-131q-12 64 -12 156h-4q-114 -181 -338 -181q-147 0 -238.5 77t-91.5 204q0 172 142.5 252t459.5 80h62v20q0 129 -60.5 190.5t-185.5 61.5
q-169 0 -293 -112l-82 96q136 139 404 139zM246 274q0 -79 62.5 -127.5t162.5 -48.5q137 0 214 84.5t77 243.5v51h-94q-199 0 -310.5 -52.5t-111.5 -150.5z" />
    <glyph glyph-name="atilde" unicode="&#xe3;" horiz-adv-x="1062" 
d="M776 1401h88q-38 -213 -188 -213q-45 0 -148 47t-139 47q-79 0 -100 -102h-88q38 213 188 213q47 0 150 -47q105 -48 137 -48q73 0 100 103zM545 983q161 0 256.5 -91t95.5 -243v-444q0 -77 16 -205h-131q-12 64 -12 156h-4q-114 -181 -338 -181q-147 0 -238.5 77
t-91.5 204q0 172 142.5 252t459.5 80h62v20q0 129 -60.5 190.5t-185.5 61.5q-169 0 -293 -112l-82 96q136 139 404 139zM246 274q0 -79 62.5 -127.5t162.5 -48.5q137 0 214 84.5t77 243.5v51h-94q-199 0 -310.5 -52.5t-111.5 -150.5z" />
    <glyph glyph-name="adieresis" unicode="&#xe4;" horiz-adv-x="1062" 
d="M262 1399q31 31 74 31t74 -31t31 -74t-31 -74t-74 -31t-74 31t-31 74t31 74zM655 1399q31 31 74 31t74 -31t31 -74t-31 -74t-74 -31t-74 31t-31 74t31 74zM545 983q161 0 256.5 -91t95.5 -243v-444q0 -77 16 -205h-131q-12 64 -12 156h-4q-114 -181 -338 -181
q-147 0 -238.5 77t-91.5 204q0 172 142.5 252t459.5 80h62v20q0 129 -60.5 190.5t-185.5 61.5q-169 0 -293 -112l-82 96q136 139 404 139zM246 274q0 -79 62.5 -127.5t162.5 -48.5q137 0 214 84.5t77 243.5v51h-94q-199 0 -310.5 -52.5t-111.5 -150.5z" />
    <glyph glyph-name="aring" unicode="&#xe5;" horiz-adv-x="1062" 
d="M395 1468q59 57 138.5 57t138.5 -57q58 -57 58 -137t-58 -137t-138 -57t-139 57t-59 137t59 137zM446 1417q-29 -25 -35 -62.5t8.5 -69.5t45 -54.5t67.5 -20.5q51 0 87 35.5t36 85.5t-36 85.5t-87 35.5q-48 0 -86 -35zM545 983q161 0 256.5 -91t95.5 -243v-444
q0 -77 16 -205h-131q-12 64 -12 156h-4q-114 -181 -338 -181q-147 0 -238.5 77t-91.5 204q0 172 142.5 252t459.5 80h62v20q0 129 -60.5 190.5t-185.5 61.5q-169 0 -293 -112l-82 96q136 139 404 139zM246 274q0 -79 62.5 -127.5t162.5 -48.5q137 0 214 84.5t77 243.5v51
h-94q-199 0 -310.5 -52.5t-111.5 -150.5z" />
    <glyph glyph-name="ae" unicode="&#xe6;" horiz-adv-x="1744" 
d="M553 983q106 0 194 -51t123 -133q47 84 141.5 134t198.5 50q201 0 319 -129.5t118 -359.5v-52h-719v-12q0 -147 78.5 -239.5t201.5 -92.5q188 0 299 156l107 -84q-154 -195 -402 -195q-119 0 -215 60t-143 164q-68 -116 -169 -170t-255 -54q-148 0 -240 77t-92 204
q0 297 465 297h230v51q0 117 -72 186.5t-176 69.5q-168 0 -289 -115l-84 99q145 139 381 139zM928 553h583q0 139 -81.5 223t-212.5 84q-123 0 -205 -88q-84 -90 -84 -219zM246 274q0 -79 62.5 -127.5t162.5 -48.5q143 0 232.5 91.5t89.5 238.5v14h-279q-122 0 -195 -45
t-73 -123z" />
    <glyph glyph-name="ccedilla" unicode="&#xe7;" horiz-adv-x="987" 
d="M598 983q217 0 358 -166l-110 -84q-89 127 -244 127q-161 0 -258.5 -105t-97.5 -276q0 -167 98 -274q94 -107 254 -107q162 0 248 127l110 -84q-57 -74 -153 -120t-193 -46q-16 0 -18 2l-76 -100l4 -2q41 14 74 14q68 0 113 -43t45 -110q0 -79 -67.5 -129.5t-168.5 -50.5
q-111 0 -199 49l33 73q68 -36 152 -36q56 0 91.5 25t35.5 67q0 57 -60 75t-135 -16l-37 35l115 156q-192 27 -301 163q-113 137 -113 332q0 220 140 363q138 141 360 141z" />
    <glyph glyph-name="egrave" unicode="&#xe8;" horiz-adv-x="1138" 
d="M303 1450h186l205 -295h-121zM238 840q137 143 342 143q203 0 331 -131q129 -132 129 -369v-41h-798q15 -154 114 -245q102 -99 238 -99q93 0 175.5 44t131.5 122l105 -86q-164 -203 -412 -203q-214 0 -354 146q-142 145 -142 358q0 215 140 361zM246 553h647
q0 139 -85 223t-226 84q-126 0 -230 -90q-103 -90 -106 -217z" />
    <glyph glyph-name="eacute" unicode="&#xe9;" horiz-adv-x="1138" 
d="M649 1450h187l-271 -295h-121zM238 840q137 143 342 143q203 0 331 -131q129 -132 129 -369v-41h-798q15 -154 114 -245q102 -99 238 -99q93 0 175.5 44t131.5 122l105 -86q-164 -203 -412 -203q-214 0 -354 146q-142 145 -142 358q0 215 140 361zM246 553h647
q0 139 -85 223t-226 84q-126 0 -230 -90q-103 -90 -106 -217z" />
    <glyph glyph-name="ecircumflex" unicode="&#xea;" horiz-adv-x="1138" 
d="M487 1450h164l223 -295h-135l-170 221l-168 -221h-137zM238 840q137 143 342 143q203 0 331 -131q129 -132 129 -369v-41h-798q15 -154 114 -245q102 -99 238 -99q93 0 175.5 44t131.5 122l105 -86q-164 -203 -412 -203q-214 0 -354 146q-142 145 -142 358q0 215 140 361
zM246 553h647q0 139 -85 223t-226 84q-126 0 -230 -90q-103 -90 -106 -217z" />
    <glyph glyph-name="edieresis" unicode="&#xeb;" horiz-adv-x="1138" 
d="M299 1399q31 31 73.5 31t73.5 -31t31 -74t-31 -74t-73.5 -31t-73.5 31t-31 74t31 74zM692 1399q31 31 74 31t74 -31t31 -74t-31 -74t-74 -31t-74 31t-31 74t31 74zM238 840q137 143 342 143q203 0 331 -131q129 -132 129 -369v-41h-798q15 -154 114 -245q102 -99 238 -99
q93 0 175.5 44t131.5 122l105 -86q-164 -203 -412 -203q-214 0 -354 146q-142 145 -142 358q0 215 140 361zM246 553h647q0 139 -85 223t-226 84q-126 0 -230 -90q-103 -90 -106 -217z" />
    <glyph glyph-name="igrave" unicode="&#xec;" horiz-adv-x="491" 
d="M-20 1450h186l205 -295h-121zM178 958h135v-958h-135v958z" />
    <glyph glyph-name="iacute" unicode="&#xed;" horiz-adv-x="491" 
d="M326 1450h186l-270 -295h-121zM178 958h135v-958h-135v958z" />
    <glyph glyph-name="icircumflex" unicode="&#xee;" horiz-adv-x="491" 
d="M164 1450h164l223 -295h-135l-170 221l-168 -221h-137zM178 958h135v-958h-135v958z" />
    <glyph glyph-name="idieresis" unicode="&#xef;" horiz-adv-x="491" 
d="M-25 1399q31 31 74 31t74 -31t31 -74t-31 -74t-74 -31t-74 31t-31 74t31 74zM369 1399q31 31 73.5 31t73.5 -31t31 -74t-31 -74t-73.5 -31t-73.5 31t-31 74t31 74zM178 958h135v-958h-135v958z" />
    <glyph glyph-name="eth" unicode="&#xf0;" horiz-adv-x="1214" 
d="M319 1520l123 75q126 -100 199 -170l209 109l82 -72l-211 -110q206 -206 300.5 -403t94.5 -419q0 -258 -135 -406.5t-375 -148.5q-220 0 -364 144t-144 360q0 215 146 361q143 143 362 143q167 0 307 -119l5 2q-133 251 -326 420l-225 -117l-74 74l221 115
q-118 110 -195 162zM346 754q-100 -106 -100 -275q0 -166 102 -274q101 -107 258 -107q159 0 262 109q101 107 101 272q0 168 -101 275q-100 106 -264 106q-158 0 -258 -106z" />
    <glyph glyph-name="ntilde" unicode="&#xf1;" horiz-adv-x="1138" 
d="M813 1401h88q-38 -213 -188 -213q-45 0 -148 47t-139 47q-79 0 -100 -102h-88q38 213 188 213q46 0 149 -47q105 -48 138 -48q73 0 100 103zM608 983q176 0 268.5 -94.5t92.5 -272.5v-616h-135v541q0 164 -61 241.5t-191 77.5q-120 0 -209 -92q-90 -93 -90 -285v-483
h-136v756l-10 202h139q7 -61 7 -153h4q44 78 134 128t187 50z" />
    <glyph glyph-name="ograve" unicode="&#xf2;" horiz-adv-x="1214" 
d="M342 1450h186l205 -295h-121zM606 983q217 0 365 -139q145 -142 145 -365q0 -217 -143 -360q-144 -144 -367 -144q-218 0 -362 144q-146 146 -146 360q0 215 146 361q143 143 362 143zM346 754q-100 -106 -100 -275q0 -166 102 -274q101 -107 258 -107q159 0 262 109
q101 107 101 272q0 168 -101 275q-100 106 -264 106q-158 0 -258 -106z" />
    <glyph glyph-name="oacute" unicode="&#xf3;" horiz-adv-x="1214" 
d="M688 1450h186l-270 -295h-121zM606 983q217 0 365 -139q145 -142 145 -365q0 -217 -143 -360q-144 -144 -367 -144q-218 0 -362 144q-146 146 -146 360q0 215 146 361q143 143 362 143zM346 754q-100 -106 -100 -275q0 -166 102 -274q101 -107 258 -107q159 0 262 109
q101 107 101 272q0 168 -101 275q-100 106 -264 106q-158 0 -258 -106z" />
    <glyph glyph-name="ocircumflex" unicode="&#xf4;" horiz-adv-x="1214" 
d="M526 1450h164l223 -295h-135l-170 221l-168 -221h-137zM606 983q217 0 365 -139q145 -142 145 -365q0 -217 -143 -360q-144 -144 -367 -144q-218 0 -362 144q-146 146 -146 360q0 215 146 361q143 143 362 143zM346 754q-100 -106 -100 -275q0 -166 102 -274
q101 -107 258 -107q159 0 262 109q101 107 101 272q0 168 -101 275q-100 106 -264 106q-158 0 -258 -106z" />
    <glyph glyph-name="otilde" unicode="&#xf5;" horiz-adv-x="1214" 
d="M852 1401h88q-38 -213 -188 -213q-45 0 -148 47t-139 47q-79 0 -100 -102h-89q38 213 189 213q46 0 149 -47q105 -48 138 -48q76 0 100 103zM606 983q217 0 365 -139q145 -142 145 -365q0 -217 -143 -360q-144 -144 -367 -144q-218 0 -362 144q-146 146 -146 360
q0 215 146 361q143 143 362 143zM346 754q-100 -106 -100 -275q0 -166 102 -274q101 -107 258 -107q159 0 262 109q101 107 101 272q0 168 -101 275q-100 106 -264 106q-158 0 -258 -106z" />
    <glyph glyph-name="odieresis" unicode="&#xf6;" horiz-adv-x="1214" 
d="M338 1399q31 31 73.5 31t73.5 -31t31 -74t-31 -74t-73.5 -31t-73.5 31t-31 74t31 74zM731 1399q31 31 74 31t74 -31t31 -74t-31 -74t-74 -31t-74 31t-31 74t31 74zM606 983q217 0 365 -139q145 -142 145 -365q0 -217 -143 -360q-144 -144 -367 -144q-218 0 -362 144
q-146 146 -146 360q0 215 146 361q143 143 362 143zM346 754q-100 -106 -100 -275q0 -166 102 -274q101 -107 258 -107q159 0 262 109q101 107 101 272q0 168 -101 275q-100 106 -264 106q-158 0 -258 -106z" />
    <glyph glyph-name="divide" unicode="&#xf7;" horiz-adv-x="1363" 
d="M604 1030q31 32 78.5 32t79.5 -32q31 -32 31 -78t-31 -78q-32 -32 -79.5 -32t-78.5 32q-32 32 -32 78t32 78zM160 682h1044v-123h-1044v123zM604 367q31 32 78.5 32t79.5 -32q31 -32 31 -78t-31 -78q-32 -32 -79.5 -32t-78.5 32q-32 32 -32 78t32 78z" />
    <glyph glyph-name="oslash" unicode="&#xf8;" horiz-adv-x="1214" 
d="M932 877l135 139l66 -64l-136 -139q119 -134 119 -334q0 -213 -145 -358q-149 -146 -365 -146q-190 0 -321 107l-138 -139l-65 63l135 139q-119 137 -119 334q0 215 146 361q143 143 362 143q191 0 326 -106zM246 479q0 -141 69 -233l523 534q-95 80 -234 80
q-158 0 -258 -106t-100 -275zM899 713l-522 -537q96 -78 229 -78q159 0 262 109q101 107 101 272q0 140 -70 234z" />
    <glyph glyph-name="ugrave" unicode="&#xf9;" horiz-adv-x="1138" 
d="M303 1450h186l205 -295h-121zM147 958h136v-540q0 -166 61.5 -243t196.5 -77q121 0 207 99q86 95 86 262v499h135v-755q0 -90 10 -203h-139q-6 40 -6 78v76h-5q-47 -79 -137 -129t-184 -50q-177 0 -269 96t-92 271v616z" />
    <glyph glyph-name="uacute" unicode="&#xfa;" horiz-adv-x="1138" 
d="M649 1450h187l-271 -295h-121zM147 958h136v-540q0 -166 61.5 -243t196.5 -77q121 0 207 99q86 95 86 262v499h135v-755q0 -90 10 -203h-139q-6 40 -6 78v76h-5q-47 -79 -137 -129t-184 -50q-177 0 -269 96t-92 271v616z" />
    <glyph glyph-name="ucircumflex" unicode="&#xfb;" horiz-adv-x="1138" 
d="M487 1450h164l223 -295h-135l-170 221l-168 -221h-137zM147 958h136v-540q0 -166 61.5 -243t196.5 -77q121 0 207 99q86 95 86 262v499h135v-755q0 -90 10 -203h-139q-6 40 -6 78v76h-5q-47 -79 -137 -129t-184 -50q-177 0 -269 96t-92 271v616z" />
    <glyph glyph-name="udieresis" unicode="&#xfc;" horiz-adv-x="1138" 
d="M299 1399q31 31 73.5 31t73.5 -31t31 -74t-31 -74t-73.5 -31t-73.5 31t-31 74t31 74zM692 1399q31 31 74 31t74 -31t31 -74t-31 -74t-74 -31t-74 31t-31 74t31 74zM147 958h136v-540q0 -166 61.5 -243t196.5 -77q121 0 207 99q86 95 86 262v499h135v-755q0 -90 10 -203
h-139q-6 40 -6 78v76h-5q-47 -79 -137 -129t-184 -50q-177 0 -269 96t-92 271v616z" />
    <glyph glyph-name="yacute" unicode="&#xfd;" horiz-adv-x="987" 
d="M573 1450h187l-271 -295h-120zM33 958h170l301 -792l293 792h164l-467 -1179q-59 -155 -131 -213t-185 -58q-64 0 -123 15l15 131q51 -23 102 -23q118 0 174 148l80 209z" />
    <glyph glyph-name="thorn" unicode="&#xfe;" horiz-adv-x="1251" 
d="M147 1548h136v-768h4q144 203 372 203q224 0 367 -143t143 -361q0 -217 -143 -360q-144 -144 -367 -144q-111 0 -211.5 49.5t-160.5 135.5h-4v-627h-136v2015zM276 479q0 -165 109 -274q107 -107 274 -107q162 0 263 107q100 106 100 274q0 167 -102 275
q-100 106 -263 106q-159 0 -270 -108q-111 -111 -111 -273z" />
    <glyph glyph-name="ydieresis" unicode="&#xff;" horiz-adv-x="987" 
d="M223 1399q31 31 74 31t74 -31t31 -74t-31 -74t-74 -31t-74 31t-31 74t31 74zM616 1399q31 31 74 31t74 -31t31 -74t-31 -74t-74 -31t-74 31t-31 74t31 74zM33 958h170l301 -792l293 792h164l-467 -1179q-59 -155 -131 -213t-185 -58q-64 0 -123 15l15 131q51 -23 102 -23
q118 0 174 148l80 209z" />
    <glyph glyph-name="dotlessi" unicode="&#x131;" horiz-adv-x="491" 
d="M178 958h135v-958h-135v958z" />
    <glyph glyph-name="Lslash" unicode="&#x141;" horiz-adv-x="1024" 
d="M197 1450h147v-709l442 381v-143l-442 -381v-463h676v-135h-823v471l-168 -143v143l168 143v836z" />
    <glyph glyph-name="lslash" unicode="&#x142;" horiz-adv-x="491" 
d="M178 1548h135v-610l166 172v-149l-166 -170v-791h-135v649l-166 -170v150l166 168v751z" />
    <glyph glyph-name="OE" unicode="&#x152;" horiz-adv-x="1933" 
d="M926 1450h889v-135h-603v-494h578v-135h-578v-551h627v-135h-928q-353 0 -567 211q-215 209 -215 516q0 328 229 526q229 197 568 197zM289 723q0 -249 166 -418q167 -170 458 -170h152v1180h-133q-278 0 -461 -160q-182 -159 -182 -432z" />
    <glyph glyph-name="oe" unicode="&#x153;" horiz-adv-x="1888" 
d="M584 983q134 0 239.5 -56t165.5 -159q78 115 163.5 165t201.5 50q202 0 319 -130t117 -370v-41h-719v-12q0 -147 79.5 -239.5t203.5 -92.5q183 0 297 156l106 -84q-154 -195 -401 -195q-127 0 -224.5 57.5t-148.5 160.5q-67 -99 -176.5 -158.5t-222.5 -59.5
q-212 0 -348 142q-138 138 -138 362q0 210 140 359q139 145 346 145zM342 752q-96 -113 -96 -273t96 -270q95 -111 242 -111q152 0 247 109q93 110 93 272q0 165 -93 275q-93 106 -249 106q-146 0 -240 -108zM1071 553h584q0 136 -81 221.5t-214 85.5q-120 0 -203 -86
q-83 -89 -86 -221z" />
    <glyph glyph-name="Scaron" unicode="&#x160;" horiz-adv-x="1138" 
d="M264 1808h135l170 -221l170 221h135l-223 -295h-164zM602 1487q260 0 410 -176l-129 -101q-95 142 -281 142q-135 0 -222 -72.5t-87 -189.5q0 -98 64 -162t202 -107q37 -13 89 -29.5t67 -21.5q71 -28 127 -57q77 -45 106 -78q88 -99 88 -250q3 -178 -139 -299
q-144 -123 -340 -123q-296 0 -455 215l134 96q102 -176 327 -176q127 0 221 76q93 75 93 188q0 106 -67 171t-232 116q-82 24 -144 49q-50 17 -117 56q-64 33 -100 75q-84 99 -84 246q0 186 133 301q132 111 336 111z" />
    <glyph glyph-name="scaron" unicode="&#x161;" horiz-adv-x="872" 
d="M131 1450h135l170 -221l170 221h135l-223 -295h-164zM457 983q237 0 319 -172l-121 -80q-65 129 -206 129q-89 0 -144 -39t-55 -104q0 -63 48 -98.5t173 -61.5q168 -37 227 -78q111 -83 111 -209q0 -134 -102.5 -214.5t-270.5 -80.5q-242 0 -368 187l116 80
q94 -144 252 -144q99 0 162 43.5t64 116.5q2 66 -54.5 103.5t-204.5 68.5q-301 58 -301 264q0 130 98 209.5t257 79.5z" />
    <glyph glyph-name="Ydieresis" unicode="&#x178;" horiz-adv-x="1175" 
d="M391 1788q34 0 60 -19t36.5 -46t6 -58.5t-26.5 -54.5q-22 -24 -55 -29.5t-61 6t-47.5 38t-16.5 58.5q0 45 29 75t75 30zM784 1788q34 0 60 -19t36.5 -46t6 -58.5t-26.5 -54.5q-22 -24 -55 -29.5t-61 6t-47.5 38t-16.5 58.5q0 45 29 75t75 30zM-29 1450h185l432 -684
l432 684h184l-542 -825v-625h-148v625z" />
    <glyph glyph-name="Zcaron" unicode="&#x17d;" horiz-adv-x="1138" 
d="M264 1808h135l170 -221l170 221h135l-223 -295h-164zM59 1450h1020v-123l-846 -1192h859v-135h-1045v123l848 1192h-836v135z" />
    <glyph glyph-name="zcaron" unicode="&#x17e;" horiz-adv-x="872" 
d="M131 1450h135l170 -221l170 221h135l-223 -295h-164zM76 958h729v-98l-561 -737h581v-123h-778v98l561 738h-532v122z" />
    <glyph glyph-name="florin" unicode="&#x192;" horiz-adv-x="1138" 
d="M866 1475q104 0 195 -60l-70 -98q-65 35 -117 35q-144 0 -182 -222l-47 -272h221v-110h-243l-138 -721q-59 -312 -315 -312q-100 0 -170 49l66 99q52 -25 106 -25q74 0 113.5 47t62.5 172l129 691h-221v110h244l55 297q59 320 311 320z" />
    <glyph glyph-name="circumflex" unicode="&#x2c6;" horiz-adv-x="491" 
d="M164 1450h164l223 -295h-135l-170 221l-168 -221h-137z" />
    <glyph glyph-name="caron" unicode="&#x2c7;" horiz-adv-x="491" 
d="M-59 1450h135l170 -221l170 221h135l-223 -295h-164z" />
    <glyph glyph-name="uni02C9" unicode="&#x2c9;" horiz-adv-x="491" 
d="M-31 1339h553v-110h-553v110z" />
    <glyph glyph-name="breve" unicode="&#x2d8;" horiz-adv-x="491" 
d="M-55 1450h90q13 -75 69.5 -117.5t141.5 -42.5t142 43.5t69 116.5h90q-7 -127 -88 -198.5t-213 -71.5t-213 71.5t-88 198.5z" />
    <glyph glyph-name="dotaccent" unicode="&#x2d9;" horiz-adv-x="491" 
d="M172 1419q21 24 53.5 29t60.5 -6.5t47.5 -37.5t16.5 -58q0 -45 -29 -75t-75 -30q-34 0 -60 19t-36.5 46t-5.5 58.5t28 54.5z" />
    <glyph glyph-name="ring" unicode="&#x2da;" horiz-adv-x="491" 
d="M109 1468q58 57 137.5 57t138.5 -57t59 -137t-59 -137t-138.5 -57t-137.5 57q-59 57 -59 137t59 137zM160 1417q-29 -25 -35 -62.5t8.5 -69.5t45 -54.5t67.5 -20.5q51 0 87 35.5t36 85.5t-36 85.5t-87 35.5q-48 0 -86 -35z" />
    <glyph glyph-name="ogonek" unicode="&#x2db;" horiz-adv-x="491" 
d="M244 12h98q-92 -92 -125 -143.5t-33 -104.5q0 -42 30 -70t73 -28q68 0 104 45l39 -82q-73 -73 -184 -73q-76 0 -130.5 50.5t-54.5 123.5q0 143 183 282z" />
    <glyph glyph-name="tilde" unicode="&#x2dc;" horiz-adv-x="491" 
d="M489 1401h89q-38 -213 -189 -213q-44 0 -147 47t-140 47q-79 0 -100 -102h-88q38 213 188 213q47 0 150 -47q105 -48 137 -48q73 0 100 103z" />
    <glyph glyph-name="hungarumlaut" unicode="&#x2dd;" horiz-adv-x="491" 
d="M51 1450h187l-273 -295h-121zM461 1450h186l-270 -295h-121z" />
    <glyph glyph-name="uni0394" unicode="&#x394;" horiz-adv-x="1372" 
d="M606 1458h152l588 -1458h-1315zM680 1321l-463 -1194h932z" />
    <glyph glyph-name="uni0394" unicode="&#x3b4;" horiz-adv-x="1372" 
d="M606 1458h152l588 -1458h-1315zM680 1321l-463 -1194h932z" />
    <glyph glyph-name="uni03A9" unicode="&#x3a9;" horiz-adv-x="1523" 
d="M752 1477q264 0 458 -179q193 -181 193 -444q0 -205 -107 -360q-109 -157 -297 -207v-168h404v-119h-514v371q178 32 277.5 159t99.5 320q0 214 -150 358t-366 144q-215 0 -365 -144q-152 -146 -152 -358q0 -192 100 -320t277 -159v-371h-514v119h404v168
q-186 49 -295 209q-109 157 -109 356q0 263 195 446q194 179 461 179z" />
    <glyph glyph-name="uni03A9" unicode="&#x3c9;" horiz-adv-x="1523" 
d="M752 1477q264 0 458 -179q193 -181 193 -444q0 -205 -107 -360q-109 -157 -297 -207v-168h404v-119h-514v371q178 32 277.5 159t99.5 320q0 214 -150 358t-366 144q-215 0 -365 -144q-152 -146 -152 -358q0 -192 100 -320t277 -159v-371h-514v119h404v168
q-186 49 -295 209q-109 157 -109 356q0 263 195 446q194 179 461 179z" />
    <glyph glyph-name="uni03BC" unicode="&#x3bc;" horiz-adv-x="1138" 
d="M147 958h136v-540q0 -173 59 -246.5t201 -73.5q130 0 210.5 101t80.5 260v499h135v-759q0 -104 10 -199h-145v156h-5q-51 -79 -141 -130t-180 -51q-134 0 -225 60v-502h-136v1425z" />
    <glyph glyph-name="pi" unicode="&#x3c0;" horiz-adv-x="1153" 
d="M66 958h1011v-120h-155v-631q0 -60 17 -82.5t60 -22.5q39 0 86 21v-100q-72 -35 -131 -35q-89 0 -126 48.5t-37 176.5v625h-451v-838h-131v838h-143v120z" />
    <glyph glyph-name="uni060C" unicode="&#x60c;" horiz-adv-x="569" 
d="M309 0h-166l166 481h137z" />
    <glyph glyph-name="uni0615" unicode="&#x615;" 
d="M92 1434q79 0 125.5 -53t46.5 -140q0 -61 -18 -111h-510v74h102v344h72v-215q76 101 182 101zM88 1362q-54 0 -101.5 -41.5t-76.5 -116.5h280q1 7 2 16t2 14.5t1 8.5q0 54 -29.5 86.5t-77.5 32.5z" />
    <glyph glyph-name="uni061B" unicode="&#x61b;" horiz-adv-x="569" 
d="M340 393h-166l166 481h137zM326 20q-32 -32 -79.5 -32t-78.5 32q-32 32 -32 78t32 78q31 32 78.5 32t79.5 -32q31 -32 31 -78t-31 -78z" />
    <glyph glyph-name="uni061F" unicode="&#x61f;" horiz-adv-x="987" 
d="M575 393h-147v105q0 155 -166 290q-166 132 -166 328q0 165 107.5 262t281.5 97q165 0 276 -90.5t136 -249.5l-154 -19q-19 103 -88.5 163t-171.5 60q-106 0 -172.5 -65.5t-66.5 -169.5q0 -139 164 -277q167 -142 167 -264v-170zM569 20q-32 -32 -79 -32t-78 32
q-32 32 -32 78t32 78q31 32 78 32t79 -32q31 -32 31 -78t-31 -78z" />
    <glyph glyph-name="uni0621" unicode="&#x621;" horiz-adv-x="966" 
d="M453 119h411v-119h-749v119h194q-92 115 -92 260q0 155 115 264q113 107 286 107q101 0 203 -31l-26 -117q-94 23 -158 23q-135 0 -214 -68.5t-79 -189.5t109 -248z" />
    <glyph glyph-name="uni0622" unicode="&#x622;" horiz-adv-x="458" 
d="M354 1675q-54 0 -159 27t-136 27q-50 0 -96 -37l-49 57q76 70 152 70q37 0 139 -27q110 -29 141 -29q54 0 115 52l55 -52q-58 -88 -162 -88zM297 0h-135v1548h135v-1548z" />
    <glyph glyph-name="uni0623" unicode="&#x623;" horiz-adv-x="458" 
d="M221 1731h180v-72h-331v72h75q-30 49 -30 104q0 69 48.5 111.5t123.5 42.5q33 0 96 -13l-14 -69q-33 10 -70 10q-76 0 -100.5 -54t22.5 -132zM297 0h-135v1548h135v-1548z" />
    <glyph glyph-name="uni0624" unicode="&#x624;" horiz-adv-x="1015" 
d="M485 1196h230v-88h-422v88h100q-41 71 -41 139q0 87 58 139t153 52q59 0 127 -15l-16 -86q-79 11 -92 11q-60 0 -99 -30t-39 -87q0 -52 41 -123zM520 848q178 0 276.5 -105.5t98.5 -285.5v-367q0 -210 -138 -327t-423 -117q-65 0 -90 2l-6 123q511 -27 520 272
q-104 -43 -230 -43q-193 0 -304 107.5t-111 295.5q0 190 110 318q112 127 297 127zM760 168v242q0 150 -65 228.5t-183 78.5q-117 0 -188.5 -80.5t-71.5 -218.5q0 -141 76 -214t217 -73q114 0 215 37z" />
    <glyph glyph-name="uni0625" unicode="&#x625;" horiz-adv-x="458" 
d="M162 1548h135v-1548h-135v1548zM213 -440h180v-72h-332v72h78q-30 50 -30 104q0 69 47.5 111.5t122.5 42.5q33 0 96 -13l-13 -69q-38 10 -71 10q-76 0 -100.5 -54t22.5 -132z" />
    <glyph glyph-name="uni0626" unicode="&#x626;" horiz-adv-x="1548" 
d="M342 639h229v-88h-421v88h100q-41 71 -41 139q0 87 58 139t153 52q59 0 127 -15l-17 -86q-79 11 -92 11q-60 0 -98.5 -30t-38.5 -87q0 -52 41 -123zM907 537q0 -46 28 -84.5t73 -67t99 -55t108 -55.5t99 -63t73 -83t28 -109q0 -159 -178 -258q-180 -98 -479 -98
q-327 0 -497.5 107.5t-170.5 320.5q0 115 47 264l125 -32q-35 -146 -35 -215q0 -164 131 -239t400 -75q242 0 381 58t139 153q0 27 -15 52.5t-37 45.5t-59 43.5t-67 39t-77 40t-75 39.5q-80 44 -130 113t-50 151q0 140 109 229t294 89q93 0 220 -31l-25 -129
q-113 29 -199 29q-120 0 -190 -49.5t-70 -130.5z" />
    <glyph glyph-name="uni0627" unicode="&#x627;" horiz-adv-x="458" 
d="M297 0h-135v1548h135v-1548z" />
    <glyph glyph-name="uni0628" unicode="&#x628;" horiz-adv-x="1894" 
d="M1638 410v415h136v-471q0 -162 -104.5 -258t-291.5 -96h-819q-220 0 -344.5 103t-124.5 282q0 139 66 322l125 -35q-54 -187 -54 -262q0 -281 351 -281h786q142 0 208 67t66 214zM901 -182q39 0 63.5 -24.5t24.5 -65.5q0 -38 -25 -64t-63 -26q-41 0 -66.5 25.5
t-25.5 64.5q0 41 25.5 65.5t66.5 24.5z" />
    <glyph glyph-name="uni0629" unicode="&#x629;" horiz-adv-x="1042" 
d="M424 1116q-25 -26 -63.5 -26t-63.5 26q-26 25 -26 64t26 65q25 25 63.5 25t63.5 -25q25 -26 25 -65t-25 -64zM700 1116q-25 -26 -63.5 -26t-63.5 26q-26 25 -26 64t26 65q25 25 63.5 25t63.5 -25q25 -26 25 -65t-25 -64zM502 -10q-198 0 -309 112t-111 295q0 189 113 320
q110 131 307 131q196 0 309 -131t113 -320q0 -185 -114 -296t-308 -111zM506 121q133 0 205.5 70.5t72.5 209.5q0 142 -71 228q-74 86 -211 86q-138 0 -209 -86q-72 -90 -72 -226q0 -140 74.5 -211t210.5 -71z" />
    <glyph glyph-name="uni062A" unicode="&#x62a;" horiz-adv-x="1894" 
d="M844 909q-25 -26 -63.5 -26t-63.5 26q-26 25 -26 64t26 65q25 25 63.5 25t63.5 -25q25 -26 25 -65t-25 -64zM1120 909q-25 -26 -63.5 -26t-63.5 26q-26 25 -26 64t26 65q25 25 63.5 25t63.5 -25q25 -26 25 -65t-25 -64zM1638 410v415h136v-471q0 -162 -104.5 -258
t-291.5 -96h-819q-220 0 -344.5 103t-124.5 282q0 139 66 322l125 -35q-54 -187 -54 -262q0 -281 351 -281h786q142 0 208 67t66 214z" />
    <glyph glyph-name="uni062B" unicode="&#x62b;" horiz-adv-x="1894" 
d="M987 1126q-30 -26 -64 -26t-61.5 26t-27.5 64q0 37 26 63.5t64 26.5q37 0 62.5 -26.5t25.5 -63.5q0 -39 -25 -64zM844 913q-25 -26 -63.5 -26t-63.5 26q-26 25 -26 64t26 65q25 25 63.5 25t63.5 -25q25 -26 25 -65t-25 -64zM993 913q-26 25 -26 64t26 65q25 25 63.5 25
t63.5 -25q25 -26 25 -65t-25 -64q-25 -26 -63.5 -26t-63.5 26zM1638 410v415h136v-471q0 -162 -104.5 -258t-291.5 -96h-819q-220 0 -344.5 103t-124.5 282q0 139 66 322l125 -35q-54 -187 -54 -262q0 -281 351 -281h786q142 0 208 67t66 214z" />
    <glyph glyph-name="uni062C" unicode="&#x62c;" horiz-adv-x="1257" 
d="M606 848q253 0 386.5 -144t133.5 -399q0 -143 -43 -305h-637q-108 0 -166.5 -51.5t-58.5 -145.5q0 -99 69 -151.5t199 -52.5q65 0 121 12l27 -125q-70 -18 -164 -18q-176 0 -283.5 89.5t-107.5 245.5q0 149 95 237.5t255 88.5h543q20 79 20 166q0 196 -105.5 308
t-303.5 112q-112 0 -230 -39l-30 123q140 49 280 49zM596 -102q49 6 69.5 -37.5t0 -88t-69.5 -40.5q-51 -4 -73.5 40.5t-1 88t74.5 37.5z" />
    <glyph glyph-name="uni062D" unicode="&#x62d;" horiz-adv-x="1257" 
d="M1083 0h-637q-108 0 -166.5 -51.5t-58.5 -145.5q0 -99 69 -151.5t199 -52.5q63 0 187 28l24 -123q-112 -36 -227 -36q-176 0 -283.5 89.5t-107.5 245.5q0 149 95 237.5t255 88.5h543q20 79 20 166q0 196 -105.5 308t-303.5 112q-112 0 -230 -39l-30 123q140 49 280 49
q253 0 386.5 -144t133.5 -399q0 -143 -43 -305z" />
    <glyph glyph-name="uni062E" unicode="&#x62e;" horiz-adv-x="1257" 
d="M606 1090q-41 0 -66.5 24.5t-25.5 65.5q0 39 25.5 64.5t66.5 25.5q38 0 63 -26t25 -64q0 -41 -24.5 -65.5t-63.5 -24.5zM1083 0h-637q-108 0 -166.5 -51.5t-58.5 -145.5q0 -99 69 -151.5t199 -52.5q63 0 187 28l24 -123q-112 -36 -227 -36q-176 0 -283.5 89.5
t-107.5 245.5q0 149 95 237.5t255 88.5h543q20 79 20 166q0 196 -105.5 308t-303.5 112q-112 0 -230 -39l-30 123q140 49 280 49q253 0 386.5 -144t133.5 -399q0 -143 -43 -305z" />
    <glyph glyph-name="uni062F" unicode="&#x62f;" horiz-adv-x="1042" 
d="M911 0h-829v129h694v41q0 335 -416 606l80 111q265 -176 369 -350q102 -175 102 -408v-129z" />
    <glyph glyph-name="uni0630" unicode="&#x630;" horiz-adv-x="1042" 
d="M393 1075q-41 0 -66.5 24.5t-25.5 65.5q0 39 25.5 64.5t66.5 25.5q38 0 63 -26t25 -64q0 -41 -24.5 -65.5t-63.5 -24.5zM911 0h-829v129h694v41q0 335 -416 606l80 111q265 -176 369 -350q102 -175 102 -408v-129z" />
    <glyph glyph-name="uni0631" unicode="&#x631;" horiz-adv-x="591" 
d="M18 -352l-26 125q161 27 232 110.5t71 253.5v688h135v-659q0 -465 -412 -518z" />
    <glyph glyph-name="uni0632" unicode="&#x632;" horiz-adv-x="591" 
d="M362 1067q-41 0 -66.5 24.5t-25.5 65.5q0 39 25.5 64.5t66.5 25.5q38 0 63.5 -26t25.5 -64q0 -41 -25 -65.5t-64 -24.5zM18 -352l-26 125q161 27 232 110.5t71 253.5v688h135v-659q0 -465 -412 -518z" />
    <glyph glyph-name="uni0633" unicode="&#x633;" horiz-adv-x="2445" 
d="M2189 410v415h135v-471q0 -167 -93.5 -260.5t-260.5 -93.5q-208 0 -284 141q-83 -145 -300 -145q-151 0 -217 84q-24 -200 -167.5 -308t-374.5 -108q-254 0 -395.5 127t-141.5 340q0 160 84 363l121 -41q-68 -171 -68 -306q0 -174 105 -263t299 -89q407 0 407 395v486
h136v-354q0 -193 212 -193q114 0 169 62t55 206v279h135v-348q0 -199 223 -199q117 0 169 66t52 215z" />
    <glyph glyph-name="uni0634" unicode="&#x634;" horiz-adv-x="2445" 
d="M1745 1161q-30 -26 -64.5 -26t-62 26t-27.5 64q0 37 26 63.5t64 26.5q37 0 62.5 -26.5t25.5 -63.5q0 -40 -24 -64zM1602 948q-25 -26 -63.5 -26t-63.5 26q-26 25 -26 64t26 65q25 25 63.5 25t63.5 -25q25 -26 25 -65t-25 -64zM1751 948q-26 25 -26 64t26 65
q25 25 63.5 25t63.5 -25q25 -26 25 -65t-25 -64q-25 -26 -63.5 -26t-63.5 26zM2189 410v415h135v-471q0 -167 -93.5 -260.5t-260.5 -93.5q-208 0 -284 141q-83 -145 -300 -145q-151 0 -217 84q-24 -200 -167.5 -308t-374.5 -108q-254 0 -395.5 127t-141.5 340q0 160 84 363
l121 -41q-68 -171 -68 -306q0 -174 105 -263t299 -89q407 0 407 395v486h136v-354q0 -193 212 -193q114 0 169 62t55 206v279h135v-348q0 -199 223 -199q117 0 169 66t52 215z" />
    <glyph glyph-name="uni0635" unicode="&#x635;" horiz-adv-x="2723" 
d="M2150 848q212 0 327.5 -135.5t115.5 -366.5q0 -160 -62 -346h-1138q-145 0 -226 66q-26 -193 -169 -297.5t-371 -104.5q-254 0 -395.5 127t-141.5 340q0 160 84 363l121 -41q-68 -171 -68 -306q0 -174 105 -263t299 -89q407 0 407 395v486h136v-383q0 -120 124 -154
q387 709 852 709zM1442 129h981q33 103 33 211q0 170 -84.5 272.5t-235.5 102.5q-363 0 -694 -586z" />
    <glyph glyph-name="uni0636" unicode="&#x636;" horiz-adv-x="2723" 
d="M1970 1090q-41 0 -66.5 24.5t-25.5 65.5q0 39 25.5 64.5t66.5 25.5q38 0 63 -26t25 -64q0 -41 -24.5 -65.5t-63.5 -24.5zM2150 848q212 0 327.5 -135.5t115.5 -366.5q0 -160 -62 -346h-1138q-145 0 -226 66q-26 -193 -169 -297.5t-371 -104.5q-254 0 -395.5 127
t-141.5 340q0 160 84 363l121 -41q-68 -171 -68 -306q0 -174 105 -263t299 -89q407 0 407 395v486h136v-383q0 -120 124 -154q387 709 852 709zM1442 129h981q33 103 33 211q0 170 -84.5 272.5t-235.5 102.5q-363 0 -694 -586z" />
    <glyph glyph-name="uni0637" unicode="&#x637;" horiz-adv-x="1740" 
d="M1169 848q214 0 328 -141q113 -140 113 -361q0 -160 -60 -346h-1460v129h225v1419h136v-1196q156 242 343 369t375 127zM455 129h987q31 115 31 217q0 169 -82.5 269t-233.5 100q-171 0 -364 -152t-338 -434z" />
    <glyph glyph-name="uni0638" unicode="&#x638;" horiz-adv-x="1740" 
d="M1169 848q214 0 328 -141q113 -140 113 -361q0 -160 -60 -346h-1460v129h225v1419h136v-1196q156 242 343 369t375 127zM1026 1090q-41 0 -66.5 24.5t-25.5 65.5q0 39 25.5 64.5t66.5 25.5q38 0 63 -26t25 -64q0 -41 -24.5 -65.5t-63.5 -24.5zM455 129h987q31 115 31 217
q0 169 -82.5 269t-233.5 100q-171 0 -364 -152t-338 -434z" />
    <glyph glyph-name="uni0639" unicode="&#x639;" horiz-adv-x="1050" 
d="M981 0h-512q-117 0 -182.5 -51t-65.5 -142q0 -104 72 -156t203 -52q81 0 180 24l24 -123q-97 -32 -208 -32q-193 0 -301.5 88t-108.5 247q0 127 78.5 212t214.5 108q-125 149 -125 328q0 175 123 286q120 111 340 111q103 0 221 -31l-27 -129q-108 27 -196 27
q-148 0 -234 -74t-86 -199q0 -168 139 -313h451v-129z" />
    <glyph glyph-name="uni063A" unicode="&#x63a;" horiz-adv-x="1050" 
d="M713 1090q-41 0 -66.5 24.5t-25.5 65.5q0 39 25.5 64.5t66.5 25.5q38 0 63 -26t25 -64q0 -41 -24.5 -65.5t-63.5 -24.5zM981 0h-512q-117 0 -182.5 -51t-65.5 -142q0 -104 72 -156t203 -52q81 0 180 24l24 -123q-97 -32 -208 -32q-193 0 -301.5 88t-108.5 247
q0 127 78.5 212t214.5 108q-125 149 -125 328q0 175 123 286q120 111 340 111q103 0 221 -31l-27 -129q-108 27 -196 27q-148 0 -234 -74t-86 -199q0 -168 139 -313h451v-129z" />
    <glyph glyph-name="uni0640" unicode="&#x640;" horiz-adv-x="106" 
d="M106 0h-106v129h106q41 0 41 -66q0 -63 -41 -63z" />
    <glyph glyph-name="uni0641" unicode="&#x641;" horiz-adv-x="2119" 
d="M1610 1090q-41 0 -66.5 24.5t-25.5 65.5q0 39 25.5 64.5t66.5 25.5q38 0 63 -26t25 -64q0 -41 -24.5 -65.5t-63.5 -24.5zM1610 848q189 0 289 -120t100 -322q0 -185 -90 -406h-1350q-220 0 -344.5 103t-124.5 282q0 139 66 322l125 -35q-54 -187 -54 -262
q0 -281 351 -281h704q-106 115 -106 289q0 189 120 309q121 121 314 121zM1436 129h379q45 139 45 268q0 150 -67 234t-194 84q-130 0 -207 -82.5t-77 -218.5q0 -152 121 -285z" />
    <glyph glyph-name="uni0642" unicode="&#x642;" horiz-adv-x="1579" 
d="M1006 1116q-25 -26 -63.5 -26t-63.5 26q-26 25 -26 64t26 65q25 25 63.5 25t63.5 -25q25 -26 25 -65t-25 -64zM1282 1116q-25 -26 -63.5 -26t-63.5 26q-26 25 -26 64t26 65q25 25 63.5 25t63.5 -25q25 -26 25 -65t-25 -64zM793 -336q-703 0 -703 475q0 124 47 267
l125 -33q-35 -116 -35 -215q0 -186 136.5 -274.5t429.5 -88.5q519 0 528 248q-104 -43 -229 -43q-193 0 -304.5 107.5t-111.5 295.5q0 190 110 318q112 127 297 127q177 0 276 -114t99 -306v-313q0 -230 -161.5 -340.5t-503.5 -110.5zM1110 131q112 0 213 37v225
q0 322 -248 322q-117 0 -188.5 -79.5t-71.5 -217.5q0 -141 77 -214t218 -73z" />
    <glyph glyph-name="uni0643" unicode="&#x643;" horiz-adv-x="1693" 
d="M1397 410v1138h135v-1194q0 -354 -383 -354h-590q-220 0 -344.5 103t-124.5 282q0 139 66 322l125 -35q-54 -187 -54 -262q0 -281 351 -281h571q140 0 194 62.5t54 218.5zM844 737h194v-86h-403v86h110q-36 53 -36 121q0 81 57.5 136t148.5 55q31 0 101 -17l-17 -84
q-54 13 -81 13q-55 0 -88 -28t-33 -81q0 -62 47 -115z" />
    <glyph glyph-name="uni0644" unicode="&#x644;" horiz-adv-x="1335" 
d="M621 -336q-243 0 -388 127q-143 125 -143 340q0 160 84 363l119 -41q-66 -201 -66 -308q0 -172 103 -261t299 -89q409 0 409 398v1355h136v-1388q0 -231 -148 -363.5t-405 -132.5z" />
    <glyph glyph-name="uni0645" unicode="&#x645;" horiz-adv-x="1304" 
d="M791 848q181 0 290 -121q105 -123 105 -309q0 -192 -117 -305t-344 -113h-322q-91 0 -140.5 -50.5t-49.5 -146.5v-335h-131v335q0 155 83 240.5t236 85.5h50q-89 142 -89 289q0 190 121 311q119 119 308 119zM604 129h133q153 0 231.5 78.5t78.5 212.5q0 135 -74 215
t-197 80q-125 0 -199.5 -78.5t-74.5 -216.5q0 -128 102 -291z" />
    <glyph glyph-name="uni0646" unicode="&#x646;" horiz-adv-x="1335" 
d="M651 842q-41 0 -66.5 24.5t-25.5 65.5q0 39 25.5 64.5t66.5 25.5q38 0 63 -26t25 -64q0 -41 -24.5 -65.5t-63.5 -24.5zM627 -336q-254 0 -395.5 127t-141.5 340q0 160 84 363l121 -41q-68 -171 -68 -306q0 -174 105 -263t299 -89q407 0 407 395v486h136v-520
q0 -235 -146 -363.5t-401 -128.5z" />
    <glyph glyph-name="uni0647" unicode="&#x647;" horiz-adv-x="1042" 
d="M502 -10q-198 0 -309 112t-111 295q0 189 113 320q110 131 307 131q196 0 309 -131t113 -320q0 -185 -114 -296t-308 -111zM506 121q133 0 205.5 70.5t72.5 209.5q0 142 -71 228q-74 86 -211 86q-138 0 -209 -86q-72 -90 -72 -226q0 -140 74.5 -211t210.5 -71z" />
    <glyph glyph-name="uni0648" unicode="&#x648;" horiz-adv-x="1015" 
d="M244 -352l-6 123q511 -27 520 272q-104 -43 -230 -43q-193 0 -304 107.5t-111 295.5q0 190 110 318q112 127 297 127q178 0 276.5 -105.5t98.5 -285.5v-367q0 -210 -138 -327t-423 -117q-65 0 -90 2zM545 131q114 0 215 37v242q0 150 -65 228.5t-183 78.5
q-117 0 -188.5 -80.5t-71.5 -218.5q0 -141 76 -214t217 -73z" />
    <glyph glyph-name="uni0649" unicode="&#x649;" horiz-adv-x="1548" 
d="M758 -336q-327 0 -497.5 107.5t-170.5 320.5q0 115 47 264l125 -32q-35 -146 -35 -215q0 -164 131 -239t400 -75q242 0 381 58t139 153q0 27 -15 52.5t-37 45.5t-59 43.5t-67 39t-77 40t-75 39.5q-80 44 -130 113t-50 151q0 140 109 229t294 89q93 0 220 -31l-25 -129
q-113 29 -199 29q-120 0 -190 -49.5t-70 -130.5q0 -46 28 -84.5t73 -67t99 -55t108 -55.5t99 -63t73 -83t28 -109q0 -159 -178 -258q-180 -98 -479 -98z" />
    <glyph glyph-name="uni064A" unicode="&#x64a;" horiz-adv-x="1548" 
d="M758 -336q-327 0 -497.5 107.5t-170.5 320.5q0 115 47 264l125 -32q-35 -146 -35 -215q0 -164 131 -239t400 -75q242 0 381 58t139 153q0 27 -15 52.5t-37 45.5t-59 43.5t-67 39t-77 40t-75 39.5q-80 44 -130 113t-50 151q0 140 109 229t294 89q93 0 220 -31l-25 -129
q-113 29 -199 29q-120 0 -190 -49.5t-70 -130.5q0 -46 28 -84.5t73 -67t99 -55t108 -55.5t99 -63t73 -83t28 -109q0 -159 -178 -258q-180 -98 -479 -98zM674 -674q-25 -25 -63.5 -25t-63.5 25q-26 26 -26 65t26 64q25 26 63.5 26t63.5 -26q25 -25 25 -64t-25 -65zM950 -674
q-25 -25 -63.5 -25t-63.5 25q-26 26 -26 65t26 64q25 26 63.5 26t63.5 -26q25 -25 25 -64t-25 -65z" />
    <glyph glyph-name="uni064B" unicode="&#x64b;" 
d="M227 1368l-458 -70l-7 2l11 70l458 70l7 -2zM227 1184l-458 -70l-7 2l11 70l458 69l7 -2z" />
    <glyph glyph-name="uni064C" unicode="&#x64c;" 
d="M150 1569q57 0 93 -50.5t36 -132.5q0 -113 -63 -186.5t-150 -73.5q-35 0 -70 23t-58 51t-47 51t-38 23q-34 0 -86 -70l-46 43q69 96 138 96q47 0 108 -73q65 -74 103 -74q87 0 127 100q-32 -4 -39 -4q-64 0 -105 31.5t-41 89.5q0 62 41.5 109t96.5 47zM172 1360q5 0 41 4
v20q0 115 -68 115q-30 0 -49.5 -23t-19.5 -55q0 -61 96 -61z" />
    <glyph glyph-name="uni064D" unicode="&#x64d;" 
d="M225 -258l-458 -70l-7 2l11 68l458 70l7 -2zM225 -424l-458 -70l-7 2l11 68l458 70l7 -2z" />
    <glyph glyph-name="uni064E" unicode="&#x64e;" 
d="M227 1184l-458 -70l-7 2l11 70l458 69l7 -2z" />
    <glyph glyph-name="uni064F" unicode="&#x64f;" 
d="M-59 1522q31 36 72 43.5t76 -10.5t58 -63.5t19 -105.5q0 -120 -61 -190t-156 -70q-61 0 -115 31l29 62q44 -23 86 -23q95 0 135 100q-32 -4 -37 -4q-65 0 -106 31.5t-41 89.5q0 62 41 109zM59 1360q5 0 41 4v20q0 115 -67 115q-31 0 -50.5 -23t-19.5 -55q0 -61 96 -61z
" />
    <glyph glyph-name="uni0650" unicode="&#x650;" 
d="M227 -258l-458 -70l-7 2l11 68l458 70l7 -2z" />
    <glyph glyph-name="uni0651" unicode="&#x651;" 
d="M152 1382l51 21q30 -53 30 -117q0 -63 -32.5 -101t-91.5 -38q-60 0 -97 37q-34 -58 -108 -58q-62 0 -99.5 36.5t-37.5 94.5q0 50 22 99l49 -15q-8 -27 -8 -59q0 -78 74 -78q63 0 63 78q0 35 -2 45l51 12q13 -47 13 -79v-5q32 -32 75 -32q66 0 66 67q0 36 -18 92z" />
    <glyph glyph-name="uni0652" unicode="&#x652;" 
d="M102 1159q-37 -37 -102 -37q-64 0 -102 35q-35 35 -35 100q0 66 38.5 115t98.5 49t100 -49q37 -51 37 -114.5t-35 -98.5zM-66 1262q0 -70 66 -70t66 70q5 54 -30.5 76.5t-71 0t-30.5 -76.5z" />
    <glyph glyph-name="uni0653" unicode="&#x653;" 
d="M139 1128q-54 0 -159 27t-136 27q-50 0 -96 -37l-49 57q76 70 151 70q36 0 138 -27q109 -28 143 -28q55 0 115 51l55 -51q-59 -89 -162 -89z" />
    <glyph glyph-name="uni0654" unicode="&#x654;" 
d="M-14 1184h180v-72h-332v72h76q-31 51 -31 104q0 69 48.5 111.5t123.5 42.5q37 0 96 -12l-14 -70q-33 10 -70 10q-75 0 -100 -54t23 -132z" />
    <glyph glyph-name="uni0655" unicode="&#x655;" 
d="M-14 -440h180v-72h-332v72h78q-31 51 -31 104q0 69 47.5 111.5t122.5 42.5q33 0 96 -13l-12 -69q-38 10 -72 10q-75 0 -100 -54t23 -132z" />
    <glyph glyph-name="uni0656" unicode="&#x656;" 
d="M-27 -567h-10v358h74v-338z" />
    <glyph glyph-name="uni0658" unicode="&#x658;" 
d="M-127 1364l66 -23q-25 -67 -25 -96q0 -80 90 -80q82 0 82 97v104h72v-104q0 -80 -40.5 -124t-113.5 -44q-74 0 -118 39t-44 106q0 55 31 125z" />
    <glyph glyph-name="uni0660" unicode="&#x660;" horiz-adv-x="1105" 
d="M690 602l-137 -137l-139 139l139 133z" />
    <glyph glyph-name="uni0661" unicode="&#x661;" horiz-adv-x="1105" 
d="M621 0h-136v1337h136v-1337z" />
    <glyph glyph-name="uni0662" unicode="&#x662;" horiz-adv-x="1105" 
d="M803 1329l135 8q17 -248 -65.5 -364.5t-278.5 -116.5q-129 0 -268 62v-918h-136v1337h136v-290q144 -66 270 -66q130 0 176 82t31 266z" />
    <glyph glyph-name="uni0663" unicode="&#x663;" horiz-adv-x="1105" 
d="M920 1327l135 10q19 -220 -48 -334t-210 -114q-114 0 -236 51q-63 -51 -160 -51q-93 0 -178 33v-922h-135v1337h135v-299q79 -28 152 -28q94 0 130 76t19 241l135 10q15 -193 -30 -301q74 -26 141 -26q94 0 130.5 76t19.5 241z" />
    <glyph glyph-name="uni0664" unicode="&#x664;" horiz-adv-x="1105" 
d="M932 127l6 -123q-144 -16 -254 -16q-502 0 -502 315q0 121 79.5 220t225.5 161q-109 40 -174 113.5t-65 171.5q0 177 151 274.5t422 97.5q31 0 49 -2v-125q-228 12 -355.5 -52.5t-127.5 -194.5q0 -115 119.5 -171t329.5 -32v-127q-248 -22 -381 -108t-133 -203
q0 -209 383 -209q84 0 227 10z" />
    <glyph glyph-name="uni0665" unicode="&#x665;" horiz-adv-x="1105" 
d="M879 113q-117 -129 -326 -129t-326 129q-116 128 -116 432q0 393 131 594q132 200 311 200q181 0 313 -200q129 -202 129 -594q0 -304 -116 -432zM250 549q0 -434 303 -434t303 434q0 299 -90 481q-88 178 -213 178t-213 -178q-90 -182 -90 -481z" />
    <glyph glyph-name="uni0666" unicode="&#x666;" horiz-adv-x="1105" 
d="M872 0h-135v1210h-639v127h774v-1337z" />
    <glyph glyph-name="uni0667" unicode="&#x667;" horiz-adv-x="1105" 
d="M553 197l379 1153l143 -43l-446 -1307h-150l-450 1311l143 39z" />
    <glyph glyph-name="uni0668" unicode="&#x668;" horiz-adv-x="1105" 
d="M625 1333l450 -1308l-143 -41l-381 1153l-379 -1153l-143 43l446 1306h150z" />
    <glyph glyph-name="uni0669" unicode="&#x669;" horiz-adv-x="1105" 
d="M571 1337h320v-1337h-135v573q-292 -25 -456.5 67.5t-164.5 293.5q0 186 117.5 294.5t318.5 108.5zM274 934q0 -142 138 -201q136 -59 344 -35v512h-154q-156 0 -242 -71.5t-86 -204.5z" />
    <glyph glyph-name="uni066A" unicode="&#x66a;" horiz-adv-x="1146" 
d="M442 1204l-145 -145l-145 147l145 144zM907 1313l-596 -1352l-100 37l596 1352zM997 143l-145 -143l-145 145l145 144z" />
    <glyph glyph-name="uni066B" unicode="&#x66b;" horiz-adv-x="503" 
d="M231 152h166l-166 -482h-137z" />
    <glyph glyph-name="uni066C" unicode="&#x66c;" horiz-adv-x="423" 
d="M190 264h127l-110 -332h-113z" />
    <glyph glyph-name="uni066D" unicode="&#x66d;" horiz-adv-x="1724" 
d="M872 205l-456 -406l-49 41l231 545l-514 307l16 76l613 -76l129 590h61l121 -590l612 76l23 -76l-535 -305l250 -547l-55 -41z" />
    <glyph glyph-name="uni066E" unicode="&#x66e;" horiz-adv-x="1894" 
d="M1638 410v415h136v-471q0 -162 -104.5 -258t-291.5 -96h-819q-220 0 -344.5 103t-124.5 282q0 139 66 322l125 -35q-54 -187 -54 -262q0 -281 351 -281h786q142 0 208 67t66 214z" />
    <glyph glyph-name="uni066F" unicode="&#x66f;" horiz-adv-x="1579" 
d="M793 -336q-703 0 -703 475q0 124 47 267l125 -33q-35 -116 -35 -215q0 -186 136.5 -274.5t429.5 -88.5q519 0 528 248q-104 -43 -229 -43q-193 0 -304.5 107.5t-111.5 295.5q0 190 110 318q112 127 297 127q177 0 276 -114t99 -306v-313q0 -230 -161.5 -340.5
t-503.5 -110.5zM1110 131q112 0 213 37v225q0 322 -248 322q-117 0 -188.5 -79.5t-71.5 -217.5q0 -141 77 -214t218 -73z" />
    <glyph glyph-name="uni0670" unicode="&#x670;" 
d="M-27 1139h-10v358h74v-338z" />
    <glyph glyph-name="uni0671" unicode="&#x671;" horiz-adv-x="458" 
d="M295 1946q73 0 115.5 -47t42.5 -127q0 -58 -19 -113h-493v72h102v202h72v-92q73 105 180 105zM289 1874q-54 0 -102 -39t-78 -104h270q6 24 6 43q0 47 -26.5 73.5t-69.5 26.5zM297 0h-135v1548h135v-1548z" />
    <glyph glyph-name="uni0679" unicode="&#x679;" horiz-adv-x="1894" 
d="M1169 1001q0 -61 -18 -110h-510v74h102v344h72v-215q75 100 182 100q79 0 125.5 -53t46.5 -140zM993 1122q-54 0 -101.5 -41.5t-76.5 -115.5h281q4 36 4 39q0 54 -29.5 86t-77.5 32zM1638 410v415h136v-471q0 -162 -104.5 -258t-291.5 -96h-819q-220 0 -344.5 103
t-124.5 282q0 139 66 322l125 -35q-54 -187 -54 -262q0 -281 351 -281h786q142 0 208 67t66 214z" />
    <glyph glyph-name="uni067E" unicode="&#x67e;" horiz-adv-x="1894" 
d="M1638 410v415h136v-471q0 -162 -104.5 -258t-291.5 -96h-819q-220 0 -344.5 103t-124.5 282q0 139 66 322l125 -35q-54 -187 -54 -262q0 -281 351 -281h786q142 0 208 67t66 214zM846 -272q5 -57 -41.5 -80.5t-93.5 0.5t-43 80q-4 54 43 76.5t93.5 0t41.5 -76.5z
M971 -209q31 25 64.5 25.5t60 -25t26.5 -63.5q0 -60 -55 -85t-96 19q-26 26 -26 65t26 64zM836 -420q41 44 96 19.5t55 -84.5q0 -37 -25 -62.5t-63 -25.5t-64 25.5t-26 62.5q0 38 27 65z" />
    <glyph glyph-name="uni0686" unicode="&#x686;" horiz-adv-x="1257" 
d="M606 848q253 0 386.5 -144t133.5 -399q0 -143 -43 -305h-637q-108 0 -166.5 -51.5t-58.5 -145.5q0 -99 69 -151.5t199 -52.5q65 0 121 12l27 -125q-70 -18 -164 -18q-176 0 -283.5 89.5t-107.5 245.5q0 149 95 237.5t255 88.5h543q20 79 20 166q0 196 -105.5 308
t-303.5 112q-112 0 -230 -39l-30 123q140 49 280 49zM559 -133q31 29 69 13t38 -56q0 -43 -38 -60t-69 13q-19 20 -19 46.5t19 43.5zM754 -133q31 29 68.5 13t37.5 -56q0 -30 -19.5 -47.5t-43 -17.5t-43 17.5t-19.5 47.5q0 27 19 43zM702 -260q29 0 46.5 -18.5t17.5 -47.5
q0 -27 -17.5 -44t-46.5 -17q-26 0 -43.5 17.5t-17.5 43.5q0 29 17.5 47.5t43.5 18.5z" />
    <glyph glyph-name="uni0688" unicode="&#x688;" horiz-adv-x="1042" 
d="M641 1194q0 -62 -18 -111h-510v74h102v344h72v-215q75 100 182 100q79 0 125.5 -52.5t46.5 -139.5zM465 1315q-54 0 -101.5 -41.5t-76.5 -116.5h280q4 36 4 39q0 54 -29.5 86.5t-76.5 32.5zM360 776l80 111q265 -176 369 -350q102 -175 102 -408v-129h-829v129h694v41
q0 335 -416 606z" />
    <glyph glyph-name="uni0691" unicode="&#x691;" horiz-adv-x="591" 
d="M438 1378q79 0 125.5 -52.5t46.5 -139.5q0 -62 -18 -111h-510v74h102v344h72v-215q75 100 182 100zM434 1307q-54 0 -101.5 -41.5t-76.5 -116.5h281q4 36 4 39q0 54 -29.5 86.5t-77.5 32.5zM295 137v688h135v-659q0 -465 -412 -518l-26 125q161 27 232 110.5t71 253.5z
" />
    <glyph glyph-name="uni0698" unicode="&#x698;" horiz-adv-x="591" 
d="M428 1311q-30 -26 -64.5 -26.5t-62 25.5t-27.5 64q0 37 26.5 63.5t64.5 26.5q37 0 62.5 -26.5t25.5 -63.5q0 -38 -25 -63zM285 1098q-25 -26 -63.5 -26t-63.5 26q-26 25 -26 64t26 65q25 25 63.5 25t63.5 -25q25 -26 25 -65t-25 -64zM561 1098q-25 -26 -63.5 -26
t-63.5 26q-26 25 -26 64t26 65q25 25 63.5 25t63.5 -25q25 -26 25 -65t-25 -64zM18 -352l-26 125q161 27 232 110.5t71 253.5v688h135v-659q0 -465 -412 -518z" />
    <glyph glyph-name="uni06A1" unicode="&#x6a1;" horiz-adv-x="2119" 
d="M1610 848q189 0 289 -120t100 -322q0 -185 -90 -406h-1350q-220 0 -344.5 103t-124.5 282q0 139 66 322l125 -35q-54 -187 -54 -262q0 -281 351 -281h704q-106 115 -106 289q0 189 120 309q121 121 314 121zM1436 129h379q45 139 45 268q0 150 -67 234t-194 84
q-130 0 -207 -82.5t-77 -218.5q0 -152 121 -285z" />
    <glyph glyph-name="uni06A4" unicode="&#x6a4;" horiz-adv-x="2119" 
d="M1675 1333q-30 -26 -64 -26t-61.5 26t-27.5 64q0 37 26 63.5t64 26.5q37 0 62.5 -26.5t25.5 -63.5q0 -39 -25 -64zM1532 1120q-25 -26 -63.5 -26t-63.5 26q-26 25 -26 64t26 65q25 25 63.5 25t63.5 -25q25 -26 25 -65t-25 -64zM1681 1120q-26 25 -26 64t26 65
q25 25 63.5 25t63.5 -25q25 -26 25 -65t-25 -64q-25 -26 -63.5 -26t-63.5 26zM1610 848q189 0 289 -120t100 -322q0 -185 -90 -406h-1350q-220 0 -344.5 103t-124.5 282q0 139 66 322l125 -35q-54 -187 -54 -262q0 -281 351 -281h704q-106 115 -106 289q0 189 120 309
q121 121 314 121zM1436 129h379q45 139 45 268q0 150 -67 234t-194 84q-130 0 -207 -82.5t-77 -218.5q0 -152 121 -285z" />
    <glyph glyph-name="uni06A9" unicode="&#x6a9;" horiz-adv-x="1738" 
d="M1526 1427l-531 -514q349 -115 480 -286q133 -177 133 -437v-190h-1049q-220 0 -344.5 103t-124.5 282q0 139 66 322l125 -35q-54 -187 -54 -262q0 -281 351 -281h899v84q0 229 -140 369q-138 138 -479 243v133l580 560z" />
    <glyph glyph-name="uni06AF" unicode="&#x6af;" horiz-adv-x="1738" 
d="M1278 1681l90 -90l-516 -495l-94 92zM1526 1427l-531 -514q349 -115 480 -286q133 -177 133 -437v-190h-1049q-220 0 -344.5 103t-124.5 282q0 139 66 322l125 -35q-54 -187 -54 -262q0 -281 351 -281h899v84q0 229 -140 369q-138 138 -479 243v133l580 560z" />
    <glyph glyph-name="uni06BA" unicode="&#x6ba;" horiz-adv-x="1335" 
d="M627 -336q-254 0 -395.5 127t-141.5 340q0 160 84 363l121 -41q-68 -171 -68 -306q0 -174 105 -263t299 -89q407 0 407 395v486h136v-520q0 -235 -146 -363.5t-401 -128.5z" />
    <glyph glyph-name="uni06BE" unicode="&#x6be;" horiz-adv-x="1486" 
d="M367 754l22 118q496 -38 741.5 -190.5t245.5 -456.5q0 -107 -28 -225h-363q-175 0 -291 45q-116 -45 -286 -45q-187 0 -326 59l41 121q122 -51 285 -51q64 0 129 10q-144 111 -144 301q0 93 45.5 175t122.5 124q-126 12 -194 15zM516 444q0 -189 176 -272
q90 33 144.5 105t54.5 169q0 102 -53 166t-133 64q-81 0 -135 -66.5t-54 -165.5zM956 129h283q10 65 10 111q0 284 -297 409q62 -95 62 -203q0 -96 -45 -178t-119 -133q56 -6 106 -6z" />
    <glyph glyph-name="uni06C1" unicode="&#x6c1;" horiz-adv-x="1042" 
d="M502 -10q-198 0 -309 112t-111 295q0 189 113 320q110 131 307 131q196 0 309 -131t113 -320q0 -185 -114 -296t-308 -111zM506 121q133 0 205.5 70.5t72.5 209.5q0 142 -71 228q-74 86 -211 86q-138 0 -209 -86q-72 -90 -72 -226q0 -140 74.5 -211t210.5 -71z" />
    <glyph glyph-name="uni06C2" unicode="&#x6c2;" horiz-adv-x="1042" 
d="M469 1196h229v-88h-422v88h101q-41 71 -41 139q0 87 58 139t153 52q59 0 127 -15l-17 -86q-83 11 -92 11q-60 0 -98.5 -30t-38.5 -87q0 -52 41 -123zM195 717q110 131 307 131q196 0 309 -131t113 -320q0 -185 -114 -296t-308 -111q-198 0 -309 112t-111 295
q0 189 113 320zM506 121q133 0 205.5 70.5t72.5 209.5q0 142 -71 228q-74 86 -211 86q-138 0 -209 -86q-72 -90 -72 -226q0 -140 74.5 -211t210.5 -71z" />
    <glyph glyph-name="uni06C3" unicode="&#x6c3;" horiz-adv-x="1042" 
d="M424 1116q-25 -26 -63.5 -26t-63.5 26q-26 25 -26 64t26 65q25 25 63.5 25t63.5 -25q25 -26 25 -65t-25 -64zM700 1116q-25 -26 -63.5 -26t-63.5 26q-26 25 -26 64t26 65q25 25 63.5 25t63.5 -25q25 -26 25 -65t-25 -64zM502 -10q-198 0 -309 112t-111 295q0 189 113 320
q110 131 307 131q196 0 309 -131t113 -320q0 -185 -114 -296t-308 -111zM506 121q133 0 205.5 70.5t72.5 209.5q0 142 -71 228q-74 86 -211 86q-138 0 -209 -86q-72 -90 -72 -226q0 -140 74.5 -211t210.5 -71z" />
    <glyph glyph-name="uni06CC" unicode="&#x6cc;" horiz-adv-x="1548" 
d="M758 -336q-327 0 -497.5 107.5t-170.5 320.5q0 115 47 264l125 -32q-35 -146 -35 -215q0 -164 131 -239t400 -75q242 0 381 58t139 153q0 27 -15 52.5t-37 45.5t-59 43.5t-67 39t-77 40t-75 39.5q-80 44 -130 113t-50 151q0 140 109 229t294 89q93 0 220 -31l-25 -129
q-113 29 -199 29q-120 0 -190 -49.5t-70 -130.5q0 -46 28 -84.5t73 -67t99 -55t108 -55.5t99 -63t73 -83t28 -109q0 -159 -178 -258q-180 -98 -479 -98z" />
    <glyph glyph-name="uni06D2" unicode="&#x6d2;" horiz-adv-x="1505" 
d="M715 -18q-353 0 -498 65t-145 207q0 60 22.5 110t58 84.5t78.5 64.5t86.5 56.5t79 54.5t58 64.5t22.5 79.5v66h127v-72q0 -88 -60 -162t-143 -115q-86 -44 -144 -100t-58 -117q0 -87 124.5 -121t424.5 -34q330 0 747 71l6 -127q-449 -75 -786 -75z" />
    <glyph glyph-name="uni06D3" unicode="&#x6d3;" horiz-adv-x="1505" 
d="M508 1180h229v-88h-422v88h101q-41 71 -41 139q0 87 58 138.5t153 51.5q64 0 127 -14l-17 -86q-75 10 -92 10q-61 0 -99 -29.5t-38 -86.5q0 -52 41 -123zM1495 184l6 -127q-449 -75 -786 -75q-353 0 -498 65t-145 207q0 60 22.5 110t58 84.5t78.5 64.5t86.5 56.5t79 54.5
t58 64.5t22.5 79.5v66h127v-72q0 -88 -60 -162t-143 -115q-86 -44 -144 -100t-58 -117q0 -87 124.5 -121t424.5 -34q330 0 747 71z" />
    <glyph glyph-name="uni06D4" unicode="&#x6d4;" horiz-adv-x="710" 
d="M61 90l52 109q76 -70 219 -70h317v-129h-317q-170 0 -271 90z" />
    <glyph glyph-name="uni06D5" unicode="&#x6d5;" horiz-adv-x="1042" 
d="M502 -10q-198 0 -309 112t-111 295q0 189 113 320q110 131 307 131q196 0 309 -131t113 -320q0 -185 -114 -296t-308 -111zM506 121q133 0 205.5 70.5t72.5 209.5q0 142 -71 228q-74 86 -211 86q-138 0 -209 -86q-72 -90 -72 -226q0 -140 74.5 -211t210.5 -71z" />
    <glyph glyph-name="uni06F0" unicode="&#x6f0;" horiz-adv-x="1105" 
d="M690 602l-137 -137l-139 139l139 133z" />
    <glyph glyph-name="uni06F1" unicode="&#x6f1;" horiz-adv-x="1105" 
d="M621 0h-136v1337h136v-1337z" />
    <glyph glyph-name="uni06F2" unicode="&#x6f2;" horiz-adv-x="1105" 
d="M803 1329l135 8q17 -248 -65.5 -364.5t-278.5 -116.5q-129 0 -268 62v-918h-136v1337h136v-290q144 -66 270 -66q130 0 176 82t31 266z" />
    <glyph glyph-name="uni06F3" unicode="&#x6f3;" horiz-adv-x="1105" 
d="M920 1327l135 10q19 -220 -48 -334t-210 -114q-114 0 -236 51q-63 -51 -160 -51q-93 0 -178 33v-922h-135v1337h135v-299q79 -28 152 -28q94 0 130 76t19 241l135 10q15 -193 -30 -301q74 -26 141 -26q94 0 130.5 76t19.5 241z" />
    <glyph glyph-name="uni06F4" unicode="&#x6f4;" horiz-adv-x="1105" 
d="M1026 973l16 -121q-182 -37 -380 -37q-219 0 -414 66v-881h-135v1337h135v-329q125 -44 284 -60q-30 74 -30 154q0 250 272 250q96 0 182 -25l-30 -123q-74 23 -142 23q-159 0 -159 -154q0 -66 28 -133h13q195 0 360 33z" />
    <glyph glyph-name="uni06F5" unicode="&#x6f5;" horiz-adv-x="1105" 
d="M395 -12q-140 0 -217.5 131.5t-77.5 398.5q0 383 146 604q144 217 313 217q176 0 311 -209q136 -213 136 -612q0 -251 -74.5 -390.5t-196.5 -139.5q-95 0 -178 80q-80 -80 -162 -80zM414 117q34 0 86 30q51 29 55 33q6 -2 32 -19t57.5 -30.5t60.5 -13.5q71 0 116 108.5
t45 296.5q0 313 -92 502q-94 186 -215 186q-118 0 -219 -192q-100 -190 -100 -494q0 -197 48.5 -302t125.5 -105z" />
    <glyph glyph-name="uni06F6" unicode="&#x6f6;" horiz-adv-x="1105" 
d="M750 739l129 152l106 -90l-717 -842l-106 90l485 569q-198 23 -310 116t-112 235q0 174 147.5 273t422.5 99q33 0 53 -2v-125q-235 12 -359 -54t-124 -193q0 -100 100 -158.5t285 -69.5z" />
    <glyph glyph-name="uni06F7" unicode="&#x6f7;" horiz-adv-x="1105" 
d="M553 197l379 1153l143 -43l-446 -1307h-150l-450 1311l143 39z" />
    <glyph glyph-name="uni06F8" unicode="&#x6f8;" horiz-adv-x="1105" 
d="M625 1333l450 -1308l-143 -41l-381 1153l-379 -1153l-143 43l446 1306h150z" />
    <glyph glyph-name="uni06F9" unicode="&#x6f9;" horiz-adv-x="1105" 
d="M571 1337h320v-1337h-135v573q-292 -25 -456.5 67.5t-164.5 293.5q0 186 117.5 294.5t318.5 108.5zM274 934q0 -142 138 -201q136 -59 344 -35v512h-154q-156 0 -242 -71.5t-86 -204.5z" />
    <glyph glyph-name="uni1E9E" unicode="&#x1e9e;" horiz-adv-x="1339" 
d="M1104 1468v-131q-181 0 -284 -69t-103 -195q0 -103 80 -172q37 -34 71 -57q35 -23 95 -62q153 -94 223.5 -195t70.5 -235q0 -170 -114 -278q-114 -111 -291 -111q-266 0 -401 191l127 92q86 -148 276 -148q111 0 175 67.5t69 184.5q1 68 -22 119.5t-70 94t-132 93.5
q-114 69 -179.5 126.5t-101.5 127.5t-36 158q0 131 80 205q23 22 44.5 38t33 22.5t43.5 23.5h-39q-212 0 -303.5 -72.5t-91.5 -247.5v-1038h-148v1038q0 238 124.5 343.5t401.5 105.5q165 0 402 -19z" />
    <glyph glyph-name="uni2002" unicode="&#x2002;" horiz-adv-x="1171" 
 />
    <glyph glyph-name="uni2003" unicode="&#x2003;" horiz-adv-x="2340" 
 />
    <glyph glyph-name="thinspace" unicode="&#x2009;" horiz-adv-x="233" 
 />
    <glyph glyph-name="uni200A" unicode="&#x200a;" horiz-adv-x="47" 
 />
    <glyph glyph-name="uni200C" unicode="&#x200c;" 
d="M-160 1962l-123 -123l-36 41l120 121l-120 121l36 41l123 -125l121 123l37 -39l-119 -121l119 -121l-37 -39z" />
    <glyph glyph-name="uni200D" unicode="&#x200d;" 
d="M-178 1868h-53v162h464v-162h-53v108h-358v-108z" />
    <glyph glyph-name="uni200E" unicode="&#x200e;" 
d="M223 2001l-162 -162l-38 41l96 96h-295v54h295l-96 92l38 41z" />
    <glyph glyph-name="uni200F" unicode="&#x200f;" 
d="M-23 1880l-38 -39l-162 160l162 162l38 -37l-96 -96h297v-54h-295z" />
    <glyph glyph-name="uni2011" unicode="&#x2011;" horiz-adv-x="681" 
d="M78 559h526v-135h-526v135z" />
    <glyph glyph-name="endash" unicode="&#x2013;" horiz-adv-x="1024" 
d="M0 559h1024v-135h-1024v135z" />
    <glyph glyph-name="emdash" unicode="&#x2014;" horiz-adv-x="2048" 
d="M0 559h2048v-135h-2048v135z" />
    <glyph glyph-name="quoteleft" unicode="&#x2018;" horiz-adv-x="532" 
d="M281 1450h137l-137 -481h-166z" />
    <glyph glyph-name="quoteright" unicode="&#x2019;" horiz-adv-x="532" 
d="M252 1450h166l-166 -481h-137z" />
    <glyph glyph-name="quotesinglbase" unicode="&#x201a;" horiz-adv-x="532" 
d="M252 195h166l-166 -482h-137z" />
    <glyph glyph-name="quotedblleft" unicode="&#x201c;" horiz-adv-x="1062" 
d="M360 1450h138l-138 -481h-165zM731 1450h137l-137 -481h-166z" />
    <glyph glyph-name="quotedblright" unicode="&#x201d;" horiz-adv-x="1062" 
d="M332 1450h166l-166 -481h-137zM702 1450h166l-166 -481h-137z" />
    <glyph glyph-name="quotedblbase" unicode="&#x201e;" horiz-adv-x="1062" 
d="M332 195h166l-166 -482h-137zM702 195h166l-166 -482h-137z" />
    <glyph glyph-name="dagger" unicode="&#x2020;" horiz-adv-x="1138" 
d="M502 1450h135v-418h418v-123h-418v-1167h-135v1167h-418v123h418v418z" />
    <glyph glyph-name="daggerdbl" unicode="&#x2021;" horiz-adv-x="1138" 
d="M502 1450h135v-393h399v-123h-399v-676h399v-123h-399v-393h-135v393h-400v123h400v676h-400v123h400v393z" />
    <glyph glyph-name="bullet" unicode="&#x2022;" horiz-adv-x="1024" 
d="M256 981q106 106 256 106t256 -106t106 -256t-106 -256q-107 -107 -256 -107t-256 107q-106 106 -106 256t106 256z" />
    <glyph glyph-name="ellipsis" unicode="&#x2026;" horiz-adv-x="2048" 
d="M264 176q31 32 78.5 32t79.5 -32q31 -32 31 -78t-31 -78q-32 -32 -79.5 -32t-78.5 32q-32 32 -32 78t32 78zM946 176q31 32 78.5 32t79.5 -32q31 -32 31 -78t-31 -78q-32 -32 -79.5 -32t-78.5 32q-32 32 -32 78t32 78zM1628 176q31 32 78.5 32t79.5 -32q31 -32 31 -78
t-31 -78q-32 -32 -79.5 -32t-78.5 32q-32 32 -32 78t32 78z" />
    <glyph glyph-name="uni202A" unicode="&#x202a;" 
d="M223 2001l-162 -162l-38 41l96 96h-117v54h117l-96 92l38 41zM-66 1976h-133v54h133v-54z" />
    <glyph glyph-name="uni202B" unicode="&#x202b;" 
d="M-23 1880l-38 -39l-162 160l162 162l38 -37l-96 -96h117v-54h-115zM199 1976h-133v54h133v-54z" />
    <glyph glyph-name="uni202C" unicode="&#x202c;" 
d="M27 1837h-56v238l-92 -95l-39 39l160 160l160 -160l-39 -39l-94 95v-238z" />
    <glyph glyph-name="uni202D" unicode="&#x202d;" 
d="M113 2001l-162 -162l-37 41l96 96h-252v54h250l-94 92l37 41zM264 2001l-162 -162l-36 41l124 121l-124 121l36 41z" />
    <glyph glyph-name="uni202E" unicode="&#x202e;" 
d="M-66 1935l-36 -39l-162 162l162 162l36 -39l-122 -123zM88 1935l-39 -39l-160 162l160 162l39 -39l-96 -98h252v-51h-252z" />
    <glyph glyph-name="perthousand" unicode="&#x2030;" horiz-adv-x="2048" 
d="M150 -8l923 1521l105 -55l-922 -1521zM143 1382q93 93 222 93t221 -95t92 -221q0 -129 -92 -221q-94 -94 -221 -94q-128 0 -220 92q-94 91 -94 223q0 128 92 223zM221 1305q-47 -42 -56 -105.5t14 -118t74 -93t112 -34.5q84 0 143 60t59 145q0 83 -59 144t-143 61
q-85 0 -144 -59zM748 514q92 92 219 92q126 0 221 -92q92 -95 92 -223q0 -129 -92 -221q-92 -95 -221 -95q-130 0 -222 95q-92 92 -92 221q0 128 95 223zM1464 514q92 92 219 92t222 -92q92 -95 92 -223q0 -124 -92 -219q-94 -97 -222 -97q-125 0 -219 97q-94 94 -94 219
q0 129 94 223zM764 291q0 -82 60.5 -143.5t142.5 -61.5q84 0 143 61t59 144q0 85 -59 145t-143 60q-82 0 -142.5 -60.5t-60.5 -144.5zM1481 291q0 -83 59 -144t143 -61q82 0 142.5 61.5t60.5 143.5q0 85 -60 145t-145 60q-76 0 -139 -60q-61 -61 -61 -145z" />
    <glyph glyph-name="guilsinglleft" unicode="&#x2039;" horiz-adv-x="645" 
d="M121 492l287 428l96 -68l-236 -360l236 -361l-96 -68z" />
    <glyph glyph-name="guilsinglright" unicode="&#x203a;" horiz-adv-x="645" 
d="M141 852l97 68l286 -428l-286 -429l-97 68l236 361z" />
    <glyph glyph-name="fraction" unicode="&#x2044;" horiz-adv-x="344" 
d="M-342 0l924 1516l104 -64l-922 -1518z" />
    <glyph glyph-name="Euro" unicode="&#x20ac;" horiz-adv-x="1138" 
d="M745 1475q176 0 316 -82l-43 -127q-112 80 -275 80q-307 0 -381 -373h580l-35 -115h-563q0 -28 -2 -67q-4 -78 -4 -89q0 -5 0.5 -19t1.5 -40.5t2 -52.5h492l-37 -113h-443q62 -379 348 -379q165 0 256 131l97 -69q-55 -86 -154.5 -135.5t-216.5 -49.5q-201 0 -323.5 128
t-159.5 374h-154l41 113h100q-1 25 -2 57.5t-1.5 50t-0.5 27.5q0 77 6 133h-141l41 115h117q49 244 188 373t350 129z" />
    <glyph glyph-name="uni20B9" unicode="&#x20b9;" horiz-adv-x="1138" 
d="M199 1450h866v-111h-336q102 -76 117 -209h219v-110h-219q-24 -158 -139.5 -244t-321.5 -86l471 -690h-174l-483 713v92h102q356 0 397 215h-499v110h499q-30 205 -340 205h-159v115z" />
    <glyph glyph-name="uni20BA" unicode="&#x20ba;" horiz-adv-x="1138" 
d="M379 1450v-285l414 185v-117l-410 -182v-213l410 184v-117l-410 -184v-598q50 -4 66 -4q225 0 347 164t122 479h147q0 -377 -163 -577.5t-460 -200.5q-153 0 -206 16v659l-197 -81v116l197 82v213l-197 -82v117l197 82v344h143z" />
    <glyph glyph-name="uni2113" unicode="&#x2113;" horiz-adv-x="1024" 
d="M588 1477q101 0 163 -71.5t62 -191.5q0 -290 -350 -651v-313q0 -79 42 -125.5t111 -46.5q91 0 183 80l51 -74q-122 -113 -266 -113q-121 0 -190.5 68.5t-69.5 185.5v242l-121 -129l-56 78l177 172v538q0 143 69 246q67 105 195 105zM463 1149v-463q233 263 233 518
q0 78 -29.5 126t-78.5 48q-56 0 -90.5 -63.5t-34.5 -165.5z" />
    <glyph glyph-name="trademark" unicode="&#x2122;" horiz-adv-x="2048" 
d="M147 1450h674v-111h-272v-733h-123v733h-279v111zM997 1450h191l264 -647l264 647h185v-844h-123v709h-4l-285 -709h-80l-285 709h-4v-709h-123v844z" />
    <glyph glyph-name="uni2126" unicode="&#x2126;" horiz-adv-x="1523" 
d="M752 1477q264 0 458 -179q193 -181 193 -444q0 -205 -107 -360q-109 -157 -297 -207v-168h404v-119h-514v371q178 32 277.5 159t99.5 320q0 214 -150 358t-366 144q-215 0 -365 -144q-152 -146 -152 -358q0 -192 100 -320t277 -159v-371h-514v119h404v168
q-186 49 -295 209q-109 157 -109 356q0 263 195 446q194 179 461 179z" />
    <glyph glyph-name="estimated" unicode="&#x212e;" horiz-adv-x="1998" 
d="M1843 698h-1366q-12 0 -12 -12v-389q0 -42 16 -61q177 -222 514 -222q161 0 292 60t259 182h148q-126 -153 -283 -225q-155 -70 -410 -70q-386 0 -618 215q-229 213 -229 526q0 148 59 288.5t166 250.5q106 111 268.5 175.5t349.5 64.5q135 0 251 -24.5t201 -67.5
t153 -103t112.5 -128.5t74 -147t42 -155.5t12.5 -157zM1534 754v397q0 29 -25 57q-91 112 -230 165.5t-290 53.5q-295 0 -504 -215q-20 -23 -20 -59v-399q0 -13 12 -13h1045q12 0 12 13z" />
    <glyph glyph-name="partialdiff" unicode="&#x2202;" horiz-adv-x="1015" 
d="M430 1477q132 0 234 -63.5t159 -174.5q109 -214 109 -498q0 -368 -119.5 -567t-341.5 -199q-183 0 -295 136q-113 134 -113 323q0 184 109 311q107 125 289 125q202 0 340 -172q0 5 1 49t1 62q0 235 -96 397q-96 158 -271 158q-107 0 -229 -94l-74 88q122 119 297 119z
M193 430q0 -142 75 -242q76 -104 205 -104q135 0 218 126t100 359q-138 187 -320 187q-123 0 -200.5 -91.5t-77.5 -234.5z" />
    <glyph glyph-name="uni2206" unicode="&#x2206;" horiz-adv-x="1372" 
d="M606 1458h152l588 -1458h-1315zM680 1321l-463 -1194h932z" />
    <glyph glyph-name="product" unicode="&#x220f;" horiz-adv-x="1456" 
d="M145 1610h1168v-2048h-135v1921h-897v-1921h-136v2048z" />
    <glyph glyph-name="summation" unicode="&#x2211;" horiz-adv-x="1236" 
d="M80 1610h1079v-127h-905l633 -891l-672 -905h969v-125h-1133v112l674 918l-645 903v115z" />
    <glyph glyph-name="minus" unicode="&#x2212;" horiz-adv-x="1363" 
d="M160 682h1044v-123h-1044v123z" />
    <glyph glyph-name="uni2215" unicode="&#x2215;" horiz-adv-x="344" 
d="M-342 0l924 1516l104 -64l-922 -1518z" />
    <glyph glyph-name="uni2219" unicode="&#x2219;" horiz-adv-x="569" 
d="M207 721q31 32 78.5 32t79.5 -32q31 -32 31 -78t-31 -78q-32 -32 -79.5 -32t-78.5 32q-32 32 -32 78t32 78z" />
    <glyph glyph-name="radical" unicode="&#x221a;" horiz-adv-x="1009" 
d="M899 1610h129l-430 -2048h-135l-336 696l-94 -45l-49 102l204 99l324 -676z" />
    <glyph glyph-name="infinity" unicode="&#x221e;" horiz-adv-x="1517" 
d="M1352 731q82 -82 82 -215q0 -131 -80 -217q-83 -86 -207 -86q-90 0 -180 51t-207 168q-13 -9 -58 -49q-12 -10 -26.5 -22.5t-22.5 -19.5t-12 -11q-22 -18 -59 -43q-54 -39 -98.5 -54t-112.5 -20q-125 0 -206 84t-81 213q0 131 78.5 217t204.5 86q99 0 182 -53
q79 -53 211 -176q146 140 198 174q86 57 185 57q125 0 209 -84zM838 508q191 -176 315 -176q75 0 119.5 49t44.5 129q0 86 -46 137t-124 51q-74 0 -146 -53q-31 -17 -75 -61q-6 -5 -42 -36t-46 -40zM373 332q119 0 309 178q-204 186 -317 186q-72 0 -118 -52t-46 -132
q0 -82 47 -131t125 -49z" />
    <glyph glyph-name="integral" unicode="&#x222b;" horiz-adv-x="1112" 
d="M686 1610q64 0 104.5 -28t40.5 -75q0 -69 -75 -69q-22 0 -40 13t-27.5 28t-20 28t-19.5 13q-74 0 -74 -258q0 -12 2.5 -63.5t2.5 -65.5v-1084q0 -213 -43 -338q-54 -147 -205 -147q-56 0 -90.5 26t-34.5 70q0 29 19 47.5t48 18.5q21 0 38.5 -12t26 -27t19 -27t19.5 -12
q65 0 65 286q0 13 1 51.5t1 55.5v1003v70q-2 39 -2 94q0 402 244 402z" />
    <glyph glyph-name="approxequal" unicode="&#x2248;" horiz-adv-x="1363" 
d="M1133 823h88q-17 -133 -83 -206.5t-169 -73.5q-95 0 -291 75q-204 74 -279 74q-60 0 -104 -44.5t-57 -119.5h-93q17 135 84 210t170 75q94 0 295 -74q193 -75 277 -75q127 0 162 159zM1130 475h91q-17 -132 -84 -207t-170 -75q-92 0 -291 75q-207 74 -277 74
q-60 0 -104 -44.5t-57 -119.5h-93q47 287 252 287q104 0 299 -74q192 -76 275 -76q121 0 159 160z" />
    <glyph glyph-name="notequal" unicode="&#x2260;" horiz-adv-x="1363" 
d="M903 1059l107 -58l-129 -243h315v-123h-381l-141 -266h522v-123h-588l-155 -295l-107 55l127 240h-305v123h371l139 266h-510v123h577z" />
    <glyph glyph-name="lessequal" unicode="&#x2264;" horiz-adv-x="1363" 
d="M1196 1126v-133l-858 -321l858 -318v-133l-1028 385v133zM168 133h1028v-121h-1028v121z" />
    <glyph glyph-name="greaterequal" unicode="&#x2265;" horiz-adv-x="1363" 
d="M168 993v133l1028 -387v-133l-1028 -385v133l860 318zM168 133h1028v-121h-1028v121z" />
    <glyph glyph-name="lozenge" unicode="&#x25ca;" horiz-adv-x="1214" 
d="M541 1530h129l350 -801l-350 -801h-129l-346 799zM606 1395l-278 -666l278 -666l281 666z" />
    <glyph glyph-name="uni25CC" unicode="&#x25cc;" horiz-adv-x="942" 
d="M526 758q0 -58 -55 -58t-55 58q0 55 55 55t55 -55zM293 655q-53 0 -53 60q0 53 53 53q59 0 59 -53q0 -60 -59 -60zM647 655q-59 0 -59 60q0 53 59 53q53 0 53 -53q0 -60 -53 -60zM164 526q-53 0 -53 58q0 55 53 55q57 0 57 -55q0 -58 -57 -58zM831 584q0 -58 -55 -58
t-55 58q0 55 55 55t55 -55zM119 352q-53 0 -53 56q0 55 53 55q57 0 57 -55q0 -56 -57 -56zM877 408q0 -56 -56 -56q-55 0 -55 56q0 55 55 55q56 0 56 -55zM164 176q-53 0 -53 55q0 56 53 56q57 0 57 -56q0 -55 -57 -55zM831 231q0 -55 -55 -55t-55 55q0 56 55 56t55 -56z
M293 47q-53 0 -53 55q0 56 53 56q59 0 59 -56q0 -55 -59 -55zM647 47q-59 0 -59 55q0 56 59 56q53 0 53 -56q0 -55 -53 -55zM526 57q0 -55 -55 -55t-55 55q0 58 55 58t55 -58z" />
    <glyph glyph-name="uni274A" unicode="&#x274a;" horiz-adv-x="1298" 
d="M649 416l-188 -402l-107 52l201 395l-422 -99l-22 109l424 86l-351 272l78 95l336 -287l-8 442h121l-11 -442l342 281l72 -93l-350 -270l424 -90l-27 -109l-420 105l193 -398l-103 -51z" />
    <glyph glyph-name="fi" unicode="&#xfb01;" horiz-adv-x="1099" 
d="M553 1573q62 0 117 -14l-25 -123q-52 14 -104 14q-91 0 -132.5 -55.5t-41.5 -182.5v-254h227v-122h-227v-836h-136v836h-202v122h202v273q0 166 82 254t240 88zM786 1397q32 26 69 26.5t67 -27.5t30 -69q0 -42 -30 -70t-67 -27t-69 27q-31 29 -31 70t31 70zM786 958h136
v-958h-136v958z" />
    <glyph glyph-name="fl" unicode="&#xfb02;" horiz-adv-x="1099" 
d="M553 1573q62 0 117 -14l-25 -123q-52 14 -104 14q-91 0 -132.5 -55.5t-41.5 -182.5v-254h227v-122h-227v-836h-136v836h-202v122h202v273q0 166 82 254t240 88zM786 1556h136v-1548h-136v1548z" />
    <glyph glyph-name="uniFBB2" unicode="&#xfbb2;" 
d="M2 1122q-41 0 -66.5 24.5t-25.5 65.5q0 39 25.5 65t66.5 26q38 0 63 -26t25 -65q0 -41 -24.5 -65.5t-63.5 -24.5z" />
    <glyph glyph-name="uniFBB3" unicode="&#xfbb3;" 
d="M2 -362q-41 0 -66.5 25.5t-25.5 64.5q0 41 25.5 65.5t66.5 24.5q39 0 63.5 -24.5t24.5 -65.5q0 -38 -25 -64t-63 -26z" />
    <glyph glyph-name="uniFBB4" unicode="&#xfbb4;" 
d="M-74 1149q-25 -26 -64 -26t-65 26q-25 25 -25 64t25 65q26 25 65 25t64 -25q25 -26 25 -65t-25 -64zM203 1149q-25 -26 -63.5 -26t-63.5 26q-26 25 -26 64t26 65q25 25 63.5 25t63.5 -25q25 -26 25 -65t-25 -64z" />
    <glyph glyph-name="uniFBB5" unicode="&#xfbb5;" 
d="M-74 -338q-25 -25 -64 -25t-65 25q-25 26 -25 65t25 64q26 26 65 26t64 -26q25 -25 25 -64t-25 -65zM203 -338q-25 -25 -63.5 -25t-63.5 25q-26 26 -26 65t26 64q25 26 63.5 26t63.5 -26q25 -25 25 -64t-25 -65z" />
    <glyph glyph-name="uniFBB6" unicode="&#xfbb6;" 
d="M70 1366q-30 -26 -64.5 -26t-62 26t-27.5 64q0 37 26 63.5t64 26.5q37 0 62.5 -26.5t25.5 -63.5q0 -40 -24 -64zM-74 1153q-25 -26 -64 -26t-65 26q-25 25 -25 64t25 65q26 25 65 25t64 -25q25 -26 25 -65t-25 -64zM203 1153q-25 -26 -63.5 -26t-63.5 26q-26 25 -26 64
t26 65q25 25 63.5 25t63.5 -25q25 -26 25 -65t-25 -64z" />
    <glyph glyph-name="uniFBB9" unicode="&#xfbb9;" 
d="M-74 -340q-25 -25 -64 -24.5t-65 26.5q-25 26 -25 65t25 64q32 25 66 25.5t61 -25t27 -63.5q0 -40 -25 -68zM203 -340q-25 -25 -63.5 -24.5t-63.5 26.5q-26 26 -26 65t26 64q31 25 64.5 25.5t60 -25t26.5 -63.5q0 -41 -24 -68zM68 -549q-41 -41 -97.5 -17t-56.5 81
q-4 56 43 80t93.5 0.5t41.5 -80.5q0 -37 -24 -64z" />
    <glyph glyph-name="uniFD3E" unicode="&#xfd3e;" horiz-adv-x="1048" 
d="M950 -199q-39 0 -143 93t-205 233q-106 139 -133 248l-139 -23q-20 -5 -28 11.5t5 35.5l117 162q16 16 16 35q0 16 -24 16q-15 0 -29 -14l-147 -131q-16 -16 -29 -16q-29 0 -29 38v115q-121 59 -121 101q0 39 121 98v112q0 41 29 41q5 0 29 -18l147 -131q20 -14 29 -14
q24 0 24 18q0 19 -16 35l-117 162q-12 19 -4.5 34t27.5 13l139 -23q27 107 133 250q103 140 205 231q104 93 143 93q38 0 4 -37q-151 -183 -225.5 -307t-85.5 -234l98 12q29 4 38 -7.5t-9 -28.5l-129 -152q-23 -30 -23 -35q0 -14 21 -14q17 0 29 6l151 111q15 11 26.5 14.5
t18 -1.5t6.5 -18v-112q123 -47 123 -98q0 -55 -123 -101v-115q0 -20 -14 -21t-37 17l-151 113q-12 6 -29 6q-21 0 -21 -16q0 -1 2.5 -5t8.5 -13.5t12 -18.5l129 -148q18 -17 9 -28.5t-38 -7.5l-98 12q27 -254 311 -541q11 -9 14 -17.5t-2 -14t-16 -5.5zM373 1006l96 -140v56
h45l41 65v-65h37v-54l129 131l-137 -26q9 79 67 215v86q-49 -49 -91 -134t-62 -165zM229 641v-109l148 115h-90v35q-41 9 -58 23q19 11 58 20v33h90l-148 116v-108q-116 -40 -116 -61q0 -24 116 -64zM684 643l143 -108v106q50 11 83.5 29t33.5 35q0 13 -35 32t-82 29v106
l-143 -108h82v-37q33 -4 63 -22q-32 -22 -63 -25v-37h-82zM530 604q43 0 71 29t28 72q0 41 -28.5 69.5t-70.5 28.5q-38 0 -67 -30.5t-29 -67.5q0 -39 29 -70t67 -31zM651 131v88q-58 130 -67 213l137 -26l-129 133v-58h-37v-63l-41 63h-45v58l-96 -138l125 29
q50 -193 153 -299z" />
    <glyph glyph-name="uniFD3F" unicode="&#xfd3f;" horiz-adv-x="1048" 
d="M104 -199q-16 0 -18 11.5t14 25.5q285 288 312 541l-99 -12q-29 -4 -37.5 7.5t9.5 28.5l129 148q22 36 22 37q0 16 -20 16q-17 0 -29 -6l-151 -113q-16 -12 -27.5 -15.5t-18 1.5t-6.5 18v115q-123 46 -123 101q0 51 123 98v112q0 13 6.5 18t18.5 1.5t27 -14.5l151 -111
q12 -6 29 -6q20 0 20 14q0 7 -22 35l-129 152q-18 17 -9.5 28.5t37.5 7.5l99 -12q-11 109 -85.5 233.5t-226.5 307.5q-34 37 4 37q40 0 144 -93q98 -88 207 -231q105 -145 131 -250l139 23q20 2 27.5 -13t-4.5 -34l-117 -162q-17 -17 -17 -35t25 -18q9 0 29 14l147 131
q24 18 29 18q28 0 28 -41v-112q121 -59 121 -98q0 -42 -121 -101v-115q0 -38 -28 -38q-13 0 -29 16l-147 131q-14 14 -29 14q-25 0 -25 -16q0 -18 17 -35l117 -162q13 -19 5 -35.5t-28 -11.5l-139 23q-27 -107 -131 -248q-106 -143 -207 -233q-104 -93 -144 -93zM586 922
v-56l96 140l-125 -31q-20 79 -62.5 164.5t-91.5 134.5v-86q59 -139 68 -215l-137 26l129 -131v54h37v65l41 -65h45zM678 647l147 -115v109q117 41 117 64q0 20 -117 61v108l-147 -116h90v-33q38 -8 57 -20q-18 -14 -57 -23v-35h-90zM227 641v-106l144 108h-82v37
q-32 3 -64 25q30 18 64 22v37h82l-144 108v-106q-47 -10 -81.5 -29t-34.5 -32q0 -17 33 -35t83 -29zM524 604q38 0 67.5 31t29.5 70q0 37 -30 67.5t-67 30.5q-42 0 -70 -28t-28 -70q0 -43 28 -72t70 -29zM403 219v-88q104 107 154 299l125 -29l-96 138v-58h-45l-41 -63v63
h-37v58l-129 -133l137 26q-9 -80 -68 -213z" />
    <glyph glyph-name="uniFEFF" unicode="&#xfeff;" 
 />
    <glyph glyph-name="null" 
 />
    <glyph glyph-name="uniFBE9.wide" horiz-adv-x="665" 
d="M666 129q41 0 41 -66q0 -63 -41 -63q-244 0 -328 152q-90 -152 -328 -152h-10v129h12q129 0 186.5 66t57.5 215v415h135v-436v-10q0 -250 275 -250z" />
    <glyph glyph-name="uniFBE8.wide" horiz-adv-x="573" 
d="M10 0h-10v129h12q129 0 186.5 66t57.5 215v415h135v-436q0 -389 -381 -389z" />
    <glyph glyph-name="uniFBAF.wide" horiz-adv-x="1572" 
d="M709 -532q-332 0 -487.5 81t-155.5 258q0 154 115.5 238t326.5 84h1065q41 0 41 -66q0 -63 -41 -63h-1079q-299 0 -299 -188q0 -113 126 -163t420 -50q323 0 748 73l8 -129q-449 -75 -788 -75z" />
    <glyph glyph-name="uniFBB1.wide" horiz-adv-x="1572" 
d="M455 432h180v-72h-332v72h76q-31 51 -31 105q0 68 48 110.5t124 42.5q38 0 96 -12l-14 -70q-33 10 -70 10q-75 0 -100 -54t23 -132zM508 129h1065q41 0 41 -66q0 -63 -41 -63h-1079q-299 0 -299 -188q0 -113 126 -163t420 -50q323 0 748 73l8 -129q-449 -75 -788 -75
q-332 0 -487.5 81t-155.5 258q0 154 115.5 238t326.5 84z" />
    <glyph glyph-name="uni0660.lf" horiz-adv-x="481" 
d="M379 602l-137 -137l-140 139l140 133z" />
    <glyph glyph-name="uni0661.lf" horiz-adv-x="585" 
d="M360 0h-135v1337h135v-1337z" />
    <glyph glyph-name="uni0662.lf" horiz-adv-x="1067" 
d="M838 1329l135 8q17 -248 -65.5 -364.5t-278.5 -116.5q-130 0 -269 62v-918h-135v1337h135v-290q144 -66 271 -66q130 0 176 82t31 266z" />
    <glyph glyph-name="uni0663.lf" horiz-adv-x="1288" 
d="M1057 1327l135 10q19 -220 -48 -334t-210 -114q-114 0 -236 51q-63 -51 -159 -51q-94 0 -179 33v-922h-135v1337h135v-299q79 -28 152 -28q94 0 130.5 76t19.5 241l135 10q15 -191 -31 -301q74 -26 141 -26q94 0 130.5 76t19.5 241z" />
    <glyph glyph-name="uni0664.lf" horiz-adv-x="1032" 
d="M903 127l6 -123q-144 -16 -254 -16q-501 0 -501 315q0 121 79.5 220t225.5 161q-109 40 -174.5 113.5t-65.5 171.5q0 177 151.5 274.5t422.5 97.5q31 0 49 -2v-125q-228 12 -356 -52.5t-128 -194.5q0 -115 119.5 -171t329.5 -32v-127q-248 -22 -381 -108t-133 -203
q0 -209 383 -209q84 0 227 10z" />
    <glyph glyph-name="uni0665.lf" horiz-adv-x="1212" 
d="M932 113q-117 -129 -326 -129q-208 0 -325 129t-117 432q0 393 131 594q132 200 311 200q182 0 314 -200q129 -202 129 -594q0 -303 -117 -432zM303 549q0 -434 303 -434t303 434q0 299 -90 481q-88 178 -213 178t-213 -178q-90 -182 -90 -481z" />
    <glyph glyph-name="uni0666.lf" horiz-adv-x="1071" 
d="M846 0h-135v1210h-639v127h774v-1337z" />
    <glyph glyph-name="uni0667.lf" horiz-adv-x="1230" 
d="M616 197l379 1153l144 -43l-447 -1307h-149l-451 1311l144 39z" />
    <glyph glyph-name="uni0668.lf" horiz-adv-x="1230" 
d="M688 1333l451 -1308l-144 -41l-381 1153l-378 -1153l-144 43l447 1306h149z" />
    <glyph glyph-name="uni0669.lf" horiz-adv-x="1114" 
d="M569 1337h320v-1337h-135v573q-292 -25 -456.5 67.5t-164.5 293.5q0 186 117.5 294.5t318.5 108.5zM272 934q0 -142 138 -201q136 -59 344 -35v512h-154q-156 0 -242 -71.5t-86 -204.5z" />
    <glyph glyph-name="uni06F0.lf" horiz-adv-x="481" 
d="M379 602l-137 -137l-140 139l140 133z" />
    <glyph glyph-name="uni06F1.lf" horiz-adv-x="585" 
d="M360 0h-135v1337h135v-1337z" />
    <glyph glyph-name="uni06F2.lf" horiz-adv-x="1067" 
d="M838 1329l135 8q17 -248 -65.5 -364.5t-278.5 -116.5q-130 0 -269 62v-918h-135v1337h135v-290q144 -66 271 -66q130 0 176 82t31 266z" />
    <glyph glyph-name="uni06F3.lf" horiz-adv-x="1288" 
d="M1057 1327l135 10q19 -220 -48 -334t-210 -114q-114 0 -236 51q-63 -51 -159 -51q-94 0 -179 33v-922h-135v1337h135v-299q79 -28 152 -28q94 0 130.5 76t19.5 241l135 10q15 -191 -31 -301q74 -26 141 -26q94 0 130.5 76t19.5 241z" />
    <glyph glyph-name="uni06F4.lf" horiz-adv-x="1247" 
d="M1139 973l16 -121q-182 -37 -381 -37q-219 0 -414 66v-881h-135v1337h135v-329q125 -44 285 -60q-31 76 -31 154q0 250 273 250q96 0 182 -25l-31 -123q-74 23 -141 23q-160 0 -160 -154q0 -64 29 -133h12q196 0 361 33z" />
    <glyph glyph-name="uni06F5.lf" horiz-adv-x="1232" 
d="M459 -12q-140 0 -217.5 131.5t-77.5 398.5q0 385 145 604q144 217 314 217q176 0 311 -209q135 -212 135 -612q0 -251 -74.5 -390.5t-195.5 -139.5q-95 0 -178 80q-80 -80 -162 -80zM477 117q34 0 86 30q51 29 55 33q6 -2 32 -19t57.5 -30.5t60.5 -13.5q71 0 116.5 109
t45.5 296q0 315 -94 502q-94 186 -213 186t-220 -192q-100 -190 -100 -494q0 -197 48.5 -302t125.5 -105z" />
    <glyph glyph-name="uni06F6.lf" horiz-adv-x="1026" 
d="M694 739l129 152l107 -90l-717 -842l-107 90l486 569q-198 23 -310 116t-112 235q0 174 147 273t422 99q34 0 54 -2v-125q-235 12 -359.5 -54t-124.5 -193q0 -100 100 -158.5t285 -69.5z" />
    <glyph glyph-name="uni06F7.lf" horiz-adv-x="1230" 
d="M616 197l379 1153l144 -43l-447 -1307h-149l-451 1311l144 39z" />
    <glyph glyph-name="uni06F8.lf" horiz-adv-x="1230" 
d="M688 1333l451 -1308l-144 -41l-381 1153l-378 -1153l-144 43l447 1306h149z" />
    <glyph glyph-name="uni06F9.lf" horiz-adv-x="1114" 
d="M569 1337h320v-1337h-135v573q-292 -25 -456.5 67.5t-164.5 293.5q0 186 117.5 294.5t318.5 108.5zM272 934q0 -142 138 -201q136 -59 344 -35v512h-154q-156 0 -242 -71.5t-86 -204.5z" />
    <glyph glyph-name="uni06F4.urdu" horiz-adv-x="1105" 
d="M821 965h-106q-83 243 -217 243q-63 0 -99.5 -52.5t-36.5 -145.5v-1010h-135v1008q0 164 70 253t190 89q174 0 291 -238q64 88 199 217l90 -92q-137 -125 -246 -272z" />
    <glyph glyph-name="uni06F7.urdu" horiz-adv-x="1105" 
d="M971 0h-754l-84 129l576 1206l133 -59l-553 -1147h682v-129z" />
    <glyph glyph-name="uni06F4.urdu.lf" horiz-adv-x="1024" 
d="M778 965h-106q-83 243 -217 243q-63 0 -99.5 -52.5t-36.5 -145.5v-1010h-135v1008q0 164 70 253t190 89q174 0 291 -238q64 88 199 217l90 -92q-137 -125 -246 -272z" />
    <glyph glyph-name="uni06F7.urdu.lf" horiz-adv-x="980" 
d="M920 0h-754l-84 129l575 1206l134 -59l-553 -1147h682v-129z" />
    <glyph glyph-name="acute.case" horiz-adv-x="491" 
d="M326 1851h186l-270 -295h-121z" />
    <glyph glyph-name="breve.case" horiz-adv-x="491" 
d="M-55 1839h90q13 -75 69.5 -117.5t141.5 -42.5t142 43.5t69 116.5h90q-7 -127 -88 -198.5t-213 -71.5t-213 71.5t-88 198.5z" />
    <glyph glyph-name="caron.case" horiz-adv-x="491" 
d="M-59 1851h135l170 -221l170 221h135l-223 -295h-164z" />
    <glyph glyph-name="circumflex.case" horiz-adv-x="491" 
d="M164 1851h164l223 -295h-135l-170 222l-170 -222h-135z" />
    <glyph glyph-name="dieresis.case" horiz-adv-x="491" 
d="M49 1788q34 0 60 -19t36.5 -46t6 -58.5t-26.5 -54.5q-22 -24 -55 -29.5t-61 6t-47.5 38t-16.5 58.5q0 45 29 75t75 30zM442 1788q34 0 60 -19t36.5 -46t6 -58.5t-26.5 -54.5q-22 -24 -55 -29.5t-61 6t-47.5 38t-16.5 58.5q0 45 29 75t75 30z" />
    <glyph glyph-name="dotaccent.case" horiz-adv-x="491" 
d="M246 1778q46 0 75 -30t29 -75q3 -32 -16.5 -58.5t-47.5 -38t-60.5 -6.5t-53.5 29q-23 23 -28 54.5t5.5 59t36.5 46.5t60 19z" />
    <glyph glyph-name="grave.case" horiz-adv-x="491" 
d="M-20 1851h186l205 -295h-119z" />
    <glyph glyph-name="hungarumlaut.case" horiz-adv-x="491" 
d="M92 1851h187l-273 -295h-121zM502 1851h186l-270 -295h-121z" />
    <glyph glyph-name="macron.case" horiz-adv-x="491" 
d="M-31 1731h553v-111h-553v111z" />
    <glyph glyph-name="ring.case" horiz-adv-x="491" 
d="M109 1847q32 37 77.5 50.5t90 3.5t83.5 -34.5t61.5 -66.5t20.5 -90q0 -82 -57 -138t-139 -56t-139.5 56.5t-57.5 137.5q0 77 60 137zM160 1796q-29 -25 -35 -62.5t8.5 -69.5t45 -54.5t67.5 -20.5q51 0 87 35.5t36 85.5t-36 85.5t-87 35.5q-48 0 -86 -35z" />
    <glyph glyph-name="tilde.case" horiz-adv-x="491" 
d="M489 1800h89q-35 -213 -189 -213q-47 0 -147 47t-140 47q-73 0 -100 -102h-88q35 213 188 213q52 0 152 -47q96 -47 135 -47q73 0 100 102z" />
    <glyph glyph-name="waslaar" 
d="M98 1399q73 0 115.5 -47t42.5 -127q0 -61 -18 -113h-494v72h102v202h72v-92q74 105 180 105zM92 1327q-54 0 -102 -39t-78 -104h270q6 24 6 43q0 47 -26.5 73.5t-69.5 26.5z" />
    <glyph glyph-name="gafsarkashabovear" 
d="M305 1298l-516 -495l-94 92l520 494z" />
    <glyph glyph-name="uni0654.big" 
d="M-18 1229h229v-88h-422v88h100q-41 71 -41 139q0 87 58 139t153 52q59 0 127 -15l-16 -86q-75 10 -92 10q-61 0 -99 -29.5t-38 -86.5q0 -52 41 -123z" />
    <glyph glyph-name="uni0654064F" 
d="M172 1812q0 -120 -61 -190t-156 -70q-61 0 -115 31l29 62q44 -23 86 -23q95 0 135 100q-32 -4 -37 -4q-65 0 -106 31.5t-41 89.5q0 62 41 109t98 47t92 -50.5t35 -132.5zM66 1786q4 0 40 4v20q0 115 -67 115q-31 0 -50.5 -23t-19.5 -55q0 -61 97 -61zM-16 1348
q-29 -25 -29 -70t31 -94h180v-72h-332v72h76q-31 51 -31 104q0 69 48.5 111.5t123.5 42.5q37 0 96 -12l-14 -70q-33 10 -70 10q-48 0 -79 -22z" />
    <glyph glyph-name="uni0654064C" 
d="M23 1552q-35 0 -70 23t-58 51t-47 51t-38 23q-34 0 -86 -70l-46 43q69 96 138 96q47 0 108 -73q65 -74 103 -74q87 0 127 100q-32 -4 -39 -4q-64 0 -105 31.5t-41 89.5q0 62 41 109t96 47q57 0 93.5 -51t36.5 -132q0 -113 -63 -186.5t-150 -73.5zM129 1786q5 0 41 4v20
q0 115 -68 115q-29 0 -49 -23.5t-20 -54.5q0 -61 96 -61zM-16 1348q-29 -25 -29 -70t31 -94h180v-72h-332v72h76q-31 51 -31 104q0 69 48.5 111.5t123.5 42.5q37 0 96 -12l-14 -70q-33 10 -70 10q-48 0 -79 -22z" />
    <glyph glyph-name="uni0654064E" 
d="M-217 1612l459 69l6 -2l-10 -69l-459 -70l-6 2zM-16 1348q-29 -25 -29 -70t31 -94h180v-72h-332v72h76q-31 51 -31 104q0 69 48.5 111.5t123.5 42.5q37 0 96 -12l-14 -70q-33 10 -70 10q-48 0 -79 -22z" />
    <glyph glyph-name="uni0654064B" 
d="M248 1864l-10 -70l-459 -70l-6 2l10 70l459 70zM-227 1542l10 70l459 69l6 -2l-10 -69l-459 -70zM-16 1348q-29 -25 -29 -70t31 -94h180v-72h-332v72h76q-31 51 -31 104q0 69 48.5 111.5t123.5 42.5q37 0 96 -12l-14 -70q-33 10 -70 10q-48 0 -79 -22z" />
    <glyph glyph-name="uni06540652" 
d="M129 1585q-37 -37 -102 -37t-103 35q-35 35 -35 100t39 114.5t99 49.5t100 -49q37 -51 37 -114.5t-35 -98.5zM76 1751q-32 43 -73.5 19t-41.5 -82q0 -70 66 -70q65 0 65 70q0 37 -16 63zM-14 1184h180v-72h-332v72h76q-31 51 -31 104q0 69 48.5 111.5t123.5 42.5
q37 0 96 -12l-14 -70q-33 10 -70 10q-75 0 -100 -54t23 -132z" />
    <glyph glyph-name="uni06550650" 
d="M-14 -440h180v-72h-332v72h78q-31 51 -31 104q0 69 47.5 111.5t122.5 42.5q33 0 96 -13l-12 -69q-38 10 -72 10q-75 0 -100 -54t23 -132zM-217 -705l459 70l6 -2l-10 -68l-459 -69l-6 2z" />
    <glyph glyph-name="uni0655064D" 
d="M-14 -440h180v-72h-332v72h78q-31 51 -31 104q0 69 47.5 111.5t122.5 42.5q33 0 96 -13l-12 -69q-38 10 -72 10q-75 0 -100 -54t23 -132zM248 -637l-10 -68l-459 -69l-6 2l10 67l459 70zM-227 -938l10 68l459 69l6 -2l-10 -67l-459 -70z" />
    <glyph glyph-name="uni06510670" 
d="M27 1804v-338l-64 -20h-10v358h74zM152 1382l51 21q30 -53 30 -117q0 -63 -32.5 -101t-91.5 -38q-60 0 -97 37q-34 -58 -108 -58q-62 0 -99.5 36.5t-37.5 94.5q0 50 22 99l49 -15q-8 -27 -8 -59q0 -78 74 -78q63 0 63 78q0 35 -2 45l51 12q13 -47 13 -79v-5
q32 -32 75 -32q66 0 66 67q0 36 -18 92z" />
    <glyph glyph-name="uni0651064F" 
d="M150 1694q0 -120 -61.5 -190t-156.5 -70q-62 0 -114 30l28 62q44 -23 86 -23q96 0 136 101q-6 -1 -14.5 -2t-13.5 -2t-9 -1q-66 0 -107 31.5t-41 89.5q0 62 41.5 109t98.5 47t92 -50t35 -132zM43 1667q5 0 41 4v21q0 114 -68 114q-31 0 -50 -22.5t-19 -54.5q0 -62 96 -62
zM152 1382l51 21q30 -53 30 -117q0 -63 -32.5 -101t-91.5 -38q-60 0 -97 37q-34 -58 -108 -58q-62 0 -99.5 36.5t-37.5 94.5q0 50 22 99l49 -15q-8 -27 -8 -59q0 -78 74 -78q63 0 63 78q0 35 -2 45l51 12q13 -47 13 -79v-5q32 -32 75 -32q66 0 66 67q0 36 -18 92z" />
    <glyph glyph-name="uni0651064C" 
d="M-344 1434q-35 0 -70 23t-58 50.5t-47 50.5t-38 23q-34 0 -86 -70l-45 43q69 97 137 97q47 0 109 -74q65 -74 102 -74q87 0 127 101q-6 -1 -14.5 -2t-14.5 -2t-10 -1q-64 0 -104.5 31.5t-40.5 89.5q0 62 41 109t96 47q57 0 93 -50.5t36 -131.5q0 -113 -63 -186.5
t-150 -73.5zM-238 1667q5 0 41 4v21q0 114 -67 114q-30 0 -50 -23t-20 -54q0 -62 96 -62zM-193 1382l52 21q30 -53 30 -117q0 -63 -33 -101t-92 -38t-96 37q-34 -58 -108 -58q-62 0 -100 36.5t-38 94.5q0 48 23 99l49 -15q-8 -27 -8 -59q0 -78 74 -78q63 0 63 78q0 35 -2 45
l51 12q13 -47 13 -79v-5q32 -32 75 -32q66 0 66 67q0 33 -19 92z" />
    <glyph glyph-name="uni0651064E" 
d="M219 1563l6 -2l-10 -70l-459 -70l-6 2l10 70zM152 1382l51 21q30 -53 30 -117q0 -63 -32.5 -101t-91.5 -38q-60 0 -97 37q-34 -58 -108 -58q-62 0 -99.5 36.5t-37.5 94.5q0 50 22 99l49 -15q-8 -27 -8 -59q0 -78 74 -78q63 0 63 78q0 35 -2 45l51 12q13 -47 13 -79v-5
q32 -32 75 -32q66 0 66 67q0 36 -18 92z" />
    <glyph glyph-name="uni0651064B.1" 
d="M225 1745l-10 -70l-459 -69l-6 2l10 69l459 70zM219 1563l6 -2l-10 -70l-459 -70l-6 2l10 70zM152 1382l51 21q30 -53 30 -117q0 -63 -32.5 -101t-91.5 -38q-60 0 -97 37q-34 -58 -108 -58q-62 0 -99.5 36.5t-37.5 94.5q0 50 22 99l49 -15q-8 -27 -8 -59q0 -78 74 -78
q63 0 63 78q0 35 -2 45l51 12q13 -47 13 -79v-5q32 -32 75 -32q66 0 66 67q0 36 -18 92z" />
    <glyph glyph-name="uni06510650" 
d="M-84 1311q-62 0 -99.5 36.5t-37.5 94.5q0 49 22 98l49 -14q-8 -27 -8 -60q0 -77 74 -77q64 0 64 77q0 30 -3 45l52 13q12 -44 12 -80v-4q33 -33 76 -33q65 0 65 68q0 37 -18 92l51 20q31 -54 31 -117t-33 -101t-92 -38t-96 37q-34 -57 -109 -57zM-238 1116l11 70l458 69
l7 -2l-11 -69l-458 -70z" />
    <glyph glyph-name="uni0651064D" 
d="M-84 1495q-62 0 -99.5 36.5t-37.5 94.5q0 49 22 98l49 -14q-8 -27 -8 -59q0 -78 74 -78q64 0 64 78q0 30 -3 45l52 12q12 -44 12 -80v-4q33 -33 76 -33q65 0 65 68q0 36 -18 92l51 21q31 -54 31 -117t-33 -101t-92 -38q-60 0 -96 36q-34 -57 -109 -57zM-238 1300l11 70
l458 70l7 -2l-11 -70l-458 -70zM-238 1116l11 70l458 69l7 -2l-11 -69l-458 -70z" />
    </font>
</defs>
</svg>
