<svg width="500" height="370" viewBox="0 0 500 370" fill="none" xmlns="http://www.w3.org/2000/svg">
<g clip-path="url(#clip0_3000_51013)">
<path d="M27.0703 178.224H81.3784" stroke="black" stroke-width="2.16" stroke-linecap="round" stroke-linejoin="round"/>
<path d="M94.4219 178.224H106.01" stroke="black" stroke-width="2.16" stroke-linecap="round" stroke-linejoin="round"/>
<path d="M17.2305 162.925H114.461" stroke="black" stroke-width="2.16" stroke-linecap="round" stroke-linejoin="round"/>
<path d="M9.21884 162.925H1.21875" stroke="black" stroke-width="2.16" stroke-linecap="round" stroke-linejoin="round"/>
<path d="M17.2305 148.394H49.5129" stroke="black" stroke-width="2.16" stroke-linecap="round" stroke-linejoin="round"/>
<path d="M58.1562 148.394H125.948" stroke="black" stroke-width="2.16" stroke-linecap="round" stroke-linejoin="round"/>
<path d="M410.996 299.588H469.129" stroke="black" stroke-width="2.16" stroke-linecap="round" stroke-linejoin="round"/>
<path d="M478.574 299.588H486.98" stroke="black" stroke-width="2.16" stroke-linecap="round" stroke-linejoin="round"/>
<path d="M422.605 284.289H498.781" stroke="black" stroke-width="2.16" stroke-linecap="round" stroke-linejoin="round"/>
<path d="M416.807 284.289H410.996" stroke="black" stroke-width="2.16" stroke-linecap="round" stroke-linejoin="round"/>
<path d="M410.996 269.758H446.02" stroke="black" stroke-width="2.16" stroke-linecap="round" stroke-linejoin="round"/>
<path d="M452.281 269.758H478.572" stroke="black" stroke-width="2.16" stroke-linecap="round" stroke-linejoin="round"/>
<path d="M436.359 174.916V162.451" stroke="black" stroke-width="2.16" stroke-linecap="round" stroke-linejoin="round"/>
<path d="M427.672 178.518L418.859 169.7" stroke="black" stroke-width="2.16" stroke-linecap="round" stroke-linejoin="round"/>
<path d="M424.074 187.212H411.617" stroke="black" stroke-width="2.16" stroke-linecap="round" stroke-linejoin="round"/>
<path d="M427.672 195.917L418.859 204.724" stroke="black" stroke-width="2.16" stroke-linecap="round" stroke-linejoin="round"/>
<path d="M436.359 199.519V211.984" stroke="black" stroke-width="2.16" stroke-linecap="round" stroke-linejoin="round"/>
<path d="M445.059 195.917L453.871 204.724" stroke="black" stroke-width="2.16" stroke-linecap="round" stroke-linejoin="round"/>
<path d="M448.66 187.212H461.117" stroke="black" stroke-width="2.16" stroke-linecap="round" stroke-linejoin="round"/>
<path d="M445.059 178.518L453.871 169.7" stroke="black" stroke-width="2.16" stroke-linecap="round" stroke-linejoin="round"/>
<path d="M45.6992 236.97V227.96" stroke="black" stroke-width="2.16" stroke-linecap="round" stroke-linejoin="round"/>
<path d="M39.4143 239.578L33.0391 233.21" stroke="black" stroke-width="2.16" stroke-linecap="round" stroke-linejoin="round"/>
<path d="M36.809 245.867H27.8047" stroke="black" stroke-width="2.16" stroke-linecap="round" stroke-linejoin="round"/>
<path d="M39.4143 252.156L33.0391 258.524" stroke="black" stroke-width="2.16" stroke-linecap="round" stroke-linejoin="round"/>
<path d="M45.6992 254.764V263.774" stroke="black" stroke-width="2.16" stroke-linecap="round" stroke-linejoin="round"/>
<path d="M51.9844 252.156L58.3483 258.524" stroke="black" stroke-width="2.16" stroke-linecap="round" stroke-linejoin="round"/>
<path d="M54.5781 245.867H63.5825" stroke="black" stroke-width="2.16" stroke-linecap="round" stroke-linejoin="round"/>
<path d="M51.9844 239.578L58.3483 233.21" stroke="black" stroke-width="2.16" stroke-linecap="round" stroke-linejoin="round"/>
<path d="M289.336 50.8874V41.8773" stroke="black" stroke-width="2.16" stroke-linecap="round" stroke-linejoin="round"/>
<path d="M283.051 53.4955L276.688 47.1162" stroke="black" stroke-width="2.16" stroke-linecap="round" stroke-linejoin="round"/>
<path d="M280.442 59.7845H271.438" stroke="black" stroke-width="2.16" stroke-linecap="round" stroke-linejoin="round"/>
<path d="M283.051 66.0734L276.688 72.4414" stroke="black" stroke-width="2.16" stroke-linecap="round" stroke-linejoin="round"/>
<path d="M289.336 68.6703V77.6803" stroke="black" stroke-width="2.16" stroke-linecap="round" stroke-linejoin="round"/>
<path d="M295.621 66.0734L301.985 72.4414" stroke="black" stroke-width="2.16" stroke-linecap="round" stroke-linejoin="round"/>
<path d="M298.215 59.7845H307.219" stroke="black" stroke-width="2.16" stroke-linecap="round" stroke-linejoin="round"/>
<path d="M295.621 53.4955L301.985 47.1162" stroke="black" stroke-width="2.16" stroke-linecap="round" stroke-linejoin="round"/>
<path d="M399.295 301.135H90.3945V349.798H399.295V301.135Z" stroke="black" stroke-width="2.42" stroke-linecap="round" stroke-linejoin="round"/>
<path d="M114.461 126.468V87.4919H317.002V154.114" stroke="black" stroke-width="2.16" stroke-linecap="round" stroke-linejoin="round"/>
<path d="M245.609 59.7845V108.594H379.918V130.803" stroke="black" stroke-width="2.16" stroke-linecap="round" stroke-linejoin="round"/>
<path d="M119.303 131.311C119.303 133.987 117.137 136.144 114.474 136.144C111.811 136.144 109.645 133.976 109.645 131.311C109.645 128.647 111.811 126.479 114.474 126.479C117.137 126.479 119.303 128.647 119.303 131.311Z" stroke="black" stroke-width="2.16" stroke-linecap="round" stroke-linejoin="round"/>
<path d="M245.611 59.7732C248.278 59.7732 250.44 57.6096 250.44 54.9407C250.44 52.2718 248.278 50.1083 245.611 50.1083C242.943 50.1083 240.781 52.2718 240.781 54.9407C240.781 57.6096 242.943 59.7732 245.611 59.7732Z" stroke="black" stroke-width="2.16" stroke-linecap="round" stroke-linejoin="round"/>
<path d="M384.749 136.144C384.749 138.82 382.582 140.976 379.919 140.976C377.256 140.976 375.09 138.808 375.09 136.144C375.09 133.479 377.256 131.311 379.919 131.311C382.582 131.311 384.749 133.479 384.749 136.144Z" stroke="black" stroke-width="2.16" stroke-linecap="round" stroke-linejoin="round"/>
<path d="M321.831 159.749C321.831 162.424 319.664 164.581 317.001 164.581C314.338 164.581 312.172 162.413 312.172 159.749C312.172 157.084 314.338 154.916 317.001 154.916C319.664 154.916 321.831 157.084 321.831 159.749Z" stroke="black" stroke-width="2.16" stroke-linecap="round" stroke-linejoin="round"/>
<path d="M88.6877 110.446L77.2461 121.883" stroke="black" stroke-width="2.16" stroke-linecap="round" stroke-linejoin="round"/>
<path d="M77.2461 110.446L88.6877 121.883" stroke="black" stroke-width="2.16" stroke-linecap="round" stroke-linejoin="round"/>
<path d="M459.583 240.143L448.152 251.592" stroke="black" stroke-width="2.16" stroke-linecap="round" stroke-linejoin="round"/>
<path d="M448.152 240.143L459.583 251.592" stroke="black" stroke-width="2.16" stroke-linecap="round" stroke-linejoin="round"/>
<path d="M149.992 37.9708C149.992 37.9708 218.19 -17.6587 310.852 7.97126C408.184 34.8997 427.671 104.349 427.671 104.349" stroke="black" stroke-width="2.16" stroke-linecap="round" stroke-linejoin="round"/>
<path d="M47.0204 199.688C20.5828 203.786 7.29071 259.935 37.0344 282.223" stroke="black" stroke-width="2.02" stroke-linecap="round" stroke-linejoin="round"/>
<path d="M379.918 361.687C379.918 361.687 425.21 381.503 445.058 353.863" stroke="black" stroke-width="2.16" stroke-linecap="round" stroke-linejoin="round"/>
<path d="M110.868 360.812C110.868 360.812 72.9729 380.121 56.8543 352.262" stroke="black" stroke-width="2.16" stroke-linecap="round" stroke-linejoin="round"/>
<path d="M164.461 136.144V107.522" stroke="black" stroke-width="2.16" stroke-linecap="round" stroke-linejoin="round"/>
<path d="M157.555 136.144V121.884" stroke="black" stroke-width="2.16" stroke-linecap="round" stroke-linejoin="round"/>
<path d="M269.578 142.76V121.838" stroke="black" stroke-width="2.16" stroke-linecap="round" stroke-linejoin="round"/>
<path d="M261.723 140.976V132.305" stroke="black" stroke-width="2.16" stroke-linecap="round" stroke-linejoin="round"/>
<path d="M254.773 140.976V126.468" stroke="black" stroke-width="2.16" stroke-linecap="round" stroke-linejoin="round"/>
<path d="M171.094 136.144V121.838" stroke="black" stroke-width="2.16" stroke-linecap="round" stroke-linejoin="round"/>
<path d="M360.66 140.129V133.728" stroke="black" stroke-width="2.16" stroke-linecap="round" stroke-linejoin="round"/>
<path d="M353.754 140.129V124.537" stroke="black" stroke-width="2.16" stroke-linecap="round" stroke-linejoin="round"/>
<path d="M367.293 140.129V128.985" stroke="black" stroke-width="2.16" stroke-linecap="round" stroke-linejoin="round"/>
<path d="M105.196 271.843V216.426L60.863 271.843H105.196ZM105.196 331V286.667H46.0391V271.843L105.196 198H134.706V271.843H149.53V286.667H134.706V331H105.196Z" fill="#E53012" fill-opacity="0.8"/>
<path d="M208.479 198H238.127C246.209 198 253.136 200.909 258.908 206.728C264.727 212.547 267.636 219.474 267.636 227.509V301.491C267.636 309.48 264.727 316.407 258.908 322.272C253.136 328.091 246.209 331 238.127 331H208.479C200.398 331 193.447 328.114 187.629 322.341C181.856 316.522 178.97 309.572 178.97 301.491V227.509C178.97 219.428 181.856 212.501 187.629 206.728C193.447 200.909 200.398 198 208.479 198ZM208.826 303.777C209.564 307.887 211.135 310.981 213.536 313.059C215.984 315.137 219.239 316.176 223.303 316.176C227.413 316.176 230.9 314.721 233.763 311.812C236.672 308.903 238.127 305.462 238.127 301.491V251.269L208.826 303.777ZM237.85 225.016C235.818 216.888 230.969 212.824 223.303 212.824C219.239 212.824 215.753 214.279 212.843 217.188C209.934 220.051 208.479 223.492 208.479 227.509V277.8L237.85 225.016Z" fill="#E53012" fill-opacity="0.8"/>
<path d="M297.077 198H385.743L385.674 212.824L341.41 242.333H356.234C364.685 242.333 371.704 245.589 377.292 252.101C382.926 258.566 385.743 265.147 385.743 271.843V301.491C385.743 309.572 382.811 316.522 376.946 322.341C371.127 328.114 364.223 331 356.234 331H326.586C309.176 331 299.339 321.164 297.077 301.491H311.901C312.593 311.281 317.488 316.176 326.586 316.176H341.41C345.428 316.176 348.891 314.744 351.801 311.881C354.756 308.972 356.234 305.508 356.234 301.491V271.843C356.234 269.534 354.987 266.509 352.493 262.768C350.046 259.028 346.351 257.157 341.41 257.157H311.901V242.333L356.234 212.824H297.077V198Z" fill="#E53012" fill-opacity="0.8"/>
<path d="M111.954 331V332H112.954H142.464H143.464V331V287.667H157.288H158.288V286.667V271.843V270.843H157.288H143.464V198V197H142.464H112.954H112.474L112.174 197.375L53.0164 271.217L52.7969 271.492V271.843V286.667V287.667H53.7969H111.954V331ZM194.677 323.045L194.682 323.051C200.685 329.007 207.887 332 216.237 332H245.885C254.237 332 261.419 328.981 267.376 322.976C273.374 316.931 276.394 309.754 276.394 301.491V227.509C276.394 219.202 273.375 212.023 267.375 206.022C261.418 200.018 254.237 197 245.885 197H216.237C207.885 197 200.682 200.019 194.679 206.021C188.721 211.979 185.728 219.16 185.728 227.509V301.491C185.728 309.84 188.721 317.042 194.677 323.045ZM240.814 311.105L240.808 311.111C238.134 313.827 234.905 315.176 231.061 315.176C227.171 315.176 224.167 314.185 221.944 312.299C219.83 310.468 218.367 307.722 217.633 303.948L244.885 255.113V301.491C244.885 305.186 243.543 308.375 240.814 311.105ZM221.302 217.901L221.308 217.895C224.033 215.171 227.266 213.824 231.061 213.824C234.711 213.824 237.596 214.787 239.805 216.638C241.95 218.436 243.549 221.15 244.54 224.878L217.237 273.946V227.509C217.237 223.764 218.581 220.579 221.302 217.901ZM304.834 197H303.834V198V212.824V213.824H304.834H360.685L319.104 241.501L318.658 241.798V242.333V257.157V258.157H319.658H349.168C353.814 258.157 357.173 259.891 359.414 263.316L359.419 263.323C361.89 267.03 362.992 269.844 362.992 271.843V301.491C362.992 305.231 361.628 308.44 358.857 311.169C356.131 313.851 352.918 315.176 349.168 315.176H334.344C329.974 315.176 326.763 314.004 324.556 311.798C322.338 309.58 320.992 306.174 320.656 301.42L320.59 300.491H319.658H304.834H303.713L303.841 301.605C304.987 311.573 308.068 319.196 313.202 324.33C318.352 329.48 325.444 332 334.344 332H363.992C372.252 332 379.407 329.004 385.408 323.051L384.704 322.341L385.408 323.051C391.457 317.049 394.501 309.845 394.501 301.491V271.843C394.501 264.845 391.552 258.041 385.807 251.447C380.033 244.72 372.738 241.333 363.992 241.333H352.47L393.986 213.656L394.429 213.361L394.432 212.829L394.501 198.005L394.506 197H393.501H304.834ZM111.954 219.277V270.843H70.7015L111.954 219.277Z" stroke="black" stroke-width="2"/>
<g clip-path="url(#clip1_3000_51013)">
<path fill-rule="evenodd" clip-rule="evenodd" d="M427.142 335.773C426.09 337.579 426.077 339.819 427.107 341.639C428.142 343.473 430.073 344.6 432.16 344.6C440.217 344.6 452.783 344.6 460.84 344.6C462.927 344.6 464.858 343.473 465.893 341.639C466.922 339.819 466.909 337.579 465.857 335.773C461.809 328.806 455.526 317.996 451.519 311.099C450.473 309.299 448.562 308.2 446.5 308.2C444.437 308.2 442.527 309.299 441.48 311.099L427.142 335.773ZM429.576 337.174L443.916 312.501C444.454 311.573 445.437 311 446.5 311C447.563 311 448.545 311.573 449.083 312.501L463.423 337.174C463.977 338.126 463.984 339.306 463.442 340.266C462.908 341.212 461.916 341.8 460.84 341.8H432.16C431.083 341.8 430.092 341.212 429.557 340.266C429.015 339.306 429.023 338.126 429.576 337.174Z" fill="black"/>
<path d="M446.5 339.233C447.536 339.233 448.375 338.398 448.375 337.367C448.375 336.336 447.536 335.5 446.5 335.5C445.464 335.5 444.625 336.336 444.625 337.367C444.625 338.398 445.464 339.233 446.5 339.233Z" fill="black"/>
<path fill-rule="evenodd" clip-rule="evenodd" d="M444.156 320.567L445.094 331.767C445.094 332.539 445.724 333.167 446.5 333.167C447.276 333.167 447.906 332.539 447.906 331.767L448.844 320.567C448.844 319.794 448.375 318.233 446.5 318.233C444.625 318.233 444.156 319.794 444.156 320.567Z" fill="black"/>
</g>
<path d="M117.625 40.0833C117.625 40.5917 117.964 41.0153 118.472 41.0153C118.981 41.0153 119.319 40.6764 119.319 40.1681V40.0833C119.319 39.575 118.981 39.2361 118.472 39.2361C117.964 39.2361 117.625 39.575 117.625 40.0833Z" fill="black"/>
<path d="M161.003 60.3486H158.462V55.6042C158.462 51.1986 154.903 47.5556 150.498 47.5556C146.092 47.5556 142.534 51.1986 142.534 55.6042V60.3486H139.992C139.23 60.3486 138.637 60.9417 138.637 61.7042V76.1069C138.637 77.3778 139.653 78.4792 141.009 78.4792H159.987C161.342 78.4792 162.359 77.3778 162.359 76.1069V61.7042C162.359 61.0264 161.766 60.3486 161.003 60.3486ZM144.228 55.6042C144.228 52.0458 147.024 49.25 150.498 49.25C153.971 49.25 156.767 52.0458 156.767 55.6042V60.3486H144.228V55.6042ZM159.987 76.8694H141.009C140.67 76.8694 140.331 76.5306 140.331 76.1917V62.0431H160.664V76.1069C160.664 76.5306 160.326 76.8694 159.987 76.8694Z" fill="black"/>
<path d="M114.234 40.0833C114.234 40.5917 114.573 41.0153 115.082 41.0153C115.59 41.0153 115.929 40.6764 115.929 40.1681V40.0833C115.929 39.575 115.59 39.2361 115.082 39.2361C114.573 39.2361 114.234 39.575 114.234 40.0833Z" fill="black"/>
<path d="M121.012 40.0833C121.012 40.5917 121.351 41.0153 121.859 41.0153C122.367 41.0153 122.706 40.6764 122.706 40.1681V40.0833C122.706 39.575 122.367 39.2361 121.859 39.2361C121.351 39.2361 121.012 39.575 121.012 40.0833Z" fill="black"/>
<path d="M179.306 38H121.694C120.762 38 120 38.7625 120 39.6944V75.2778C120 76.2097 120.762 76.9722 121.694 76.9722H135.674C136.182 76.9722 136.521 76.6333 136.521 76.125C136.521 75.6167 136.182 75.2778 135.674 75.2778H121.694V39.6944H179.306V75.2778H165.326C164.818 75.2778 164.479 75.6167 164.479 76.125C164.479 76.6333 164.818 76.9722 165.326 76.9722H179.306C180.237 76.9722 181 76.2097 181 75.2778V39.6944C181 38.7625 180.237 38 179.306 38Z" fill="black"/>
<path d="M434.501 112.024C430.592 112.024 426.771 113.183 423.521 115.355C420.271 117.526 417.738 120.613 416.243 124.224C414.747 127.835 414.355 131.809 415.118 135.642C415.881 139.476 417.763 142.997 420.527 145.761C423.29 148.525 426.812 150.407 430.645 151.17C434.479 151.932 438.452 151.541 442.064 150.045C445.675 148.549 448.761 146.016 450.933 142.766C453.104 139.516 454.263 135.696 454.263 131.787C454.263 126.546 452.181 121.519 448.475 117.813C444.769 114.106 439.742 112.024 434.501 112.024ZM434.501 147.138C431.703 147.141 428.957 146.378 426.561 144.933C424.164 143.488 422.209 141.415 420.906 138.939C419.603 136.463 419.002 133.678 419.167 130.884C419.333 128.091 420.26 125.396 421.846 123.091L443.196 144.435C440.639 146.195 437.606 147.136 434.501 147.132V147.138ZM447.142 140.476L425.805 119.139C428.759 117.109 432.331 116.177 435.901 116.505C439.47 116.833 442.812 118.4 445.347 120.935C447.881 123.469 449.449 126.811 449.777 130.381C450.105 133.95 449.173 137.522 447.142 140.476Z" fill="black"/>
<path d="M434.5 106C429.457 106 424.526 107.496 420.333 110.298C416.14 113.099 412.871 117.082 410.941 121.742C409.011 126.401 408.506 131.528 409.49 136.475C410.474 141.421 412.903 145.965 416.469 149.531C420.035 153.097 424.579 155.526 429.525 156.51C434.472 157.494 439.599 156.989 444.258 155.059C448.918 153.129 452.9 149.86 455.702 145.667C458.504 141.474 460 136.543 460 131.5C460 124.737 457.313 118.251 452.531 113.469C447.749 108.687 441.263 106 434.5 106ZM434.5 155.24C429.805 155.24 425.215 153.848 421.31 151.239C417.406 148.631 414.364 144.923 412.567 140.585C410.77 136.247 410.3 131.474 411.216 126.868C412.132 122.263 414.393 118.033 417.713 114.713C421.033 111.393 425.263 109.132 429.868 108.216C434.474 107.3 439.247 107.77 443.585 109.567C447.923 111.363 451.631 114.406 454.24 118.31C456.848 122.215 458.24 126.805 458.24 131.5C458.234 137.794 455.73 143.829 451.28 148.28C446.829 152.73 440.794 155.234 434.5 155.24Z" fill="black"/>
<path d="M37 303V323.75C37 332.448 41.744 338.324 45.723 341.721C49.801 345.203 53.872 346.826 54.328 347.002L55.077 347.285L55.081 347.286L55.834 347C56.285 346.826 60.355 345.204 64.433 341.721C68.413 338.324 73.157 332.448 73.157 323.75V303H37ZM71.748 323.75C71.748 331.913 67.273 337.444 63.519 340.649C59.616 343.982 55.761 345.518 55.328 345.685L55.081 345.779L55.079 345.778L55.077 345.779L54.83 345.685C54.398 345.518 50.542 343.982 46.639 340.649C42.885 337.444 38.41 331.914 38.41 323.75V304.41H71.749L71.748 323.75Z" fill="black"/>
<path d="M54.7319 326.534C54.1609 325.304 52.7089 324.863 51.5719 325.612C50.3049 326.447 49.8529 328.322 50.6129 329.639L51.8339 328.934C51.4259 328.227 51.7189 327.022 52.5089 326.695C53.4059 326.324 53.6789 327.575 53.5369 328.187C52.5799 330.672 50.8109 332.844 51.2709 335.698L52.6629 335.474C52.4019 333.857 53.1159 332.158 53.8069 330.735C54.4689 329.371 55.4649 328.114 54.7319 326.534Z" fill="black"/>
<path d="M54.1109 321.946C51.3939 321.293 48.5339 323.468 47.7339 326.795C47.5659 327.494 47.4749 328.628 47.7239 329.716C48.0339 331.072 48.7759 331.978 49.8699 332.336L50.3079 330.996C48.9099 330.538 48.8339 328.248 49.1039 327.124C49.7219 324.553 51.8199 322.845 53.7809 323.316C55.7419 323.787 56.8339 326.263 56.2159 328.834C56.1299 329.19 55.8879 329.616 55.6069 330.11C54.9629 331.242 54.0819 332.791 53.9639 335.318L55.3719 335.384C55.4739 333.195 56.2269 331.871 56.8329 330.807C57.1669 330.22 57.4549 329.713 57.5869 329.163C58.3869 325.837 56.8269 322.599 54.1109 321.946Z" fill="black"/>
<path d="M59.7884 323.082C57.8314 319.224 53.2294 317.656 49.3964 319.803C45.5114 321.98 43.6404 326.89 44.6414 331.157L46.0134 330.835C44.8604 325.918 48.6884 318.977 54.4764 320.367C60.2064 321.744 60.5234 329.587 57.3184 333.464L58.4044 334.362C60.9524 331.282 61.6124 326.678 59.7884 323.082C60.8444 325.165 58.7124 320.962 59.7884 323.082Z" fill="black"/>
<path d="M55.7085 315.929C52.8645 315.245 49.8875 315.897 47.3245 317.763C44.7965 319.604 42.9715 322.415 42.1875 325.677L43.5575 326.006C44.2635 323.069 45.8955 320.546 48.1535 318.902C50.3765 317.283 52.9425 316.713 55.3775 317.299C60.4485 318.518 63.3965 324.408 61.9485 330.428L63.3185 330.757C64.9505 323.981 61.5355 317.329 55.7085 315.929Z" fill="black"/>
<path d="M63.9618 318.008C62.1048 315.35 59.5458 313.565 56.5618 312.848C54.2168 312.284 51.7388 312.437 49.3948 313.291C47.1388 314.112 45.0448 315.565 43.3398 317.491L44.3948 318.425C47.6178 314.784 52.0438 313.212 56.2318 314.218C61.5508 315.497 65.3038 320.815 65.3578 327.151L66.7668 327.139C66.7388 323.801 65.7428 320.558 63.9618 318.008Z" fill="black"/>
<path d="M57.4105 309.668C54.5845 308.988 51.5965 309.167 48.7695 310.185L49.2465 311.511C51.8135 310.587 54.5225 310.423 57.0805 311.038C61.4145 312.08 64.9975 315.266 66.9125 319.779L68.2105 319.229C66.1195 314.301 62.1825 310.816 57.4105 309.668Z" fill="black"/>
</g>
<defs>
<clipPath id="clip0_3000_51013">
<rect width="500" height="369.783" fill="white"/>
</clipPath>
<clipPath id="clip1_3000_51013">
<rect width="45" height="56" fill="white" transform="translate(424 304)"/>
</clipPath>
</defs>
</svg>
