<svg width="100" height="100" viewBox="0 0 100 100" fill="none" xmlns="http://www.w3.org/2000/svg">
<path fill-rule="evenodd" clip-rule="evenodd" d="M95.8285 50.758C95.4237 75.7209 75.0606 95.8334 50.0013 95.8334C24.6889 95.8334 4.16797 75.3125 4.16797 50.0001C4.16797 24.6876 24.6889 4.16675 50.0013 4.16675C75.3137 4.16675 95.8346 24.6876 95.8346 50.0001L95.8285 50.758ZM89.3128 49.3499C88.9656 27.9363 71.4976 10.6833 50.0013 10.6833C28.2879 10.6833 10.6846 28.2867 10.6846 50.0001C10.6846 71.7135 28.2879 89.3168 50.0013 89.3168C71.7147 89.3168 89.318 71.7135 89.318 50.0001L89.3128 49.3499ZM72.3981 39.7053L67.7902 35.0974L41.8463 61.0412L29.1513 48.3277L24.5401 52.9323L41.843 70.2603L72.3981 39.7053Z" fill="#009696"/>
</svg>
