<svg width="12" height="12" viewBox="0 0 12 12" fill="none" xmlns="http://www.w3.org/2000/svg">
<path fill-rule="evenodd" clip-rule="evenodd" d="M3.39319 0.99984C3.28138 1.00608 3.17674 1.05711 3.10298 1.14139C3.02923 1.22567 2.99255 1.33614 3.00126 1.44779C3.00997 1.55943 3.06334 1.66287 3.14923 1.73473L7.99589 6.00141L3.14923 10.2649C3.06595 10.3382 3.01527 10.4416 3.00823 10.5523C3.00126 10.663 3.03851 10.7719 3.11184 10.8552C3.18517 10.9384 3.28857 10.9891 3.3993 10.9961C3.51002 11.0031 3.61892 10.9659 3.70221 10.8925L8.90668 6.31367C8.99744 6.23462 9.0495 6.12015 9.0495 5.99986C9.0495 5.8795 8.99744 5.7651 8.90668 5.68597L3.70221 1.1071C3.62888 1.04082 3.53435 1.00279 3.43545 0.999812C3.42136 0.999086 3.40728 0.999086 3.39319 0.999812L3.39319 0.99984Z" fill="#747C91"/>
</svg>
