<svg width="100" height="100" viewBox="0 0 100 100" fill="none" xmlns="http://www.w3.org/2000/svg">
<path fill-rule="evenodd" clip-rule="evenodd" d="M50.0013 95.8334C75.0606 95.8334 95.4237 75.7209 95.8285 50.758L95.8346 50.0001C95.8346 24.6876 75.3137 4.16675 50.0013 4.16675C24.6889 4.16675 4.16797 24.6876 4.16797 50.0001C4.16797 75.3125 24.6889 95.8334 50.0013 95.8334ZM50.0013 10.6833C71.4976 10.6833 88.9656 27.9363 89.3128 49.3499L89.318 50.0001C89.318 71.7135 71.7147 89.3168 50.0013 89.3168C28.2879 89.3168 10.6846 71.7135 10.6846 50.0001C10.6846 28.2867 28.2879 10.6833 50.0013 10.6833ZM54.6092 50.0001L67.9559 63.3468L63.348 67.9547L50.0013 54.608L36.6546 67.9547L32.0467 63.3468L45.3934 50.0001L32.0467 36.6534L36.6546 32.0455L50.0013 45.3922L63.348 32.0455L67.9559 36.6534L54.6092 50.0001Z" fill="#E53012"/>
</svg>
