<?xml version="1.0" encoding="UTF-8"?>
<svg xmlns="http://www.w3.org/2000/svg" xmlns:xlink="http://www.w3.org/1999/xlink" width="50px" height="50px" viewBox="0 0 10 10" version="1.1">
<g id="surface1">
<path style=" stroke:none;fill-rule:nonzero;fill:rgb(99.607843%,99.607843%,100%);fill-opacity:1;" d="M 0.046875 6 C 0.046875 4.015625 0.046875 2.03125 0.046875 0.046875 C 3.375 0.046875 6.710938 0.046875 10.046875 0.046875 C 10.046875 0.460938 10.046875 0.875 10.03125 1.304688 C 9.9375 1.203125 9.882812 1.054688 9.773438 0.96875 C 9.539062 0.773438 9.289062 0.609375 9.039062 0.4375 C 8.632812 0.15625 8.375 0.195312 8.085938 0.609375 C 7.007812 2.195312 5.921875 3.78125 4.835938 5.375 C 4.484375 5.890625 4.132812 6.40625 3.773438 6.9375 C 3.710938 6.882812 3.664062 6.835938 3.617188 6.796875 C 2.984375 6.179688 2.359375 5.554688 1.734375 4.945312 C 1.546875 4.757812 1.265625 4.710938 1.09375 4.882812 C 0.726562 5.234375 0.390625 5.625 0.046875 6 Z M 0.046875 6 "/>
<path style=" stroke:none;fill-rule:nonzero;fill:rgb(99.607843%,99.607843%,100%);fill-opacity:1;" d="M 10.046875 1.507812 C 10.046875 4.351562 10.046875 7.195312 10.046875 10.039062 C 6.71875 10.039062 3.390625 10.039062 0.046875 10.039062 C 0.046875 8.765625 0.046875 7.492188 0.0625 6.203125 C 0.148438 6.296875 0.210938 6.414062 0.296875 6.515625 C 0.53125 6.765625 0.765625 7.007812 1.007812 7.242188 C 1.8125 8.039062 2.617188 8.84375 3.4375 9.625 C 3.820312 10 4.335938 9.914062 4.640625 9.476562 C 5.101562 8.804688 5.570312 8.125 6.03125 7.445312 C 7.375 5.46875 8.710938 3.492188 10.046875 1.507812 Z M 10.046875 1.507812 "/>
<path style=" stroke:none;fill-rule:nonzero;fill:rgb(0.784314%,0.784314%,100%);fill-opacity:1;" d="M 10.046875 1.492188 C 8.710938 3.492188 7.375 5.46875 6.03125 7.445312 C 5.570312 8.125 5.101562 8.804688 4.640625 9.476562 C 4.335938 9.914062 3.820312 10 3.4375 9.625 C 2.617188 8.84375 1.8125 8.039062 1.007812 7.242188 C 0.765625 7.007812 0.53125 6.765625 0.296875 6.515625 C 0.210938 6.414062 0.148438 6.296875 0.0625 6.179688 C 0.046875 6.132812 0.046875 6.085938 0.046875 6.015625 C 0.390625 5.625 0.726562 5.234375 1.09375 4.882812 C 1.265625 4.710938 1.546875 4.757812 1.734375 4.945312 C 2.359375 5.554688 2.984375 6.179688 3.617188 6.796875 C 3.664062 6.835938 3.710938 6.882812 3.773438 6.9375 C 4.132812 6.40625 4.484375 5.890625 4.835938 5.375 C 5.921875 3.78125 7.007812 2.195312 8.085938 0.609375 C 8.375 0.195312 8.632812 0.15625 9.039062 0.4375 C 9.289062 0.609375 9.539062 0.773438 9.773438 0.96875 C 9.882812 1.054688 9.9375 1.203125 10.03125 1.328125 C 10.046875 1.382812 10.046875 1.429688 10.046875 1.492188 Z M 10.046875 1.492188 "/>
</g>
</svg>
