<svg width="97" height="27" viewBox="0 0 97 27" fill="none" xmlns="http://www.w3.org/2000/svg">
<path fill-rule="evenodd" clip-rule="evenodd" d="M19.5287 3.09608C20.2753 2.38792 21.2988 2.00214 22.6047 1.94136C22.9766 1.92287 23.0493 1.92287 23.4632 1.95193C25.4906 2.08405 26.7686 2.96924 27.3558 4.64448C27.806 5.93134 27.8592 7.89726 27.4816 9.32675C27.079 10.8594 26.1701 11.8476 24.7663 12.2836C23.3569 12.7195 21.3771 12.5769 20.2557 11.9585C19.0365 11.2874 18.3626 10.1115 18.1584 8.30416C18.0969 7.76778 18.0969 6.71346 18.1584 6.2035C18.3234 4.81094 18.7569 3.83065 19.5287 3.09608ZM25.7143 4.91931C25.3116 3.80687 24.5817 3.25726 23.3486 3.13835C22.9599 3.10136 22.7613 3.10665 22.2971 3.16742C21.3379 3.29161 20.5969 3.8465 20.2082 4.73698C19.8419 5.57987 19.7076 7.00148 19.8642 8.36494C20.0488 9.94771 20.6612 10.8541 21.7798 11.1923C22.1685 11.3112 22.3866 11.3376 22.9403 11.3376C23.4157 11.3403 23.5052 11.3323 23.7848 11.2689C25.3983 10.9148 26.0918 9.57516 26.0219 6.94333C25.9968 6.03703 25.9101 5.46362 25.7143 4.91931Z" fill="#1D1556"/>
<path fill-rule="evenodd" clip-rule="evenodd" d="M33.0011 2.4279C33.5657 2.16107 34.217 2.00256 34.9633 1.95236C35.4078 1.92066 35.5112 1.92066 35.978 1.95236C36.7523 2.00256 37.4091 2.16107 37.9626 2.43054C38.9297 2.89814 39.5782 3.70125 39.9388 4.86895C40.3077 6.07362 40.3413 7.94403 40.0142 9.24907C39.5642 11.0455 38.407 12.1339 36.6292 12.4378C35.3518 12.657 33.8928 12.5011 32.9368 12.0415C31.4945 11.3467 30.751 9.96501 30.6336 7.76699C30.5441 6.0419 30.8572 4.64438 31.5588 3.64049C31.883 3.17553 32.4728 2.68151 33.0011 2.4279ZM38.3595 5.38673C38.024 3.97336 37.2414 3.26799 35.8634 3.13854C35.3938 3.09628 34.941 3.12269 34.5245 3.22044C33.5071 3.46085 32.8697 4.11074 32.5455 5.23348C32.2576 6.24006 32.2408 8.0893 32.5091 9.12229C32.8418 10.3956 33.4847 11.0482 34.6363 11.278C35.0192 11.3546 35.8019 11.3625 36.1792 11.2912C37.5321 11.0402 38.2197 10.1948 38.4657 8.48823C38.5188 8.12632 38.5272 7.94135 38.5272 7.22016C38.5272 6.30345 38.4964 5.96796 38.3595 5.38673Z" fill="#1D1556"/>
<path d="M42.1636 3.47045V4.04802H43.6807H45.1979V8.29188V12.5357H46.0117H46.8254V8.29188V4.04802H48.3426H49.8599L49.8541 3.47547L49.8459 2.90544L46.0061 2.89791L42.1636 2.89288V3.47045Z" fill="#1D1556"/>
<path d="M51.8024 2.97324C51.8207 3.05862 51.8609 3.20678 52.3315 5.05248C52.486 5.65265 52.6485 6.29049 52.6934 6.47126C52.7388 6.64958 52.8241 6.97856 52.8798 7.19951C53.0661 7.92776 53.7605 10.6448 54.1037 11.9883L54.2423 12.5357H55.1946H56.1446L56.4424 11.6367C57.2248 9.29131 57.4402 8.64343 58.0151 6.92329C58.2226 6.30053 58.4248 5.70037 58.4618 5.58486C58.4993 5.47184 58.5367 5.37893 58.5447 5.37893C58.5527 5.37893 58.7385 5.98158 58.9567 6.71737C59.1749 7.45061 59.4413 8.34211 59.5448 8.69365C59.6515 9.0452 59.843 9.68304 59.9709 10.1125C60.0982 10.5393 60.3085 11.2475 60.4391 11.6819C60.5692 12.1189 60.6755 12.488 60.6755 12.5056C60.6755 12.5282 60.9045 12.5357 61.6335 12.5357H62.5887L62.621 12.4278C62.6369 12.37 62.6898 12.1817 62.738 12.0084C62.7858 11.8351 62.9028 11.4107 62.9983 11.0667C63.2409 10.1903 63.6131 8.85185 63.7358 8.41744C64.071 7.20201 64.558 5.44922 64.6694 5.03992C64.7438 4.77625 64.8478 4.39958 64.9035 4.19868C65.183 3.20176 65.2523 2.94562 65.2523 2.9205C65.2523 2.90042 65.0444 2.89288 64.5018 2.89791L63.7517 2.90544L62.7324 6.76005C62.171 8.87946 61.7056 10.6322 61.6976 10.6524C61.6869 10.6724 61.655 10.5946 61.6204 10.4766C61.5619 10.2656 61.2079 9.00501 60.7636 7.41297C60.6385 6.96348 60.4442 6.26284 60.33 5.85603C60.2153 5.44922 60.013 4.71849 59.8777 4.23635C59.7447 3.7517 59.63 3.34238 59.6249 3.3248C59.6169 3.3022 59.4011 3.29467 58.6669 3.29467C58.1481 3.29467 57.7225 3.29718 57.7225 3.3022C57.7225 3.30722 57.3578 4.45734 56.9134 5.85857C56.4691 7.25977 55.9475 8.90961 55.7509 9.52734C55.5566 10.1451 55.3861 10.6423 55.3782 10.6322C55.3674 10.6222 54.9633 9.01509 54.4764 7.06138C53.9923 5.10772 53.5662 3.40014 53.5315 3.26955C53.4997 3.13898 53.4627 3.00086 53.4547 2.96069L53.4384 2.89288H52.611H51.7837L51.8024 2.97324Z" fill="#1D1556"/>
<path fill-rule="evenodd" clip-rule="evenodd" d="M69.1695 5.86861C69.7581 4.5402 70.4206 3.04355 70.4508 2.97324L70.4887 2.89288H71.1815C71.7048 2.89288 71.8819 2.90042 71.901 2.92302C71.9174 2.94059 71.9965 3.12391 72.0809 3.33234C72.2388 3.72408 72.4786 4.31168 73.5446 6.91072C73.8938 7.75952 74.2618 8.65851 74.3625 8.90711C74.5015 9.24816 74.7807 9.92917 75.0486 10.5823C75.2856 11.1603 75.5136 11.7164 75.6276 11.9958C75.7422 12.2721 75.8348 12.5056 75.8348 12.5156C75.8348 12.5282 75.4366 12.5357 74.9516 12.5357H74.0656L74.0138 12.4026C73.9864 12.3323 73.8665 12.0234 73.7518 11.7196C73.6835 11.5377 73.5808 11.2685 73.4795 11.0031C73.4115 10.8252 73.3443 10.6489 73.2884 10.5017L73.0351 9.83625L71.0203 9.83121L69.0059 9.82367L68.8121 10.3083C68.7061 10.572 68.4604 11.1822 68.2671 11.6618L67.9155 12.5357H67.0649H66.2144L66.5003 11.8879C66.7394 11.3481 66.8995 10.9874 67.0844 10.5706C67.3168 10.0468 67.5885 9.43438 68.1059 8.26677C68.7742 6.75756 68.8912 6.49387 69.1695 5.86861ZM71.7509 6.35829C71.4347 5.50952 71.1675 4.78379 71.1594 4.7436C71.1483 4.70594 71.1296 4.67078 71.1186 4.66325C71.1148 4.66116 71.1122 4.65792 71.1091 4.65735C71.0896 4.65383 71.0514 4.75394 70.6005 5.88114C70.4758 6.18955 70.323 6.56956 70.1785 6.92918C70.0418 7.26942 69.9124 7.59141 69.8209 7.81724C69.6353 8.27931 69.4827 8.67358 69.4827 8.68861C69.4827 8.71123 69.8617 8.71876 71.0505 8.71876C71.9116 8.71876 72.6178 8.71372 72.6178 8.70873C72.6178 8.69869 72.4815 8.32953 71.7509 6.35829Z" fill="#1D1556"/>
<path fill-rule="evenodd" clip-rule="evenodd" d="M78.7212 7.73175C78.7212 5.08744 78.7294 2.91775 78.7405 2.91021C78.7676 2.88259 82.2339 2.89012 82.7094 2.91775C83.4214 2.96044 83.8805 3.05586 84.3535 3.25676C84.6834 3.40241 84.9088 3.54806 85.1367 3.77658C85.5904 4.22107 85.8129 4.82125 85.8129 5.58717C85.8129 6.81013 85.2576 7.67399 84.2186 8.06827C83.9714 8.16368 83.4625 8.28424 83.2154 8.30681C83.1162 8.31689 83.0369 8.33192 83.0369 8.3445C83.0369 8.35453 83.7982 9.29627 84.727 10.4363C85.6562 11.5764 86.4175 12.5156 86.4175 12.5232C86.4175 12.5307 85.9808 12.5357 85.4501 12.5357L84.4798 12.5332L82.8032 10.464L81.1262 8.39222H80.7359H80.3431V10.464V12.5357H79.5319H78.7212V7.73175ZM84.1252 5.16529C84.0014 4.60529 83.6304 4.24618 83.0117 4.093C82.8168 4.04277 82.7176 4.03775 81.5935 4.02771C80.9284 4.02268 80.376 4.02771 80.3649 4.03775C80.3513 4.0478 80.3431 4.77103 80.3431 5.64743V7.23706H81.5248C82.8526 7.23706 82.9788 7.22448 83.3334 7.07132C83.702 6.91057 83.9738 6.58917 84.0977 6.16977C84.1664 5.93873 84.1804 5.4089 84.1252 5.16529Z" fill="#1D1556"/>
<path d="M90.2836 2.91046C90.2733 2.91799 90.2656 5.08763 90.2656 7.73187V12.5357H93.1515H96.0379V11.9707V11.4057L93.9129 11.4007L91.7852 11.3931V9.76591V8.14118L93.6751 8.13368L95.5655 8.12864V7.56364V6.99863L93.6751 6.98605L91.7852 6.97352V5.50448V4.03546L93.836 4.02792L95.8846 4.0229V3.45789V2.89288H93.0931C91.5555 2.89288 90.2912 2.90042 90.2836 2.91046Z" fill="#1D1556"/>
<path d="M0.79541 19.4865C0.79541 22.8443 0.805627 24.5692 0.823505 24.6825C0.994631 25.7965 1.85537 26.7103 2.95363 26.95C3.17584 26.9974 3.38527 27 9.20609 27H15.2261V20.7321V14.4643H10.6032H5.98025V14.9331V15.4018L7.58424 15.3913L9.18563 15.3808L9.30566 15.2412C9.68114 14.8093 10.2865 14.7698 10.6926 15.1517C11.1472 15.5835 11.1089 16.3341 10.6083 16.7028C10.4346 16.8319 10.266 16.8872 10.0412 16.8872C9.72968 16.8872 9.45128 16.7476 9.27504 16.5053L9.18817 16.3868H8.31215H7.43608V17.4191V18.4488L9.24438 18.433L11.0553 18.4199L11.0706 19.0124C11.0808 19.3416 11.0884 19.7972 11.0884 20.0263V20.4424H11.6197H12.1509L12.2327 20.3345C12.7129 19.6893 13.6885 19.8604 13.9388 20.6321C13.9669 20.7216 13.9771 20.8269 13.972 20.9771C13.9644 21.1588 13.9465 21.2246 13.8775 21.3695C13.7217 21.6986 13.4229 21.9041 13.0653 21.9357C12.7665 21.962 12.4063 21.7935 12.2429 21.5485L12.1739 21.4458L11.1625 21.4432H10.1511L10.1358 20.7664C10.1255 20.3951 10.1179 19.9394 10.1179 19.7525V19.4154H9.53044H8.94298V19.95C8.94298 20.2449 8.95064 20.9323 8.9609 21.4774L8.97618 22.465L9.08347 22.544C9.23163 22.652 9.38741 22.9022 9.42828 23.0997C9.54832 23.6791 9.20609 24.2111 8.64163 24.319C8.22273 24.398 7.77835 24.1531 7.59444 23.7397C7.41566 23.3341 7.54336 22.7968 7.88305 22.5467L7.998 22.4598L7.99287 20.9455L7.98521 19.4285L7.24196 19.4391L6.49872 19.447L6.48338 18.4541C6.47318 17.9063 6.46551 17.2164 6.46551 16.9214V16.3868H5.72485H4.98414V16.8529C4.98414 17.111 4.9918 17.7009 5.00202 18.1644L5.01735 19.0072L5.24211 18.9992C5.61244 18.9861 5.57157 18.7069 5.57157 21.1878V23.3289L5.68398 23.4105C5.95471 23.608 6.11816 24.0215 6.05941 24.3559C5.99813 24.6904 5.79889 24.9643 5.5052 25.117C5.36726 25.1881 5.3315 25.196 5.09907 25.196C4.87687 25.196 4.82579 25.1855 4.70319 25.1275C4.41457 24.988 4.22302 24.7457 4.1515 24.427C4.09531 24.19 4.12341 23.9688 4.23323 23.7423C4.29964 23.6106 4.54739 23.3394 4.60358 23.3394C4.62912 23.3394 4.63678 20.6558 4.60869 20.2502L4.59336 19.9948H3.57427H2.55774V20.5162V21.035L2.68034 21.1272C2.92553 21.3168 3.09155 21.696 3.05835 22.0041C3.02259 22.3123 2.85402 22.5967 2.60883 22.76C2.12865 23.0787 1.47736 22.8943 1.21939 22.3702C1.07125 22.07 1.07892 21.7435 1.23727 21.4353C1.30879 21.2957 1.53355 21.0482 1.58974 21.0482C1.60251 21.0482 1.61272 20.611 1.61272 20.0342V19.0203H2.82592H4.03912V17.2164V15.4124H4.29453H4.54994V14.9383V14.4643H2.67268H0.79541V19.4865Z" fill="#1D1556"/>
<path d="M39.2773 19.7679V24.1072H39.8402H40.4031V22.0681V20.0317L40.5055 19.8418C40.9021 19.0899 41.4291 18.7391 42.0356 18.8235C42.5064 18.8868 42.7622 19.1269 42.8773 19.6149C42.9132 19.7732 42.9209 20.0607 42.9285 21.9494L42.9388 24.1072H43.5145H44.0876V22.1209C44.0876 20.0686 44.0748 19.723 43.9827 19.3326C43.9136 19.0425 43.7396 18.6705 43.5835 18.4912C43.3456 18.2115 42.949 18.0031 42.514 17.9319C42.2377 17.8871 41.8232 17.895 41.6313 17.9451C41.2475 18.0506 40.8586 18.325 40.5874 18.6863C40.508 18.7919 40.4339 18.8816 40.4236 18.8816C40.4108 18.8842 40.4031 18.106 40.4031 17.1564V15.4286H39.8402H39.2773V19.7679Z" fill="#1D1556"/>
<path d="M62.3662 19.7679V24.1072H62.847H63.3283V19.7679V15.4286H62.847H62.3662V19.7679Z" fill="#1D1556"/>
<path d="M18.1123 15.9375V16.4465H19.2496H20.387V20.2768V24.1072H20.9862H21.5854L21.5904 20.2822L21.5977 16.4598L22.7424 16.4518L23.8846 16.4465V15.9375V15.4286H20.9984H18.1123V15.9375Z" fill="#1D1556"/>
<path d="M81.6074 16.875V17.3572H82.0884H82.5695V16.875V16.3929H82.0884H81.6074V16.875Z" fill="#1D1556"/>
<path d="M49.5408 18.3356C49.3563 18.3626 49.1497 18.4412 48.9501 18.5567C48.7856 18.655 48.4766 18.9351 48.3196 19.1268C48.2597 19.2029 48.2049 19.2594 48.1999 19.2545C48.1924 19.2471 48.1426 19.0751 48.0853 18.8688L47.9831 18.4928L47.4771 18.4855C47.2005 18.483 46.9736 18.4855 46.9736 18.4903C46.9736 18.4953 47.0036 18.6869 47.0409 18.9154L47.1083 19.3282L47.1157 21.7164L47.1257 24.1071H47.674H48.2198V22.2029V20.2963L48.2846 20.1685C48.4766 19.7951 48.8257 19.424 49.1048 19.2914C49.3315 19.1833 49.5633 19.1513 49.8176 19.1882C50.1664 19.2373 50.3807 19.3749 50.5129 19.6353C50.6575 19.9203 50.6626 19.9867 50.6626 22.144V24.1071H51.223H51.7839V22.1587C51.7839 20.0457 51.7765 19.9007 51.6443 19.5002C51.5521 19.2201 51.4451 19.0334 51.268 18.8491C51.0885 18.6623 50.9067 18.5469 50.6401 18.4535C50.3358 18.3479 49.835 18.2938 49.5408 18.3356Z" fill="#1D1556"/>
<path fill-rule="evenodd" clip-rule="evenodd" d="M55.5984 19.0079C56.0122 18.6198 56.5621 18.3936 57.2386 18.3321C57.6554 18.2959 58.2781 18.3545 58.6056 18.4634C59.6237 18.7985 60.203 19.5664 60.3955 20.8369C60.4578 21.2474 60.4578 22.0907 60.3955 22.5012C60.1816 23.9113 59.4751 24.7546 58.2921 25.0087C57.9236 25.0869 57.263 25.0924 56.9001 25.0227C55.4872 24.749 54.7508 23.7186 54.6751 21.9064C54.6237 20.661 54.9592 19.6138 55.5984 19.0079ZM59.2149 21.669C59.2149 20.3147 58.8659 19.5859 58.1051 19.3542C57.956 19.3067 57.4365 19.2732 57.2795 19.2983C56.5701 19.4128 56.1478 19.8903 55.9798 20.7671C55.9204 21.0742 55.896 21.898 55.9364 22.2862C56.0585 23.4924 56.6079 24.1152 57.5557 24.1123C58.6655 24.1096 59.2149 23.3026 59.2149 21.669Z" fill="#1D1556"/>
<path fill-rule="evenodd" clip-rule="evenodd" d="M65.2562 21.8962C65.1858 19.7851 66.1045 18.4978 67.7926 18.3386C68.5785 18.2632 69.3724 18.4391 69.8869 18.805C70.0715 18.9334 70.3694 19.2434 70.4856 19.4249C70.7082 19.7684 70.8843 20.2514 70.9707 20.7653C71.047 21.2121 71.0415 22.1978 70.9602 22.6418C70.8843 23.0607 70.7217 23.5327 70.5565 23.8203C70.3938 24.1023 69.9847 24.5324 69.7352 24.6832C69.2776 24.9541 68.7951 25.0741 68.1364 25.0713C67.6324 25.0713 67.2776 25.0127 66.9253 24.8702C65.8849 24.457 65.3051 23.421 65.2562 21.8962ZM69.7137 20.648C69.5455 19.8549 69.1828 19.4444 68.5431 19.3244C67.6813 19.1652 67.0177 19.4947 66.7168 20.2291C66.4972 20.7681 66.4244 21.7511 66.5486 22.5246C66.7193 23.5857 67.2477 24.1135 68.1449 24.1163C68.7546 24.1163 69.2367 23.8398 69.4862 23.34C69.7272 22.8625 69.8005 22.4017 69.7816 21.5221C69.7731 21.0501 69.7571 20.8602 69.7137 20.648Z" fill="#1D1556"/>
<path fill-rule="evenodd" clip-rule="evenodd" d="M78.5714 18.3348C78.5081 18.3374 78.2685 18.3529 78.0369 18.3683C77.8054 18.3838 77.4158 18.4122 77.1687 18.4354C76.7642 18.4715 76.7056 18.4715 76.5682 18.4354C76.2879 18.3606 75.7966 18.3322 75.4099 18.3658C74.6664 18.4328 74.1957 18.6393 73.7935 19.0753C73.5849 19.3024 73.4142 19.6223 73.3223 19.9551C73.2408 20.2622 73.2408 20.8531 73.3223 21.1369C73.3988 21.4078 73.5338 21.6787 73.7119 21.9212L73.8596 22.1199L73.6355 22.3547C73.3631 22.6385 73.2741 22.8114 73.2563 23.0797C73.2309 23.4796 73.4649 23.8641 73.8722 24.0963C73.9515 24.1427 74.0124 24.1866 74.0049 24.1918C73.9969 24.1995 73.9027 24.2434 73.7935 24.2924C73.4217 24.4575 73.1517 24.6949 73.027 24.9684C72.9023 25.2496 72.9281 25.6831 73.0936 26.0263C73.335 26.532 73.9411 26.839 74.9312 26.9654C75.3386 27.017 76.3263 27.0093 76.6878 26.9525C77.4336 26.8338 77.9146 26.6352 78.2685 26.2946C78.411 26.1604 78.4696 26.0804 78.5535 25.905C78.6557 25.6908 78.6581 25.6727 78.6684 25.3864C78.6862 24.8806 78.592 24.602 78.3093 24.3388C77.9174 23.9699 77.2606 23.7841 75.9241 23.6577C74.8881 23.5622 74.4882 23.4719 74.3152 23.2964C74.2285 23.2087 74.2187 23.1855 74.2187 23.0668C74.2187 22.9094 74.2773 22.7778 74.4071 22.654L74.4985 22.5637L74.6715 22.6205C75.0053 22.7288 75.4253 22.7907 75.8224 22.7881C77.1205 22.7881 77.9455 22.2076 78.2048 21.1162C78.2737 20.835 78.2685 20.3422 78.1949 20.0893C78.1058 19.7745 77.9404 19.47 77.7364 19.2405L77.6502 19.1424H78.0266H78.4059L78.5587 18.7528L78.622 18.5917C78.6767 18.4526 78.7173 18.3495 78.719 18.34C78.7242 18.3271 78.719 18.3193 78.7064 18.3219C78.696 18.3245 78.6351 18.3296 78.5714 18.3348ZM76.3057 19.2946C76.8279 19.4597 77.0951 19.8752 77.0951 20.5202C77.0923 21.2323 76.7998 21.6993 76.2424 21.8774C76.0999 21.9238 76.0029 21.9341 75.7586 21.9341C75.5144 21.9341 75.4174 21.9238 75.2748 21.8774C74.7226 21.7019 74.4399 21.2659 74.4399 20.5873C74.4376 19.8494 74.8014 19.3643 75.4478 19.2456C75.6541 19.2095 76.1149 19.2353 76.3057 19.2946ZM77.4542 25.1387C77.2756 24.842 76.6062 24.6407 75.5421 24.5633C75.4462 24.556 75.3412 24.5481 75.2466 24.541C75.1405 24.5331 75.0475 24.5261 74.995 24.522C74.8347 24.5091 74.8014 24.5169 74.6565 24.5865C74.3509 24.7336 74.1371 25.0277 74.1343 25.309C74.1296 25.8921 74.9973 26.2507 76.2016 26.1604C76.7895 26.1191 77.1181 26.0108 77.3244 25.794C77.4899 25.6211 77.5532 25.3038 77.4542 25.1387Z" fill="#1D1556"/>
<path d="M94.4019 18.3348C93.3237 18.4296 92.6239 18.837 92.3692 19.515C92.1951 19.981 92.2256 20.5753 92.441 20.9882C92.712 21.4988 93.1658 21.7806 94.3687 22.1852C95.1296 22.4391 95.3201 22.5256 95.5111 22.707C95.6934 22.8771 95.7408 23.0167 95.7214 23.2985C95.6853 23.8286 95.3644 24.0713 94.6509 24.102C94.1116 24.1271 93.7245 24.0518 93.0247 23.7867C92.8037 23.703 92.6127 23.6445 92.6015 23.6556C92.574 23.6835 92.1895 24.5987 92.1895 24.6377C92.1895 24.7019 92.8118 24.8805 93.3705 24.9754C94.0897 25.0981 94.8139 25.1037 95.3425 24.9893C96.053 24.8386 96.5786 24.4871 96.8139 23.9988C97.1042 23.4017 97.0487 22.6037 96.6866 22.0875C96.382 21.6607 95.9562 21.4179 94.8612 21.0552C94.4686 20.9241 94.0703 20.7762 93.9761 20.7259C93.6333 20.5446 93.4922 20.3213 93.5279 20.0228C93.5753 19.6099 93.8961 19.3699 94.4935 19.303C95.013 19.2444 95.4918 19.342 96.1304 19.6378C96.3102 19.7243 96.465 19.7829 96.4681 19.7689C96.4737 19.755 96.5761 19.5178 96.6947 19.2416L96.9132 18.7394L96.7141 18.6752C95.8483 18.399 95.041 18.279 94.4019 18.3348Z" fill="#1D1556"/>
<path fill-rule="evenodd" clip-rule="evenodd" d="M24.8827 21.0457C25.1199 19.4471 25.9672 18.4981 27.2862 18.347C27.5912 18.3134 27.7663 18.3134 28.1194 18.3442C29.6841 18.4897 30.4241 19.3744 30.5907 21.2976C30.6048 21.4824 30.6189 21.7568 30.6189 21.9051V22.1795H28.4018H26.1847V22.297C26.1847 22.6274 26.3711 23.2181 26.5631 23.5037C26.8597 23.9432 27.272 24.1279 27.9499 24.1223C28.4865 24.1167 28.9893 23.9907 29.5655 23.7192C29.8253 23.596 29.8592 23.5876 29.8818 23.6296C29.9439 23.7472 30.2574 24.5619 30.2461 24.5758C30.1953 24.6235 29.6784 24.8026 29.3649 24.881C28.8283 25.0154 28.3905 25.0686 27.851 25.0714C26.9303 25.0741 26.3372 24.867 25.7978 24.3547C25.3204 23.8984 25.0324 23.3105 24.894 22.5154C24.8375 22.1823 24.829 21.3928 24.8827 21.0457ZM29.3903 21.0513C29.2999 20.0827 28.9441 19.5367 28.2747 19.3408C28.1194 19.296 27.6195 19.2596 27.4839 19.2848C27.0659 19.3632 26.6846 19.6319 26.4671 20.0071C26.3089 20.2842 26.1564 20.8525 26.1564 21.1745V21.2557H27.7833H29.4101L29.3903 21.0513Z" fill="#1D1556"/>
<path d="M34.9222 18.3494C34.2187 18.4249 33.5882 18.7578 33.2078 19.2528C32.7257 19.8794 32.5147 20.7296 32.546 21.9071C32.572 22.8188 32.7492 23.4733 33.1166 24.0075C33.6429 24.7711 34.5392 25.1543 35.5762 25.0564C36.126 25.0033 36.9363 24.8242 37.2256 24.6928L37.3532 24.6341L37.1839 24.2089C37.0926 23.974 36.9988 23.7447 36.9806 23.6943L36.9441 23.6048L36.7461 23.6999C36.2849 23.9264 35.6466 24.1055 35.3079 24.1055C34.6226 24.1026 34.1223 23.7111 33.8905 22.9951C33.7524 22.5644 33.6924 21.9323 33.7341 21.3197C33.8097 20.2597 34.0624 19.7031 34.5913 19.4318C35.1124 19.1633 35.7951 19.2388 36.707 19.6696C36.8243 19.7255 36.9259 19.7675 36.9285 19.7646C36.9311 19.7591 37.1448 19.1885 37.2985 18.7746C37.3271 18.6935 36.2615 18.4138 35.6596 18.3439C35.373 18.3131 35.2557 18.3131 34.9222 18.3494Z" fill="#1D1556"/>
<path fill-rule="evenodd" clip-rule="evenodd" d="M85.4675 19.011C85.8927 18.6053 86.3687 18.4011 87.0557 18.3339C87.4218 18.2976 87.9652 18.3423 88.351 18.443C89.5447 18.7536 90.1161 19.6685 90.2374 21.4619C90.2514 21.6913 90.2654 21.9487 90.2654 22.0271V22.1754H88.0384H85.8139L85.831 22.3069C85.9207 22.9839 86.0897 23.4036 86.391 23.703C86.7037 24.0135 86.9992 24.1199 87.5483 24.1171C88.1089 24.1171 88.6269 23.9884 89.246 23.7002C89.4773 23.5911 89.511 23.5827 89.525 23.6246C89.5313 23.6439 89.5856 23.7778 89.6549 23.9486C89.6762 24.0011 89.6989 24.057 89.722 24.1142C89.7569 24.2028 89.7899 24.2862 89.8177 24.3566C89.8664 24.4797 89.8994 24.5629 89.8994 24.5647C89.8994 24.5815 89.5447 24.7186 89.3502 24.7801C88.4495 25.0683 87.3062 25.1551 86.6134 24.9844C85.2844 24.6543 84.4932 23.454 84.4932 21.7613C84.4932 20.5806 84.8338 19.6181 85.4675 19.011ZM88.8519 20.2029C88.6435 19.6965 88.2805 19.3971 87.7625 19.3048C87.1766 19.2012 86.7431 19.3215 86.3713 19.6881C86.2194 19.8391 86.1571 19.9315 86.0586 20.1385C85.9912 20.2812 85.915 20.4882 85.8901 20.5974C85.8393 20.8044 85.7916 21.2157 85.8139 21.2381C85.8196 21.2465 86.546 21.2521 87.427 21.2521H89.0267V21.0842C89.0267 20.8632 88.9364 20.4099 88.8519 20.2029Z" fill="#1D1556"/>
<path d="M81.6074 21.2143V24.1071H82.0884H82.5695V21.2143V18.3214H82.0884H81.6074V21.2143Z" fill="#1D1556"/>
<path d="M0.79541 6.26784V12.5357H2.70423H4.61305V7.12471V1.71374L6.5677 1.72697C8.39507 1.73754 8.5376 1.74283 8.78957 1.79308C9.76941 1.98879 10.3294 2.42516 10.6322 3.22913C10.9351 4.03047 10.9071 5.27348 10.5711 6.01659C10.1842 6.87346 9.47929 7.32308 8.3849 7.41036C8.09984 7.43417 8.00058 7.45 8.00822 7.47381C8.01586 7.49232 8.29327 7.86787 8.62412 8.30955C9.19423 9.06327 9.52761 9.50491 10.5584 10.8722C10.7951 11.1869 11.1718 11.6868 11.3957 11.9882L11.803 12.533L13.5158 12.5357H15.2261L15.221 7.45268L15.2134 2.36697L15.1574 2.16069C15.0072 1.6106 14.7731 1.1901 14.4142 0.819847C13.9994 0.39141 13.4929 0.121654 12.9355 0.0290913C12.8235 0.0105786 10.8307 0 6.784 0H0.79541V6.26784Z" fill="#1D1556"/>
<path d="M6.56787 4.82146V6.75003L6.92101 6.73251C7.11212 6.72375 7.55287 6.70043 7.89535 6.68587C8.74488 6.64498 9.1166 6.60705 9.32365 6.53414C9.92369 6.33281 10.2741 5.88057 10.3803 5.16864C10.5077 4.30211 10.29 3.56103 9.79623 3.20216C9.41126 2.92206 9.22279 2.89288 7.74399 2.89288H6.56787V4.82146Z" fill="#1D1556"/>
<path d="M6.56787 10.125V12.5357H8.50286C10.0488 12.5357 10.4328 12.5282 10.4155 12.5031C10.3486 12.4177 9.85559 11.7547 9.30554 11.0165C8.96614 10.5594 8.46568 9.88893 8.19316 9.52231C7.9206 9.15568 7.52667 8.62582 7.31612 8.34206C7.10551 8.05831 6.91476 7.8097 6.89245 7.78708C6.87014 7.76197 6.79088 7.73941 6.71159 7.72932L6.56787 7.71429V10.125Z" fill="#1D1556"/>
</svg>
