<svg width="24" height="24" viewBox="0 0 30 30" fill="none" xmlns="http://www.w3.org/2000/svg">
<path d="M28.2995 6.95067V6.94115C28.1841 6.67919 28.0474 6.4272 27.8911 6.18786C27.8351 6.10049 27.7695 6.02146 27.7091 5.93707C27.5854 5.76679 27.452 5.60396 27.3094 5.44961C27.2374 5.37266 27.1656 5.29698 27.0893 5.22457C26.9174 5.06077 26.7347 4.90828 26.5425 4.76882C26.4875 4.72922 26.4368 4.68353 26.3808 4.64498C26.1322 4.48021 25.8699 4.33777 25.597 4.2184C25.5146 4.18104 25.4289 4.15336 25.3441 4.12121C25.1317 4.03905 24.914 3.97051 24.6928 3.9164C24.5986 3.89408 24.5067 3.87049 24.4104 3.85359C24.0978 3.78974 23.7803 3.75499 23.4616 3.75H6.53847C6.22067 3.75313 5.90386 3.78572 5.59174 3.84719C5.49542 3.86431 5.40356 3.88768 5.30935 3.91C5.08816 3.96433 4.87048 4.03265 4.65799 4.11481C4.57348 4.14674 4.48779 4.17464 4.40515 4.212C4.13224 4.3313 3.86992 4.47419 3.62133 4.63873C3.56418 4.67713 3.51553 4.72305 3.4596 4.76256C3.26741 4.90188 3.08466 5.05407 2.91279 5.21787C2.83654 5.2905 2.76475 5.36626 2.69275 5.44292C2.55017 5.59726 2.41652 5.76039 2.29283 5.93067C2.23262 6.01499 2.167 6.0938 2.11078 6.18146C1.95448 6.4208 1.81802 6.67279 1.7026 6.93467V6.9442C1.40512 7.61793 1.25096 8.34695 1.25 9.08438V21.8871C1.25166 23.3014 1.80932 24.6572 2.80087 25.6571C3.7922 26.6573 5.13634 27.2199 6.53847 27.2215L23.4615 27.2216C24.8637 27.2199 26.2078 26.6573 27.1991 25.6572C28.1907 24.6572 28.7484 23.3014 28.75 21.8871V9.08446C28.7488 8.34926 28.5954 7.62247 28.2995 6.95067ZM4.14995 6.99972C4.25103 6.88325 4.35985 6.7737 4.47576 6.67227C4.53172 6.62322 4.5879 6.57411 4.64718 6.52938C4.76899 6.43888 4.89744 6.35739 5.03106 6.28595C5.0934 6.25075 5.15382 6.21242 5.21923 6.17931C5.36867 6.1124 5.52283 6.05718 5.68053 6.01402C5.73981 5.99809 5.79577 5.97234 5.8562 5.95969C6.08023 5.90916 6.30879 5.88348 6.53825 5.88378H23.4615C23.691 5.88445 23.92 5.91117 24.1438 5.96282C24.204 5.97562 24.2603 6.00114 24.3195 6.01714C24.4772 6.06016 24.6311 6.11545 24.7806 6.18236C24.8462 6.21213 24.9064 6.25068 24.9688 6.28908C25.1024 6.36141 25.2306 6.4429 25.3526 6.5334C25.4119 6.57812 25.4678 6.62724 25.5241 6.67629C25.64 6.77779 25.7488 6.88757 25.8499 7.00396L25.9228 7.09356L16.8847 13.8259C16.3402 14.2352 15.6792 14.4566 14.9999 14.4566C14.3206 14.4566 13.6596 14.2353 13.1152 13.8259L4.07702 7.08924L4.14995 6.99972ZM26.6343 21.8871C26.6343 22.7361 26.3 23.5501 25.705 24.1504C25.1098 24.7505 24.3029 25.0878 23.4612 25.0878H6.53843C5.69676 25.0878 4.88984 24.7505 4.29463 24.1504C3.69968 23.5501 3.36535 22.7361 3.36535 21.8871V9.21127L11.8583 15.5388C12.7666 16.2199 13.8682 16.5876 14.9998 16.5876C16.1314 16.5876 17.233 16.2199 18.1413 15.5388L26.6343 9.21127V21.8871Z" fill="white"/>
</svg>
