<svg width="18" height="20" viewBox="0 0 18 20" fill="none" xmlns="http://www.w3.org/2000/svg">
<g clip-path="url(#clip0_417_8545)">
<path d="M15.5946 2.52933H13.728V0.505989C13.728 0.249179 13.518 0.0390625 13.2613 0.0390625H12.9502C12.6935 0.0390625 12.4835 0.249179 12.4835 0.505989V2.52933H5.01684V0.505989C5.01684 0.249179 4.80684 0.0390625 4.55017 0.0390625H4.23906C3.9824 0.0390625 3.7724 0.249179 3.7724 0.505989V2.52933H1.90573C0.875174 2.52933 0.0390625 3.36591 0.0390625 4.39704V18.0935C0.0390625 19.1247 0.875174 19.9612 1.90573 19.9612H15.5946C16.6252 19.9612 17.4613 19.1247 17.4613 18.0935V4.39704C17.4613 3.36591 16.6252 2.52933 15.5946 2.52933ZM1.90573 3.77447H15.5946C15.9368 3.77447 16.2168 4.05463 16.2168 4.39704V6.26474H1.28351V4.39704C1.28351 4.05463 1.56351 3.77447 1.90573 3.77447ZM15.5946 18.7161H1.90573C1.56351 18.7161 1.28351 18.4359 1.28351 18.0935V7.50988H16.2168V18.0935C16.2168 18.4359 15.9368 18.7161 15.5946 18.7161Z" fill="#8E8FA6"/>
</g>
<defs>
<clipPath id="clip0_417_8545">
<rect width="17.5" height="20" fill="white"/>
</clipPath>
</defs>
</svg>
