<svg width="24" height="24" viewBox="0 0 24 24" fill="none" xmlns="http://www.w3.org/2000/svg">
<path d="M12 0C5.37097 0 0 5.37097 0 12C0 18.629 5.37097 24 12 24C18.629 24 24 18.629 24 12C24 5.37097 18.629 0 12 0ZM12 22.4516C6.25645 22.4516 1.54839 17.8016 1.54839 12C1.54839 6.25645 6.19839 1.54839 12 1.54839C17.7435 1.54839 22.4516 6.19839 22.4516 12C22.4516 17.7435 17.8016 22.4516 12 22.4516ZM16.5871 8.64677L13.2339 12L16.5871 15.3532C16.8145 15.5806 16.8145 15.9484 16.5871 16.1758L16.1758 16.5871C15.9484 16.8145 15.5806 16.8145 15.3532 16.5871L12 13.2339L8.64677 16.5871C8.41935 16.8145 8.05161 16.8145 7.82419 16.5871L7.4129 16.1758C7.18548 15.9484 7.18548 15.5806 7.4129 15.3532L10.7661 12L7.4129 8.64677C7.18548 8.41935 7.18548 8.05161 7.4129 7.82419L7.82419 7.4129C8.05161 7.18548 8.41935 7.18548 8.64677 7.4129L12 10.7661L15.3532 7.4129C15.5806 7.18548 15.9484 7.18548 16.1758 7.4129L16.5871 7.82419C16.8097 8.05161 16.8097 8.41935 16.5871 8.64677Z" fill="white"/>
</svg>
