<svg width="27" height="28" viewBox="0 0 27 28" fill="none" xmlns="http://www.w3.org/2000/svg">
<path fill-rule="evenodd" clip-rule="evenodd" d="M15.5317 2.2096H11.5145L11.5145 3.42132C11.5145 5.65588 9.71966 7.47051 7.48991 7.50658L7.42221 7.50713C6.74196 7.50713 6.0827 7.34149 5.4976 7.02914L5.48684 7.02331C5.41471 6.98364 5.34891 6.9456 5.28473 6.90608L5.26613 6.89449L4.30975 6.34272L2.29327 9.83683L3.32049 10.4276L3.36374 10.4491L3.38967 10.4641C4.63386 11.1844 5.42702 12.5025 5.44275 13.9559L5.44299 14.0033C5.44299 15.4483 4.67733 16.7628 3.46238 17.4963L3.42235 17.5201L3.41852 17.5227C3.40179 17.534 3.38675 17.5425 3.36769 17.5523L3.3348 17.569L3.30441 17.583L2.29327 18.1662L4.31047 21.6587L5.26887 21.1057L5.28621 21.095C5.3583 21.0503 5.42464 21.0119 5.49299 20.9764L5.51564 20.9648L5.54707 20.9484C6.1119 20.6569 6.73309 20.5003 7.37928 20.4931L7.42548 20.4929C9.68418 20.4929 11.5178 22.3225 11.5178 24.5787L11.5178 25.7903H15.535L15.535 24.5787C15.535 22.3426 17.3154 20.5295 19.5434 20.4934L19.611 20.4929C20.2893 20.4929 20.9354 20.6574 21.5226 20.9709L21.5334 20.9767C21.6055 21.0164 21.6713 21.0544 21.7355 21.0939L21.7534 21.1051L22.7105 21.6573L24.7268 18.1663L23.6623 17.5541L23.6479 17.5459C23.6159 17.5273 23.5848 17.5069 23.5546 17.4845L23.5517 17.4822L23.5354 17.4722C22.3598 16.7411 21.6251 15.46 21.6101 14.0474L21.6099 14C21.6099 12.5552 22.36 11.2428 23.5635 10.5067L23.6072 10.4803L23.622 10.471C23.6327 10.4644 23.643 10.4583 23.653 10.4526L23.6736 10.4412L24.7213 9.8354L22.7039 6.34266L21.7501 6.89293L21.6866 6.93259C21.6324 6.96596 21.5899 6.99066 21.5425 7.01569L21.503 7.03602L21.4759 7.0503C20.9125 7.34331 20.2994 7.49975 19.6539 7.50687L19.6078 7.50713C17.3506 7.50713 15.5318 5.67902 15.5318 3.42132L15.5317 2.2096ZM20.5932 22.6961L20.5669 22.6824C20.2815 22.5361 19.9755 22.4584 19.6488 22.4528L19.611 22.4525C18.4364 22.4525 17.4947 23.3997 17.4947 24.5787V26.0125C17.4947 26.9766 16.6891 27.75 15.7343 27.75H11.2827C10.321 27.75 9.55819 26.9662 9.55819 26.0125V24.5787C9.55819 23.4057 8.60287 22.4525 7.42547 22.4525C7.06967 22.4525 6.73274 22.5376 6.4243 22.701L6.41408 22.7064L6.40374 22.7116C6.37949 22.7237 6.3447 22.744 6.29607 22.7747L6.27949 22.7852L5.15986 23.4311L4.99189 23.5283L4.94563 23.5491C4.72362 23.6486 4.47991 23.7034 4.23129 23.7034C3.63035 23.7034 3.08395 23.3942 2.76702 22.9013L2.74403 22.8647L0.502943 18.9844L0.464681 18.9208L0.452707 18.8982C0.321104 18.6505 0.25 18.3718 0.25 18.0858C0.25 17.4941 0.550578 16.9494 1.03653 16.6319L1.07266 16.6088L1.14856 16.5642L2.40837 15.8377L2.44367 15.8201L2.46007 15.8122L2.48314 15.798C3.09134 15.4156 3.47336 14.7556 3.48318 14.0319L3.48337 14C3.48337 13.2585 3.08909 12.5777 2.45752 12.1897L2.44639 12.1829L2.41214 12.1658L1.14128 11.4348L1.07266 11.3944L1.05981 11.3863C0.559628 11.0708 0.25 10.5213 0.25 9.91746C0.25 9.63142 0.321104 9.35277 0.452707 9.10504L0.464681 9.0825L0.502645 9.01925L2.74229 5.13829L2.74887 5.12753C3.06263 4.61481 3.61895 4.29662 4.23129 4.29662C4.47991 4.29662 4.72362 4.3514 4.94563 4.45093L4.9971 4.474L5.15935 4.57049L6.27622 5.21485L6.29281 5.22532C6.3217 5.24357 6.35241 5.26191 6.38726 5.28171L6.42526 5.30298L6.4518 5.31682C6.72478 5.45656 7.02976 5.53569 7.34843 5.54628L7.38526 5.5472L7.42221 5.54751C8.60158 5.54751 9.55493 4.59554 9.55493 3.42132V1.98753C9.55493 1.03101 10.3173 0.25 11.2794 0.25H15.731C16.6858 0.25 17.4914 1.02337 17.4914 1.98753V3.42132C17.4914 4.59898 18.4351 5.54751 19.6078 5.54751C19.9477 5.54751 20.2632 5.46999 20.5603 5.31766L20.6047 5.29427L20.6227 5.28517C20.6329 5.27974 20.6468 5.27152 20.6707 5.25672L20.7374 5.21485L21.8542 4.57049L22.0166 4.474L22.068 4.45093C22.29 4.3514 22.5338 4.29662 22.7824 4.29662C23.3927 4.29662 23.9468 4.61557 24.2613 5.12193L24.2696 5.13529L26.5106 9.01536L26.549 9.07924L26.561 9.10178C26.6926 9.3495 26.7637 9.62815 26.7637 9.91419C26.7637 10.5153 26.4535 11.0679 25.9504 11.3852L25.8839 11.4268L24.7085 12.1064L24.6247 12.1552C23.9837 12.529 23.5798 13.2109 23.5697 13.9707L23.5695 14.0033C23.5695 14.7627 23.9658 15.4479 24.604 15.8288L24.624 15.8405L24.6342 15.8463C24.6597 15.8612 24.6848 15.8772 24.7092 15.8945L24.7165 15.8998L25.8789 16.5685L25.9475 16.6088L25.9604 16.6169C26.4606 16.9324 26.7702 17.482 26.7702 18.0858C26.7702 18.3718 26.6991 18.6505 26.5675 18.8982L26.5555 18.9208L26.5156 18.9871L24.2778 22.8619L24.2713 22.8725C23.9576 23.3852 23.4012 23.7034 22.7889 23.7034C22.5403 23.7034 22.2966 23.6486 22.0746 23.5491L22.0231 23.526L21.8594 23.4287L20.744 22.7852L20.7274 22.7747C20.6985 22.7564 20.6678 22.7381 20.6329 22.7183L20.5932 22.6961ZM13.5101 8.5196C16.5369 8.5196 18.9905 10.9732 18.9905 14C18.9905 17.0268 16.5369 19.4804 13.5101 19.4804C10.4833 19.4804 8.02969 17.0268 8.02969 14C8.02969 10.9732 10.4833 8.5196 13.5101 8.5196ZM13.5101 10.4792C11.5655 10.4792 9.98931 12.0555 9.98931 14C9.98931 15.9445 11.5655 17.5208 13.5101 17.5208C15.4546 17.5208 17.0309 15.9445 17.0309 14C17.0309 12.0555 15.4546 10.4792 13.5101 10.4792Z" fill="white"/>
</svg>
