<svg width="28" height="28" viewBox="0 0 28 28" fill="none" xmlns="http://www.w3.org/2000/svg">
<path fill-rule="evenodd" clip-rule="evenodd" d="M12.8951 0.266538C9.57732 0.569162 6.60623 1.95379 4.2761 4.28326C2.1451 6.41356 0.858661 8.95402 0.364541 12.0076C0.21182 12.9518 0.21182 15.0616 0.364541 16.0057C0.511776 16.9154 0.792826 18.0183 1.06054 18.7367C2.64205 22.9805 6.17713 26.1946 10.4973 27.3165C11.8579 27.6697 12.507 27.75 14.0025 27.75C15.4574 27.75 16.1134 27.6726 17.4111 27.3479C22.2 26.1499 26.0703 22.3062 27.3163 17.5109C27.6697 16.1506 27.75 15.5018 27.75 14.0067C27.75 12.5116 27.6697 11.8628 27.3163 10.5025C25.9452 5.22545 21.5008 1.22841 16.0637 0.382726C15.4649 0.289597 13.4514 0.215787 12.8951 0.266538ZM15.1715 2.25974C17.6344 2.51524 19.9543 3.53027 21.8308 5.17347C23.5209 6.65356 24.8643 8.83137 25.4155 10.9853C25.7187 12.1692 25.7789 12.6701 25.7789 14.0067C25.7789 15.3105 25.7193 15.8305 25.4437 16.9285C24.8915 19.1278 23.5332 21.3502 21.8308 22.8395C18.8949 25.4075 14.9621 26.3864 11.2338 25.4767C7.77703 24.6333 4.9534 22.3574 3.39134 19.1558C1.29601 14.861 1.98666 9.8145 5.16715 6.18094C6.72535 4.40068 9.04588 3.02509 11.3815 2.49721C12.5839 2.2254 13.9907 2.13727 15.1715 2.25974ZM9.6957 8.16766C9.42895 8.27972 9.30259 8.44266 8.20974 10.084L7.14219 11.6872V12.0428C7.14219 12.427 7.24408 12.6249 7.56583 12.8649C7.73482 12.9912 7.76905 12.9918 14.0025 12.9918C20.236 12.9918 20.2703 12.9912 20.4393 12.8649C20.7621 12.624 20.8629 12.4274 20.8629 12.0384C20.8629 11.6494 20.7621 11.4528 20.4393 11.2119C20.2712 11.0865 20.2121 11.0849 15.1059 11.0686L9.94252 11.0523L10.4806 10.245C11.0017 9.46277 11.0185 9.42661 11.0185 9.08176C11.0185 8.70033 10.9164 8.49945 10.6039 8.26625C10.417 8.12682 9.92093 8.07292 9.6957 8.16766ZM7.69288 15.0769C7.11611 15.3295 6.93496 16.1134 7.3417 16.5967C7.65892 16.9736 7.43452 16.9591 12.9857 16.9591H18.0638L17.5252 17.7675C17.0034 18.5507 16.9866 18.5869 16.9866 18.9316C16.9866 19.3162 17.0885 19.5139 17.4103 19.754C17.6473 19.9311 18.2303 19.9316 18.4743 19.7551C18.5698 19.686 19.1462 18.887 19.7553 17.9795L20.8629 16.3297V15.9723C20.8629 15.5863 20.7614 15.3889 20.4393 15.1484C20.2707 15.0226 20.2249 15.0215 14.0749 15.0083C9.0192 14.9971 7.84605 15.0099 7.69288 15.0769Z" fill="white"/>
</svg>
