<svg width="30" height="30" viewBox="0 0 30 30" fill="none" xmlns="http://www.w3.org/2000/svg">
<path d="M24.2364 22.7623H23.6909V10.2623C23.6909 9.92064 23.4137 9.64349 23.0721 9.64349H18.3222C17.9805 9.64349 17.7034 9.92069 17.7034 10.2623V13.3379H13.5723C13.2306 13.3379 12.9535 13.6151 12.9535 13.9567V15.6657H8.82242C8.48077 15.6657 8.20362 15.9429 8.20362 16.2845V22.7623H6.77896C6.43731 22.7623 6.16016 23.0395 6.16016 23.3811C6.16016 23.7227 6.43735 23.9999 6.77896 23.9999H8.82233H13.5723H18.3222H23.0721H24.2364C24.578 23.9999 24.8552 23.7227 24.8552 23.3811C24.8552 23.0395 24.578 22.7623 24.2364 22.7623ZM9.44118 16.9033H12.9534V22.7624H9.44118V16.9033ZM14.1911 16.2845V14.5755H17.7034V22.7623H14.1911V16.2845V16.2845ZM18.941 22.7623V13.9567V10.8811H22.4533V22.7623H18.941V22.7623Z" fill="white"/>
<path d="M6.6177 13.81C6.63784 13.81 6.65798 13.8093 6.67895 13.8072C6.90657 13.7849 12.1553 13.2079 16.1501 8.47331L16.2279 9.11776C16.2658 9.43201 16.5325 9.66245 16.8411 9.66245C16.8661 9.66245 16.8911 9.66082 16.916 9.658C17.2553 9.61689 17.497 9.30872 17.4559 8.96949L17.1634 6.54498C17.1416 6.36208 17.0393 6.19813 16.8838 6.09859C16.7283 5.99826 16.5365 5.97328 16.3617 6.02928L13.9307 6.80363C13.6052 6.90757 13.4247 7.25566 13.5286 7.58119C13.6326 7.90632 13.9807 8.0864 14.3062 7.98325L15.18 7.70487C11.5152 12.0159 6.60801 12.5702 6.5573 12.5757C6.21806 12.6099 5.96991 12.9125 6.00295 13.2525C6.03516 13.5716 6.30345 13.81 6.6177 13.81Z" fill="white"/>
</svg>
