<svg width="22" height="21" viewBox="0 0 22 21" fill="none" xmlns="http://www.w3.org/2000/svg">
<path fill-rule="evenodd" clip-rule="evenodd" d="M7 0V2H15V0H17V2H20.3416C21.2571 2 22 2.84261 22 3.87576V19.1242L21.9996 19.1635C21.9785 20.1785 21.2432 21 20.3391 21H1.65836C0.7429 21 0 20.1574 0 19.1242V3.87576C0 2.84001 0.742653 2 1.65836 2H5V0H7ZM15 4.30862V6H17V4.30862H19.9589V18.6914H2.04104V4.30862H5V6H7V4.30862H15ZM12 11V9H9V11H12ZM7 9V11H4V9H7ZM18 11V9H15V11H18ZM12 14V16H9V14H12ZM7 16V14H4V16H7Z" fill="#D8D8D8"/>
</svg>
