<svg width="28" height="27" viewBox="0 0 28 27" fill="none" xmlns="http://www.w3.org/2000/svg">
<path fill-rule="evenodd" clip-rule="evenodd" d="M1.24024 11.6367C1.20966 11.6397 1.18028 11.6408 1.15091 11.6408C0.692579 11.6408 0.301282 11.2931 0.254305 10.8277C0.206116 10.3318 0.568039 9.89043 1.06281 9.84055C1.13677 9.83253 8.29383 9.02409 13.6389 2.73653L12.3645 3.14254C11.8897 3.29298 11.382 3.03034 11.2303 2.55614C11.0788 2.08136 11.3421 1.57368 11.8168 1.42208L15.3624 0.292706C15.6173 0.211031 15.8971 0.247464 16.1238 0.393794C16.3506 0.538971 16.4998 0.778089 16.5316 1.04485L16.9582 4.58095C17.0182 5.07572 16.6657 5.52518 16.1708 5.58513C16.1345 5.58925 16.098 5.59162 16.0616 5.59162C15.6115 5.59162 15.2225 5.25553 15.1672 4.7972L15.0538 3.85728C9.22741 10.7626 1.57222 11.6042 1.24024 11.6367ZM26.8475 24.6975H26.0519V6.4665C26.0519 5.96819 25.6476 5.56397 25.1494 5.56397H18.2217C17.7234 5.56397 17.3192 5.96826 17.3192 6.4665V10.9522H11.2941C10.7957 10.9522 10.3916 11.3565 10.3916 11.8547V14.3473H4.36646C3.86816 14.3473 3.46395 14.7516 3.46395 15.2498V24.6975H1.3861C0.887811 24.6975 0.483593 25.1018 0.483593 25.6C0.483593 26.0983 0.88787 26.5026 1.3861 26.5026H4.36632H11.2941H18.2217H25.1494H26.8475C27.3457 26.5026 27.75 26.0983 27.75 25.6C27.75 25.1018 27.3457 24.6975 26.8475 24.6975ZM5.26891 16.1523H10.3914V24.6977H5.26891V16.1523ZM12.1966 12.7572V15.2498V24.6975H17.3192V12.7572H12.1966ZM19.1242 24.6975V11.8547V7.36901H24.2469V24.6975H19.1242Z" fill="white"/>
</svg>
