<svg width="15" height="18" viewBox="0 0 15 18" fill="none" xmlns="http://www.w3.org/2000/svg">
<path d="M12.9716 4.73871H12.9716V4.83871C12.9716 5.31341 12.5852 5.69981 12.1107 5.69981H2.82778C2.35328 5.69981 1.96688 5.31341 1.96688 4.83871V4.74492C1.96688 4.27021 2.35328 3.88381 2.82778 3.88381H12.1107C12.5831 3.88381 12.9682 4.26685 12.9716 4.73871ZM12.1107 2.81693H9.70753C9.53889 1.73275 8.60026 0.9 7.46923 0.9C6.33822 0.9 5.39972 1.73273 5.23109 2.81693H2.82778C1.76464 2.81693 0.9 3.68184 0.9 4.74492V4.83871C0.9 5.6273 1.3764 6.30505 2.05515 6.60329V15.172C2.05515 16.2351 2.9199 17.1 3.98297 17.1H10.9556C12.0187 17.1 12.8833 16.2351 12.8833 15.172V6.60332C13.5621 6.30505 14.0385 5.62731 14.0385 4.83874V4.74495C14.0385 3.68184 13.1738 2.81693 12.1107 2.81693ZM7.46923 1.96691C8.00898 1.96691 8.46647 2.3255 8.61635 2.81693H6.32233C6.47219 2.32547 6.9297 1.96691 7.46923 1.96691ZM11.8164 15.172C11.8164 15.6467 11.43 16.0331 10.9555 16.0331H3.98294C3.50843 16.0331 3.12203 15.6467 3.12203 15.172V6.76669H11.8164V15.172Z" fill="white" stroke="white" stroke-width="0.2"/>
<path d="M5.14487 15.1266C5.43949 15.1266 5.67831 14.8877 5.67831 14.5932V9.71277C5.67831 9.41823 5.43946 9.1793 5.14487 9.1793C4.85027 9.1793 4.61143 9.41823 4.61143 9.71277V14.5932C4.61143 14.5932 4.61143 14.5932 4.61143 14.5932C4.61139 14.8878 4.85027 15.1266 5.14487 15.1266Z" fill="white" stroke="white" stroke-width="0.2"/>
<path d="M7.46908 15.1266C7.76369 15.1266 8.00255 14.8877 8.00255 14.5932V9.71277C8.00255 9.41822 7.76363 9.1793 7.46908 9.1793C7.17448 9.1793 6.93564 9.41823 6.93564 9.71277V14.5932C6.93564 14.8878 7.17447 15.1266 7.46908 15.1266Z" fill="white" stroke="white" stroke-width="0.2"/>
<path d="M9.79285 15.1266C10.0874 15.1266 10.3263 14.8877 10.3263 14.5932V9.71277C10.3263 9.41824 10.0874 9.1793 9.79285 9.1793C9.49818 9.1793 9.25938 9.41823 9.25938 9.71277V14.5932C9.25938 14.5932 9.25938 14.5932 9.25938 14.5932C9.25934 14.8878 9.4983 15.1266 9.79285 15.1266Z" fill="white" stroke="white" stroke-width="0.2"/>
</svg>
