<svg width="30" height="30" viewBox="0 0 30 30" fill="none" xmlns="http://www.w3.org/2000/svg">
<path d="M24.6875 19.887H12.5V18.309C12.5 17.7843 12.082 17.3621 11.5625 17.3621H9.6875C9.16797 17.3621 8.75 17.7843 8.75 18.309V19.887H5.3125C5.14062 19.887 5 20.0291 5 20.2027V20.8339C5 21.0075 5.14062 21.1495 5.3125 21.1495H8.75V22.7276C8.75 23.2523 9.16797 23.6744 9.6875 23.6744H11.5625C12.082 23.6744 12.5 23.2523 12.5 22.7276V21.1495H24.6875C24.8594 21.1495 25 21.0075 25 20.8339V20.2027C25 20.0291 24.8594 19.887 24.6875 19.887ZM11.25 22.412H10V18.6246H11.25V22.412ZM24.6875 8.52492H15V6.94684C15 6.42213 14.582 6 14.0625 6H12.1875C11.668 6 11.25 6.42213 11.25 6.94684V8.52492H5.3125C5.14062 8.52492 5 8.66694 5 8.84053V9.47176C5 9.64535 5.14062 9.78738 5.3125 9.78738H11.25V11.3654C11.25 11.8902 11.668 12.3123 12.1875 12.3123H14.0625C14.582 12.3123 15 11.8902 15 11.3654V9.78738H24.6875C24.8594 9.78738 25 9.64535 25 9.47176V8.84053C25 8.66694 24.8594 8.52492 24.6875 8.52492ZM13.75 11.0498H12.5V7.26246H13.75V11.0498ZM24.6875 14.206H21.25V12.6279C21.25 12.1032 20.832 11.6811 20.3125 11.6811H18.4375C17.918 11.6811 17.5 12.1032 17.5 12.6279V14.206H5.3125C5.14062 14.206 5 14.348 5 14.5216V15.1528C5 15.3264 5.14062 15.4684 5.3125 15.4684H17.5V17.0465C17.5 17.5712 17.918 17.9934 18.4375 17.9934H20.3125C20.832 17.9934 21.25 17.5712 21.25 17.0465V15.4684H24.6875C24.8594 15.4684 25 15.3264 25 15.1528V14.5216C25 14.348 24.8594 14.206 24.6875 14.206ZM20 16.7309H18.75V12.9435H20V16.7309Z" fill="#C2CEE3"/>
</svg>
