<svg width="30" height="30" viewBox="0 0 30 30" fill="none" xmlns="http://www.w3.org/2000/svg">
<path d="M23.7463 16.745L22.4328 15.9859C22.5154 15.3312 22.5154 14.6688 22.4328 14.0141L23.7463 13.255C24.132 13.0321 24.318 12.5734 24.1912 12.1461C23.7395 10.6239 22.9355 9.2538 21.8738 8.13013C21.5663 7.80473 21.0756 7.73352 20.6881 7.95747L19.3766 8.71545C18.852 8.31577 18.279 7.9841 17.6713 7.72836V6.21166C17.6713 5.76287 17.363 5.37279 16.9268 5.26944C15.4105 4.91021 13.8206 4.91017 12.304 5.26944C11.8678 5.37279 11.5595 5.76283 11.5595 6.21166V7.72836C10.9518 7.98409 10.3788 8.31576 9.85418 8.71545L8.54264 7.95747C8.15512 7.73352 7.66441 7.80473 7.35697 8.13013C6.29523 9.2538 5.49124 10.624 5.03956 12.1461C4.91273 12.5734 5.09877 13.032 5.48447 13.255L6.79795 14.0141C6.71538 14.6688 6.71538 15.3312 6.79795 15.9859L5.48447 16.745C5.09877 16.9679 4.91273 17.4266 5.03956 17.8539C5.49124 19.376 6.29523 20.7462 7.35697 21.8699C7.66445 22.1953 8.15516 22.2665 8.54264 22.0426L9.85418 21.2846C10.3788 21.6843 10.9518 22.0159 11.5595 22.2716V23.7883C11.5595 24.2371 11.8677 24.6272 12.304 24.7306C13.8203 25.0898 15.4102 25.0898 16.9268 24.7306C17.363 24.6272 17.6713 24.2372 17.6713 23.7883V22.2716C18.279 22.0159 18.852 21.6843 19.3766 21.2846L20.6881 22.0426C21.0756 22.2665 21.5663 22.1953 21.8738 21.8699C22.9355 20.7462 23.7395 19.376 24.1912 17.8539C24.318 17.4266 24.132 16.968 23.7463 16.745V16.745ZM21.1089 20.7959L19.2437 19.7176C18.1566 20.6479 17.7711 20.882 16.3823 21.3733V23.5297C15.2166 23.7704 14.0141 23.7704 12.8484 23.5297V21.3733C11.4942 20.8943 11.1022 20.6718 9.9871 19.7176L8.12185 20.7959C7.32797 19.9051 6.72464 18.8608 6.35247 17.733L8.21852 16.6548C7.9553 15.2267 7.95518 14.774 8.21852 13.3452L6.35247 12.267C6.72464 11.1392 7.32801 10.0948 8.12185 9.20368L9.9871 10.2827C11.0898 9.33779 11.4799 9.11074 12.8484 8.6267V6.47033C14.0141 6.2292 15.2167 6.2292 16.3823 6.47033V8.62674C17.7509 9.11082 18.1411 9.33791 19.2437 10.2828L21.1089 9.20372C21.9028 10.0948 22.5061 11.1392 22.8783 12.267L21.0122 13.3452C21.2755 14.7737 21.2756 15.226 21.0122 16.6549L22.8783 17.7331C22.5061 18.8608 21.9028 19.9052 21.1089 20.7959V20.7959ZM14.6154 11.129C12.4833 11.129 10.7487 12.8655 10.7487 15C10.7487 17.1345 12.4833 18.871 14.6154 18.871C16.7475 18.871 18.4821 17.1345 18.4821 15C18.4821 12.8655 16.7475 11.129 14.6154 11.129ZM14.6154 17.5807C13.194 17.5807 12.0376 16.423 12.0376 15C12.0376 13.577 13.194 12.4194 14.6154 12.4194C16.0368 12.4194 17.1932 13.577 17.1932 15C17.1932 16.423 16.0368 17.5807 14.6154 17.5807Z" fill="white"/>
</svg>
