<svg width="30" height="30" viewBox="0 0 30 30" fill="none" xmlns="http://www.w3.org/2000/svg">
<path d="M26.5612 18.3204L25.9425 17.9672C25.9725 17.6512 25.9725 17.3315 25.9425 17.0155L26.565 16.6623C26.9212 16.4579 27.0825 16.0415 26.9587 15.6586C26.6887 14.7886 26.2125 13.9707 25.5825 13.2978C25.305 12.9967 24.8587 12.9298 24.5062 13.1343L23.8875 13.4874C23.625 13.3016 23.3475 13.1417 23.055 13.0116V12.3052C23.055 11.8963 22.7737 11.5505 22.3725 11.4613C21.4762 11.2606 20.5237 11.2606 19.6275 11.4613C19.2262 11.5505 18.945 11.9 18.945 12.3052V13.0116C18.6525 13.1417 18.375 13.3016 18.1125 13.4874L17.4937 13.1343C17.1375 12.9298 16.695 12.9967 16.4175 13.2978C15.7912 13.9707 15.315 14.7886 15.0412 15.6549C14.9175 16.0415 15.0862 16.4653 15.4387 16.6661L16.0575 17.0192C16.0275 17.3352 16.0275 17.655 16.0575 17.971L15.435 18.3241C15.0862 18.5249 14.9175 18.9524 15.0412 19.3316C15.3112 20.2016 15.7875 21.0195 16.4175 21.6924C16.695 21.9898 17.1375 22.0567 17.4937 21.8559L18.1125 21.5027C18.375 21.6886 18.6525 21.8485 18.945 21.9786V22.685C18.945 23.0939 19.2262 23.4397 19.6275 23.5289C20.0775 23.6293 20.5387 23.6776 21 23.6776C21.4612 23.6776 21.9262 23.6293 22.3725 23.5289C22.7737 23.4397 23.055 23.0902 23.055 22.685V21.9786C23.3475 21.8485 23.625 21.6886 23.8875 21.5027L24.5062 21.8559C24.8587 22.0567 25.305 21.9898 25.5825 21.6924C26.2087 21.0195 26.685 20.2016 26.9587 19.3353C27.0825 18.9487 26.9137 18.5212 26.5612 18.3204ZM24.6262 18.5881L25.7287 19.2201C25.5337 19.7517 25.2412 20.2536 24.8737 20.6886L23.7712 20.0566C22.9687 20.7369 22.8525 20.8038 21.855 21.1533V22.4173C21.2887 22.514 20.7075 22.514 20.145 22.4173V21.1533C19.1362 20.8001 19.0125 20.7183 18.2287 20.0566L17.1262 20.6886C16.7587 20.2499 16.4662 19.7517 16.2712 19.2201L17.3737 18.5881C17.19 17.5918 17.1787 17.4505 17.3737 16.3947L16.2712 15.7627C16.4662 15.231 16.7587 14.7329 17.1262 14.2942L18.2287 14.9262C19.0312 14.2459 19.1475 14.1789 20.145 13.8295V12.5655C20.7112 12.4725 21.2962 12.4725 21.855 12.5655V13.8295C22.86 14.1827 22.9875 14.2607 23.7712 14.9262L24.8737 14.2942C25.2412 14.7329 25.5337 15.231 25.7287 15.7627L24.6262 16.3947C24.81 17.391 24.8212 17.5323 24.6262 18.5881ZM21 15.0935C19.665 15.0935 18.5812 16.1716 18.5812 17.4914C18.5812 18.8112 19.665 19.8893 21 19.8893C22.335 19.8893 23.4187 18.8112 23.4187 17.4914C23.4187 16.1716 22.335 15.0935 21 15.0935ZM21 18.6996C20.3287 18.6996 19.7812 18.1568 19.7812 17.4914C19.7812 16.8259 20.3287 16.2831 21 16.2831C21.6712 16.2831 22.2187 16.8259 22.2187 17.4914C22.2187 18.1568 21.6712 18.6996 21 18.6996ZM11.4 14.5172C14.0512 14.5172 16.2 12.387 16.2 9.75862C16.2 7.13023 14.0512 5 11.4 5C8.74874 5 6.6 7.13023 6.6 9.75862C6.6 12.387 8.74874 14.5172 11.4 14.5172ZM11.4 6.18966C13.3837 6.18966 15 7.79197 15 9.75862C15 11.7253 13.3837 13.3276 11.4 13.3276C9.41624 13.3276 7.8 11.7253 7.8 9.75862C7.8 7.79197 9.41624 6.18966 11.4 6.18966ZM4.8 22.8448C4.47 22.8448 4.2 22.5772 4.2 22.25V20.7034C4.2 18.603 5.92125 16.8966 8.03999 16.8966C8.77499 16.8966 9.50624 17.4914 11.4 17.4914C12.12 17.4914 12.825 17.3687 13.5187 17.1679C13.5375 16.7367 13.5862 16.3129 13.6762 15.9039C13.3425 16.0043 12.5475 16.3017 11.4 16.3017C9.63374 16.3017 9.11999 15.7069 8.03999 15.7069C5.2575 15.7069 3 17.9449 3 20.7034V22.25C3 23.2352 3.80625 24.0345 4.8 24.0345H17.4375C16.8375 23.7148 16.29 23.3095 15.8062 22.8448H4.8Z" fill="#525969"/>
</svg>
