<svg width="30" height="30" viewBox="0 0 30 30" fill="none" xmlns="http://www.w3.org/2000/svg">
<path d="M22.3125 7H7.6875C6.75586 7 6 7.75826 6 8.69286V21.1071C6 22.0417 6.75586 22.8 7.6875 22.8H22.3125C23.2441 22.8 24 22.0417 24 21.1071V8.69286C24 7.75826 23.2441 7 22.3125 7ZM7.125 8.69286C7.125 8.3825 7.37812 8.12857 7.6875 8.12857H9.375V10.3857H7.125V8.69286ZM22.875 21.1071C22.875 21.4175 22.6219 21.6714 22.3125 21.6714H7.6875C7.37812 21.6714 7.125 21.4175 7.125 21.1071V11.5143H22.875V21.1071ZM22.875 10.3857H10.5V8.12857H22.3125C22.6219 8.12857 22.875 8.3825 22.875 8.69286V10.3857Z" fill="#525969"/>
<path d="M18.8912 13.1221C19.1448 13.3963 18.9088 13.8112 18.6553 14.0853L14.3008 18.7945C14.0472 19.0685 13.6363 19.0685 13.3828 18.7945L11.3099 16.5526C11.0563 16.2786 10.8662 15.8341 11.1197 15.56C11.3732 15.2858 11.552 15.2858 11.8054 15.56L13.8626 17.8244L17.9769 13.3572C18.2304 13.0832 18.6378 12.8481 18.8912 13.1221Z" fill="#525969" stroke="#525969" stroke-width="0.2"/>
</svg>
