<svg width="30" height="30" viewBox="0 0 30 30" fill="none" xmlns="http://www.w3.org/2000/svg">
<path fill-rule="evenodd" clip-rule="evenodd" d="M15 5.60756C13.2222 5.60756 11.776 7.05126 11.776 8.82572C11.776 10.6005 13.2222 12.0442 15 12.0442C16.7779 12.0442 18.224 10.6005 18.224 8.82572C18.224 7.05126 16.7779 5.60756 15 5.60756ZM15 11.3579C13.6015 11.3579 12.4635 10.2218 12.4635 8.82572C12.4635 7.42961 13.6015 6.29389 15 6.29389C16.3985 6.29389 17.5365 7.42961 17.5365 8.82572C17.5365 10.2218 16.3985 11.3579 15 11.3579Z" fill="white"/>
<path fill-rule="evenodd" clip-rule="evenodd" d="M22.211 6.14275C22.3312 6.35052 22.3635 6.59315 22.3013 6.82539C22.2389 7.05763 22.0899 7.25166 21.8814 7.37164L20.9512 7.90783C20.9982 8.21279 21.022 8.52043 21.022 8.82572C21.022 9.13101 20.9982 9.43865 20.9512 9.74395L21.8814 10.2798C22.0899 10.4001 22.2389 10.5941 22.3013 10.8264C22.3635 11.0583 22.3312 11.3009 22.211 11.5087L20.9331 13.7185C20.8129 13.9266 20.6185 14.0754 20.3859 14.1377C20.1532 14.1994 19.9105 14.1675 19.7021 14.0479L18.7709 13.511C18.2881 13.8991 17.7547 14.2071 17.179 14.4299V15.502C17.179 15.998 16.7748 16.4014 16.278 16.4014H13.722C13.2252 16.4014 12.821 15.998 12.821 15.502V14.4299C12.2453 14.2071 11.7119 13.8991 11.2292 13.511L10.2979 14.0479C10.0891 14.1675 9.84644 14.1994 9.61414 14.1377C9.3815 14.0754 9.18714 13.9266 9.06696 13.7185L7.78897 11.5087C7.6688 11.3009 7.63657 11.0583 7.69867 10.8264C7.76111 10.5941 7.91016 10.4001 8.11862 10.2798L9.04883 9.74395C9.00183 9.43865 8.978 9.13101 8.978 8.82572C8.978 8.52043 9.00183 8.21279 9.04883 7.90783L8.11862 7.37164C7.91016 7.25166 7.76111 7.05763 7.69867 6.82539C7.63657 6.59315 7.6688 6.35052 7.78897 6.14275L9.06696 3.93297C9.18714 3.72486 9.3815 3.57607 9.61414 3.51373C9.84644 3.45107 10.0891 3.48357 10.2979 3.60355L11.2292 4.14041C11.7119 3.75234 12.2453 3.44437 12.821 3.22151V2.14946C12.821 1.65348 13.2252 1.25 13.722 1.25H16.278C16.7748 1.25 17.179 1.65348 17.179 2.14946V3.22151C17.7547 3.44437 18.2881 3.75234 18.7709 4.14041L19.7021 3.60355C19.9105 3.48357 20.1532 3.45107 20.3859 3.51373C20.6185 3.57607 20.8129 3.72486 20.9331 3.93297L22.211 6.14275ZM21.5376 6.77713C21.587 6.74865 21.6222 6.70274 21.637 6.64778C21.6518 6.59282 21.6444 6.53551 21.6155 6.48591L20.3375 4.27613C20.309 4.22687 20.263 4.19168 20.208 4.17694C20.1522 4.16152 20.0948 4.16923 20.0458 4.19805L18.9061 4.85489C18.7793 4.92794 18.6188 4.91253 18.508 4.81601C17.982 4.3569 17.3818 4.01072 16.7241 3.78652C16.5852 3.73927 16.4915 3.60857 16.4915 3.46179V2.14946C16.4915 2.03183 16.3958 1.93633 16.278 1.93633H13.722C13.6042 1.93633 13.5085 2.03183 13.5085 2.14946V3.46179C13.5085 3.60857 13.4149 3.73927 13.2759 3.78652C12.6183 4.01072 12.018 4.3569 11.492 4.81601C11.3812 4.91253 11.2208 4.92794 11.0939 4.85489L9.9542 4.19805C9.90519 4.16956 9.84745 4.16186 9.79206 4.17694C9.737 4.19168 9.69101 4.22687 9.66248 4.27613L8.38449 6.48591C8.35562 6.53551 8.34824 6.59282 8.36301 6.64778C8.37778 6.70274 8.41303 6.74865 8.46237 6.77713L9.60071 7.4333C9.72794 7.50669 9.79441 7.65247 9.76621 7.79657C9.69941 8.13705 9.6655 8.48323 9.6655 8.82572C9.6655 9.16788 9.69941 9.51439 9.76621 9.85521C9.79441 9.99931 9.72794 10.1451 9.60071 10.2185L8.46237 10.8743C8.41303 10.9028 8.37778 10.9487 8.36301 11.0037C8.34824 11.0586 8.35596 11.1159 8.38449 11.1655L9.66248 13.3753C9.69101 13.4246 9.737 13.4598 9.79206 13.4745C9.84745 13.4893 9.90485 13.4819 9.9542 13.4534L11.0939 12.7966C11.1473 12.7657 11.2067 12.7506 11.2658 12.7506C11.347 12.7506 11.4279 12.7795 11.492 12.8354C12.018 13.2945 12.6183 13.6407 13.2759 13.8649C13.4149 13.9122 13.5085 14.0429 13.5085 14.1896V15.502C13.5085 15.6196 13.6042 15.7151 13.722 15.7151H16.278C16.3958 15.7151 16.4915 15.6196 16.4915 15.502V14.1896C16.4915 14.0429 16.5852 13.9122 16.7241 13.8649C17.3818 13.6407 17.982 13.2945 18.508 12.8354C18.6188 12.7386 18.7793 12.7235 18.9061 12.7966L20.0458 13.4534C20.0952 13.4819 20.1522 13.4896 20.208 13.4745C20.263 13.4598 20.309 13.4246 20.3375 13.3753L21.6155 11.1655C21.6441 11.1159 21.6518 11.0586 21.637 11.0037C21.6222 10.9487 21.587 10.9028 21.5376 10.8743L20.3993 10.2185C20.2721 10.1451 20.2056 9.99931 20.2338 9.85521C20.3006 9.51439 20.3345 9.16788 20.3345 8.82572C20.3345 8.48323 20.3006 8.13705 20.2338 7.79657C20.2056 7.65247 20.2721 7.50669 20.3993 7.4333L21.5376 6.77713Z" fill="white"/>
<path d="M19.7407 27.6196C19.4234 27.9346 18.9706 28.0764 18.5302 27.9969L8.14381 26.1451C8.124 26.1414 8.10352 26.1397 8.08338 26.1397H1.59375C1.40375 26.1397 1.25 26.2932 1.25 26.4829C1.25 26.6725 1.40375 26.826 1.59375 26.826H8.05283L18.4093 28.6725C18.5298 28.694 18.6507 28.7047 18.7712 28.7047C19.311 28.7044 19.836 28.4926 20.2254 28.1062L28.135 20.259C28.554 19.8435 28.7772 19.2674 28.7473 18.6789C28.7178 18.0901 28.4378 17.5395 27.9796 17.1679C27.2015 16.5375 26.0813 16.5482 25.3162 17.1947L20.5725 21.2014H20.2399V20.7808C20.2399 19.4567 19.1603 18.3793 17.8333 18.3793H14.0601L8.44022 17.2661C7.53989 17.0868 6.61741 17.319 5.90876 17.8998C5.28974 18.4068 4.90168 19.1256 4.81339 19.9091H1.59375C1.40375 19.9091 1.25 20.0626 1.25 20.2523C1.25 20.442 1.40375 20.5955 1.59375 20.5955H5.138C5.22931 20.5955 5.31659 20.5593 5.38105 20.4949C5.4455 20.4306 5.48175 20.3435 5.48175 20.2523C5.48175 19.5439 5.7963 18.8797 6.34482 18.4303C6.89435 17.9802 7.60972 17.8019 8.30662 17.939L13.9594 19.0589C13.9812 19.0633 14.0037 19.0657 14.0262 19.0657H17.8333C18.7813 19.0657 19.5524 19.8351 19.5524 20.7808V21.2014H13.297C13.107 21.2014 12.9533 21.3549 12.9533 21.5445C12.9533 21.7342 13.107 21.8877 13.297 21.8877H20.6984C20.7797 21.8877 20.8585 21.8589 20.9203 21.8066L25.76 17.7188C26.2729 17.2845 27.0239 17.2775 27.5462 17.7007C27.8534 17.9497 28.041 18.3187 28.0608 18.7131C28.0807 19.1079 27.9309 19.4936 27.6503 19.7724L19.7407 27.6196Z" fill="white"/>
<path fill-rule="evenodd" clip-rule="evenodd" d="M15 5.60756C13.2222 5.60756 11.776 7.05126 11.776 8.82572C11.776 10.6005 13.2222 12.0442 15 12.0442C16.7779 12.0442 18.224 10.6005 18.224 8.82572C18.224 7.05126 16.7779 5.60756 15 5.60756ZM15 11.3579C13.6015 11.3579 12.4635 10.2218 12.4635 8.82572C12.4635 7.42961 13.6015 6.29389 15 6.29389C16.3985 6.29389 17.5365 7.42961 17.5365 8.82572C17.5365 10.2218 16.3985 11.3579 15 11.3579Z" stroke="white"/>
<path fill-rule="evenodd" clip-rule="evenodd" d="M22.211 6.14275C22.3312 6.35052 22.3635 6.59315 22.3013 6.82539C22.2389 7.05763 22.0899 7.25166 21.8814 7.37164L20.9512 7.90783C20.9982 8.21279 21.022 8.52043 21.022 8.82572C21.022 9.13101 20.9982 9.43865 20.9512 9.74395L21.8814 10.2798C22.0899 10.4001 22.2389 10.5941 22.3013 10.8264C22.3635 11.0583 22.3312 11.3009 22.211 11.5087L20.9331 13.7185C20.8129 13.9266 20.6185 14.0754 20.3859 14.1377C20.1532 14.1994 19.9105 14.1675 19.7021 14.0479L18.7709 13.511C18.2881 13.8991 17.7547 14.2071 17.179 14.4299V15.502C17.179 15.998 16.7748 16.4014 16.278 16.4014H13.722C13.2252 16.4014 12.821 15.998 12.821 15.502V14.4299C12.2453 14.2071 11.7119 13.8991 11.2292 13.511L10.2979 14.0479C10.0891 14.1675 9.84644 14.1994 9.61414 14.1377C9.3815 14.0754 9.18714 13.9266 9.06696 13.7185L7.78897 11.5087C7.6688 11.3009 7.63657 11.0583 7.69867 10.8264C7.76111 10.5941 7.91016 10.4001 8.11862 10.2798L9.04883 9.74395C9.00183 9.43865 8.978 9.13101 8.978 8.82572C8.978 8.52043 9.00183 8.21279 9.04883 7.90783L8.11862 7.37164C7.91016 7.25166 7.76111 7.05763 7.69867 6.82539C7.63657 6.59315 7.6688 6.35052 7.78897 6.14275L9.06696 3.93297C9.18714 3.72486 9.3815 3.57607 9.61414 3.51373C9.84644 3.45107 10.0891 3.48357 10.2979 3.60355L11.2292 4.14041C11.7119 3.75234 12.2453 3.44437 12.821 3.22151V2.14946C12.821 1.65348 13.2252 1.25 13.722 1.25H16.278C16.7748 1.25 17.179 1.65348 17.179 2.14946V3.22151C17.7547 3.44437 18.2881 3.75234 18.7709 4.14041L19.7021 3.60355C19.9105 3.48357 20.1532 3.45107 20.3859 3.51373C20.6185 3.57607 20.8129 3.72486 20.9331 3.93297L22.211 6.14275ZM21.5376 6.77713C21.587 6.74865 21.6222 6.70274 21.637 6.64778C21.6518 6.59282 21.6444 6.53551 21.6155 6.48591L20.3375 4.27613C20.309 4.22687 20.263 4.19168 20.208 4.17694C20.1522 4.16152 20.0948 4.16923 20.0458 4.19805L18.9061 4.85489C18.7793 4.92794 18.6188 4.91253 18.508 4.81601C17.982 4.3569 17.3818 4.01072 16.7241 3.78652C16.5852 3.73927 16.4915 3.60857 16.4915 3.46179V2.14946C16.4915 2.03183 16.3958 1.93633 16.278 1.93633H13.722C13.6042 1.93633 13.5085 2.03183 13.5085 2.14946V3.46179C13.5085 3.60857 13.4149 3.73927 13.2759 3.78652C12.6183 4.01072 12.018 4.3569 11.492 4.81601C11.3812 4.91253 11.2208 4.92794 11.0939 4.85489L9.9542 4.19805C9.90519 4.16956 9.84745 4.16186 9.79206 4.17694C9.737 4.19168 9.69101 4.22687 9.66248 4.27613L8.38449 6.48591C8.35562 6.53551 8.34824 6.59282 8.36301 6.64778C8.37778 6.70274 8.41303 6.74865 8.46237 6.77713L9.60071 7.4333C9.72794 7.50669 9.79441 7.65247 9.76621 7.79657C9.69941 8.13705 9.6655 8.48323 9.6655 8.82572C9.6655 9.16788 9.69941 9.51439 9.76621 9.85521C9.79441 9.99931 9.72794 10.1451 9.60071 10.2185L8.46237 10.8743C8.41303 10.9028 8.37778 10.9487 8.36301 11.0037C8.34824 11.0586 8.35596 11.1159 8.38449 11.1655L9.66248 13.3753C9.69101 13.4246 9.737 13.4598 9.79206 13.4745C9.84745 13.4893 9.90485 13.4819 9.9542 13.4534L11.0939 12.7966C11.1473 12.7657 11.2067 12.7506 11.2658 12.7506C11.347 12.7506 11.4279 12.7795 11.492 12.8354C12.018 13.2945 12.6183 13.6407 13.2759 13.8649C13.4149 13.9122 13.5085 14.0429 13.5085 14.1896V15.502C13.5085 15.6196 13.6042 15.7151 13.722 15.7151H16.278C16.3958 15.7151 16.4915 15.6196 16.4915 15.502V14.1896C16.4915 14.0429 16.5852 13.9122 16.7241 13.8649C17.3818 13.6407 17.982 13.2945 18.508 12.8354C18.6188 12.7386 18.7793 12.7235 18.9061 12.7966L20.0458 13.4534C20.0952 13.4819 20.1522 13.4896 20.208 13.4745C20.263 13.4598 20.309 13.4246 20.3375 13.3753L21.6155 11.1655C21.6441 11.1159 21.6518 11.0586 21.637 11.0037C21.6222 10.9487 21.587 10.9028 21.5376 10.8743L20.3993 10.2185C20.2721 10.1451 20.2056 9.99931 20.2338 9.85521C20.3006 9.51439 20.3345 9.16788 20.3345 8.82572C20.3345 8.48323 20.3006 8.13705 20.2338 7.79657C20.2056 7.65247 20.2721 7.50669 20.3993 7.4333L21.5376 6.77713Z" stroke="white"/>
<path d="M19.7407 27.6196C19.4234 27.9346 18.9706 28.0764 18.5302 27.9969L8.14381 26.1451C8.124 26.1414 8.10352 26.1397 8.08338 26.1397H1.59375C1.40375 26.1397 1.25 26.2932 1.25 26.4829C1.25 26.6725 1.40375 26.826 1.59375 26.826H8.05283L18.4093 28.6725C18.5298 28.694 18.6507 28.7047 18.7712 28.7047C19.311 28.7044 19.836 28.4926 20.2254 28.1062L28.135 20.259C28.554 19.8435 28.7772 19.2674 28.7473 18.6789C28.7178 18.0901 28.4378 17.5395 27.9796 17.1679C27.2015 16.5375 26.0813 16.5482 25.3162 17.1947L20.5725 21.2014H20.2399V20.7808C20.2399 19.4567 19.1603 18.3793 17.8333 18.3793H14.0601L8.44022 17.2661C7.53989 17.0868 6.61741 17.319 5.90876 17.8998C5.28974 18.4068 4.90168 19.1256 4.81339 19.9091H1.59375C1.40375 19.9091 1.25 20.0626 1.25 20.2523C1.25 20.442 1.40375 20.5955 1.59375 20.5955H5.138C5.22931 20.5955 5.31659 20.5593 5.38105 20.4949C5.4455 20.4306 5.48175 20.3435 5.48175 20.2523C5.48175 19.5439 5.7963 18.8797 6.34482 18.4303C6.89435 17.9802 7.60972 17.8019 8.30662 17.939L13.9594 19.0589C13.9812 19.0633 14.0037 19.0657 14.0262 19.0657H17.8333C18.7813 19.0657 19.5524 19.8351 19.5524 20.7808V21.2014H13.297C13.107 21.2014 12.9533 21.3549 12.9533 21.5445C12.9533 21.7342 13.107 21.8877 13.297 21.8877H20.6984C20.7797 21.8877 20.8585 21.8589 20.9203 21.8066L25.76 17.7188C26.2729 17.2845 27.0239 17.2775 27.5462 17.7007C27.8534 17.9497 28.041 18.3187 28.0608 18.7131C28.0807 19.1079 27.9309 19.4936 27.6503 19.7724L19.7407 27.6196Z" stroke="white"/>
</svg>
