<svg width="23" height="23" viewBox="0 0 23 23" fill="none" xmlns="http://www.w3.org/2000/svg">
<path fill-rule="evenodd" clip-rule="evenodd" d="M11.5494 0.425049L11.6091 0.425052C14.4983 0.43372 17.2734 1.56324 19.3561 3.64594C20.6226 4.90968 21.5437 6.43954 22.0704 8.11474L22.1064 8.22926L22.1064 8.23128L22.1129 8.25253C22.7337 10.3229 22.733 12.5382 22.1101 14.6066L22.1038 14.6273L22.1038 14.6291L22.0862 14.6849L22.0702 14.7356L22.0508 14.797C21.528 16.4277 20.6282 17.9195 19.397 19.1633L19.3567 19.2038C17.2734 21.2871 14.4983 22.4166 11.6068 22.4253L11.5471 22.4253C8.66028 22.4166 5.88445 21.2861 3.79945 19.2038C2.53755 17.9419 1.61934 16.4214 1.09285 14.7576L1.08757 14.7421L1.08228 14.725L1.08009 14.7172L1.05238 14.6291L1.0524 14.6276L1.04241 14.5949C0.871723 14.0276 0.748148 13.4484 0.671533 12.86L0.662201 12.7864C0.575178 12.0902 0.555497 11.3908 0.603238 10.6916L0.616199 10.5324C0.631308 10.3554 0.650884 10.1703 0.674916 9.97269L0.676239 9.96237C0.704148 9.75585 0.737626 9.54941 0.776847 9.3421C0.854747 8.93312 0.957995 8.52364 1.08578 8.11474C1.61075 6.44516 2.53221 4.91653 3.79945 3.64654C5.88276 1.56324 8.65783 0.43372 11.5494 0.425049ZM13.341 2.15371C14.4881 3.80307 15.3116 5.64117 15.7824 7.58295H20.2C19.7422 6.55369 19.0995 5.6087 18.2886 4.79038L18.2508 4.75246C16.8857 3.38739 15.1768 2.50032 13.341 2.15371ZM14.1682 7.58295C13.6616 5.70698 12.7875 3.94675 11.5781 2.39701C10.3687 3.94675 9.49462 5.70696 8.98811 7.58295H14.1682ZM14.501 9.14695C14.7376 10.667 14.7358 12.2171 14.4955 13.7347H8.66071C8.42036 12.2171 8.4186 10.667 8.65518 9.14695H14.501ZM16.077 13.7347C16.2941 12.2148 16.2957 10.6687 16.082 9.14695H20.7365C21.1089 10.6525 21.1064 12.2314 20.7287 13.7347H16.077ZM14.1588 15.2987H8.99734C9.50453 17.1625 10.3755 18.912 11.5781 20.4532C12.7806 18.912 13.6516 17.1625 14.1588 15.2987ZM13.3408 20.6967C14.4817 19.056 15.3025 17.2286 15.774 15.2987H20.186C19.7225 16.3298 19.0719 17.2768 18.2508 18.0979C16.8857 19.463 15.1766 20.3501 13.3408 20.6967ZM7.07418 9.14695C6.86046 10.6687 6.86203 12.2148 7.07913 13.7347H2.42701C2.33277 13.36 2.2619 12.9796 2.21427 12.5936C2.13956 11.9959 2.12271 11.3971 2.1636 10.7981L2.17054 10.7133L2.17447 10.6661C2.18528 10.5396 2.19872 10.4076 2.21486 10.2678L2.22666 10.1681C2.25078 9.99006 2.27969 9.81197 2.3134 9.63379C2.34421 9.47204 2.37981 9.30965 2.42009 9.14695H7.07418ZM7.3822 15.2987H2.97026C3.42648 16.3139 4.0642 17.2475 4.86724 18.0595L4.90501 18.0975C6.27131 19.462 7.9812 20.3496 9.81526 20.6965C8.67441 19.0558 7.85367 17.2285 7.3822 15.2987ZM7.37374 7.58295C7.84455 5.64117 8.66808 3.80306 9.81519 2.1537C7.97942 2.50029 6.27058 3.38724 4.90597 4.75186C4.07674 5.58288 3.42079 6.54138 2.95662 7.58295H7.37374Z" fill="black"/>
</svg>
