<svg width="28" height="24" viewBox="0 0 28 24" fill="none" xmlns="http://www.w3.org/2000/svg">
<path fill-rule="evenodd" clip-rule="evenodd" d="M24.4873 0.75H3.27966C1.60861 0.75 0.25 2.10861 0.25 3.77966V18.928C0.25 20.599 1.60861 21.9576 3.27966 21.9576H17.2918C16.9522 21.4946 16.6708 20.986 16.4586 20.4428H3.27966C2.44651 20.4428 1.76483 19.7611 1.76483 18.928V3.77966C1.76483 2.94651 2.44651 2.26483 3.27966 2.26483H24.4873C25.3205 2.26483 26.0021 2.94651 26.0021 3.77966V12.2455C26.5641 12.5705 27.0741 12.9754 27.517 13.4444V3.77966C27.517 2.10861 26.1583 0.75 24.4873 0.75ZM22.5938 8.62712H17.2918C17.0835 8.62712 16.9131 8.79751 16.9131 9.00583V9.76324C16.9131 9.97156 17.0835 10.142 17.2918 10.142H22.5938C22.8021 10.142 22.9725 9.97156 22.9725 9.76324V9.00583C22.9725 8.79751 22.8021 8.62712 22.5938 8.62712ZM22.5938 5.59746H17.2918C17.0835 5.59746 16.9131 5.76785 16.9131 5.97617V6.73358C16.9131 6.9419 17.0835 7.11229 17.2918 7.11229H22.5938C22.8021 7.11229 22.9725 6.9419 22.9725 6.73358V5.97617C22.9725 5.76785 22.8021 5.59746 22.5938 5.59746ZM8.88454 11.6568C10.9769 11.6568 12.6716 9.96211 12.6716 7.86971C12.6716 5.7773 10.9769 4.08263 8.88454 4.08263C6.79218 4.08263 5.09746 5.7773 5.09746 7.86971C5.09746 9.96211 6.79218 11.6568 8.88454 11.6568ZM8.88454 5.59746C10.1391 5.59746 11.1568 6.61518 11.1568 7.86971C11.1568 9.12423 10.1391 10.142 8.88454 10.142C7.63001 10.142 6.61229 9.12423 6.61229 7.86971C6.61229 6.61518 7.63001 5.59746 8.88454 5.59746ZM10.0756 12.5712L10.0754 12.5713C9.75999 12.6569 9.43315 12.7455 8.88454 12.7455C8.33593 12.7455 8.00909 12.6569 7.69364 12.5713L7.69347 12.5712C7.39908 12.4914 7.11457 12.4142 6.6691 12.4142C5.66552 12.4142 4.69035 12.8592 4.12228 13.7113C3.78145 14.2178 3.58263 14.8285 3.58263 15.4865V16.58C3.58263 16.7883 3.75304 16.9587 3.96134 16.9587H4.71875C4.92705 16.9587 5.09746 16.7883 5.09746 16.58V15.4865C5.09746 15.1551 5.19687 14.8332 5.3815 14.5586C5.64658 14.1657 6.12944 13.9338 6.67383 13.9338C6.91361 13.9338 7.12181 13.989 7.36809 14.0545C7.72478 14.1492 8.1613 14.2651 8.88926 14.2651C9.61251 14.2651 10.0475 14.1498 10.4041 14.0553L10.4045 14.0552L10.4051 14.055C10.6525 13.9894 10.8624 13.9338 11.1047 13.9338C11.649 13.9338 12.132 14.1704 12.397 14.5586C12.5817 14.8332 12.6811 15.1551 12.6811 15.4865V16.58C12.6811 16.7883 12.8515 16.9587 13.0598 16.9587H13.8172C14.0255 16.9587 14.1959 16.7883 14.1959 16.58V15.4865C14.1959 14.8285 13.9972 14.2178 13.6563 13.7113C13.074 12.8592 12.0988 12.4142 11.0999 12.4142C10.6546 12.4142 10.3701 12.4914 10.0756 12.5712ZM27.5152 19.7739L26.8785 19.4059C26.9185 19.0885 26.9185 18.7674 26.8785 18.4501L27.5152 18.0821C27.7021 17.974 27.7923 17.7517 27.7308 17.5446C27.5119 16.8067 27.1221 16.1425 26.6075 15.5978C26.4584 15.4401 26.2206 15.4056 26.0327 15.5141L25.397 15.8816C25.1427 15.6878 24.8649 15.527 24.5703 15.4031V14.6679C24.5703 14.4503 24.4209 14.2612 24.2094 14.2111C23.4744 14.037 22.7037 14.037 21.9686 14.2111C21.7571 14.2612 21.6077 14.4503 21.6077 14.6679V15.4031C21.3131 15.527 21.0353 15.6878 20.781 15.8816L20.1453 15.5141C19.9574 15.4056 19.7195 15.4401 19.5705 15.5978C19.0558 16.1425 18.6661 16.8067 18.4471 17.5446C18.3857 17.7517 18.4758 17.974 18.6628 18.0821L19.2995 18.4501C19.2595 18.7674 19.2595 19.0885 19.2995 19.4059L18.6628 19.7739C18.4758 19.8819 18.3857 20.1043 18.4471 20.3114C18.6661 21.0492 19.0558 21.7134 19.5705 22.2581C19.7196 22.4159 19.9574 22.4504 20.1453 22.3418L20.781 21.9744C21.0353 22.1682 21.3131 22.3289 21.6077 22.4529V23.1881C21.6077 23.4056 21.7571 23.5947 21.9686 23.6448C22.7036 23.819 23.4743 23.819 24.2094 23.6448C24.4209 23.5947 24.5703 23.4057 24.5703 23.1881V22.4529C24.8649 22.3289 25.1427 22.1682 25.397 21.9744L26.0327 22.3418C26.2206 22.4504 26.4584 22.4159 26.6075 22.2581C27.1221 21.7134 27.5119 21.0492 27.7308 20.3114C27.7923 20.1043 27.7021 19.882 27.5152 19.7739ZM26.2367 21.7375L25.3325 21.2148C24.8056 21.6658 24.6187 21.7792 23.9455 22.0174V23.0627C23.3804 23.1794 22.7975 23.1794 22.2325 23.0627V22.0174C21.576 21.7852 21.386 21.6774 20.8454 21.2148L19.9413 21.7375C19.5564 21.3057 19.264 20.7995 19.0836 20.2528L19.9881 19.7301C19.8605 19.0379 19.8605 18.8184 19.9881 18.1258L19.0836 17.6032C19.264 17.0565 19.5565 16.5502 19.9413 16.1182L20.8454 16.6413C21.38 16.1832 21.5691 16.0732 22.2325 15.8385V14.7932C22.7975 14.6764 23.3805 14.6764 23.9455 14.7932V15.8386C24.6089 16.0732 24.7981 16.1833 25.3325 16.6413L26.2367 16.1182C26.6215 16.5502 26.914 17.0565 27.0944 17.6032L26.1898 18.1258C26.3175 18.8183 26.3175 19.0375 26.1898 19.7302L27.0944 20.2528C26.914 20.7995 26.6215 21.3057 26.2367 21.7375ZM21.2146 18.928C21.2146 17.8933 22.0555 17.0515 23.089 17.0515C24.1225 17.0515 24.9634 17.8933 24.9634 18.928C24.9634 19.9627 24.1225 20.8044 23.089 20.8044C22.0555 20.8044 21.2146 19.9627 21.2146 18.928ZM23.089 20.179C22.4 20.179 21.8394 19.6178 21.8394 18.928C21.8394 18.2382 22.4 17.677 23.089 17.677C23.778 17.677 24.3386 18.2382 24.3386 18.928C24.3386 19.6178 23.778 20.179 23.089 20.179Z" fill="white"/>
</svg>
