<svg width="30" height="30" viewBox="0 0 30 30" fill="none" xmlns="http://www.w3.org/2000/svg">
<path d="M11.94 12.23L15.0563 9.3725C15.1688 9.27125 15.3113 9.215 15.4613 9.215H19.2488C19.41 9.215 19.56 9.27875 19.6763 9.395L21.9525 11.6113H26.7C26.865 11.6113 27 11.4763 27 11.3113V10.7113C27 10.5463 26.865 10.4113 26.7 10.4113H22.4438L20.5238 8.54C20.1825 8.19875 19.7325 8.01125 19.2525 8.01125H15.465C15.075 8.01125 14.7113 8.1575 14.4038 8.38625C14.0888 8.1425 13.7025 8 13.305 8H10.6988C10.2225 8 9.765 8.19125 9.42375 8.52875L7.5525 10.4075H3.3C3.135 10.4075 3 10.5425 3 10.7075V11.3075C3 11.4725 3.135 11.6075 3.3 11.6075H8.0475L10.2713 9.38375C10.3838 9.27125 10.5375 9.2075 10.695 9.2075H13.3013C13.335 9.29 13.3125 9.23375 13.3425 9.31625L11.13 11.345C10.0725 12.3163 10.02 13.94 10.9725 14.9787C11.5088 15.5637 13.17 16.4525 14.6063 15.1363L15.4613 14.3525L20.1713 18.1738C20.4263 18.38 20.4675 18.7625 20.2575 19.0175L19.9013 19.4563C19.6988 19.7038 19.3238 19.76 19.0575 19.5425L18.39 19.0025L16.8338 20.915C16.5525 21.2638 16.0463 21.2975 15.7313 21.0425L14.5838 20.0638L14.1938 20.5438C13.5675 21.3125 12.4313 21.4325 11.6963 20.84L8.325 17.6113H3.3C3.135 17.6113 3 17.7463 3 17.9113V18.5113C3 18.6763 3.135 18.8113 3.3 18.8113H7.845L10.9013 21.7363C12.0188 22.64 13.5938 22.6138 14.6888 21.7288L14.9588 21.9613C15.3188 22.2538 15.7575 22.4075 16.215 22.4075C16.815 22.4075 17.3813 22.145 17.7675 21.6725L18.5888 20.6638C19.2038 20.9975 20.1975 21.0013 20.8388 20.2138L21.195 19.775C21.4275 19.49 21.555 19.1525 21.5888 18.8113H26.7C26.865 18.8113 27 18.6763 27 18.5113V17.9113C27 17.7463 26.865 17.6113 26.7 17.6113H21.255C21.1613 17.48 21.0563 17.3525 20.925 17.2437L16.3538 13.5313L17.4188 12.5525C17.6625 12.3275 17.6813 11.9488 17.4563 11.705C17.2313 11.4613 16.8525 11.4463 16.6088 11.6675L13.7925 14.2475C13.2525 14.7387 12.345 14.6975 11.8538 14.165C11.3475 13.6138 11.3813 12.7438 11.94 12.23V12.23Z" fill="white"/>
</svg>
