<svg width="24" height="22" viewBox="0 0 24 22" fill="none" xmlns="http://www.w3.org/2000/svg">
<path d="M11.2577 6.67431H12.7369C12.8786 6.67431 12.9911 6.79111 12.9869 6.93294L12.6744 15.109C12.6702 15.2425 12.5577 15.3509 12.4244 15.3509H11.5702C11.4369 15.3509 11.3244 15.2466 11.3202 15.109L11.0077 6.93294C11.0035 6.79111 11.116 6.67431 11.2577 6.67431ZM11.9994 16.1852C11.3535 16.1852 10.8327 16.7066 10.8327 17.3532C10.8327 17.9998 11.3535 18.5212 11.9994 18.5212C12.6452 18.5212 13.1661 17.9998 13.1661 17.3532C13.1661 16.7066 12.6452 16.1852 11.9994 16.1852ZM23.729 18.3544L13.7328 1.00115C12.9661 -0.333716 11.0368 -0.333716 10.266 1.00115L0.269724 18.3544C-0.496975 19.685 0.461398 21.3578 2.00313 21.3578H21.9998C23.5332 21.3578 24.4999 19.6892 23.729 18.3544ZM21.9998 20.0229H1.99896C1.48644 20.0229 1.16559 19.4681 1.41977 19.0218L11.4202 1.66858C11.6744 1.2264 12.3202 1.22223 12.5744 1.66858L22.5748 19.0218C22.8332 19.464 22.5123 20.0229 21.9998 20.0229Z" fill="white"/>
</svg>
