<svg width="28" height="28" viewBox="0 0 28 28" fill="none" xmlns="http://www.w3.org/2000/svg">
<path fill-rule="evenodd" clip-rule="evenodd" d="M18.7985 10.05C18.7586 10.0102 18.7113 9.97854 18.659 9.95695C18.6069 9.93536 18.551 9.92436 18.4945 9.92436C18.3845 9.92436 18.2743 9.9663 18.1906 10.05L12.4177 15.823L9.809 13.2142C9.76899 13.1743 9.72169 13.1425 9.66944 13.1211C9.61732 13.0995 9.56136 13.0884 9.50499 13.0885C9.39485 13.0885 9.28471 13.1304 9.20098 13.2142L8.5935 13.8217C8.42589 13.9893 8.42589 14.2615 8.5935 14.4291L12.1136 17.9494C12.1975 18.0331 12.3075 18.0751 12.4177 18.0751C12.5278 18.0751 12.6374 18.0331 12.7211 17.9494L19.4055 11.265C19.573 11.0975 19.573 10.8251 19.4055 10.6575L18.7985 10.05ZM27.75 14C27.75 12.0933 26.708 10.3369 25.0859 9.40777C25.5747 7.60309 25.0699 5.62647 23.7217 4.27832C22.3735 2.93018 20.3969 2.42529 18.5922 2.91406C17.6631 1.29199 15.9067 0.25 14 0.25C12.0933 0.25 10.3369 1.29199 9.40777 2.91406C7.60309 2.42529 5.62647 2.93018 4.27832 4.27832C2.93018 5.62647 2.42529 7.60309 2.91406 9.40777C1.29199 10.3369 0.25 12.0933 0.25 14C0.25 15.9067 1.29199 17.6631 2.91406 18.5922C2.42529 20.3969 2.93018 22.3735 4.27832 23.7217C5.70165 25.1451 7.68353 25.5532 9.40777 25.0859C10.3422 26.708 12.0933 27.75 14 27.75C15.9067 27.75 17.6578 26.708 18.5922 25.0859C20.3486 25.564 22.3199 25.1235 23.7217 23.7217C25.0699 22.3735 25.5747 20.3969 25.0859 18.5922C26.708 17.6631 27.75 15.9067 27.75 14ZM22.8569 17.6685C23.1416 18.3022 24.4415 20.5742 22.5078 22.5078C20.9556 24.06 19.4194 23.6518 17.6685 22.8569C17.4214 23.5069 16.7393 26.0312 14 26.0312C11.2016 26.0312 10.525 23.3726 10.3315 22.8569C8.58057 23.6518 7.03906 24.0493 5.49219 22.5078C3.51562 20.5366 4.90674 18.1841 5.14306 17.6685C4.49317 17.4214 1.96875 16.7393 1.96875 14C1.96875 11.2016 4.62744 10.525 5.14306 10.3315C4.8584 9.69776 3.55859 7.42585 5.49219 5.49219C7.46875 3.51025 9.8321 4.91748 10.3315 5.14306C10.5786 4.49317 11.2607 1.96875 14 1.96875C16.7984 1.96875 17.475 4.62744 17.6685 5.14306C18.3022 4.8584 20.5742 3.55859 22.5078 5.49219C24.4844 7.46339 23.0933 9.81588 22.8569 10.3315C23.5069 10.5786 26.0312 11.2607 26.0312 14C26.0312 16.7984 23.3726 17.475 22.8569 17.6685Z" fill="white"/>
</svg>
