<svg width="25" height="13" viewBox="0 0 25 13" fill="none" xmlns="http://www.w3.org/2000/svg">
<path fill-rule="evenodd" clip-rule="evenodd" d="M25 1C25 0.447715 24.5523 0 24 0H11C10.4477 0 10 0.447715 10 1C10 1.55228 10.4477 2 11 2H24C24.5523 2 25 1.55228 25 1ZM25 6.18067C25 6.73296 24.5523 7.18067 24 7.18067H5C4.44772 7.18067 4 6.73296 4 6.18067C4 5.62839 4.44772 5.18067 5 5.18067H24C24.5523 5.18067 25 5.62839 25 6.18067ZM25 11.3604C25 11.9127 24.5523 12.3604 24 12.3604H11C10.4477 12.3604 10 11.9127 10 11.3604C10 10.8082 10.4477 10.3604 11 10.3604H24C24.5523 10.3604 25 10.8082 25 11.3604Z" fill="#273043"/>
<path d="M2.66642 5.53176L6.00657 2.19171C6.13008 2.0681 6.29496 2 6.47076 2C6.64657 2 6.81144 2.0681 6.93496 2.19171L7.32822 2.58487C7.58412 2.84107 7.58412 3.25745 7.32822 3.51326L4.84396 5.99751L7.3332 8.48674C7.45671 8.61035 7.5249 8.77513 7.5249 8.95084C7.5249 9.12674 7.45671 9.29152 7.3332 9.41523L6.93993 9.80829C6.81632 9.9319 6.65154 10 6.47574 10C6.29994 10 6.13506 9.9319 6.01155 9.80829L2.66642 6.46336C2.54262 6.33936 2.47462 6.1738 2.47501 5.99781C2.47462 5.82112 2.54262 5.65566 2.66642 5.53176Z" fill="#273043"/>
</svg>
