<svg width="30" height="30" viewBox="0 0 30 30" fill="none" xmlns="http://www.w3.org/2000/svg">
<path d="M7.87454 8H13.0295C13.2873 8 13.4982 8.21002 13.4982 8.46672V8.77787C13.4982 9.03456 13.2873 9.24459 13.0295 9.24459H7.87454C7.53088 9.24459 7.24969 9.52462 7.24969 9.86688V21.0682C7.24969 21.4104 7.53088 21.6905 7.87454 21.6905H13.0295C13.2873 21.6905 13.4982 21.9005 13.4982 22.1572V22.4683C13.4982 22.725 13.2873 22.9351 13.0295 22.9351H7.87454C6.83964 22.9351 6 22.0989 6 21.0682V9.86688C6 8.83621 6.83964 8 7.87454 8ZM18.7703 8.75842L18.493 9.03456C18.3095 9.21736 18.3095 9.51295 18.493 9.69575L23.648 14.8063H12.7171C12.4594 14.8063 12.2485 15.0164 12.2485 15.2731V15.662C12.2485 15.9187 12.4594 16.1287 12.7171 16.1287H23.648L18.4969 21.2393C18.3134 21.4221 18.3134 21.7177 18.4969 21.9005L18.7742 22.1766C18.9578 22.3594 19.2546 22.3594 19.4381 22.1766L25.8623 15.7981C26.0459 15.6153 26.0459 15.3197 25.8623 15.1369L19.4342 8.75842C19.2507 8.57562 18.9539 8.57562 18.7703 8.75842Z" fill="#525969" stroke="#525969" stroke-width="0.2"/>
</svg>
