<svg width="18" height="18" viewBox="0 0 18 18" fill="none" xmlns="http://www.w3.org/2000/svg">
<path fill-rule="evenodd" clip-rule="evenodd" d="M8.99993 12.0001C8.82893 12.0001 8.65868 11.9424 8.51993 11.8261L4.01993 8.07611C3.70193 7.81136 3.65843 7.33811 3.92393 7.02011C4.18868 6.70211 4.66118 6.65936 4.97993 6.92411L9.00818 10.2811L13.0297 7.04486C13.3522 6.78536 13.8247 6.83636 14.0842 7.15886C14.3437 7.48136 14.2927 7.95311 13.9702 8.21336L9.47018 11.8344C9.33293 11.9446 9.16643 12.0001 8.99993 12.0001Z" fill="black"/>
<mask id="mask0_240_12862" style="mask-type:luminance" maskUnits="userSpaceOnUse" x="3" y="6" width="12" height="6">
<path fill-rule="evenodd" clip-rule="evenodd" d="M8.99993 12.0001C8.82893 12.0001 8.65868 11.9424 8.51993 11.8261L4.01993 8.07611C3.70193 7.81136 3.65843 7.33811 3.92393 7.02011C4.18868 6.70211 4.66118 6.65936 4.97993 6.92411L9.00818 10.2811L13.0297 7.04486C13.3522 6.78536 13.8247 6.83636 14.0842 7.15886C14.3437 7.48136 14.2927 7.95311 13.9702 8.21336L9.47018 11.8344C9.33293 11.9446 9.16643 12.0001 8.99993 12.0001Z" fill="white"/>
</mask>
<g mask="url(#mask0_240_12862)">
</g>
</svg>
