<svg width="30" height="30" viewBox="0 0 30 30" fill="none" xmlns="http://www.w3.org/2000/svg">
<path fill-rule="evenodd" clip-rule="evenodd" d="M6.5 6.25H24C25.3789 6.25 26.5 7.37109 26.5 8.75V16.7251C26.1346 16.3381 25.7137 16.004 25.25 15.7358V8.75C25.25 8.0625 24.6875 7.5 24 7.5H6.5C5.8125 7.5 5.25 8.0625 5.25 8.75V21.25C5.25 21.9375 5.8125 22.5 6.5 22.5H17.3749C17.55 22.9482 17.7822 23.3679 18.0625 23.75H6.5C5.12109 23.75 4 22.6289 4 21.25V8.75C4 7.37109 5.12109 6.25 6.5 6.25ZM18.0625 12.75H22.4375C22.6094 12.75 22.75 12.8906 22.75 13.0625V13.6875C22.75 13.8594 22.6094 14 22.4375 14H18.0625C17.8906 14 17.75 13.8594 17.75 13.6875V13.0625C17.75 12.8906 17.8906 12.75 18.0625 12.75ZM18.0625 10.25H22.4375C22.6094 10.25 22.75 10.3906 22.75 10.5625V11.1875C22.75 11.3594 22.6094 11.5 22.4375 11.5H18.0625C17.8906 11.5 17.75 11.3594 17.75 11.1875V10.5625C17.75 10.3906 17.8906 10.25 18.0625 10.25ZM14.25 12.125C14.25 13.8516 12.8516 15.25 11.125 15.25C9.39844 15.25 8 13.8516 8 12.125C8 10.3984 9.39844 9 11.125 9C12.8516 9 14.25 10.3984 14.25 12.125ZM13 12.125C13 11.0898 12.1602 10.25 11.125 10.25C10.0898 10.25 9.25 11.0898 9.25 12.125C9.25 13.1602 10.0898 14 11.125 14C12.1602 14 13 13.1602 13 12.125ZM12.1077 16.0046C12.3507 15.9387 12.5855 15.875 12.9531 15.875C13.7773 15.875 14.582 16.2422 15.0625 16.9453C15.3438 17.3633 15.5078 17.8672 15.5078 18.4102V19.3125C15.5078 19.4844 15.3672 19.625 15.1953 19.625H14.5703C14.3984 19.625 14.2578 19.4844 14.2578 19.3125V18.4102C14.2578 18.1367 14.1758 17.8711 14.0234 17.6445C13.8047 17.3242 13.4062 17.1289 12.957 17.1289C12.7569 17.1289 12.5836 17.1749 12.3792 17.2291C12.0849 17.3071 11.7259 17.4023 11.1289 17.4023C10.5282 17.4023 10.168 17.3067 9.87367 17.2285C9.67044 17.1745 9.49864 17.1289 9.30078 17.1289C8.85156 17.1289 8.45312 17.3203 8.23438 17.6445C8.08203 17.8711 8 18.1367 8 18.4102V19.3125C8 19.4844 7.85938 19.625 7.6875 19.625H7.0625C6.89062 19.625 6.75 19.4844 6.75 19.3125V18.4102C6.75 17.8672 6.91406 17.3633 7.19531 16.9453C7.66406 16.2422 8.46875 15.875 9.29688 15.875C9.66454 15.875 9.89933 15.9387 10.1423 16.0046C10.4026 16.0753 10.6723 16.1484 11.125 16.1484C11.5777 16.1484 11.8474 16.0753 12.1077 16.0046Z" fill="white"/>
<path d="M26.8978 21.9613L26.1801 21.5645C26.2525 21.1903 26.2525 20.8065 26.1801 20.4323L26.8978 20.0355C26.9804 19.9903 27.0174 19.8968 26.9905 19.8097C26.8035 19.2355 26.485 18.7161 26.0689 18.2839C26.0048 18.2178 25.9004 18.2016 25.8195 18.2468L25.1018 18.6436C24.8002 18.3952 24.4531 18.2032 24.0774 18.0774V17.2855C24.0774 17.1952 24.0117 17.1161 23.919 17.0968C23.3007 16.9645 22.6672 16.971 22.0792 17.0968C21.9865 17.1161 21.9208 17.1952 21.9208 17.2855V18.079C21.5467 18.2065 21.1997 18.3984 20.8964 18.6452L20.1803 18.2484C20.0978 18.2032 19.995 18.2178 19.931 18.2855C19.5148 18.7161 19.1964 19.2355 19.0094 19.8113C18.9807 19.8984 19.0195 19.9919 19.102 20.0371L19.8198 20.4339C19.7473 20.8081 19.7473 21.1919 19.8198 21.5661L19.102 21.9629C19.0195 22.0081 18.9824 22.1016 19.0094 22.1887C19.1964 22.7629 19.5148 23.2822 19.931 23.7145C19.995 23.7806 20.0995 23.7968 20.1803 23.7516L20.8981 23.3548C21.1997 23.6032 21.5467 23.7952 21.9225 23.921V24.7145C21.9225 24.8048 21.9882 24.8839 22.0808 24.9032C22.6992 25.0355 23.3327 25.029 23.9207 24.9032C24.0134 24.8839 24.0791 24.8048 24.0791 24.7145V23.921C24.4531 23.7935 24.8002 23.6016 25.1035 23.3548L25.8212 23.7516C25.9038 23.7968 26.0065 23.7822 26.0706 23.7145C26.4867 23.2839 26.8052 22.7645 26.9922 22.1887C27.0174 22.1 26.9804 22.0064 26.8978 21.9613ZM22.9991 22.2887C22.2561 22.2887 21.6512 21.7097 21.6512 20.9984C21.6512 20.2871 22.2561 19.7081 22.9991 19.7081C23.7421 19.7081 24.347 20.2871 24.347 20.9984C24.347 21.7097 23.7421 22.2887 22.9991 22.2887Z" fill="white"/>
</svg>
