<svg width="30" height="30" viewBox="0 0 30 30" fill="none" xmlns="http://www.w3.org/2000/svg">
<path d="M22.4125 8.05876L18.9175 4.58408C18.5425 4.21126 18.0342 4 17.5054 4H8.99958C7.89583 4.00414 7 4.89477 7 5.9921V23.2213C7 24.3187 7.89583 25.2093 8.99958 25.2093H21.0004C22.1042 25.2093 23 24.3187 23 23.2213V9.46678C23 8.9411 22.7875 8.43158 22.4125 8.05876ZM17.6679 5.35002C17.7846 5.37902 17.8887 5.43701 17.9762 5.524L21.4713 8.99868C21.5588 9.08568 21.6171 9.18924 21.6463 9.30523H17.6679V5.35002ZM21.6671 23.2213C21.6671 23.5859 21.3671 23.8841 21.0004 23.8841H8.99958C8.63292 23.8841 8.33292 23.5859 8.33292 23.2213V5.9921C8.33292 5.62757 8.63292 5.32558 8.99958 5.32558H16.3346V9.63662C16.3346 10.1876 16.7804 10.6279 17.3346 10.6279H21.6671V23.2213ZM14.1629 12.9763L11.3246 15.9485C10.9992 16.2881 10.9104 16.7898 11.0979 17.2256C11.2817 17.6527 11.6813 17.9182 12.1396 17.9182H14.3333V21.564C14.3333 21.747 14.4825 21.8953 14.6667 21.8953H15.3333C15.5175 21.8953 15.6667 21.747 15.6667 21.564V17.9178H17.8608C18.3192 17.9178 18.7188 17.6522 18.9025 17.2252C19.09 16.7894 19.0017 16.2881 18.6758 15.9489L15.8375 12.9754C15.3921 12.5119 14.6079 12.5115 14.1629 12.9763ZM12.5483 16.5922L15 14.0239L17.4517 16.5922H12.5483Z" fill="white"/>
</svg>
