<svg width="30" height="30" viewBox="0 0 30 30" fill="none" xmlns="http://www.w3.org/2000/svg">
<path d="M25.8715 13.4845L15.865 5.30677C15.6192 5.10826 15.313 5 14.9973 5C14.6816 5 14.3754 5.10826 14.1297 5.30677L4.12661 13.4845C4.05604 13.5421 4.01116 13.6254 4.00182 13.7161C3.99247 13.8068 4.01942 13.8975 4.07676 13.9683L4.51079 14.5024C4.56807 14.5728 4.65078 14.6177 4.74092 14.6273C4.83106 14.6369 4.92134 14.6104 4.9921 14.5537L6.74802 13.117V23.5759C6.74802 23.7585 6.82046 23.9337 6.94941 24.0628C7.07836 24.192 7.25325 24.2645 7.43561 24.2645H12.9363C13.1186 24.2645 13.2935 24.192 13.4225 24.0628C13.5514 23.9337 13.6239 23.7585 13.6239 23.5759V18.0667L16.3742 18.0796V23.5922C16.3742 23.7749 16.4466 23.95 16.5756 24.0792C16.7045 24.2083 16.8794 24.2809 17.0618 24.2809L22.5625 24.2667C22.7448 24.2667 22.9197 24.1941 23.0487 24.065C23.1776 23.9358 23.25 23.7607 23.25 23.578V13.117L25.006 14.5537C25.0767 14.6112 25.1674 14.6383 25.258 14.6289C25.3487 14.6196 25.4319 14.5745 25.4894 14.5037L25.9235 13.9696C25.9519 13.9344 25.9732 13.8938 25.986 13.8504C25.9988 13.8069 26.0029 13.7613 25.998 13.7163C25.9932 13.6712 25.9795 13.6275 25.9578 13.5878C25.9361 13.548 25.9068 13.5129 25.8715 13.4845ZM21.8702 22.8928H21.8745L17.7489 22.9057V17.3892C17.7484 17.2071 17.6761 17.0326 17.5477 16.9036C17.4193 16.7747 17.2453 16.7017 17.0635 16.7005L12.938 16.6889C12.8475 16.6886 12.7579 16.7062 12.6742 16.7407C12.5905 16.7752 12.5145 16.8259 12.4504 16.8899C12.3863 16.9538 12.3355 17.0299 12.3008 17.1135C12.2661 17.1972 12.2483 17.287 12.2483 17.3776V22.8928H8.12319V11.9932L14.999 6.37332L21.8749 11.9932L21.8702 22.8928Z" fill="white"/>
</svg>
