<svg width="62" height="56" viewBox="0 0 62 56" fill="none" xmlns="http://www.w3.org/2000/svg">
<path d="M47.298 1H5.78945C3.14428 1 1 3.12142 1 5.73839V40.4866C1 43.1036 3.14428 45.225 5.78945 45.225H47.298C49.9432 45.225 52.0875 43.1036 52.0875 40.4866V5.73839C52.0875 3.12142 49.9432 1 47.298 1ZM16.9648 42.0661H5.78945C4.9077 42.0661 4.19297 41.359 4.19297 40.4866V32.5893H16.9648V42.0661ZM16.9648 29.4304H4.19297V19.9536H16.9648V29.4304ZM16.9648 16.7946H4.19297V7.31786H16.9648V16.7946ZM32.9297 42.0661H20.1578V32.5893H32.9297V42.0661ZM32.9297 29.4304H20.1578V19.9536H32.9297V29.4304ZM32.9297 16.7946H20.1578V7.31786H32.9297V16.7946ZM48.8945 32.5893V40.4866C48.8945 41.359 48.1798 42.0661 47.298 42.0661H36.1227V32.5893H48.8945ZM48.8945 29.4304H36.1227V19.9536H48.8945V29.4304ZM48.8945 16.7946H36.1227V7.31786H48.8945V16.7946Z" fill="#D4D6D9" stroke="white" stroke-width="1.2"/>
<circle cx="47.5129" cy="41.4123" r="13.4875" fill="white" stroke="#D4D6D9" stroke-width="2"/>
<path d="M52.0972 38.333C52.5129 37.9173 52.5129 37.2434 52.0972 36.8278C51.6816 36.4121 51.0077 36.4121 50.592 36.8278L47.5123 39.9075L44.4326 36.8278C44.0169 36.4121 43.343 36.4121 42.9274 36.8278C42.5117 37.2434 42.5117 37.9173 42.9274 38.333L46.0071 41.4127L42.9274 44.4924C42.5118 44.9081 42.5117 45.582 42.9274 45.9976C43.343 46.4133 44.0169 46.4132 44.4326 45.9976L47.5123 42.9179L50.592 45.9976C51.0077 46.4132 51.6816 46.4133 52.0972 45.9976C52.5129 45.582 52.5129 44.9081 52.0972 44.4924L49.0175 41.4127L52.0972 38.333Z" fill="#D4D6D9"/>
</svg>
