<svg width="11" height="10" viewBox="0 0 11 10" fill="none" xmlns="http://www.w3.org/2000/svg">
<path fill-rule="evenodd" clip-rule="evenodd" d="M9.2937 0.416748H1.59961C1.19331 0.416748 0.862793 0.745725 0.862793 1.15251C0.862793 1.28044 0.895292 1.40524 0.95803 1.51503L0.962187 1.5223L0.994795 1.57448L4.10732 5.52522L4.10733 8.83068C4.10733 9.23746 4.43785 9.56643 4.84415 9.56643C4.94676 9.56643 5.0468 9.54583 5.13944 9.50523L5.15326 9.49899L5.18609 9.48367L6.3603 8.80446L6.40495 8.7827L6.41894 8.77449L6.42698 8.76971C6.64573 8.63776 6.78386 8.4008 6.78386 8.13952L6.78384 5.52526L9.89745 1.57342L9.93211 1.51798L9.93798 1.50725C9.99704 1.3994 10.0295 1.27736 10.0295 1.15145L10.0294 1.13925C10.0229 0.741582 9.70137 0.420817 9.30331 0.41678L9.2937 0.416748ZM1.83311 1.2661H9.05827L5.93451 5.23085L5.9345 8.06956L4.95667 8.63515L4.95669 5.23086L1.83311 1.2661Z" fill="#747C91"/>
</svg>
