<svg width="18" height="21" viewBox="0 0 18 21" fill="none" xmlns="http://www.w3.org/2000/svg">
<path d="M10.7679 16.8078H11.7321C11.86 16.8078 11.9827 16.7568 12.0731 16.6658C12.1635 16.5749 12.2143 16.4516 12.2143 16.323V7.59585C12.2143 7.46726 12.1635 7.34394 12.0731 7.25301C11.9827 7.16209 11.86 7.11101 11.7321 7.11101H10.7679C10.64 7.11101 10.5173 7.16209 10.4269 7.25301C10.3365 7.34394 10.2857 7.46726 10.2857 7.59585V16.323C10.2857 16.4516 10.3365 16.5749 10.4269 16.6658C10.5173 16.7568 10.64 16.8078 10.7679 16.8078ZM17.3571 3.23228H14.046L12.68 0.941401C12.5085 0.654138 12.266 0.416435 11.976 0.251454C11.6861 0.0864724 11.3586 -0.000159327 11.0254 2.19975e-07H6.9746C6.64158 -1.9748e-05 6.31422 0.0866783 6.02441 0.251653C5.73461 0.416627 5.49222 0.654256 5.32085 0.941401L3.95397 3.23228H0.642857C0.472361 3.23228 0.308848 3.30039 0.188289 3.42162C0.0677294 3.54285 0 3.70728 0 3.87873L0 4.52519C0 4.69664 0.0677294 4.86107 0.188289 4.9823C0.308848 5.10353 0.472361 5.17164 0.642857 5.17164H1.28571V18.7472C1.28571 19.2616 1.4889 19.7548 1.85058 20.1185C2.21226 20.4822 2.7028 20.6866 3.21429 20.6866H14.7857C15.2972 20.6866 15.7877 20.4822 16.1494 20.1185C16.5111 19.7548 16.7143 19.2616 16.7143 18.7472V5.17164H17.3571C17.5276 5.17164 17.6912 5.10353 17.8117 4.9823C17.9323 4.86107 18 4.69664 18 4.52519V3.87873C18 3.70728 17.9323 3.54285 17.8117 3.42162C17.6912 3.30039 17.5276 3.23228 17.3571 3.23228ZM6.90429 2.05694C6.92577 2.02098 6.95617 1.99124 6.99251 1.97063C7.02885 1.95002 7.06989 1.93925 7.11161 1.93937H10.8884C10.93 1.93932 10.971 1.95012 11.0073 1.97073C11.0435 1.99133 11.0739 2.02104 11.0953 2.05694L11.7968 3.23228H6.20317L6.90429 2.05694ZM14.7857 18.7472H3.21429V5.17164H14.7857V18.7472ZM6.26786 16.8078H7.23214C7.36001 16.8078 7.48265 16.7568 7.57307 16.6658C7.66349 16.5749 7.71429 16.4516 7.71429 16.323V7.59585C7.71429 7.46726 7.66349 7.34394 7.57307 7.25301C7.48265 7.16209 7.36001 7.11101 7.23214 7.11101H6.26786C6.13998 7.11101 6.01735 7.16209 5.92693 7.25301C5.83651 7.34394 5.78571 7.46726 5.78571 7.59585V16.323C5.78571 16.4516 5.83651 16.5749 5.92693 16.6658C6.01735 16.7568 6.13998 16.8078 6.26786 16.8078Z" fill="#525969"/>
</svg>
