<svg width="14" height="14" viewBox="0 0 14 14" fill="none" xmlns="http://www.w3.org/2000/svg">
<path d="M12.3594 11.8125C12.3594 12.1133 12.1133 12.3594 11.8125 12.3594C11.5117 12.3594 11.2656 12.1133 11.2656 11.8125C11.2656 11.5117 11.5117 11.2656 11.8125 11.2656C12.1133 11.2656 12.3594 11.5117 12.3594 11.8125ZM10.0625 11.2656C9.76172 11.2656 9.51562 11.5117 9.51562 11.8125C9.51562 12.1133 9.76172 12.3594 10.0625 12.3594C10.3633 12.3594 10.6094 12.1133 10.6094 11.8125C10.6094 11.5117 10.3633 11.2656 10.0625 11.2656ZM14 9.95312V12.7969C14 13.4613 13.4613 14 12.7969 14H1.20312C0.538672 14 0 13.4613 0 12.7969V9.95312C0 9.28867 0.538672 8.75 1.20312 8.75H3.92109L2.37891 7.20781C1.68984 6.51875 2.1793 5.34023 3.15273 5.34023H4.59375V1.09375C4.59375 0.489453 5.0832 0 5.6875 0H8.3125C8.9168 0 9.40625 0.489453 9.40625 1.09375V5.34023H10.8473C11.8207 5.34023 12.3074 6.51875 11.6211 7.20781L10.0789 8.75H12.7969C13.4613 8.75 14 9.28867 14 9.95312ZM6.84414 10.4371C6.92891 10.5219 7.06836 10.5219 7.15313 10.4371L11.0004 6.58984C11.1371 6.45312 11.0414 6.21523 10.8445 6.21523H8.53125V1.09375C8.53125 0.973437 8.43281 0.875 8.3125 0.875H5.6875C5.56719 0.875 5.46875 0.973437 5.46875 1.09375V6.21523H3.15273C2.95859 6.21523 2.86016 6.45039 2.99687 6.58984L6.84414 10.4371V10.4371ZM13.125 9.95312C13.125 9.77266 12.9773 9.625 12.7969 9.625H9.20391L7.77383 11.0551C7.34727 11.4816 6.65273 11.4816 6.22617 11.0551L4.79609 9.625H1.20312C1.02266 9.625 0.875 9.77266 0.875 9.95312V12.7969C0.875 12.9773 1.02266 13.125 1.20312 13.125H12.7969C12.9773 13.125 13.125 12.9773 13.125 12.7969V9.95312Z" fill="white"/>
</svg>
