<svg width="30" height="30" viewBox="0 0 30 30" fill="none" xmlns="http://www.w3.org/2000/svg">
<path d="M18.4898 12.1273C18.4608 12.0983 18.4264 12.0753 18.3884 12.0596C18.3505 12.0439 18.3098 12.0359 18.2687 12.0359C18.1887 12.0359 18.1086 12.0664 18.0477 12.1273L13.8492 16.3258L11.952 14.4285C11.9229 14.3995 11.8885 14.3764 11.8505 14.3608C11.8126 14.3451 11.7719 14.337 11.7309 14.3371C11.6508 14.3371 11.5707 14.3676 11.5098 14.4285L11.068 14.8703C10.9461 14.9922 10.9461 15.1902 11.068 15.3121L13.6281 17.8723C13.6891 17.9332 13.7691 17.9637 13.8492 17.9637C13.9293 17.9637 14.009 17.9332 14.0699 17.8723L18.9313 13.0109C19.0531 12.8891 19.0531 12.691 18.9313 12.5691L18.4898 12.1273ZM25 15C25 13.6133 24.2422 12.3359 23.0625 11.6602C23.418 10.3477 23.0508 8.91016 22.0703 7.92969C21.0898 6.94922 19.6523 6.58203 18.3398 6.9375C17.6641 5.75781 16.3867 5 15 5C13.6133 5 12.3359 5.75781 11.6602 6.9375C10.3477 6.58203 8.91016 6.94922 7.92969 7.92969C6.94922 8.91016 6.58203 10.3477 6.9375 11.6602C5.75781 12.3359 5 13.6133 5 15C5 16.3867 5.75781 17.6641 6.9375 18.3398C6.58203 19.6523 6.94922 21.0898 7.92969 22.0703C8.96484 23.1055 10.4062 23.4023 11.6602 23.0625C12.3398 24.2422 13.6133 25 15 25C16.3867 25 17.6602 24.2422 18.3398 23.0625C19.6172 23.4102 21.0508 23.0898 22.0703 22.0703C23.0508 21.0898 23.418 19.6523 23.0625 18.3398C24.2422 17.6641 25 16.3867 25 15ZM21.4414 17.668C21.6484 18.1289 22.5938 19.7812 21.1875 21.1875C20.0586 22.3164 18.9414 22.0195 17.668 21.4414C17.4883 21.9141 16.9922 23.75 15 23.75C12.9648 23.75 12.4727 21.8164 12.332 21.4414C11.0586 22.0195 9.9375 22.3086 8.8125 21.1875C7.375 19.7539 8.38672 18.043 8.55859 17.668C8.08594 17.4883 6.25 16.9922 6.25 15C6.25 12.9648 8.18359 12.4727 8.55859 12.332C8.35156 11.8711 7.40625 10.2188 8.8125 8.8125C10.25 7.37109 11.9688 8.39453 12.332 8.55859C12.5117 8.08594 13.0078 6.25 15 6.25C17.0352 6.25 17.5273 8.18359 17.668 8.55859C18.1289 8.35156 19.7812 7.40625 21.1875 8.8125C22.625 10.2461 21.6133 11.957 21.4414 12.332C21.9141 12.5117 23.75 13.0078 23.75 15C23.75 17.0352 21.8164 17.5273 21.4414 17.668Z" fill="white"/>
</svg>
