<svg width="20" height="18" viewBox="0 0 20 18" fill="none" xmlns="http://www.w3.org/2000/svg">
<path d="M14.6394 0H1.51442C0.67802 0 0 0.701082 0 1.56593V13.0495C0 13.9143 0.67802 14.6154 1.51442 14.6154H14.6394C15.4758 14.6154 16.1538 13.9143 16.1538 13.0495V1.56593C16.1538 0.701082 15.4758 0 14.6394 0ZM5.04808 13.5714H1.51442C1.23561 13.5714 1.00962 13.3377 1.00962 13.0495V10.4396H5.04808V13.5714ZM5.04808 9.3956H1.00962V6.26374H5.04808V9.3956ZM5.04808 5.21978H1.00962V2.08791H5.04808V5.21978ZM10.0962 13.5714H6.05769V10.4396H10.0962V13.5714ZM10.0962 9.3956H6.05769V6.26374H10.0962V9.3956ZM10.0962 5.21978H6.05769V2.08791H10.0962V5.21978ZM15.1442 10.4396V13.0495C15.1442 13.3377 14.9182 13.5714 14.6394 13.5714H11.1058V10.4396H15.1442ZM15.1442 9.3956H11.1058V6.26374H15.1442V9.3956ZM15.1442 5.21978H11.1058V2.08791H15.1442V5.21978Z" fill="#525969"/>
<circle cx="13.8462" cy="11.5386" r="5.50385" fill="white" stroke="#525969" stroke-width="1.3"/>
<path d="M16.8443 12.2778L16.2922 11.9726C16.3479 11.6848 16.3479 11.3895 16.2922 11.1016L16.8443 10.7964C16.9078 10.7617 16.9363 10.6897 16.9156 10.6227C16.7717 10.181 16.5268 9.78153 16.2066 9.44903C16.1574 9.39816 16.077 9.38575 16.0148 9.42049L15.4627 9.7257C15.2307 9.53463 14.9637 9.38699 14.6747 9.29022V8.68104C14.6747 8.61156 14.6242 8.55077 14.5529 8.53588C14.0773 8.43414 13.5899 8.4391 13.1376 8.53588C13.0663 8.55077 13.0158 8.61156 13.0158 8.68104V9.29146C12.7281 9.38947 12.4611 9.53712 12.2278 9.72694L11.677 9.42173C11.6135 9.38699 11.5344 9.39816 11.4852 9.45027C11.1651 9.78153 10.9201 10.181 10.7763 10.624C10.7542 10.691 10.784 10.7629 10.8475 10.7977L11.3996 11.1029C11.3439 11.3907 11.3439 11.686 11.3996 11.9738L10.8475 12.279C10.784 12.3138 10.7555 12.3857 10.7763 12.4527C10.9201 12.8944 11.1651 13.2939 11.4852 13.6264C11.5344 13.6773 11.6148 13.6897 11.677 13.655L12.2291 13.3498C12.4611 13.5408 12.7281 13.6885 13.0171 13.7852V14.3957C13.0171 14.4651 13.0676 14.5259 13.1389 14.5408C13.6146 14.6426 14.1019 14.6376 14.5542 14.5408C14.6255 14.5259 14.676 14.4651 14.676 14.3957V13.7852C14.9637 13.6872 15.2307 13.5396 15.464 13.3498L16.0161 13.655C16.0796 13.6897 16.1587 13.6785 16.2079 13.6264C16.5281 13.2952 16.773 12.8957 16.9169 12.4527C16.9363 12.3845 16.9078 12.3125 16.8443 12.2778ZM13.8453 12.5297C13.2737 12.5297 12.8084 12.0843 12.8084 11.5371C12.8084 10.99 13.2737 10.5446 13.8453 10.5446C14.4168 10.5446 14.8821 10.99 14.8821 11.5371C14.8821 12.0843 14.4168 12.5297 13.8453 12.5297Z" fill="#525969"/>
</svg>
