<svg width="25" height="13" viewBox="0 0 25 13" fill="none" xmlns="http://www.w3.org/2000/svg">
<path fill-rule="evenodd" clip-rule="evenodd" d="M0 1C0 0.447715 0.447715 0 1 0H14C14.5523 0 15 0.447715 15 1C15 1.55228 14.5523 2 14 2H1C0.447715 2 0 1.55228 0 1ZM0 6.18067C0 6.73296 0.447715 7.18067 1 7.18067H20C20.5523 7.18067 21 6.73296 21 6.18067C21 5.62839 20.5523 5.18067 20 5.18067H1C0.447715 5.18067 0 5.62839 0 6.18067ZM0 11.3604C0 11.9127 0.447715 12.3604 1 12.3604H14C14.5523 12.3604 15 11.9127 15 11.3604C15 10.8082 14.5523 10.3604 14 10.3604H1C0.447715 10.3604 0 10.8082 0 11.3604Z" fill="#273043"/>
<path d="M22.3335 5.53176L18.9934 2.19171C18.8699 2.0681 18.705 2 18.5292 2C18.3534 2 18.1885 2.0681 18.065 2.19171L17.6717 2.58487C17.4158 2.84107 17.4158 3.25745 17.6717 3.51326L20.156 5.99751L17.6668 8.48674C17.5433 8.61035 17.4751 8.77513 17.4751 8.95084C17.4751 9.12674 17.5433 9.29152 17.6668 9.41523L18.06 9.80829C18.1836 9.9319 18.3484 10 18.5242 10C18.7 10 18.8649 9.9319 18.9884 9.80829L22.3335 6.46336C22.4574 6.33936 22.5254 6.1738 22.525 5.99781C22.5254 5.82112 22.4574 5.65566 22.3335 5.53176Z" fill="#273043"/>
</svg>
