<svg width="20" height="20" viewBox="0 0 20 20" fill="none" xmlns="http://www.w3.org/2000/svg">
<path d="M11.5 0C12.879 0 14 1.044 14 2.328V4H19C19.55 4 20 4.45 20 5C20 5.55 19.55 6 19 6H18V17C18 18.654 16.654 20 15 20H5C3.346 20 2 18.654 2 17V6H1C0.45 6 0 5.55 0 5C0 4.45 0.45 4 1 4H6V2.328C6 1.044 7.121 0 8.5 0H11.5ZM16 6H4V17C4 17.551 4.448 18 5 18H15C15.552 18 16 17.551 16 17V6ZM7 9C7.55 9 8 9.45 8 10V14C8 14.55 7.55 15 7 15C6.45 15 6 14.55 6 14V10C6 9.45 6.45 9 7 9ZM13 9C13.55 9 14 9.45 14 10V14C14 14.55 13.55 15 13 15C12.45 15 12 14.55 12 14V10C12 9.45 12.45 9 13 9Z" fill="#E53012"/>
</svg>
