<svg width="28" height="25" viewBox="0 0 28 25" fill="none" xmlns="http://www.w3.org/2000/svg">
<path fill-rule="evenodd" clip-rule="evenodd" d="M20.0742 0.75H2.30078C1.16815 0.75 0.25 1.69938 0.25 2.87053V18.4212C0.25 19.5923 1.16815 20.5417 2.30078 20.5417H12.5257C14.0257 22.7425 16.5524 24.1875 19.4167 24.1875C24.019 24.1875 27.75 20.4565 27.75 15.8542C27.75 12.1999 25.3978 9.09492 22.1249 7.97079V2.87053C22.1249 1.69938 21.2068 0.75 20.0742 0.75ZM11.0833 15.8542C11.0833 17.0163 11.3212 18.1229 11.751 19.1279H8.45312V14.887H11.1389C11.1022 15.2043 11.0833 15.527 11.0833 15.8542ZM13.9219 9.58885C12.7583 10.6102 11.8816 11.9505 11.4284 13.4732H8.45312V9.23214H13.9219V9.58885ZM19.4167 7.52083C19.8732 7.52083 20.3212 7.55754 20.7578 7.62818V3.57738H15.2891V7.81845H17.2015C17.9069 7.62445 18.6497 7.52083 19.4167 7.52083ZM7.08594 19.1279H2.30078C1.92322 19.1279 1.61719 18.8115 1.61719 18.4212V14.887H7.08594V19.1279ZM1.61719 13.4732H7.08594V9.23214H1.61719V13.4732ZM7.08594 7.81845H1.61719V3.57738H7.08594V7.81845ZM8.45312 7.81845H13.9219V3.57738H8.45312V7.81845ZM25.9896 15.8542C25.9896 12.224 23.0468 9.28125 19.4167 9.28125C15.7865 9.28125 12.8437 12.224 12.8437 15.8542C12.8437 19.4843 15.7865 22.4271 19.4167 22.4271C23.0468 22.4271 25.9896 19.4843 25.9896 15.8542ZM22.9519 16.474L22.405 16.1579C22.4393 15.8853 22.4393 15.6095 22.405 15.3369L22.9519 15.0208C23.1125 14.9279 23.19 14.7369 23.1372 14.559C22.9491 13.9252 22.6143 13.3546 22.1722 12.8867C22.0441 12.7512 21.8398 12.7216 21.6784 12.8148L21.1323 13.1305C20.9139 12.964 20.6753 12.8259 20.4222 12.7194V12.0879C20.4222 11.901 20.2939 11.7386 20.1122 11.6955C19.4808 11.5459 18.8188 11.5459 18.1873 11.6955C18.0056 11.7386 17.8772 11.901 17.8772 12.0879V12.7194C17.6242 12.8259 17.3856 12.964 17.1671 13.1305L16.621 12.8148C16.4596 12.7216 16.2553 12.7512 16.1273 12.8867C15.6852 13.3546 15.3504 13.9252 15.1623 14.559C15.1095 14.7369 15.187 14.9279 15.3476 15.0208L15.8945 15.3369C15.8601 15.6095 15.8601 15.8853 15.8945 16.1579L15.3476 16.474C15.187 16.5668 15.1095 16.7578 15.1623 16.9358C15.3504 17.5696 15.6852 18.1401 16.1273 18.6081C16.2553 18.7436 16.4597 18.7732 16.621 18.68L17.1671 18.3643C17.3856 18.5308 17.6242 18.6689 17.8772 18.7753V19.4069C17.8772 19.5938 18.0056 19.7562 18.1873 19.7993C18.8187 19.9488 19.4807 19.9488 20.1122 19.7993C20.2939 19.7562 20.4222 19.5938 20.4222 19.4069V18.7753C20.6753 18.6689 20.9139 18.5308 21.1323 18.3643L21.6784 18.68C21.8398 18.7732 22.0441 18.7436 22.1722 18.6081C22.6143 18.1401 22.9491 17.5696 23.1372 16.9358C23.19 16.7578 23.1125 16.5669 22.9519 16.474ZM21.8537 18.1608L21.077 17.7118C20.6243 18.0992 20.4638 18.1967 19.8855 18.4013V19.2992C19.4001 19.3994 18.8994 19.3994 18.4139 19.2992V18.4013C17.8501 18.2018 17.6868 18.1092 17.2225 17.7118L16.4458 18.1608C16.1152 17.7899 15.864 17.355 15.709 16.8854L16.486 16.4365C16.3764 15.8418 16.3764 15.6533 16.486 15.0583L15.709 14.6094C15.864 14.1397 16.1152 13.7048 16.4458 13.3338L17.2225 13.7831C17.6817 13.3896 17.8441 13.2951 18.4139 13.0935V12.1956C18.8994 12.0952 19.4001 12.0952 19.8855 12.1956V13.0935C20.4554 13.2951 20.6179 13.3897 21.077 13.7831L21.8537 13.3338C22.1843 13.7048 22.4355 14.1397 22.5905 14.6094L21.8134 15.0583C21.923 15.6532 21.9231 15.8415 21.8134 16.4365L22.5905 16.8855C22.4355 17.355 22.1843 17.7899 21.8537 18.1608ZM17.5396 15.7474C17.5396 14.8586 18.2619 14.1355 19.1497 14.1355C20.0376 14.1355 20.7599 14.8586 20.7599 15.7474C20.7599 16.6362 20.0376 17.3593 19.1497 17.3593C18.2619 17.3593 17.5396 16.6362 17.5396 15.7474ZM19.1497 16.822C18.5579 16.822 18.0763 16.3399 18.0763 15.7474C18.0763 15.1548 18.5579 14.6728 19.1497 14.6728C19.7416 14.6728 20.2232 15.1548 20.2232 15.7474C20.2232 16.3399 19.7416 16.822 19.1497 16.822Z" fill="white"/>
</svg>
