<svg width="28" height="17" viewBox="0 0 28 17" fill="none" xmlns="http://www.w3.org/2000/svg">
<path fill-rule="evenodd" clip-rule="evenodd" d="M10.4937 5.09688L14.0645 1.82266C14.1934 1.70664 14.3567 1.64219 14.5286 1.64219H18.8684C19.0531 1.64219 19.225 1.71523 19.3583 1.84844L21.9664 4.38795H27.4062C27.5953 4.38795 27.75 4.23326 27.75 4.0442V3.3567C27.75 3.16764 27.5953 3.01295 27.4062 3.01295H22.5294L20.3294 0.86875C19.9383 0.477734 19.4227 0.262891 18.8727 0.262891H14.5328C14.0859 0.262891 13.6692 0.430469 13.3169 0.692578C12.9559 0.413281 12.5133 0.25 12.0578 0.25H9.07154C8.52578 0.25 8.00156 0.469141 7.61055 0.855859L5.46641 3.00859H0.59375C0.404687 3.00859 0.25 3.16328 0.25 3.35234V4.03984C0.25 4.22891 0.404687 4.38359 0.59375 4.38359H6.03359L8.5817 1.83555C8.7106 1.70664 8.88672 1.63359 9.06719 1.63359H12.0536C12.0922 1.72813 12.0664 1.66367 12.1008 1.7582L9.56563 4.08281C8.35391 5.19576 8.29375 7.05625 9.38516 8.24643C9.99967 8.91674 11.9031 9.93516 13.5489 8.42701L14.5286 7.52891L19.9254 11.9075C20.2176 12.1438 20.2648 12.582 20.0242 12.8742L19.6161 13.377C19.384 13.6606 18.9544 13.725 18.6492 13.4758L17.8844 12.857L16.1012 15.0484C15.7789 15.4481 15.1989 15.4867 14.8379 15.1945L13.5231 14.0731L13.0762 14.6231C12.3586 15.5039 11.0567 15.6414 10.2145 14.9625L6.35156 11.2629H0.59375C0.404687 11.2629 0.25 11.4176 0.25 11.6067V12.2942C0.25 12.4833 0.404687 12.6379 0.59375 12.6379H5.80156L9.30357 15.9895C10.584 17.025 12.3887 16.995 13.6434 15.9809L13.9528 16.2473C14.3653 16.5825 14.868 16.7586 15.3922 16.7586C16.0797 16.7586 16.7286 16.4578 17.1711 15.9164L18.1122 14.7606C18.8169 15.143 19.9555 15.1473 20.6903 14.245L21.0984 13.7422C21.3648 13.4156 21.5109 13.0289 21.5497 12.6379H27.4062C27.5953 12.6379 27.75 12.4833 27.75 12.2942V11.6067C27.75 11.4176 27.5953 11.2629 27.4062 11.2629H21.1672C21.0598 11.1125 20.9395 10.9664 20.7891 10.8417L15.5512 6.58795L16.7715 5.46641C17.0508 5.20859 17.0723 4.77467 16.8145 4.49531C16.5567 4.21607 16.1227 4.19889 15.8434 4.45234L12.6164 7.40859C11.9977 7.97143 10.9578 7.92422 10.395 7.31406C9.81484 6.68248 9.85357 5.6856 10.4937 5.09688Z" fill="white"/>
</svg>
