<svg width="24" height="24" viewBox="0 0 24 24" fill="none" xmlns="http://www.w3.org/2000/svg">
<path d="M12 1.54839C17.7397 1.54839 22.4516 6.19718 22.4516 12C22.4516 17.7721 17.7769 22.4516 12 22.4516C6.23013 22.4516 1.54839 17.7793 1.54839 12C1.54839 6.23211 6.22268 1.54839 12 1.54839ZM12 0C5.37305 0 0 5.37498 0 12C0 18.6289 5.37305 24 12 24C18.627 24 24 18.6289 24 12C24 5.37498 18.627 0 12 0ZM10.2581 16.6452H10.8387V10.8387H10.2581C9.9374 10.8387 9.67742 10.5787 9.67742 10.2581V9.87097C9.67742 9.55031 9.9374 9.29032 10.2581 9.29032H12.5806C12.9013 9.29032 13.1613 9.55031 13.1613 9.87097V16.6452H13.7419C14.0626 16.6452 14.3226 16.9051 14.3226 17.2258V17.6129C14.3226 17.9336 14.0626 18.1935 13.7419 18.1935H10.2581C9.9374 18.1935 9.67742 17.9336 9.67742 17.6129V17.2258C9.67742 16.9051 9.9374 16.6452 10.2581 16.6452ZM12 5.03226C11.1449 5.03226 10.4516 5.7255 10.4516 6.58064C10.4516 7.43579 11.1449 8.12903 12 8.12903C12.8551 8.12903 13.5484 7.43579 13.5484 6.58064C13.5484 5.7255 12.8551 5.03226 12 5.03226Z" fill="white"/>
</svg>
