<svg width="30" height="30" viewBox="0 0 30 30" fill="none" xmlns="http://www.w3.org/2000/svg">
<path fill-rule="evenodd" clip-rule="evenodd" d="M14.1964 5.01203C11.7835 5.23212 9.62271 6.23912 7.92807 7.93328C6.37825 9.48259 5.44266 11.3302 5.0833 13.551C4.97223 14.2377 4.97223 15.7721 5.0833 16.4587C5.19038 17.1203 5.39478 17.9224 5.58948 18.4449C6.73967 21.5313 9.31064 23.8688 12.4526 24.6847C13.4421 24.9416 13.9142 25 15.0018 25C16.0599 25 16.537 24.9437 17.4808 24.7076C20.9636 23.8363 23.7784 21.0409 24.6846 17.5534C24.9416 16.5641 25 16.0922 25 15.0049C25 13.9175 24.9416 13.4457 24.6846 12.4564C23.6874 8.61851 20.4551 5.71157 16.5009 5.09653C16.0654 5.0288 14.601 4.97512 14.1964 5.01203ZM15.852 6.46163C17.6432 6.64745 19.3304 7.38565 20.6951 8.58071C21.9243 9.65714 22.9013 11.241 23.3022 12.8075C23.5227 13.6685 23.5665 14.0328 23.5665 15.0049C23.5665 15.9531 23.5231 16.3313 23.3227 17.1298C22.9211 18.7293 21.9332 20.3456 20.6951 21.4287C18.5599 23.2964 15.6997 24.0083 12.9882 23.3467C10.4742 22.7333 8.42065 21.0781 7.28461 18.7497C5.76073 15.6262 6.26302 11.956 8.57611 9.31341C9.70934 8.01868 11.397 7.01825 13.0956 6.63434C13.9701 6.43666 14.9932 6.37256 15.852 6.46163ZM11.8696 10.7583C11.6756 10.8398 11.5837 10.9583 10.7889 12.152L10.0125 13.318V13.5766C10.0125 13.856 10.0866 13.9999 10.3206 14.1745C10.4435 14.2663 10.4684 14.2668 15.0018 14.2668C19.5353 14.2668 19.5602 14.2663 19.6831 14.1745C19.9179 13.9993 19.9912 13.8563 19.9912 13.5734C19.9912 13.2905 19.9179 13.1475 19.6831 12.9723C19.5609 12.8811 19.5179 12.8799 15.8043 12.8681L12.0491 12.8562L12.4404 12.2691C12.8194 11.7002 12.8316 11.6739 12.8316 11.4231C12.8316 11.1457 12.7574 10.9996 12.5301 10.83C12.3942 10.7286 12.0334 10.6894 11.8696 10.7583ZM10.413 15.7832C9.99353 15.9669 9.86179 16.537 10.1576 16.8885C10.3883 17.1626 10.2251 17.1521 14.2623 17.1521H17.9555L17.5638 17.74C17.1843 18.3096 17.1721 18.3359 17.1721 18.5866C17.1721 18.8663 17.2462 19.0101 17.4802 19.1847C17.6526 19.3135 18.0766 19.3139 18.254 19.1855C18.3235 19.1353 18.7427 18.5542 19.1857 17.8942L19.9912 16.6943V16.4344C19.9912 16.1537 19.9174 16.0101 19.6831 15.8352C19.5605 15.7437 19.5272 15.7429 15.0545 15.7333C11.3776 15.7252 10.5244 15.7345 10.413 15.7832Z" fill="white"/>
</svg>
