<svg width="30" height="30" viewBox="0 0 30 30" fill="none" xmlns="http://www.w3.org/2000/svg">
<path d="M22.3125 7H7.6875C6.75586 7 6 7.75826 6 8.69286V21.1071C6 22.0417 6.75586 22.8 7.6875 22.8H22.3125C23.2441 22.8 24 22.0417 24 21.1071V8.69286C24 7.75826 23.2441 7 22.3125 7ZM7.125 8.69286C7.125 8.3825 7.37812 8.12857 7.6875 8.12857H9.375V10.3857H7.125V8.69286ZM22.875 21.1071C22.875 21.4175 22.6219 21.6714 22.3125 21.6714H7.6875C7.37812 21.6714 7.125 21.4175 7.125 21.1071V11.5143H22.875V21.1071ZM22.875 10.3857H10.5V8.12857H22.3125C22.6219 8.12857 22.875 8.3825 22.875 8.69286V10.3857Z" fill="#525969"/>
<path d="M17.9234 16.8982L17.3851 16.5864C17.4394 16.2924 17.4394 15.9908 17.3851 15.6968L17.9234 15.385C17.9853 15.3495 18.0131 15.276 17.9929 15.2076C17.8526 14.7565 17.6138 14.3484 17.3017 14.0088C17.2536 13.9568 17.1753 13.9441 17.1146 13.9796L16.5763 14.2914C16.3501 14.0962 16.0898 13.9454 15.808 13.8466V13.2243C15.808 13.1534 15.7588 13.0913 15.6893 13.076C15.2255 12.9721 14.7504 12.9772 14.3094 13.076C14.2399 13.0913 14.1906 13.1534 14.1906 13.2243V13.8478C13.9101 13.9479 13.6498 14.0987 13.4223 14.2926L12.8853 13.9809C12.8233 13.9454 12.7463 13.9568 12.6982 14.01C12.3861 14.3484 12.1473 14.7565 12.007 15.2089C11.9855 15.2773 12.0146 15.3508 12.0765 15.3863L12.6148 15.698C12.5605 15.9921 12.5605 16.2937 12.6148 16.5877L12.0765 16.8994C12.0146 16.9349 11.9868 17.0084 12.007 17.0768C12.1473 17.528 12.3861 17.9361 12.6982 18.2757C12.7463 18.3276 12.8246 18.3403 12.8853 18.3048L13.4236 17.9931C13.6498 18.1882 13.9101 18.339 14.1919 18.4379V19.0614C14.1919 19.1324 14.2411 19.1945 14.3106 19.2097C14.7744 19.3136 15.2495 19.3085 15.6905 19.2097C15.76 19.1945 15.8093 19.1324 15.8093 19.0614V18.4379C16.0898 18.3378 16.3501 18.187 16.5776 17.9931L17.1159 18.3048C17.1778 18.3403 17.2549 18.3289 17.3029 18.2757C17.615 17.9373 17.8539 17.5293 17.9941 17.0768C18.0131 17.0071 17.9853 16.9336 17.9234 16.8982V16.8982ZM14.9993 17.1554C14.4421 17.1554 13.9884 16.7005 13.9884 16.1416C13.9884 15.5827 14.4421 15.1278 14.9993 15.1278C15.5566 15.1278 16.0102 15.5827 16.0102 16.1416C16.0102 16.7005 15.5566 17.1554 14.9993 17.1554Z" fill="#525969"/>
</svg>
