<svg width="18" height="18" viewBox="0 0 18 18" fill="none" xmlns="http://www.w3.org/2000/svg">
<path d="M14.2192 9.43795L9.34152 14.3156C9.15268 14.5045 8.84732 14.5045 8.65848 14.3156L3.7808 9.43795C3.59196 9.24911 3.59196 8.94375 3.7808 8.75491L4.5683 7.96741C4.76116 7.77455 5.07054 7.77857 5.25937 7.97545L7.95536 10.8V4.33929C7.95536 4.07411 8.17232 3.85714 8.4375 3.85714H9.5625C9.82768 3.85714 10.0446 4.07411 10.0446 4.33929V10.8L12.7406 7.97545C12.9295 7.77857 13.2388 7.77455 13.4317 7.96741L14.2192 8.75491C14.408 8.94375 14.408 9.24911 14.2192 9.43795ZM18 1.92857V16.0714C18 17.1362 17.1362 18 16.0714 18H1.92857C0.863839 18 0 17.1362 0 16.0714V1.92857C0 0.863839 0.863839 0 1.92857 0H16.0714C17.1362 0 18 0.863839 18 1.92857ZM16.0714 15.8304V2.16964C16.0714 2.03705 15.9629 1.92857 15.8304 1.92857H2.16964C2.03705 1.92857 1.92857 2.03705 1.92857 2.16964V15.8304C1.92857 15.9629 2.03705 16.0714 2.16964 16.0714H15.8304C15.9629 16.0714 16.0714 15.9629 16.0714 15.8304Z" fill="#525969"/>
</svg>
