<svg width="17" height="15" viewBox="0 0 17 15" fill="none" xmlns="http://www.w3.org/2000/svg">
<path d="M15.4306 8.4375H12.739L14.0862 7.08691C14.9659 6.20508 14.3434 4.6875 13.0955 4.6875H11.2251V1.40625C11.2251 0.629883 10.5968 0 9.82237 0H7.01681C6.24236 0 5.61403 0.629883 5.61403 1.40625V4.6875H3.74366C2.4987 4.6875 1.86745 6.20215 2.75295 7.08691L4.1002 8.4375H1.40278C0.628327 8.4375 0 9.06738 0 9.84375V13.5938C0 14.3701 0.628327 15 1.40278 15H15.4306C16.205 15 16.8333 14.3701 16.8333 13.5938V9.84375C16.8333 9.06738 16.205 8.4375 15.4306 8.4375ZM3.74074 6.09375H7.01389V1.40625H9.81944V6.09375H13.0926L8.41667 10.7812L3.74074 6.09375ZM15.4306 13.5938H1.40278V9.84375H5.49714L7.42303 11.7744C7.97245 12.3252 8.85796 12.3223 9.40738 11.7744L11.3333 9.84375H15.4306V13.5938ZM12.8588 11.7188C12.8588 11.3291 13.1715 11.0156 13.5602 11.0156C13.9489 11.0156 14.2616 11.3291 14.2616 11.7188C14.2616 12.1084 13.9489 12.4219 13.5602 12.4219C13.1715 12.4219 12.8588 12.1084 12.8588 11.7188Z" fill="#525969"/>
</svg>
