<svg width="21" height="28" viewBox="0 0 21 28" fill="none" xmlns="http://www.w3.org/2000/svg">
<path fill-rule="evenodd" clip-rule="evenodd" d="M19.9839 5.51259L15.4522 1.00732C14.966 0.52392 14.307 0.25 13.6213 0.25H2.59266C1.16153 0.255368 0 1.41016 0 2.83296V25.1724C0 26.5952 1.16153 27.75 2.59266 27.75H18.1529C19.5841 27.75 20.7456 26.5952 20.7456 25.1724V7.33823C20.7456 6.65664 20.4701 5.99599 19.9839 5.51259ZM13.832 2.00044C13.9833 2.03804 14.1183 2.11323 14.2318 2.22602L18.7635 6.73129C18.877 6.8441 18.9525 6.97837 18.9904 7.12877H13.832V2.00044ZM19.0174 25.1724C19.0174 25.6451 18.6284 26.0317 18.1529 26.0317H2.59266C2.11725 26.0317 1.72827 25.6451 1.72827 25.1724V2.83296C1.72827 2.36031 2.11725 1.96875 2.59266 1.96875H12.1033V7.55845C12.1033 8.27285 12.6813 8.84374 13.3999 8.84374H19.0174V25.1724ZM9.28742 11.8887L5.60728 15.7424C5.18537 16.1828 5.07023 16.8333 5.31334 17.3983C5.55166 17.9521 6.06978 18.2964 6.66401 18.2964H9.50836V23.0235C9.50836 23.2608 9.70182 23.4531 9.94065 23.4531H10.805C11.0438 23.4531 11.2373 23.2608 11.2373 23.0235V18.2958H14.0821C14.6765 18.2958 15.1946 17.9515 15.4328 17.3978C15.6759 16.8327 15.5614 16.1828 15.1389 15.743L11.4587 11.8875C10.8812 11.2865 9.86441 11.286 9.28742 11.8887ZM7.19393 16.5771L10.3728 13.247L13.5517 16.5771H7.19393Z" fill="white"/>
</svg>
