<svg width="50" height="50" viewBox="0 0 50 50" fill="none" xmlns="http://www.w3.org/2000/svg">
<circle cx="25" cy="25" r="25" fill="#3498DB" fill-opacity="0.13"/>
<path fill-rule="evenodd" clip-rule="evenodd" d="M30.2136 34.9989C30.4372 34.9864 30.6465 34.8843 30.794 34.7157C30.9415 34.5471 31.0149 34.3261 30.9975 34.1028C30.9801 33.8794 30.8733 33.6725 30.7015 33.5287L21.0082 24.9934L30.7015 16.4644C30.8681 16.3177 30.9695 16.111 30.9835 15.8895C30.9975 15.668 30.923 15.4502 30.7763 15.2837C30.6297 15.1171 30.4229 15.0157 30.2014 15.0017C29.98 14.9877 29.7622 15.0622 29.5956 15.2089L19.1866 24.3687C19.0051 24.5269 18.901 24.7559 18.901 24.9965C18.901 25.2373 19.0051 25.4661 19.1866 25.6244L29.5956 34.7843C29.7422 34.9169 29.9313 34.993 30.1291 34.9989C30.1573 35.0004 30.1854 35.0004 30.2136 34.9989L30.2136 34.9989Z" fill="#3498DB"/>
</svg>
