<svg width="20" height="37" viewBox="0 0 20 37" fill="none" xmlns="http://www.w3.org/2000/svg">
<path d="M0.0703125 26.9365C0.0703125 31.4339 0.0844218 33.7443 0.109113 33.8959C0.345445 35.388 1.53416 36.612 3.05091 36.933C3.35779 36.9965 3.64703 37 11.6858 37H19.9998V28.6049V20.2099H13.6153H7.2308V20.8377V21.4656L9.44597 21.4515L11.6576 21.4374L11.8234 21.2504C12.3419 20.672 13.1779 20.6191 13.7387 21.1305C14.3666 21.709 14.3137 22.7143 13.6223 23.2081C13.3825 23.381 13.1497 23.455 12.8393 23.455C12.4089 23.455 12.0245 23.2681 11.7811 22.9436L11.6611 22.7848H10.4513H9.24139V24.1676V25.5467L11.7387 25.5256L14.2396 25.5079L14.2608 26.3016C14.2749 26.7425 14.2855 27.3527 14.2855 27.6596V28.2169H15.0192H15.7528L15.8657 28.0723C16.5289 27.2081 17.8763 27.4374 18.222 28.4709C18.2608 28.5908 18.2749 28.7319 18.2678 28.933C18.2573 29.1764 18.2326 29.2646 18.1373 29.4586C17.9222 29.8995 17.5095 30.1746 17.0156 30.2169C16.6029 30.2522 16.1056 30.0265 15.8798 29.6984L15.7846 29.5608L14.3878 29.5573H12.9909L12.9698 28.6508C12.9557 28.1534 12.9451 27.5432 12.9451 27.2928V26.8413H12.1338H11.3225V27.5573C11.3225 27.9524 11.3331 28.873 11.3472 29.6032L11.3684 30.9259L11.5165 31.0317C11.7211 31.1764 11.9363 31.5115 11.9927 31.776C12.1585 32.552 11.6858 33.2646 10.9063 33.4092C10.3278 33.515 9.71405 33.1869 9.46008 32.6332C9.21317 32.0899 9.38953 31.3704 9.85867 31.0353L10.0174 30.9189L10.0103 28.8907L9.99976 26.8589L8.97331 26.873L7.94685 26.8836L7.92569 25.5538C7.91158 24.8201 7.901 23.8959 7.901 23.5009V22.7848H6.87807H5.85514V23.4092C5.85514 23.7549 5.86573 24.545 5.87983 25.1658L5.901 26.2945L6.2114 26.284C6.72287 26.2663 6.66643 25.8924 6.66643 29.2152V32.0829L6.82163 32.1922C7.19553 32.4568 7.42128 33.0106 7.34015 33.4586C7.2555 33.9065 6.98036 34.2734 6.57472 34.478C6.38424 34.5732 6.33486 34.5838 6.01387 34.5838C5.707 34.5838 5.63645 34.5697 5.46714 34.4921C5.06855 34.3051 4.804 33.9806 4.70523 33.5538C4.62763 33.2363 4.66643 32.94 4.81811 32.6367C4.90982 32.4603 5.25197 32.097 5.32957 32.097C5.36484 32.097 5.37543 28.5026 5.33663 27.9594L5.31546 27.6173H3.90805H2.50417V28.3157V29.0106L2.67349 29.134C3.01211 29.388 3.24139 29.8959 3.19553 30.3086C3.14615 30.7213 2.91335 31.1023 2.57472 31.321C1.91158 31.7478 1.01211 31.5009 0.65585 30.7989C0.451265 30.3968 0.461847 29.9594 0.680542 29.5467C0.779307 29.3598 1.08971 29.0282 1.16731 29.0282C1.18495 29.0282 1.19906 28.4427 1.19906 27.6702V26.3122H2.87454H4.55003V23.8959V21.4797H4.90276H5.2555V20.8448V20.2099H2.6629H0.0703125V26.9365Z" fill="white"/>
<path d="M0 8.98372V17.3435H2.6455H5.29101V10.1266V2.90965L8 2.92728C10.5326 2.94139 10.7302 2.94845 11.0794 3.01547C12.4374 3.27649 13.2134 3.8585 13.6332 4.93081C14.0529 5.99959 14.0141 7.65744 13.5485 8.64862C13.0123 9.79148 12.0353 10.3911 10.5185 10.5075C10.1235 10.5393 9.98589 10.5604 9.99647 10.5922C10.0071 10.6169 10.3915 11.1178 10.8501 11.7068C11.6402 12.7121 12.1023 13.3012 13.5309 15.1248C13.8589 15.5446 14.381 16.2112 14.6914 16.6133L15.2557 17.34L17.6296 17.3435H20L19.9929 10.564L19.9824 3.7809L19.9048 3.50577C19.6966 2.77208 19.3721 2.21123 18.8748 1.71741C18.2998 1.14598 17.5979 0.78619 16.8254 0.662733C16.6702 0.638041 13.9083 0.623932 8.29982 0.623932H0V8.98372Z" fill="#3498DB"/>
<path d="M7.19556 6.83567V9.16724L7.66469 9.14607C7.91866 9.13549 8.5042 9.10727 8.95922 9.08963C10.088 9.04025 10.5818 8.9944 10.8569 8.90621C11.6541 8.66283 12.1197 8.11609 12.2608 7.25542C12.4301 6.2078 12.1409 5.31186 11.4848 4.878C10.9733 4.53937 10.7229 4.5041 8.75817 4.5041H7.19556V6.83567Z" fill="#3498DB"/>
<path d="M7.19556 13.9573V17.3435H9.95041C12.1515 17.3435 12.6982 17.3329 12.6735 17.2977C12.5783 17.1777 11.8763 16.2465 11.0933 15.2095C10.61 14.5675 9.8975 13.6257 9.50949 13.1107C9.12148 12.5957 8.56064 11.8514 8.26081 11.4529C7.96099 11.0543 7.68938 10.7051 7.65764 10.6733C7.62589 10.638 7.51302 10.6063 7.40014 10.5922L7.19556 10.571V13.9573Z" fill="#3498DB"/>
</svg>
