<svg width="90" height="26" viewBox="0 0 90 26" fill="none" xmlns="http://www.w3.org/2000/svg">
<path d="M20.637 2.78196C19.4398 2.8383 18.5015 3.19596 17.817 3.85249C17.1095 4.53351 16.7121 5.44237 16.5609 6.73338C16.5045 7.20618 16.5045 8.18362 16.5609 8.68092C16.748 10.3565 17.3658 11.4467 18.4836 12.0689C19.5116 12.6421 21.3266 12.7744 22.6187 12.3702C23.9057 11.966 24.7388 11.0498 25.108 9.62896C25.4541 8.30366 25.4054 6.48105 24.9926 5.28803C24.4543 3.7349 23.2827 2.91424 21.4241 2.79175C21.0446 2.76481 20.978 2.76481 20.637 2.78196ZM21.319 3.89169C22.4495 4.00192 23.1186 4.51147 23.4878 5.54281C23.6672 6.04745 23.7467 6.57904 23.7698 7.4193C23.8339 9.85924 23.1981 11.1013 21.7189 11.4295C21.4625 11.4883 21.3805 11.4957 20.9447 11.4932C20.4371 11.4932 20.2371 11.4687 19.8808 11.3585C18.8553 11.0449 18.2939 10.2047 18.1247 8.73726C17.9811 7.4732 18.1042 6.15524 18.44 5.37378C18.7963 4.54821 19.4757 4.03377 20.355 3.91863C20.7806 3.86229 20.9626 3.85739 21.319 3.89169Z" fill="white"/>
<path d="M32.0358 2.79235C31.3513 2.83889 30.754 2.98587 30.2361 3.2333C29.7516 3.46847 29.2107 3.92657 28.9133 4.35773C28.2698 5.28863 27.9827 6.58453 28.0647 8.18421C28.1724 10.2224 28.8543 11.5036 30.1771 12.1479C31.0539 12.5741 32.3921 12.7187 33.5637 12.5153C35.1942 12.2336 36.2555 11.2243 36.6683 9.55851C36.9682 8.34834 36.9374 6.61393 36.599 5.49685C36.2683 4.41407 35.6736 3.66935 34.7866 3.23575C34.279 2.98587 33.6765 2.83889 32.9664 2.79235C32.5383 2.76295 32.4434 2.76295 32.0358 2.79235ZM32.8613 3.89228C34.1251 4.01231 34.843 4.66639 35.1506 5.977C35.2762 6.51594 35.3044 6.82706 35.3044 7.67712C35.3044 8.34589 35.2967 8.51737 35.248 8.85299C35.0224 10.4355 34.3918 11.2194 33.151 11.4522C32.8049 11.5183 32.0871 11.511 31.7358 11.4399C30.6796 11.2268 30.09 10.6217 29.7849 9.44093C29.5388 8.48308 29.5542 6.76826 29.8182 5.83492C30.1156 4.79378 30.7001 4.19114 31.6333 3.96822C32.0153 3.87758 32.4306 3.85308 32.8613 3.89228Z" fill="white"/>
<path d="M39.0171 3.50045V4.06389H40.4271H41.8371V8.20394V12.344H42.5934H43.3496V8.20394V4.06389H44.7596H46.1696L46.1645 3.50535L46.1568 2.94926L42.5882 2.94192L39.0171 2.93702V3.50045Z" fill="white"/>
<path d="M47.9061 3.01541C47.9241 3.0987 47.9625 3.24323 48.4163 5.04379C48.565 5.62927 48.7214 6.25151 48.7649 6.42789C48.8085 6.60182 48.8906 6.92273 48.9444 7.13831C49.1239 7.84873 49.793 10.4993 50.1237 11.81L50.257 12.344H51.1748H52.09L52.3771 11.467C53.1308 9.17894 53.3385 8.54691 53.8922 6.86884C54.0922 6.2613 54.287 5.67582 54.3229 5.56313C54.3588 5.45289 54.3947 5.36225 54.4024 5.36225C54.4101 5.36225 54.5895 5.95019 54.7997 6.66796C55.01 7.38328 55.2663 8.25294 55.3663 8.5959C55.4688 8.93886 55.6534 9.5611 55.7765 9.98C55.8995 10.3965 56.1021 11.0873 56.2277 11.5111C56.3533 11.9373 56.4558 12.2974 56.4558 12.3146C56.4558 12.3366 56.6763 12.344 57.3787 12.344H58.2991L58.3299 12.2387C58.3452 12.1823 58.3965 11.9986 58.4427 11.8296C58.4888 11.6605 58.6016 11.2465 58.6939 10.9109C58.9272 10.0559 59.2861 8.75023 59.404 8.32643C59.727 7.14076 60.1962 5.43085 60.3038 5.03154C60.3756 4.77432 60.4756 4.40686 60.5294 4.21088C60.7986 3.23833 60.8653 2.98846 60.8653 2.96396C60.8653 2.94437 60.6653 2.93702 60.1423 2.94192L59.4194 2.94926L58.4375 6.70961C57.8966 8.77718 57.448 10.4871 57.4403 10.5067C57.43 10.5263 57.3993 10.4503 57.3659 10.3352C57.3095 10.1294 56.9686 8.89967 56.5404 7.34654C56.4199 6.90803 56.2328 6.22456 56.1226 5.8277C56.0123 5.43085 55.8175 4.71797 55.6867 4.24762C55.5586 3.77483 55.4483 3.37552 55.4432 3.35837C55.4355 3.33632 55.2279 3.32897 54.5203 3.32897C54.0204 3.32897 53.6102 3.33142 53.6102 3.33632C53.6102 3.34122 53.259 4.4632 52.8309 5.83015C52.4027 7.1971 51.9003 8.80658 51.7106 9.40921C51.5234 10.0118 51.3593 10.4969 51.3516 10.4871C51.3414 10.4773 50.9517 8.90947 50.4826 7.00357C50.016 5.09768 49.6058 3.43186 49.5725 3.30448C49.5417 3.17709 49.5058 3.04235 49.4981 3.00316L49.4828 2.93702H48.6855H47.8882L47.9061 3.01541Z" fill="white"/>
<path d="M65.3957 3.01541C65.3675 3.084 64.7446 4.54404 64.1908 5.83995C63.9294 6.44993 63.8191 6.70716 63.191 8.17945C62.3168 10.225 62.1886 10.5238 61.681 11.712L61.4119 12.344H62.2117H63.0116L63.3423 11.4915C63.5243 11.0236 63.755 10.4283 63.855 10.1711L64.037 9.69828L65.9315 9.70563L67.8261 9.71053L68.0645 10.3597C68.1952 10.7174 68.3926 11.2514 68.5003 11.5478C68.608 11.8442 68.7208 12.1456 68.7464 12.2142L68.7951 12.344H69.6283C70.0846 12.344 70.4589 12.3366 70.4589 12.3244C70.4589 12.3146 70.3718 12.0868 70.2641 11.8173C70.0359 11.2367 69.3207 9.43126 69.0746 8.80413C68.9797 8.5616 68.6336 7.6846 68.3055 6.85659C67.3031 4.32112 67.0775 3.74788 66.9288 3.36572C66.8493 3.16239 66.775 2.98356 66.7596 2.96641C66.7417 2.94437 66.575 2.93702 66.0828 2.93702H65.4316L65.3957 3.01541ZM66.0623 4.74247C66.07 4.78167 66.3212 5.48964 66.6186 6.31765C67.3057 8.24069 67.4338 8.6008 67.4338 8.6106C67.4338 8.6155 66.7699 8.6204 65.9597 8.6204C64.842 8.6204 64.4857 8.61305 64.4857 8.591C64.4857 8.5763 64.6292 8.1917 64.8035 7.74094C64.9804 7.28774 65.3086 6.43769 65.5367 5.8522C66.029 4.57589 65.9982 4.64938 66.0238 4.66408C66.0341 4.67143 66.052 4.70572 66.0623 4.74247Z" fill="white"/>
<path d="M73.2513 2.95416C73.2411 2.96151 73.2334 5.07808 73.2334 7.65765V12.344H73.9897H74.7459V10.323V8.30193H75.1125H75.4766L77.0404 10.323L78.6042 12.3415L79.5092 12.344C80.0039 12.344 80.4116 12.3391 80.4116 12.3317C80.4116 12.3244 79.7014 11.4082 78.8349 10.296C77.9684 9.18384 77.2583 8.26519 77.2583 8.25539C77.2583 8.24314 77.3326 8.22844 77.4249 8.21864C77.6557 8.19659 78.1299 8.07901 78.3607 7.98592C79.3297 7.60131 79.8476 6.7586 79.8476 5.56558C79.8476 4.81841 79.6399 4.23292 79.2169 3.79932C79.0041 3.5764 78.7939 3.43431 78.4863 3.29223C78.0453 3.09625 77.6172 3.00316 76.9532 2.96151C76.5097 2.93457 73.277 2.92722 73.2513 2.95416ZM77.2352 4.10799C77.812 4.25742 78.1581 4.60773 78.2735 5.15402C78.3248 5.39165 78.312 5.90854 78.2479 6.13392C78.1325 6.54302 77.8787 6.85659 77.5352 7.01337C77.2045 7.16281 77.0865 7.17506 75.8483 7.17506H74.7459V5.62437C74.7459 4.76942 74.7536 4.06389 74.7664 4.05409C74.7767 4.0443 75.292 4.0394 75.9124 4.0443C76.9609 4.05409 77.0532 4.05899 77.2352 4.10799Z" fill="white"/>
<path d="M83.4347 2.95416C83.4244 2.96151 83.4167 5.07808 83.4167 7.65765V12.344H86.3137H89.2106V11.7928V11.2416L87.0776 11.2367L84.9421 11.2294V9.64194V8.05696L86.8392 8.04961L88.7363 8.04471V7.49352V6.94233L86.8392 6.93008L84.9421 6.91783V5.48474V4.05165L87.0007 4.0443L89.0567 4.0394V3.48821V2.93702H86.2547C84.7114 2.93702 83.4424 2.94437 83.4347 2.95416Z" fill="white"/>
<path d="M0.0488281 19.0109C0.0488281 22.1343 0.0586271 23.7389 0.0757752 23.8442C0.239907 24.8805 1.06547 25.7305 2.11885 25.9535C2.33198 25.9976 2.53286 26 8.1158 26H13.8898V20.1696V14.3393H9.45581H5.02179V14.7753V15.2114L6.56022 15.2016L8.0962 15.1918L8.21134 15.0619C8.57145 14.6602 9.15204 14.6234 9.54155 14.9786C9.9776 15.3804 9.94085 16.0786 9.46071 16.4215C9.29412 16.5416 9.13244 16.593 8.91686 16.593C8.618 16.593 8.35098 16.4632 8.18194 16.2378L8.09865 16.1276H7.2584H6.41814V17.0879V18.0457L8.15255 18.031L9.88941 18.0188L9.90411 18.57C9.91391 18.8762 9.92126 19.3 9.92126 19.5131V19.9002H10.4308H10.9403L11.0187 19.7997C11.4793 19.1995 12.4151 19.3588 12.6552 20.0765C12.6821 20.1598 12.6919 20.2578 12.687 20.3975C12.6797 20.5665 12.6625 20.6277 12.5964 20.7625C12.4469 21.0687 12.1603 21.2598 11.8173 21.2892C11.5307 21.3137 11.1853 21.1569 11.0285 20.929L10.9624 20.8335L9.9923 20.8311H9.0222L9.00751 20.2015C8.99771 19.8561 8.99036 19.4323 8.99036 19.2583V18.9448H8.42692H7.86348V19.4421C7.86348 19.7164 7.87083 20.3558 7.88063 20.8629L7.89533 21.7816L7.99821 21.855C8.1403 21.9555 8.28973 22.1882 8.32893 22.3719C8.44407 22.9109 8.1158 23.4057 7.57441 23.5062C7.17265 23.5797 6.7464 23.3518 6.57002 22.9672C6.39854 22.59 6.52103 22.0902 6.84684 21.8575L6.95708 21.7767L6.95218 20.3681L6.94483 18.957L6.23196 18.9668L5.51908 18.9742L5.50439 18.0506C5.49459 17.5411 5.48724 16.8992 5.48724 16.6249V16.1276H4.77681H4.06639V16.5612C4.06639 16.8012 4.07374 17.35 4.08354 17.7811L4.09824 18.5651L4.31381 18.5577C4.66903 18.5455 4.62983 18.2858 4.62983 20.5934V22.5851L4.73762 22.661C4.99729 22.8447 5.15407 23.2294 5.09773 23.5405C5.03894 23.8516 4.84786 24.1064 4.56614 24.2484C4.43385 24.3146 4.39956 24.3219 4.17663 24.3219C3.9635 24.3219 3.91451 24.3121 3.79692 24.2582C3.5201 24.1284 3.33637 23.903 3.26778 23.6066C3.21388 23.3861 3.24083 23.1804 3.34617 22.9697C3.40986 22.8472 3.64749 22.5949 3.70138 22.5949C3.72588 22.5949 3.73323 20.0986 3.70628 19.7213L3.69158 19.4837H2.71414H1.73914V19.9688V20.4514L1.85673 20.5371C2.09191 20.7135 2.25114 21.0662 2.21929 21.3529C2.185 21.6395 2.02331 21.904 1.78814 22.0559C1.32759 22.3523 0.702907 22.1809 0.455484 21.6934C0.313399 21.4141 0.320749 21.1103 0.472632 20.8237C0.541225 20.6939 0.756801 20.4636 0.810695 20.4636C0.822944 20.4636 0.832743 20.0569 0.832743 19.5205V18.5773H1.99637H3.15999V16.8992V15.2212H3.40496H3.64994V14.7802V14.3393H1.84938H0.0488281V19.0109Z" fill="white"/>
<path d="M36.3818 19.5073V23.5371H36.9208H37.4597V21.6435V19.7523L37.5577 19.5759C37.9374 18.8777 38.4421 18.5519 39.0226 18.6303C39.4734 18.6891 39.7184 18.912 39.8286 19.3652C39.8629 19.5122 39.8703 19.7792 39.8776 21.5332L39.8874 23.5371H40.4386H40.9873V21.6925C40.9873 19.7866 40.9751 19.4657 40.8869 19.1031C40.8208 18.8336 40.6542 18.4882 40.5047 18.3216C40.2769 18.062 39.8972 17.8684 39.4807 17.8023C39.2162 17.7606 38.8193 17.768 38.6356 17.8145C38.2681 17.9125 37.8958 18.1673 37.6361 18.5029C37.5602 18.6009 37.4891 18.6842 37.4793 18.6842C37.4671 18.6866 37.4597 17.964 37.4597 17.0821V15.4775H36.9208H36.3818V19.5073Z" fill="white"/>
<path d="M57.6377 19.5073V23.5371H58.1766H58.7156V19.5073V15.4775H58.1766H57.6377V19.5073Z" fill="white"/>
<path d="M16.4734 16.0654V16.5309H17.6125H18.7516V20.034V23.5371H19.3518H19.952L19.9569 20.0389L19.9643 16.5431L21.1107 16.5358L22.2548 16.5309V16.0654V15.6H19.3641H16.4734V16.0654Z" fill="white"/>
<path d="M75.5129 16.139V16.678H76.1009H76.6888V16.139V15.6001H76.1009H75.5129V16.139Z" fill="white"/>
<path d="M45.8189 17.7827C45.6376 17.8096 45.4343 17.888 45.2383 18.0032C45.0766 18.1011 44.7728 18.3804 44.6185 18.5715C44.5597 18.6474 44.5058 18.7038 44.5009 18.6989C44.4936 18.6915 44.4446 18.5201 44.3882 18.3143L44.2878 17.9395L43.7905 17.9321C43.5186 17.9297 43.2957 17.9321 43.2957 17.937C43.2957 17.9419 43.3251 18.133 43.3618 18.3608L43.4279 18.7724L43.4353 21.1535L43.4451 23.5371H43.984H44.5205V21.6386V19.7376L44.5842 19.6102C44.7728 19.2378 45.1158 18.8679 45.3902 18.7356C45.6131 18.6278 45.8409 18.596 46.0908 18.6327C46.4338 18.6817 46.6444 18.8189 46.7743 19.0786C46.9164 19.3628 46.9213 19.4289 46.9213 21.5798V23.5371H47.4725H48.0236V21.5945C48.0236 19.4877 48.0163 19.3432 47.8865 18.9439C47.7958 18.6646 47.6905 18.4784 47.5165 18.2947C47.3402 18.1085 47.1613 17.9934 46.8992 17.9003C46.6003 17.7949 46.1079 17.741 45.8189 17.7827Z" fill="white"/>
<path d="M52.5367 17.78C51.9243 17.8339 51.427 18.0324 51.0522 18.3729C50.474 18.9045 50.1703 19.8231 50.2168 20.9157C50.2854 22.5056 50.9517 23.4095 52.2305 23.6496C52.5588 23.7108 53.1565 23.706 53.4897 23.6374C54.5602 23.4144 55.1996 22.6746 55.3931 21.4375C55.4495 21.0774 55.4495 20.3376 55.3931 19.9775C55.2192 18.8628 54.6949 18.1891 53.7738 17.8952C53.4774 17.7996 52.914 17.7482 52.5367 17.78ZM53.3206 18.6766C54.009 18.88 54.325 19.5194 54.325 20.7075C54.325 22.1406 53.8277 22.8485 52.8233 22.851C51.9659 22.8534 51.4686 22.3072 51.3584 21.2489C51.3216 20.9084 51.3437 20.1857 51.3976 19.9162C51.5495 19.147 51.9316 18.7281 52.5735 18.6277C52.7155 18.6056 53.1859 18.635 53.3206 18.6766Z" fill="white"/>
<path d="M63.2116 17.7826C61.6855 17.9222 60.855 19.0516 60.9187 20.9036C60.9628 22.2411 61.487 23.15 62.4277 23.5125C62.7462 23.6375 63.0671 23.6889 63.5228 23.6889C64.118 23.6914 64.5541 23.586 64.9681 23.3484C65.1935 23.2161 65.5634 22.8389 65.7104 22.5914C65.8598 22.3391 66.0068 21.9251 66.0754 21.5577C66.1489 21.1681 66.1538 20.3034 66.0852 19.9114C66.0068 19.4607 65.8476 19.0369 65.6467 18.7356C65.5413 18.5763 65.2719 18.3044 65.1053 18.1917C64.6398 17.8708 63.9221 17.7165 63.2116 17.7826ZM63.8902 18.6474C64.4684 18.7527 64.7966 19.1128 64.9485 19.8085C64.9877 19.9947 65.0024 20.1613 65.0098 20.5753C65.0269 21.347 64.9608 21.7512 64.7427 22.1701C64.5174 22.6086 64.0813 22.8511 63.5301 22.8511C62.7192 22.8487 62.2416 22.3857 62.0872 21.4548C61.9745 20.7762 62.0407 19.9139 62.2391 19.4411C62.511 18.7968 63.1112 18.5077 63.8902 18.6474Z" fill="white"/>
<path d="M73.3761 17.7728C73.3149 17.7753 73.0846 17.79 72.8616 17.8047C72.6387 17.8194 72.2639 17.8463 72.0263 17.8684C71.6368 17.9027 71.5804 17.9027 71.4482 17.8684C71.1787 17.7973 70.7059 17.7704 70.3335 17.8022C69.6182 17.8659 69.165 18.0619 68.7779 18.4759C68.5771 18.6915 68.4129 18.9952 68.3247 19.3113C68.2464 19.6028 68.2464 20.1638 68.3247 20.4332C68.3982 20.6905 68.5281 20.9477 68.6996 21.178L68.8416 21.3666L68.6261 21.5895C68.3639 21.859 68.2782 22.0231 68.261 22.2779C68.2366 22.6576 68.4619 23.0226 68.8539 23.2431C68.9298 23.2872 68.9886 23.3288 68.9813 23.3337C68.9739 23.3411 68.8833 23.3827 68.7779 23.4293C68.4203 23.5861 68.1606 23.8114 68.0406 24.0711C67.9205 24.3381 67.945 24.7497 68.1043 25.0755C68.337 25.5556 68.92 25.8472 69.873 25.9672C70.2649 26.0162 71.2154 26.0088 71.5633 25.9549C72.2811 25.8423 72.7441 25.6536 73.0846 25.3303C73.2218 25.2029 73.2781 25.1269 73.3589 24.9604C73.4569 24.757 73.4594 24.7399 73.4692 24.468C73.4863 23.9878 73.3957 23.7232 73.1238 23.4734C72.7465 23.1231 72.1145 22.9467 70.8284 22.8266C69.8313 22.736 69.4467 22.6503 69.2801 22.4837C69.1968 22.4004 69.187 22.3783 69.187 22.2656C69.187 22.1162 69.2434 21.9913 69.3683 21.8737L69.4565 21.7879L69.6231 21.8418C69.944 21.9447 70.3482 22.0035 70.7304 22.0011C71.9797 22.0011 72.7735 21.4499 73.0233 20.4136C73.0895 20.1466 73.0846 19.6787 73.0135 19.4387C72.9278 19.1398 72.7686 18.8507 72.5726 18.6327L72.4893 18.5396H72.8519H73.2169L73.3638 18.1697C73.4447 17.9664 73.5157 17.79 73.5182 17.7777C73.5231 17.7655 73.5182 17.7581 73.5059 17.7606C73.4961 17.763 73.4373 17.7679 73.3761 17.7728ZM71.1958 18.6841C71.698 18.8409 71.9552 19.2353 71.9552 19.8478C71.9528 20.5239 71.6711 20.9673 71.1346 21.1363C70.9974 21.1804 70.9043 21.1902 70.6691 21.1902C70.434 21.1902 70.3409 21.1804 70.2037 21.1363C69.6721 20.9697 69.4002 20.5557 69.4002 19.9114C69.3977 19.2108 69.748 18.7503 70.3703 18.6376C70.5687 18.6033 71.0121 18.6278 71.1958 18.6841ZM70.4609 23.6865C71.4849 23.76 72.1292 23.9511 72.3007 24.2328C72.3962 24.3896 72.335 24.6909 72.1757 24.855C71.9773 25.0608 71.6613 25.1637 71.0954 25.2029C69.9367 25.2886 69.1013 24.9481 69.1062 24.3945C69.1087 24.1274 69.3144 23.8482 69.6084 23.7085C69.748 23.6424 69.7799 23.635 69.9342 23.6473C70.0298 23.6546 70.2649 23.6718 70.4609 23.6865Z" fill="white"/>
<path d="M87.6993 17.7801C86.7439 17.8634 86.1241 18.2211 85.8987 18.8164C85.7444 19.2255 85.7713 19.7473 85.9624 20.1098C86.2025 20.5581 86.6043 20.8055 87.6699 21.1607C88.3436 21.3837 88.5126 21.4596 88.6816 21.6188C88.8433 21.7683 88.885 21.8908 88.8678 22.1382C88.836 22.6036 88.5518 22.8168 87.9198 22.8437C87.4421 22.8658 87.0991 22.7996 86.4793 22.5669C86.2833 22.4934 86.1143 22.442 86.1045 22.4518C86.08 22.4763 85.7395 23.2798 85.7395 23.3141C85.7395 23.3704 86.2907 23.5272 86.7855 23.6105C87.4225 23.7183 88.0643 23.7232 88.5322 23.6227C89.1618 23.4904 89.6272 23.1818 89.8355 22.7531C90.0927 22.2288 90.0437 21.5282 89.7228 21.075C89.4533 20.7002 89.076 20.4871 88.1059 20.1686C87.7581 20.0535 87.4053 19.9236 87.322 19.8795C87.0183 19.7203 86.8933 19.5243 86.9252 19.2622C86.9668 18.8996 87.251 18.689 87.7801 18.6302C88.2407 18.5787 88.6645 18.6645 89.2304 18.9241C89.3896 19.0001 89.5268 19.0515 89.5292 19.0393C89.5341 19.027 89.6248 18.8188 89.7301 18.5763L89.9236 18.1353L89.7473 18.079C88.9805 17.8365 88.2652 17.7311 87.6993 17.7801Z" fill="white"/>
<path d="M24.9551 17.8071C23.811 17.9394 23.0761 18.7699 22.8703 20.1687C22.8238 20.4724 22.8311 21.1633 22.8801 21.4548C23.0002 22.1505 23.25 22.6649 23.664 23.0642C24.1319 23.5126 24.6464 23.6938 25.445 23.6914C25.9129 23.6889 26.2926 23.6424 26.7581 23.5248C27.03 23.4562 27.4783 23.2994 27.5224 23.2578C27.5322 23.2455 27.2603 22.5327 27.2064 22.4298C27.1868 22.393 27.1574 22.4004 26.932 22.5082C26.4322 22.7458 25.9962 22.856 25.5307 22.8609C24.9428 22.8658 24.5851 22.7041 24.3279 22.3195C24.1613 22.0697 23.9997 21.5528 23.9997 21.2637V21.1608H25.9227H27.8457V20.9207C27.8457 20.7909 27.8335 20.5508 27.8212 20.3891C27.6767 18.7062 27.0349 17.9321 25.6777 17.8047C25.3715 17.7777 25.2196 17.7777 24.9551 17.8071ZM25.8125 18.6768C26.393 18.8483 26.7017 19.326 26.7801 20.1736L26.7973 20.3524H25.3862H23.9752V20.2814C23.9752 19.9996 24.1074 19.5023 24.2446 19.2598C24.4333 18.9315 24.764 18.6964 25.1265 18.6278C25.2441 18.6057 25.6777 18.6376 25.8125 18.6768Z" fill="white"/>
<path d="M32.028 17.8096C31.3666 17.8758 30.7737 18.1673 30.4161 18.6009C29.9629 19.1496 29.7645 19.8943 29.7939 20.9257C29.8184 21.7243 29.9849 22.2975 30.3303 22.7654C30.8252 23.4342 31.6679 23.7698 32.6429 23.6841C33.1598 23.6375 33.9217 23.4808 34.1936 23.3656L34.3136 23.3142L34.1544 22.9418C34.0686 22.736 33.9804 22.5352 33.9633 22.4911L33.929 22.4127L33.7428 22.496C33.3092 22.6944 32.709 22.8512 32.3906 22.8512C31.7463 22.8487 31.2759 22.5058 31.0579 21.8786C30.9281 21.5014 30.8717 20.9477 30.9109 20.4112C30.982 19.4828 31.2196 18.9953 31.7169 18.7577C32.2068 18.5225 32.8487 18.5886 33.7061 18.9659C33.8163 19.0149 33.9119 19.0516 33.9143 19.0492C33.9168 19.0443 34.1176 18.5445 34.2622 18.182C34.2891 18.1109 33.2872 17.866 32.7213 17.8047C32.4518 17.7778 32.3416 17.7778 32.028 17.8096Z" fill="white"/>
<path d="M81.0794 17.7973C80.4816 17.8561 80.0676 18.0349 79.6977 18.3902C79.1465 18.9217 78.8501 19.7645 78.8501 20.7982C78.8501 22.2803 79.5385 23.3313 80.6947 23.6203C81.2974 23.7698 82.292 23.6938 83.0759 23.4415C83.2449 23.3876 83.5536 23.2676 83.5536 23.2529C83.5536 23.2504 83.4825 23.0716 83.3993 22.8585C83.3135 22.6453 83.2351 22.4518 83.2278 22.4298C83.2155 22.393 83.1861 22.4004 82.9852 22.4959C82.4463 22.7482 81.9956 22.8609 81.5081 22.8609C81.0304 22.8634 80.7731 22.7703 80.5012 22.4984C80.2391 22.2362 80.0921 21.8688 80.0137 21.2759L79.999 21.1608H81.9343H83.8721V21.031C83.8721 20.9624 83.8598 20.737 83.8476 20.5361C83.7422 18.9658 83.2449 18.1648 82.2062 17.8929C81.8706 17.8047 81.3978 17.7655 81.0794 17.7973ZM81.6942 18.6474C82.145 18.7282 82.461 18.9903 82.6423 19.4337C82.7158 19.615 82.7942 20.0119 82.7942 20.2054V20.3524H81.4027C80.636 20.3524 80.0039 20.3475 79.999 20.3401C79.9794 20.3205 80.0211 19.9604 80.0652 19.7791C80.0872 19.6836 80.1534 19.5023 80.2121 19.3774C80.2979 19.1961 80.3518 19.1153 80.4841 18.983C80.8074 18.6621 81.1847 18.5567 81.6942 18.6474Z" fill="white"/>
<path d="M75.5376 20.7322V23.5371H76.0888H76.64V20.7322V17.9272H76.0888H75.5376V20.7322Z" fill="white"/>
<path d="M0 6.54276V12.3486H1.8373H3.6746V7.33648V2.32432L5.556 2.33657C7.31491 2.34637 7.45209 2.35127 7.69462 2.39781C8.63776 2.57909 9.17671 2.9833 9.46822 3.72802C9.75974 4.47029 9.7328 5.62166 9.40943 6.31004C9.03707 7.10375 8.35849 7.52021 7.30511 7.60105C7.03074 7.6231 6.9352 7.63779 6.94255 7.65984C6.9499 7.67699 7.21692 8.02485 7.53538 8.43396C8.08412 9.13213 8.40504 9.54124 9.39718 10.8077C9.62501 11.0993 9.98757 11.5623 10.2031 11.8415L10.5951 12.3462L12.2438 12.3486H13.89L13.8851 7.64024L13.8777 2.9294L13.8239 2.73833C13.6793 2.22878 13.4539 1.83927 13.1085 1.49631C12.7092 1.09945 12.2217 0.84958 11.6852 0.763839C11.5774 0.746691 9.6593 0.736892 5.76423 0.736892H0V6.54276Z" fill="#3498DB"/>
<path d="M4.99731 5.05089V6.67017L5.32313 6.65547C5.49951 6.64812 5.90617 6.62852 6.22218 6.61627C7.0061 6.58198 7.34906 6.55013 7.54014 6.48889C8.09378 6.31985 8.41714 5.94015 8.51513 5.34241C8.63272 4.61484 8.43184 3.99261 7.97619 3.69129C7.62098 3.45612 7.44705 3.43162 6.08255 3.43162H4.99731V5.05089Z" fill="#3498DB"/>
<path d="M4.99731 9.99689V12.3486H6.91056C8.43919 12.3486 8.8189 12.3413 8.80175 12.3168C8.73561 12.2335 8.24811 11.5868 7.70427 10.8665C7.36866 10.4207 6.87381 9.76661 6.60434 9.40895C6.33487 9.05129 5.94536 8.5344 5.73713 8.25758C5.52891 7.98076 5.34028 7.73823 5.31823 7.71619C5.29618 7.69169 5.21779 7.66964 5.1394 7.65984L4.99731 7.64514V9.99689Z" fill="#3498DB"/>
</svg>
