<?xml version="1.0" encoding="UTF-8" standalone="no" ?>
<!DOCTYPE svg PUBLIC "-//W3C//DTD SVG 1.1//EN" "http://www.w3.org/Graphics/SVG/1.1/DTD/svg11.dtd">
<svg xmlns="http://www.w3.org/2000/svg" xmlns:xlink="http://www.w3.org/1999/xlink" version="1.1" width="1080" height="1080" viewBox="0 0 1080 1080" xml:space="preserve">
<desc>Created with Fabric.js 5.2.4</desc>
<defs>
</defs>
<g transform="matrix(1 0 0 1 540 540)" id="1ff965cd-b4b1-4e50-9be0-d39be229a09a"  >
<rect style="stroke: none; stroke-width: 1; stroke-dasharray: none; stroke-linecap: butt; stroke-dashoffset: 0; stroke-linejoin: miter; stroke-miterlimit: 4; fill: rgb(255,255,255); fill-rule: nonzero; opacity: 1; visibility: hidden;" vector-effect="non-scaling-stroke"  x="-540" y="-540" rx="0" ry="0" width="1080" height="1080" />
</g>
<g transform="matrix(1 0 0 1 540 540)" id="834a4373-87ad-4a57-8aa6-54c537b0da3f"  >
</g>
<g transform="matrix(1 0 0 1 542.5 542.5)" id="e2a22a43-6f48-43e8-9fe5-6fe3aa198d63"  >
<path style="stroke: rgb(170,160,160); stroke-width: 5; stroke-dasharray: none; stroke-linecap: butt; stroke-dashoffset: 0; stroke-linejoin: miter; stroke-miterlimit: 4; fill: rgb(198,171,171); fill-rule: nonzero; opacity: 1;" vector-effect="non-scaling-stroke"  transform=" translate(-61.44, -59.9)" d="M 49.988 0 L 50.004 0 L 50.004 0.007 C 63.803 0.011 76.298 5.608 85.34 14.652 C 94.367 23.683 99.959 36.167 99.968 49.955 L 99.97500000000001 49.955 L 99.97500000000001 49.988 L 99.97500000000001 50.028 L 99.968 50.028 C 99.96300000000001 55.585 99.051 60.933 97.37400000000001 65.92 C 97.093 66.757 96.799 67.561 96.49700000000001 68.32900000000001 L 96.49700000000001 68.33600000000001 C 95.05100000000002 71.99600000000001 93.18200000000002 75.45600000000002 90.95000000000002 78.64300000000001 L 120.03200000000001 104.78200000000001 L 120.05000000000001 104.79800000000002 L 120.20700000000001 104.94400000000002 L 120.218 104.95500000000001 C 121.86 106.51800000000001 122.754 108.61100000000002 122.867 110.73500000000001 C 122.977 112.83500000000001 122.324 114.98300000000002 120.888 116.70600000000002 L 120.87700000000001 116.72200000000002 L 120.70200000000001 116.92500000000003 L 120.66700000000002 116.96000000000002 L 120.52100000000002 117.12000000000002 L 120.50500000000001 117.14100000000002 C 118.94000000000001 118.78300000000002 116.85100000000001 119.67500000000003 114.72500000000001 119.78700000000002 C 112.62800000000001 119.89800000000002 110.47800000000001 119.24700000000001 108.754 117.80900000000003 L 108.739 117.79800000000003 L 108.53500000000001 117.62300000000003 L 108.50600000000001 117.59900000000003 L 78.761 90.865 C 77.881 91.485 76.98299999999999 92.074 76.074 92.63 C 74.841 93.38499999999999 73.564 94.09599999999999 72.261 94.74499999999999 C 65.562 98.08699999999999 57.992 99.96699999999998 49.989 99.96699999999998 L 49.989 99.97399999999999 L 49.973 99.97399999999999 L 49.973 99.96699999999998 C 36.174 99.96299999999998 23.677 94.36599999999999 14.634999999999998 85.32199999999999 C 5.605 76.291 0.016 63.805 0.007 50.021 L 0 50.021 L 0 49.988 L 0 49.972 L 0.007 49.972 C 0.011 36.173 5.608 23.676000000000002 14.652 14.634 C 23.683 5.608 36.167 0.016 49.955 0.007 L 49.955 0 L 49.988 0 L 49.988 0 z M 50.004 11.21 L 50.004 11.217 L 49.988 11.217 L 49.955 11.217 L 49.955 11.21 C 39.269 11.217 29.583 15.56 22.570999999999998 22.569000000000003 C 15.56 29.578 11.213 39.274 11.21 49.973 L 11.217 49.973 L 11.217 49.989 L 11.217 50.022 L 11.21 50.022 C 11.217 60.708 15.557000000000002 70.389 22.569000000000003 77.40299999999999 C 29.578000000000003 84.41499999999999 39.274 88.76199999999999 49.972 88.764 L 49.972 88.75699999999999 L 49.988 88.75699999999999 L 50.021 88.75699999999999 L 50.021 88.764 C 60.707 88.75699999999999 70.389 84.416 77.403 77.405 C 84.414 70.396 88.76100000000001 60.703 88.763 50.005 L 88.757 50.005 L 88.757 49.989000000000004 L 88.757 49.956 L 88.763 49.956 C 88.757 39.27 84.41300000000001 29.584000000000003 77.405 22.572000000000003 C 70.396 15.56 60.703 11.213 50.004 11.21 L 50.004 11.21 z" stroke-linecap="round" />
</g>
</svg>