<?xml version="1.0" encoding="UTF-8"?>
<svg version="1.1" xmlns="http://www.w3.org/2000/svg" width="479" height="200">
<path d="M0 0 C0 21.45 0 42.9 0 65 C-32.3 82 -32.3 82 -36 82 C-36 60.55 -36 39.1 -36 17 C-28.41 13.37 -20.82 9.74 -13 6 C-7.9492357 3.47830446 -7.9492357 3.47830446 -2.9140625 0.92578125 C-1 0 -1 0 0 0 Z " fill="#50ACD4" transform="translate(359,53)"/>
<path d="M0 0 C0 54.45 0 108.9 0 165 C-2.97 164.34 -5.94 163.68 -9 163 C-9 129.01 -9 95.02 -9 60 C-10.98 59.34 -12.96 58.68 -15 58 C-17.14215073 56.9940752 -19.2677163 55.95205611 -21.375 54.875 C-22.43460937 54.33617187 -23.49421875 53.79734375 -24.5859375 53.2421875 C-25.38257813 52.83226562 -26.17921875 52.42234375 -27 52 C-30.71863554 22.21277581 -30.71863554 22.21277581 -25.95941162 14.26147461 C-20.42786521 7.54929984 -8.93830551 0 0 0 Z " fill="#255C73" transform="translate(391,0)"/>
<path d="M0 0 C4.64982269 0.92996454 8.17950646 2.41365429 12.3125 4.5625 C14.519375 5.696875 16.72625 6.83125 19 8 C19 15.59 19 23.18 19 31 C13 29 13 29 11 28 C10.67 47.14 10.34 66.28 10 86 C-10 77 -10 77 -15 74 C-15.60127258 71.89289856 -15.60127258 71.89289856 -15.56762695 69.43676758 C-15.5672493 68.51603958 -15.56687164 67.59531158 -15.56648254 66.64668274 C-15.54067612 65.65597275 -15.51486969 64.66526276 -15.48828125 63.64453125 C-15.48120651 62.62775803 -15.47413177 61.6109848 -15.46684265 60.56340027 C-15.43882918 57.31235516 -15.37607585 54.06302547 -15.3125 50.8125 C-15.28742621 48.61005089 -15.26461145 46.40757482 -15.24414062 44.20507812 C-15.18897933 38.80272335 -15.10265698 33.4016526 -15 28 C-10.38 25.69 -5.76 23.38 -1 21 C-0.67 14.07 -0.34 7.14 0 0 Z " fill="#87BB3E" transform="translate(422,42)"/>
<path d="M0 0 C0 0.66 0 1.32 0 2 C-0.96873047 2.4021875 -0.96873047 2.4021875 -1.95703125 2.8125 C-25.04046605 12.4121774 -48.02083839 22.25302899 -70.98754883 32.12799072 C-73.29471737 33.11643668 -75.60459264 34.09859056 -77.91723633 35.07415771 C-84.46798317 37.82470824 -84.46798317 37.82470824 -90.79492188 41.04199219 C-102.67907238 47.36406222 -116.29141104 45.64088582 -129.375 45.375 C-131.96090637 45.34485594 -134.54684668 45.31748802 -137.1328125 45.29296875 C-143.42262409 45.22734533 -149.71115111 45.12734984 -156 45 C-153.21470743 43.14313829 -151.19605226 42.30090902 -148.04589844 41.31103516 C-146.52102562 40.82811256 -146.52102562 40.82811256 -144.96534729 40.33543396 C-143.85787643 39.99013138 -142.75040558 39.6448288 -141.609375 39.2890625 C-139.87704872 38.74289024 -139.87704872 38.74289024 -138.10972595 38.1856842 C-134.97584978 37.19891175 -131.84064773 36.21650941 -128.70467758 35.23641586 C-126.0888192 34.41818511 -123.47397865 33.59672813 -120.85912228 32.77530193 C-112.57588954 30.17344469 -104.28855447 27.58485034 -96 25 C-94.99894226 24.68750305 -93.99788452 24.3750061 -92.9664917 24.05303955 C-83.41010236 21.07044269 -73.84651264 18.11345491 -64.26580811 15.20983887 C-59.93799749 13.89758401 -55.61419744 12.5733931 -51.29443359 11.23486328 C-46.30127319 9.68787001 -41.30271637 8.15950553 -36.30044556 6.64224243 C-34.38102908 6.05683252 -32.46344432 5.46537563 -30.54794312 4.86727905 C-20.17616095 1.63397884 -10.97429568 -1.04277219 0 0 Z " fill="#83B53C" transform="translate(457,155)"/>
<path d="M0 0 C2.37570543 -0.0816082 4.74855841 -0.14077222 7.125 -0.1875 C7.79015625 -0.21263672 8.4553125 -0.23777344 9.140625 -0.26367188 C14.67547822 -0.34506678 18.55381507 0.97557109 22.8125 4.5 C26.48969105 9.1448729 25 13.8926306 25 20 C34.9 19.67 44.8 19.34 55 19 C56.485 13.555 56.485 13.555 58 8 C61.28034582 3.62620557 64.76882691 1.54362485 70 0 C75.4476172 -0.37721021 79.6889509 0.27421667 84 3.75 C87.8870207 7.61872883 89.06818766 10.88285125 89.375 16.3125 C89.22770134 21.22245545 88.10350265 25.1380571 85 29 C80.84036777 32.26696779 76.28750283 33.66858989 71.01953125 33.3984375 C66.14050518 32.43584435 62.08048488 29.72032326 58 27 C57.19728668 27.48797562 57.19728668 27.48797562 56.37835693 27.98580933 C53.41602621 29.24902098 51.16539419 29.24035287 47.94628906 29.22705078 C46.72532532 29.22689972 45.50436157 29.22674866 44.24639893 29.22659302 C42.93274353 29.21627045 41.61908813 29.20594788 40.265625 29.1953125 C38.90370898 29.19158042 37.54179027 29.18873437 36.17987061 29.18673706 C32.60252414 29.17911594 29.02534115 29.15948069 25.44805908 29.1373291 C21.7948223 29.11683778 18.14155899 29.10772833 14.48828125 29.09765625 C7.32544647 29.07623322 0.16274617 29.04211582 -7 29 C-7 26.03 -7 23.06 -7 20 C0.59 19.67 8.18 19.34 16 19 C15.92091092 11.71626405 15.92091092 11.71626405 14 10 C11.65012738 9.76472227 9.29443961 9.58613583 6.9375 9.4375 C5.64714844 9.35371094 4.35679687 9.26992187 3.02734375 9.18359375 C2.02832031 9.12300781 1.02929688 9.06242187 0 9 C0 6.03 0 3.06 0 0 Z M67.625 9.4375 C65.21773088 13.23357822 65.35786921 16.62548398 66 21 C66.84520133 23.65844217 66.84520133 23.65844217 69 25 C73.73215584 25.62285815 73.73215584 25.62285815 77.875 23.625 C80.36208713 20.03254081 80.36866531 17.35025066 80 13 C78.54366876 9.97061306 78.54366876 9.97061306 76 8 C72.40988607 7.32685364 70.74900668 7.54665385 67.625 9.4375 Z " fill="#275871" transform="translate(202,115)"/>
<path d="M0 0 C1.37694628 0.44773266 2.75414303 0.89469567 4.13157654 1.34092712 C7.72938595 2.5087243 11.32373078 3.68684132 14.91741943 4.86724854 C18.59587895 6.07343278 22.27756741 7.26967623 25.95898438 8.46679688 C33.16202412 10.8106758 40.36142764 13.16548254 47.55859375 15.52734375 C47.55859375 15.85734375 47.55859375 16.18734375 47.55859375 16.52734375 C-11.13017021 19.31537736 -11.13017021 19.31537736 -37.44140625 3.52734375 C-37.44140625 2.53734375 -37.44140625 1.54734375 -37.44140625 0.52734375 C-35.30556321 -0.52082958 -33.1620651 -1.53481746 -31.00390625 -2.53515625 C-30.41158203 -2.82970703 -29.81925781 -3.12425781 -29.20898438 -3.42773438 C-19.54268391 -7.82150732 -9.45064967 -3.12092925 0 0 Z " fill="#265E76" transform="translate(431.44140625,183.47265625)"/>
<path d="M0 0 C2.64 0 5.28 0 8 0 C8.06058594 1.15757813 8.12117187 2.31515625 8.18359375 3.5078125 C8.26805502 5.04688457 8.35270018 6.58594655 8.4375 8.125 C8.47681641 8.88554688 8.51613281 9.64609375 8.55664062 10.4296875 C8.79509002 14.68509203 9.20230237 18.80370826 10 23 C11.77007714 23.08114106 13.54122098 23.13925505 15.3125 23.1875 C16.29863281 23.22230469 17.28476563 23.25710937 18.30078125 23.29296875 C20.9767819 23.23458573 20.9767819 23.23458573 22.63671875 21.7734375 C24.37122913 19.51708303 24.42170329 18.15851672 24.51171875 15.33203125 C24.54716797 14.43935547 24.58261719 13.54667969 24.61914062 12.62695312 C24.64169922 11.69818359 24.66425781 10.76941406 24.6875 9.8125 C24.72166016 8.87212891 24.75582031 7.93175781 24.79101562 6.96289062 C24.87347151 4.6423464 24.93841303 2.32119183 25 0 C27.97 0 30.94 0 34 0 C34.08137993 3.35466148 34.14068359 6.70732391 34.1875 10.0625 C34.21263672 11.00544922 34.23777344 11.94839844 34.26367188 12.91992188 C34.32463965 18.75250581 33.89066692 22.88574315 31 28 C24.56295201 33.09599633 18.97043141 33.63946155 11 33 C6.75061764 31.45477005 3.91458562 29.4543237 1 26 C-0.01973129 22.94080612 -0.11533602 20.87581975 -0.09765625 17.67578125 C-0.09443359 16.64775391 -0.09121094 15.61972656 -0.08789062 14.56054688 C-0.07951172 13.48869141 -0.07113281 12.41683594 -0.0625 11.3125 C-0.05798828 10.22904297 -0.05347656 9.14558594 -0.04882812 8.02929688 C-0.03703743 5.35280915 -0.02058063 2.67643223 0 0 Z " fill="#285972" transform="translate(157,115)"/>
<path d="M0 0 C5 0 5 0 6.94921875 1.4609375 C7.80966797 2.40839844 7.80966797 2.40839844 8.6875 3.375 C9.26886719 4.00148438 9.85023437 4.62796875 10.44921875 5.2734375 C10.96097656 5.84320313 11.47273437 6.41296875 12 7 C12.66 7.66 13.32 8.32 14 9 C14.50789062 8.3503125 15.01578125 7.700625 15.5390625 7.03125 C16.22742188 6.1959375 16.91578125 5.360625 17.625 4.5 C18.63433594 3.24703125 18.63433594 3.24703125 19.6640625 1.96875 C22 0 22 0 28 0 C28 9.24 28 18.48 28 28 C25.36 28 22.72 28 20 28 C19.67 24.04 19.34 20.08 19 16 C17.68 17.32 16.36 18.64 15 20 C14.01 20 13.02 20 12 20 C10.68 18.35 9.36 16.7 8 15 C7.67 19.29 7.34 23.58 7 28 C4.69 28 2.38 28 0 28 C0 18.76 0 9.52 0 0 Z " fill="#285972" transform="translate(0,115)"/>
<path d="M0 0 C3.63 1.65 7.26 3.3 11 5 C11 19.19 11 33.38 11 48 C3 52 3 52 0 52 C0 34.84 0 17.68 0 0 Z " fill="#4A9FC3" transform="translate(447,75)"/>
<path d="M0 0 C4.42953704 4.08880343 6.08275929 6.81046104 6.5625 12.8671875 C6.34737828 16.96794528 4.91415329 20.01363711 2.4375 23.25 C-2.85363657 27.59144539 -10.05250821 26.71756847 -16.5625 26.25 C-17.2225 25.92 -17.8825 25.59 -18.5625 25.25 C-18.5625 16.67 -18.5625 8.09 -18.5625 -0.75 C-12.48273026 -2.77658991 -5.7549433 -2.82698969 0 0 Z M-10.5625 5.25 C-10.5625 10.2 -10.5625 15.15 -10.5625 20.25 C-8.5825 19.92 -6.6025 19.59 -4.5625 19.25 C-2.02612946 15.44544419 -1.96776337 12.71052469 -2.5625 8.25 C-3.58671261 6.14061215 -3.58671261 6.14061215 -5.5625 5.25 C-7.2125 5.25 -8.8625 5.25 -10.5625 5.25 Z " fill="#275870" transform="translate(79.5625,116.75)"/>
<path d="M0 0 C4.40608743 2.16298837 7.1987497 4.39680479 9 9 C9.68426057 14.04325384 9.5739862 17.83076884 7.3125 22.4375 C4.28115306 25.79656012 2.25860352 27.69355631 -2.33203125 28.31640625 C-8.04951809 28.58213652 -11.60250453 27.96847152 -16 24 C-19.18474376 20.28446561 -19.46970168 16.9379337 -19.28125 12.2109375 C-18.67935459 7.47937079 -16.88335774 4.8187218 -13.4375 1.625 C-8.8269472 -0.55453405 -5.01620485 -0.80748663 0 0 Z M-8.625 8.125 C-11.19851667 10.78530346 -11.19851667 10.78530346 -11.625 14 C-10.80695681 17.92660732 -9.00495843 19.44578533 -6 22 C-2.34683329 20.75023244 -1.21934164 20.32901247 1 17 C1.5838196 14.0850745 1.5838196 14.0850745 1 11 C-1.2504197 8.08209475 -1.2504197 8.08209475 -4 6 C-6.30380405 5.79026726 -6.30380405 5.79026726 -8.625 8.125 Z " fill="#275870" transform="translate(107,115)"/>
<path d="M0 0 C1.98 0 3.96 0 6 0 C8.11056208 2.16406929 9.68764097 4.04797675 11.375 6.5 C11.82488281 7.12003906 12.27476562 7.74007812 12.73828125 8.37890625 C13.84303557 9.90675796 14.9239261 11.45181463 16 13 C16.33 8.71 16.66 4.42 17 0 C19.31 0 21.62 0 24 0 C24 9.24 24 18.48 24 28 C22.02 28 20.04 28 18 28 C15.88943792 25.83593071 14.31235903 23.95202325 12.625 21.5 C12.17511719 20.87996094 11.72523438 20.25992188 11.26171875 19.62109375 C10.15696443 18.09324204 9.0760739 16.54818537 8 15 C7.67 19.29 7.34 23.58 7 28 C4.69 28 2.38 28 0 28 C0 18.76 0 9.52 0 0 Z " fill="#285B73" transform="translate(118,115)"/>
<path d="M0 0 C3.97720993 2.062257 6.65438743 4.19756822 9 8 C9.88327431 12.85458517 10.14391377 17.87764426 7.7578125 22.3046875 C4.77634279 25.87948451 2.52716419 27.73466951 -2.26953125 28.23828125 C-6.5824755 28.36415827 -9.4544369 28.24798323 -13.4375 26.4375 C-17.06182633 22.98997007 -18.78823343 19.84876452 -19.1640625 14.79296875 C-18.92399112 9.37289573 -17.2103105 6.2634526 -13.5703125 2.3125 C-9.78163239 -0.854158 -4.66519365 -0.58215237 0 0 Z M-10 9 C-11.07783393 12.30535739 -11.14386562 14.36699127 -10.375 17.75 C-9.13470395 20.16724323 -9.13470395 20.16724323 -6.625 21.4375 C-4.03796084 22.22431404 -4.03796084 22.22431404 -1.75 21.25 C0.14296569 20.10397505 0.14296569 20.10397505 1 18 C1.46588282 12.11834264 1.46588282 12.11834264 -1 7 C-4.756232 5.18664662 -6.93507376 6.43208883 -10 9 Z " fill="#275971" transform="translate(49,115)"/>
<path d="M0 0 C13.53206068 -1.49343003 25.50932268 2.94120059 38.25 6.9375 C40.43306152 7.60525809 42.61665244 8.27128804 44.80078125 8.93554688 C48.76399024 10.14719024 52.72543245 11.36385752 56.68066406 12.60131836 C57.86308685 12.97105019 57.86308685 12.97105019 59.06939697 13.34825134 C61 14 61 14 63 15 C63 15.66 63 16.32 63 17 C60.7966366 17.7032653 58.5870286 18.38698402 56.375 19.0625 C55.14523437 19.44535156 53.91546875 19.82820313 52.6484375 20.22265625 C45.65308474 21.71310079 40.29760412 19.03633761 34.0234375 16.21875 C33.17576813 15.84520386 32.32809875 15.47165771 31.45474243 15.08679199 C28.75859052 13.89763739 26.06659799 12.69942229 23.375 11.5 C20.67571978 10.30186974 17.97559191 9.10574145 15.27383423 7.91320801 C13.59613256 7.17221528 11.91993841 6.42779758 10.24545288 5.67956543 C9.1037413 5.17399109 9.1037413 5.17399109 7.93896484 4.65820312 C7.27311371 4.36143677 6.60726257 4.06467041 5.92123413 3.75891113 C3.96826822 2.98746556 2.0461659 2.46243371 0 2 C0 1.34 0 0.68 0 0 Z " fill="#4697BA" transform="translate(323,155)"/>
<path d="M0 0 C0.66 0 1.32 0 2 0 C2 0.66 2 1.32 2 2 C3.60681641 1.98259766 3.60681641 1.98259766 5.24609375 1.96484375 C6.64322743 1.95546701 8.04036299 1.94636669 9.4375 1.9375 C10.14455078 1.92912109 10.85160156 1.92074219 11.58007812 1.91210938 C13.38693559 1.90346412 15.19387603 1.94779989 17 2 C17.33 2.33 17.66 2.66 18 3 C18.33 2.01 18.66 1.02 19 0 C19.66 0 20.32 0 21 0 C21.495 1.485 21.495 1.485 22 3 C22.598125 2.835 23.19625 2.67 23.8125 2.5 C29.27957842 1.25038208 35.38803687 2 41 2 C40.01 4.97 39.02 7.94 38 11 C31.1640625 11.1953125 31.1640625 11.1953125 29 11 C28.34 10.34 27.68 9.68 27 9 C25.08656553 8.75758326 25.08656553 8.75758326 23 8.875 C22.29875 8.89304688 21.5975 8.91109375 20.875 8.9296875 C19.946875 8.96449219 19.946875 8.96449219 19 9 C18.34 9 17.68 9 17 9 C16.08210693 9.00523682 15.16421387 9.01047363 14.21850586 9.01586914 C10.45817838 9.03656915 6.69786189 9.04959047 2.9375 9.0625 C1.61943359 9.07087891 0.30136719 9.07925781 -1.05664062 9.08789062 C-2.30767578 9.09111328 -3.55871094 9.09433594 -4.84765625 9.09765625 C-6.00273682 9.10289307 -7.15781738 9.10812988 -8.34790039 9.11352539 C-11 9 -11 9 -12 8 C-12.04063832 6.33382885 -12.042721 4.66611905 -12 3 C-8.25 1.875 -8.25 1.875 -6 3 C-3.43259568 2.75319799 -3.43259568 2.75319799 -1 2 C-0.67 1.34 -0.34 0.68 0 0 Z M34 4 C34 5.65 34 7.3 34 9 C34.66 8.34 35.32 7.68 36 7 C35.34 6.01 34.68 5.02 34 4 Z M-4 5 C-4 5.66 -4 6.32 -4 7 C-2.68 7 -1.36 7 0 7 C0 6.34 0 5.68 0 5 C-1.32 5 -2.64 5 -4 5 Z M14 5 C14 5.66 14 6.32 14 7 C14.66 7 15.32 7 16 7 C16 6.34 16 5.68 16 5 C15.34 5 14.68 5 14 5 Z M23 5 C23.66 5.66 24.32 6.32 25 7 C25.33 6.34 25.66 5.68 26 5 C25.01 5 24.02 5 23 5 Z " fill="#183745" transform="translate(219,185)"/>
<path d="M0 0 C0.99 0 1.98 0 3 0 C3.33 1.32 3.66 2.64 4 4 C5.65 4 7.3 4 9 4 C9.33 2.68 9.66 1.36 10 0 C10.99 0 11.98 0 13 0 C13 2.97 13 5.94 13 9 C13.66 9 14.32 9 15 9 C15 7.35 15 5.7 15 4 C15.99 4 16.98 4 18 4 C18.495 4.99 18.495 4.99 19 6 C19.66 5.34 20.32 4.68 21 4 C23.5625 3.8125 23.5625 3.8125 26 4 C27 5 27 5 27.0625 8.5625 C27.041875 9.696875 27.02125 10.83125 27 12 C17.33333333 12 7.66666667 12 -2 12 C-2 13.32 -2 14.64 -2 16 C-9.2 16.36 -9.2 16.36 -12.5 14.875 C-14.60705132 12.24118585 -14.29101222 10.27388743 -14 7 C-13.01 7 -12.02 7 -11 7 C-10.67 8.65 -10.34 10.3 -10 12 C-9.67 11.67 -9.34 11.34 -9 11 C-9.185625 10.2575 -9.37125 9.515 -9.5625 8.75 C-10.07891368 5.50397116 -9.4146727 3.91256144 -8 1 C-6.35 1 -4.7 1 -3 1 C-2.67 3.64 -2.34 6.28 -2 9 C-1.34 9 -0.68 9 0 9 C0 6.03 0 3.06 0 0 Z M-7 6 C-7 6.99 -7 7.98 -7 9 C-6.34 9 -5.68 9 -5 9 C-5 8.01 -5 7.02 -5 6 C-5.66 6 -6.32 6 -7 6 Z M5 6 C4.01 7.485 4.01 7.485 3 9 C4.32 9 5.64 9 7 9 C6.67 8.01 6.34 7.02 6 6 C5.67 6 5.34 6 5 6 Z M23 6 C22.67 6.99 22.34 7.98 22 9 C22.99 9 23.98 9 25 9 C24.67 8.01 24.34 7.02 24 6 C23.67 6 23.34 6 23 6 Z " fill="#1C3F50" transform="translate(57,161)"/>
<path d="M0 0 C0.99 0 1.98 0 3 0 C3 3.96 3 7.92 3 12 C-4.92 12 -12.84 12 -21 12 C-21 12.99 -21 13.98 -21 15 C-22.65 15 -24.3 15 -26 15 C-26 14.01 -26 13.02 -26 12 C-27.7015625 12.0309375 -27.7015625 12.0309375 -29.4375 12.0625 C-33 12 -33 12 -34 11 C-34.15672777 7.47362528 -34.04028969 4.38094149 -33 1 C-31.35 1 -29.7 1 -28 1 C-27.67 3.64 -27.34 6.28 -27 9 C-26.01 9 -25.02 9 -24 9 C-24 7.35 -24 5.7 -24 4 C-23.01 4 -22.02 4 -21 4 C-21 5.32 -21 6.64 -21 8 C-20.34 8.33 -19.68 8.66 -19 9 C-19 6.36 -19 3.72 -19 1 C-18.01 1 -17.02 1 -16 1 C-15.67 2.65 -15.34 4.3 -15 6 C-14.34 4.35 -13.68 2.7 -13 1 C-11.35 1 -9.7 1 -8 1 C-7.67 3.64 -7.34 6.28 -7 9 C-6.34 9 -5.68 9 -5 9 C-5.33 6.36 -5.66 3.72 -6 1 C-4.35 1 -2.7 1 -1 1 C-1.33 3.64 -1.66 6.28 -2 9 C-1.34 9 -0.68 9 0 9 C0 6.03 0 3.06 0 0 Z M-31 6 C-31.33 6.99 -31.66 7.98 -32 9 C-31.01 9 -30.02 9 -29 9 C-29 8.01 -29 7.02 -29 6 C-29.66 6 -30.32 6 -31 6 Z M-12 6 C-12 6.99 -12 7.98 -12 9 C-11.34 9 -10.68 9 -10 9 C-10 8.01 -10 7.02 -10 6 C-10.66 6 -11.32 6 -12 6 Z " fill="#193A49" transform="translate(34,161)"/>
<path d="M0 0 C3 1 3 1 4 3 C4.721875 2.855625 5.44375 2.71125 6.1875 2.5625 C7.115625 2.376875 8.04375 2.19125 9 2 C9.886875 1.79375 10.77375 1.5875 11.6875 1.375 C14 1 14 1 16 2 C16 1.34 16 0.68 16 0 C16.66 0 17.32 0 18 0 C18 0.66 18 1.32 18 2 C21.36347936 3.12115979 23.58366701 2.83325195 27 2 C27.86625 1.835 28.7325 1.67 29.625 1.5 C32.13198898 1.01934029 32.13198898 1.01934029 35 0 C36.7015625 0.7425 36.7015625 0.7425 38.4375 1.5 C41.73847374 3.24086221 41.73847374 3.24086221 44.4375 2.6875 C44.953125 2.460625 45.46875 2.23375 46 2 C44.25 8.75 44.25 8.75 42 11 C41.01 11 40.02 11 39 11 C39 10.34 39 9.68 39 9 C37.02 9 35.04 9 33 9 C33 7.68 33 6.36 33 5 C32.34 5 31.68 5 31 5 C31 6.32 31 7.64 31 9 C21.76 9 12.52 9 3 9 C3 8.34 3 7.68 3 7 C2.01 7 1.02 7 0 7 C0 7.66 0 8.32 0 9 C-0.99 9 -1.98 9 -3 9 C-2.01 6.03 -1.02 3.06 0 0 Z M14 5 C14 5.66 14 6.32 14 7 C14.66 7 15.32 7 16 7 C16 6.34 16 5.68 16 5 C15.34 5 14.68 5 14 5 Z M24 5 C24 5.66 24 6.32 24 7 C24.66 7 25.32 7 26 7 C26 6.34 26 5.68 26 5 C25.34 5 24.68 5 24 5 Z M38 5 C38 5.66 38 6.32 38 7 C38.66 7 39.32 7 40 7 C40 6.34 40 5.68 40 5 C39.34 5 38.68 5 38 5 Z " fill="#193948" transform="translate(33,185)"/>
<path d="M0 0 C-0.33 3.3 -0.66 6.6 -1 10 C-0.34 10 0.32 10 1 10 C1 8.35 1 6.7 1 5 C1.99 5 2.98 5 4 5 C4 6.65 4 8.3 4 10 C4.99 10 5.98 10 7 10 C6.814375 9.195625 6.62875 8.39125 6.4375 7.5625 C6.293125 6.716875 6.14875 5.87125 6 5 C6.33 4.67 6.66 4.34 7 4 C13.6 4.6 13.6 4.6 16 7 C16 7.99 16 8.98 16 10 C16.66 10 17.32 10 18 10 C18 7.03 18 4.06 18 1 C18.99 1 19.98 1 21 1 C21 4.96 21 8.92 21 13 C13.08 13.495 13.08 13.495 5 14 C5 14.66 5 15.32 5 16 C3.35 16 1.7 16 0 16 C0 15.01 0 14.02 0 13 C-0.84304688 13.02320313 -1.68609375 13.04640625 -2.5546875 13.0703125 C-4.19824219 13.09738281 -4.19824219 13.09738281 -5.875 13.125 C-6.96554687 13.14820313 -8.05609375 13.17140625 -9.1796875 13.1953125 C-12 13 -12 13 -14 11 C-13.6875 8.625 -13.6875 8.625 -13 6 C-12.814375 5.236875 -12.62875 4.47375 -12.4375 3.6875 C-12.293125 3.130625 -12.14875 2.57375 -12 2 C-10.35 2 -8.7 2 -7 2 C-6.67 4.64 -6.34 7.28 -6 10 C-5.34 10 -4.68 10 -4 10 C-4.3403125 8.3603125 -4.3403125 8.3603125 -4.6875 6.6875 C-5 3 -5 3 -3.6875 1.0625 C-2 0 -2 0 0 0 Z M-10 7 C-10.33 7.99 -10.66 8.98 -11 10 C-10.34 10 -9.68 10 -9 10 C-9.33 9.01 -9.66 8.02 -10 7 Z " fill="#224D62" transform="translate(263,160)"/>
<path d="M0 0 C0.66 0 1.32 0 2 0 C2 0.66 2 1.32 2 2 C5.84630361 2.06631558 9.33623815 2.11947713 13.125 1.4375 C16.33358718 0.94923673 18.84358253 1.32362483 22 2 C22 1.34 22 0.68 22 0 C22.66 0 23.32 0 24 0 C24.495 0.99 24.495 0.99 25 2 C26.32 2 27.64 2 29 2 C29.33 1.34 29.66 0.68 30 0 C30.99 0 31.98 0 33 0 C33 2.97 33 5.94 33 9 C29.37 9 25.74 9 22 9 C22 7.68 22 6.36 22 5 C21.34 5 20.68 5 20 5 C20 6.32 20 7.64 20 9 C10.1 9 0.2 9 -10 9 C-10 6.69 -10 4.38 -10 2 C-9.0925 2.185625 -8.185 2.37125 -7.25 2.5625 C-4.31685676 2.95734621 -2.7355343 2.94691572 0 2 C0 1.34 0 0.68 0 0 Z M-2 5 C-2 5.66 -2 6.32 -2 7 C-1.34 7 -0.68 7 0 7 C0 6.34 0 5.68 0 5 C-0.66 5 -1.32 5 -2 5 Z M8 5 C8 5.66 8 6.32 8 7 C8.66 6.67 9.32 6.34 10 6 C9.34 5.67 8.68 5.34 8 5 Z M16 5 C16 5.66 16 6.32 16 7 C16.66 7 17.32 7 18 7 C18 6.34 18 5.68 18 5 C17.34 5 16.68 5 16 5 Z " fill="#163340" transform="translate(112,185)"/>
<path d="M0 0 C0.99 0 1.98 0 3 0 C3 3.96 3 7.92 3 12 C-5.91 12 -14.82 12 -24 12 C-24.33 12.99 -24.66 13.98 -25 15 C-27.31 15.33 -29.62 15.66 -32 16 C-32 15.01 -32 14.02 -32 13 C-31.34 12.67 -30.68 12.34 -30 12 C-30.66 11.34 -31.32 10.68 -32 10 C-32.1875 7.4375 -32.1875 7.4375 -32 5 C-31 4 -31 4 -27.4375 3.9375 C-26.303125 3.958125 -25.16875 3.97875 -24 4 C-24 5.65 -24 7.3 -24 9 C-23.87625 8.360625 -23.7525 7.72125 -23.625 7.0625 C-23.41875 6.381875 -23.2125 5.70125 -23 5 C-20.29120665 3.64560332 -17.99066732 3.93498549 -15 4 C-15 5.65 -15 7.3 -15 9 C-14.34 9 -13.68 9 -13 9 C-13 7.68 -13 6.36 -13 5 C-11.39125 4.7834375 -11.39125 4.7834375 -9.75 4.5625 C-7.08337051 4.16250558 -4.58600271 3.72408076 -2 3 C-2 4.98 -2 6.96 -2 9 C-1.34 9 -0.68 9 0 9 C0 6.03 0 3.06 0 0 Z M-29 6 C-29 6.99 -29 7.98 -29 9 C-28.34 9 -27.68 9 -27 9 C-27 8.01 -27 7.02 -27 6 C-27.66 6 -28.32 6 -29 6 Z " fill="#1B3E4E" transform="translate(240,161)"/>
<path d="M0 0 C2.31 0 4.62 0 7 0 C6.125 4.875 6.125 4.875 5 6 C5.66 6.33 6.32 6.66 7 7 C7.33 5.68 7.66 4.36 8 3 C15.31790241 1.04855936 23.44738182 2 31 2 C31 4.31 31 6.62 31 9 C26.38 9 21.76 9 17 9 C16.67 7.68 16.34 6.36 16 5 C16 6.32 16 7.64 16 9 C10.72 9 5.44 9 0 9 C0.66 7.35 1.32 5.7 2 4 C1.34 3.67 0.68 3.34 0 3 C0 2.01 0 1.02 0 0 Z M10 5 C10.33 5.66 10.66 6.32 11 7 C11.33 6.34 11.66 5.68 12 5 C11.34 5 10.68 5 10 5 Z " fill="#193A49" transform="translate(262,185)"/>
<path d="M0 0 C1.32 0 2.64 0 4 0 C4.99 0 5.98 0 7 0 C7.33 0.66 7.66 1.32 8 2 C11.40460675 3.01218039 13.62482219 2.96433652 17 2 C18 3 18 3 18.0625 6.0625 C18.041875 7.031875 18.02125 8.00125 18 9 C13.70838953 9.05783842 9.41687855 9.0935412 5.125 9.125 C3.90167969 9.14175781 2.67835938 9.15851563 1.41796875 9.17578125 C-0.33193359 9.18544922 -0.33193359 9.18544922 -2.1171875 9.1953125 C-3.19597168 9.20578613 -4.27475586 9.21625977 -5.38623047 9.22705078 C-8 9 -8 9 -10 7 C-10.3125 4.5 -10.3125 4.5 -10 2 C-6.31143777 -0.45904149 -4.35789262 -0.15290851 0 0 Z M-7 3 C-7 4.32 -7 5.64 -7 7 C-5.68 6.67 -4.36 6.34 -3 6 C-3 5.01 -3 4.02 -3 3 C-4.32 3 -5.64 3 -7 3 Z M3 5 C4 7 4 7 4 7 Z " fill="#163340" transform="translate(158,185)"/>
<path d="M0 0 C0.99 0 1.98 0 3 0 C3 2.97 3 5.94 3 9 C3.66 9 4.32 9 5 9 C5 6.36 5 3.72 5 1 C5.99 1 6.98 1 8 1 C8 3.64 8 6.28 8 9 C8.66 9 9.32 9 10 9 C10 7.35 10 5.7 10 4 C15.37305699 3.55958549 15.37305699 3.55958549 18 4 C20 6.5 20 6.5 21 9 C21 6.03 21 3.06 21 0 C21.99 0 22.98 0 24 0 C24 3.96 24 7.92 24 12 C16.08 12 8.16 12 0 12 C0 8.04 0 4.08 0 0 Z M15 6 C14.01 7.485 14.01 7.485 13 9 C14.32 9 15.64 9 17 9 C16.67 8.01 16.34 7.02 16 6 C15.67 6 15.34 6 15 6 Z " fill="#122933" transform="translate(118,161)"/>
<path d="M0 0 C1.09570312 0.19464844 2.19140625 0.38929688 3.3203125 0.58984375 C4.16335938 0.74582031 5.00640625 0.90179688 5.875 1.0625 C5.875 2.7125 5.875 4.3625 5.875 6.0625 C6.535 6.0625 7.195 6.0625 7.875 6.0625 C7.875 4.4125 7.875 2.7625 7.875 1.0625 C9.875 1.0625 11.875 1.0625 13.875 1.0625 C13.875 0.4025 13.875 -0.2575 13.875 -0.9375 C15.525 -0.9375 17.175 -0.9375 18.875 -0.9375 C18.875 2.0325 18.875 5.0025 18.875 8.0625 C9.965 8.0625 1.055 8.0625 -8.125 8.0625 C-8.125 5.4225 -8.125 2.7825 -8.125 0.0625 C-5.2144446 -1.3927777 -3.16650948 -0.57266661 0 0 Z M11.875 4.0625 C12.535 4.7225 13.195 5.3825 13.875 6.0625 C13.875 5.4025 13.875 4.7425 13.875 4.0625 C13.215 4.0625 12.555 4.0625 11.875 4.0625 Z " fill="#1D4253" transform="translate(8.125,185.9375)"/>
<path d="M0 0 C0.99 0 1.98 0 3 0 C3 2.97 3 5.94 3 9 C3.66 9 4.32 9 5 9 C5 6.03 5 3.06 5 0 C5.99 0 6.98 0 8 0 C8 3.96 8 7.92 8 12 C-0.58 12 -9.16 12 -18 12 C-18 11.01 -18 10.02 -18 9 C-17.01 8.67 -16.02 8.34 -15 8 C-15.66 6.68 -16.32 5.36 -17 4 C-14.13275314 4.57344937 -13.1385485 4.8614515 -11 7 C-10.608125 6.505 -10.21625 6.01 -9.8125 5.5 C-7.44908285 3.54406857 -5.98564997 3.75792027 -3 4 C-2.67 5.65 -2.34 7.3 -2 9 C-1.34 9 -0.68 9 0 9 C0 6.03 0 3.06 0 0 Z M-7 6 C-7 6.99 -7 7.98 -7 9 C-6.34 9 -5.68 9 -5 9 C-5 8.01 -5 7.02 -5 6 C-5.66 6 -6.32 6 -7 6 Z " fill="#15303C" transform="translate(176,161)"/>
<path d="M0 0 C2.375 -0.1875 2.375 -0.1875 5 0 C7.1519437 3.22791555 7.20086443 4.28400809 7 8 C7.66 8 8.32 8 9 8 C9 6.35 9 4.7 9 3 C9.99 3 10.98 3 12 3 C12 4.65 12 6.3 12 8 C12.66 8 13.32 8 14 8 C14.33 6.35 14.66 4.7 15 3 C16.65 3 18.3 3 20 3 C20 3.66 20 4.32 20 5 C19.01 5.66 18.02 6.32 17 7 C18.32 7.33 19.64 7.66 21 8 C21 8.99 21 9.98 21 11 C18.03 11 15.06 11 12 11 C12 11.99 12 12.98 12 14 C10.35 14 8.7 14 7 14 C7 13.34 7 12.68 7 12 C4.36 11.34 1.72 10.68 -1 10 C-1.08004482 6.4780279 -1.04005702 3.38018531 0 0 Z M2 5 C2 5.99 2 6.98 2 8 C2.66 8 3.32 8 4 8 C4 7.01 4 6.02 4 5 C3.34 5 2.68 5 2 5 Z " fill="#26556C" transform="translate(96,162)"/>
<path d="M0 0 C0.66 0 1.32 0 2 0 C2 20.79 2 41.58 2 63 C2.99 63.33 3.98 63.66 5 64 C2.525 64.495 2.525 64.495 0 65 C0 43.55 0 22.1 0 0 Z " fill="#265366" transform="translate(323,70)"/>
<path d="M0 0 C0.66 0 1.32 0 2 0 C2 19.8 2 39.6 2 60 C0.35 59.34 -1.3 58.68 -3 58 C-3 57.34 -3 56.68 -3 56 C-2.01 56 -1.02 56 0 56 C0 37.52 0 19.04 0 0 Z " fill="#486421" transform="translate(430,68)"/>
<path d="M0 0 C0.62648438 0.144375 1.25296875 0.28875 1.8984375 0.4375 C3.12433594 0.7159375 3.12433594 0.7159375 4.375 1 C5.18710938 1.185625 5.99921875 1.37125 6.8359375 1.5625 C8.95874951 2.06605239 8.95874951 2.06605239 11 2 C11.99 2 12.98 2 14 2 C12.25 8.75 12.25 8.75 10 11 C9.01 11 8.02 11 7 11 C7 10.34 7 9.68 7 9 C5.02 9 3.04 9 1 9 C1 7.68 1 6.36 1 5 C0.34 5 -0.32 5 -1 5 C-1 6.32 -1 7.64 -1 9 C-1.99 9 -2.98 9 -4 9 C-4.28875 8.360625 -4.5775 7.72125 -4.875 7.0625 C-5.82823451 4.84793921 -5.82823451 4.84793921 -8 4 C-8.33 3.34 -8.66 2.68 -9 2 C-4.545 1.505 -4.545 1.505 0 1 C0 0.67 0 0.34 0 0 Z M6 5 C6 5.66 6 6.32 6 7 C6.66 7 7.32 7 8 7 C8 6.34 8 5.68 8 5 C7.34 5 6.68 5 6 5 Z " fill="#193948" transform="translate(65,185)"/>
<path d="M0 0 C0.66 0 1.32 0 2 0 C2 2.97 2 5.94 2 9 C-3.94 9 -9.88 9 -16 9 C-17.04449911 5.86650268 -16.93423645 5.01031744 -16 2 C-15.195625 2.185625 -14.39125 2.37125 -13.5625 2.5625 C-12.716875 2.706875 -11.87125 2.85125 -11 3 C-10.67 2.67 -10.34 2.34 -10 2 C-8.33388095 1.957279 -6.66617115 1.95936168 -5 2 C-4.34 2 -3.68 2 -3 2 C-2.01 2 -1.02 2 0 2 C0 1.34 0 0.68 0 0 Z M-2 5 C-2 5.66 -2 6.32 -2 7 C-1.34 7 -0.68 7 0 7 C0 6.34 0 5.68 0 5 C-0.66 5 -1.32 5 -2 5 Z " fill="#173543" transform="translate(195,185)"/>
<path d="M0 0 C2.375 -0.1875 2.375 -0.1875 5 0 C7.1519437 3.22791555 7.20086443 4.28400809 7 8 C7.99 8 8.98 8 10 8 C10 6.35 10 4.7 10 3 C10.66 3 11.32 3 12 3 C12 6.63 12 10.26 12 14 C10.35 14 8.7 14 7 14 C7 13.34 7 12.68 7 12 C4.36 11.34 1.72 10.68 -1 10 C-1.08004482 6.4780279 -1.04005702 3.38018531 0 0 Z M2 5 C2 5.99 2 6.98 2 8 C2.66 8 3.32 8 4 8 C4 7.01 4 6.02 4 5 C3.34 5 2.68 5 2 5 Z " fill="#163341" transform="translate(187,162)"/>
<path d="M0 0 C0.99 0 1.98 0 3 0 C3 3.96 3 7.92 3 12 C-4.92 12.495 -4.92 12.495 -13 13 C-13 13.66 -13 14.32 -13 15 C-14.65 15 -16.3 15 -18 15 C-18 14.01 -18 13.02 -18 12 C-18.84304688 12.02320313 -19.68609375 12.04640625 -20.5546875 12.0703125 C-22.19824219 12.09738281 -22.19824219 12.09738281 -23.875 12.125 C-24.96554687 12.14820313 -26.05609375 12.17140625 -27.1796875 12.1953125 C-30 12 -30 12 -32 10 C-31.625 7.375 -31.625 7.375 -31 5 C-29.515 5.99 -29.515 5.99 -28 7 C-28.33 7.66 -28.66 8.32 -29 9 C-28.34 9 -27.68 9 -27 9 C-26.67 8.01 -26.34 7.02 -26 6 C-26 7.32 -26 8.64 -26 10 C-12.14 10.495 -12.14 10.495 2 11 C-0.475 10.505 -0.475 10.505 -3 10 C-2.67 8.68 -2.34 7.36 -2 6 C-2 6.99 -2 7.98 -2 9 C-1.34 9 -0.68 9 0 9 C0 6.03 0 3.06 0 0 Z " fill="#132D39" transform="translate(281,161)"/>
<path d="M0 0 C1.65 0 3.3 0 5 0 C5.33 2.64 5.66 5.28 6 8 C6.99 8 7.98 8 9 8 C9 6.35 9 4.7 9 3 C9.99 3 10.98 3 12 3 C11.67 4.98 11.34 6.96 11 9 C12.32 9 13.64 9 15 9 C15 7.35 15 5.7 15 4 C15.33 4 15.66 4 16 4 C16 5.65 16 7.3 16 9 C16.99 9 17.98 9 19 9 C19.33 8.01 19.66 7.02 20 6 C20.99 7.32 21.98 8.64 23 10 C19.37501666 10.02893932 15.75006287 10.04677792 12.125 10.0625 C10.57619141 10.07506836 10.57619141 10.07506836 8.99609375 10.08789062 C8.00996094 10.09111328 7.02382812 10.09433594 6.0078125 10.09765625 C5.09660645 10.10289307 4.18540039 10.10812988 3.24658203 10.11352539 C1 10 1 10 -1 9 C-1.08886184 5.80097361 -0.91058531 3.07322544 0 0 Z M2 5 C1.67 5.99 1.34 6.98 1 8 C1.99 8 2.98 8 4 8 C4 7.01 4 6.02 4 5 C3.34 5 2.68 5 2 5 Z " fill="#26566D" transform="translate(1,162)"/>
<path d="M0 0 C0.99 0 1.98 0 3 0 C3.33 1.65 3.66 3.3 4 5 C4.66 3.35 5.32 1.7 6 0 C7.65 0 9.3 0 11 0 C11.33 2.64 11.66 5.28 12 8 C12.66 8 13.32 8 14 8 C13.67 5.36 13.34 2.72 13 0 C14.65 0 16.3 0 18 0 C17.67 2.64 17.34 5.28 17 8 C17.66 8.33 18.32 8.66 19 9 C16.36 9 13.72 9 11 9 C10.67 7.68 10.34 6.36 10 5 C9.01 5 8.02 5 7 5 C6.67 5.99 6.34 6.98 6 8 C2.62182575 8.84454356 0.32534757 9.10844919 -3 8 C-2.01 8 -1.02 8 0 8 C0 5.36 0 2.72 0 0 Z " fill="#1D4152" transform="translate(15,162)"/>
<path d="M0 0 C0.33 0 0.66 0 1 0 C1 2.97 1 5.94 1 9 C2.32 9 3.64 9 5 9 C5 7.35 5 5.7 5 4 C5.33 4 5.66 4 6 4 C6 5.65 6 7.3 6 9 C7.32 9 8.64 9 10 9 C10 7.35 10 5.7 10 4 C13.465 3.505 13.465 3.505 17 3 C17.99 4.65 18.98 6.3 20 8 C20 5.36 20 2.72 20 0 C20.66 0 21.32 0 22 0 C22 3.3 22 6.6 22 10 C14.74 10 7.48 10 0 10 C0 6.7 0 3.4 0 0 Z M14 5 C13.01 6.485 13.01 6.485 12 8 C13.32 8 14.64 8 16 8 C15.67 7.01 15.34 6.02 15 5 C14.67 5 14.34 5 14 5 Z " fill="#26566D" transform="translate(119,162)"/>
<path d="M0 0 C0.99 0 1.98 0 3 0 C3 0.99 3 1.98 3 3 C3.886875 2.835 4.77375 2.67 5.6875 2.5 C8.53596892 2.07004243 11.13004802 1.91558965 14 2 C14 2.99 14 3.98 14 5 C13.34 5 12.68 5 12 5 C12 6.32 12 7.64 12 9 C7.66666667 9 3.33333333 9 -1 9 C-1.125 2.25 -1.125 2.25 0 0 Z M5 5 C5 5.66 5 6.32 5 7 C5.66 7 6.32 7 7 7 C7 6.34 7 5.68 7 5 C6.34 5 5.68 5 5 5 Z " fill="#1A3B4B" transform="translate(82,185)"/>
<path d="M0 0 C0.66 0 1.32 0 2 0 C2 0.66 2 1.32 2 2 C4.64 2.33 7.28 2.66 10 3 C9.01 3.495 9.01 3.495 8 4 C8 4.99 8 5.98 8 7 C8.99 7 9.98 7 11 7 C11.33 6.34 11.66 5.68 12 5 C11.67 6.32 11.34 7.64 11 9 C9.741875 9.020625 8.48375 9.04125 7.1875 9.0625 C6.47980469 9.07410156 5.77210937 9.08570313 5.04296875 9.09765625 C3 9 3 9 0 8 C0 7.01 0 6.02 0 5 C-0.66 5 -1.32 5 -2 5 C-2.33 5.99 -2.66 6.98 -3 8 C-3.33 5.69 -3.66 3.38 -4 1 C-2.68 1.33 -1.36 1.66 0 2 C0 1.34 0 0.68 0 0 Z " fill="#1C4152" transform="translate(49,185)"/>
<path d="M0 0 C1.4540625 0.0309375 1.4540625 0.0309375 2.9375 0.0625 C3.01840971 1.68668745 3.07664995 3.31201745 3.125 4.9375 C3.15980469 5.84242188 3.19460937 6.74734375 3.23046875 7.6796875 C3.13378906 8.46601563 3.03710938 9.25234375 2.9375 10.0625 C-0.29041555 12.2144437 -1.34650809 12.26336443 -5.0625 12.0625 C-5.0625 11.0725 -5.0625 10.0825 -5.0625 9.0625 C-4.4025 8.7325 -3.7425 8.4025 -3.0625 8.0625 C-3.7225 7.4025 -4.3825 6.7425 -5.0625 6.0625 C-4.33395709 0.0884481 -4.33395709 0.0884481 0 0 Z M-2.0625 2.0625 C-2.0625 3.0525 -2.0625 4.0425 -2.0625 5.0625 C-1.4025 5.0625 -0.7425 5.0625 -0.0625 5.0625 C-0.0625 4.0725 -0.0625 3.0825 -0.0625 2.0625 C-0.7225 2.0625 -1.3825 2.0625 -2.0625 2.0625 Z " fill="#16313F" transform="translate(90.0625,164.9375)"/>
<path d="M0 0 C2.97 0 5.94 0 9 0 C9 2.64 9 5.28 9 8 C6.03 8 3.06 8 0 8 C0 5.36 0 2.72 0 0 Z " fill="#245066" transform="translate(169,108)"/>
<path d="M0 0 C2.375 -0.1875 2.375 -0.1875 5 0 C7.1519437 3.22791555 7.20086443 4.28400809 7 8 C7.66 8 8.32 8 9 8 C9 6.35 9 4.7 9 3 C9.99 3 10.98 3 12 3 C12 4.65 12 6.3 12 8 C12.99 8.33 13.98 8.66 15 9 C12.03 9 9.06 9 6 9 C6 7.35 6 5.7 6 4 C5.67 5.65 5.34 7.3 5 9 C3.02 9.33 1.04 9.66 -1 10 C-1.08004482 6.4780279 -1.04005702 3.38018531 0 0 Z M2 5 C2 5.99 2 6.98 2 8 C2.66 8 3.32 8 4 8 C4 7.01 4 6.02 4 5 C3.34 5 2.68 5 2 5 Z " fill="#152F3C" transform="translate(96,162)"/>
<path d="M0 0 C0.99 0 1.98 0 3 0 C3.30722279 6.75890132 3.30722279 6.75890132 1 10 C-1.3828125 10.609375 -1.3828125 10.609375 -4.125 10.75 C-5.03507812 10.80671875 -5.94515625 10.8634375 -6.8828125 10.921875 C-7.93082031 10.96054688 -7.93082031 10.96054688 -9 11 C-10.15837626 6.94568308 -9.83691257 4.78187881 -8 1 C-6.35 1 -4.7 1 -3 1 C-2.67 3.64 -2.34 6.28 -2 9 C-1.34 9 -0.68 9 0 9 C0 6.03 0 3.06 0 0 Z M-7 6 C-7 6.99 -7 7.98 -7 9 C-6.34 9 -5.68 9 -5 9 C-5 8.01 -5 7.02 -5 6 C-5.66 6 -6.32 6 -7 6 Z " fill="#15313E" transform="translate(57,161)"/>
<path d="M0 0 C0.7425 0.185625 1.485 0.37125 2.25 0.5625 C4.97391397 0.99584995 6.40770504 0.7406557 9 0 C10 1 10 1 10.0625 4.0625 C10.041875 5.031875 10.02125 6.00125 10 7 C6.7 7 3.4 7 0 7 C-1.125 2.25 -1.125 2.25 0 0 Z " fill="#193847" transform="translate(166,187)"/>
<path d="M0 0 C1.98 0 3.96 0 6 0 C6.05399736 1.45792884 6.09279177 2.91642712 6.125 4.375 C6.14820313 5.18710938 6.17140625 5.99921875 6.1953125 6.8359375 C6 9 6 9 4 11 C0.875 11.125 0.875 11.125 -2 11 C-3.35439668 8.29120665 -3.06501451 5.99066732 -3 3 C-2.01 3 -1.02 3 0 3 C0 2.01 0 1.02 0 0 Z M0 3 C0 4.98 0 6.96 0 9 C0.99 9 1.98 9 3 9 C3 6.69 3 4.38 3 2 C1.7763932 1.9254644 1.7763932 1.9254644 0 3 Z " fill="#214B5F" transform="translate(151,165)"/>
<path d="M0 0 C-0.99 2.97 -1.98 5.94 -3 9 C-5.97 9 -8.94 9 -12 9 C-12 7.35 -12 5.7 -12 4 C-11.01 3.67 -10.02 3.34 -9 3 C-8.34 2.34 -7.68 1.68 -7 1 C-6.67 2.32 -6.34 3.64 -6 5 C-6 3.68 -6 2.36 -6 1 C-3 0 -3 0 0 0 Z " fill="#173644" transform="translate(260,187)"/>
<path d="M0 0 C0.99 0 1.98 0 3 0 C3.84454356 3.37817425 4.10844919 5.67465243 3 9 C2.34 9 1.68 9 1 9 C1 7.68 1 6.36 1 5 C0.34 5 -0.32 5 -1 5 C-1 6.32 -1 7.64 -1 9 C-1.99 9 -2.98 9 -4 9 C-4.28875 8.360625 -4.5775 7.72125 -4.875 7.0625 C-5.82823451 4.84793921 -5.82823451 4.84793921 -8 4 C-8.33 3.34 -8.66 2.68 -9 2 C-4.545 1.505 -4.545 1.505 0 1 C0 0.67 0 0.34 0 0 Z " fill="#142E3A" transform="translate(65,185)"/>
<path d="M0 0 C2.475 0.99 2.475 0.99 5 2 C4.01 2.66 3.02 3.32 2 4 C1.52482134 6.09247425 1.52482134 6.09247425 1.56762695 8.54150391 C1.54783279 9.48232819 1.52803864 10.42315247 1.50764465 11.39248657 C1.50125473 12.41023163 1.49486481 13.42797668 1.48828125 14.4765625 C1.47033005 15.51694672 1.45237885 16.55733093 1.43388367 17.62924194 C1.37958318 20.96111971 1.34582147 24.29285266 1.3125 27.625 C1.27934439 29.88022858 1.24485639 32.13543799 1.20898438 34.390625 C1.12384566 39.92695346 1.05557978 45.46330021 1 51 C1.66 51.33 2.32 51.66 3 52 C2.01 52 1.02 52 0 52 C0 34.84 0 17.68 0 0 Z " fill="#2D6076" transform="translate(447,75)"/>
<path d="M0 0 C0.66 0 1.32 0 2 0 C2 3.63 2 7.26 2 11 C0.35 11 -1.3 11 -3 11 C-3 10.34 -3 9.68 -3 9 C-5.97 8.505 -5.97 8.505 -9 8 C-9 7.34 -9 6.68 -9 6 C-7.68 6 -6.36 6 -5 6 C-5.33 4.35 -5.66 2.7 -6 1 C-5.34 1 -4.68 1 -4 1 C-4 2.65 -4 4.3 -4 6 C-2.68 6 -1.36 6 0 6 C0 4.02 0 2.04 0 0 Z " fill="#2A5F78" transform="translate(197,165)"/>
<path d="M0 0 C3.5 0.3125 3.5 0.3125 7 1 C8.24546405 3.49092811 7.7767578 4.41080733 7 7 C3.33333333 7 -0.33333333 7 -4 7 C-4.33 5.02 -4.66 3.04 -5 1 C-4.34 1 -3.68 1 -3 1 C-3 2.65 -3 4.3 -3 6 C-2.01 6 -1.02 6 0 6 C-0.2784375 4.7934375 -0.2784375 4.7934375 -0.5625 3.5625 C-0.706875 2.716875 -0.85125 1.87125 -1 1 C-0.67 0.67 -0.34 0.34 0 0 Z " fill="#15313D" transform="translate(270,164)"/>
<path d="M0 0 C2.31 0.33 4.62 0.66 7 1 C6.67 1.66 6.34 2.32 6 3 C6.66 3.33 7.32 3.66 8 4 C7.67 4.99 7.34 5.98 7 7 C3.7 7 0.4 7 -3 7 C-3 5.02 -3 3.04 -3 1 C-2.67 2.32 -2.34 3.64 -2 5 C-1.34 5 -0.68 5 0 5 C0 3.35 0 1.7 0 0 Z M2 3 C2 3.66 2 4.32 2 5 C2.66 4.67 3.32 4.34 4 4 C3.34 3.67 2.68 3.34 2 3 Z " fill="#1D4253" transform="translate(118,187)"/>
<path d="M0 0 C0.33 0 0.66 0 1 0 C1 2.97 1 5.94 1 9 C2.32 9 3.64 9 5 9 C5 6.03 5 3.06 5 0 C5.33 0 5.66 0 6 0 C6 3.3 6 6.6 6 10 C1.05 10 -3.9 10 -9 10 C-9.33 8.68 -9.66 7.36 -10 6 C-9.67 6.66 -9.34 7.32 -9 8 C-8.01 8 -7.02 8 -6 8 C-6 6.68 -6 5.36 -6 4 C-5.34 4 -4.68 4 -4 4 C-4 5.65 -4 7.3 -4 9 C-2.68 9 -1.36 9 0 9 C0 6.03 0 3.06 0 0 Z " fill="#2A607A" transform="translate(177,162)"/>
<path d="M0 0 C0.66 1.32 1.32 2.64 2 4 C2.33 3.67 2.66 3.34 3 3 C4.66617115 2.95936168 6.33388095 2.957279 8 3 C8 5.31 8 7.62 8 10 C5.36 10 2.72 10 0 10 C0 6.7 0 3.4 0 0 Z M4 5 C3.01 6.485 3.01 6.485 2 8 C3.32 8 4.64 8 6 8 C5.67 7.01 5.34 6.02 5 5 C4.67 5 4.34 5 4 5 Z " fill="#234F64" transform="translate(58,162)"/>
<path d="M0 0 C0 2.31 0 4.62 0 7 C-1.98 7 -3.96 7 -6 7 C-6 6.34 -6 5.68 -6 5 C-6.99 5 -7.98 5 -9 5 C-9 4.01 -9 3.02 -9 2 C-5.62902617 0.50178941 -3.79557881 0 0 0 Z " fill="#0F212A" transform="translate(293,187)"/>
<path d="M0 0 C0.99 0 1.98 0 3 0 C3 2.97 3 5.94 3 9 C3.66 9 4.32 9 5 9 C5 6.36 5 3.72 5 1 C5.99 1 6.98 1 8 1 C8 3.64 8 6.28 8 9 C8.66 9 9.32 9 10 9 C10 7.35 10 5.7 10 4 C11.32 4.33 12.64 4.66 14 5 C13.01 5.495 13.01 5.495 12 6 C11.67 7.32 11.34 8.64 11 10 C8.03 10 5.06 10 2 10 C2 7.03 2 4.06 2 1 C1.34 0.67 0.68 0.34 0 0 Z " fill="#0F222B" transform="translate(118,161)"/>
<path d="M0 0 C-0.5347998 0.17128418 -1.06959961 0.34256836 -1.62060547 0.51904297 C-4.04081336 1.29807533 -6.45788933 2.08641306 -8.875 2.875 C-9.71675781 3.14441406 -10.55851562 3.41382813 -11.42578125 3.69140625 C-12.23144531 3.95566406 -13.03710938 4.21992188 -13.8671875 4.4921875 C-14.61081543 4.73308105 -15.35444336 4.97397461 -16.12060547 5.22216797 C-18.19586438 5.94056343 -18.19586438 5.94056343 -20 8 C-22.1640625 8.1953125 -22.1640625 8.1953125 -24.625 8.125 C-25.44226563 8.10695312 -26.25953125 8.08890625 -27.1015625 8.0703125 C-27.72804688 8.04710937 -28.35453125 8.02390625 -29 8 C-24.68084638 5.12056425 -19.9832621 3.88550467 -15.0625 2.3125 C-14.06025391 1.97927734 -13.05800781 1.64605469 -12.02539062 1.30273438 C-11.05923828 0.99271484 -10.09308594 0.68269531 -9.09765625 0.36328125 C-8.21601807 0.07751221 -7.33437988 -0.20825684 -6.42602539 -0.50268555 C-3.86924294 -1.02680408 -2.43866818 -0.84877125 0 0 Z " fill="#577828" transform="translate(330,192)"/>
<path d="M0 0 C0.99 0 1.98 0 3 0 C3 2.97 3 5.94 3 9 C0.36 9 -2.28 9 -5 9 C-4.67 8.01 -4.34 7.02 -4 6 C-3.34 6 -2.68 6 -2 6 C-1.34 4.02 -0.68 2.04 0 0 Z " fill="#142F3B" transform="translate(142,185)"/>
<path d="M0 0 C1.65 0 3.3 0 5 0 C5 2.97 5 5.94 5 9 C2.36 9 -0.28 9 -3 9 C-2.34 8.01 -1.68 7.02 -1 6 C-0.01 6.66 0.98 7.32 2 8 C1.67 6.35 1.34 4.7 1 3 C0.01 2.67 -0.98 2.34 -2 2 C-1.34 2 -0.68 2 0 2 C0 1.34 0 0.68 0 0 Z " fill="#112934" transform="translate(22,185)"/>
<path d="M0 0 C0.99 0 1.98 0 3 0 C3.87890625 6.15234375 3.87890625 6.15234375 4 8 C3 9 3 9 -0.0625 9.0625 C-1.031875 9.041875 -2.00125 9.02125 -3 9 C-1.92307692 1.92307692 -1.92307692 1.92307692 0 0 Z M-1 5 C0 7 0 7 0 7 Z " fill="#0F242D" transform="translate(162,185)"/>
<path d="M0 0 C4.875 0.875 4.875 0.875 6 2 C6.04080783 3.99958364 6.04254356 6.00045254 6 8 C3.69 8 1.38 8 -1 8 C-1 7.01 -1 6.02 -1 5 C0.32 5 1.64 5 3 5 C3 4.34 3 3.68 3 3 C2.01 2.67 1.02 2.34 0 2 C0 1.34 0 0.68 0 0 Z " fill="#193A49" transform="translate(201,165)"/>
<path d="M0 0 C2.31 0 4.62 0 7 0 C7 0.99 7 1.98 7 3 C6.34 3 5.68 3 5 3 C5 4.98 5 6.96 5 9 C4.01 9 3.02 9 2 9 C2 7.02 2 5.04 2 3 C1.34 3 0.68 3 0 3 C0 2.01 0 1.02 0 0 Z " fill="#15313E" transform="translate(200,185)"/>
<path d="M0 0 C4.29 0 8.58 0 13 0 C13 0.66 13 1.32 13 2 C11.3767313 2.6708712 9.75132422 3.33657029 8.125 4 C6.76761719 4.556875 6.76761719 4.556875 5.3828125 5.125 C3 6 3 6 1 6 C1 5.34 1 4.68 1 4 C2.32 3.67 3.64 3.34 5 3 C5 2.34 5 1.68 5 1 C3.35 1 1.7 1 0 1 C0 0.67 0 0.34 0 0 Z " fill="#5A7C29" transform="translate(444,155)"/>
<path d="M0 0 C0.66 0 1.32 0 2 0 C2 2.97 2 5.94 2 9 C0.35 9 -1.3 9 -3 9 C-3.93423645 5.98968256 -4.04449911 5.13349732 -3 2 C-2.01 2 -1.02 2 0 2 C0 1.34 0 0.68 0 0 Z M-2 5 C-2 5.66 -2 6.32 -2 7 C-1.34 7 -0.68 7 0 7 C0 6.34 0 5.68 0 5 C-0.66 5 -1.32 5 -2 5 Z " fill="#1F475A" transform="translate(195,185)"/>
<path d="M0 0 C0.99 0 1.98 0 3 0 C3 3.96 3 7.92 3 12 C2.01 12 1.02 12 0 12 C0 8.04 0 4.08 0 0 Z " fill="#183745" transform="translate(285,161)"/>
<path d="M0 0 C0.99 0 1.98 0 3 0 C3 3.96 3 7.92 3 12 C2.01 12 1.02 12 0 12 C0 8.04 0 4.08 0 0 Z " fill="#183847" transform="translate(143,161)"/>
<path d="M0 0 C0.99 0 1.98 0 3 0 C3 3.96 3 7.92 3 12 C2.01 12 1.02 12 0 12 C0 8.04 0 4.08 0 0 Z " fill="#183848" transform="translate(38,161)"/>
<path d="M0 0 C1.65 0 3.3 0 5 0 C4.67 2.64 4.34 5.28 4 8 C4.66 8.33 5.32 8.66 6 9 C3.36 9 0.72 9 -2 9 C-2 7.35 -2 5.7 -2 4 C-1.67 5.32 -1.34 6.64 -1 8 C-0.34 8 0.32 8 1 8 C0.67 5.36 0.34 2.72 0 0 Z " fill="#112732" transform="translate(28,162)"/>
<path d="M0 0 C0 1.98 0 3.96 0 6 C-0.33 5.34 -0.66 4.68 -1 4 C-1.66 4 -2.32 4 -3 4 C-3 4.66 -3 5.32 -3 6 C-4.32 6.33 -5.64 6.66 -7 7 C-7 5.02 -7 3.04 -7 1 C-4 0 -4 0 0 0 Z " fill="#1D4152" transform="translate(141,187)"/>
<path d="M0 0 C0.66 0 1.32 0 2 0 C2 3.96 2 7.92 2 12 C1.01 12 0.02 12 -1 12 C-1.02687279 10.18757948 -1.04633715 8.37504767 -1.0625 6.5625 C-1.07410156 5.55316406 -1.08570313 4.54382813 -1.09765625 3.50390625 C-1 1 -1 1 0 0 Z " fill="#193847" transform="translate(245,161)"/>
<path d="M0 0 C6.6 0 13.2 0 20 0 C20 0.33 20 0.66 20 1 C17.03 1 14.06 1 11 1 C11 1.99 11 2.98 11 4 C9.35 4 7.7 4 6 4 C6 3.34 6 2.68 6 2 C3.03 1.505 3.03 1.505 0 1 C0 0.67 0 0.34 0 0 Z " fill="#142E3B" transform="translate(97,172)"/>
<path d="M0 0 C1.32 0 2.64 0 4 0 C4 0.66 4 1.32 4 2 C4.66 2.33 5.32 2.66 6 3 C5.34 3 4.68 3 4 3 C4.33 4.32 4.66 5.64 5 7 C3.35 7.33 1.7 7.66 0 8 C0 5.36 0 2.72 0 0 Z " fill="#1C4051" transform="translate(156,186)"/>
<path d="M0 0 C0.99 0 1.98 0 3 0 C3 2.31 3 4.62 3 7 C-2.28 7 -7.56 7 -13 7 C-13 6.67 -13 6.34 -13 6 C-12.24074219 5.93941406 -11.48148437 5.87882813 -10.69921875 5.81640625 C-9.70535156 5.73261719 -8.71148437 5.64882812 -7.6875 5.5625 C-6.70136719 5.48128906 -5.71523437 5.40007812 -4.69921875 5.31640625 C-1.90624401 5.08187441 -1.90624401 5.08187441 1 4 C0.67 2.68 0.34 1.36 0 0 Z " fill="#1A3B4A" transform="translate(81,166)"/>
<path d="M0 0 C1.670625 0.061875 1.670625 0.061875 3.375 0.125 C1.32266315 2.3727975 0.36832739 3.1272242 -2.625 4.125 C-2.955 4.785 -3.285 5.445 -3.625 6.125 C-2.635 6.455 -1.645 6.785 -0.625 7.125 C-1.945 7.455 -3.265 7.785 -4.625 8.125 C-5.25 5.25 -5.25 5.25 -5.625 2.125 C-3.625 0.125 -3.625 0.125 0 0 Z " fill="#132C37" transform="translate(251.625,186.875)"/>
<path d="M0 0 C0.66 0 1.32 0 2 0 C2 1.65 2 3.3 2 5 C3.65 5 5.3 5 7 5 C7 5.33 7 5.66 7 6 C5.35 6 3.7 6 2 6 C1.67 6.66 1.34 7.32 1 8 C1 7.34 1 6.68 1 6 C-0.65 6 -2.3 6 -4 6 C-4 4.35 -4 2.7 -4 1 C-3.67 1.99 -3.34 2.98 -3 4 C-2.01 4 -1.02 4 0 4 C0 2.68 0 1.36 0 0 Z " fill="#285B73" transform="translate(213,166)"/>
<path d="M0 0 C1.134375 0.020625 2.26875 0.04125 3.4375 0.0625 C3.4375 1.7125 3.4375 3.3625 3.4375 5.0625 C4.7575 4.7325 6.0775 4.4025 7.4375 4.0625 C7.4375 4.7225 7.4375 5.3825 7.4375 6.0625 C5.7875 6.0625 4.1375 6.0625 2.4375 6.0625 C2.4375 4.4125 2.4375 2.7625 2.4375 1.0625 C0.45258358 1.32926204 0.45258358 1.32926204 -1.5625 2.0625 C-1.8925 3.0525 -2.2225 4.0425 -2.5625 5.0625 C-3.5525 5.5575 -3.5525 5.5575 -4.5625 6.0625 C-4.605221 4.39638095 -4.60313832 2.72867115 -4.5625 1.0625 C-3.5625 0.0625 -3.5625 0.0625 0 0 Z " fill="#132B36" transform="translate(212.5625,164.9375)"/>
<path d="M0 0 C1.2065625 0.0309375 1.2065625 0.0309375 2.4375 0.0625 C2.4375 3.0325 2.4375 6.0025 2.4375 9.0625 C2.1075 9.0625 1.7775 9.0625 1.4375 9.0625 C1.4375 6.7525 1.4375 4.4425 1.4375 2.0625 C0.4475 2.0625 -0.5425 2.0625 -1.5625 2.0625 C-1.8925 3.3825 -2.2225 4.7025 -2.5625 6.0625 C-3.2225 6.0625 -3.8825 6.0625 -4.5625 6.0625 C-3.48963568 0.08511307 -3.48963568 0.08511307 0 0 Z " fill="#24546A" transform="translate(89.5625,164.9375)"/>
<path d="M0 0 C1.2065625 0.0309375 1.2065625 0.0309375 2.4375 0.0625 C2.4375 1.0525 2.4375 2.0425 2.4375 3.0625 C1.7775 3.0625 1.1175 3.0625 0.4375 3.0625 C0.4375 4.3825 0.4375 5.7025 0.4375 7.0625 C-0.5525 7.0625 -1.5425 7.0625 -2.5625 7.0625 C-2.94383299 5.0710944 -3.27575582 3.06970923 -3.5625 1.0625 C-2.5625 0.0625 -2.5625 0.0625 0 0 Z " fill="#122A35" transform="translate(93.5625,186.9375)"/>
<path d="M0 0 C0.99 0 1.98 0 3 0 C3.144375 0.7425 3.28875 1.485 3.4375 2.25 C3.90187492 4.52027739 4.41863569 6.75759479 5 9 C2.36 9 -0.28 9 -3 9 C-2.01 8.67 -1.02 8.34 0 8 C0 5.36 0 2.72 0 0 Z " fill="#10242E" transform="translate(15,162)"/>
<path d="M0 0 C1.65 0 3.3 0 5 0 C3.68 0.33 2.36 0.66 1 1 C1.33 2.98 1.66 4.96 2 7 C0.35 7 -1.3 7 -3 7 C-3.33 5.35 -3.66 3.7 -4 2 C-3.01 2 -2.02 2 -1 2 C-0.67 1.34 -0.34 0.68 0 0 Z " fill="#122934" transform="translate(225,187)"/>
<path d="M0 0 C0.66 0 1.32 0 2 0 C2 0.66 2 1.32 2 2 C2.99 2 3.98 2 5 2 C5 3.98 5 5.96 5 8 C4.67 6.68 4.34 5.36 4 4 C3.34 4 2.68 4 2 4 C2 5.32 2 6.64 2 8 C1.34 8 0.68 8 0 8 C0 5.36 0 2.72 0 0 Z " fill="#214C61" transform="translate(219,185)"/>
<path d="M0 0 C1.98 0 3.96 0 6 0 C6 2.97 6 5.94 6 9 C5.01 8.67 4.02 8.34 3 8 C2.67 6.35 2.34 4.7 2 3 C1.34 3 0.68 3 0 3 C0 2.01 0 1.02 0 0 Z " fill="#112732" transform="translate(151,165)"/>
<path d="M0 0 C2.0625 0.4375 2.0625 0.4375 4 1 C3.67 1.99 3.34 2.98 3 4 C3 3.34 3 2.68 3 2 C2.34 2 1.68 2 1 2 C1 2.99 1 3.98 1 5 C1.99 5 2.98 5 4 5 C4 5.66 4 6.32 4 7 C2.35 6.67 0.7 6.34 -1 6 C-1.042721 4.33388095 -1.04063832 2.66617115 -1 1 C-0.67 0.67 -0.34 0.34 0 0 Z " fill="#1F4759" transform="translate(208,187)"/>
<path d="M0 0 C0.33 0 0.66 0 1 0 C1 2.31 1 4.62 1 7 C0.01 6.67 -0.98 6.34 -2 6 C-2 5.34 -2 4.68 -2 4 C-3.32 4 -4.64 4 -6 4 C-5.67 3.01 -5.34 2.02 -5 1 C-3.02 1.495 -3.02 1.495 -1 2 C-0.67 1.34 -0.34 0.68 0 0 Z " fill="#1E4557" transform="translate(238,186)"/>
<path d="M0 0 C0.33 0 0.66 0 1 0 C1.125 5.75 1.125 5.75 0 8 C-1.32 8 -2.64 8 -4 8 C-4 6.35 -4 4.7 -4 3 C-3.01 2.67 -2.02 2.34 -1 2 C-0.67 1.34 -0.34 0.68 0 0 Z " fill="#1F485B" transform="translate(252,188)"/>
<path d="M0 0 C1.22589844 0.29197266 1.22589844 0.29197266 2.4765625 0.58984375 C3.41628906 0.82380859 3.41628906 0.82380859 4.375 1.0625 C0.73883344 3.0414756 -2.50925629 3.5876065 -6.625 4.0625 C-6.625 2.7425 -6.625 1.4225 -6.625 0.0625 C-3.99249612 -1.25375194 -2.82320944 -0.68563658 0 0 Z " fill="#142D39" transform="translate(6.625,185.9375)"/>
<path d="M0 0 C1.32 0 2.64 0 4 0 C4.33 1.32 4.66 2.64 5 4 C2.69 4.33 0.38 4.66 -2 5 C-2 2 -2 2 0 0 Z " fill="#163341" transform="translate(210,172)"/>
<path d="M0 0 C3.63 0 7.26 0 11 0 C11 1.32 11 2.64 11 4 C9.35 4 7.7 4 6 4 C6 3.34 6 2.68 6 2 C3.03 1.505 3.03 1.505 0 1 C0 0.67 0 0.34 0 0 Z " fill="#142F3C" transform="translate(188,172)"/>
<path d="M0 0 C2.475 0.495 2.475 0.495 5 1 C5 2.65 5 4.3 5 6 C4.67 4.68 4.34 3.36 4 2 C3.34 2 2.68 2 2 2 C2 3.65 2 5.3 2 7 C1.34 7 0.68 7 0 7 C0 4.69 0 2.38 0 0 Z " fill="#204A5E" transform="translate(102,187)"/>
<path d="M0 0 C0.66 0 1.32 0 2 0 C2 1.65 2 3.3 2 5 C2.99 5 3.98 5 5 5 C5 4.34 5 3.68 5 3 C6.32 2.67 7.64 2.34 9 2 C9 2.99 9 3.98 9 5 C8 6 8 6 4.4375 6.0625 C3.303125 6.041875 2.16875 6.02125 1 6 C0.67 4.02 0.34 2.04 0 0 Z " fill="#1B3E4E" transform="translate(265,165)"/>
<path d="M0 0 C1.65 0 3.3 0 5 0 C5.33 2.97 5.66 5.94 6 9 C5.67 9 5.34 9 5 9 C5 7.35 5 5.7 5 4 C3.68 4 2.36 4 1 4 C0.67 2.68 0.34 1.36 0 0 Z " fill="#163340" transform="translate(251,162)"/>
<path d="M0 0 C1.65 0 3.3 0 5 0 C5.33 1.32 5.66 2.64 6 4 C4.125 4.625 4.125 4.625 2 5 C1.34 4.34 0.68 3.68 0 3 C0 2.01 0 1.02 0 0 Z " fill="#173442" transform="translate(1,162)"/>
<path d="M0 0 C1.32 0 2.64 0 4 0 C4 1.98 4 3.96 4 6 C3.34 6 2.68 6 2 6 C2 5.34 2 4.68 2 4 C1.34 4 0.68 4 0 4 C0 2.68 0 1.36 0 0 Z " fill="#1B3D4D" transform="translate(289,187)"/>
<path d="M0 0 C6.75 -0.125 6.75 -0.125 9 1 C9 1.66 9 2.32 9 3 C5.625 3.1875 5.625 3.1875 2 3 C1.34 2.01 0.68 1.02 0 0 Z " fill="#3F87A6" transform="translate(377,169)"/>
<path d="M0 0 C1.9375 0.3125 1.9375 0.3125 4 1 C4.33 1.99 4.66 2.98 5 4 C4.67 4.66 4.34 5.32 4 6 C2.35 6 0.7 6 -1 6 C-0.01 5.34 0.98 4.68 2 4 C1.34 2.68 0.68 1.36 0 0 Z " fill="#173544" transform="translate(159,165)"/>
<path d="M0 0 C0.99 0 1.98 0 3 0 C2.67 1.32 2.34 2.64 2 4 C2.99 4 3.98 4 5 4 C5.33 3.01 5.66 2.02 6 1 C6 2.32 6 3.64 6 5 C4.02 5 2.04 5 0 5 C0 3.35 0 1.7 0 0 Z " fill="#204A5E" transform="translate(0,166)"/>
<path d="M0 0 C0.66 0 1.32 0 2 0 C2 2.97 2 5.94 2 9 C1.34 9 0.68 9 0 9 C0 6.03 0 3.06 0 0 Z " fill="#1D4254" transform="translate(99,185)"/>
<path d="M0 0 C1.65 0 3.3 0 5 0 C5 0.99 5 1.98 5 3 C3.35 3.33 1.7 3.66 0 4 C0 2.68 0 1.36 0 0 Z " fill="#112731" transform="translate(187,162)"/>
<path d="M0 0 C1.65 0 3.3 0 5 0 C5 0.99 5 1.98 5 3 C3.35 3.33 1.7 3.66 0 4 C0 2.68 0 1.36 0 0 Z " fill="#112731" transform="translate(96,162)"/>
<path d="M0 0 C0.99 0 1.98 0 3 0 C3 0.66 3 1.32 3 2 C2.01 2 1.02 2 0 2 C0 1.34 0 0.68 0 0 Z " fill="#183745" transform="translate(72,162)"/>
</svg>
