<svg width="24" height="24" viewBox="0 0 24 24" fill="none" xmlns="http://www.w3.org/2000/svg">
<path fill-rule="evenodd" clip-rule="evenodd" d="M3.39601 3.39599C2.86803 3.92397 2.86802 4.78 3.39601 5.30799L10.368 12.28L3.39599 19.252C2.868 19.78 2.868 20.636 3.39599 21.164C3.92397 21.692 4.78 21.692 5.30799 21.164L12.28 14.192L18.692 20.604C19.22 21.132 20.076 21.132 20.604 20.604C21.132 20.076 21.132 19.22 20.604 18.692L14.192 12.28L20.604 5.868C21.132 5.34002 21.132 4.48398 20.604 3.956C20.076 3.42802 19.22 3.42801 18.692 3.956L12.28 10.368L5.30801 3.39599C4.78003 2.868 3.92399 2.868 3.39601 3.39599Z" fill="white"/>
</svg>
