<svg width="50" height="50" viewBox="0 0 50 50" fill="none" xmlns="http://www.w3.org/2000/svg">
<circle cx="25" cy="25" r="25" fill="#3498DB" fill-opacity="0.13"/>
<path fill-rule="evenodd" clip-rule="evenodd" d="M19.7864 15.0011C19.5628 15.0136 19.3535 15.1157 19.206 15.2843C19.0585 15.4529 18.9851 15.6739 19.0025 15.8972C19.0199 16.1206 19.1267 16.3275 19.2985 16.4713L28.9918 25.0066L19.2985 33.5356C19.1319 33.6823 19.0305 33.889 19.0165 34.1105C19.0025 34.332 19.077 34.5498 19.2237 34.7163C19.3703 34.8829 19.5771 34.9843 19.7986 34.9983C20.02 35.0123 20.2378 34.9378 20.4044 34.7911L30.8134 25.6313C30.9949 25.4731 31.099 25.2441 31.099 25.0035C31.099 24.7627 30.9949 24.5339 30.8134 24.3756L20.4044 15.2157C20.2578 15.0831 20.0687 15.007 19.8709 15.0011C19.8427 14.9996 19.8146 14.9996 19.7864 15.0011L19.7864 15.0011Z" fill="#3498DB"/>
</svg>
