<svg width="186" height="52" viewBox="0 0 186 52" fill="none" xmlns="http://www.w3.org/2000/svg">
<path fill-rule="evenodd" clip-rule="evenodd" d="M36.6734 6.41417C38.0823 5.06281 40.0137 4.32663 42.4779 4.21065C43.1797 4.17536 43.3169 4.17536 44.0979 4.23082C47.9235 4.48295 50.335 6.17214 51.4432 9.36896C52.2927 11.8247 52.393 15.5762 51.6806 18.3041C50.9208 21.2287 49.2058 23.1145 46.5568 23.9465C43.8973 24.7784 40.1614 24.5062 38.0454 23.3262C35.7446 22.0455 34.473 19.8017 34.0878 16.3527C33.9717 15.3291 33.9717 13.3172 34.0878 12.344C34.3991 9.68662 35.217 7.81595 36.6734 6.41417ZM48.3456 9.89341C47.5858 7.77057 46.2085 6.72175 43.8815 6.49485C43.148 6.42426 42.7734 6.43434 41.8974 6.55031C40.0875 6.7873 38.6891 7.8462 37.9557 9.54548C37.2644 11.154 37.0111 13.8668 37.3066 16.4686C37.6549 19.489 38.8105 21.2186 40.9212 21.864C41.6547 22.0909 42.0663 22.1413 43.1111 22.1413C44.0082 22.1464 44.177 22.1313 44.7047 22.0102C47.7494 21.3345 49.058 18.7781 48.9261 13.7558C48.8786 12.0263 48.715 10.9321 48.3456 9.89341Z" fill="white"/>
<path fill-rule="evenodd" clip-rule="evenodd" d="M62.2359 5.13832C63.3019 4.62903 64.5314 4.32649 65.9402 4.23068C66.7793 4.17018 66.9745 4.17018 67.8558 4.23068C69.3174 4.32649 70.5574 4.62903 71.6023 5.14336C73.428 6.03585 74.6523 7.56873 75.333 9.79748C76.0295 12.0968 76.0928 15.6668 75.4754 18.1577C74.6259 21.5865 72.4412 23.6639 69.0852 24.2438C66.6737 24.6623 63.9193 24.3648 62.1146 23.4875C59.3917 22.1613 57.9881 19.5242 57.7664 15.3289C57.5976 12.0363 58.1887 9.36885 59.5131 7.45275C60.1252 6.5653 61.2387 5.62238 62.2359 5.13832ZM72.3515 10.7858C71.7183 8.08809 70.2408 6.74178 67.6394 6.49471C66.7529 6.41403 65.898 6.46446 65.1118 6.65102C63.1911 7.10988 61.9879 8.3503 61.3758 10.4933C60.8323 12.4145 60.8007 15.9441 61.3072 17.9157C61.9352 20.3461 63.1488 21.5916 65.3229 22.0302C66.0458 22.1765 67.5233 22.1916 68.2356 22.0555C70.7897 21.5764 72.0877 19.9628 72.5521 16.7055C72.6523 16.0147 72.6682 15.6617 72.6682 14.2852C72.6682 12.5355 72.6101 11.8951 72.3515 10.7858Z" fill="white"/>
<path d="M80.3101 5.68806V6.84781H83.2123H86.1146V15.3694V23.891H87.6712H89.2279V15.3694V6.84781H92.1301H95.0328L95.0216 5.69814L95.0058 4.55353L87.6606 4.5384L80.3101 4.52832V5.68806Z" fill="white"/>
<path d="M98.607 4.68968C98.6432 4.86111 98.723 5.15862 99.6563 8.86475C99.9627 10.0699 100.285 11.3507 100.374 11.7136C100.464 12.0717 100.633 12.7323 100.744 13.176C101.113 14.6383 102.49 20.0941 103.171 22.7918L103.446 23.891H105.334H107.219L107.809 22.0858C109.361 17.3763 109.788 16.0753 110.928 12.6213C111.34 11.3708 111.741 10.1657 111.814 9.93376C111.888 9.70682 111.963 9.52027 111.978 9.52027C111.994 9.52027 112.363 10.7304 112.796 12.2078C113.228 13.6802 113.757 15.4703 113.962 16.1762C114.174 16.8821 114.553 18.1629 114.807 19.0251C115.059 19.8823 115.476 21.3042 115.735 22.1766C115.994 23.0539 116.204 23.7952 116.204 23.8305C116.204 23.8759 116.658 23.891 118.104 23.891H119.998L120.063 23.6742C120.094 23.5582 120.199 23.18 120.295 22.8321C120.389 22.4842 120.622 21.632 120.811 20.9412C121.292 19.1814 122.03 16.4938 122.273 15.6215C122.938 13.181 123.904 9.66141 124.125 8.83954C124.273 8.31009 124.479 7.55374 124.589 7.15035C125.144 5.14853 125.281 4.63421 125.281 4.58378C125.281 4.54345 124.869 4.52832 123.793 4.5384L122.305 4.55353L120.284 12.2935C119.17 16.5493 118.247 20.0688 118.231 20.1092C118.21 20.1495 118.147 19.9933 118.078 19.7563C117.962 19.3327 117.26 16.8014 116.379 13.6046C116.131 12.702 115.746 11.2951 115.519 10.4783C115.292 9.66141 114.89 8.19412 114.622 7.22598C114.358 6.25281 114.131 5.4309 114.121 5.39561C114.105 5.35023 113.677 5.3351 112.221 5.3351C111.192 5.3351 110.348 5.34014 110.348 5.35023C110.348 5.36031 109.624 7.66972 108.743 10.4834C107.862 13.297 106.828 16.6098 106.438 17.8502C106.052 19.0907 105.714 20.0891 105.698 20.0689C105.677 20.0487 104.876 16.8216 103.91 12.8986C102.95 8.97569 102.105 5.54688 102.036 5.28467C101.973 5.02247 101.9 4.74514 101.884 4.66447L101.851 4.52832H100.211H98.5698L98.607 4.68968Z" fill="white"/>
<path fill-rule="evenodd" clip-rule="evenodd" d="M132.126 10.5035C133.266 7.83611 134.548 4.83086 134.607 4.68968L134.68 4.52832H136.021C137.034 4.52832 137.377 4.54345 137.414 4.58883C137.445 4.62412 137.599 4.99222 137.762 5.41073C138.068 6.19735 138.532 7.37725 140.595 12.5961C141.271 14.3005 141.983 16.1056 142.178 16.6048C142.447 17.2897 142.988 18.6573 143.506 19.9689C143.965 21.1293 144.406 22.2459 144.627 22.8069C144.849 23.3616 145.028 23.8305 145.028 23.8506C145.028 23.8759 144.257 23.891 143.319 23.891H141.604L141.503 23.6238C141.45 23.4826 141.218 22.8624 140.996 22.2522C140.864 21.887 140.665 21.3465 140.469 20.8135C140.338 20.4561 140.207 20.1022 140.099 19.8067L139.609 18.4705L135.709 18.4604L131.81 18.4452L131.435 19.4184C131.229 19.9479 130.754 21.1732 130.38 22.1362L129.699 23.891H128.053H126.406L126.96 22.5901C127.423 21.5062 127.733 20.7819 128.091 19.9447C128.54 18.893 129.066 17.6633 130.068 15.319C131.361 12.2885 131.588 11.7591 132.126 10.5035ZM137.123 11.4868C136.511 9.7825 135.994 8.32522 135.978 8.24454C135.957 8.16891 135.921 8.09832 135.899 8.08318C135.892 8.07897 135.887 8.07241 135.881 8.07133C135.843 8.06468 135.768 8.26752 134.896 10.5287C134.655 11.148 134.359 11.911 134.08 12.6331C133.815 13.3163 133.564 13.9629 133.388 14.4164C133.028 15.3442 132.733 16.1359 132.733 16.1661C132.733 16.2115 133.466 16.2266 135.767 16.2266C137.434 16.2266 138.801 16.2165 138.801 16.2065C138.801 16.1863 138.537 15.445 137.123 11.4868Z" fill="white"/>
<path fill-rule="evenodd" clip-rule="evenodd" d="M150.739 14.2449C150.739 8.93534 150.755 4.57873 150.776 4.56361C150.828 4.50814 157.482 4.52327 158.395 4.57873C159.762 4.66445 160.643 4.85606 161.551 5.25945C162.184 5.55191 162.617 5.84437 163.054 6.30322C163.925 7.19572 164.353 8.40085 164.353 9.93877C164.353 12.3944 163.287 14.129 161.292 14.9207C160.817 15.1122 159.841 15.3543 159.366 15.3996C159.176 15.4199 159.023 15.45 159.023 15.4753C159.023 15.4954 160.485 17.3864 162.268 19.6756C164.052 21.9648 165.513 23.8506 165.513 23.8658C165.513 23.8809 164.675 23.891 163.656 23.891L161.793 23.8859L158.575 19.731L155.356 15.5711H154.606H153.852V19.731V23.891H152.295H150.739V14.2449ZM161.113 9.09165C160.875 7.96721 160.163 7.24614 158.975 6.93856C158.601 6.83771 158.411 6.82762 156.253 6.80746C154.976 6.79737 153.915 6.80746 153.894 6.82762C153.868 6.8478 153.852 8.3 153.852 10.0598V13.2516H156.121C158.67 13.2516 158.912 13.2264 159.593 12.9188C160.3 12.5961 160.822 11.9507 161.06 11.1086C161.192 10.6447 161.219 9.5808 161.113 9.09165Z" fill="white"/>
<path d="M171.737 4.56362C171.715 4.57874 171.699 8.93534 171.699 14.2449V23.891H177.662H183.625V22.7565V21.622L179.235 21.6119L174.839 21.5967V18.3293V15.0668L178.744 15.0518L182.649 15.0417V13.9071V12.7726L178.744 12.7473L174.839 12.7222V9.77238V6.8226L179.076 6.80746L183.308 6.79738V5.66285V4.52832H177.541C174.364 4.52832 171.752 4.54345 171.737 4.56362Z" fill="white"/>
<path d="M0.100586 37.614C0.100586 44.0431 0.120755 47.3458 0.156052 47.5627C0.493891 49.6956 2.19317 51.4453 4.36139 51.9041C4.80007 51.9949 5.21355 51.9999 16.7051 51.9999H28.5899V39.9991V27.9983H19.4633H10.3366V28.8958V29.7933L13.5032 29.7732L16.6647 29.753L16.9017 29.4858C17.643 28.6588 18.8381 28.5832 19.6398 29.3144C20.5373 30.1413 20.4617 31.5783 19.4734 32.2843C19.1305 32.5314 18.7977 32.6373 18.3539 32.6373C17.7388 32.6373 17.1892 32.37 16.8413 31.9061L16.6698 31.6792H14.9403H13.2107V33.6558V35.6273L16.7807 35.5971L20.3558 35.5719L20.386 36.7064C20.4062 37.3368 20.4213 38.2091 20.4213 38.6477V39.4444H21.4701H22.5189L22.6803 39.2377C23.6283 38.0024 25.5544 38.3301 26.0486 39.8075C26.104 39.9789 26.1242 40.1806 26.1142 40.4681C26.099 40.8159 26.0637 40.942 25.9276 41.2194C25.62 41.8496 25.0301 42.243 24.3241 42.3035C23.7341 42.3539 23.0231 42.0312 22.7005 41.5622L22.5643 41.3656L20.5675 41.3605H18.5707L18.5405 40.0646C18.5203 39.3537 18.5053 38.4813 18.5053 38.1234V37.4779H17.3455H16.1857V38.5016C16.1857 39.0662 16.2008 40.3823 16.2211 41.4261L16.2512 43.3169L16.4631 43.4682C16.7556 43.675 17.0631 44.1541 17.1438 44.5322C17.3808 45.6415 16.7051 46.6601 15.5908 46.8668C14.7638 47.0181 13.8865 46.5491 13.5234 45.7575C13.1704 44.9809 13.4225 43.9523 14.0932 43.4733L14.3201 43.3069L14.31 40.4075L14.2948 37.5032L12.8275 37.5233L11.3602 37.5384L11.3299 35.6375C11.3098 34.5886 11.2946 33.2676 11.2946 32.7028V31.6792H9.8324H8.37006V32.5717C8.37006 33.0659 8.38519 34.1953 8.40536 35.0828L8.43562 36.6963L8.87935 36.6812C9.61047 36.656 9.52978 36.1215 9.52978 40.8715V44.9709L9.7517 45.1272C10.2862 45.5054 10.6089 46.297 10.4929 46.9374C10.3719 47.5778 9.97855 48.1022 9.39875 48.3947C9.12642 48.5308 9.05583 48.5459 8.59697 48.5459C8.15828 48.5459 8.05744 48.5258 7.81541 48.4148C7.24562 48.1476 6.86744 47.6837 6.72626 47.0736C6.61532 46.6197 6.67078 46.1962 6.88761 45.7625C7.01871 45.5104 7.50782 44.9911 7.61876 44.9911C7.66918 44.9911 7.6843 39.8529 7.62884 39.0763L7.59859 38.5873H5.58668H3.57982V39.5857V40.579L3.82185 40.7555C4.30592 41.1186 4.63367 41.8446 4.56813 42.4345C4.49753 43.0245 4.16474 43.5691 3.68067 43.8817C2.7327 44.4919 1.4469 44.1389 0.937621 43.1354C0.645162 42.5606 0.660288 41.9354 0.972916 41.3454C1.11411 41.0782 1.55783 40.6042 1.66876 40.6042C1.69397 40.6042 1.71414 39.7671 1.71414 38.6629V36.7216H4.10926H6.50439V33.2676V29.8136H7.00863H7.51286V28.9059V27.9983H3.80672H0.100586V37.614Z" fill="white"/>
<path d="M74.8857 38.636V46.9306H75.995H77.1044V43.0329V39.1402L77.3061 38.7772C78.0876 37.3401 79.1263 36.6694 80.3214 36.8308C81.2492 36.9518 81.7535 37.4107 81.9803 38.3436C82.051 38.6461 82.0661 39.1957 82.0812 42.806L82.1014 46.9306H83.2359H84.3653V43.1338C84.3653 39.2108 84.3402 38.5503 84.1586 37.804C84.0225 37.2493 83.6796 36.5383 83.3721 36.1955C82.9031 35.661 82.1215 35.2626 81.2643 35.1265C80.7198 35.0408 79.9029 35.0559 79.5247 35.1517C78.7684 35.3534 78.0019 35.8778 77.4675 36.5686C77.3111 36.7703 77.1649 36.9418 77.1447 36.9418C77.1195 36.9468 77.1044 35.4593 77.1044 33.6441V30.3413H75.995H74.8857V38.636Z" fill="white"/>
<path d="M118.638 38.636V46.9306H119.747H120.857V38.636V30.3413H119.747H118.638V38.636Z" fill="white"/>
<path d="M33.9077 31.5513V32.5094H36.2524H38.5971V39.7199V46.9305H39.8325H41.0678L41.078 39.73L41.0931 32.5345L43.4529 32.5194L45.8076 32.5094V31.5513V30.5933H39.8576H33.9077V31.5513Z" fill="white"/>
<path d="M155.431 31.7026V32.8119H156.641H157.851V31.7026V30.5933H156.641H155.431V31.7026Z" fill="white"/>
<path d="M94.3105 35.0862C93.9373 35.1417 93.5194 35.303 93.1155 35.54C92.7828 35.7417 92.1576 36.3165 91.8399 36.7099C91.7188 36.8661 91.6079 36.9821 91.5978 36.972C91.5827 36.9569 91.4818 36.6039 91.3659 36.1804L91.1592 35.4089L90.1355 35.3938C89.5758 35.3887 89.1169 35.3938 89.1169 35.4038C89.1169 35.4139 89.1775 35.8073 89.2531 36.2762L89.3893 37.1233L89.4043 42.0245L89.4246 46.9307H90.5339H91.6381V43.0229V39.11L91.7692 38.8478C92.1576 38.0814 92.8638 37.3199 93.4284 37.0477C93.8871 36.8258 94.356 36.7603 94.8705 36.8359C95.5762 36.9367 96.0098 37.2191 96.2773 37.7536C96.5698 38.3385 96.58 38.4746 96.58 42.9019V46.9307H97.7138H98.8485V42.9321C98.8485 38.5957 98.8336 38.2982 98.5662 37.4763C98.3795 36.9014 98.1632 36.5182 97.8048 36.14C97.4417 35.7568 97.074 35.5198 96.5345 35.3282C95.9188 35.1114 94.9058 35.0005 94.3105 35.0862Z" fill="white"/>
<path fill-rule="evenodd" clip-rule="evenodd" d="M105.083 36.301C105.854 35.6001 106.878 35.1916 108.138 35.0806C108.914 35.0152 110.074 35.121 110.684 35.3177C112.58 35.9228 113.659 37.3094 114.018 39.6037C114.134 40.3449 114.134 41.8677 114.018 42.6089C113.619 45.1554 112.303 46.6781 110.1 47.1369C109.414 47.2782 108.183 47.2882 107.507 47.1622C104.876 46.668 103.504 44.8074 103.363 41.5349C103.267 39.2861 103.892 37.3951 105.083 36.301ZM111.819 41.1063C111.819 38.6608 111.169 37.3447 109.752 36.9262C109.474 36.8405 108.506 36.7799 108.214 36.8253C106.893 37.032 106.106 37.8943 105.793 39.4776C105.683 40.0323 105.637 41.5198 105.712 42.2207C105.94 44.399 106.963 45.5235 108.728 45.5184C110.795 45.5133 111.819 44.0561 111.819 41.1063Z" fill="white"/>
<path fill-rule="evenodd" clip-rule="evenodd" d="M125.391 41.5099C125.26 37.6979 126.969 35.3734 130.111 35.0859C131.573 34.9498 133.051 35.2675 134.008 35.9281C134.352 36.16 134.906 36.7197 135.122 37.0475C135.536 37.6677 135.864 38.54 136.025 39.4678C136.167 40.2745 136.157 42.0545 136.005 42.8562C135.864 43.6126 135.561 44.4648 135.254 44.9842C134.951 45.4934 134.19 46.2699 133.726 46.5422C132.874 47.0314 131.976 47.2482 130.751 47.2431C129.813 47.2431 129.152 47.1372 128.497 46.88C126.561 46.1338 125.482 44.2631 125.391 41.5099ZM133.686 39.256C133.373 37.8239 132.698 37.0827 131.507 36.8659C129.904 36.5785 128.669 37.1735 128.109 38.4997C127.7 39.4728 127.565 41.2478 127.796 42.6445C128.113 44.5605 129.097 45.5136 130.766 45.5186C131.901 45.5186 132.798 45.0194 133.262 44.1169C133.711 43.2546 133.847 42.4226 133.812 40.8343C133.796 39.9821 133.767 39.6392 133.686 39.256Z" fill="white"/>
<path fill-rule="evenodd" clip-rule="evenodd" d="M151.032 35.0657C150.907 35.0708 150.432 35.1011 149.974 35.1312C149.515 35.1615 148.743 35.2169 148.254 35.2623C147.453 35.3329 147.337 35.3329 147.065 35.2623C146.509 35.1161 145.536 35.0607 144.77 35.1262C143.297 35.2573 142.365 35.6607 141.568 36.5129C141.155 36.9566 140.817 37.5818 140.635 38.2323C140.474 38.8323 140.474 39.9871 140.635 40.5417C140.786 41.0712 141.054 41.6006 141.407 42.0746L141.699 42.4629L141.255 42.9217C140.716 43.4764 140.539 43.8142 140.504 44.3386C140.454 45.1202 140.917 45.8715 141.724 46.3254C141.881 46.4161 142.002 46.5018 141.987 46.5119C141.971 46.527 141.785 46.6127 141.568 46.7086C140.832 47.0313 140.297 47.4952 140.05 48.0297C139.803 48.5793 139.854 49.4263 140.182 50.097C140.66 51.0853 141.861 51.6854 143.822 51.9324C144.629 52.0333 146.585 52.0182 147.301 51.9072C148.779 51.6752 149.731 51.287 150.432 50.6214C150.715 50.3592 150.831 50.2029 150.997 49.86C151.199 49.4415 151.204 49.4062 151.225 48.8465C151.26 47.8581 151.073 47.3136 150.513 46.7993C149.737 46.0783 148.436 45.7152 145.789 45.4681C143.737 45.2815 142.944 45.105 142.602 44.7622C142.43 44.5908 142.411 44.5454 142.411 44.3134C142.411 44.0058 142.527 43.7487 142.784 43.5067L142.965 43.3302L143.308 43.4411C143.969 43.6528 144.801 43.7739 145.587 43.7688C148.158 43.7688 149.793 42.6343 150.306 40.5013C150.443 39.9517 150.432 38.9887 150.287 38.4945C150.11 37.8793 149.782 37.2843 149.379 36.8356L149.208 36.644H149.953H150.705L151.007 35.8825C151.051 35.7722 151.094 35.6657 151.132 35.5683L151.133 35.5679L151.133 35.5679C151.241 35.2959 151.321 35.0944 151.325 35.0758C151.335 35.0506 151.325 35.0355 151.3 35.0405C151.279 35.0455 151.159 35.0556 151.032 35.0657ZM146.545 36.9415C147.579 37.2642 148.108 38.076 148.108 39.3366C148.103 40.7283 147.523 41.641 146.419 41.9889C146.137 42.0796 145.945 42.0998 145.461 42.0998C144.977 42.0998 144.785 42.0796 144.503 41.9889C143.409 41.646 142.849 40.7938 142.849 39.4677C142.844 38.0256 143.565 37.0776 144.845 36.8457C145.254 36.7751 146.167 36.8255 146.545 36.9415ZM148.82 48.3625C148.466 47.7826 147.14 47.3892 145.032 47.238C144.842 47.2237 144.634 47.2083 144.446 47.1944C144.236 47.1789 144.052 47.1653 143.948 47.1573C143.631 47.1321 143.565 47.1472 143.278 47.2834C142.672 47.5708 142.249 48.1456 142.243 48.6953C142.234 49.8348 143.953 50.5357 146.338 50.3592C147.503 50.2786 148.154 50.0668 148.562 49.6431C148.89 49.3053 149.015 48.6851 148.82 48.3625Z" fill="white"/>
<path d="M180.513 35.0805C178.548 35.252 177.272 35.9882 176.808 37.2135C176.49 38.0556 176.546 39.1296 176.938 39.8759C177.432 40.7986 178.26 41.3079 180.453 42.039C181.84 42.4979 182.188 42.6542 182.536 42.982C182.868 43.2895 182.955 43.5417 182.919 44.0509C182.853 45.009 182.268 45.4477 180.968 45.5031C179.984 45.5485 179.278 45.4124 178.003 44.9334C177.6 44.7821 177.251 44.6762 177.231 44.6964C177.181 44.7468 176.48 46.4007 176.48 46.4713C176.48 46.5872 177.614 46.91 178.633 47.0814C179.944 47.3033 181.265 47.3134 182.229 47.1066C183.524 46.8343 184.482 46.199 184.911 45.3166C185.44 44.2375 185.339 42.7954 184.679 41.8626C184.124 41.0911 183.347 40.6524 181.351 39.9969C180.635 39.7599 179.909 39.4927 179.737 39.4018C179.112 39.0742 178.855 38.6707 178.92 38.1312C179.006 37.3849 179.591 36.9513 180.681 36.8303C181.628 36.7244 182.501 36.9008 183.665 37.4353C183.993 37.5917 184.275 37.6975 184.281 37.6724C184.291 37.6471 184.478 37.2185 184.694 36.7193L185.092 35.8117L184.729 35.6957C183.151 35.1965 181.679 34.9797 180.513 35.0805Z" fill="white"/>
<path fill-rule="evenodd" clip-rule="evenodd" d="M47.0745 39.997C47.498 37.1177 49.0108 35.4084 51.3655 35.1362C51.9102 35.0756 52.2227 35.0756 52.853 35.131C55.6465 35.3933 56.9676 36.9867 57.2651 40.4507C57.2903 40.7835 57.3156 41.2777 57.3156 41.545V42.0392H53.3572H49.399V42.2509C49.399 42.8459 49.7318 43.9099 50.0746 44.4242C50.6041 45.2158 51.3403 45.5486 52.5505 45.5385C53.5085 45.5285 54.4061 45.3015 55.4347 44.8124C55.8987 44.5906 55.9591 44.5755 55.9995 44.651C56.1104 44.8629 56.6701 46.3302 56.65 46.3554C56.5591 46.4411 55.6364 46.7638 55.0767 46.905C54.1187 47.1471 53.3371 47.2429 52.374 47.2479C50.7302 47.2529 49.6713 46.8798 48.7083 45.9571C47.856 45.1351 47.3418 44.0763 47.0947 42.6442C46.9938 42.0442 46.9787 40.6223 47.0745 39.997ZM55.1221 40.0071C54.9607 38.2624 54.3254 37.2791 53.1304 36.9262C52.853 36.8455 51.9606 36.7799 51.7185 36.8253C50.9722 36.9665 50.2915 37.4505 49.9032 38.1263C49.6209 38.6255 49.3486 39.649 49.3486 40.2289V40.3752H52.253H55.1574L55.1221 40.0071Z" fill="white"/>
<path d="M65.9245 35.1416C64.5631 35.2777 63.3428 35.8777 62.6066 36.7703C61.6738 37.8998 61.2654 39.4327 61.3259 41.5555C61.3763 43.1992 61.7192 44.3792 62.4302 45.3423C63.4487 46.7189 65.1833 47.4097 67.1901 47.2332C68.2541 47.1374 69.8223 46.8146 70.382 46.5777L70.629 46.4718L70.3013 45.7054C70.1248 45.2818 69.9433 44.8684 69.908 44.7775L69.8374 44.6162L69.4542 44.7877C68.5616 45.196 67.3263 45.5188 66.6708 45.5188C65.3447 45.5137 64.3765 44.8078 63.9278 43.517C63.6605 42.7404 63.5446 41.6009 63.6252 40.4965C63.7714 38.5855 64.2606 37.5821 65.2841 37.093C66.2926 36.6089 67.6137 36.745 69.3785 37.5216C69.6054 37.6224 69.8021 37.6981 69.8071 37.693C69.8121 37.683 70.2256 36.6543 70.5231 35.908C70.5786 35.7619 68.5163 35.2575 67.3515 35.1315C66.7969 35.076 66.5699 35.076 65.9245 35.1416Z" fill="white"/>
<path fill-rule="evenodd" clip-rule="evenodd" d="M164.044 36.3366C164.806 35.6054 165.658 35.2373 166.889 35.1163C167.544 35.0508 168.517 35.1315 169.208 35.3129C171.346 35.8727 172.369 37.5215 172.586 40.7537C172.611 41.1671 172.636 41.631 172.636 41.7722V42.0395H168.648H164.665L164.695 42.2765C164.856 43.4967 165.159 44.253 165.698 44.7926C166.258 45.3523 166.787 45.5439 167.771 45.5389C168.774 45.5389 169.702 45.3069 170.811 44.7876C171.225 44.5909 171.285 44.5758 171.31 44.6514C171.322 44.6861 171.419 44.9275 171.543 45.2354C171.581 45.3299 171.622 45.4308 171.663 45.5338C171.726 45.6934 171.785 45.8436 171.835 45.9705C171.922 46.1923 171.981 46.3425 171.981 46.3456C171.981 46.3759 171.346 46.623 170.997 46.7339C169.385 47.2532 167.337 47.4096 166.096 47.102C163.717 46.507 162.3 44.3438 162.3 41.2932C162.3 39.1653 162.91 37.4307 164.044 36.3366ZM170.105 38.4846C169.732 37.5719 169.082 37.0324 168.154 36.866C167.105 36.6794 166.329 36.8962 165.663 37.5568C165.391 37.8291 165.279 37.9955 165.103 38.3687C164.982 38.6258 164.846 38.9989 164.801 39.1955C164.71 39.5687 164.625 40.3099 164.665 40.3502C164.675 40.3654 165.976 40.3755 167.553 40.3755H170.418V40.073C170.418 39.6746 170.256 38.8577 170.105 38.4846Z" fill="white"/>
<path d="M155.481 41.157V46.9305H156.616H157.75V41.157V35.3835H156.616H155.481V41.157Z" fill="white"/>
<path d="M0 11.9504V23.9008H3.78178H7.56355V13.5841V3.26746L11.4361 3.29267C15.0565 3.31284 15.3389 3.32292 15.8381 3.41872C17.7794 3.79186 18.8887 4.62385 19.4888 6.15673C20.0888 7.68456 20.0333 10.0545 19.3677 11.4713C18.6013 13.1051 17.2046 13.9623 15.0364 14.1287C14.4716 14.1741 14.2749 14.2043 14.2901 14.2497C14.3052 14.285 14.8548 15.001 15.5103 15.8431C16.6398 17.2802 17.3003 18.1222 19.3425 20.7292C19.8115 21.3292 20.5578 22.2822 21.0014 22.857L21.8083 23.8957L25.2017 23.9008H28.5902L28.5802 14.2094L28.565 4.51291L28.4541 4.11962C28.1565 3.0708 27.6927 2.26907 26.9817 1.56314C26.1598 0.74627 25.1563 0.231949 24.0521 0.055466C23.8302 0.0201694 19.882 0 11.8646 0H0V11.9504Z" fill="#3498DB"/>
<path d="M10.2864 8.87964V12.2126L10.9571 12.1823C11.3201 12.1672 12.1572 12.1269 12.8076 12.1017C14.4211 12.0311 15.1271 11.9655 15.5204 11.8395C16.66 11.4916 17.3255 10.71 17.5273 9.47964C17.7693 7.98209 17.3558 6.70134 16.4179 6.08113C15.6868 5.59705 15.3288 5.54663 12.5202 5.54663H10.2864V8.87964Z" fill="#3498DB"/>
<path d="M10.2864 19.0604V23.901H14.2245C17.3709 23.901 18.1525 23.8859 18.1172 23.8355C17.9811 23.664 16.9777 22.3328 15.8582 20.8504C15.1674 19.9327 14.1489 18.5863 13.5942 17.8502C13.0395 17.114 12.2378 16.05 11.8092 15.4803C11.3806 14.9105 10.9924 14.4113 10.947 14.3659C10.9016 14.3155 10.7403 14.2701 10.5789 14.2499L10.2864 14.2197V19.0604Z" fill="#3498DB"/>
</svg>
