<svg width="553" height="324" viewBox="0 0 553 324" fill="none" xmlns="http://www.w3.org/2000/svg">
<path style="mix-blend-mode:multiply" opacity="0.15" d="M20.7203 315.519C20.7203 315.519 -6.08634 278.995 14.7816 238.385C38.3884 192.438 101.027 184.935 131.807 157.316C162.587 129.697 162.553 70.9701 216.487 45.9805C256.423 27.4771 285.882 31.5266 333.357 56.9457C380.84 82.3648 399.734 65.3866 452.825 80.8923C510.386 97.7039 534.732 154.152 519.377 212.09C506.43 260.921 544.731 270.817 542.992 315.519H20.7203Z" fill="url(#paint0_linear_1761_39975)"/>
<path d="M552.13 317.273H0.869497C0.391274 317.273 0 316.878 0 316.396C0 315.914 0.391274 315.52 0.869497 315.52H552.13C552.609 315.52 553 315.914 553 316.396C553 316.878 552.609 317.273 552.13 317.273Z" fill="url(#paint1_linear_1761_39975)"/>
<path d="M178.238 323.999H131.59C131.111 323.999 130.72 323.605 130.72 323.123C130.72 322.641 131.111 322.246 131.59 322.246H178.238C178.716 322.246 179.108 322.641 179.108 323.123C179.108 323.605 178.716 323.999 178.238 323.999Z" fill="url(#paint2_linear_1761_39975)"/>
<path d="M369.102 323.999H298.09C297.611 323.999 297.22 323.605 297.22 323.123C297.22 322.641 297.611 322.246 298.09 322.246H369.102C369.58 322.246 369.971 322.641 369.971 323.123C369.971 323.605 369.58 323.999 369.102 323.999Z" fill="url(#paint3_linear_1761_39975)"/>
<path d="M278.622 323.999H201.358C200.88 323.999 200.489 323.605 200.489 323.123C200.489 322.641 200.88 322.246 201.358 322.246H278.622C279.1 322.246 279.491 322.641 279.491 323.123C279.491 323.605 279.1 323.999 278.622 323.999Z" fill="url(#paint4_linear_1761_39975)"/>
<path d="M479.275 323.999H396.491C396.012 323.999 395.621 323.605 395.621 323.123C395.621 322.641 396.012 322.246 396.491 322.246H479.275C479.754 322.246 480.145 322.641 480.145 323.123C480.145 323.605 479.754 323.999 479.275 323.999Z" fill="url(#paint5_linear_1761_39975)"/>
<path d="M299.997 300.665C388.913 300.665 460.993 259.075 460.993 207.772C460.993 156.469 388.913 114.879 299.997 114.879C211.081 114.879 139 156.469 139 207.772C139 259.075 211.081 300.665 299.997 300.665Z" fill="#FAFAFA" fill-opacity="0.4"/>
<path d="M388.196 267.545C406.009 267.545 420.45 259.215 420.45 248.939C420.45 238.663 406.009 230.332 388.196 230.332C370.382 230.332 355.941 238.663 355.941 248.939C355.941 259.215 370.382 267.545 388.196 267.545Z" fill="#E0E0E0"/>
<path d="M178.513 240.605L152.066 225.348C150.574 224.485 150.574 223.095 152.066 222.232L305.904 133.471C307.396 132.609 309.811 132.609 311.303 133.471L337.75 148.728C339.242 149.591 339.242 150.981 337.75 151.844L183.912 240.605C182.42 241.467 180.005 241.467 178.513 240.605Z" fill="#E0E0E0"/>
<path d="M196.283 14.9079L190.302 18.3578C190.329 18.0904 190.355 17.8229 190.355 17.5689V15.8372C190.355 12.7551 188.188 11.5048 185.518 13.0492C184.434 13.671 183.444 14.6605 182.635 15.8172C182.2 11.9394 179.156 10.5019 175.463 12.628C171.469 14.9346 168.23 20.5374 168.23 25.1506V27.738C168.23 28.9348 168.451 29.9377 168.846 30.74L163.875 33.6082C162.396 34.464 161.192 36.5433 161.192 38.2482C161.192 39.9531 162.39 40.6484 163.875 39.7926L196.283 21.0923C197.762 20.2365 198.966 18.1572 198.966 16.4523C198.966 14.7474 197.768 14.0521 196.283 14.9079Z" fill="#EBEBEB"/>
<path d="M227.259 29.2224L222.743 31.8299C222.764 31.6293 222.784 31.4287 222.784 31.2348V29.9311C222.784 27.6044 221.151 26.6617 219.137 27.825C218.321 28.293 217.572 29.0419 216.963 29.9177C216.635 26.996 214.34 25.9062 211.551 27.5108C208.533 29.2491 206.091 33.4813 206.091 36.9579V38.9102C206.091 39.8127 206.258 40.5682 206.553 41.1767L202.806 43.3429C201.689 43.9847 200.779 45.5559 200.779 46.8462C200.779 48.1366 201.682 48.6581 202.806 48.0163L227.266 33.9025C228.383 33.2606 229.293 31.6894 229.293 30.3991C229.293 29.1087 228.39 28.5872 227.266 29.2291L227.259 29.2224Z" fill="#EBEBEB"/>
<path d="M273.583 213.409L296.317 200.272C298.659 198.921 299.83 197.149 299.83 195.378C299.83 193.606 299.836 192.215 299.836 192.215L276.246 178.924C274.995 178.202 273.985 176.45 273.985 175.006V146.992L234.271 169.925V197.938C234.271 199.382 235.281 201.134 236.532 201.856L256.596 213.409C261.286 216.11 268.887 216.11 273.57 213.409H273.583Z" fill="#1D1556"/>
<path d="M243.811 202.897V206.046L236.532 201.854C235.288 201.139 234.271 199.387 234.271 197.936V169.929L241.838 165.57C241.991 167.489 242.165 169.475 242.319 171.407L237.014 174.476V196.359C237.014 197.809 238.017 199.561 239.275 200.277L243.811 202.904V202.897Z" fill="#1D1556"/>
<path d="M237.014 196.36C237.014 197.804 238.024 199.556 239.275 200.278L256.603 210.253C261.293 212.954 268.893 212.961 273.576 210.253L296.324 197.115C301.014 194.414 301.014 190.028 296.324 187.321L278.989 177.339C277.738 176.617 276.728 174.865 276.728 173.421V151.531L237.014 174.464V196.353V196.36Z" fill="#407BFF"/>
<path d="M283.599 180.003L278.989 177.342C277.738 176.62 276.728 174.869 276.728 173.425V151.535L237.014 174.468V196.357C237.014 197.801 238.024 199.553 239.275 200.275L243.804 202.889L283.599 180.003Z" fill="#263238"/>
<path d="M299.836 192.215V195.377C299.836 197.156 298.659 198.914 296.324 200.271L273.583 213.402C271.335 214.706 268.425 215.361 265.481 215.415V212.266C268.418 212.226 271.335 211.55 273.583 210.253L296.324 197.109C298.665 195.765 299.836 193.987 299.836 192.215Z" fill="#455A64"/>
<path d="M173.248 223.565C174.713 224.407 177.168 224.367 178.734 223.464C198.256 212.199 312.795 146.116 332.318 134.857C333.883 133.954 335.148 131.761 335.148 129.963V5.39904C335.148 3.59386 333.957 1.44771 332.492 0.605292C331.026 -0.237124 328.571 -0.197009 327.006 0.705579L173.428 89.313C171.863 90.2156 170.598 92.4086 170.598 94.207V218.771C170.598 220.576 171.783 222.722 173.248 223.565Z" fill="#455A64"/>
<path d="M178.734 223.462L332.318 134.854C333.883 133.952 335.148 131.759 335.148 129.96V5.38964C335.148 3.58446 333.883 2.85571 332.318 3.7583L178.734 92.3657C177.169 93.2683 175.904 95.4613 175.904 97.2598V221.824C175.904 223.629 177.169 224.358 178.734 223.455V223.462Z" fill="#27DEBF"/>
<path d="M178.734 223.462L332.318 134.854C333.883 133.952 335.148 131.759 335.148 129.96V5.38964C335.148 3.58446 333.883 2.85571 332.318 3.7583L178.734 92.3657C177.169 93.2683 175.904 95.4613 175.904 97.2598V221.824C175.904 223.629 177.169 224.358 178.734 223.455V223.462Z" fill="#3498DB"/>
<path d="M178.319 226.689C176.754 227.384 174.579 227.357 173.248 226.582C171.783 225.733 170.599 223.593 170.599 221.775V210.469L175.904 213.538V224.843C175.904 226.488 176.948 227.23 178.319 226.682V226.689Z" fill="#1D1556"/>
<path d="M175.897 213.545V224.844C175.897 226.65 177.169 227.378 178.734 226.476L332.318 137.868C333.884 136.966 335.148 134.773 335.148 132.974V121.648L175.897 213.545Z" fill="#37474F"/>
<path opacity="0.2" d="M175.904 213.522V224.848C175.904 226.653 177.169 227.382 178.734 226.48L332.318 137.872C333.883 136.97 335.148 134.777 335.148 132.978V121.652L175.904 213.522Z" fill="#1D1556"/>
<path d="M181.209 199.361V99.0335C181.209 97.9504 181.972 96.6333 182.909 96.0984L328.136 12.2981C329.073 11.7565 329.836 12.1978 329.836 13.2742V113.609C329.836 114.692 329.08 116.009 328.143 116.544L182.909 200.331C181.972 200.872 181.209 200.431 181.209 199.348V199.361Z" fill="#407BFF"/>
<path opacity="0.3" d="M181.209 199.361V99.0335C181.209 97.9504 181.972 96.6333 182.909 96.0984L328.136 12.2981C329.073 11.7565 329.836 12.1978 329.836 13.2742V113.609C329.836 114.692 329.08 116.009 328.143 116.544L182.909 200.331C181.972 200.872 181.209 200.431 181.209 199.348V199.361Z" fill="#1D1556"/>
<path d="M255.519 171.188C254.054 172.037 252.863 174.09 252.863 175.781C252.863 177.473 254.054 178.161 255.519 177.312C256.984 176.463 258.175 174.411 258.175 172.719C258.175 171.028 256.984 170.339 255.519 171.188Z" fill="#455A64"/>
<path d="M176.734 94.4734C176.225 95.3626 175.911 96.3655 175.897 97.2681V213.548L170.592 210.479V94.2126C170.592 93.3101 170.92 92.3072 171.428 91.418L176.734 94.4734Z" fill="#1D1556"/>
<path d="M356.53 4.8075C356.162 4.58687 355.654 4.59356 355.085 4.92116L202.023 93.2611C200.926 93.8963 200.043 95.4274 200.043 96.691V199.813C200.043 200.582 200.371 201.264 200.879 201.538C201.2 201.712 202.906 202.702 203.415 202.976C203.736 203.15 204.137 203.156 204.565 202.909L357.627 114.535C358.725 113.907 359.614 112.369 359.614 111.106V7.5019C359.614 6.85337 359.38 6.39873 358.999 6.19816C358.644 6.01095 356.905 5.02813 356.544 4.8075H356.53Z" fill="#6795FF"/>
<path d="M203.903 202.768C203.355 202.768 202.906 202.086 202.906 201.257V98.1343C202.906 96.9977 203.736 95.5603 204.719 94.992L357.788 6.64529C358.042 6.4982 358.29 6.41797 358.504 6.41797C358.979 6.41797 359.267 6.81912 359.267 7.50107V111.105C359.267 112.241 358.437 113.679 357.453 114.24L204.392 202.614C204.224 202.714 204.057 202.761 203.903 202.761V202.768Z" fill="#FAFAFA"/>
<path d="M358.504 6.75452C358.879 6.75452 358.932 7.22253 358.932 7.50334V111.114C358.932 112.143 358.176 113.447 357.28 113.962L204.218 202.335C204.097 202.402 203.99 202.436 203.896 202.436C203.542 202.436 203.234 201.887 203.234 201.259V98.1366C203.234 97.1069 203.99 95.7965 204.88 95.2817L357.955 6.94172C358.216 6.79464 358.397 6.76121 358.504 6.76121M358.504 6.09262C358.236 6.09262 357.935 6.17954 357.621 6.36006L204.552 94.7001C203.455 95.3285 202.572 96.8663 202.572 98.1299V201.252C202.572 202.248 203.127 203.098 203.903 203.098C204.111 203.098 204.331 203.037 204.559 202.904L357.621 114.53C358.718 113.902 359.608 112.364 359.608 111.1V7.50334C359.608 6.60743 359.16 6.08594 358.511 6.08594L358.504 6.09262Z" fill="#E0E0E0"/>
<path d="M200.872 201.537C201.086 201.65 202.625 202.526 203.301 202.914C202.846 202.593 202.605 202.031 202.572 201.249V104.605L200.036 103.121V199.812C200.036 200.581 200.364 201.263 200.872 201.53V201.537Z" fill="#F0F0F0"/>
<path d="M359.601 7.48938C359.594 6.23913 358.711 5.73101 357.621 6.35947L204.552 94.6995C203.455 95.3346 202.572 96.8657 202.572 98.1293V104.608L359.601 13.988V7.48269V7.48938Z" fill="#3498DB"/>
<g opacity="0.4">
<path d="M357.62 6.35977L204.558 94.6998C204.017 95.0207 203.515 95.5556 203.16 96.1707L200.638 94.7132C200.993 94.1047 201.481 93.5699 202.016 93.269L355.085 4.92232C355.653 4.59471 356.155 4.58803 356.523 4.80197C356.878 5.02261 358.524 5.95194 358.945 6.17926C358.597 6.01211 358.129 6.05891 357.614 6.35309L357.62 6.35977Z" fill="white"/>
</g>
<path opacity="0.15" d="M200.036 103.136V96.6978C200.036 96.0559 200.27 95.3472 200.638 94.7188L203.16 96.1696C202.792 96.7914 202.565 97.4934 202.565 98.1352V104.614L200.029 103.136H200.036Z" fill="black"/>
<path d="M202.572 104.615V116.282L359.601 25.6818V13.9883L202.572 104.615Z" fill="#EBEBEB"/>
<path d="M209.115 103.748L219.264 97.918V103.735L209.108 109.598L209.115 103.748Z" fill="#E0E0E0"/>
<path d="M221.773 96.4373V98.7373L226.844 95.8156V93.5156L221.773 96.4373Z" fill="#E0E0E0"/>
<path d="M221.773 99.9881V102.288L226.844 99.3663V97.0664L221.773 99.9881Z" fill="#E0E0E0"/>
<path d="M229.373 92.0545V94.3545L234.438 91.4327V89.1328L229.373 92.0545Z" fill="#E0E0E0"/>
<path d="M229.373 95.6014V97.9013L234.438 94.9796V92.6797L229.373 95.6014Z" fill="#E0E0E0"/>
<path d="M236.973 87.6706V89.9638L242.038 87.0421V84.7422L236.973 87.6706Z" fill="#E0E0E0"/>
<path d="M236.973 91.2214V93.5146L242.038 90.5929V88.293L236.973 91.2214Z" fill="#E0E0E0"/>
<path d="M259.761 74.5233L259.767 76.8232L264.832 73.9015V71.6016L259.761 74.5233Z" fill="#E0E0E0"/>
<path d="M259.761 78.0701L259.767 80.3701L264.832 77.4484V75.1484L259.761 78.0701Z" fill="#E0E0E0"/>
<path d="M267.361 70.1366V72.4365L272.426 69.5148V67.2148L267.361 70.1366Z" fill="#E0E0E0"/>
<path d="M267.361 73.6873V75.9873L272.426 73.0656V70.7656L267.361 73.6873Z" fill="#E0E0E0"/>
<path d="M274.961 65.7498V68.0498L280.026 65.1281V62.8281L274.961 65.7498Z" fill="#E0E0E0"/>
<path d="M274.961 69.3006V71.6005L280.026 68.6788V66.3789L274.961 69.3006Z" fill="#E0E0E0"/>
<path d="M244.567 83.2881L257.232 75.9805V81.8306L244.567 89.1315V83.2881Z" fill="#E0E0E0"/>
<path d="M282.562 61.3691L292.717 55.5391V61.3557L282.562 67.2125V61.3691Z" fill="#E0E0E0"/>
<path d="M295.226 54.0623V56.3623L300.291 53.4406V51.1406L295.226 54.0623Z" fill="#E0E0E0"/>
<path d="M295.226 57.6131V59.913L300.291 56.9913V54.6914L295.226 57.6131Z" fill="#E0E0E0"/>
<path d="M302.826 49.6756V51.9755L307.891 49.0538V46.7539L302.826 49.6756Z" fill="#E0E0E0"/>
<path d="M302.826 53.2264V55.5263L307.891 52.6046V50.3047L302.826 53.2264Z" fill="#E0E0E0"/>
<path d="M310.42 45.2928V47.5927L315.491 44.671V42.3711L310.42 45.2928Z" fill="#E0E0E0"/>
<path d="M310.42 48.8397V51.1396L315.491 48.2179V45.918L310.42 48.8397Z" fill="#E0E0E0"/>
<path d="M333.214 32.1405V34.4404L338.285 31.5187V29.2188L333.214 32.1405Z" fill="#E0E0E0"/>
<path d="M333.214 35.6912V37.9912L338.285 35.0695V32.7695L333.214 35.6912Z" fill="#E0E0E0"/>
<path d="M340.814 27.7537V30.0537L345.879 27.132V24.832L340.814 27.7537Z" fill="#E0E0E0"/>
<path d="M340.814 31.3045V33.6045L345.879 30.6827V28.3828L340.814 31.3045Z" fill="#E0E0E0"/>
<path d="M348.415 23.3709V25.6709L353.479 22.7491V20.4492L348.415 23.3709Z" fill="#E0E0E0"/>
<path d="M348.415 26.9178V29.2177L353.479 26.296V23.9961L348.415 26.9178Z" fill="#E0E0E0"/>
<path d="M318.021 40.9131L330.685 33.6055V39.4489L318.021 46.7565V40.9131Z" fill="#E0E0E0"/>
<path d="M202.572 104.613L200.036 103.129V114.822L202.572 116.28V104.613Z" fill="#E0E0E0"/>
<path d="M319.077 32.7761V33.204C319.077 33.8927 319.559 34.1735 320.155 33.8258L350.923 16.0749C351.519 15.7339 352.001 14.8915 352.001 14.2029V13.775C352.001 13.0863 351.519 12.8055 350.923 13.1532L320.155 30.9041C319.559 31.2451 319.077 32.0875 319.077 32.7761Z" fill="#F5F5F5"/>
<path d="M352.001 14.2068V13.7789C352.001 13.0902 351.519 12.8094 350.924 13.1571L346.936 15.457V18.3787L350.924 16.0788C351.519 15.7378 352.001 14.8954 352.001 14.2068Z" fill="#455A64"/>
<path d="M205.107 117.739L357.072 30.0742V35.9043L217.765 116.281L217.759 192.273L205.107 199.574V117.739Z" fill="#F0F0F0"/>
<path d="M217.765 116.285L230.417 108.984V114.814L217.765 122.129V116.285Z" fill="#6795FF"/>
<path d="M217.765 163.039L230.417 155.738V161.575L217.765 168.883V163.039Z" fill="#6795FF"/>
<path d="M217.765 168.887L230.417 161.586V167.416L217.765 174.73V168.887Z" fill="#6795FF"/>
<path opacity="0.8" d="M217.765 168.887L230.417 161.586V167.416L217.765 174.73V168.887Z" fill="white"/>
<path d="M293.741 119.195L306.392 111.895V117.731L293.741 125.039V119.195Z" fill="#6795FF"/>
<path opacity="0.3" d="M293.741 119.195L306.392 111.895V117.731L293.741 125.039V119.195Z" fill="black"/>
<path d="M293.741 125.051L306.392 117.75V123.58L293.741 130.894V125.051Z" fill="#6795FF"/>
<path opacity="0.4" d="M293.741 125.051L306.392 117.75V123.58L293.741 130.894V125.051Z" fill="black"/>
<path d="M293.741 130.891L306.392 123.59V129.42L293.741 136.734V130.891Z" fill="#6795FF"/>
<path opacity="0.5" d="M293.741 130.891L306.392 123.59V129.42L293.741 136.734V130.891Z" fill="black"/>
<path d="M293.741 136.735L306.392 129.434V135.27L293.741 142.578V136.735Z" fill="#6795FF"/>
<path opacity="0.3" d="M293.741 136.735L306.392 129.434V135.27L293.741 142.578V136.735Z" fill="black"/>
<path d="M281.083 79.7462L293.741 72.4453V101.669L281.083 108.983V79.7462Z" fill="#6795FF"/>
<path d="M281.083 114.817L293.741 107.516V148.433L281.083 155.747V114.817Z" fill="#6795FF"/>
<path d="M230.417 144.043L243.068 136.742V142.572L230.417 149.887V144.043Z" fill="#6795FF"/>
<path opacity="0.3" d="M230.417 144.043L243.068 136.742V142.572L230.417 149.887V144.043Z" fill="black"/>
<path d="M255.76 100.203L268.411 92.9023V98.7324L255.76 106.047V100.203Z" fill="#6795FF"/>
<path opacity="0.6" d="M255.76 100.203L268.411 92.9023V98.7324L255.76 106.047V100.203Z" fill="white"/>
<path d="M319.084 98.7396L331.735 91.4453V97.2754L319.084 104.583V98.7396Z" fill="#6795FF"/>
<path opacity="0.8" d="M319.084 98.7396L331.735 91.4453V97.2754L319.084 104.583V98.7396Z" fill="white"/>
<path d="M319.084 110.442L331.735 103.141V108.971L319.084 116.285V110.442Z" fill="#6795FF"/>
<path d="M204.947 117.473L204.793 117.56V200.117L357.226 112.164L357.38 112.077V29.5273L204.947 117.473ZM356.757 105.893L344.722 112.84V107.712L356.757 100.765V105.893ZM205.415 123.771L217.451 116.824V121.952L205.415 128.899V123.771ZM280.775 115.374V120.502L268.732 127.448V122.32L280.775 115.374ZM268.732 121.605V116.477L280.775 109.53V114.658L268.732 121.605ZM281.397 115.019L293.44 108.073V113.201L281.397 120.147V115.019ZM281.397 114.297V109.169L293.44 102.222V107.351L281.397 114.297ZM281.397 108.447V103.319L293.44 96.3724V101.5L281.397 108.447ZM281.397 102.597V97.4688L293.44 90.5222V95.6503L281.397 102.597ZM280.775 102.958L268.732 109.904V104.776L280.775 97.8299V102.958ZM280.775 103.68V108.808L268.732 115.755V110.627L280.775 103.68ZM268.11 116.116L256.068 123.062V117.934L268.11 110.988V116.116ZM268.11 116.838V121.966L256.068 128.912V123.784L268.11 116.838ZM268.11 122.688V127.816L256.068 134.762V129.634L268.11 122.688ZM268.11 128.531V133.659L256.068 140.606V135.478L268.11 128.531ZM268.732 128.17L280.775 121.224V126.352L268.732 133.298V128.17ZM280.775 127.067V132.195L268.732 139.142V134.014L280.775 127.067ZM281.397 126.706L293.44 119.759V124.887L281.397 131.834V126.706ZM281.397 125.984V120.856L293.44 113.909V119.037L281.397 125.984ZM294.062 113.548L306.105 106.602V111.73L294.062 118.676V113.548ZM294.062 112.826V107.698L306.105 100.752V105.88L294.062 112.826ZM294.062 106.983V101.855L306.105 94.9082V100.036L294.062 106.983ZM294.062 101.133V96.0046L306.105 89.058V94.1861L294.062 101.133ZM294.062 95.2826V90.1545L306.105 83.2079V88.336L294.062 95.2826ZM294.062 89.4391V84.3111L306.105 77.3645V82.4926L294.062 89.4391ZM293.44 89.8002L281.397 96.7468V91.6187L293.44 84.6721V89.8002ZM280.775 97.1078L268.732 104.054V98.9264L280.775 91.9798V97.1078ZM268.11 104.415L256.068 111.362V106.234L268.11 99.2874V104.415ZM268.11 105.137V110.266L256.068 117.212V112.084L268.11 105.137ZM255.445 117.573L243.403 124.52V119.392L255.445 112.445V117.573ZM255.445 118.295V123.423L243.403 130.37V125.242L255.445 118.295ZM255.445 124.145V129.273L243.403 136.22V131.092L255.445 124.145ZM255.445 129.995V135.123L243.403 142.07V136.942L255.445 129.995ZM255.445 135.839V140.967L243.403 147.913V142.785L255.445 135.839ZM255.445 141.689V146.817L243.403 153.764V148.636L255.445 141.689ZM256.068 141.328L268.11 134.381V139.509L256.068 146.456V141.328ZM268.11 140.225V145.353L256.068 152.299V147.171L268.11 140.225ZM268.732 139.864L280.775 132.917V138.045L268.732 144.992V139.864ZM281.397 132.556L293.44 125.61V130.738L281.397 137.684V132.556ZM294.062 125.248L306.105 118.302V123.43L294.062 130.377V125.248ZM294.062 124.526V119.398L306.105 112.452V117.58L294.062 124.526ZM306.727 112.091L318.77 105.144V110.272L306.727 117.219V112.091ZM306.727 111.369V106.241L318.77 99.2941V104.422L306.727 111.369ZM306.727 105.525V100.397L318.77 93.4506V98.5787L306.727 105.525ZM306.727 99.6818V94.5538L318.77 87.6072V92.7353L306.727 99.6818ZM306.727 93.8384V88.7104L318.77 81.7638V86.8918L306.727 93.8384ZM306.727 87.9883V82.8603L318.77 75.9137V81.0417L306.727 87.9883ZM306.727 82.1449V77.0169L318.77 70.0703V75.1983L306.727 82.1449ZM306.727 76.2948V71.1667L318.77 64.2202V69.3482L306.727 76.2948ZM306.105 76.6558L294.062 83.6024V78.4744L306.105 71.5278V76.6558ZM293.44 83.9634L281.397 90.91V85.782L293.44 78.8354V83.9634ZM280.775 91.2711L268.732 98.2176V93.0896L280.775 86.143V91.2711ZM268.11 98.5787L256.068 105.525V100.397L268.11 93.4506V98.5787ZM255.445 105.886L243.403 112.833V107.705L255.445 100.758V105.886ZM255.445 106.608V111.736L243.403 118.683V113.555L255.445 106.608ZM242.781 119.044L230.738 125.991V120.863L242.781 113.916V119.044ZM242.781 119.766V124.894L230.738 131.841V126.713L242.781 119.766ZM242.781 125.61V130.738L230.738 137.684V132.556L242.781 125.61ZM242.781 131.46V136.588L230.738 143.534V138.406L242.781 131.46ZM242.781 137.31V142.438L230.738 149.384V144.256L242.781 137.31ZM242.781 143.153V148.281L230.738 155.228V150.1L242.781 143.153ZM242.781 149.003V154.131L230.738 161.078V155.95L242.781 149.003ZM242.781 154.847V159.975L230.738 166.921V161.793L242.781 154.847ZM243.403 154.486L255.445 147.539V152.667L243.403 159.614V154.486ZM255.445 153.383V158.511L243.403 165.457V160.329L255.445 153.383ZM256.068 153.021L268.11 146.075V151.203L256.068 158.15V153.021ZM268.732 145.714L280.775 138.767V143.895L268.732 150.842V145.714ZM281.397 138.406L293.44 131.46V136.588L281.397 143.534V138.406ZM294.062 131.099L306.105 124.152V129.28L294.062 136.227V131.099ZM306.727 123.791L318.77 116.844V121.972L306.727 128.919V123.791ZM306.727 123.069V117.941L318.77 110.994V116.122L306.727 123.069ZM319.392 110.633L331.434 103.687V108.815L319.392 115.761V110.633ZM319.392 109.911V104.783L331.434 97.8366V102.965L319.392 109.911ZM319.392 104.061V98.933L331.434 91.9864V97.1145L319.392 104.061ZM319.392 98.211V93.0829L331.434 86.1363V91.2644L319.392 98.211ZM319.392 92.3675V87.2395L331.434 80.2929V85.421L319.392 92.3675ZM319.392 86.5241V81.3961L331.434 74.4495V79.5775L319.392 86.5241ZM319.392 80.674V75.546L331.434 68.5994V73.7274L319.392 80.674ZM319.392 74.8306V69.7025L331.434 62.756V67.884L319.392 74.8306ZM319.392 68.9805V63.8524L331.434 56.9059V62.0339L319.392 68.9805ZM319.392 63.1371V58.009L331.434 51.0624V56.1905L319.392 63.1371ZM318.77 63.4981L306.727 70.4447V65.3166L318.77 58.3701V63.4981ZM306.105 70.8057L294.062 77.7523V72.6243L306.105 65.6777V70.8057ZM293.44 78.1133L281.397 85.0599V79.9319L293.44 72.9853V78.1133ZM280.775 85.421L268.732 92.3675V87.2395L280.775 80.2929V85.421ZM268.11 92.7286L256.068 99.6752V94.5471L268.11 87.6005V92.7286ZM255.445 100.036L243.403 106.983V101.855L255.445 94.9082V100.036ZM242.781 107.344L230.738 114.29V109.162L242.781 102.216V107.344ZM242.781 108.066V113.194L230.738 120.141V115.012L242.781 108.066ZM230.116 120.502L218.073 127.448V122.32L230.116 115.374V120.502ZM230.116 121.224V126.352L218.073 133.298V128.17L230.116 121.224ZM230.116 127.067V132.195L218.073 139.142V134.014L230.116 127.067ZM230.116 132.91V138.039L218.073 144.985V139.857L230.116 132.91ZM230.116 138.761V143.889L218.073 150.835V145.707L230.116 138.761ZM230.116 144.611V149.739L218.073 156.685V151.557L230.116 144.611ZM230.116 150.454V155.582L218.073 162.529V157.401L230.116 150.454ZM230.116 156.304V161.432L218.073 168.379V163.251L230.116 156.304ZM230.116 162.148V167.276L218.073 174.222V169.094L230.116 162.148ZM230.116 167.998V173.126L218.073 180.072V174.944L230.116 167.998ZM230.738 167.637L242.781 160.69V165.818L230.738 172.765V167.637ZM242.781 166.534V171.662L230.738 178.608V173.48L242.781 166.534ZM243.403 166.173L255.445 159.226V164.354L243.403 171.301V166.173ZM256.068 158.865L268.11 151.918V157.046L256.068 163.993V158.865ZM268.732 151.557L280.775 144.611V149.739L268.732 156.685V151.557ZM281.397 144.25L293.44 137.303V142.431L281.397 149.378V144.25ZM294.062 136.942L306.105 129.995V135.123L294.062 142.07V136.942ZM306.727 129.634L318.77 122.688V127.816L306.727 134.762V129.634ZM319.392 122.327L331.434 115.38V120.508L319.392 127.455V122.327ZM319.392 121.605V116.477L331.434 109.53V114.658L319.392 121.605ZM332.057 109.169L344.099 102.222V107.351L332.057 114.297V109.169ZM332.057 108.447V103.319L344.099 96.3724V101.5L332.057 108.447ZM332.057 102.604V97.4755L344.099 90.5289V95.657L332.057 102.604ZM332.057 96.7535V91.6254L344.099 84.6788V89.8069L332.057 96.7535ZM332.057 90.91V85.782L344.099 78.8354V83.9634L332.057 90.91ZM332.057 85.0666V79.9386L344.099 72.992V78.12L332.057 85.0666ZM332.057 79.2232V74.0951L344.099 67.1486V72.2766L332.057 79.2232ZM332.057 73.3731V68.245L344.099 61.2985V66.4265L332.057 73.3731ZM332.057 67.5297V62.4016L344.099 55.455V60.5831L332.057 67.5297ZM332.057 61.6795V56.5515L344.099 49.6049V54.733L332.057 61.6795ZM332.057 55.8361V50.7081L344.099 43.7615V48.8895L332.057 55.8361ZM332.057 49.9927V44.8713L344.099 37.9248V43.0461L332.057 49.9927ZM331.434 50.3537L319.392 57.3003V52.179L331.434 45.2324V50.3537ZM318.77 57.6614L306.727 64.6079V59.4866L318.77 52.54V57.6614ZM306.105 64.969L294.062 71.9156V66.7942L306.105 59.8476V64.969ZM293.44 72.2766L281.397 79.2232V74.1018L293.44 67.1552V72.2766ZM280.775 79.5842L268.732 86.5308V81.4095L280.775 74.4629V79.5842ZM268.11 86.8918L256.068 93.8384V88.7171L268.11 81.7705V86.8918ZM255.445 94.1995L243.403 101.146V96.0247L255.445 89.0781V94.1995ZM242.781 101.507L230.738 108.454V103.332L242.781 96.3857V101.507ZM230.116 108.815L218.073 115.761V110.64L230.116 103.693V108.815ZM230.116 109.537V114.665L218.073 121.611V116.483L230.116 109.537ZM205.415 129.634L217.451 122.688V127.816L205.415 134.762V129.634ZM205.415 135.485L217.451 128.538V133.666L205.415 140.613V135.485ZM205.415 141.328L217.451 134.381V139.509L205.415 146.456V141.328ZM205.415 147.171L217.451 140.225V145.353L205.415 152.299V147.171ZM205.415 153.021L217.451 146.075V151.203L205.415 158.15V153.021ZM205.415 158.872L217.451 151.925V157.053L205.408 164V158.872H205.415ZM205.415 164.715L217.458 157.768V162.896L205.415 169.843V164.715ZM205.415 170.565L217.458 163.619V168.747L205.415 175.693V170.565ZM205.415 176.409L217.458 169.462V174.59L205.415 181.537V176.409ZM205.415 182.259L217.458 175.312V180.44L205.415 187.387V182.259ZM205.415 188.109L217.458 181.162V186.29L205.415 193.237V188.109ZM218.08 180.801L230.122 173.855V178.983L218.08 185.929V180.801ZM230.122 179.698V184.806L218.08 191.753V186.645L230.122 179.698ZM230.745 179.337L242.787 172.39V177.498L230.745 184.445V179.337ZM243.409 172.029L255.452 165.083V170.191L243.409 177.137V172.029ZM256.074 164.722L268.117 157.775V162.883L256.074 169.83V164.722ZM268.739 157.414L280.782 150.467V155.575L268.739 162.522V157.414ZM281.404 150.106L293.447 143.16V148.268L281.404 155.214V150.106ZM294.069 142.799L306.111 135.852V140.96L294.069 147.907V142.799ZM306.734 135.491L318.776 128.545V133.653L306.734 140.599V135.491ZM319.399 128.184L331.441 121.237V126.345L319.399 133.292V128.184ZM332.063 120.876L344.106 113.929V119.037L332.063 125.984V120.876ZM332.063 120.154V115.026L344.106 108.079V113.207L332.063 120.154ZM356.764 100.056L344.728 107.003V101.875L356.764 94.9282V100.056ZM356.764 94.2128L344.728 101.159V96.0314L356.764 89.0848V94.2128ZM356.764 88.3627L344.728 95.3093V90.1813L356.764 83.2347V88.3627ZM356.764 82.5126L344.728 89.4592V84.3312L356.764 77.3846V82.5126ZM356.764 76.6692L344.728 83.6158V78.4877L356.764 71.5412V76.6692ZM356.764 70.8258L344.728 77.7724V72.6443L356.764 65.6977V70.8258ZM356.764 64.9823L344.728 71.9289V66.8009L356.764 59.8543V64.9823ZM356.764 59.1322L344.728 66.0788V60.9508L356.764 54.0042V59.1322ZM356.764 53.2888L344.728 60.2354V55.1074L356.764 48.1608V53.2888ZM356.764 47.4387L344.728 54.3853V49.2573L356.764 42.3107V47.4387ZM356.764 41.5953L344.728 48.5419V43.4138L356.764 36.4672V41.5953ZM356.764 35.7519L344.728 42.6984V37.5771L356.764 30.6305V35.7585V35.7519ZM217.458 111.001V116.122L205.422 123.069V117.948L217.458 111.001ZM205.415 193.952L217.458 187.006V192.114L205.415 199.06V193.952ZM344.722 118.683V113.575L356.757 106.628V111.736L344.722 118.683Z" fill="#E0E0E0"/>
<path d="M306.392 65.1206L357.072 35.9102V65.1406L306.392 94.3511V65.1206Z" fill="#FAFAFA" stroke="#E0E0E0" stroke-miterlimit="10"/>
<path d="M308.955 87.0591L315.806 68.3655L323.379 72.8918L330.993 65.1429L338.586 70.144L346.18 51.457L353.774 55.3482" stroke="#455A64" stroke-width="0.75" stroke-linecap="round" stroke-linejoin="round"/>
<path d="M315.806 67.4811C315.384 67.7218 315.043 68.3168 315.043 68.8049C315.043 69.293 315.384 69.4936 315.806 69.2462C316.227 68.9988 316.568 68.4104 316.568 67.9224C316.568 67.4343 316.227 67.2337 315.806 67.4811Z" fill="#6795FF"/>
<path d="M323.399 72.0085C322.978 72.2491 322.636 72.8442 322.636 73.3323C322.636 73.8203 322.978 74.0209 323.399 73.7735C323.821 73.5261 324.162 72.9378 324.162 72.4497C324.162 71.9617 323.821 71.7611 323.399 72.0085Z" fill="#6795FF"/>
<path d="M330.993 64.2624C330.571 64.5031 330.23 65.0981 330.23 65.5862C330.23 66.0742 330.571 66.2748 330.993 66.0274C331.414 65.7801 331.756 65.1917 331.756 64.7036C331.756 64.2156 331.414 64.015 330.993 64.2624Z" fill="#6795FF"/>
<path d="M338.586 69.2585C338.165 69.4991 337.824 70.0942 337.824 70.5823C337.824 71.0703 338.165 71.2709 338.586 71.0235C339.008 70.7761 339.349 70.1878 339.349 69.6997C339.349 69.2117 339.008 69.0111 338.586 69.2585Z" fill="#6795FF"/>
<path d="M346.18 50.5749C345.758 50.8156 345.417 51.4106 345.417 51.8987C345.417 52.3867 345.758 52.5873 346.18 52.3399C346.601 52.0925 346.943 51.5042 346.943 51.0161C346.943 50.5281 346.601 50.3275 346.18 50.5749Z" fill="#6795FF"/>
<path d="M353.773 54.4655C353.352 54.7062 353.011 55.3012 353.011 55.7893C353.011 56.2774 353.352 56.4779 353.773 56.2306C354.195 55.9832 354.536 55.3948 354.536 54.9068C354.536 54.4187 354.195 54.2181 353.773 54.4655Z" fill="#6795FF"/>
<path d="M378.153 143.574L364.679 151.35L378.153 159.125L391.634 151.35L378.153 143.574Z" fill="#455A64"/>
<path d="M391.634 151.332V182.261L378.16 190.036L378.153 159.128L391.634 151.332Z" fill="#37474F"/>
<path d="M378.153 159.125L378.16 190.034L364.679 182.258V151.336L378.153 159.125Z" fill="#263238"/>
<path d="M360.424 167.215L346.949 174.984L360.424 182.759L373.905 174.984L360.424 167.215Z" fill="#3498DB"/>
<path opacity="0.3" d="M360.424 167.215L346.949 174.984L360.424 182.759L373.905 174.984L360.424 167.215Z" fill="white"/>
<path d="M373.905 174.973V192.49L360.43 200.265L360.424 182.768L373.905 174.973Z" fill="#3498DB"/>
<path d="M360.424 182.768L360.43 200.265L346.949 192.483V174.973L360.424 182.768Z" fill="#3498DB"/>
<path opacity="0.1" d="M360.424 182.768L360.43 200.265L346.949 192.483V174.973L360.424 182.768Z" fill="black"/>
<path d="M342.694 170.172L329.22 177.948L342.694 185.723L356.175 177.948L342.694 170.172Z" fill="#3498DB"/>
<path opacity="0.88" d="M342.694 170.172L329.22 177.948L342.694 185.723L356.175 177.948L342.694 170.172Z" fill="white"/>
<path d="M356.175 177.93V202.721L342.701 210.496L342.694 185.725L356.175 177.93Z" fill="#3498DB"/>
<path opacity="0.75" d="M356.175 177.93V202.721L342.701 210.496L342.694 185.725L356.175 177.93Z" fill="white"/>
<path d="M342.694 185.725L342.701 210.496L329.22 202.714V177.93L342.694 185.725Z" fill="#3498DB"/>
<path opacity="0.6" d="M342.694 185.725L342.701 210.496L329.22 202.714V177.93L342.694 185.725Z" fill="white"/>
<path d="M324.965 196.426L311.49 204.201L324.972 211.977L338.446 204.201L324.965 196.426Z" fill="#3498DB"/>
<path opacity="0.3" d="M324.965 196.426L311.49 204.201L324.972 211.977L338.446 204.201L324.965 196.426Z" fill="black"/>
<path d="M338.446 204.188V212.946L324.972 220.715L324.965 211.976L338.446 204.188Z" fill="#3498DB"/>
<path opacity="0.4" d="M338.446 204.188V212.946L324.972 220.715L324.965 211.976L338.446 204.188Z" fill="black"/>
<path d="M324.965 211.976L324.972 220.715L311.49 212.939V204.188L324.965 211.976Z" fill="#3498DB"/>
<path opacity="0.55" d="M324.965 211.976L324.972 220.715L311.49 212.939V204.188L324.965 211.976Z" fill="black"/>
<path d="M251.565 250.82V255.914L246.527 242.229V237.141L251.558 250.82H251.565Z" fill="#263238"/>
<path d="M251.565 250.822V255.916L272.345 248.716V243.621L251.565 250.822Z" fill="#37474F"/>
<path d="M246.527 237.145L251.565 250.824L272.345 243.624C266.638 238.65 256.723 236.162 246.527 237.145Z" fill="#455A64"/>
<path d="M249.491 257.254L246.407 271.763C233.809 270.532 224.71 264.168 224.817 256.887V256.9V251.926C224.817 259.146 233.896 265.445 246.413 266.668L248.534 256.699L249.498 257.254H249.491Z" fill="#3498DB"/>
<path opacity="0.4" d="M249.491 257.254L246.407 271.763C233.809 270.532 224.71 264.168 224.817 256.887V256.9V251.926C224.817 259.146 233.896 265.445 246.413 266.668L248.534 256.699L249.498 257.254H249.491Z" fill="black"/>
<path d="M248.768 266.834V271.928C254.268 272.189 259.299 271.5 264.103 269.836C270.044 267.776 274.239 264.507 275.911 260.629C276.42 259.452 276.681 258.256 276.694 257.072C276.694 256.591 276.694 251.811 276.694 251.811C276.694 251.811 275.256 251.697 273.57 249.898L269.676 251.249L251.853 257.427L248.762 266.84L248.768 266.834Z" fill="#3498DB"/>
<path opacity="0.6" d="M248.768 266.834V271.928C254.268 272.189 259.299 271.5 264.103 269.836C270.044 267.776 274.239 264.507 275.911 260.629C276.42 259.452 276.681 258.256 276.694 257.072C276.694 256.591 276.694 251.811 276.694 251.811C276.694 251.811 275.256 251.697 273.57 249.898L269.676 251.249L251.853 257.427L248.762 266.84L248.768 266.834Z" fill="white"/>
<path d="M233.26 245.942L248.748 254.875V249.78L233.26 240.848V245.942Z" fill="#3498DB"/>
<path opacity="0.1" d="M233.26 245.942L248.748 254.875V249.78L233.26 240.848V245.942Z" fill="black"/>
<path d="M225.004 250.088C223.312 258.051 232.839 265.345 246.407 266.669L249.491 252.161L231.574 241.824C227.834 244.164 225.68 246.872 224.998 250.088H225.004Z" fill="#3498DB"/>
<path opacity="0.3" d="M225.004 250.088C223.312 258.051 232.839 265.345 246.407 266.669L249.491 252.161L231.574 241.824C227.834 244.164 225.68 246.872 224.998 250.088H225.004Z" fill="black"/>
<path d="M248.862 266.409L248.769 266.831C254.268 267.091 259.299 266.403 264.103 264.738C270.044 262.679 274.239 259.409 275.911 255.532C277.49 251.874 276.654 248.09 273.57 244.801L269.676 246.151L251.853 252.329L248.856 266.409H248.862Z" fill="#3498DB"/>
<path opacity="0.75" d="M248.862 266.409L248.769 266.831C254.268 267.091 259.299 266.403 264.103 264.738C270.044 262.679 274.239 259.409 275.911 255.532C277.49 251.874 276.654 248.09 273.57 244.801L269.676 246.151L251.853 252.329L248.856 266.409H248.862Z" fill="white"/>
<path d="M233.26 240.845L248.741 249.777L244.192 237.422C239.883 238.044 236.518 239.1 233.26 240.845Z" fill="#3498DB"/>
<path d="M249.491 257.255V252.16L246.407 266.668V271.763L249.491 257.255Z" fill="#3498DB"/>
<path opacity="0.55" d="M249.491 257.255V252.16L246.407 266.668V271.763L249.491 257.255Z" fill="black"/>
<path d="M269.248 229.5L265.869 231.446L269.248 233.391L272.62 231.446L269.248 229.5Z" fill="#3498DB"/>
<path opacity="0.3" d="M269.248 229.5L265.869 231.446L269.248 233.391L272.62 231.446L269.248 229.5Z" fill="black"/>
<path d="M272.62 231.441V233.394L269.248 235.339V233.394L272.62 231.441Z" fill="#3498DB"/>
<path opacity="0.4" d="M272.62 231.441V233.394L269.248 235.339V233.394L272.62 231.441Z" fill="black"/>
<path d="M269.248 233.394V235.339L265.869 233.394V231.441L269.248 233.394Z" fill="#3498DB"/>
<path opacity="0.55" d="M269.248 233.394V235.339L265.869 233.394V231.441L269.248 233.394Z" fill="black"/>
<path d="M274.393 227.99L286.89 220.783C287.633 220.355 288.81 220.328 289.506 220.736C290.202 221.144 290.169 221.812 289.426 222.247L276.928 229.454C276.186 229.882 275.008 229.909 274.312 229.501C273.617 229.093 273.65 228.425 274.393 227.99Z" fill="#E0E0E0"/>
<path d="M276.841 233.879L273.469 235.824L276.841 237.77L280.213 235.824L276.841 233.879Z" fill="#3498DB"/>
<path opacity="0.88" d="M276.841 233.879L273.469 235.824L276.841 237.77L280.213 235.824L276.841 233.879Z" fill="white"/>
<path d="M280.22 235.824L280.213 237.776L276.841 239.722V237.776L280.22 235.824Z" fill="#3498DB"/>
<path opacity="0.75" d="M280.22 235.824L280.213 237.776L276.841 239.722V237.776L280.22 235.824Z" fill="white"/>
<path d="M276.841 237.776V239.722L273.469 237.776V235.824L276.841 237.776Z" fill="#3498DB"/>
<path opacity="0.6" d="M276.841 237.776V239.722L273.469 237.776V235.824L276.841 237.776Z" fill="white"/>
<path d="M281.993 232.373L294.49 225.166C295.233 224.738 296.41 224.711 297.106 225.119C297.802 225.527 297.769 226.195 297.026 226.63L284.528 233.837C283.786 234.265 282.608 234.292 281.912 233.884C281.217 233.476 281.25 232.807 281.993 232.373Z" fill="#E0E0E0"/>
<path d="M284.441 238.266L281.069 240.211L284.441 242.157L287.813 240.211L284.441 238.266Z" fill="#3498DB"/>
<path opacity="0.3" d="M284.441 238.266L281.069 240.211L284.441 242.157L287.813 240.211L284.441 238.266Z" fill="white"/>
<path d="M287.813 240.207V242.166L284.441 244.112V242.159L287.813 240.207Z" fill="#3498DB"/>
<path d="M284.441 242.16V244.113L281.069 242.167V240.215L284.441 242.16Z" fill="#3498DB"/>
<path opacity="0.1" d="M284.441 242.16V244.113L281.069 242.167V240.215L284.441 242.16Z" fill="black"/>
<path d="M289.593 236.756L302.09 229.548C302.833 229.12 304.01 229.094 304.706 229.502C305.409 229.903 305.369 230.578 304.626 231.013L292.128 238.22C291.386 238.648 290.208 238.675 289.512 238.267C288.81 237.866 288.85 237.19 289.593 236.756Z" fill="#E0E0E0"/>
<path d="M292.042 242.652L288.67 244.598L292.042 246.544L295.414 244.598L292.042 242.652Z" fill="#455A64"/>
<path d="M295.413 244.59V246.542L292.042 248.488V246.542L295.413 244.59Z" fill="#37474F"/>
<path d="M292.042 246.542V248.488L288.67 246.542V244.59L292.042 246.542Z" fill="#263238"/>
<path d="M297.193 241.138L309.691 233.931C310.433 233.503 311.611 233.477 312.307 233.884C313.009 234.286 312.969 234.961 312.226 235.395L299.729 242.603C298.986 243.031 297.809 243.057 297.113 242.649C296.417 242.242 296.451 241.573 297.193 241.138Z" fill="#E0E0E0"/>
<path d="M397.803 137.079C402.439 137.052 404.64 138.382 406.313 142.822C407.986 147.261 412.415 157.43 412.495 160.452C412.582 163.588 402.479 173.095 402.841 172.928C402.954 172.874 399.763 167.165 399.763 167.165L405.443 160.205L402.185 150.758L397.796 137.079H397.803Z" fill="#FFA8A7"/>
<path d="M403.543 240.96C403.824 241.228 403.878 241.495 403.871 242.485C403.864 243.474 404.279 244.577 403.771 245.5C403.389 246.188 401.456 246.663 400.472 246.155C399.65 245.727 398.833 244.784 398.198 244.116C397.562 243.447 396.947 242.745 396.211 242.197C395.374 241.575 394.404 241.161 393.535 240.592C392.17 239.697 391.233 238.219 391.106 236.588C391.066 236.106 391.146 235.471 391.414 235.063C391.768 234.522 392.518 234.388 393.16 234.495C394.103 234.649 397.301 236.434 398.037 236.942C398.967 237.584 403.242 240.693 403.537 240.974L403.543 240.96Z" fill="#263238"/>
<path d="M398.84 236.862C398.807 237.571 395.816 235.913 394.592 236.074C394.578 236.074 394.572 236.087 394.558 236.087C393.421 236.635 394.364 238.233 395.428 239.049C396.492 239.864 399.951 242.405 399.951 242.405L400.66 238.307L398.847 236.862H398.84Z" fill="#FFA8A7"/>
<path d="M385.867 248.413C386.423 248.413 386.67 250.225 386.771 251.629C386.851 252.712 387.259 254.477 386.878 255.273C386.496 256.068 385.031 256.563 382.777 256.523C381.318 256.489 379.03 257.452 377.458 258.301C375.839 259.177 374.092 259.157 372.393 258.936C370.393 258.676 368.325 257.486 368.011 256.65C367.696 255.814 368.118 255.42 372.875 253.467C372.922 253.447 377.893 251.281 380.214 248.787L385.874 248.406L385.867 248.413Z" fill="#263238"/>
<path d="M372.875 253.471C372.219 253.739 371.65 253.979 371.149 254.193C371.021 254.641 371.195 255.357 373.29 255.704C376.494 256.239 385.901 249.159 385.901 249.159C385.901 249.159 384.549 249.533 384.302 248.758L380.214 248.791C377.892 251.285 372.922 253.451 372.875 253.471Z" fill="#FFA8A7"/>
<path d="M405.443 217.7C405.443 211.983 404.527 208.426 404.527 208.426C404.527 208.426 405.082 196.485 405.149 188.984C405.276 174.141 404.995 171.962 401.71 165.563C401.71 165.563 382.529 163.324 381.719 172.664C380.716 184.297 379.545 203.766 379.572 209.302C379.592 213.427 380.06 217.9 380.288 227.254C380.435 233.244 381.064 241.708 380.207 248.795C381.291 250.614 384.228 250.581 385.901 249.163C386.383 242.223 389.828 228.932 390.363 224.292C390.919 219.491 389.955 214.27 389.955 214.27C389.955 214.27 392.498 194.453 392.939 191.438C392.939 191.438 394.09 196.994 394.05 201.119C394.036 202.436 394.505 206.848 395.261 214.27C395.722 218.789 398.92 236.453 399.616 242.13C401.222 243.681 403.296 242.611 403.389 241.936C403.925 235.009 405.443 222.019 405.443 217.693V217.7Z" fill="#FFA8A7"/>
<path opacity="0.15" d="M392.939 191.446L394.632 181.825C394.632 181.825 398.566 181.511 402.185 177.867C402.185 177.867 401.168 181.718 396.184 183.022L394.203 191.727L393.869 199.663L392.946 191.446H392.939Z" fill="black"/>
<path d="M388.129 133.844L388.932 142.569L396.599 142.101L396.01 132.434L388.129 133.844Z" fill="#FFA8A7"/>
<path d="M403.516 167.905C402.767 166.06 402.352 164.823 400.198 161.28C403.476 150.729 404.527 147.179 403.884 142.673C403.476 139.805 401.222 136.936 398.425 137.084C398.425 137.084 396.913 137.084 396.277 137.084C396.15 139.083 390.591 139.183 388.483 137.806L386.543 137.859C385.172 138.347 380.495 145.18 379.986 149.72C379.565 153.41 382.462 156.606 382.462 156.606C382.576 158.07 382.188 161.28 382.188 161.28C382.188 161.28 382.201 170.205 382.188 174.645C382.188 174.645 383.271 178.068 394.518 176.998C404.527 176.049 404.768 172.625 404.768 172.625C404.768 172.625 404.473 170.299 403.503 167.905H403.516Z" fill="#1D1556"/>
<g opacity="0.3">
<path d="M403.516 167.905C402.767 166.06 402.352 164.823 400.198 161.28C403.476 150.729 404.527 147.179 403.884 142.673C403.476 139.805 401.222 136.936 398.425 137.084C398.425 137.084 396.913 137.084 396.277 137.084C396.15 139.083 390.591 139.183 388.483 137.806L386.543 137.859C385.172 138.347 380.495 145.18 379.986 149.72C379.565 153.41 382.462 156.606 382.462 156.606C382.576 158.07 382.188 161.28 382.188 161.28C382.188 161.28 382.201 170.205 382.188 174.645C382.188 174.645 383.271 178.068 394.518 176.998C404.527 176.049 404.768 172.625 404.768 172.625C404.768 172.625 404.473 170.299 403.503 167.905H403.516Z" fill="black"/>
</g>
<path d="M389.293 113.443C389.293 113.443 385.673 112.808 383.131 115.676C379.21 120.088 383.512 123.338 383.512 123.338L389.299 113.443" fill="#263238"/>
<path d="M382.469 124.266C382.469 124.266 380.763 126.826 380.983 127.1C381.204 127.375 382.281 127.662 382.281 127.662L382.469 124.266Z" fill="#F28F8F"/>
<path d="M387.674 116.154C386.021 117.003 383.164 118.568 382.415 124.639C381.646 130.87 383.031 133.043 383.88 133.865C384.456 134.42 387.413 134.627 388.965 134.153C390.899 133.558 395.093 131.498 397.067 128.289C399.389 124.512 399.877 119.464 397.214 117.478C393.468 114.683 389.072 115.439 387.674 116.161V116.154Z" fill="#FFA8A7"/>
<path d="M386.851 123.324C383.392 121.565 384.275 116.979 384.275 116.979C384.275 116.979 389.212 109.925 398.325 114.492C401.476 116.069 403.369 119.653 403.289 123.852C403.289 129.307 398.86 133.733 393.401 133.733C390.216 133.733 387.64 131.153 387.64 127.977V127.596L387.935 127.689C388.436 127.816 389.514 127.93 390.624 126.974C392.143 125.67 392.323 123.11 390.403 122.461C388.497 121.819 387.48 124.039 387.48 124.039L386.737 126.078C385.981 125.804 385.593 124.968 385.867 124.219C386.035 123.758 386.416 123.464 386.851 123.344V123.324Z" fill="#263238"/>
<path d="M365.95 124.734L349.505 132.965L357.239 155.235L372.594 146.971L365.95 124.734Z" fill="#27DEBF"/>
<path d="M365.167 126.887L351.365 133.793L358.223 152.941L371.102 146.008L365.167 126.887Z" fill="#F5F5F5"/>
<path opacity="0.15" d="M362.244 128.894C362.244 128.894 362.13 128.586 361.989 128.212C361.849 127.837 360.705 128.038 359.44 128.666L357.012 129.87C355.741 130.498 354.831 131.314 354.964 131.688L355.219 132.37L362.244 128.894Z" fill="black"/>
<path d="M362.023 126.182C361.936 125.948 361.441 125.974 360.912 126.249L359.962 126.743C359.962 126.743 359.407 125.272 357.219 126.249C355.032 127.225 355.5 128.93 355.5 128.93C355.5 128.93 355.045 129.17 354.49 129.464C353.934 129.759 353.533 130.193 353.593 130.434L353.707 130.868L362.177 126.63C362.177 126.63 362.103 126.429 362.016 126.195L362.023 126.182Z" fill="#37474F"/>
<path d="M361.1 127.147C360.31 127.515 360.003 127.695 360.217 128.277C360.464 128.939 360.692 129.413 360.692 129.413L356.945 131.292C356.945 131.292 356.651 130.45 356.517 130.122C356.39 129.794 356.115 129.641 355.52 129.935L355.306 129.701L361.214 126.812L361.093 127.14L361.1 127.147Z" fill="#263238"/>
<path d="M362.404 128.925C362.404 128.925 362.291 128.617 362.15 128.243C362.01 127.869 360.866 128.069 359.601 128.698L357.173 129.901C355.901 130.53 354.991 131.345 355.132 131.72L355.386 132.402L362.411 128.925H362.404Z" fill="#37474F"/>
<path d="M386.557 137.859C383.967 137.819 382.402 138.046 378.869 143.288C375.337 148.529 368.78 158.184 368.018 159.434C366.947 161.172 366.706 163.84 367.576 165.471C368.392 166.989 369.817 167.517 373.892 163.198C376.909 159.996 383.245 151.491 383.245 151.491C383.245 151.491 388.176 142.305 386.563 137.866L386.557 137.859Z" fill="#FFA8A7"/>
<path d="M369.175 166.566C367.041 167.228 359.213 157.908 357.032 155.107C354.617 152.005 352.683 150.253 350.917 148.909C347.9 146.602 348.401 143.146 349.786 139.997C350.268 138.907 351.82 139.649 351.82 139.649L352.349 141.167L353.258 143.794C353.894 144.403 354.262 144.61 354.309 144.429C354.396 144.095 353.861 142.684 353.901 141.22C353.948 139.462 355.159 140.639 355.52 141.26C355.881 141.882 356.289 142.892 356.771 144.189C357.36 145.773 357.079 147.365 357.808 148.448C358.537 149.531 369.175 158.363 369.175 158.363V166.58V166.566Z" fill="#FFA8A7"/>
<path d="M400.205 161.277C400.205 161.277 392.698 165.703 382.194 161.277C382.194 161.277 380.736 169.488 380.288 177.918C379.913 185.019 379.09 200.256 379.09 200.256C379.09 200.256 382.194 203.873 393.26 203.137C403.891 202.435 405.771 199.661 405.771 199.661C405.771 199.661 405.798 185.975 405.852 179.991C405.925 172.342 404.848 168.157 400.205 161.277Z" fill="#407BFF"/>
<path opacity="0.5" d="M400.205 161.277C400.205 161.277 392.698 165.703 382.194 161.277C382.194 161.277 380.736 169.488 380.288 177.918C379.913 185.019 379.09 200.256 379.09 200.256C379.09 200.256 382.194 203.873 393.26 203.137C403.891 202.435 405.771 199.661 405.771 199.661C405.771 199.661 405.798 185.975 405.852 179.991C405.925 172.342 404.848 168.157 400.205 161.277Z" fill="#263238"/>
<path d="M403.691 120.901L405.444 119.296C404.868 118.668 403.898 118.628 403.276 119.203C402.828 119.617 402.68 120.232 402.848 120.781C402.627 120.761 402.413 120.747 402.185 120.747V134.848C402.185 138.893 405.464 142.169 409.511 142.169V128.068C409.511 124.538 407.016 121.596 403.684 120.901H403.691Z" fill="#263238"/>
<defs>
<linearGradient id="paint0_linear_1761_39975" x1="274.944" y1="314.616" x2="274.944" y2="6.00236" gradientUnits="userSpaceOnUse">
<stop stop-color="#7489D6"/>
<stop offset="1" stop-color="#7C90D9"/>
</linearGradient>
<linearGradient id="paint1_linear_1761_39975" x1="12.173" y1="316.396" x2="556.495" y2="316.396" gradientUnits="userSpaceOnUse">
<stop stop-color="#182C7E"/>
<stop offset="1" stop-color="#1A0048"/>
</linearGradient>
<linearGradient id="paint2_linear_1761_39975" x1="119.895" y1="323.123" x2="289.23" y2="323.123" gradientUnits="userSpaceOnUse">
<stop stop-color="#182C7E"/>
<stop offset="1" stop-color="#1A0048"/>
</linearGradient>
<linearGradient id="paint3_linear_1761_39975" x1="-107.974" y1="323.123" x2="569.721" y2="323.123" gradientUnits="userSpaceOnUse">
<stop stop-color="#182C7E"/>
<stop offset="1" stop-color="#1A0048"/>
</linearGradient>
<linearGradient id="paint4_linear_1761_39975" x1="-239.494" y1="323.123" x2="496.387" y2="323.123" gradientUnits="userSpaceOnUse">
<stop stop-color="#182C7E"/>
<stop offset="1" stop-color="#1A0048"/>
</linearGradient>
<linearGradient id="paint5_linear_1761_39975" x1="-478.223" y1="323.123" x2="689.668" y2="323.123" gradientUnits="userSpaceOnUse">
<stop stop-color="#182C7E"/>
<stop offset="1" stop-color="#1A0048"/>
</linearGradient>
</defs>
</svg>
