<svg width="553" height="325" viewBox="0 0 553 325" fill="none" xmlns="http://www.w3.org/2000/svg">
<path style="mix-blend-mode:multiply" opacity="0.15" d="M20.7201 315.523C20.7201 315.523 -6.08646 278.999 14.7815 238.389C38.3883 192.442 101.027 184.939 131.807 157.32C162.587 129.701 162.552 70.974 216.487 45.9844C256.423 27.481 285.882 31.5305 333.356 56.9496C380.84 82.3687 399.734 65.3905 452.825 80.8962C510.386 97.7078 534.732 154.156 519.377 212.094C506.43 260.925 544.731 270.821 542.992 315.523H20.7201Z" fill="url(#paint0_linear_1761_39702)"/>
<path d="M552.13 317.276H0.869497C0.391274 317.276 0 316.882 0 316.4C0 315.918 0.391274 315.523 0.869497 315.523H552.13C552.609 315.523 553 315.918 553 316.4C553 316.882 552.609 317.276 552.13 317.276Z" fill="url(#paint1_linear_1761_39702)"/>
<path d="M178.238 324.003H131.59C131.111 324.003 130.72 323.609 130.72 323.127C130.72 322.644 131.111 322.25 131.59 322.25H178.238C178.716 322.25 179.108 322.644 179.108 323.127C179.108 323.609 178.716 324.003 178.238 324.003Z" fill="url(#paint2_linear_1761_39702)"/>
<path d="M369.101 324.003H298.09C297.611 324.003 297.22 323.609 297.22 323.127C297.22 322.644 297.611 322.25 298.09 322.25H369.101C369.58 322.25 369.971 322.644 369.971 323.127C369.971 323.609 369.58 324.003 369.101 324.003Z" fill="url(#paint3_linear_1761_39702)"/>
<path d="M278.622 324.003H201.358C200.88 324.003 200.489 323.609 200.489 323.127C200.489 322.644 200.88 322.25 201.358 322.25H278.622C279.1 322.25 279.491 322.644 279.491 323.127C279.491 323.609 279.1 324.003 278.622 324.003Z" fill="url(#paint4_linear_1761_39702)"/>
<path d="M479.275 324.003H396.491C396.012 324.003 395.621 323.609 395.621 323.127C395.621 322.644 396.012 322.25 396.491 322.25H479.275C479.754 322.25 480.145 322.644 480.145 323.127C480.145 323.609 479.754 324.003 479.275 324.003Z" fill="url(#paint5_linear_1761_39702)"/>
<path d="M488 262.688H90V262.888H488V262.688Z" fill="#EBEBEB"/>
<path d="M158.122 270.324H131.758V270.525H158.122V270.324Z" fill="#EBEBEB"/>
<path d="M270.342 268.148H226.228V268.349H270.342V268.148Z" fill="#EBEBEB"/>
<path d="M177.711 275.09H162.436V275.291H177.711V275.09Z" fill="#EBEBEB"/>
<path d="M431.206 270.223H396.826V270.424H431.206V270.223Z" fill="#EBEBEB"/>
<path d="M443.337 270.223H438.298V270.424H443.337V270.223Z" fill="#EBEBEB"/>
<path d="M347.944 273.039H310.659V273.24H347.944V273.039Z" fill="#EBEBEB"/>
<path d="M278.66 226.909H124.952C122.445 226.909 120.407 224.855 120.407 222.328V4.5807C120.407 2.05369 122.445 0 124.952 0H278.66C281.167 0 283.205 2.05369 283.205 4.5807V222.328C283.205 224.855 281.167 226.909 278.66 226.909ZM124.952 0.200556C122.556 0.200556 120.606 2.166 120.606 4.5807V222.328C120.606 224.743 122.556 226.708 124.952 226.708H278.66C281.056 226.708 283.006 224.743 283.006 222.328V4.5807C283.006 2.166 281.056 0.200556 278.66 0.200556H124.952Z" fill="#EBEBEB"/>
<path d="M450.835 226.909H297.127C294.62 226.909 292.582 224.855 292.582 222.328V4.5807C292.582 2.05369 294.62 0 297.127 0H450.835C453.342 0 455.38 2.05369 455.38 4.5807V222.328C455.38 224.855 453.342 226.909 450.835 226.909ZM297.127 0.200556C294.731 0.200556 292.781 2.166 292.781 4.5807V222.328C292.781 224.743 294.731 226.708 297.127 226.708H450.835C453.231 226.708 455.181 224.743 455.181 222.328V4.5807C455.181 2.166 453.231 0.200556 450.835 0.200556H297.127Z" fill="#EBEBEB"/>
<path d="M327.081 15.5938H173.405V126.774H327.081V15.5938Z" fill="#FAFAFA"/>
<path d="M318.332 126.774L279.249 15.5938H249.916L289 126.774H318.332Z" fill="white"/>
<path d="M239.457 126.774L200.373 15.5938H189.675L228.759 126.774H239.457Z" fill="white"/>
<path d="M166.082 11.7773H334.412C334.786 11.7773 335.096 12.0902 335.096 12.4673C335.096 12.8443 334.786 13.1572 334.412 13.1572H166.082C165.708 13.1572 165.397 12.8443 165.397 12.4673C165.397 12.0902 165.708 11.7773 166.082 11.7773Z" fill="#E0E0E0"/>
<path d="M251.158 15.3555H249.335V127.017H251.158V15.3555Z" fill="#F0F0F0"/>
<path d="M249.327 15.3555H248.42V127.017H249.327V15.3555Z" fill="#E0E0E0"/>
<path d="M172.338 70.2684V72.1055L328.139 72.1055V70.2684L172.338 70.2684Z" fill="#F0F0F0"/>
<path d="M172.346 126.012V14.5273H328.147V126.012V127.849H172.346V126.012ZM326.324 126.012V16.3564H174.169V126.012H326.324Z" fill="#F0F0F0"/>
<path d="M172.338 14.5273H171.431V127.849H172.338V14.5273Z" fill="#E0E0E0"/>
<path opacity="0.5" d="M194.937 10.0938V140.664H162.046L168.08 10.0938H194.937Z" fill="#EBEBEB"/>
<path opacity="0.5" d="M304.641 10.0938V140.664H337.532L331.498 10.0938H304.641Z" fill="#EBEBEB"/>
<path d="M151.833 156.305H139.288V258.853H151.833V156.305Z" fill="#F0F0F0"/>
<path d="M279.91 258.855H141.7V262.69H279.91V258.855Z" fill="#F0F0F0"/>
<path d="M151.841 258.844H282.322V156.296H151.841V258.844Z" fill="#F5F5F5"/>
<path d="M150.536 152.961H137.712V156.306H150.536V152.961Z" fill="#F0F0F0"/>
<path d="M150.528 156.301L283.89 156.301V152.956L150.528 152.956V156.301Z" fill="#FAFAFA"/>
<path d="M277.808 214.009H156.347V163.324H277.808V214.009ZM157.19 213.158H276.965V164.175H157.19V213.158Z" fill="#E0E0E0"/>
<path d="M277.808 251.829H156.347V219.09H277.808V251.829ZM157.19 250.978H276.965V219.94H157.19V250.978Z" fill="#E0E0E0"/>
<path d="M260.328 163.75H173.827C173.211 163.75 172.712 164.253 172.712 164.873V165.346C172.712 165.967 173.211 166.47 173.827 166.47H260.328C260.944 166.47 261.443 165.967 261.443 165.346V164.873C261.443 164.253 260.944 163.75 260.328 163.75Z" fill="#E0E0E0"/>
<path d="M260.328 219.512H173.827C173.211 219.512 172.712 220.015 172.712 220.635V221.108C172.712 221.728 173.211 222.231 173.827 222.231H260.328C260.944 222.231 261.443 221.728 261.443 221.108V220.635C261.443 220.015 260.944 219.512 260.328 219.512Z" fill="#E0E0E0"/>
<path d="M366.896 257.762H439.874V33.3637H366.896V257.762Z" fill="#F0F0F0"/>
<path d="M366.897 33.3711H364.58V257.769H366.897V33.3711Z" fill="#E0E0E0"/>
<path d="M378.741 249.199H428.037V41.9207H378.741V249.199Z" fill="#FAFAFA"/>
<path d="M289 298.92C374.238 298.92 443.337 294.854 443.337 289.839C443.337 284.824 374.238 280.758 289 280.758C203.762 280.758 134.664 284.824 134.664 289.839C134.664 294.854 203.762 298.92 289 298.92Z" fill="#F5F5F5"/>
<path d="M204.115 282.85L210.347 280.467L206.527 265.289L200.294 267.672L204.115 282.85Z" fill="#B55B52"/>
<path d="M157.286 282.969H163.948L164.951 267.414H158.281L157.286 282.969Z" fill="#B55B52"/>
<path d="M164.617 282.188H156.49C156.219 282.188 155.988 282.38 155.949 282.645L154.93 288.613C154.826 289.231 155.336 289.817 155.965 289.809C158.575 289.76 160.478 289.608 163.773 289.608C165.803 289.608 171.916 289.817 174.718 289.817C177.52 289.817 177.743 287.025 176.589 286.776C171.399 285.645 167.451 284.081 165.732 282.597C165.421 282.332 165.031 282.188 164.633 282.188H164.617Z" fill="#263238"/>
<path d="M210.029 279.752L203.223 282.351C202.968 282.447 202.817 282.712 202.857 282.985L203.725 289.042C203.812 289.667 204.457 290.052 205.038 289.82C207.474 288.841 209.551 287.598 212.656 286.474C216.286 285.159 219.891 283.755 222.829 281.87C225.137 280.386 224.166 277.586 223.075 278.027C218.124 280.033 216.906 280.69 211.709 279.68C211.143 279.567 210.562 279.559 210.021 279.768L210.029 279.752Z" fill="#263238"/>
<path d="M192.445 78.25C194.547 81.9884 196.752 85.839 198.98 89.5614C201.209 93.3077 203.494 96.998 205.922 100.472C206.511 101.354 207.163 102.188 207.744 103.007C207.991 103.368 208.095 103.472 208.262 103.608C208.437 103.737 208.843 103.857 209.472 103.801C210.093 103.761 210.881 103.576 211.701 103.271C213.348 102.662 215.115 101.667 216.843 100.56C217.702 99.9903 218.57 99.4046 219.43 98.7789C220.273 98.1612 221.141 97.4713 221.921 96.8696L225.662 100.223C224.946 101.274 224.245 102.164 223.473 103.087C222.709 104.001 221.921 104.9 221.061 105.742C220.21 106.601 219.302 107.427 218.323 108.205C217.344 108.991 216.293 109.745 215.115 110.403C213.929 111.061 212.632 111.679 211.072 112.064C209.527 112.433 207.649 112.577 205.691 112.048C203.725 111.542 201.957 110.275 200.787 108.927C199.991 107.996 199.211 107.122 198.479 106.199C195.526 102.549 192.915 98.7709 190.439 94.9282C187.98 91.0615 185.703 87.1787 183.554 83.0633L192.453 78.25H192.445Z" fill="#B65B52"/>
<path d="M180.617 78.552C178.818 84.7131 191.474 101.512 191.474 101.512L204.234 93.2408C204.234 93.2408 200.485 84.673 195.39 78.1349C190.161 71.4203 182.591 71.7893 180.617 78.552Z" fill="#407BFF"/>
<path opacity="0.2" d="M180.617 78.552C178.818 84.7131 191.474 101.512 191.474 101.512L204.234 93.2408C204.234 93.2408 200.485 84.673 195.39 78.1349C190.161 71.4203 182.591 71.7893 180.617 78.552Z" fill="black"/>
<path opacity="0.2" d="M188.394 85.7874C191.021 86.9185 194.881 93.2882 196.887 98.0053L191.474 101.511C191.474 101.511 186.603 95.0451 183.339 88.6594C185.051 86.7661 187.009 85.1938 188.394 85.7874Z" fill="black"/>
<path d="M221.125 98.9537L223.465 92.3594L230.096 95.5522C230.096 95.5522 228.719 101.433 223.863 101.425L221.125 98.9537Z" fill="#B55B52"/>
<path d="M229.364 88.0117L232.174 91.1404L230.096 95.5526L223.465 92.3598L229.364 88.0117Z" fill="#B55B52"/>
<path opacity="0.2" d="M206.527 265.289L208.493 273.119L202.26 275.501L200.294 267.68L206.527 265.289Z" fill="black"/>
<path opacity="0.2" d="M158.281 267.418H164.952L164.434 275.432H157.764L158.281 267.418Z" fill="black"/>
<path d="M150.91 75.8356C158.09 101.354 156.912 128.429 157.366 133.933C162.587 133.74 182.265 132.994 192.995 132.585C199.044 94.5515 188.179 73.3728 188.179 73.3728C188.179 73.3728 185.894 72.9236 182.782 72.6027C181.803 72.4984 180.752 72.4102 179.662 72.354C179.057 72.3139 178.444 72.2978 177.823 72.2818C173.803 72.2176 167.228 72.8594 162.707 73.421C161.76 73.5413 160.796 73.6857 159.865 73.8381C158.998 73.9905 158.154 74.143 157.35 74.3034C153.72 75.0334 150.918 75.8276 150.918 75.8276L150.91 75.8356Z" fill="#407BFF"/>
<path opacity="0.2" d="M150.91 75.8356C158.09 101.354 156.912 128.429 157.366 133.933C162.587 133.74 182.265 132.994 192.995 132.585C199.044 94.5515 188.179 73.3728 188.179 73.3728C188.179 73.3728 185.894 72.9236 182.782 72.6027C181.803 72.4984 180.752 72.4102 179.662 72.354C179.057 72.3139 178.444 72.2978 177.823 72.2818C173.803 72.2176 167.228 72.8594 162.707 73.421C161.76 73.5413 160.796 73.6857 159.865 73.8381C158.998 73.9905 158.154 74.143 157.35 74.3034C153.72 75.0334 150.918 75.8276 150.918 75.8276L150.91 75.8356Z" fill="black"/>
<path opacity="0.2" d="M158.496 86.7734C159.133 89.2443 158.408 100.508 155.845 103.283C155.495 99.6732 155.033 95.9108 154.42 92.0601L158.496 86.7734Z" fill="black"/>
<path d="M162.93 56.1562C164.243 60.9856 165.859 69.8903 162.699 73.4201C165.541 75.8669 169.218 78.6666 175.005 78.442C180.792 78.2174 179.486 74.2865 177.807 72.289C172.291 71.3905 172.131 67.3232 172.792 63.4485L162.922 56.1643L162.93 56.1562Z" fill="#B55B52"/>
<path d="M175.156 77.6133L176.207 78.3273L172.37 79.4504L173.357 77.6614L175.156 77.6133Z" fill="#407BFF"/>
<path d="M176.605 77.2422L176.207 78.3332L180.06 79.4563L179.797 77.3786L176.605 77.2422Z" fill="#407BFF"/>
<path d="M160.398 73.0487L161.919 72.2786C162.412 72.0299 163.001 72.078 163.439 72.4069C165.031 73.6022 169.266 76.41 175.156 77.6053C172.108 79.0734 172.864 82.9963 172.864 82.9963C172.864 82.9963 163.192 79.7794 160.088 73.9632C159.913 73.6263 160.064 73.2091 160.398 73.0407V73.0487Z" fill="white"/>
<path d="M179.502 72.0399L177.281 71.703C177.027 71.6629 176.844 71.9517 176.995 72.1683C177.775 73.2753 179.064 75.7301 176.605 77.2383C179.654 78.7064 180.593 82.2843 180.593 82.2843C180.593 82.2843 184.557 77.9764 179.932 72.2886C179.821 72.1522 179.669 72.064 179.494 72.0399H179.502Z" fill="white"/>
<path opacity="0.2" d="M166.949 59.1291L172.792 63.4371C172.633 64.3516 172.521 65.2822 172.529 66.1726C170.436 66.0282 167.419 63.9505 167.037 61.7765C166.846 60.6935 166.814 59.6425 166.957 59.1211L166.949 59.1291Z" fill="black"/>
<path d="M179.845 46.2535C179.574 48.58 177.361 50.5936 175.92 51.099L174.129 40.9428C178.149 38.0869 180.219 42.9805 179.845 46.2535Z" fill="#263238"/>
<path d="M160.916 49.0579C162.078 55.6201 162.42 59.527 166.122 62.5353C171.686 67.0598 179.439 63.0888 180.251 56.3101C180.983 50.2051 178.961 40.4982 172.243 38.613C165.62 36.7518 159.761 42.4958 160.916 49.0579Z" fill="#B55B52"/>
<path d="M162.157 53.4838C165.174 55.0962 166.504 51.4702 166.528 49.9941C166.567 47.6516 165.564 45.0765 164.362 44.1379C170.189 44.1058 181.707 43.8491 178.802 38.2576C175.896 32.6661 170.078 33.3078 165.692 36.3643C163.375 37.9768 155.877 36.5729 157.732 40.929C153.823 43.0228 157.214 50.8284 162.157 53.4838Z" fill="#263238"/>
<path d="M158.361 40.5688C158.361 40.5688 157.079 40.6891 155.487 39.582C155.949 41.6598 158.034 41.7079 158.034 41.7079L158.361 40.5688Z" fill="#263238"/>
<path d="M158.464 54.4519C159.252 56.0644 160.701 57.1635 162.102 57.6127C164.203 58.2946 164.681 56.3612 164.171 54.3156C163.71 52.4785 162.723 49.9755 160.581 50.1841C158.472 50.3847 157.565 52.6068 158.464 54.4519Z" fill="#B55B52"/>
<path d="M200.748 203.603C198.041 183.283 192.987 132.582 192.987 132.582L169.568 133.464C169.568 133.464 180.617 184.125 184.613 204.67C188.609 225.215 199.729 274.792 199.729 274.792L210.284 270.765C210.284 270.765 203.565 224.725 200.748 203.595V203.603Z" fill="#263238"/>
<path opacity="0.2" d="M178.316 147.129C176.852 147.498 174.543 148.404 173.11 149.816C175.323 160.061 178.213 173.546 180.688 185.427C182.384 175.135 182.432 155.705 178.316 147.129Z" fill="black"/>
<path d="M180.354 133.067C180.354 133.067 175.387 188.067 173.11 207.609C170.619 229.021 167.507 273.881 167.507 273.881H155.296C155.296 273.881 154.787 234.195 156.379 213.241C158.185 189.367 157.366 133.925 157.366 133.925L180.354 133.051V133.067Z" fill="#263238"/>
<path d="M169.122 274.152H154.747L154.444 269.82L170.492 269.539L169.122 274.152Z" fill="#407BFF"/>
<path d="M211.7 270.514L199.132 275.328L197.587 271.228L211.565 265.637L211.7 270.514Z" fill="#407BFF"/>
<path d="M171.081 49.7451C171.144 50.2826 171.479 50.6837 171.821 50.6436C172.163 50.6035 172.402 50.1301 172.338 49.5927C172.275 49.0552 171.94 48.6541 171.598 48.6942C171.248 48.7343 171.017 49.2076 171.081 49.7451Z" fill="#263238"/>
<path d="M177.114 49.0459C177.178 49.5834 177.512 49.9845 177.855 49.9444C178.205 49.9042 178.436 49.4309 178.372 48.8934C178.308 48.356 177.974 47.9548 177.632 47.995C177.29 48.0351 177.051 48.5084 177.114 49.0459Z" fill="#263238"/>
<path d="M175.228 49.5391C175.228 49.5391 176.796 52.5073 178.308 53.847C177.465 54.8418 175.809 54.6252 175.809 54.6252L175.228 49.5391Z" fill="#A02724"/>
<path d="M173.723 56.3218C171.662 56.2817 170.555 54.9661 170.508 54.9099C170.452 54.8457 170.46 54.7414 170.531 54.6853C170.595 54.6291 170.699 54.6372 170.754 54.7094C170.77 54.7254 172.06 56.2496 174.392 55.9769C174.48 55.9688 174.559 56.033 174.567 56.1132C174.575 56.2015 174.511 56.2817 174.432 56.2897C174.185 56.3218 173.954 56.3298 173.731 56.3218H173.723Z" fill="#263238"/>
<path d="M168.995 47.9957C168.939 47.9957 168.892 47.9797 168.844 47.9556C168.693 47.8674 168.645 47.6748 168.732 47.5224C169.616 46.0062 171.073 45.926 171.136 45.918C171.311 45.918 171.455 46.0463 171.463 46.2228C171.463 46.3993 171.335 46.5437 171.16 46.5517C171.112 46.5517 169.974 46.6319 169.274 47.8433C169.21 47.9476 169.106 48.0037 168.995 48.0037V47.9957Z" fill="#263238"/>
<path d="M179.479 46.6423C179.375 46.6423 179.28 46.5861 179.216 46.4979C178.468 45.3106 177.329 45.2785 177.282 45.2705C177.107 45.2705 176.971 45.1261 176.971 44.9496C176.971 44.7731 177.114 44.6367 177.29 44.6367C177.353 44.6367 178.81 44.6688 179.749 46.1529C179.845 46.2973 179.797 46.4979 179.654 46.5941C179.598 46.6262 179.534 46.6423 179.479 46.6423Z" fill="#263238"/>
<path d="M166.878 283.366C166.265 283.366 165.588 283.238 165.119 283.125C165.055 283.109 165.007 283.061 164.991 282.997C164.975 282.933 165.007 282.869 165.055 282.837C165.294 282.684 167.371 281.352 168.128 281.738C168.247 281.794 168.39 281.922 168.422 282.187C168.462 282.54 168.366 282.829 168.136 283.029C167.849 283.286 167.379 283.374 166.87 283.374L166.878 283.366ZM165.564 282.901C166.711 283.133 167.578 283.085 167.929 282.78C168.08 282.644 168.143 282.46 168.112 282.203C168.096 282.082 168.048 282.034 168 282.018C167.61 281.818 166.408 282.395 165.564 282.901Z" fill="#407BFF"/>
<path d="M165.158 283.13C165.158 283.13 165.095 283.122 165.071 283.106C165.023 283.074 164.991 283.018 164.991 282.962C164.991 282.881 165.055 280.94 165.803 280.306C165.994 280.138 166.217 280.074 166.464 280.106C166.846 280.154 166.957 280.386 166.989 280.523C167.164 281.269 165.907 282.745 165.238 283.122C165.214 283.138 165.19 283.138 165.166 283.138L165.158 283.13ZM166.368 280.41C166.241 280.41 166.122 280.459 166.01 280.547C165.533 280.956 165.373 282.087 165.326 282.649C165.986 282.127 166.782 281.012 166.679 280.571C166.671 280.531 166.647 280.435 166.44 280.41C166.44 280.41 166.392 280.41 166.368 280.41Z" fill="#407BFF"/>
<path d="M210.968 280.383C210.913 280.383 210.857 280.351 210.825 280.303C210.793 280.247 210.801 280.167 210.849 280.118C211.08 279.862 213.102 277.624 214.017 277.76C214.192 277.784 214.327 277.888 214.407 278.065C214.542 278.354 214.542 278.634 214.407 278.891C213.953 279.765 212.075 280.199 210.992 280.383C210.992 280.383 210.976 280.383 210.968 280.383ZM213.906 278.073C213.372 278.089 212.21 279.132 211.406 279.982C212.871 279.685 213.874 279.236 214.128 278.747C214.216 278.578 214.216 278.394 214.128 278.201C214.097 278.129 214.049 278.089 213.977 278.081C213.961 278.081 213.937 278.081 213.913 278.081L213.906 278.073Z" fill="#407BFF"/>
<path d="M210.968 280.382C210.968 280.382 210.936 280.382 210.921 280.382C210.865 280.366 210.825 280.326 210.809 280.27C210.785 280.198 210.324 278.441 210.865 277.478C211.032 277.189 211.271 276.997 211.589 276.909C212.011 276.796 212.202 276.957 212.298 277.117C212.68 277.783 211.701 279.708 211.072 280.342C211.04 280.374 211.008 280.39 210.968 280.39V280.382ZM211.836 277.189C211.796 277.189 211.74 277.197 211.677 277.213C211.446 277.278 211.271 277.414 211.143 277.631C210.785 278.264 210.944 279.355 211.048 279.885C211.637 279.123 212.25 277.671 212.027 277.27C212.011 277.246 211.979 277.181 211.836 277.189Z" fill="#407BFF"/>
<path d="M158.233 85.3209C156.235 89.4764 154.197 93.7603 152.223 97.98C151.244 100.106 150.257 102.216 149.334 104.342L147.949 107.526L147.288 109.123L147.121 109.524L147.002 109.821C146.922 110.013 146.866 110.206 146.795 110.39C146.317 111.923 146.19 113.535 146.532 115.268C146.842 117.001 147.599 118.83 148.633 120.603C149.668 122.384 150.966 124.124 152.422 125.777C153.147 126.611 153.903 127.43 154.699 128.208C155.097 128.601 155.503 128.986 155.917 129.355C156.315 129.732 156.761 130.125 157.111 130.438L154.452 134.714C153.218 134.08 152.184 133.462 151.117 132.748C150.058 132.042 149.023 131.304 148.021 130.502C146.023 128.89 144.136 127.061 142.457 124.919C140.793 122.785 139.328 120.298 138.437 117.41C137.553 114.538 137.33 111.217 138.055 108.12C138.15 107.735 138.238 107.35 138.357 106.973L138.668 105.978L139.233 104.213C139.623 103.05 140.013 101.879 140.443 100.732C141.278 98.4292 142.154 96.1509 143.093 93.9047C144.956 89.3962 146.97 85.0401 149.238 80.668L158.225 85.3128L158.233 85.3209Z" fill="#B65B52"/>
<path d="M150.91 75.8362C144.829 77.7535 138.851 98.5391 138.851 98.5391L152.924 104.748C152.924 104.748 157.477 94.7045 160.096 86.8347C162.946 78.2589 158.281 73.5178 150.918 75.8362H150.91Z" fill="#407BFF"/>
<path opacity="0.2" d="M150.91 75.8362C144.829 77.7535 138.851 98.5391 138.851 98.5391L152.924 104.748C152.924 104.748 157.477 94.7045 160.096 86.8347C162.946 78.2589 158.281 73.5178 150.918 75.8362H150.91Z" fill="black"/>
<path d="M155.638 129.125L161.457 132.615L155.797 138.294C155.797 138.294 150.878 134.484 152.351 131.5L155.638 129.133V129.125Z" fill="#B55B52"/>
<path d="M165.349 138.177L159.507 142.3L155.797 138.297L161.457 132.617L165.349 138.177Z" fill="#B55B52"/>
<path d="M446.901 127.631L446.624 131.496L447.418 131.554L447.695 127.689L446.901 127.631Z" fill="#407BFF"/>
<path d="M447.942 112.993L447.137 124.203L447.931 124.261L448.736 113.051L447.942 112.993Z" fill="#407BFF"/>
<path d="M426.167 239.07H231.194C225.24 239.07 220.711 234.16 221.141 228.152L231.457 83.1097C231.887 77.109 237.109 72.1914 243.063 72.1914H438.035C443.989 72.1914 448.518 77.101 448.088 83.1097L437.772 228.152C437.342 234.152 432.121 239.07 426.167 239.07Z" fill="#407BFF"/>
<path d="M380.819 289.834H317.529L306.249 211.016H369.539L380.819 289.834Z" fill="#407BFF"/>
<path d="M370.765 285.137H302.309L300.948 289.838H369.412L370.765 285.137Z" fill="#407BFF"/>
<path d="M372.875 248.961L311.193 245.559L306.249 211.016H367.446L372.875 248.961Z" fill="#263238"/>
<path d="M423.97 239.07H228.997C223.043 239.07 218.514 234.16 218.944 228.152L229.26 83.1097C229.69 77.109 234.912 72.1914 240.866 72.1914H435.838C441.792 72.1914 446.321 77.101 445.892 83.1097L435.575 228.152C435.146 234.152 429.924 239.07 423.97 239.07Z" fill="#263238"/>
<path d="M445.38 84.5092L439.462 167.711L440.224 167.766L446.142 84.5643L445.38 84.5092Z" fill="white"/>
<path d="M438.984 174.959L436.934 203.773L437.697 203.828L439.746 175.014L438.984 174.959Z" fill="white"/>
<path d="M423.556 236.35H229.793C225.153 236.35 221.634 232.523 221.969 227.854L232.245 83.4057C232.579 78.7287 236.647 74.9102 241.28 74.9102H435.042C439.683 74.9102 443.201 78.7368 442.867 83.4057L432.59 227.854C432.256 232.531 428.188 236.35 423.556 236.35Z" fill="white"/>
<path opacity="0.2" d="M423.556 236.35H229.793C225.153 236.35 221.634 232.523 221.969 227.854L232.245 83.4057C232.579 78.7287 236.647 74.9102 241.28 74.9102H435.042C439.683 74.9102 443.201 78.7368 442.867 83.4057L432.59 227.854C432.256 232.531 428.188 236.35 423.556 236.35Z" fill="#407BFF"/>
<path opacity="0.5" d="M279.496 229.949H234.243C232.006 229.949 230.303 228.104 230.462 225.841L240.452 85.4121C240.611 83.1578 242.577 81.3047 244.814 81.3047H290.067C292.303 81.3047 294.007 83.1498 293.848 85.4121L283.858 225.841C283.699 228.096 281.732 229.949 279.496 229.949Z" fill="white"/>
<path opacity="0.4" d="M277.744 101.108H254.326C252.304 101.108 250.776 99.4477 250.919 97.41L251.174 93.792C251.317 91.7544 253.084 90.0938 255.106 90.0938H278.524C280.546 90.0938 282.075 91.7544 281.931 93.792L281.677 97.41C281.533 99.4477 279.766 101.108 277.744 101.108Z" fill="#407BFF"/>
<path d="M262.851 157.92H227.095C223.577 157.92 220.902 155.016 221.149 151.47L223.712 115.434C223.967 111.888 227.055 108.984 230.573 108.984H266.33C269.848 108.984 272.523 111.888 272.276 115.434L269.713 151.47C269.458 155.016 266.37 157.92 262.851 157.92Z" fill="#407BFF"/>
<path d="M267.978 128.371C266.632 128.371 265.462 129.478 265.367 130.826L264.993 136.057C264.897 137.412 265.916 138.511 267.261 138.511H270.891C271.225 138.511 271.512 138.239 271.536 137.902L272.173 128.973C272.196 128.636 271.942 128.363 271.607 128.363H267.978V128.371Z" fill="white"/>
<path d="M254.183 118.141H231.648C231.107 118.141 230.701 117.7 230.741 117.155C230.78 116.609 231.25 116.168 231.791 116.168H254.326C254.867 116.168 255.273 116.609 255.234 117.155C255.194 117.7 254.724 118.141 254.183 118.141Z" fill="white"/>
<path d="M253.833 123.169H231.298C230.757 123.169 230.351 122.728 230.39 122.182C230.43 121.637 230.9 121.195 231.441 121.195H253.976C254.517 121.195 254.923 121.637 254.883 122.182C254.844 122.728 254.374 123.169 253.833 123.169Z" fill="white"/>
<path d="M245.682 128.177H230.932C230.39 128.177 229.984 127.735 230.024 127.19C230.064 126.644 230.534 126.203 231.075 126.203H245.825C246.366 126.203 246.772 126.644 246.732 127.19C246.693 127.735 246.223 128.177 245.682 128.177Z" fill="white"/>
<path opacity="0.5" d="M254.247 152.093H232.444C230.144 152.093 228.392 150.191 228.56 147.873L229.38 136.329C229.547 134.011 231.561 132.109 233.861 132.109H255.663C257.964 132.109 259.715 134.011 259.548 136.329L258.728 147.873C258.561 150.191 256.547 152.093 254.247 152.093Z" fill="white"/>
<path opacity="0.4" d="M274.6 171.404H247.473C246.478 171.404 245.713 170.578 245.785 169.575C245.857 168.572 246.732 167.746 247.727 167.746H274.855C275.85 167.746 276.614 168.572 276.542 169.575C276.471 170.578 275.595 171.404 274.6 171.404Z" fill="#407BFF"/>
<path opacity="0.8" d="M269.132 178.584H251.914C250.919 178.584 250.155 177.758 250.227 176.755C250.298 175.752 251.174 174.926 252.169 174.926H269.387C270.382 174.926 271.146 175.752 271.074 176.755C271.002 177.758 270.127 178.584 269.132 178.584Z" fill="white"/>
<path opacity="0.4" d="M273.191 191.213H246.064C245.069 191.213 244.304 190.387 244.376 189.384C244.448 188.381 245.323 187.555 246.318 187.555H273.446C274.441 187.555 275.205 188.381 275.134 189.384C275.062 190.387 274.186 191.213 273.191 191.213Z" fill="#407BFF"/>
<path opacity="0.8" d="M267.723 198.389H250.505C249.51 198.389 248.746 197.562 248.818 196.56C248.89 195.557 249.765 194.73 250.76 194.73H267.978C268.973 194.73 269.737 195.557 269.665 196.56C269.593 197.562 268.718 198.389 267.723 198.389Z" fill="white"/>
<path opacity="0.4" d="M271.782 211.018H244.655C243.66 211.018 242.896 210.191 242.967 209.188C243.039 208.186 243.914 207.359 244.909 207.359H272.037C273.032 207.359 273.796 208.186 273.725 209.188C273.653 210.191 272.777 211.018 271.782 211.018Z" fill="#407BFF"/>
<path opacity="0.8" d="M266.314 218.193H249.096C248.101 218.193 247.337 217.367 247.409 216.364C247.481 215.361 248.356 214.535 249.351 214.535H266.569C267.564 214.535 268.328 215.361 268.256 216.364C268.185 217.367 267.309 218.193 266.314 218.193Z" fill="white"/>
<path opacity="0.5" d="M425.657 188.767C426.835 186.962 429.526 187.724 429.382 189.818L426.772 226.52C426.636 228.413 425.219 229.945 423.611 229.945H292.399C290.791 229.945 289.589 228.405 289.724 226.52L291.276 204.715C291.483 201.771 294.452 199.653 297.183 200.511C304.578 202.838 310.914 201.474 316.804 198.53C329.397 192.224 339.936 178.707 354.415 178.707C354.972 178.707 355.514 178.723 356.047 178.755C377.587 180.063 384.146 207.026 400.838 207.026C405.773 207.026 410.271 204.884 414.195 201.819C418.995 198.073 422.919 192.971 425.649 188.767H425.657Z" fill="#407BFF"/>
<path opacity="0.5" d="M428.38 203.893L426.772 226.524C426.636 228.417 425.219 229.95 423.611 229.95H292.399C290.791 229.95 289.589 228.409 289.724 226.524L292.924 181.551C293.147 178.471 297.151 177.179 298.767 179.666C302.954 186.1 309.393 194.419 316.804 198.526C319.646 200.099 322.615 201.053 325.664 201.053C336.266 201.053 345.285 188.378 356.047 178.752C362.654 172.847 369.905 168.082 378.59 168.082C396.715 168.082 399.389 197.764 414.187 201.824C417.036 202.61 420.34 202.441 424.288 200.917C426.405 200.107 428.523 201.663 428.364 203.893H428.38Z" fill="#407BFF"/>
<g opacity="0.8">
<path d="M429.024 195.122C428.953 195.122 428.889 195.089 428.833 195.041C428.809 195.017 428.785 194.985 428.777 194.953C428.761 194.921 428.754 194.881 428.754 194.848C428.754 194.768 428.785 194.704 428.833 194.656C428.929 194.551 429.112 194.543 429.215 194.656C429.271 194.704 429.295 194.776 429.295 194.848C429.295 194.881 429.295 194.921 429.279 194.953C429.263 194.985 429.239 195.017 429.215 195.041C429.167 195.089 429.096 195.122 429.024 195.122Z" fill="white"/>
<path d="M301.449 213.918C301.298 213.918 301.179 213.797 301.179 213.645C301.179 213.501 301.298 213.38 301.449 213.38C301.601 213.38 301.72 213.501 301.72 213.645C301.72 213.797 301.601 213.926 301.449 213.926V213.918ZM298.719 213.765C298.568 213.765 298.456 213.621 298.472 213.468C298.488 213.316 298.624 213.212 298.775 213.228C298.926 213.244 299.029 213.38 299.014 213.525C298.998 213.669 298.878 213.773 298.743 213.773C298.743 213.773 298.727 213.773 298.711 213.773L298.719 213.765ZM303.869 213.525C303.853 213.372 303.957 213.236 304.108 213.22C304.259 213.204 304.395 213.308 304.41 213.46C304.426 213.613 304.323 213.749 304.172 213.765H304.14C304.004 213.765 303.885 213.661 303.869 213.525ZM296.029 213.348C295.885 213.316 295.79 213.172 295.814 213.019C295.845 212.875 295.989 212.779 296.14 212.803C296.283 212.835 296.379 212.979 296.355 213.132C296.323 213.26 296.212 213.348 296.084 213.348H296.029ZM306.528 213.075C306.488 212.923 306.576 212.779 306.727 212.738C306.87 212.706 307.013 212.795 307.053 212.939C307.093 213.083 306.997 213.236 306.854 213.276H306.79C306.663 213.276 306.552 213.196 306.528 213.075ZM393.586 213.188C393.435 213.188 393.316 213.067 393.316 212.915C393.316 212.762 393.443 212.642 393.586 212.642C393.738 212.642 393.857 212.762 393.857 212.915C393.857 213.067 393.738 213.188 393.586 213.188ZM396.014 212.803C395.998 212.65 396.11 212.514 396.253 212.506C396.404 212.482 396.539 212.594 396.555 212.746C396.571 212.899 396.46 213.035 396.309 213.051H396.285C396.149 213.051 396.03 212.947 396.014 212.803ZM390.864 213.019C390.721 213.003 390.609 212.867 390.633 212.714C390.649 212.562 390.784 212.458 390.936 212.474C391.087 212.498 391.19 212.634 391.174 212.779C391.151 212.923 391.039 213.027 390.904 213.027C390.904 213.027 390.88 213.027 390.864 213.027V213.019ZM293.386 212.69C293.243 212.65 293.155 212.498 293.195 212.353C293.243 212.209 293.386 212.121 293.537 212.161C293.68 212.209 293.76 212.353 293.72 212.506C293.688 212.626 293.577 212.698 293.457 212.698C293.457 212.698 293.41 212.698 293.386 212.698V212.69ZM398.689 212.426C398.657 212.273 398.752 212.129 398.904 212.105C399.047 212.073 399.19 212.169 399.222 212.321C399.254 212.466 399.158 212.61 399.007 212.642C399.007 212.642 398.975 212.642 398.959 212.642C398.832 212.642 398.713 212.546 398.689 212.418V212.426ZM388.189 212.522C388.038 212.49 387.951 212.345 387.99 212.193C388.022 212.049 388.166 211.96 388.317 211.992C388.46 212.024 388.548 212.177 388.516 212.321C388.484 212.45 388.373 212.53 388.253 212.53C388.253 212.53 388.205 212.53 388.189 212.53V212.522ZM309.107 212.297C309.051 212.153 309.123 211.992 309.266 211.944C309.401 211.888 309.561 211.96 309.616 212.097C309.664 212.241 309.6 212.401 309.457 212.45C309.457 212.45 309.393 212.474 309.362 212.474C309.25 212.474 309.147 212.401 309.107 212.297ZM401.323 211.824C401.284 211.671 401.363 211.519 401.514 211.479C401.658 211.439 401.809 211.527 401.849 211.671C401.889 211.816 401.801 211.968 401.658 212.008C401.658 212.008 401.61 212.024 401.586 212.024C401.467 212.024 401.355 211.944 401.323 211.824ZM385.579 211.728C385.435 211.679 385.364 211.519 385.411 211.383C385.467 211.238 385.618 211.166 385.762 211.214C385.905 211.27 385.977 211.423 385.929 211.567C385.889 211.679 385.778 211.744 385.666 211.744C385.666 211.744 385.602 211.744 385.579 211.728ZM311.582 211.214C311.511 211.086 311.566 210.917 311.702 210.845C311.837 210.781 311.996 210.845 312.068 210.974C312.132 211.102 312.084 211.27 311.949 211.335C311.949 211.335 311.869 211.367 311.821 211.367C311.726 211.367 311.63 211.31 311.582 211.214ZM403.91 211.022C403.855 210.877 403.934 210.725 404.07 210.677C404.205 210.621 404.364 210.701 404.412 210.837C404.46 210.982 404.388 211.142 404.245 211.19C404.245 211.19 404.189 211.206 404.157 211.206C404.046 211.206 403.942 211.134 403.902 211.022H403.91ZM383.063 210.685C382.928 210.629 382.864 210.46 382.928 210.324C382.992 210.187 383.151 210.131 383.286 210.187C383.429 210.252 383.485 210.412 383.421 210.556C383.374 210.653 383.278 210.717 383.175 210.717C383.175 210.717 383.095 210.709 383.063 210.685ZM406.434 210.059C406.378 209.923 406.434 209.762 406.585 209.706C406.72 209.642 406.88 209.706 406.935 209.85C406.999 209.987 406.935 210.147 406.792 210.211C406.792 210.211 406.72 210.227 406.688 210.227C406.577 210.227 406.482 210.163 406.434 210.059ZM313.939 209.899C313.859 209.77 313.899 209.594 314.026 209.513C314.153 209.433 314.321 209.473 314.4 209.602C314.48 209.73 314.44 209.899 314.313 209.979C314.313 209.979 314.217 210.027 314.169 210.027C314.082 210.027 313.994 209.979 313.939 209.899ZM380.635 209.457C380.5 209.385 380.452 209.217 380.524 209.08C380.596 208.952 380.763 208.904 380.898 208.976C381.025 209.048 381.073 209.209 381.002 209.345C380.954 209.433 380.858 209.489 380.763 209.489C380.723 209.489 380.675 209.473 380.635 209.457ZM408.909 208.96C408.846 208.824 408.909 208.663 409.037 208.599C409.172 208.535 409.339 208.599 409.403 208.727C409.467 208.864 409.403 209.024 409.268 209.088C409.268 209.088 409.188 209.12 409.148 209.12C409.045 209.12 408.949 209.064 408.901 208.96H408.909ZM316.183 208.39C316.096 208.262 316.128 208.094 316.247 208.005C316.366 207.917 316.541 207.941 316.629 208.061C316.717 208.182 316.685 208.358 316.565 208.447C316.518 208.479 316.462 208.503 316.406 208.503C316.319 208.503 316.239 208.463 316.183 208.39ZM378.287 208.086C378.16 208.005 378.12 207.837 378.2 207.708C378.271 207.572 378.438 207.532 378.566 207.612C378.701 207.692 378.741 207.861 378.661 207.989C378.606 208.077 378.518 208.126 378.43 208.126C378.383 208.126 378.327 208.11 378.287 208.086ZM411.329 207.741C411.258 207.612 411.305 207.444 411.441 207.372C411.568 207.299 411.735 207.356 411.807 207.484C411.878 207.62 411.831 207.781 411.695 207.861C411.695 207.861 411.608 207.893 411.568 207.893C411.472 207.893 411.377 207.837 411.329 207.741ZM318.348 206.746C318.253 206.625 318.269 206.457 318.388 206.361C318.508 206.264 318.675 206.289 318.77 206.401C318.866 206.521 318.842 206.698 318.73 206.794C318.675 206.834 318.619 206.85 318.555 206.85C318.476 206.85 318.396 206.818 318.348 206.746ZM375.995 206.625C375.867 206.537 375.836 206.369 375.915 206.24C376.003 206.112 376.17 206.08 376.297 206.16C376.417 206.24 376.456 206.417 376.377 206.537C376.321 206.625 376.234 206.666 376.146 206.666C376.09 206.666 376.042 206.65 375.995 206.625ZM413.693 206.425C413.614 206.289 413.661 206.128 413.789 206.048C413.916 205.976 414.083 206.016 414.163 206.144C414.235 206.272 414.195 206.441 414.067 206.521C414.02 206.545 413.972 206.561 413.924 206.561C413.837 206.561 413.741 206.513 413.693 206.425ZM373.742 205.109C373.623 205.021 373.583 204.853 373.67 204.724C373.758 204.604 373.925 204.572 374.052 204.652C374.172 204.74 374.204 204.909 374.124 205.037C374.068 205.117 373.981 205.157 373.893 205.157C373.846 205.157 373.79 205.141 373.742 205.109ZM416.002 205.013C415.922 204.885 415.962 204.716 416.089 204.628C416.217 204.548 416.384 204.588 416.463 204.716C416.543 204.845 416.503 205.013 416.376 205.093C416.376 205.093 416.288 205.141 416.233 205.141C416.145 205.141 416.057 205.093 416.002 205.013ZM320.442 205.029C320.346 204.917 320.362 204.74 320.474 204.644C320.593 204.548 320.768 204.564 320.864 204.676C320.959 204.796 320.943 204.965 320.824 205.061C320.776 205.109 320.713 205.125 320.649 205.125C320.577 205.125 320.498 205.093 320.442 205.029ZM418.27 203.521C418.183 203.393 418.215 203.224 418.334 203.136C418.461 203.048 418.628 203.08 418.716 203.208C418.796 203.328 418.772 203.505 418.644 203.585C418.597 203.617 418.541 203.633 418.493 203.633C418.406 203.633 418.318 203.593 418.27 203.521ZM371.505 203.585C371.378 203.497 371.346 203.328 371.434 203.208C371.513 203.08 371.68 203.048 371.808 203.128C371.935 203.216 371.967 203.384 371.879 203.513C371.832 203.593 371.744 203.633 371.657 203.633C371.609 203.633 371.553 203.617 371.505 203.585ZM322.519 203.28C322.416 203.168 322.432 202.991 322.551 202.895C322.663 202.799 322.838 202.815 322.933 202.927C323.029 203.048 323.013 203.216 322.902 203.312C322.846 203.36 322.79 203.376 322.726 203.376C322.647 203.376 322.567 203.344 322.519 203.28ZM369.261 202.077C369.133 201.989 369.093 201.82 369.181 201.7C369.261 201.571 369.436 201.531 369.555 201.62C369.682 201.7 369.714 201.868 369.635 201.997C369.587 202.077 369.499 202.117 369.412 202.117C369.356 202.117 369.308 202.117 369.261 202.077ZM420.483 201.949C420.388 201.828 420.419 201.66 420.539 201.571C420.658 201.483 420.833 201.507 420.921 201.628C421.009 201.748 420.977 201.924 420.857 202.013C420.81 202.045 420.754 202.061 420.698 202.061C420.618 202.061 420.531 202.029 420.483 201.949ZM324.597 201.539C324.501 201.427 324.517 201.251 324.637 201.154C324.756 201.058 324.923 201.082 325.019 201.194C325.114 201.315 325.098 201.491 324.979 201.579C324.931 201.628 324.868 201.644 324.804 201.644C324.732 201.644 324.653 201.612 324.597 201.539ZM366.992 200.609C366.865 200.529 366.825 200.36 366.904 200.232C366.984 200.103 367.151 200.063 367.279 200.144C367.406 200.224 367.446 200.392 367.366 200.521C367.31 200.609 367.223 200.657 367.135 200.657C367.087 200.657 367.032 200.641 366.992 200.609ZM422.648 200.32C422.553 200.2 422.577 200.023 422.696 199.935C422.815 199.839 422.983 199.863 423.078 199.983C423.166 200.103 423.142 200.272 423.03 200.368C422.983 200.408 422.927 200.424 422.871 200.424C422.784 200.424 422.704 200.384 422.656 200.32H422.648ZM326.714 199.855C326.627 199.734 326.651 199.558 326.77 199.47C326.889 199.381 327.057 199.405 327.152 199.526C327.24 199.646 327.216 199.815 327.096 199.911C327.049 199.943 326.993 199.967 326.937 199.967C326.85 199.967 326.77 199.927 326.714 199.855ZM364.676 199.221C364.548 199.149 364.5 198.98 364.58 198.844C364.652 198.716 364.819 198.667 364.946 198.748C365.082 198.82 365.129 198.988 365.05 199.117C365.002 199.205 364.906 199.261 364.811 199.261C364.771 199.261 364.723 199.245 364.676 199.221ZM424.758 198.619C424.662 198.507 424.678 198.33 424.797 198.234C424.917 198.138 425.084 198.154 425.18 198.274C425.275 198.387 425.259 198.563 425.148 198.659C425.092 198.7 425.028 198.724 424.973 198.724C424.893 198.724 424.813 198.691 424.758 198.619ZM328.911 198.266C328.824 198.138 328.856 197.969 328.983 197.881C329.11 197.801 329.277 197.833 329.365 197.961C329.445 198.082 329.413 198.258 329.285 198.339C329.238 198.371 329.19 198.387 329.134 198.387C329.047 198.387 328.959 198.339 328.911 198.266ZM362.311 197.929C362.184 197.865 362.128 197.697 362.2 197.56C362.264 197.424 362.431 197.376 362.566 197.44C362.694 197.512 362.749 197.681 362.686 197.817C362.638 197.905 362.534 197.961 362.439 197.961C362.439 197.961 362.351 197.961 362.311 197.929ZM426.827 196.862C426.732 196.75 426.74 196.574 426.851 196.477C426.963 196.381 427.13 196.389 427.233 196.501C427.329 196.614 427.313 196.79 427.201 196.886C427.154 196.935 427.09 196.959 427.026 196.959C426.947 196.959 426.875 196.927 426.819 196.862H426.827ZM331.196 196.814C331.116 196.686 331.164 196.517 331.299 196.437C331.427 196.365 331.594 196.413 331.665 196.542C331.737 196.678 331.697 196.838 331.562 196.919C331.514 196.943 331.466 196.951 331.427 196.951C331.331 196.951 331.236 196.903 331.188 196.814H331.196ZM359.892 196.766C359.756 196.702 359.693 196.542 359.756 196.405C359.812 196.269 359.979 196.205 360.115 196.269C360.25 196.325 360.314 196.485 360.25 196.63C360.21 196.726 360.107 196.79 360.003 196.79C359.963 196.79 359.931 196.79 359.892 196.766ZM357.408 195.747C357.265 195.699 357.193 195.539 357.249 195.394C357.297 195.258 357.456 195.186 357.599 195.234C357.734 195.29 357.806 195.442 357.758 195.587C357.719 195.699 357.615 195.763 357.504 195.763C357.504 195.763 357.44 195.763 357.408 195.747ZM333.584 195.555C333.528 195.418 333.584 195.25 333.719 195.194C333.854 195.13 334.022 195.194 334.085 195.33C334.141 195.467 334.085 195.627 333.942 195.691C333.942 195.691 333.87 195.715 333.831 195.715C333.727 195.715 333.632 195.659 333.584 195.555ZM354.861 194.905C354.718 194.857 354.638 194.712 354.678 194.56C354.718 194.416 354.877 194.335 355.02 194.376C355.163 194.416 355.243 194.568 355.203 194.72C355.163 194.833 355.06 194.913 354.941 194.913C354.941 194.913 354.893 194.913 354.861 194.913V194.905ZM336.083 194.528C336.036 194.384 336.115 194.231 336.258 194.183C336.402 194.135 336.553 194.215 336.601 194.359C336.648 194.504 336.569 194.656 336.426 194.704C336.426 194.704 336.37 194.72 336.338 194.72C336.227 194.72 336.123 194.648 336.083 194.528ZM352.266 194.239C352.123 194.207 352.027 194.063 352.059 193.918C352.091 193.766 352.234 193.67 352.385 193.71C352.529 193.734 352.624 193.878 352.592 194.031C352.568 194.159 352.449 194.247 352.322 194.247C352.322 194.247 352.29 194.247 352.266 194.247V194.239ZM338.67 193.782C338.638 193.629 338.734 193.485 338.885 193.453C339.028 193.421 339.172 193.517 339.204 193.662C339.235 193.814 339.148 193.958 338.997 193.99C338.997 193.99 338.957 193.99 338.941 193.99C338.814 193.99 338.702 193.902 338.67 193.774V193.782ZM349.631 193.782C349.488 193.758 349.376 193.621 349.4 193.469C349.416 193.317 349.56 193.212 349.703 193.236C349.846 193.252 349.95 193.397 349.934 193.549C349.91 193.678 349.798 193.782 349.663 193.782H349.623H349.631ZM341.329 193.325C341.313 193.172 341.424 193.044 341.568 193.028C341.719 193.004 341.854 193.116 341.87 193.268C341.886 193.421 341.775 193.549 341.623 193.573H341.6C341.464 193.573 341.345 193.469 341.329 193.325ZM346.965 193.501H346.973C346.821 193.501 346.702 193.365 346.718 193.212C346.718 193.06 346.853 192.948 347.004 192.956C347.156 192.956 347.267 193.1 347.259 193.252C347.259 193.397 347.132 193.509 346.988 193.509C346.988 193.509 346.973 193.501 346.965 193.501ZM344.019 193.148C344.011 192.996 344.139 192.875 344.29 192.875C344.433 192.867 344.561 192.996 344.561 193.148C344.561 193.301 344.441 193.421 344.29 193.421C344.139 193.421 344.019 193.301 344.019 193.148Z" fill="white"/>
<path d="M290.791 211.836C290.791 211.836 290.719 211.836 290.687 211.811C290.656 211.795 290.624 211.779 290.6 211.747C290.576 211.723 290.552 211.699 290.544 211.659C290.528 211.627 290.52 211.595 290.52 211.554C290.52 211.482 290.552 211.418 290.6 211.362C290.624 211.337 290.656 211.313 290.687 211.305C290.751 211.273 290.831 211.273 290.894 211.305C290.934 211.305 290.958 211.337 290.982 211.362C291.038 211.418 291.062 211.482 291.062 211.554C291.062 211.595 291.062 211.627 291.046 211.659C291.03 211.699 291.014 211.723 290.982 211.747C290.958 211.779 290.926 211.795 290.894 211.811C290.863 211.828 290.831 211.836 290.791 211.836Z" fill="white"/>
</g>
<path d="M334.436 129.676L332.573 127.654C329.277 130.759 324.884 132.676 320.187 132.676C312.315 132.676 306.074 127.285 304.657 119.969L301.871 120.707L299.324 121.381C300.072 125.215 301.823 128.713 304.41 131.521C312.49 140.289 326.81 140.289 336.139 131.521L334.443 129.676H334.436Z" fill="white"/>
<path d="M338.408 99.5508L335.972 101.837L334.292 103.418C337.15 106.514 338.758 110.806 338.416 115.539C338.081 120.272 335.868 124.564 332.573 127.669L334.03 129.249L336.131 131.527C340.636 127.284 343.414 121.54 343.836 115.539C344.266 109.546 342.308 103.795 338.4 99.5508H338.408Z" fill="#F19621"/>
<path d="M338.408 99.545C330.328 90.7767 316.008 90.7767 306.679 99.545C300.622 105.249 297.804 113.592 299.316 121.382L302.468 120.547L304.649 119.97C304.379 118.558 304.283 117.066 304.395 115.533C305.071 106.067 313.23 98.3898 322.623 98.3898C327.319 98.3898 331.435 100.307 334.292 103.412L336.442 101.39L338.4 99.545H338.408Z" fill="#FFC74F"/>
<path d="M361.277 129.683L363.426 127.662C360.568 124.557 358.968 120.273 359.31 115.532C359.876 107.598 365.694 100.924 373.097 98.9661L372.564 96.2065L372.07 93.6875C368.194 94.7143 364.58 96.736 361.595 99.5357C352.266 108.304 351.239 122.736 359.318 131.512L361.277 129.667V129.683Z" fill="white"/>
<path d="M391.039 131.523L388.93 129.237L387.473 127.656C384.178 130.761 379.792 132.686 375.087 132.686C370.383 132.686 366.268 130.769 363.41 127.664L361.731 129.245L359.303 131.523C363.211 135.767 368.743 138.149 374.697 138.149C380.651 138.149 386.526 135.767 391.031 131.523H391.039Z" fill="#263238"/>
<path d="M391.039 131.523C400.36 122.755 401.387 108.323 393.316 99.5462C388.062 93.8424 379.943 91.6122 372.062 93.698L372.667 96.8106L373.089 98.9686C374.522 98.5916 376.019 98.391 377.531 98.391C386.924 98.391 393.992 106.068 393.324 115.535C392.989 120.268 390.776 124.552 387.481 127.656L389.344 129.678L391.039 131.523Z" fill="#407BFF"/>
<path opacity="0.3" d="M428.634 94.9442C429.088 94.9442 429.502 95.1207 429.804 95.4416C430.107 95.7625 430.25 96.1957 430.218 96.661L429.231 110.499C429.16 111.486 428.276 112.32 427.297 112.32H413.566C413.112 112.32 412.698 112.144 412.396 111.823C412.093 111.502 411.95 111.069 411.982 110.604L412.969 96.7653C413.041 95.7786 413.924 94.9442 414.903 94.9442H428.634ZM428.634 94.2383H414.903C413.55 94.2383 412.364 95.3534 412.269 96.7171L411.282 110.556C411.186 111.919 412.213 113.034 413.566 113.034H427.297C428.65 113.034 429.836 111.919 429.932 110.556L430.919 96.7171C431.014 95.3534 429.988 94.2383 428.634 94.2383Z" fill="#407BFF"/>
<path opacity="0.3" d="M426.939 118.757C427.392 118.757 427.806 118.933 428.109 119.254C428.411 119.575 428.555 120.008 428.523 120.474L427.536 134.312C427.464 135.299 426.58 136.133 425.601 136.133H411.87C411.417 136.133 411.003 135.956 410.7 135.636C410.398 135.315 410.255 134.881 410.286 134.416L411.273 120.578C411.345 119.591 412.229 118.757 413.208 118.757H426.939ZM426.939 118.051H413.208C411.854 118.051 410.668 119.166 410.573 120.53L409.586 134.368C409.49 135.732 410.517 136.847 411.87 136.847H425.601C426.955 136.847 428.141 135.732 428.236 134.368L429.223 120.53C429.319 119.166 428.292 118.051 426.939 118.051Z" fill="#407BFF"/>
<path d="M406.84 195.323C407.222 195.323 407.572 195.476 407.827 195.74C408.074 196.013 408.201 196.374 408.169 196.767C408.105 197.617 407.373 198.315 406.529 198.315C406.147 198.315 405.797 198.163 405.542 197.898C405.295 197.626 405.168 197.265 405.2 196.871C405.264 196.021 405.996 195.323 406.84 195.323ZM406.84 194.617C405.63 194.617 404.587 195.604 404.499 196.823C404.412 198.043 405.319 199.029 406.529 199.029C407.739 199.029 408.782 198.043 408.87 196.823C408.957 195.604 408.05 194.617 406.84 194.617Z" fill="#407BFF"/>
<path d="M407.015 194.626L406.665 194.602L406.72 193.895L407.071 193.919L407.015 194.626Z" fill="#407BFF"/>
<path d="M407.166 192.472L406.816 192.447L406.919 190.995L407.27 191.02L407.166 192.472ZM407.373 189.575L407.023 189.551L407.126 188.099L407.477 188.123L407.373 189.575ZM407.58 186.679L407.23 186.655L407.333 185.203L407.684 185.227L407.58 186.679ZM407.787 183.783L407.437 183.759L407.54 182.307L407.89 182.331L407.787 183.783ZM407.994 180.887L407.644 180.863L407.747 179.411L408.097 179.435L407.994 180.887ZM408.201 177.991L407.851 177.967L407.954 176.515L408.304 176.539L408.201 177.991ZM408.408 175.095L408.058 175.071L408.161 173.619L408.511 173.643L408.408 175.095ZM408.615 172.199L408.265 172.175L408.368 170.723L408.718 170.747L408.615 172.199ZM408.822 169.303L408.472 169.279L408.575 167.827L408.925 167.851L408.822 169.303ZM409.029 166.407L408.679 166.383L408.782 164.931L409.132 164.955L409.029 166.407ZM409.236 163.511L408.885 163.487L408.989 162.035L409.339 162.059L409.236 163.511Z" fill="#407BFF"/>
<path d="M409.132 159.865L409.082 160.57L409.432 160.595L409.481 159.89L409.132 159.865Z" fill="#407BFF"/>
<path d="M424.145 160.267H298.098C297.39 160.267 296.737 159.986 296.259 159.473C295.782 158.96 295.551 158.278 295.607 157.564L296.228 148.819C296.331 147.359 297.597 146.164 299.045 146.164H425.092C425.8 146.164 426.453 146.445 426.931 146.958C427.408 147.472 427.639 148.154 427.591 148.868L426.971 157.612C426.867 159.072 425.601 160.267 424.153 160.267H424.145ZM299.045 146.934C297.987 146.934 297.063 147.801 296.984 148.876L296.363 157.62C296.331 158.125 296.49 158.599 296.817 158.952C297.143 159.304 297.597 159.505 298.098 159.505H424.145C425.203 159.505 426.127 158.639 426.206 157.564L426.827 148.819C426.859 148.314 426.7 147.841 426.374 147.488C426.047 147.135 425.593 146.942 425.092 146.942H299.045V146.934Z" fill="#407BFF"/>
<path opacity="0.8" fill-rule="evenodd" clip-rule="evenodd" d="M421.438 151.793H301.959C301.306 151.793 300.813 151.255 300.86 150.605C300.908 149.947 301.473 149.418 302.126 149.418H421.606C422.258 149.418 422.752 149.955 422.704 150.605C422.656 151.263 422.091 151.793 421.438 151.793Z" fill="white"/>
<path opacity="0.8" fill-rule="evenodd" clip-rule="evenodd" d="M401.53 156.82H301.601C300.948 156.82 300.454 156.282 300.502 155.633C300.55 154.975 301.115 154.445 301.768 154.445H401.698C402.35 154.445 402.844 154.983 402.796 155.633C402.748 156.29 402.183 156.82 401.53 156.82Z" fill="white"/>
<defs>
<linearGradient id="paint0_linear_1761_39702" x1="274.944" y1="314.62" x2="274.944" y2="6.00626" gradientUnits="userSpaceOnUse">
<stop stop-color="#7489D6"/>
<stop offset="1" stop-color="#7C90D9"/>
</linearGradient>
<linearGradient id="paint1_linear_1761_39702" x1="12.173" y1="316.4" x2="556.495" y2="316.4" gradientUnits="userSpaceOnUse">
<stop stop-color="#182C7E"/>
<stop offset="1" stop-color="#1A0048"/>
</linearGradient>
<linearGradient id="paint2_linear_1761_39702" x1="119.895" y1="323.127" x2="289.23" y2="323.127" gradientUnits="userSpaceOnUse">
<stop stop-color="#182C7E"/>
<stop offset="1" stop-color="#1A0048"/>
</linearGradient>
<linearGradient id="paint3_linear_1761_39702" x1="-107.974" y1="323.127" x2="569.72" y2="323.127" gradientUnits="userSpaceOnUse">
<stop stop-color="#182C7E"/>
<stop offset="1" stop-color="#1A0048"/>
</linearGradient>
<linearGradient id="paint4_linear_1761_39702" x1="-239.494" y1="323.127" x2="496.387" y2="323.127" gradientUnits="userSpaceOnUse">
<stop stop-color="#182C7E"/>
<stop offset="1" stop-color="#1A0048"/>
</linearGradient>
<linearGradient id="paint5_linear_1761_39702" x1="-478.223" y1="323.127" x2="689.668" y2="323.127" gradientUnits="userSpaceOnUse">
<stop stop-color="#182C7E"/>
<stop offset="1" stop-color="#1A0048"/>
</linearGradient>
</defs>
</svg>
