<svg width="553" height="324" viewBox="0 0 553 324" fill="none" xmlns="http://www.w3.org/2000/svg">
<path style="mix-blend-mode:multiply" opacity="0.15" d="M20.7201 315.589C20.7201 315.589 -6.08648 279.35 14.7814 239.059C38.3883 193.471 101.027 186.027 131.807 158.624C162.587 131.221 162.552 72.9542 216.487 48.1602C256.423 29.8017 285.882 33.8195 333.356 59.0396C380.84 84.2597 399.734 67.4144 452.825 82.7987C510.386 99.4788 534.732 155.485 519.377 212.969C506.43 261.418 544.731 271.236 542.992 315.589H20.7201Z" fill="url(#paint0_linear_1761_39379)"/>
<path d="M552.13 317.329H0.869497C0.391274 317.329 0 316.938 0 316.46C0 315.981 0.391274 315.59 0.869497 315.59H552.13C552.609 315.59 553 315.981 553 316.46C553 316.938 552.609 317.329 552.13 317.329Z" fill="url(#paint1_linear_1761_39379)"/>
<path d="M178.238 324.001H131.59C131.111 324.001 130.72 323.61 130.72 323.131C130.72 322.653 131.111 322.262 131.59 322.262H178.238C178.716 322.262 179.108 322.653 179.108 323.131C179.108 323.61 178.716 324.001 178.238 324.001Z" fill="url(#paint2_linear_1761_39379)"/>
<path d="M369.101 324.001H298.09C297.611 324.001 297.22 323.61 297.22 323.131C297.22 322.653 297.611 322.262 298.09 322.262H369.101C369.58 322.262 369.971 322.653 369.971 323.131C369.971 323.61 369.58 324.001 369.101 324.001Z" fill="url(#paint3_linear_1761_39379)"/>
<path d="M278.622 324.001H201.358C200.88 324.001 200.489 323.61 200.489 323.131C200.489 322.653 200.88 322.262 201.358 322.262H278.622C279.1 322.262 279.491 322.653 279.491 323.131C279.491 323.61 279.1 324.001 278.622 324.001Z" fill="url(#paint4_linear_1761_39379)"/>
<path d="M479.275 324.001H396.491C396.012 324.001 395.621 323.61 395.621 323.131C395.621 322.653 396.012 322.262 396.491 322.262H479.275C479.754 322.262 480.145 322.653 480.145 323.131C480.145 323.61 479.754 324.001 479.275 324.001Z" fill="url(#paint5_linear_1761_39379)"/>
<path d="M357.355 81.7475L357.181 81.904C353.99 84.7826 349.199 84.8174 345.895 82.0693C312.106 54.0489 263.179 48.2917 222.756 71.3029C170.856 100.845 152.545 166.678 181.603 218.745L187.116 214.553C188.011 213.866 189.307 214.466 189.368 215.597L190.872 243.782C190.924 244.774 189.968 245.513 189.02 245.191L162.257 236.234C161.187 235.868 160.953 234.46 161.857 233.772L167.648 229.363C167.413 228.955 167.161 228.555 166.926 228.146C132.494 167.618 153.64 90.6267 214.157 56.1795C261.101 29.4723 317.932 36.2035 357.146 68.8157C361.146 72.1378 361.224 78.2602 357.355 81.7475Z" fill="white"/>
<path d="M338.852 275.62C291.908 302.327 235.077 295.596 195.863 262.993C191.863 259.671 191.785 253.548 195.654 250.061L195.837 249.896C199.028 247.017 203.819 246.982 207.123 249.73C240.912 277.751 289.829 283.508 330.252 260.497C382.153 230.963 400.464 165.121 371.406 113.055L365.893 117.247C364.997 117.934 363.702 117.334 363.641 116.203L362.137 88.0173C362.085 87.0259 363.041 86.2954 363.989 86.6085L390.752 95.566C391.821 95.9312 392.056 97.3401 391.152 98.0271L385.361 102.436C385.596 102.845 385.848 103.245 386.083 103.654C420.515 164.182 399.369 241.173 338.852 275.62Z" fill="white"/>
<path d="M207.21 99.3827C213.522 100.2 218.618 105.305 219.418 111.627C220.009 116.28 218.339 120.568 215.366 123.533L217.531 129.447C217.731 130.003 217.087 130.482 216.618 130.116L211.566 126.238C208.975 127.507 205.958 128.038 202.767 127.473C196.672 126.377 191.889 121.298 191.194 115.141C190.15 105.914 197.958 98.2 207.21 99.3914V99.3827Z" fill="white"/>
<path d="M210.236 113.246C210.236 114.385 211.157 115.315 212.305 115.315C213.453 115.315 214.374 114.394 214.374 113.246C214.374 112.098 213.453 111.176 212.305 111.176C211.157 111.176 210.236 112.098 210.236 113.246Z" fill="url(#paint6_linear_1761_39379)"/>
<path d="M205.314 115.315C206.457 115.315 207.384 114.389 207.384 113.246C207.384 112.102 206.457 111.176 205.314 111.176C204.171 111.176 203.245 112.102 203.245 113.246C203.245 114.389 204.171 115.315 205.314 115.315Z" fill="url(#paint7_linear_1761_39379)"/>
<path d="M196.254 113.246C196.254 114.385 197.176 115.315 198.324 115.315C199.471 115.315 200.393 114.394 200.393 113.246C200.393 112.098 199.471 111.176 198.324 111.176C197.176 111.176 196.254 112.098 196.254 113.246Z" fill="url(#paint8_linear_1761_39379)"/>
<path style="mix-blend-mode:multiply" opacity="0.5" d="M105.34 167.879H71.9161C69.8224 167.879 68.1251 169.577 68.1251 171.671V190.76C68.1251 192.854 69.8224 194.551 71.9161 194.551H105.34C107.433 194.551 109.131 192.854 109.131 190.76V171.671C109.131 169.577 107.433 167.879 105.34 167.879Z" fill="url(#paint9_linear_1761_39379)"/>
<path d="M104.566 166.234H69.4032C67.7897 166.234 66.4817 167.543 66.4817 169.156V189.985C66.4817 191.599 67.7897 192.907 69.4032 192.907H104.566C106.179 192.907 107.487 191.599 107.487 189.985V169.156C107.487 167.543 106.179 166.234 104.566 166.234Z" fill="url(#paint10_linear_1761_39379)"/>
<path d="M84.7238 175.629L90.1581 178.768C90.7755 179.125 90.7755 180.012 90.1581 180.368L84.7238 183.508C84.1064 183.864 83.3413 183.421 83.3413 182.708V176.438C83.3413 175.724 84.1064 175.281 84.7238 175.638V175.629Z" fill="white"/>
<path d="M429.54 75.8505V71.6501C429.54 71.1805 429.201 70.7804 428.732 70.7108L423.688 69.9282C423.323 69.8673 423.028 69.6064 422.923 69.2498C422.593 68.1193 422.141 67.0322 421.584 66.0234C421.402 65.7016 421.428 65.3016 421.645 64.9972L424.654 60.875C424.932 60.4924 424.888 59.9706 424.558 59.6401L421.593 56.6745C421.263 56.3441 420.732 56.3006 420.358 56.5789L416.237 59.5879C415.941 59.8053 415.541 59.8314 415.211 59.6488C414.194 59.0922 413.115 58.64 411.985 58.3095C411.629 58.2052 411.368 57.9095 411.307 57.5442L410.524 52.5002C410.455 52.0393 410.055 51.6914 409.585 51.6914H405.386C404.916 51.6914 404.516 52.0306 404.446 52.5002L403.664 57.5442C403.603 57.9095 403.342 58.2052 402.986 58.3095C401.855 58.64 400.769 59.0922 399.76 59.6488C399.438 59.8314 399.038 59.8053 398.734 59.5879L394.612 56.5789C394.23 56.3006 393.708 56.3441 393.378 56.6745L390.413 59.6401C390.082 59.9706 390.039 60.501 390.317 60.875L393.326 64.9972C393.543 65.2929 393.569 65.6929 393.386 66.0234C392.83 67.0409 392.378 68.1193 392.047 69.2498C391.943 69.6064 391.648 69.8673 391.282 69.9282L386.239 70.7108C385.778 70.7804 385.431 71.1805 385.431 71.6501V75.8505C385.431 76.3201 385.77 76.7202 386.239 76.7898L391.282 77.5724C391.648 77.6333 391.943 77.8942 392.047 78.2508C392.378 79.3813 392.83 80.4684 393.386 81.4772C393.569 81.799 393.543 82.199 393.326 82.5034L390.317 86.6256C390.039 87.0082 390.082 87.53 390.413 87.8605L393.378 90.826C393.708 91.1565 394.239 91.2 394.612 90.9217L398.734 87.9127C399.03 87.6953 399.43 87.6692 399.76 87.8518C400.777 88.4084 401.855 88.8606 402.986 89.1911C403.342 89.2954 403.603 89.5911 403.664 89.9564L404.446 95.0004C404.516 95.4613 404.916 95.8092 405.386 95.8092H409.585C410.055 95.8092 410.455 95.47 410.524 95.0004L411.307 89.9564C411.368 89.5911 411.629 89.2954 411.985 89.1911C413.115 88.8606 414.202 88.4084 415.211 87.8518C415.533 87.6692 415.933 87.6953 416.237 87.9127L420.358 90.9217C420.741 91.2 421.263 91.1565 421.593 90.826L424.558 87.8605C424.888 87.53 424.932 86.9995 424.654 86.6256L421.645 82.5034C421.428 82.2077 421.402 81.8077 421.584 81.4772C422.141 80.4597 422.593 79.3813 422.923 78.2508C423.028 77.8942 423.323 77.6333 423.688 77.5724L428.732 76.7898C429.192 76.7202 429.54 76.3201 429.54 75.8505ZM407.49 83.0078C402.377 83.0078 398.23 78.8595 398.23 73.746C398.23 68.6324 402.377 64.4841 407.49 64.4841C412.602 64.4841 416.75 68.6324 416.75 73.746C416.75 78.8595 412.602 83.0078 407.49 83.0078Z" fill="url(#paint11_linear_1761_39379)"/>
<path d="M407.481 85.7813C400.847 85.7813 395.456 80.3807 395.456 73.7539C395.456 67.1271 400.855 61.7266 407.481 61.7266C414.107 61.7266 419.506 67.1271 419.506 73.7539C419.506 80.3807 414.107 85.7813 407.481 85.7813ZM407.481 62.2049C401.116 62.2049 395.934 67.388 395.934 73.7539C395.934 80.1198 401.116 85.303 407.481 85.303C413.846 85.303 419.028 80.1198 419.028 73.7539C419.028 67.388 413.846 62.2049 407.481 62.2049Z" fill="url(#paint12_linear_1761_39379)"/>
<path opacity="0.5" d="M144.589 310.511L136.172 309.207C135.555 309.111 135.059 308.668 134.885 308.076C134.337 306.18 133.581 304.38 132.65 302.684C132.355 302.136 132.398 301.475 132.763 300.98L137.789 294.101C138.25 293.466 138.18 292.588 137.624 292.031L132.677 287.083C132.12 286.526 131.242 286.456 130.616 286.917L123.729 291.953C123.234 292.318 122.573 292.353 122.025 292.057C120.33 291.126 118.53 290.37 116.634 289.822C116.043 289.648 115.6 289.152 115.513 288.544L114.2 280.125C114.078 279.343 113.417 278.777 112.626 278.777H105.626C104.844 278.777 104.174 279.343 104.053 280.125L102.748 288.544C102.653 289.152 102.209 289.648 101.618 289.822C99.7226 290.37 97.9227 291.126 96.2272 292.057C95.6794 292.353 95.0186 292.318 94.523 291.953L87.6453 286.917C87.0106 286.456 86.1324 286.526 85.5759 287.083L80.6285 292.031C80.072 292.588 80.0024 293.466 80.4632 294.101L85.4976 300.98C85.8628 301.475 85.8976 302.136 85.602 302.684C84.6716 304.38 83.9151 306.18 83.3674 308.076C83.1935 308.668 82.6979 309.111 82.0892 309.207L73.6725 310.511C72.8899 310.633 72.3248 311.303 72.3248 312.085V315.59H93.6796C93.6796 307.05 100.592 300.136 109.131 300.136C117.669 300.136 124.582 307.05 124.582 315.59H145.928V312.085C145.928 311.303 145.362 310.633 144.589 310.511Z" fill="url(#paint13_linear_1761_39379)"/>
<path d="M109.131 295.512C98.0532 295.512 89.0539 304.513 89.0539 315.592H89.8625C89.8625 304.965 98.5053 296.321 109.131 296.321C119.756 296.321 128.39 304.965 128.39 315.592H129.199C129.199 304.513 120.199 295.512 109.131 295.512Z" fill="url(#paint14_linear_1761_39379)"/>
<path d="M254.38 298.615L257.015 306.912L261.997 310.703L266.544 308.051L265.744 298.137" fill="url(#paint15_linear_1761_39379)"/>
<path d="M209.018 301.832L208.505 309.824C208.505 309.824 214.148 311.694 216.687 311.146L218.965 303.737L209.018 301.832Z" fill="url(#paint16_linear_1761_39379)"/>
<path d="M266.362 303.764C266.362 303.764 265.17 304.564 262.336 304.877C257.954 305.355 255.336 304.877 255.336 304.877C255.336 304.877 242.92 265.012 244.989 251.636C243.85 249.236 242.285 245.244 240.529 240.548C238.877 236.139 237.077 231.104 235.347 226.182C231.077 214.058 227.26 202.57 227.26 202.57L255.371 192.926C255.371 192.926 261.379 234.948 262.771 249.027C264.118 262.672 266.362 303.764 266.362 303.764Z" fill="url(#paint17_linear_1761_39379)"/>
<path style="mix-blend-mode:multiply" opacity="0.4" d="M240.529 240.538C238.877 236.138 237.077 231.102 235.347 226.18L238.068 221.641L240.529 240.538Z" fill="url(#paint18_linear_1761_39379)"/>
<path d="M242.833 203.804L215.731 203.238C215.731 203.238 214.287 244.564 213.966 250.104C213.966 250.104 214.261 253.6 212.418 261.697C210.383 270.646 208.627 304.536 208.627 304.536C208.627 304.536 213.896 306.336 220.052 305.98C220.052 305.98 228.669 274.698 230.399 253.339C234.99 239.764 242.833 203.812 242.833 203.812V203.804Z" fill="url(#paint19_linear_1761_39379)"/>
<path d="M296.838 178.435C296.742 178.722 296.385 178.922 296.264 179.244C296.107 179.626 296.142 180.122 295.933 180.505C295.794 180.766 297.724 181.392 297.559 181.609C297.298 181.966 294.759 181.948 294.377 181.992C292.525 182.218 290.96 181.801 289.473 181.027C288.543 180.54 285.656 179.339 284.317 179.166C279.335 178.513 260.666 177.104 257.258 175.678C249.885 172.582 244.737 158.876 244.737 158.876L260.258 157.633C260.258 157.633 261.814 167.069 262.414 167.956C263.014 168.851 280.691 172.704 286.282 173.278C287.212 173.374 289.056 173.391 290.021 173.139C290.977 172.869 293.029 172.46 294.246 172.887C295.464 173.313 299.95 175.843 300.089 176.148C300.089 176.148 300.089 178.331 296.829 178.444L296.838 178.435Z" fill="url(#paint20_linear_1761_39379)"/>
<path d="M284.065 181.394C284.065 181.394 285.525 177.585 285.864 173.228L263.049 167.158C263.049 167.158 260.519 152.095 255.502 144.172C254.38 142.398 253.337 140.92 252.615 140.537C245.772 136.92 243.955 161.07 243.955 161.07C243.955 161.07 248.024 170.401 253.876 175.95C258.241 180.089 284.065 181.385 284.065 181.385V181.394Z" fill="url(#paint21_linear_1761_39379)"/>
<path d="M256.423 202.961C256.423 202.961 255.25 203.352 225.565 202.891C226 201.213 216.574 162.739 216.653 159.869C216.722 157.617 213.922 144.842 214.905 142.867C216.261 140.128 222.174 138.067 228.13 136.493C232.616 135.31 237.694 134.258 237.694 134.258L245.355 137.075C245.355 137.075 251.311 140.45 252.389 141.563C253.328 145.694 254.084 179.463 254.302 186.933C254.371 189.046 256.406 202.961 256.406 202.961H256.423Z" fill="white"/>
<path d="M239.068 143.658C232.886 142.458 228.139 136.501 228.139 136.501L229.704 135.701C229.704 135.701 230.417 135.022 230.53 133.953C231.077 128.491 228.886 122.891 228.886 122.891C232.721 125.595 237.799 127.213 240.294 128.109C240.364 128.578 240.572 130.596 241.068 132.344C241.381 133.413 241.798 134.37 242.372 134.805C242.52 134.918 245.25 144.858 239.068 143.658Z" fill="url(#paint22_linear_1761_39379)"/>
<g style="mix-blend-mode:multiply">
<path d="M241.068 132.343C236.712 131.43 232.73 126.664 232.73 126.664L240.294 128.099C240.364 128.569 240.572 130.586 241.068 132.334V132.343Z" fill="#E3A39A"/>
</g>
<path d="M244.563 130.535C243.303 130.622 241.764 130.448 239.938 129.952C239.938 129.952 238.199 129.265 235.894 128.178C233.869 127.222 231.069 125.961 229.304 124.187C229.295 124.178 227.878 120.873 227.878 120.873C226.495 115.899 228.53 110.029 229.965 108.133C234.547 102.063 246.546 103.784 248.607 113.098C248.763 113.812 248.78 114.551 248.676 115.281C248.537 116.299 248.346 118.108 248.398 120.186C248.485 123.308 246.572 130.396 244.563 130.526V130.535Z" fill="url(#paint23_linear_1761_39379)"/>
<path d="M243.033 112.819C242.198 112.619 241.79 112.541 240.842 112.211C241.268 112.359 241.459 113.654 239.59 113.567C237.833 113.489 237.633 116.776 234.764 117.89C234.547 119.403 234.616 121.194 235.06 123.09L233.469 122.925C233.269 122.038 232.938 120.107 232.26 119.168C232.26 119.168 232.26 119.168 232.26 119.151C232.173 119.02 231.356 117.829 229.799 118.211C229.173 118.368 228.391 119.029 228.434 120.69C228.478 122.064 228.965 123.247 229.582 123.986C229.852 126.16 230.365 128.334 230.391 129.03C229.878 128.978 223.852 116.455 224.6 110.845C225.174 106.514 227.886 104.923 230.234 104.923C231.417 100.036 237.286 99.8007 240.242 100.505C243.007 101.166 244.702 102.523 247.85 104.079C251.467 105.862 253.006 104.853 253.311 106.549C253.919 109.941 250.389 114.585 243.05 112.819H243.033Z" fill="url(#paint24_linear_1761_39379)"/>
<path d="M279.022 315.589H255.058C254.345 314.346 254.397 309.093 257.023 306.91C257.023 306.91 263.118 309.71 266.553 308.049C266.553 308.049 273.326 309.858 277.022 312.111C278.83 313.206 279.187 314.52 279.03 315.589H279.022Z" fill="url(#paint25_linear_1761_39379)"/>
<path d="M208.601 308.32C208.601 308.32 205.28 310.112 203.114 311.416C200.949 312.712 200.915 315.591 200.915 315.591H218.965C218.965 315.591 218.965 310.468 217.418 308.773C212.662 309.851 208.601 308.32 208.601 308.32Z" fill="url(#paint26_linear_1761_39379)"/>
<path d="M232.408 118.907C232.408 118.907 232.399 118.907 232.399 118.898H232.408V118.907Z" fill="url(#paint27_linear_1761_39379)"/>
<path d="M239.599 147.007C239.599 147.007 234.373 181.019 234.842 187.524C235.312 194.029 241.659 203.795 242.833 203.804C244.329 203.813 247.754 192.994 247.885 188.116C248.015 183.237 242.79 146.633 242.79 146.633L239.581 147.007H239.599Z" fill="url(#paint28_linear_1761_39379)"/>
<path d="M230.547 133.625C230.547 133.625 235.268 138.695 241.059 140.356L238.12 145.792C238.12 145.792 230.956 143.409 228.13 136.504L230.547 133.634V133.625Z" fill="url(#paint29_linear_1761_39379)"/>
<path d="M241.694 133.953C241.694 133.953 243.268 136.693 241.068 140.354L243.268 144.867C243.268 144.867 245.876 139.71 243.042 135.405C242.877 135.162 242.685 134.936 242.477 134.727L241.694 133.953Z" fill="url(#paint30_linear_1761_39379)"/>
<path d="M241.068 140.352L238.129 145.788L239.599 147.005C239.599 147.005 242.085 147.04 242.807 146.631L243.277 144.857L241.077 140.344L241.068 140.352Z" fill="url(#paint31_linear_1761_39379)"/>
<path d="M244.216 136.579C244.216 136.579 245.276 137.136 245.398 142.128C245.624 152.007 241.772 178.505 241.772 178.505C241.772 178.505 234.608 150.946 230.721 141.762C229.182 138.118 228.139 136.492 228.139 136.492C228.139 136.492 220.191 136.553 214.427 140.771C213.835 141.206 213.505 142.31 213.227 143.084L216.174 161.321C216.174 161.321 220.365 182.184 218.174 195.812C217.479 200.134 213.618 212.813 213.618 212.813C213.618 212.813 220.53 215.283 224.608 215.405C238.355 215.814 240.981 211.692 241.964 209.387C242.685 207.682 243.163 203.812 243.163 203.812C243.163 203.812 244.902 208.161 245.842 209.387C249.589 214.257 259.206 212.779 259.206 212.779C259.206 212.779 256.545 199.273 255.771 191.15C254.989 182.949 255.989 158.208 255.989 158.208C255.989 158.208 255.163 146.798 252.641 140.553C251.015 139.206 246.485 136.84 244.233 136.588L244.216 136.579Z" fill="url(#paint32_linear_1761_39379)"/>
<path d="M192.837 167.941C189.411 177.472 210.627 198.031 210.627 198.031C210.627 198.031 214.618 195.587 218.165 191.891L205.81 171.098L216.166 161.323L213.218 143.086C206.845 148.313 195.915 159.383 192.837 167.941Z" fill="url(#paint33_linear_1761_39379)"/>
<path d="M241.465 193.247L226.365 169.821C225.842 169.009 224.761 168.776 223.949 169.299L190.486 190.876C189.675 191.399 189.442 192.481 189.965 193.293L205.065 216.719C205.588 217.53 206.669 217.764 207.481 217.241L240.943 195.663C241.755 195.14 241.988 194.058 241.465 193.247Z" fill="url(#paint34_linear_1761_39379)"/>
<path d="M225.782 199.838C227.704 201.004 229.095 200.404 228.686 199.577C228.278 198.76 226.278 197.09 225.521 196.681C224.756 196.273 222.852 195.594 221.913 195.238C221.583 195.116 221.07 194.89 220.548 194.664C219.313 194.116 218.296 193.194 217.609 192.029C214.809 187.228 207.166 174.062 205.819 171.105C208.575 168.252 211.027 165.922 214.009 162.93C214.505 162.434 204.81 151.938 204.81 151.938C204.81 151.938 192.107 165.591 192.707 169.757C194.167 179.897 213.748 197.769 213.748 197.769C214.114 198.603 216.792 203.917 216.792 203.917C216.792 203.917 218.087 205.561 218.652 206.152C219.113 206.63 221.13 207.961 221.661 207.987C221.913 207.996 222.078 207.891 222.104 207.7C223.009 208.309 223.869 208.822 224.269 208.839C224.808 208.865 225.113 208.561 225.008 208.057C225.626 208.431 226.165 208.718 226.452 208.726C227.33 208.77 227.6 207.935 226.452 206.787C225.304 205.639 223.53 203.978 223.53 203.978C223.704 204.126 223.852 204.256 223.956 204.317C224.6 204.761 226.765 205.943 227.521 206.056C228.399 206.187 228.312 205.491 227.965 204.787C227.608 204.082 226.53 203.76 225.591 202.882C224.652 202.004 223.13 199.717 223.13 199.717C223.13 199.717 224.339 199.543 225.808 199.83L225.782 199.838Z" fill="url(#paint35_linear_1761_39379)"/>
<path d="M192.837 167.939C189.411 177.471 210.627 198.03 210.627 198.03C210.627 198.03 214.618 195.586 218.165 191.89L205.81 171.096L217.609 161.2L214.157 141.023C207.784 146.25 195.915 159.382 192.837 167.939Z" fill="url(#paint36_linear_1761_39379)"/>
<path d="M248.354 149.946C248.354 149.946 250.754 152.712 250.624 153.442C250.38 154.843 241.772 182.837 241.772 182.837C241.772 182.837 239.755 178.062 236.773 173.358C233.773 168.661 225.956 155.825 226.234 154.886C226.521 153.938 229.947 150.39 229.947 150.39C229.947 150.39 225.339 148.781 225.461 147.563C225.565 146.346 226.852 136.71 226.852 136.71C227.66 136.554 228.139 136.501 228.139 136.501C228.139 136.501 229.173 138.136 230.721 141.772C234.608 150.955 241.772 178.515 241.772 178.515C241.772 178.515 245.624 152.016 245.398 142.137C245.285 137.145 243.616 136.449 243.616 136.449C244.016 136.493 244.981 136.649 245.65 136.936C247.12 139.11 250.954 146.181 250.841 147.016C250.737 147.85 248.346 149.955 248.346 149.955L248.354 149.946Z" fill="url(#paint37_linear_1761_39379)"/>
<path d="M307.75 156.852C307.75 156.852 300.176 161.731 295.299 161.462C293.368 161.357 288.377 159.435 283.082 157.166C277.787 154.896 272.17 152.261 268.953 150.721C268.953 150.721 265.023 150.269 263.179 150.304C261.44 150.339 258.98 149.452 257.997 149.104C257.249 147.312 256.415 145.625 255.502 144.182C255.11 143.564 254.719 142.973 254.363 142.46C254.484 142.277 254.771 142.286 255.223 142.355C256.284 142.52 258.841 143.277 258.841 143.277L260.136 143.425C261.432 143.564 262.536 143.608 262.536 143.608C262.536 143.608 260.536 142.721 259.91 142.094C259.284 141.468 259.284 140.616 259.91 140.799C260.536 140.981 261.945 140.868 263.718 141.651C265.492 142.425 265.57 143.242 266.492 144.008C267.414 144.79 268.257 145.329 268.257 145.329C270.666 145.86 276.387 147.121 280.647 147.973C286.195 149.086 295.064 151.6 295.064 151.6L301.376 147.382L307.741 156.844L307.75 156.852Z" fill="url(#paint38_linear_1761_39379)"/>
<path d="M318.992 315.572C318.992 315.572 318.949 315.581 318.931 315.589H297.472C297.29 315.494 297.316 315.415 297.316 315.415C297.316 315.415 296.925 314.972 297.585 313.902C298.237 312.85 302.141 311.858 304.559 311.363C307.263 309.763 310.297 307.641 310.297 307.641C312.975 308.684 317.792 307.806 317.792 307.806C319.757 309.693 320.018 315.241 319.001 315.572H318.992Z" fill="white"/>
<path d="M367.858 308.893C367.154 309.632 365.728 310.519 364.284 311.206C363.484 311.571 360.711 313.18 357.972 314.763C356.885 315.372 355.65 315.693 354.416 315.693H349.929C349.094 315.693 348.79 315.119 348.816 314.763C348.877 313.824 349.668 313.032 350.981 312.789C351.303 312.728 352.633 311.38 355.476 309.51C356.311 308.18 357.441 305.205 357.441 305.205C361.502 304.684 363.85 302.84 363.85 302.84C366.397 303.544 367.502 307.092 367.858 308.893Z" fill="white"/>
<path d="M310.063 304.266C310.141 305.448 310.219 306.579 310.289 307.64C312.375 308.614 315.445 308.527 317.784 307.814C317.923 307.388 318.192 306.37 318.566 304.892C314.419 305.083 311.654 304.657 310.071 304.266H310.063Z" fill="url(#paint39_linear_1761_39379)"/>
<path d="M321.418 135.883L316.001 154.476C315.167 155.12 314.236 155.807 313.28 156.485C311.315 157.894 309.245 159.259 307.758 160.233C306.489 161.068 305.646 161.599 305.646 161.599C300.785 156.842 297.481 149.449 297.481 149.449C297.481 149.449 306.037 142.875 311.593 139.735C317.149 136.596 321.41 135.883 321.41 135.883H321.418Z" fill="url(#paint40_linear_1761_39379)"/>
<path style="mix-blend-mode:multiply" opacity="0.5" d="M313.558 151.939L313.271 156.487C311.306 157.896 309.237 159.261 307.75 160.235L312.106 151.121L313.549 151.939H313.558Z" fill="url(#paint41_linear_1761_39379)"/>
<path d="M326.722 192.759C323.227 187.672 314.184 190.194 311.193 191.307C309.845 191.838 307.445 231.277 306.941 250.47C306.924 251.331 308.184 285.03 309.463 304.502C311.045 304.893 316.279 305.276 320.427 305.085C322.253 290.3 325.531 258.584 322.696 252.105C323.575 249.261 325.705 240.208 327.453 232.494C328.139 229.433 328.774 226.589 329.235 224.415C329.661 222.441 329.965 221.023 330.044 220.536C330.244 219.449 330.383 218.014 330.496 216.379C330.939 209.213 330.365 198.099 326.722 192.759Z" fill="url(#paint42_linear_1761_39379)"/>
<path d="M363.85 302.842C363.771 302.129 363.711 301.216 363.65 300.129C360.059 302.268 356.32 302.52 356.32 302.52C357.024 304.147 357.433 305.121 357.441 305.199C357.441 305.199 361.58 305.382 363.85 302.834V302.842Z" fill="url(#paint43_linear_1761_39379)"/>
<path d="M364.093 299.954C362.728 289.666 357.468 259.698 350.546 253.106C350.19 247.044 351.338 220.12 351.425 217.702C351.729 208.553 347.938 196.839 343.182 192.699L322.262 193.134L328.27 220.337C330.383 228.807 332.556 247.479 335.808 255.845C336.087 256.558 350.546 294.284 354.416 303.242C354.416 303.242 357.633 302.841 360.511 302.024C363.597 301.146 364.093 299.954 364.093 299.954Z" fill="url(#paint44_linear_1761_39379)"/>
<path d="M315.375 139.025C316.358 137.642 320.027 136.172 323.062 135.433C325.583 135.016 329.252 134.633 333.756 135.807C338.991 137.164 343.13 139.103 344.329 140.573C346.555 143.312 348.181 145.017 344.608 168.524C343.843 173.568 343.956 185.439 343.956 188.439C343.956 191.439 345.016 192.883 344.26 193.753C342.582 195.701 328.922 196.857 323.522 196.857C318.723 196.857 310.541 195.579 310.123 194.04C309.793 192.813 311.384 180.36 311.445 166.558C311.549 143.034 314.488 140.042 315.367 139.042L315.375 139.025Z" fill="url(#paint45_linear_1761_39379)"/>
<path d="M324.314 139.762C324.314 139.762 318.01 176.966 317.888 181.392C317.766 185.828 322.401 194.255 323.053 194.255C324.488 194.255 327.174 187.715 328.018 182.062C328.852 176.4 327.148 139.988 327.148 139.988L324.314 139.762Z" fill="url(#paint46_linear_1761_39379)"/>
<path d="M333.756 135.808C333.756 135.808 328.618 139.678 323.062 135.434C323.062 135.434 323.766 134.086 323.888 133.851C324.201 133.312 324.801 132.146 325.183 130.511C325.218 130.398 325.235 130.277 325.27 130.146C325.374 129.659 325.453 129.12 325.505 128.546C325.6 127.554 325.592 126.459 325.418 125.267L325.957 124.832L334.826 117.858L335.834 117.066C335.834 117.066 335.539 118.762 335.139 121.241C334.913 122.65 334.652 124.302 334.391 126.041C333.878 129.581 333.774 135.799 333.774 135.799L333.756 135.808Z" fill="url(#paint47_linear_1761_39379)"/>
<path style="mix-blend-mode:multiply" opacity="0.5" d="M331.765 126.247C330.496 128.099 327.635 131.778 323.888 133.839C324.201 133.3 324.801 132.134 325.183 130.499C324.592 130.673 324.061 130.769 323.548 130.813C323.575 130.404 323.592 129.986 323.583 129.543L324.175 129.186L325.505 128.534L332.504 125.125C332.504 125.125 332.252 125.56 331.765 126.247Z" fill="url(#paint48_linear_1761_39379)"/>
<path d="M317.775 111.77C317.775 111.77 316.584 115.326 319.34 117.727L320.305 111.961L317.775 111.77Z" fill="url(#paint49_linear_1761_39379)"/>
<path d="M333.209 124.456C332.765 125.082 332.278 125.682 331.757 126.247C330.904 127.186 329.931 128.03 328.878 128.743C327.522 129.665 326.287 130.204 325.174 130.5C324.583 130.674 324.053 130.769 323.54 130.813C321.183 131.013 319.81 130.108 319.81 130.108C317.601 126.83 317.679 121.507 318.184 117.472C318.384 115.837 318.653 114.42 318.862 113.42C319.053 112.515 319.21 111.985 319.21 111.985C319.218 111.941 319.218 111.915 319.227 111.88C320.184 106.671 327.148 106.488 331.939 109.419C332.226 109.593 332.487 109.776 332.748 109.976C334.078 110.932 335.182 112.159 335.834 113.602C336.956 116.063 336.269 118.864 335.121 121.246C335.061 121.377 335 121.499 334.93 121.629C334.391 122.69 333.774 123.655 333.2 124.464L333.209 124.456Z" fill="url(#paint50_linear_1761_39379)"/>
<path d="M333.626 107.143C333.469 105.169 332.296 103.856 331.096 103.238C326.287 100.751 322.714 106.282 317.34 104.256C314.454 103.16 314.714 111.335 318.297 113.178C322.123 115.144 325.409 114.709 327.879 113.648C327.818 114.535 327.879 115.518 328.313 116.222C328.687 116.822 329.765 117.518 330.374 117.875C330.27 118.779 330.2 119.605 330.191 120.24L331.139 120.753C331.33 120.431 331.539 119.997 331.791 119.431C331.791 119.431 332.67 117.231 334.278 117.431C335.869 117.631 334.591 123.553 334.374 126.049C334.374 126.049 338.034 123.44 339.382 115.64C340.591 108.7 336.565 105.412 333.626 107.152V107.143Z" fill="url(#paint51_linear_1761_39379)"/>
<path d="M340.06 165.611C340.06 165.611 332.348 177.682 329.539 178.743C323.948 180.873 308.298 180.899 302.559 180.83C301.515 181.091 299.15 182.23 297.82 182.212C297.316 182.204 296.603 182.065 295.916 181.891C295.22 181.717 294.559 181.508 294.133 181.369C293.055 181.204 291.742 180.317 291.534 180.134C291.325 179.96 291.221 179.525 291.221 179.525C291.221 179.525 290.777 179.299 290.568 179.151C290.342 179.003 290.369 178.638 290.369 178.638C289.421 178.334 289.395 177.829 289.542 177.577C289.682 177.316 290.499 177.264 290.499 177.264C290.499 177.264 290.551 176.908 291.038 176.768C291.36 176.664 294.342 176.542 294.368 176.534C294.907 176.821 296.559 177.638 297.533 177.568C298.716 177.499 299.159 176.96 298.724 176.56C298.359 176.212 297.481 175.777 297.238 175.655C297.194 175.638 297.168 175.62 297.168 175.62C297.168 175.62 295.046 174.594 294.246 173.881C293.438 173.177 293.846 172.742 294.099 172.62C294.351 172.507 296.89 172.942 297.437 173.142C298.455 173.525 302.498 175.594 302.498 175.594L324.409 169.672L328.618 161.602L340.078 165.611H340.06Z" fill="url(#paint52_linear_1761_39379)"/>
<path d="M338.73 170.635C338.73 170.635 336.608 170.887 330.644 167.209C328.487 165.878 326.209 163.556 326.209 163.556C328.279 159.33 329.887 156.069 335.208 145.389C337.556 140.667 342.886 140.562 342.886 140.562C342.886 140.562 347.103 142.163 347.103 150.555C347.103 157.243 342.486 164.304 338.73 170.627V170.635Z" fill="url(#paint53_linear_1761_39379)"/>
<path style="mix-blend-mode:multiply" opacity="0.5" d="M329.235 224.414C328.774 226.588 328.148 229.424 327.453 232.493L326.435 212.039L329.235 224.414Z" fill="url(#paint54_linear_1761_39379)"/>
<path d="M333.809 133.84C333.809 133.84 331.148 135.788 325.992 135.64L327.583 139.136C327.583 139.136 332.209 138.91 334.495 136.005L333.809 133.849V133.84Z" fill="url(#paint55_linear_1761_39379)"/>
<path d="M323.67 134.258C323.67 134.258 324.314 135.345 325.992 135.641L324.183 138.528C324.183 138.528 323.053 137.771 322.635 135.536L323.67 134.258Z" fill="url(#paint56_linear_1761_39379)"/>
<path d="M325.992 135.641L324.183 138.528L324.314 139.763L327.157 139.989L327.583 139.137L325.992 135.641Z" fill="url(#paint57_linear_1761_39379)"/>
<path d="M409.533 265.734H396.056V315.592H409.533V265.734Z" fill="url(#paint58_linear_1761_39379)"/>
<path d="M432.923 254.297H419.445V315.599H432.923V254.297Z" fill="url(#paint59_linear_1761_39379)"/>
<path d="M456.321 242.852H442.843V315.59H456.321V242.852Z" fill="url(#paint60_linear_1761_39379)"/>
<path d="M479.71 231.418H466.233V315.601H479.71V231.418Z" fill="url(#paint61_linear_1761_39379)"/>
<path d="M478.701 200.996L458.955 207.684L464.598 210.641C457.625 217.954 435.122 239.183 399.977 249.601C399.977 249.601 440.713 245.992 469.441 216.276L471.276 222.616L478.71 200.996H478.701Z" fill="white"/>
<path d="M458.181 133.996H420.48C419.198 133.996 418.158 135.036 418.158 136.318V158.555C418.158 159.838 419.198 160.877 420.48 160.877H458.181C459.464 160.877 460.503 159.838 460.503 158.555V136.318C460.503 135.036 459.464 133.996 458.181 133.996Z" fill="url(#paint62_linear_1761_39379)"/>
<path d="M442.209 133.049L439.348 137.38C438.861 138.11 438.044 138.554 437.157 138.554H417.854C416.402 138.554 415.228 139.728 415.228 141.18V167.374C415.228 168.827 416.402 170.001 417.854 170.001H460.825C462.277 170.001 463.451 168.827 463.451 167.374V134.501C463.451 133.049 462.277 131.875 460.825 131.875H444.4C443.522 131.875 442.696 132.319 442.209 133.049Z" fill="url(#paint63_linear_1761_39379)"/>
<path d="M438.183 174.601H416.376C415.741 174.601 415.228 174.087 415.228 173.453C415.228 172.818 415.741 172.305 416.376 172.305H438.183C438.818 172.305 439.331 172.818 439.331 173.453C439.331 174.087 438.818 174.601 438.183 174.601Z" fill="url(#paint64_linear_1761_39379)"/>
<path d="M443.07 178.991H416.376C415.741 178.991 415.228 178.478 415.228 177.843C415.228 177.208 415.741 176.695 416.376 176.695H443.07C443.704 176.695 444.217 177.208 444.217 177.843C444.217 178.478 443.704 178.991 443.07 178.991Z" fill="url(#paint65_linear_1761_39379)"/>
<path d="M450.747 178.991H447.165C446.53 178.991 446.017 178.478 446.017 177.843C446.017 177.208 446.53 176.695 447.165 176.695H450.747C451.382 176.695 451.895 177.208 451.895 177.843C451.895 178.478 451.382 178.991 450.747 178.991Z" fill="url(#paint66_linear_1761_39379)"/>
<path d="M425.001 183.394H416.376C415.741 183.394 415.228 182.88 415.228 182.246C415.228 181.611 415.741 181.098 416.376 181.098H425.001C425.636 181.098 426.149 181.611 426.149 182.246C426.149 182.88 425.636 183.394 425.001 183.394Z" fill="url(#paint67_linear_1761_39379)"/>
<path d="M462.285 174.601H442.191C441.557 174.601 441.044 174.087 441.044 173.453C441.044 172.818 441.557 172.305 442.191 172.305H462.285C462.92 172.305 463.433 172.818 463.433 173.453C463.433 174.087 462.92 174.601 462.285 174.601Z" fill="url(#paint68_linear_1761_39379)"/>
<path d="M161.518 131.864C161.518 133.96 161.187 135.978 160.57 137.874C158.048 145.675 150.719 151.327 142.076 151.327C140.024 151.327 138.041 151.006 136.189 150.414C132.581 149.266 129.433 147.11 127.068 144.257C124.295 140.891 122.625 136.569 122.625 131.864C122.625 121.124 131.338 112.41 142.084 112.41C152.831 112.41 161.535 121.124 161.535 131.864H161.518Z" fill="url(#paint69_linear_1761_39379)"/>
<path d="M163.439 131.274C163.439 133.578 163.083 135.796 162.396 137.874L142.076 131.274V109.906C153.875 109.906 163.439 119.472 163.439 131.274Z" fill="url(#paint70_linear_1761_39379)"/>
<path d="M142.067 131.273L135.12 153.841C130.859 152.493 127.155 149.945 124.364 146.579L142.067 131.273Z" fill="url(#paint71_linear_1761_39379)"/>
<path d="M132.537 240.503C144.12 240.503 153.51 231.112 153.51 219.527C153.51 207.942 144.12 198.551 132.537 198.551C120.955 198.551 111.565 207.942 111.565 219.527C111.565 231.112 120.955 240.503 132.537 240.503Z" fill="url(#paint72_linear_1761_39379)"/>
<g style="mix-blend-mode:screen">
<path d="M132.537 240.503C144.12 240.503 153.51 231.112 153.51 219.527C153.51 207.942 144.12 198.551 132.537 198.551C120.955 198.551 111.565 207.942 111.565 219.527C111.565 231.112 120.955 240.503 132.537 240.503Z" fill="#F0C97C"/>
</g>
<path d="M132.537 239.763C143.712 239.763 152.771 230.703 152.771 219.526C152.771 208.349 143.712 199.289 132.537 199.289C121.363 199.289 112.304 208.349 112.304 219.526C112.304 230.703 121.363 239.763 132.537 239.763Z" fill="url(#paint73_linear_1761_39379)"/>
<g style="mix-blend-mode:multiply">
<path d="M132.537 236.634C141.983 236.634 149.64 228.976 149.64 219.528C149.64 210.081 141.983 202.422 132.537 202.422C123.092 202.422 115.434 210.081 115.434 219.528C115.434 228.976 123.092 236.634 132.537 236.634Z" fill="#F0C97C"/>
</g>
<path d="M132.537 235.923C141.589 235.923 148.927 228.583 148.927 219.53C148.927 210.476 141.589 203.137 132.537 203.137C123.485 203.137 116.147 210.476 116.147 219.53C116.147 228.583 123.485 235.923 132.537 235.923Z" fill="url(#paint74_linear_1761_39379)"/>
<g style="mix-blend-mode:screen">
<path d="M133.268 218.265C130.868 217.274 130.181 216.665 130.181 215.56C130.181 214.673 130.825 213.63 132.642 213.63C134.329 213.63 135.381 214.23 135.833 214.491L136.215 214.708L137.154 212.23L136.876 212.064C135.911 211.499 134.833 211.177 133.581 211.09V208.473H131.164V211.238C128.694 211.76 127.12 213.543 127.12 215.865C127.12 218.639 129.364 219.9 131.772 220.848C133.755 221.657 134.563 222.474 134.563 223.692C134.563 225.014 133.407 225.944 131.755 225.944C130.477 225.944 129.146 225.544 128.112 224.857L127.712 224.587L126.807 227.101L127.042 227.266C127.99 227.944 129.503 228.414 130.981 228.501V231.223H133.424V228.37C135.972 227.823 137.659 225.901 137.659 223.509C137.659 221.118 136.346 219.509 133.276 218.256L133.268 218.265Z" fill="#F0C97C"/>
</g>
<path d="M426.783 120.287C431.83 118.178 434.213 112.377 432.105 107.329C429.996 102.281 424.196 99.8979 419.149 102.006C414.102 104.115 411.72 109.916 413.828 114.964C415.936 120.012 421.736 122.395 426.783 120.287Z" fill="url(#paint75_linear_1761_39379)"/>
<g style="mix-blend-mode:screen">
<path d="M426.783 120.287C431.83 118.178 434.213 112.377 432.105 107.329C429.996 102.281 424.196 99.8979 419.149 102.006C414.102 104.115 411.72 109.916 413.828 114.964C415.936 120.012 421.736 122.395 426.783 120.287Z" fill="#F0C97C"/>
</g>
<path d="M432.277 113.368C433.484 108.229 430.297 103.085 425.16 101.878C420.022 100.671 414.879 103.858 413.672 108.996C412.465 114.135 415.651 119.279 420.789 120.487C425.927 121.694 431.07 118.507 432.277 113.368Z" fill="url(#paint76_linear_1761_39379)"/>
<g style="mix-blend-mode:multiply">
<path d="M426.751 118.333C430.694 116.246 432.2 111.358 430.114 107.414C428.028 103.469 423.14 101.964 419.196 104.05C415.253 106.137 413.748 111.025 415.834 114.969C417.92 118.914 422.808 120.419 426.751 118.333Z" fill="#F0C97C"/>
</g>
<path d="M430.497 112.946C431.475 108.784 428.895 104.618 424.735 103.64C420.574 102.661 416.408 105.242 415.43 109.403C414.452 113.564 417.032 117.731 421.192 118.709C425.353 119.687 429.519 117.107 430.497 112.946Z" fill="url(#paint77_linear_1761_39379)"/>
<g style="mix-blend-mode:screen">
<path d="M423.315 110.588C422.184 110.118 421.854 109.831 421.854 109.309C421.854 108.892 422.158 108.396 423.019 108.396C423.81 108.396 424.314 108.683 424.523 108.805L424.706 108.909L425.149 107.735L425.019 107.657C424.567 107.387 424.054 107.239 423.462 107.196V105.961H422.323V107.265C421.158 107.509 420.41 108.353 420.41 109.448C420.41 110.761 421.471 111.353 422.61 111.805C423.549 112.188 423.932 112.57 423.932 113.144C423.932 113.77 423.384 114.205 422.602 114.205C421.993 114.205 421.367 114.014 420.88 113.692L420.689 113.562L420.263 114.753L420.376 114.831C420.819 115.153 421.541 115.371 422.236 115.414V116.701H423.393V115.353C424.593 115.092 425.393 114.188 425.393 113.057C425.393 111.927 424.775 111.17 423.323 110.579L423.315 110.588Z" fill="#F0C97C"/>
</g>
<path d="M188.613 52.593C195.751 49.6853 199.181 41.5405 196.273 34.4011C193.366 27.2618 185.223 23.8313 178.085 26.739C170.947 29.6467 167.517 37.7915 170.424 44.9309C173.331 52.0703 181.475 55.5007 188.613 52.593Z" fill="url(#paint78_linear_1761_39379)"/>
<g style="mix-blend-mode:screen">
<path d="M188.613 52.593C195.751 49.6853 199.181 41.5405 196.273 34.4011C193.366 27.2618 185.223 23.8313 178.085 26.739C170.947 29.6467 167.517 37.7915 170.424 44.9309C173.331 52.0703 181.475 55.5007 188.613 52.593Z" fill="#F0C97C"/>
</g>
<path d="M196.458 42.7391C198.155 35.4955 193.66 28.2472 186.418 26.5496C179.176 24.852 171.929 29.3478 170.232 36.5914C168.534 43.835 173.029 51.0832 180.272 52.7809C187.514 54.4785 194.761 49.9826 196.458 42.7391Z" fill="url(#paint79_linear_1761_39379)"/>
<g style="mix-blend-mode:multiply">
<path d="M187.744 50.1729C193.544 47.7477 196.28 41.0794 193.855 35.2789C191.43 29.4783 184.763 26.7421 178.964 29.1673C173.164 31.5926 170.428 38.2609 172.853 44.0614C175.278 49.8619 181.945 52.5981 187.744 50.1729Z" fill="#F0C97C"/>
</g>
<path d="M193.975 42.1597C195.353 36.2915 191.713 30.4176 185.846 29.0402C179.978 27.6627 174.106 31.3032 172.728 37.1715C171.351 43.0397 174.991 48.9135 180.858 50.291C186.725 51.6685 192.598 48.028 193.975 42.1597Z" fill="url(#paint80_linear_1761_39379)"/>
<g style="mix-blend-mode:screen">
<path d="M183.838 38.8284C182.247 38.1674 181.786 37.7674 181.786 37.0282C181.786 36.4368 182.212 35.7498 183.42 35.7498C184.542 35.7498 185.238 36.1498 185.542 36.3238L185.794 36.4716L186.42 34.8193L186.238 34.7149C185.594 34.3409 184.881 34.1235 184.046 34.0713V32.332H182.438V34.1757C180.794 34.5236 179.742 35.715 179.742 37.2543C179.742 39.098 181.229 39.9415 182.838 40.5677C184.159 41.1069 184.699 41.6548 184.699 42.4549C184.699 43.3332 183.933 43.9507 182.829 43.9507C181.977 43.9507 181.09 43.6898 180.403 43.2289L180.134 43.0549L179.534 44.7334L179.69 44.8464C180.316 45.2986 181.325 45.6117 182.316 45.6639V47.4728H183.942V45.5769C185.638 45.2117 186.759 43.9333 186.759 42.3418C186.759 40.7503 185.89 39.6806 183.838 38.8458V38.8284Z" fill="#F0C97C"/>
</g>
<path d="M406.383 233.248C414.871 229.708 418.881 219.956 415.342 211.467C411.802 202.978 402.052 198.967 393.564 202.507C385.077 206.048 381.066 215.8 384.606 224.289C388.146 232.778 397.896 236.789 406.383 233.248Z" fill="url(#paint81_linear_1761_39379)"/>
<g style="mix-blend-mode:screen">
<path d="M406.383 233.248C414.871 229.708 418.881 219.956 415.342 211.467C411.802 202.978 402.052 198.967 393.564 202.507C385.077 206.048 381.066 215.8 384.606 224.289C388.146 232.778 397.896 236.789 406.383 233.248Z" fill="#F0C97C"/>
</g>
<path d="M416.037 217.884C416.037 226.763 408.846 233.955 399.969 233.955C391.091 233.955 383.9 226.763 383.9 217.884C383.9 209.005 391.091 201.812 399.969 201.812C408.846 201.812 416.037 209.005 416.037 217.884Z" fill="url(#paint82_linear_1761_39379)"/>
<g style="mix-blend-mode:multiply">
<path d="M405.031 230.468C411.987 227.673 415.36 219.767 412.565 212.81C409.77 205.853 401.866 202.479 394.91 205.275C387.955 208.07 384.582 215.976 387.376 222.933C390.171 229.889 398.075 233.263 405.031 230.468Z" fill="#F0C97C"/>
</g>
<path d="M412.643 220.865C414.289 213.866 409.951 206.857 402.954 205.21C395.956 203.564 388.949 207.903 387.302 214.901C385.656 221.9 389.994 228.909 396.991 230.556C403.989 232.203 410.996 227.864 412.643 220.865Z" fill="url(#paint83_linear_1761_39379)"/>
<g style="mix-blend-mode:screen">
<path d="M400.542 216.883C398.638 216.092 398.09 215.614 398.09 214.735C398.09 214.031 398.603 213.205 400.047 213.205C401.386 213.205 402.221 213.683 402.577 213.892L402.881 214.066L403.629 212.1L403.412 211.97C402.647 211.526 401.786 211.265 400.795 211.196V209.117H398.882V211.317C396.925 211.735 395.673 213.152 395.673 214.987C395.673 217.188 397.447 218.196 399.369 218.944C400.942 219.579 401.586 220.24 401.586 221.197C401.586 222.249 400.664 222.98 399.351 222.98C398.334 222.98 397.282 222.666 396.456 222.119L396.134 221.91L395.421 223.91L395.604 224.041C396.351 224.58 397.551 224.945 398.734 225.023V227.18H400.673V224.919C402.69 224.484 404.029 222.962 404.029 221.058C404.029 219.153 402.986 217.883 400.551 216.892L400.542 216.883Z" fill="#F0C97C"/>
</g>
<path d="M196.724 307.562H131.155V315.607H196.724V307.562Z" fill="url(#paint84_linear_1761_39379)"/>
<g style="mix-blend-mode:multiply">
<path d="M187.359 307.562H185.803V315.607H187.359V307.562Z" fill="url(#paint85_linear_1761_39379)"/>
<path d="M192.394 307.562H190.837V315.607H192.394V307.562Z" fill="url(#paint86_linear_1761_39379)"/>
<path d="M137.041 307.562H135.485V315.607H137.041V307.562Z" fill="url(#paint87_linear_1761_39379)"/>
<path d="M142.067 307.562H140.511V315.607H142.067V307.562Z" fill="url(#paint88_linear_1761_39379)"/>
<path d="M147.101 307.562H145.545V315.607H147.101V307.562Z" fill="url(#paint89_linear_1761_39379)"/>
<path d="M152.136 307.562H150.579V315.607H152.136V307.562Z" fill="url(#paint90_linear_1761_39379)"/>
<path d="M157.17 307.562H155.614V315.607H157.17V307.562Z" fill="url(#paint91_linear_1761_39379)"/>
<path d="M162.196 307.562H160.64V315.607H162.196V307.562Z" fill="url(#paint92_linear_1761_39379)"/>
<path d="M167.23 307.562H165.674V315.607H167.23V307.562Z" fill="url(#paint93_linear_1761_39379)"/>
<path d="M172.265 307.562H170.708V315.607H172.265V307.562Z" fill="url(#paint94_linear_1761_39379)"/>
<path d="M177.299 307.562H175.743V315.607H177.299V307.562Z" fill="url(#paint95_linear_1761_39379)"/>
<path d="M182.325 307.562H180.768V315.607H182.325V307.562Z" fill="url(#paint96_linear_1761_39379)"/>
</g>
<path d="M203.488 297.816H137.92V305.861H203.488V297.816Z" fill="url(#paint97_linear_1761_39379)"/>
<g style="mix-blend-mode:multiply">
<path d="M194.133 297.816H192.576V305.861H194.133V297.816Z" fill="url(#paint98_linear_1761_39379)"/>
<path d="M199.158 297.816H197.602V305.861H199.158V297.816Z" fill="url(#paint99_linear_1761_39379)"/>
<path d="M143.806 297.816H142.25V305.861H143.806V297.816Z" fill="url(#paint100_linear_1761_39379)"/>
<path d="M148.84 297.816H147.284V305.861H148.84V297.816Z" fill="url(#paint101_linear_1761_39379)"/>
<path d="M153.866 297.816H152.31V305.861H153.866V297.816Z" fill="url(#paint102_linear_1761_39379)"/>
<path d="M158.901 297.816H157.344V305.861H158.901V297.816Z" fill="url(#paint103_linear_1761_39379)"/>
<path d="M163.935 297.816H162.379V305.861H163.935V297.816Z" fill="url(#paint104_linear_1761_39379)"/>
<path d="M168.969 297.816H167.413V305.861H168.969V297.816Z" fill="url(#paint105_linear_1761_39379)"/>
<path d="M174.004 297.816H172.447V305.861H174.004V297.816Z" fill="url(#paint106_linear_1761_39379)"/>
<path d="M179.029 297.816H177.473V305.861H179.029V297.816Z" fill="url(#paint107_linear_1761_39379)"/>
<path d="M184.064 297.816H182.507V305.861H184.064V297.816Z" fill="url(#paint108_linear_1761_39379)"/>
<path d="M189.098 297.816H187.542V305.861H189.098V297.816Z" fill="url(#paint109_linear_1761_39379)"/>
</g>
<path d="M193.002 288.074H127.433V296.119H193.002V288.074Z" fill="url(#paint110_linear_1761_39379)"/>
<g style="mix-blend-mode:multiply">
<path d="M183.638 288.074H182.081V296.119H183.638V288.074Z" fill="url(#paint111_linear_1761_39379)"/>
<path d="M188.672 288.074H187.116V296.119H188.672V288.074Z" fill="url(#paint112_linear_1761_39379)"/>
<path d="M133.32 288.074H131.764V296.119H133.32V288.074Z" fill="url(#paint113_linear_1761_39379)"/>
<path d="M138.346 288.074H136.789V296.119H138.346V288.074Z" fill="url(#paint114_linear_1761_39379)"/>
<path d="M143.38 288.074H141.824V296.119H143.38V288.074Z" fill="url(#paint115_linear_1761_39379)"/>
<path d="M148.414 288.074H146.858V296.119H148.414V288.074Z" fill="url(#paint116_linear_1761_39379)"/>
<path d="M153.449 288.074H151.892V296.119H153.449V288.074Z" fill="url(#paint117_linear_1761_39379)"/>
<path d="M158.474 288.074H156.918V296.119H158.474V288.074Z" fill="url(#paint118_linear_1761_39379)"/>
<path d="M163.509 288.074H161.952V296.119H163.509V288.074Z" fill="url(#paint119_linear_1761_39379)"/>
<path d="M168.543 288.074H166.987V296.119H168.543V288.074Z" fill="url(#paint120_linear_1761_39379)"/>
<path d="M173.578 288.074H172.021V296.119H173.578V288.074Z" fill="url(#paint121_linear_1761_39379)"/>
<path d="M178.603 288.074H177.047V296.119H178.603V288.074Z" fill="url(#paint122_linear_1761_39379)"/>
</g>
<path d="M194.202 278.336H128.633V286.38H194.202V278.336Z" fill="url(#paint123_linear_1761_39379)"/>
<g style="mix-blend-mode:multiply">
<path d="M184.846 278.336H183.29V286.38H184.846V278.336Z" fill="url(#paint124_linear_1761_39379)"/>
<path d="M189.872 278.336H188.316V286.38H189.872V278.336Z" fill="url(#paint125_linear_1761_39379)"/>
<path d="M134.52 278.336H132.963V286.38H134.52V278.336Z" fill="url(#paint126_linear_1761_39379)"/>
<path d="M139.554 278.336H137.998V286.38H139.554V278.336Z" fill="url(#paint127_linear_1761_39379)"/>
<path d="M144.589 278.336H143.032V286.38H144.589V278.336Z" fill="url(#paint128_linear_1761_39379)"/>
<path d="M149.614 278.336H148.058V286.38H149.614V278.336Z" fill="url(#paint129_linear_1761_39379)"/>
<path d="M154.649 278.336H153.092V286.38H154.649V278.336Z" fill="url(#paint130_linear_1761_39379)"/>
<path d="M159.683 278.336H158.127V286.38H159.683V278.336Z" fill="url(#paint131_linear_1761_39379)"/>
<path d="M164.717 278.336H163.161V286.38H164.717V278.336Z" fill="url(#paint132_linear_1761_39379)"/>
<path d="M169.743 278.336H168.187V286.38H169.743V278.336Z" fill="url(#paint133_linear_1761_39379)"/>
<path d="M174.778 278.336H173.221V286.38H174.778V278.336Z" fill="url(#paint134_linear_1761_39379)"/>
<path d="M179.812 278.336H178.256V286.38H179.812V278.336Z" fill="url(#paint135_linear_1761_39379)"/>
</g>
<path d="M76.2114 107.507C76.2114 108.464 75.4375 109.229 74.4898 109.229C73.542 109.229 72.7682 108.455 72.7682 107.507C72.7682 106.559 73.542 105.785 74.4898 105.785C75.4375 105.785 76.2114 106.559 76.2114 107.507Z" fill="url(#paint136_linear_1761_39379)"/>
<path opacity="0.3" d="M149.136 31.0106C151.043 31.0106 152.588 29.4648 152.588 27.558C152.588 25.6512 151.043 24.1055 149.136 24.1055C147.23 24.1055 145.684 25.6512 145.684 27.558C145.684 29.4648 147.23 31.0106 149.136 31.0106Z" fill="url(#paint137_linear_1761_39379)"/>
<path opacity="0.3" d="M17.6682 249.097C18.739 249.097 19.6072 248.229 19.6072 247.158C19.6072 246.087 18.739 245.219 17.6682 245.219C16.5973 245.219 15.7292 246.087 15.7292 247.158C15.7292 248.229 16.5973 249.097 17.6682 249.097Z" fill="url(#paint138_linear_1761_39379)"/>
<path d="M227.087 8.65352C227.087 9.65363 226.269 10.4711 225.269 10.4711C224.269 10.4711 223.452 9.65363 223.452 8.65352C223.452 7.65342 224.269 6.83594 225.269 6.83594C226.269 6.83594 227.087 7.65342 227.087 8.65352Z" fill="url(#paint139_linear_1761_39379)"/>
<path opacity="0.3" d="M349.52 26.3065C349.903 28.3328 348.164 30.0721 346.138 29.6895C345.016 29.472 344.095 28.5589 343.886 27.4283C343.503 25.402 345.242 23.6627 347.268 24.0454C348.39 24.2541 349.312 25.1759 349.529 26.2978L349.52 26.3065Z" fill="url(#paint140_linear_1761_39379)"/>
<path opacity="0.3" d="M376.744 286.577C376.744 288.16 375.457 289.447 373.875 289.447C372.292 289.447 371.006 288.16 371.006 286.577C371.006 284.994 372.292 283.707 373.875 283.707C375.457 283.707 376.744 284.994 376.744 286.577Z" fill="url(#paint141_linear_1761_39379)"/>
<path opacity="0.3" d="M388.004 306.825C388.897 306.825 389.622 306.101 389.622 305.207C389.622 304.314 388.897 303.59 388.004 303.59C387.111 303.59 386.387 304.314 386.387 305.207C386.387 306.101 387.111 306.825 388.004 306.825Z" fill="url(#paint142_linear_1761_39379)"/>
<path d="M447.026 65.7216C448.169 65.7216 449.095 64.7949 449.095 63.6518C449.095 62.5087 448.169 61.582 447.026 61.582C445.883 61.582 444.956 62.5087 444.956 63.6518C444.956 64.7949 445.883 65.7216 447.026 65.7216Z" fill="url(#paint143_linear_1761_39379)"/>
<path opacity="0.3" d="M144.963 257.134C144.963 258.516 143.841 259.638 142.458 259.638C141.076 259.638 139.954 258.516 139.954 257.134C139.954 255.751 141.076 254.629 142.458 254.629C143.841 254.629 144.963 255.751 144.963 257.134Z" fill="url(#paint144_linear_1761_39379)"/>
<path d="M64.0211 291.969C64.0211 293.352 62.8994 294.474 61.5169 294.474C60.1344 294.474 59.0128 293.352 59.0128 291.969C59.0128 290.587 60.1344 289.465 61.5169 289.465C62.8994 289.465 64.0211 290.587 64.0211 291.969Z" fill="url(#paint145_linear_1761_39379)"/>
<path opacity="0.3" d="M460.433 119.153C460.433 120.536 459.312 121.658 457.929 121.658C456.547 121.658 455.425 120.536 455.425 119.153C455.425 117.77 456.547 116.648 457.929 116.648C459.312 116.648 460.433 117.77 460.433 119.153Z" fill="url(#paint146_linear_1761_39379)"/>
<path d="M524.315 275.083C524.315 276.466 523.194 277.587 521.811 277.587C520.429 277.587 519.307 276.466 519.307 275.083C519.307 273.7 520.429 272.578 521.811 272.578C523.194 272.578 524.315 273.7 524.315 275.083Z" fill="url(#paint147_linear_1761_39379)"/>
<path d="M386.065 241.913C386.065 242.67 385.448 243.287 384.691 243.287C383.935 243.287 383.318 242.67 383.318 241.913C383.318 241.157 383.935 240.539 384.691 240.539C385.448 240.539 386.065 241.157 386.065 241.913Z" fill="url(#paint148_linear_1761_39379)"/>
<path opacity="0.3" d="M163.439 66.3558C164.851 66.3558 165.996 65.2111 165.996 63.799C165.996 62.3869 164.851 61.2422 163.439 61.2422C162.028 61.2422 160.883 62.3869 160.883 63.799C160.883 65.2111 162.028 66.3558 163.439 66.3558Z" fill="url(#paint149_linear_1761_39379)"/>
<path d="M398.343 41.1869C398.343 43.0915 396.795 44.6395 394.891 44.6395C392.986 44.6395 391.439 43.0915 391.439 41.1869C391.439 39.2824 392.986 37.7344 394.891 37.7344C396.795 37.7344 398.343 39.2824 398.343 41.1869Z" fill="url(#paint150_linear_1761_39379)"/>
<path opacity="0.3" d="M533.819 214.346C535.725 214.346 537.271 212.801 537.271 210.894C537.271 208.987 535.725 207.441 533.819 207.441C531.913 207.441 530.367 208.987 530.367 210.894C530.367 212.801 531.913 214.346 533.819 214.346Z" fill="url(#paint151_linear_1761_39379)"/>
<path opacity="0.3" d="M500.039 301.469C500.855 301.469 501.517 300.807 501.517 299.99C501.517 299.174 500.855 298.512 500.039 298.512C499.223 298.512 498.561 299.174 498.561 299.99C498.561 300.807 499.223 301.469 500.039 301.469Z" fill="url(#paint152_linear_1761_39379)"/>
<path d="M451.165 193.933C451.165 195.838 449.617 197.386 447.713 197.386C445.808 197.386 444.261 195.838 444.261 193.933C444.261 192.028 445.808 190.48 447.713 190.48C449.617 190.48 451.165 192.028 451.165 193.933Z" fill="url(#paint153_linear_1761_39379)"/>
<path d="M89.9929 230.989C91.203 230.989 92.184 230.007 92.184 228.797C92.184 227.587 91.203 226.605 89.9929 226.605C88.7828 226.605 87.8018 227.587 87.8018 228.797C87.8018 230.007 88.7828 230.989 89.9929 230.989Z" fill="url(#paint154_linear_1761_39379)"/>
<path d="M492.561 115.43H490.857V113.725C490.857 113.047 490.309 112.508 489.64 112.508C488.97 112.508 488.422 113.056 488.422 113.725V115.43H486.718C486.04 115.43 485.501 115.978 485.501 116.647C485.501 117.317 486.049 117.865 486.718 117.865H488.422V119.569C488.422 120.248 488.97 120.787 489.64 120.787C490.309 120.787 490.857 120.239 490.857 119.569V117.865H492.561C493.239 117.865 493.779 117.317 493.779 116.647C493.779 115.978 493.231 115.43 492.561 115.43Z" fill="white"/>
<path d="M491.787 255.61H490.083V253.905C490.083 253.227 489.535 252.688 488.866 252.688C488.196 252.688 487.649 253.235 487.649 253.905V255.61H485.944C485.266 255.61 484.727 256.157 484.727 256.827C484.727 257.497 485.275 258.045 485.944 258.045H487.649V259.749C487.649 260.427 488.196 260.967 488.866 260.967C489.535 260.967 490.083 260.419 490.083 259.749V258.045H491.787C492.466 258.045 493.005 257.497 493.005 256.827C493.005 256.157 492.457 255.61 491.787 255.61Z" fill="white"/>
<path opacity="0.3" d="M154.944 87.4885H153.24V85.7839C153.24 85.1056 152.692 84.5664 152.023 84.5664C151.353 84.5664 150.806 85.1143 150.806 85.7839V87.4885H149.101C148.423 87.4885 147.884 88.0363 147.884 88.706C147.884 89.3756 148.432 89.9235 149.101 89.9235H150.806V91.628C150.806 92.3064 151.353 92.8456 152.023 92.8456C152.692 92.8456 153.24 92.2977 153.24 91.628V89.9235H154.944C155.623 89.9235 156.162 89.3756 156.162 88.706C156.162 88.0363 155.614 87.4885 154.944 87.4885Z" fill="url(#paint155_linear_1761_39379)"/>
<path d="M108.4 143.641H106.696V141.936C106.696 141.258 106.148 140.719 105.479 140.719C104.809 140.719 104.261 141.267 104.261 141.936V143.641H102.557C101.879 143.641 101.34 144.189 101.34 144.858C101.34 145.528 101.888 146.076 102.557 146.076H104.261V147.78C104.261 148.459 104.809 148.998 105.479 148.998C106.148 148.998 106.696 148.45 106.696 147.78V146.076H108.4C109.078 146.076 109.617 145.528 109.617 144.858C109.617 144.189 109.07 143.641 108.4 143.641Z" fill="url(#paint156_linear_1761_39379)"/>
<path d="M308.245 2.92205H306.541V1.21752C306.541 0.539188 305.993 0 305.324 0C304.654 0 304.106 0.547885 304.106 1.21752V2.92205H302.402C301.724 2.92205 301.185 3.46994 301.185 4.13958C301.185 4.80921 301.733 5.3571 302.402 5.3571H304.106V7.06163C304.106 7.73996 304.654 8.27915 305.324 8.27915C305.993 8.27915 306.541 7.73126 306.541 7.06163V5.3571H308.245C308.924 5.3571 309.463 4.80921 309.463 4.13958C309.463 3.46994 308.915 2.92205 308.245 2.92205Z" fill="url(#paint157_linear_1761_39379)"/>
<defs>
<linearGradient id="paint0_linear_1761_39379" x1="274.944" y1="314.693" x2="274.944" y2="8.49507" gradientUnits="userSpaceOnUse">
<stop stop-color="#7489D6"/>
<stop offset="1" stop-color="#7C90D9"/>
</linearGradient>
<linearGradient id="paint1_linear_1761_39379" x1="12.173" y1="316.46" x2="556.495" y2="316.46" gradientUnits="userSpaceOnUse">
<stop stop-color="#182C7E"/>
<stop offset="1" stop-color="#1A0048"/>
</linearGradient>
<linearGradient id="paint2_linear_1761_39379" x1="119.895" y1="323.131" x2="289.229" y2="323.131" gradientUnits="userSpaceOnUse">
<stop stop-color="#182C7E"/>
<stop offset="1" stop-color="#1A0048"/>
</linearGradient>
<linearGradient id="paint3_linear_1761_39379" x1="-107.974" y1="323.131" x2="569.72" y2="323.131" gradientUnits="userSpaceOnUse">
<stop stop-color="#182C7E"/>
<stop offset="1" stop-color="#1A0048"/>
</linearGradient>
<linearGradient id="paint4_linear_1761_39379" x1="-239.494" y1="323.131" x2="496.387" y2="323.131" gradientUnits="userSpaceOnUse">
<stop stop-color="#182C7E"/>
<stop offset="1" stop-color="#1A0048"/>
</linearGradient>
<linearGradient id="paint5_linear_1761_39379" x1="-478.224" y1="323.131" x2="689.668" y2="323.131" gradientUnits="userSpaceOnUse">
<stop stop-color="#182C7E"/>
<stop offset="1" stop-color="#1A0048"/>
</linearGradient>
<linearGradient id="paint6_linear_1761_39379" x1="217.583" y1="111.593" x2="194.393" y2="118.835" gradientUnits="userSpaceOnUse">
<stop stop-color="#4EC6FD"/>
<stop offset="1" stop-color="#1AA0FE"/>
</linearGradient>
<linearGradient id="paint7_linear_1761_39379" x1="216.966" y1="109.602" x2="193.775" y2="116.843" gradientUnits="userSpaceOnUse">
<stop stop-color="#4EC6FD"/>
<stop offset="1" stop-color="#1AA0FE"/>
</linearGradient>
<linearGradient id="paint8_linear_1761_39379" x1="216.34" y1="107.61" x2="193.149" y2="114.861" gradientUnits="userSpaceOnUse">
<stop stop-color="#4EC6FD"/>
<stop offset="1" stop-color="#1AA0FE"/>
</linearGradient>
<linearGradient id="paint9_linear_1761_39379" x1="67.5599" y1="168.722" x2="107.622" y2="192.466" gradientUnits="userSpaceOnUse">
<stop stop-color="#B5D9F8"/>
<stop offset="1" stop-color="#8EC1F8"/>
</linearGradient>
<linearGradient id="paint10_linear_1761_39379" x1="65.6209" y1="166.904" x2="106.239" y2="190.978" gradientUnits="userSpaceOnUse">
<stop stop-color="#B5D9F8"/>
<stop offset="1" stop-color="#8EC1F8"/>
</linearGradient>
<linearGradient id="paint11_linear_1761_39379" x1="392.021" y1="58.2921" x2="430.295" y2="96.55" gradientUnits="userSpaceOnUse">
<stop stop-color="#B5D9F8"/>
<stop offset="1" stop-color="#8EC1F8"/>
</linearGradient>
<linearGradient id="paint12_linear_1761_39379" x1="424.723" y1="87.2076" x2="391.043" y2="60.9325" gradientUnits="userSpaceOnUse">
<stop stop-color="#7489D6"/>
<stop offset="1" stop-color="#7C90D9"/>
</linearGradient>
<linearGradient id="paint13_linear_1761_39379" x1="87.1062" y1="285.935" x2="141.616" y2="340.443" gradientUnits="userSpaceOnUse">
<stop stop-color="#B5D9F8"/>
<stop offset="1" stop-color="#8EC1F8"/>
</linearGradient>
<linearGradient id="paint14_linear_1761_39379" x1="135.563" y1="331.333" x2="85.2905" y2="292.103" gradientUnits="userSpaceOnUse">
<stop stop-color="#7489D6"/>
<stop offset="1" stop-color="#7C90D9"/>
</linearGradient>
<linearGradient id="paint15_linear_1761_39379" x1="259.927" y1="297.528" x2="261.876" y2="309.581" gradientUnits="userSpaceOnUse">
<stop stop-color="#FFB8AB"/>
<stop offset="1" stop-color="#F99D8A"/>
</linearGradient>
<linearGradient id="paint16_linear_1761_39379" x1="214.514" y1="300.31" x2="212.426" y2="310.198" gradientUnits="userSpaceOnUse">
<stop stop-color="#FFB8AB"/>
<stop offset="1" stop-color="#F99D8A"/>
</linearGradient>
<linearGradient id="paint17_linear_1761_39379" x1="243.529" y1="211.284" x2="253.601" y2="309.555" gradientUnits="userSpaceOnUse">
<stop stop-color="#182C7E"/>
<stop offset="1" stop-color="#1A0048"/>
</linearGradient>
<linearGradient id="paint18_linear_1761_39379" x1="237.051" y1="224.658" x2="238.756" y2="241.364" gradientUnits="userSpaceOnUse">
<stop stop-color="#182C7E"/>
<stop offset="1" stop-color="#1A0048"/>
</linearGradient>
<linearGradient id="paint19_linear_1761_39379" x1="221.652" y1="214.335" x2="231.681" y2="312.154" gradientUnits="userSpaceOnUse">
<stop stop-color="#182C7E"/>
<stop offset="1" stop-color="#1A0048"/>
</linearGradient>
<linearGradient id="paint20_linear_1761_39379" x1="283.795" y1="171.739" x2="301.037" y2="175.181" gradientUnits="userSpaceOnUse">
<stop stop-color="#FFB8AB"/>
<stop offset="1" stop-color="#F99D8A"/>
</linearGradient>
<linearGradient id="paint21_linear_1761_39379" x1="271.529" y1="156.512" x2="213.835" y2="212.784" gradientUnits="userSpaceOnUse">
<stop stop-color="#182C7E"/>
<stop offset="1" stop-color="#1A0048"/>
</linearGradient>
<linearGradient id="paint22_linear_1761_39379" x1="238.129" y1="109.405" x2="235.153" y2="139.863" gradientUnits="userSpaceOnUse">
<stop stop-color="#FFB8AB"/>
<stop offset="1" stop-color="#F99D8A"/>
</linearGradient>
<linearGradient id="paint23_linear_1761_39379" x1="238.077" y1="110.324" x2="238.077" y2="140.049" gradientUnits="userSpaceOnUse">
<stop stop-color="#FFB8AB"/>
<stop offset="1" stop-color="#F99D8A"/>
</linearGradient>
<linearGradient id="paint24_linear_1761_39379" x1="237.964" y1="94.4349" x2="239.851" y2="123.655" gradientUnits="userSpaceOnUse">
<stop stop-color="#3945BA"/>
<stop offset="1" stop-color="#0C176F"/>
</linearGradient>
<linearGradient id="paint25_linear_1761_39379" x1="254.658" y1="311.25" x2="279.056" y2="311.25" gradientUnits="userSpaceOnUse">
<stop stop-color="#002E7E"/>
<stop offset="1" stop-color="#151A6D"/>
</linearGradient>
<linearGradient id="paint26_linear_1761_39379" x1="200.923" y1="311.955" x2="218.965" y2="311.955" gradientUnits="userSpaceOnUse">
<stop stop-color="#002E7E"/>
<stop offset="1" stop-color="#151A6D"/>
</linearGradient>
<linearGradient id="paint27_linear_1761_39379" x1="232.408" y1="118.872" x2="232.408" y2="118.952" gradientUnits="userSpaceOnUse">
<stop stop-color="#FFB8AB"/>
<stop offset="1" stop-color="#F99D8A"/>
</linearGradient>
<linearGradient id="paint28_linear_1761_39379" x1="227.26" y1="144.789" x2="258.163" y2="208.391" gradientUnits="userSpaceOnUse">
<stop stop-color="#6DB0FF"/>
<stop offset="1" stop-color="#4B56BB"/>
</linearGradient>
<linearGradient id="paint29_linear_1761_39379" x1="228.13" y1="139.713" x2="241.068" y2="139.713" gradientUnits="userSpaceOnUse">
<stop stop-color="#B5D9F8"/>
<stop offset="1" stop-color="#8EC1F8"/>
</linearGradient>
<linearGradient id="paint30_linear_1761_39379" x1="244.068" y1="134.371" x2="241.015" y2="144.458" gradientUnits="userSpaceOnUse">
<stop stop-color="#B5D9F8"/>
<stop offset="1" stop-color="#8EC1F8"/>
</linearGradient>
<linearGradient id="paint31_linear_1761_39379" x1="238.416" y1="140.639" x2="242.191" y2="148.396" gradientUnits="userSpaceOnUse">
<stop stop-color="#6DB0FF"/>
<stop offset="1" stop-color="#4B56BB"/>
</linearGradient>
<linearGradient id="paint32_linear_1761_39379" x1="236.207" y1="136.805" x2="236.207" y2="212.222" gradientUnits="userSpaceOnUse">
<stop stop-color="#182C7E"/>
<stop offset="1" stop-color="#1A0048"/>
</linearGradient>
<linearGradient id="paint33_linear_1761_39379" x1="192.463" y1="170.558" x2="298.524" y2="170.558" gradientUnits="userSpaceOnUse">
<stop stop-color="#182C7E"/>
<stop offset="1" stop-color="#1A0048"/>
</linearGradient>
<linearGradient id="paint34_linear_1761_39379" x1="204.241" y1="177.077" x2="225.758" y2="207.355" gradientUnits="userSpaceOnUse">
<stop stop-color="#B5D9F8"/>
<stop offset="1" stop-color="#8EC1F8"/>
</linearGradient>
<linearGradient id="paint35_linear_1761_39379" x1="217.852" y1="206.004" x2="200.561" y2="155.175" gradientUnits="userSpaceOnUse">
<stop stop-color="#FFB8AB"/>
<stop offset="1" stop-color="#F99D8A"/>
</linearGradient>
<linearGradient id="paint36_linear_1761_39379" x1="205.314" y1="136.806" x2="205.314" y2="212.222" gradientUnits="userSpaceOnUse">
<stop stop-color="#182C7E"/>
<stop offset="1" stop-color="#1A0048"/>
</linearGradient>
<linearGradient id="paint37_linear_1761_39379" x1="237.529" y1="140.911" x2="243.183" y2="198.917" gradientUnits="userSpaceOnUse">
<stop stop-color="#184AA7"/>
<stop offset="1" stop-color="#190E5B"/>
</linearGradient>
<linearGradient id="paint38_linear_1761_39379" x1="320.757" y1="221.938" x2="265.215" y2="120.866" gradientUnits="userSpaceOnUse">
<stop stop-color="#FFC39A"/>
<stop offset="1" stop-color="#E8A38C"/>
</linearGradient>
<linearGradient id="paint39_linear_1761_39379" x1="356.807" y1="306.309" x2="287.977" y2="306.309" gradientUnits="userSpaceOnUse">
<stop stop-color="#FCCFB0"/>
<stop offset="1" stop-color="#FCBA97"/>
</linearGradient>
<linearGradient id="paint40_linear_1761_39379" x1="329.418" y1="179.131" x2="305.865" y2="136.269" gradientUnits="userSpaceOnUse">
<stop stop-color="#435FEA"/>
<stop offset="1" stop-color="#008EFF"/>
</linearGradient>
<linearGradient id="paint41_linear_1761_39379" x1="315.471" y1="150.321" x2="306.6" y2="161.408" gradientUnits="userSpaceOnUse">
<stop stop-color="#FFC39A"/>
<stop offset="1" stop-color="#E8A38C"/>
</linearGradient>
<linearGradient id="paint42_linear_1761_39379" x1="312.245" y1="183.715" x2="325.231" y2="304.71" gradientUnits="userSpaceOnUse">
<stop stop-color="#002E66"/>
<stop offset="1" stop-color="#1A0048"/>
</linearGradient>
<linearGradient id="paint43_linear_1761_39379" x1="356.798" y1="302.668" x2="287.986" y2="302.668" gradientUnits="userSpaceOnUse">
<stop stop-color="#FCCFB0"/>
<stop offset="1" stop-color="#FCBA97"/>
</linearGradient>
<linearGradient id="paint44_linear_1761_39379" x1="336.356" y1="182.933" x2="349.177" y2="302.415" gradientUnits="userSpaceOnUse">
<stop stop-color="#002E66"/>
<stop offset="1" stop-color="#1A0048"/>
</linearGradient>
<linearGradient id="paint45_linear_1761_39379" x1="346.373" y1="201.901" x2="304.442" y2="125.595" gradientUnits="userSpaceOnUse">
<stop stop-color="#435FEA"/>
<stop offset="1" stop-color="#008EFF"/>
</linearGradient>
<linearGradient id="paint46_linear_1761_39379" x1="322.183" y1="134.692" x2="323.566" y2="201.073" gradientUnits="userSpaceOnUse">
<stop stop-color="#3945BA"/>
<stop offset="1" stop-color="#0C176F"/>
</linearGradient>
<linearGradient id="paint47_linear_1761_39379" x1="316.819" y1="124.685" x2="335.861" y2="127.927" gradientUnits="userSpaceOnUse">
<stop stop-color="#FFC39A"/>
<stop offset="1" stop-color="#E8A38C"/>
</linearGradient>
<linearGradient id="paint48_linear_1761_39379" x1="323.54" y1="129.482" x2="332.496" y2="129.482" gradientUnits="userSpaceOnUse">
<stop stop-color="#FFC39A"/>
<stop offset="1" stop-color="#E8A38C"/>
</linearGradient>
<linearGradient id="paint49_linear_1761_39379" x1="317.514" y1="114.752" x2="320.305" y2="114.752" gradientUnits="userSpaceOnUse">
<stop stop-color="#3945BA"/>
<stop offset="1" stop-color="#0C176F"/>
</linearGradient>
<linearGradient id="paint50_linear_1761_39379" x1="318.323" y1="118.159" x2="336.426" y2="121.245" gradientUnits="userSpaceOnUse">
<stop stop-color="#FFC39A"/>
<stop offset="1" stop-color="#E8A38C"/>
</linearGradient>
<linearGradient id="paint51_linear_1761_39379" x1="315.375" y1="114.309" x2="339.599" y2="114.309" gradientUnits="userSpaceOnUse">
<stop stop-color="#3945BA"/>
<stop offset="1" stop-color="#0C176F"/>
</linearGradient>
<linearGradient id="paint52_linear_1761_39379" x1="289.473" y1="171.907" x2="340.06" y2="171.907" gradientUnits="userSpaceOnUse">
<stop stop-color="#FFC39A"/>
<stop offset="1" stop-color="#E8A38C"/>
</linearGradient>
<linearGradient id="paint53_linear_1761_39379" x1="304.834" y1="129.044" x2="346.679" y2="161.542" gradientUnits="userSpaceOnUse">
<stop stop-color="#435FEA"/>
<stop offset="1" stop-color="#008EFF"/>
</linearGradient>
<linearGradient id="paint54_linear_1761_39379" x1="324.792" y1="213.361" x2="328.984" y2="230.684" gradientUnits="userSpaceOnUse">
<stop stop-color="#2E2A87"/>
<stop offset="1" stop-color="#000E42"/>
</linearGradient>
<linearGradient id="paint55_linear_1761_39379" x1="339.278" y1="133.466" x2="326.383" y2="137.717" gradientUnits="userSpaceOnUse">
<stop stop-color="#435FEA"/>
<stop offset="1" stop-color="#008EFF"/>
</linearGradient>
<linearGradient id="paint56_linear_1761_39379" x1="328.044" y1="135.032" x2="322.853" y2="136.744" gradientUnits="userSpaceOnUse">
<stop stop-color="#435FEA"/>
<stop offset="1" stop-color="#008EFF"/>
</linearGradient>
<linearGradient id="paint57_linear_1761_39379" x1="325.809" y1="135.232" x2="325.922" y2="140.563" gradientUnits="userSpaceOnUse">
<stop stop-color="#3945BA"/>
<stop offset="1" stop-color="#0C176F"/>
</linearGradient>
<linearGradient id="paint58_linear_1761_39379" x1="402.794" y1="224.713" x2="402.794" y2="331.741" gradientUnits="userSpaceOnUse">
<stop stop-color="#4DC5FD"/>
<stop offset="1" stop-color="#008EFF"/>
</linearGradient>
<linearGradient id="paint59_linear_1761_39379" x1="426.184" y1="224.711" x2="426.184" y2="331.74" gradientUnits="userSpaceOnUse">
<stop stop-color="#4DC5FD"/>
<stop offset="1" stop-color="#008EFF"/>
</linearGradient>
<linearGradient id="paint60_linear_1761_39379" x1="449.582" y1="224.71" x2="449.582" y2="331.739" gradientUnits="userSpaceOnUse">
<stop stop-color="#4DC5FD"/>
<stop offset="1" stop-color="#008EFF"/>
</linearGradient>
<linearGradient id="paint61_linear_1761_39379" x1="472.972" y1="224.713" x2="472.972" y2="331.742" gradientUnits="userSpaceOnUse">
<stop stop-color="#4DC5FD"/>
<stop offset="1" stop-color="#008EFF"/>
</linearGradient>
<linearGradient id="paint62_linear_1761_39379" x1="411.029" y1="131.17" x2="467.099" y2="163.373" gradientUnits="userSpaceOnUse">
<stop stop-color="white"/>
<stop offset="1" stop-color="#DEE3FC"/>
</linearGradient>
<linearGradient id="paint63_linear_1761_39379" x1="408.298" y1="133.101" x2="472.638" y2="170.06" gradientUnits="userSpaceOnUse">
<stop stop-color="#49D5FF"/>
<stop offset="1" stop-color="#00BBFF"/>
</linearGradient>
<linearGradient id="paint64_linear_1761_39379" x1="414.88" y1="166.321" x2="439.446" y2="180.432" gradientUnits="userSpaceOnUse">
<stop stop-color="white"/>
<stop offset="1" stop-color="#DEE3FC"/>
</linearGradient>
<linearGradient id="paint65_linear_1761_39379" x1="414.846" y1="169.294" x2="444.324" y2="186.222" gradientUnits="userSpaceOnUse">
<stop stop-color="white"/>
<stop offset="1" stop-color="#DEE3FC"/>
</linearGradient>
<linearGradient id="paint66_linear_1761_39379" x1="445.791" y1="176.026" x2="452.061" y2="179.625" gradientUnits="userSpaceOnUse">
<stop stop-color="white"/>
<stop offset="1" stop-color="#DEE3FC"/>
</linearGradient>
<linearGradient id="paint67_linear_1761_39379" x1="414.976" y1="178.958" x2="426.298" y2="185.462" gradientUnits="userSpaceOnUse">
<stop stop-color="white"/>
<stop offset="1" stop-color="#DEE3FC"/>
</linearGradient>
<linearGradient id="paint68_linear_1761_39379" x1="440.704" y1="166.817" x2="463.557" y2="179.945" gradientUnits="userSpaceOnUse">
<stop stop-color="white"/>
<stop offset="1" stop-color="#DEE3FC"/>
</linearGradient>
<linearGradient id="paint69_linear_1761_39379" x1="160.787" y1="147.17" x2="120.35" y2="114.131" gradientUnits="userSpaceOnUse">
<stop stop-color="#89D7FF"/>
<stop offset="0.22" stop-color="#9CDCFE"/>
<stop offset="1" stop-color="#DEF1FB"/>
</linearGradient>
<linearGradient id="paint70_linear_1761_39379" x1="142.067" y1="123.89" x2="163.439" y2="123.89" gradientUnits="userSpaceOnUse">
<stop stop-color="#06B1FD"/>
<stop offset="1" stop-color="#0084FF"/>
</linearGradient>
<linearGradient id="paint71_linear_1761_39379" x1="133.024" y1="108.341" x2="133.311" y2="152.693" gradientUnits="userSpaceOnUse">
<stop stop-color="#1AD2FF"/>
<stop offset="1" stop-color="#0063FF"/>
</linearGradient>
<linearGradient id="paint72_linear_1761_39379" x1="111.565" y1="219.527" x2="153.51" y2="219.527" gradientUnits="userSpaceOnUse">
<stop stop-color="#FFE16F"/>
<stop offset="1" stop-color="#FFBB3F"/>
</linearGradient>
<linearGradient id="paint73_linear_1761_39379" x1="116.287" y1="200.324" x2="142.325" y2="231.079" gradientUnits="userSpaceOnUse">
<stop stop-color="#FFE16F"/>
<stop offset="1" stop-color="#FFBB3F"/>
</linearGradient>
<linearGradient id="paint74_linear_1761_39379" x1="114.365" y1="201.354" x2="147.882" y2="234.856" gradientUnits="userSpaceOnUse">
<stop stop-color="#FFE16F"/>
<stop offset="1" stop-color="#FFBB3F"/>
</linearGradient>
<linearGradient id="paint75_linear_1761_39379" x1="413.053" y1="111.181" x2="432.869" y2="111.181" gradientUnits="userSpaceOnUse">
<stop stop-color="#FFE16F"/>
<stop offset="1" stop-color="#FFBB3F"/>
</linearGradient>
<linearGradient id="paint76_linear_1761_39379" x1="415.304" y1="102.098" x2="427.601" y2="116.628" gradientUnits="userSpaceOnUse">
<stop stop-color="#FFE16F"/>
<stop offset="1" stop-color="#FFBB3F"/>
</linearGradient>
<linearGradient id="paint77_linear_1761_39379" x1="414.377" y1="102.597" x2="430.205" y2="118.422" gradientUnits="userSpaceOnUse">
<stop stop-color="#FFE16F"/>
<stop offset="1" stop-color="#FFBB3F"/>
</linearGradient>
<linearGradient id="paint78_linear_1761_39379" x1="169.393" y1="39.6659" x2="197.313" y2="39.6659" gradientUnits="userSpaceOnUse">
<stop stop-color="#FFE16F"/>
<stop offset="1" stop-color="#FFBB3F"/>
</linearGradient>
<linearGradient id="paint79_linear_1761_39379" x1="172.53" y1="26.8995" x2="189.863" y2="47.3681" gradientUnits="userSpaceOnUse">
<stop stop-color="#FFE16F"/>
<stop offset="1" stop-color="#FFBB3F"/>
</linearGradient>
<linearGradient id="paint80_linear_1761_39379" x1="171.261" y1="27.565" x2="193.568" y2="49.8675" gradientUnits="userSpaceOnUse">
<stop stop-color="#FFE16F"/>
<stop offset="1" stop-color="#FFBB3F"/>
</linearGradient>
<linearGradient id="paint81_linear_1761_39379" x1="383.308" y1="217.886" x2="416.619" y2="217.886" gradientUnits="userSpaceOnUse">
<stop stop-color="#FFE16F"/>
<stop offset="1" stop-color="#FFBB3F"/>
</linearGradient>
<linearGradient id="paint82_linear_1761_39379" x1="387.065" y1="202.639" x2="407.738" y2="227.055" gradientUnits="userSpaceOnUse">
<stop stop-color="#FFE16F"/>
<stop offset="1" stop-color="#FFBB3F"/>
</linearGradient>
<linearGradient id="paint83_linear_1761_39379" x1="385.543" y1="203.445" x2="412.155" y2="230.051" gradientUnits="userSpaceOnUse">
<stop stop-color="#FFE16F"/>
<stop offset="1" stop-color="#FFBB3F"/>
</linearGradient>
<linearGradient id="paint84_linear_1761_39379" x1="131.155" y1="311.58" x2="196.724" y2="311.58" gradientUnits="userSpaceOnUse">
<stop stop-color="#FFE16F"/>
<stop offset="1" stop-color="#FFBB3F"/>
</linearGradient>
<linearGradient id="paint85_linear_1761_39379" x1="133.746" y1="311.58" x2="201.115" y2="311.58" gradientUnits="userSpaceOnUse">
<stop stop-color="#FFE16F"/>
<stop offset="1" stop-color="#FFBB3F"/>
</linearGradient>
<linearGradient id="paint86_linear_1761_39379" x1="133.746" y1="311.58" x2="201.115" y2="311.58" gradientUnits="userSpaceOnUse">
<stop stop-color="#FFE16F"/>
<stop offset="1" stop-color="#FFBB3F"/>
</linearGradient>
<linearGradient id="paint87_linear_1761_39379" x1="133.746" y1="311.58" x2="201.114" y2="311.58" gradientUnits="userSpaceOnUse">
<stop stop-color="#FFE16F"/>
<stop offset="1" stop-color="#FFBB3F"/>
</linearGradient>
<linearGradient id="paint88_linear_1761_39379" x1="133.746" y1="311.58" x2="201.123" y2="311.58" gradientUnits="userSpaceOnUse">
<stop stop-color="#FFE16F"/>
<stop offset="1" stop-color="#FFBB3F"/>
</linearGradient>
<linearGradient id="paint89_linear_1761_39379" x1="133.746" y1="311.58" x2="201.123" y2="311.58" gradientUnits="userSpaceOnUse">
<stop stop-color="#FFE16F"/>
<stop offset="1" stop-color="#FFBB3F"/>
</linearGradient>
<linearGradient id="paint90_linear_1761_39379" x1="133.746" y1="311.58" x2="201.115" y2="311.58" gradientUnits="userSpaceOnUse">
<stop stop-color="#FFE16F"/>
<stop offset="1" stop-color="#FFBB3F"/>
</linearGradient>
<linearGradient id="paint91_linear_1761_39379" x1="133.746" y1="311.58" x2="201.123" y2="311.58" gradientUnits="userSpaceOnUse">
<stop stop-color="#FFE16F"/>
<stop offset="1" stop-color="#FFBB3F"/>
</linearGradient>
<linearGradient id="paint92_linear_1761_39379" x1="133.746" y1="311.58" x2="201.123" y2="311.58" gradientUnits="userSpaceOnUse">
<stop stop-color="#FFE16F"/>
<stop offset="1" stop-color="#FFBB3F"/>
</linearGradient>
<linearGradient id="paint93_linear_1761_39379" x1="133.746" y1="311.58" x2="201.115" y2="311.58" gradientUnits="userSpaceOnUse">
<stop stop-color="#FFE16F"/>
<stop offset="1" stop-color="#FFBB3F"/>
</linearGradient>
<linearGradient id="paint94_linear_1761_39379" x1="133.746" y1="311.58" x2="201.115" y2="311.58" gradientUnits="userSpaceOnUse">
<stop stop-color="#FFE16F"/>
<stop offset="1" stop-color="#FFBB3F"/>
</linearGradient>
<linearGradient id="paint95_linear_1761_39379" x1="133.746" y1="311.58" x2="201.115" y2="311.58" gradientUnits="userSpaceOnUse">
<stop stop-color="#FFE16F"/>
<stop offset="1" stop-color="#FFBB3F"/>
</linearGradient>
<linearGradient id="paint96_linear_1761_39379" x1="133.746" y1="311.58" x2="201.115" y2="311.58" gradientUnits="userSpaceOnUse">
<stop stop-color="#FFE16F"/>
<stop offset="1" stop-color="#FFBB3F"/>
</linearGradient>
<linearGradient id="paint97_linear_1761_39379" x1="137.92" y1="301.843" x2="203.488" y2="301.843" gradientUnits="userSpaceOnUse">
<stop stop-color="#FFE16F"/>
<stop offset="1" stop-color="#FFBB3F"/>
</linearGradient>
<linearGradient id="paint98_linear_1761_39379" x1="140.519" y1="301.843" x2="207.888" y2="301.843" gradientUnits="userSpaceOnUse">
<stop stop-color="#FFE16F"/>
<stop offset="1" stop-color="#FFBB3F"/>
</linearGradient>
<linearGradient id="paint99_linear_1761_39379" x1="140.51" y1="301.843" x2="207.888" y2="301.843" gradientUnits="userSpaceOnUse">
<stop stop-color="#FFE16F"/>
<stop offset="1" stop-color="#FFBB3F"/>
</linearGradient>
<linearGradient id="paint100_linear_1761_39379" x1="140.511" y1="301.843" x2="207.888" y2="301.843" gradientUnits="userSpaceOnUse">
<stop stop-color="#FFE16F"/>
<stop offset="1" stop-color="#FFBB3F"/>
</linearGradient>
<linearGradient id="paint101_linear_1761_39379" x1="140.519" y1="301.843" x2="207.879" y2="301.843" gradientUnits="userSpaceOnUse">
<stop stop-color="#FFE16F"/>
<stop offset="1" stop-color="#FFBB3F"/>
</linearGradient>
<linearGradient id="paint102_linear_1761_39379" x1="140.511" y1="301.843" x2="207.888" y2="301.843" gradientUnits="userSpaceOnUse">
<stop stop-color="#FFE16F"/>
<stop offset="1" stop-color="#FFBB3F"/>
</linearGradient>
<linearGradient id="paint103_linear_1761_39379" x1="140.511" y1="301.843" x2="207.888" y2="301.843" gradientUnits="userSpaceOnUse">
<stop stop-color="#FFE16F"/>
<stop offset="1" stop-color="#FFBB3F"/>
</linearGradient>
<linearGradient id="paint104_linear_1761_39379" x1="140.519" y1="301.843" x2="207.879" y2="301.843" gradientUnits="userSpaceOnUse">
<stop stop-color="#FFE16F"/>
<stop offset="1" stop-color="#FFBB3F"/>
</linearGradient>
<linearGradient id="paint105_linear_1761_39379" x1="140.511" y1="301.843" x2="207.888" y2="301.843" gradientUnits="userSpaceOnUse">
<stop stop-color="#FFE16F"/>
<stop offset="1" stop-color="#FFBB3F"/>
</linearGradient>
<linearGradient id="paint106_linear_1761_39379" x1="140.511" y1="301.843" x2="207.888" y2="301.843" gradientUnits="userSpaceOnUse">
<stop stop-color="#FFE16F"/>
<stop offset="1" stop-color="#FFBB3F"/>
</linearGradient>
<linearGradient id="paint107_linear_1761_39379" x1="140.52" y1="301.843" x2="207.888" y2="301.843" gradientUnits="userSpaceOnUse">
<stop stop-color="#FFE16F"/>
<stop offset="1" stop-color="#FFBB3F"/>
</linearGradient>
<linearGradient id="paint108_linear_1761_39379" x1="140.51" y1="301.843" x2="207.888" y2="301.843" gradientUnits="userSpaceOnUse">
<stop stop-color="#FFE16F"/>
<stop offset="1" stop-color="#FFBB3F"/>
</linearGradient>
<linearGradient id="paint109_linear_1761_39379" x1="140.511" y1="301.843" x2="207.888" y2="301.843" gradientUnits="userSpaceOnUse">
<stop stop-color="#FFE16F"/>
<stop offset="1" stop-color="#FFBB3F"/>
</linearGradient>
<linearGradient id="paint110_linear_1761_39379" x1="127.433" y1="292.101" x2="193.002" y2="292.101" gradientUnits="userSpaceOnUse">
<stop stop-color="#FFE16F"/>
<stop offset="1" stop-color="#FFBB3F"/>
</linearGradient>
<linearGradient id="paint111_linear_1761_39379" x1="130.025" y1="292.101" x2="197.393" y2="292.101" gradientUnits="userSpaceOnUse">
<stop stop-color="#FFE16F"/>
<stop offset="1" stop-color="#FFBB3F"/>
</linearGradient>
<linearGradient id="paint112_linear_1761_39379" x1="130.024" y1="292.101" x2="197.393" y2="292.101" gradientUnits="userSpaceOnUse">
<stop stop-color="#FFE16F"/>
<stop offset="1" stop-color="#FFBB3F"/>
</linearGradient>
<linearGradient id="paint113_linear_1761_39379" x1="130.025" y1="292.101" x2="197.393" y2="292.101" gradientUnits="userSpaceOnUse">
<stop stop-color="#FFE16F"/>
<stop offset="1" stop-color="#FFBB3F"/>
</linearGradient>
<linearGradient id="paint114_linear_1761_39379" x1="130.025" y1="292.101" x2="197.402" y2="292.101" gradientUnits="userSpaceOnUse">
<stop stop-color="#FFE16F"/>
<stop offset="1" stop-color="#FFBB3F"/>
</linearGradient>
<linearGradient id="paint115_linear_1761_39379" x1="130.025" y1="292.101" x2="197.402" y2="292.101" gradientUnits="userSpaceOnUse">
<stop stop-color="#FFE16F"/>
<stop offset="1" stop-color="#FFBB3F"/>
</linearGradient>
<linearGradient id="paint116_linear_1761_39379" x1="130.024" y1="292.101" x2="197.393" y2="292.101" gradientUnits="userSpaceOnUse">
<stop stop-color="#FFE16F"/>
<stop offset="1" stop-color="#FFBB3F"/>
</linearGradient>
<linearGradient id="paint117_linear_1761_39379" x1="130.025" y1="292.101" x2="197.402" y2="292.101" gradientUnits="userSpaceOnUse">
<stop stop-color="#FFE16F"/>
<stop offset="1" stop-color="#FFBB3F"/>
</linearGradient>
<linearGradient id="paint118_linear_1761_39379" x1="130.025" y1="292.101" x2="197.402" y2="292.101" gradientUnits="userSpaceOnUse">
<stop stop-color="#FFE16F"/>
<stop offset="1" stop-color="#FFBB3F"/>
</linearGradient>
<linearGradient id="paint119_linear_1761_39379" x1="130.024" y1="292.101" x2="197.393" y2="292.101" gradientUnits="userSpaceOnUse">
<stop stop-color="#FFE16F"/>
<stop offset="1" stop-color="#FFBB3F"/>
</linearGradient>
<linearGradient id="paint120_linear_1761_39379" x1="130.025" y1="292.101" x2="197.402" y2="292.101" gradientUnits="userSpaceOnUse">
<stop stop-color="#FFE16F"/>
<stop offset="1" stop-color="#FFBB3F"/>
</linearGradient>
<linearGradient id="paint121_linear_1761_39379" x1="130.024" y1="292.101" x2="197.393" y2="292.101" gradientUnits="userSpaceOnUse">
<stop stop-color="#FFE16F"/>
<stop offset="1" stop-color="#FFBB3F"/>
</linearGradient>
<linearGradient id="paint122_linear_1761_39379" x1="130.024" y1="292.101" x2="197.393" y2="292.101" gradientUnits="userSpaceOnUse">
<stop stop-color="#FFE16F"/>
<stop offset="1" stop-color="#FFBB3F"/>
</linearGradient>
<linearGradient id="paint123_linear_1761_39379" x1="128.633" y1="282.362" x2="194.202" y2="282.362" gradientUnits="userSpaceOnUse">
<stop stop-color="#FFE16F"/>
<stop offset="1" stop-color="#FFBB3F"/>
</linearGradient>
<linearGradient id="paint124_linear_1761_39379" x1="131.225" y1="282.362" x2="198.602" y2="282.362" gradientUnits="userSpaceOnUse">
<stop stop-color="#FFE16F"/>
<stop offset="1" stop-color="#FFBB3F"/>
</linearGradient>
<linearGradient id="paint125_linear_1761_39379" x1="131.233" y1="282.362" x2="198.602" y2="282.362" gradientUnits="userSpaceOnUse">
<stop stop-color="#FFE16F"/>
<stop offset="1" stop-color="#FFBB3F"/>
</linearGradient>
<linearGradient id="paint126_linear_1761_39379" x1="131.233" y1="282.362" x2="198.602" y2="282.362" gradientUnits="userSpaceOnUse">
<stop stop-color="#FFE16F"/>
<stop offset="1" stop-color="#FFBB3F"/>
</linearGradient>
<linearGradient id="paint127_linear_1761_39379" x1="131.233" y1="282.362" x2="198.602" y2="282.362" gradientUnits="userSpaceOnUse">
<stop stop-color="#FFE16F"/>
<stop offset="1" stop-color="#FFBB3F"/>
</linearGradient>
<linearGradient id="paint128_linear_1761_39379" x1="131.233" y1="282.362" x2="198.593" y2="282.362" gradientUnits="userSpaceOnUse">
<stop stop-color="#FFE16F"/>
<stop offset="1" stop-color="#FFBB3F"/>
</linearGradient>
<linearGradient id="paint129_linear_1761_39379" x1="131.233" y1="282.362" x2="198.602" y2="282.362" gradientUnits="userSpaceOnUse">
<stop stop-color="#FFE16F"/>
<stop offset="1" stop-color="#FFBB3F"/>
</linearGradient>
<linearGradient id="paint130_linear_1761_39379" x1="131.225" y1="282.362" x2="198.602" y2="282.362" gradientUnits="userSpaceOnUse">
<stop stop-color="#FFE16F"/>
<stop offset="1" stop-color="#FFBB3F"/>
</linearGradient>
<linearGradient id="paint131_linear_1761_39379" x1="131.233" y1="282.362" x2="198.602" y2="282.362" gradientUnits="userSpaceOnUse">
<stop stop-color="#FFE16F"/>
<stop offset="1" stop-color="#FFBB3F"/>
</linearGradient>
<linearGradient id="paint132_linear_1761_39379" x1="131.224" y1="282.362" x2="198.602" y2="282.362" gradientUnits="userSpaceOnUse">
<stop stop-color="#FFE16F"/>
<stop offset="1" stop-color="#FFBB3F"/>
</linearGradient>
<linearGradient id="paint133_linear_1761_39379" x1="131.224" y1="282.362" x2="198.602" y2="282.362" gradientUnits="userSpaceOnUse">
<stop stop-color="#FFE16F"/>
<stop offset="1" stop-color="#FFBB3F"/>
</linearGradient>
<linearGradient id="paint134_linear_1761_39379" x1="131.233" y1="282.362" x2="198.602" y2="282.362" gradientUnits="userSpaceOnUse">
<stop stop-color="#FFE16F"/>
<stop offset="1" stop-color="#FFBB3F"/>
</linearGradient>
<linearGradient id="paint135_linear_1761_39379" x1="131.224" y1="282.362" x2="198.602" y2="282.362" gradientUnits="userSpaceOnUse">
<stop stop-color="#FFE16F"/>
<stop offset="1" stop-color="#FFBB3F"/>
</linearGradient>
<linearGradient id="paint136_linear_1761_39379" x1="79.4372" y1="110.82" x2="293.723" y2="253.747" gradientUnits="userSpaceOnUse">
<stop stop-color="#DDF4FF"/>
<stop offset="1" stop-color="#AFE6FF"/>
</linearGradient>
<linearGradient id="paint137_linear_1761_39379" x1="119.165" y1="7.56456" x2="547.589" y2="293.313" gradientUnits="userSpaceOnUse">
<stop stop-color="#DDF4FF"/>
<stop offset="1" stop-color="#AFE6FF"/>
</linearGradient>
<linearGradient id="paint138_linear_1761_39379" x1="-3.1128" y1="233.296" x2="144.484" y2="331.742" gradientUnits="userSpaceOnUse">
<stop stop-color="#DDF4FF"/>
<stop offset="1" stop-color="#AFE6FF"/>
</linearGradient>
<linearGradient id="paint139_linear_1761_39379" x1="148.727" y1="-42.4215" x2="419.911" y2="138.466" gradientUnits="userSpaceOnUse">
<stop stop-color="#DDF4FF"/>
<stop offset="1" stop-color="#D9FFFF"/>
</linearGradient>
<linearGradient id="paint140_linear_1761_39379" x1="343.825" y1="26.8631" x2="349.573" y2="26.8631" gradientUnits="userSpaceOnUse">
<stop stop-color="#DDF4FF"/>
<stop offset="1" stop-color="#AFE6FF"/>
</linearGradient>
<linearGradient id="paint141_linear_1761_39379" x1="370.997" y1="286.577" x2="376.744" y2="286.577" gradientUnits="userSpaceOnUse">
<stop stop-color="#DDF4FF"/>
<stop offset="1" stop-color="#AFE6FF"/>
</linearGradient>
<linearGradient id="paint142_linear_1761_39379" x1="51.6045" y1="80.7484" x2="480.02" y2="366.497" gradientUnits="userSpaceOnUse">
<stop stop-color="#DDF4FF"/>
<stop offset="1" stop-color="#AFE6FF"/>
</linearGradient>
<linearGradient id="paint143_linear_1761_39379" x1="306.41" y1="-30.167" x2="464.416" y2="75.2175" gradientUnits="userSpaceOnUse">
<stop stop-color="#DDF4FF"/>
<stop offset="1" stop-color="#AFE6FF"/>
</linearGradient>
<linearGradient id="paint144_linear_1761_39379" x1="57.4651" y1="200.423" x2="485.888" y2="486.18" gradientUnits="userSpaceOnUse">
<stop stop-color="#DDF4FF"/>
<stop offset="1" stop-color="#AFE6FF"/>
</linearGradient>
<linearGradient id="paint145_linear_1761_39379" x1="-23.4763" y1="235.259" x2="404.947" y2="521.016" gradientUnits="userSpaceOnUse">
<stop stop-color="#DDF4FF"/>
<stop offset="1" stop-color="#D9FFFF"/>
</linearGradient>
<linearGradient id="paint146_linear_1761_39379" x1="372.945" y1="62.4427" x2="801.359" y2="348.196" gradientUnits="userSpaceOnUse">
<stop stop-color="#DDF4FF"/>
<stop offset="1" stop-color="#AFE6FF"/>
</linearGradient>
<linearGradient id="paint147_linear_1761_39379" x1="436.818" y1="218.372" x2="865.243" y2="504.121" gradientUnits="userSpaceOnUse">
<stop stop-color="#DDF4FF"/>
<stop offset="1" stop-color="#D9FFFF"/>
</linearGradient>
<linearGradient id="paint148_linear_1761_39379" x1="337.895" y1="210.692" x2="573.765" y2="368.017" gradientUnits="userSpaceOnUse">
<stop stop-color="#DDF4FF"/>
<stop offset="1" stop-color="#D9FFFF"/>
</linearGradient>
<linearGradient id="paint149_linear_1761_39379" x1="28.615" y1="-26.1586" x2="223.7" y2="103.961" gradientUnits="userSpaceOnUse">
<stop stop-color="#DDF4FF"/>
<stop offset="1" stop-color="#AFE6FF"/>
</linearGradient>
<linearGradient id="paint150_linear_1761_39379" x1="161.205" y1="-114.743" x2="589.629" y2="171.014" gradientUnits="userSpaceOnUse">
<stop stop-color="#DDF4FF"/>
<stop offset="1" stop-color="#AFE6FF"/>
</linearGradient>
<linearGradient id="paint151_linear_1761_39379" x1="184.272" y1="-22.3398" x2="612.697" y2="263.417" gradientUnits="userSpaceOnUse">
<stop stop-color="#DDF4FF"/>
<stop offset="1" stop-color="#AFE6FF"/>
</linearGradient>
<linearGradient id="paint152_linear_1761_39379" x1="74.1466" y1="15.8123" x2="502.551" y2="301.557" gradientUnits="userSpaceOnUse">
<stop stop-color="#DDF4FF"/>
<stop offset="1" stop-color="#AFE6FF"/>
</linearGradient>
<linearGradient id="paint153_linear_1761_39379" x1="139.754" y1="-11.55" x2="568.178" y2="274.199" gradientUnits="userSpaceOnUse">
<stop stop-color="#DDF4FF"/>
<stop offset="1" stop-color="#D9FFFF"/>
</linearGradient>
<linearGradient id="paint154_linear_1761_39379" x1="-13.6597" y1="159.633" x2="414.763" y2="445.39" gradientUnits="userSpaceOnUse">
<stop stop-color="#DDF4FF"/>
<stop offset="1" stop-color="#AFE6FF"/>
</linearGradient>
<linearGradient id="paint155_linear_1761_39379" x1="147.884" y1="88.706" x2="156.17" y2="88.706" gradientUnits="userSpaceOnUse">
<stop stop-color="#DDF4FF"/>
<stop offset="1" stop-color="#AFE6FF"/>
</linearGradient>
<linearGradient id="paint156_linear_1761_39379" x1="102.557" y1="141.936" x2="108.462" y2="147.849" gradientUnits="userSpaceOnUse">
<stop stop-color="#DDF4FF"/>
<stop offset="1" stop-color="#AFE6FF"/>
</linearGradient>
<linearGradient id="paint157_linear_1761_39379" x1="301.35" y1="0.165235" x2="311.082" y2="9.89489" gradientUnits="userSpaceOnUse">
<stop stop-color="#DDF4FF"/>
<stop offset="1" stop-color="#AFE6FF"/>
</linearGradient>
</defs>
</svg>
